M48
;Layer_Color=9474304
;FILE_FORMAT=4:4
METRIC,LZ
;TYPE=PLATED
T01F00S00C0.3000
T02F00S00C1.0000
;TYPE=NON_PLATED
T03F00S00C3.3000
%
T01
X00363Y0001
X00375Y0001
X00388Y0001
X00405Y0001
X00435
X00465
X00495
X00513Y0001
X00525Y0001
X00538Y0001
X00555Y0001
X00585
X00613Y0001
Y0006
X00638
X006255Y00085
X006005
X005755
X00588Y0011
X00613
X00638
X0069Y0012
X006755Y00135
X0069Y0015
Y0018
X00663Y0016
X006255Y00185
X00601Y00184
X00588Y0016
X00594Y00154
X00604Y00144
X00569
X005755Y00135
X00569Y00163
X00566Y00174
X00563Y0019
Y00203
X00527Y00188
Y00179
X00495Y00182
Y00199
X004755Y00185
X00444183Y00188
Y00164
X00424183Y001735
X00435Y0013
X00455
X00473
X00491
X00488Y0011
X00513
X004755Y00085
X004505
X004255
X004005
X003755
X00366183Y00156
X00372183Y00196
X00357183
X00438Y0011
X00438Y0006
X00463
X00485Y0003
X00505
X00554Y00042
X00588Y0006
X0069Y0009
X003505Y00085
X003255
X003005
X00288Y0011
X00263
X00265Y00127
Y00089
X0025
Y00073
X00265
Y00055
X0025
X002505Y00035
X002755
X00294542Y000385
X003255Y00035
X003505
X00345Y0001
X00315
X00285
X00255
X00238Y0001
X00225Y0001
X00213Y0001
X00195Y0001
X00165
X00135
X00105
X00088Y0001
X00075Y0001
X000755Y00035
X00063Y0006
X000755Y00085
X000505
X000255
X0001Y0009
X00013Y0011
X0001Y0012
Y0015
X00013Y0016
X0001Y0018
X000255Y00185
X00035Y0019
X00063Y0016
X00088
X00083Y0017
X001005Y00185
X00126Y0019
Y002
Y0018
X00178364Y00168636
X00204Y00184
X00233Y0018
X00245
X00257
X00269
X00281
X0024Y00201
X00342183Y00196
X00350183Y00156
X00328Y00124
X00319
Y00112459
X00328
X00335875Y00067875
X002255Y00035
X002005
X001755
X001255
X00138Y0011
X00088
X00063
X00038
X00197Y00102
X0021Y00094
X00213Y0011
X00192136Y00207864
X0018Y00212
X001755Y00235
X00167Y0023
Y00249
X00163Y0026
X00167Y00285364
X00163Y0031
X0017Y0032
X002005Y00335
X00212Y00309575
X00212Y00298
Y00285
X00254Y002905
X00263Y0031
X00268Y00357
X00235Y00367
X00238Y0041
X00263
X00288
X00313
X00338
X0033Y00385
Y00373
Y00361
X003255Y00335
X00341Y0034
X00335Y0031
X00311154Y00296654
X00302Y00271
X00296Y00259
Y00246
Y00229
X00285Y00225
X00264Y00226
X00342183
Y00211
X00344Y00267
X00331
X0035Y00376
X003505Y00385
X00345Y0044
X00315
X00285
X00255
X00225
X00195
X00165
X00135
X00105
X00075
X00087Y00405
X000755Y00385
X000505
X00035Y00376
X0001Y0036
Y0033
X0002Y00335
X0003
X0004
Y00315
X0003
X0002
X00013Y0031
X0001Y003
Y0027
X00013Y0026
X0001Y0024
Y0021
X00038Y0021
X00035Y0022
X00083Y00224
X000755Y00235
X001005
X001255
X00113Y0026
X00088
X00063
X000755Y00285
X00082Y00324
Y00339
X00097
Y00324
X00112
X00127
Y00339
X00112
X00367Y0033
Y0031975
Y0031
X00388Y00339
Y0035
Y00361
Y00372
X00406Y00359
Y00348
Y00337
X0042Y00317
Y00306
Y00295
X00445Y00302
Y00317
X0046
X00496Y0031
X005005Y00335
Y00385
X00489Y00391
Y0041
X00513Y0041
X00538
X00563
X00588
X00613
X006255Y00385
X00613Y0036
X00588
X00585Y00345
X006005Y00335
X006255
X00663Y0036
X0069Y0036
Y0033
Y003
X006755Y00285
X0069Y0027
Y0024
Y0021
X00638Y0021
X00609Y00216
X00588Y0021
X00585Y00233
Y00245
X00563Y0026
X0057Y00269
X00546
X00528
X005255Y00285
X00530096Y00292904
X0055Y00293
X00542596Y00305404
X0057Y00293
X00611Y00268
X006255Y00235
X00663Y0026
Y0031
X00549Y00359
X00538Y0036
X004755Y00385
X00463Y0041
X00438
X00421Y0041
X00388Y0041
X00363
X00375Y0044
X00405
X00435
X00465
X00495
X00525
X00555
X00585
X00513Y0026
X00495Y00233
Y00216
X00488Y0021
X004755Y00235
Y00285
X00432Y00255
X00416656Y00249656
X00426Y00217
Y00208
X00372183Y00211
Y00226
X00357183
Y00211
X00363Y0036
T02
X001224Y000506
X001478
X001732
Y00076
X001986
X00224
Y000506
X001986
X001478Y00076
X001224
X00541386Y0039279
X00566386
X00591386
T03
X0067Y0003
X0003
Y0042
X0067
M30
