G04*
G04 #@! TF.GenerationSoftware,Altium Limited,Altium Designer,25.4.2 (15)*
G04*
G04 Layer_Physical_Order=4*
G04 Layer_Color=16711680*
%FSLAX44Y44*%
%MOMM*%
G71*
G04*
G04 #@! TF.SameCoordinates,F3998410-8278-4BEB-A66F-791B6528EB16*
G04*
G04*
G04 #@! TF.FilePolarity,Positive*
G04*
G01*
G75*
%ADD11C,0.2000*%
%ADD12C,0.4000*%
%ADD13C,0.2500*%
%ADD15C,0.5000*%
%ADD76C,0.7000*%
%ADD86C,1.6000*%
%ADD87R,1.6000X1.6000*%
%ADD88C,0.7000*%
G36*
X644331Y444536D02*
X642922Y443127D01*
X639638Y438606D01*
X637101Y433627D01*
X635374Y428313D01*
X634500Y422794D01*
Y417206D01*
X635374Y411687D01*
X637101Y406373D01*
X639638Y401394D01*
X642922Y396873D01*
X646873Y392922D01*
X651394Y389638D01*
X656373Y387101D01*
X661687Y385374D01*
X667206Y384500D01*
X672794D01*
X678313Y385374D01*
X683627Y387101D01*
X688606Y389638D01*
X693127Y392922D01*
X693614Y393410D01*
X695000Y392836D01*
Y57164D01*
X693614Y56590D01*
X693127Y57078D01*
X688606Y60362D01*
X683627Y62899D01*
X678313Y64626D01*
X672794Y65500D01*
X667206D01*
X661687Y64626D01*
X656373Y62899D01*
X651394Y60362D01*
X646873Y57078D01*
X642922Y53127D01*
X639638Y48606D01*
X637101Y43627D01*
X635374Y38313D01*
X634500Y32794D01*
Y27206D01*
X635374Y21687D01*
X637101Y16373D01*
X639638Y11394D01*
X642922Y6873D01*
X644331Y5464D01*
X643757Y4078D01*
X56243Y4078D01*
X55669Y5464D01*
X57078Y6873D01*
X60362Y11394D01*
X62899Y16373D01*
X64626Y21687D01*
X65500Y27206D01*
Y32794D01*
X64626Y38313D01*
X62899Y43627D01*
X60362Y48606D01*
X57078Y53127D01*
X53127Y57078D01*
X48606Y60362D01*
X43627Y62899D01*
X38313Y64626D01*
X32794Y65500D01*
X27206D01*
X21687Y64626D01*
X16373Y62899D01*
X11394Y60362D01*
X6873Y57078D01*
X5464Y55669D01*
X4078Y56243D01*
X4078Y393758D01*
X5464Y394332D01*
X6873Y392922D01*
X11394Y389638D01*
X16373Y387101D01*
X21687Y385374D01*
X27206Y384500D01*
X32794D01*
X38313Y385374D01*
X43627Y387101D01*
X48606Y389638D01*
X53127Y392922D01*
X57078Y396873D01*
X60362Y401394D01*
X62899Y406373D01*
X64626Y411687D01*
X65500Y417206D01*
Y422794D01*
X64626Y428313D01*
X62899Y433627D01*
X60362Y438606D01*
X57078Y443127D01*
X55669Y444536D01*
X56243Y445922D01*
X643757D01*
X644331Y444536D01*
D02*
G37*
%LPC*%
G36*
X186094Y428500D02*
X183906D01*
X181884Y427663D01*
X180337Y426115D01*
X179500Y424094D01*
Y421906D01*
X180337Y419884D01*
X181884Y418337D01*
X183906Y417500D01*
X186094D01*
X188116Y418337D01*
X189663Y419884D01*
X190500Y421906D01*
Y424094D01*
X189663Y426115D01*
X188116Y427663D01*
X186094Y428500D01*
D02*
G37*
G36*
X593386Y403125D02*
Y394790D01*
X601720D01*
X601170Y396843D01*
X599788Y399237D01*
X597833Y401192D01*
X595439Y402575D01*
X593386Y403125D01*
D02*
G37*
G36*
X589386D02*
X587333Y402575D01*
X584939Y401192D01*
X582984Y399237D01*
X581601Y396843D01*
X581051Y394790D01*
X589386D01*
Y403125D01*
D02*
G37*
G36*
X567702Y402790D02*
X565069D01*
X562526Y402108D01*
X560246Y400792D01*
X558384Y398930D01*
X557067Y396650D01*
X556386Y394107D01*
Y391474D01*
X557067Y388930D01*
X558384Y386650D01*
X560246Y384788D01*
X562526Y383471D01*
X565069Y382790D01*
X567702D01*
X570246Y383471D01*
X572526Y384788D01*
X574388Y386650D01*
X575704Y388930D01*
X576386Y391474D01*
Y394107D01*
X575704Y396650D01*
X574388Y398930D01*
X572526Y400792D01*
X570246Y402108D01*
X567702Y402790D01*
D02*
G37*
G36*
X551386D02*
X531386D01*
Y382790D01*
X551386D01*
Y402790D01*
D02*
G37*
G36*
X601720Y390790D02*
X593386D01*
Y382456D01*
X595439Y383006D01*
X597833Y384388D01*
X599788Y386343D01*
X601170Y388737D01*
X601720Y390790D01*
D02*
G37*
G36*
X589386D02*
X581051D01*
X581601Y388737D01*
X582984Y386343D01*
X584939Y384388D01*
X587333Y383006D01*
X589386Y382456D01*
Y390790D01*
D02*
G37*
G36*
X313500Y398500D02*
X178500D01*
Y379000D01*
X313500D01*
Y398500D01*
D02*
G37*
G36*
X404094Y382500D02*
X401906D01*
X399884Y381663D01*
X398337Y380116D01*
X397500Y378094D01*
Y375906D01*
X398337Y373885D01*
X399884Y372337D01*
X401906Y371500D01*
X404094D01*
X406115Y372337D01*
X407663Y373885D01*
X408500Y375906D01*
Y378094D01*
X407663Y380116D01*
X406115Y381663D01*
X404094Y382500D01*
D02*
G37*
G36*
X331094Y390500D02*
X328906D01*
X326884Y389663D01*
X325337Y388116D01*
X324500Y386094D01*
Y383906D01*
X325337Y381884D01*
X326884Y380337D01*
X328153Y379812D01*
Y378188D01*
X326884Y377663D01*
X325337Y376115D01*
X324500Y374094D01*
Y371906D01*
X325337Y369884D01*
X326884Y368337D01*
X328153Y367812D01*
Y366188D01*
X326884Y365663D01*
X325337Y364115D01*
X324500Y362094D01*
Y359906D01*
X325337Y357884D01*
X326884Y356337D01*
X328906Y355500D01*
X331094D01*
X333116Y356337D01*
X334663Y357884D01*
X335500Y359906D01*
Y362094D01*
X334663Y364115D01*
X333116Y365663D01*
X331847Y366188D01*
Y367812D01*
X333116Y368337D01*
X334663Y369884D01*
X335500Y371906D01*
Y374094D01*
X334663Y376115D01*
X333116Y377663D01*
X331847Y378188D01*
Y379812D01*
X333116Y380337D01*
X334663Y381884D01*
X335500Y383906D01*
Y386094D01*
X334663Y388116D01*
X333116Y389663D01*
X331094Y390500D01*
D02*
G37*
G36*
X292000Y342059D02*
X292000Y342059D01*
X227000D01*
X227000Y342059D01*
X225830Y341826D01*
X224837Y341163D01*
X224837Y341163D01*
X166151Y282477D01*
X166094Y282500D01*
X163906D01*
X161884Y281663D01*
X160337Y280116D01*
X159500Y278094D01*
Y275906D01*
X160337Y273885D01*
X161884Y272337D01*
X163906Y271500D01*
X166094D01*
X168116Y272337D01*
X169663Y273885D01*
X170500Y275906D01*
Y278094D01*
X170476Y278151D01*
X192555Y300230D01*
X193941Y299656D01*
Y275267D01*
X172151Y253477D01*
X172094Y253500D01*
X169906D01*
X167885Y252663D01*
X166337Y251115D01*
X165500Y249094D01*
Y246906D01*
X166337Y244884D01*
X167885Y243337D01*
X169906Y242500D01*
X172094D01*
X174116Y243337D01*
X175663Y244884D01*
X176500Y246906D01*
Y249094D01*
X176476Y249151D01*
X199163Y271837D01*
X199163Y271837D01*
X199515Y272364D01*
X201228Y272772D01*
X213000Y261000D01*
X221000Y253000D01*
X223000D01*
X223000Y253000D01*
X224303Y252526D01*
X224830Y252174D01*
X226000Y251941D01*
X226000Y251941D01*
X262925D01*
X283084Y231783D01*
X282732Y230014D01*
X281884Y229663D01*
X280337Y228116D01*
X279500Y226094D01*
Y223906D01*
X280337Y221884D01*
X281884Y220337D01*
X283906Y219500D01*
X284821D01*
X284999Y219461D01*
X285336Y219455D01*
X285587Y219436D01*
X285809Y219404D01*
X286002Y219363D01*
X286168Y219313D01*
X286309Y219259D01*
X286429Y219199D01*
X286532Y219136D01*
X286556Y219119D01*
X287837Y217837D01*
X287837Y217837D01*
X288829Y217174D01*
X290000Y216941D01*
X300882D01*
X300882Y216941D01*
X302053Y217174D01*
X303045Y217837D01*
X309163Y223955D01*
X309163Y223955D01*
X309826Y224947D01*
X310059Y226117D01*
X310059Y226118D01*
Y266000D01*
X310059Y266000D01*
X309826Y267171D01*
X309163Y268163D01*
X307881Y269445D01*
X307864Y269468D01*
X307801Y269571D01*
X307741Y269691D01*
X307687Y269832D01*
X307637Y269998D01*
X307596Y270191D01*
X307564Y270413D01*
X307545Y270664D01*
X307539Y271001D01*
X307500Y271179D01*
Y272094D01*
X306663Y274116D01*
X305116Y275663D01*
X303094Y276500D01*
X300906D01*
X298885Y275663D01*
X297337Y274116D01*
X296500Y272094D01*
Y269906D01*
X297337Y267885D01*
X298722Y266500D01*
X298605Y265736D01*
X298262Y265000D01*
X271326D01*
X270163Y266163D01*
X269170Y266826D01*
X268000Y267059D01*
X268000Y267059D01*
X234117D01*
X233069Y267257D01*
X217184Y283142D01*
X217500Y283906D01*
Y286094D01*
X216663Y288116D01*
X215116Y289663D01*
X213094Y290500D01*
X211875D01*
X211101Y292000D01*
X211456Y292500D01*
X213094D01*
X215116Y293337D01*
X216663Y294884D01*
X217500Y296906D01*
Y299094D01*
X216663Y301115D01*
X215116Y302663D01*
X214572Y302888D01*
Y304512D01*
X215540Y304913D01*
X217087Y306460D01*
X217925Y308481D01*
Y310669D01*
X217087Y312691D01*
X215540Y314238D01*
X214693Y314589D01*
X214341Y316358D01*
X218924Y320941D01*
X295733D01*
X327941Y288733D01*
Y272258D01*
X327937Y272230D01*
X327909Y272112D01*
X327866Y271985D01*
X327805Y271847D01*
X327722Y271695D01*
X327615Y271529D01*
X327481Y271349D01*
X327317Y271158D01*
X327083Y270916D01*
X326984Y270762D01*
X326337Y270116D01*
X325500Y268094D01*
Y265906D01*
X326337Y263885D01*
X327884Y262337D01*
X329906Y261500D01*
X332094D01*
X334115Y262337D01*
X335663Y263885D01*
X336500Y265906D01*
Y267000D01*
X338500D01*
Y265906D01*
X339337Y263885D01*
X340885Y262337D01*
X342906Y261500D01*
X345094D01*
X347116Y262337D01*
X348663Y263885D01*
X349500Y265906D01*
Y268094D01*
X348663Y270116D01*
X347116Y271663D01*
X346971Y271723D01*
X346938Y271752D01*
X346820Y271879D01*
X346730Y271993D01*
X346665Y272096D01*
X346618Y272188D01*
X346585Y272275D01*
X346562Y272362D01*
X346559Y272381D01*
Y287500D01*
X346326Y288671D01*
X345663Y289663D01*
X345663Y289663D01*
X294163Y341163D01*
X293171Y341826D01*
X292000Y342059D01*
D02*
G37*
G36*
X550094Y364500D02*
X547906D01*
X545885Y363663D01*
X544337Y362116D01*
X543500Y360094D01*
Y357906D01*
X544337Y355885D01*
X544984Y355238D01*
X545083Y355084D01*
X545317Y354842D01*
X545480Y354651D01*
X545615Y354471D01*
X545722Y354305D01*
X545805Y354153D01*
X545866Y354015D01*
X545909Y353888D01*
X545937Y353770D01*
X545941Y353741D01*
Y341267D01*
X424677Y220002D01*
X424655Y219986D01*
X424559Y219928D01*
X424448Y219875D01*
X424317Y219827D01*
X424164Y219784D01*
X423983Y219750D01*
X423773Y219726D01*
X423534Y219716D01*
X423206Y219722D01*
X423012Y219688D01*
X421901D01*
X419880Y218850D01*
X418333Y217303D01*
X417495Y215282D01*
Y213094D01*
X418333Y211072D01*
X419880Y209525D01*
X420752Y209164D01*
X420816Y209104D01*
X421276Y207323D01*
X421174Y207171D01*
X420941Y206000D01*
X420941Y206000D01*
Y178692D01*
X420937Y178660D01*
X420907Y178532D01*
X420862Y178391D01*
X420798Y178236D01*
X420712Y178066D01*
X420601Y177881D01*
X420464Y177683D01*
X420298Y177471D01*
X420070Y177209D01*
X420010Y177104D01*
X419520Y176616D01*
X418683Y174594D01*
Y172406D01*
X419520Y170385D01*
X421068Y168837D01*
X423089Y168000D01*
X425277D01*
X427299Y168837D01*
X428846Y170385D01*
X429683Y172406D01*
Y174594D01*
X428846Y176616D01*
X428005Y177456D01*
X427893Y177612D01*
X427657Y177834D01*
X427496Y178006D01*
X427365Y178166D01*
X427263Y178313D01*
X427186Y178447D01*
X427129Y178569D01*
X427089Y178681D01*
X427063Y178788D01*
X427059Y178813D01*
Y204733D01*
X550267Y327941D01*
X571000D01*
X571000Y327941D01*
X572170Y328174D01*
X573163Y328837D01*
X583445Y339119D01*
X583468Y339136D01*
X583571Y339199D01*
X583691Y339259D01*
X583832Y339313D01*
X583998Y339363D01*
X584191Y339404D01*
X584413Y339436D01*
X584664Y339455D01*
X585001Y339461D01*
X585179Y339500D01*
X586094D01*
X588116Y340337D01*
X589663Y341884D01*
X590500Y343906D01*
Y346094D01*
X589663Y348116D01*
X588116Y349663D01*
X586094Y350500D01*
X583906D01*
X581884Y349663D01*
X580337Y348116D01*
X579500Y346094D01*
Y345179D01*
X579461Y345001D01*
X579455Y344664D01*
X579436Y344413D01*
X579404Y344191D01*
X579363Y343998D01*
X579313Y343832D01*
X579259Y343691D01*
X579199Y343571D01*
X579136Y343468D01*
X579119Y343444D01*
X569733Y334059D01*
X549506D01*
X548844Y335394D01*
X548831Y335505D01*
X551163Y337837D01*
X551163Y337837D01*
X551826Y338829D01*
X552059Y340000D01*
X552059Y340000D01*
Y353741D01*
X552063Y353770D01*
X552091Y353888D01*
X552134Y354015D01*
X552195Y354153D01*
X552278Y354305D01*
X552385Y354471D01*
X552519Y354651D01*
X552683Y354842D01*
X552917Y355084D01*
X553016Y355238D01*
X553663Y355885D01*
X554500Y357906D01*
Y360094D01*
X553663Y362116D01*
X552116Y363663D01*
X550094Y364500D01*
D02*
G37*
G36*
X171094Y325500D02*
X168906D01*
X166884Y324663D01*
X165337Y323116D01*
X164500Y321094D01*
Y318906D01*
X165337Y316884D01*
X166884Y315337D01*
X168906Y314500D01*
X171094D01*
X173116Y315337D01*
X174663Y316884D01*
X175500Y318906D01*
Y321094D01*
X174663Y323116D01*
X173116Y324663D01*
X171094Y325500D01*
D02*
G37*
G36*
X366094Y306500D02*
X363906D01*
X361884Y305663D01*
X360832Y304610D01*
X359875Y304277D01*
X358918Y304610D01*
X357866Y305663D01*
X355844Y306500D01*
X353656D01*
X351635Y305663D01*
X350855Y304883D01*
X349875Y304252D01*
X348895Y304883D01*
X348116Y305663D01*
X346094Y306500D01*
X343906D01*
X341884Y305663D01*
X340337Y304116D01*
X339500Y302094D01*
Y299906D01*
X340337Y297885D01*
X341884Y296337D01*
X343906Y295500D01*
X346094D01*
X348116Y296337D01*
X348895Y297117D01*
X349875Y297748D01*
X350855Y297117D01*
X351635Y296337D01*
X353656Y295500D01*
X355844D01*
X357866Y296337D01*
X358918Y297390D01*
X359875Y297724D01*
X360832Y297390D01*
X361884Y296337D01*
X363906Y295500D01*
X366094D01*
X368116Y296337D01*
X369663Y297885D01*
X370500Y299906D01*
Y302094D01*
X369663Y304116D01*
X368116Y305663D01*
X366094Y306500D01*
D02*
G37*
G36*
X529094Y274500D02*
X526906D01*
X524884Y273663D01*
X523337Y272115D01*
X522500Y270094D01*
Y267906D01*
X523337Y265884D01*
X524884Y264337D01*
X526906Y263500D01*
X529094D01*
X531115Y264337D01*
X532663Y265884D01*
X533500Y267906D01*
Y270094D01*
X532663Y272115D01*
X531115Y273663D01*
X529094Y274500D01*
D02*
G37*
G36*
X420277Y246500D02*
X418089D01*
X416068Y245663D01*
X414719Y244314D01*
X340000D01*
X338732Y244061D01*
X337657Y243343D01*
X326657Y232343D01*
X325939Y231268D01*
X325686Y230000D01*
Y193373D01*
X235657Y103343D01*
X234939Y102268D01*
X234686Y101000D01*
Y87161D01*
X233803Y86027D01*
X226861D01*
Y133535D01*
X267444Y174119D01*
X267468Y174136D01*
X267571Y174199D01*
X267691Y174259D01*
X267832Y174313D01*
X267998Y174363D01*
X268191Y174404D01*
X268413Y174436D01*
X268664Y174455D01*
X269001Y174461D01*
X269179Y174500D01*
X270094D01*
X272115Y175337D01*
X273663Y176884D01*
X274188Y178153D01*
X275812D01*
X276337Y176884D01*
X277885Y175337D01*
X279906Y174500D01*
X282094D01*
X284116Y175337D01*
X285663Y176884D01*
X286500Y178906D01*
Y181094D01*
X285663Y183116D01*
X284116Y184663D01*
X282094Y185500D01*
X281179D01*
X281001Y185539D01*
X280664Y185545D01*
X280413Y185564D01*
X280191Y185596D01*
X279998Y185637D01*
X279832Y185687D01*
X279691Y185741D01*
X279571Y185801D01*
X279468Y185864D01*
X279445Y185881D01*
X272163Y193163D01*
X271171Y193826D01*
X270000Y194059D01*
X270000Y194059D01*
X234808D01*
X234808Y194059D01*
X233637Y193826D01*
X232645Y193163D01*
X232645Y193163D01*
X127515Y88034D01*
X127289Y87894D01*
X126882Y87695D01*
X126388Y87493D01*
X121485Y86136D01*
X120969Y86027D01*
X120886D01*
X120577Y85944D01*
X120184Y85861D01*
X120182Y85860D01*
X120180Y85860D01*
X120042Y85801D01*
X118343Y85345D01*
X116062Y84029D01*
X114201Y82167D01*
X112884Y79887D01*
X112203Y77343D01*
Y74710D01*
X112884Y72167D01*
X114201Y69887D01*
X116062Y68025D01*
X118343Y66708D01*
X120886Y66027D01*
X123519D01*
X126062Y66708D01*
X128343Y68025D01*
X130204Y69887D01*
X130441Y70297D01*
X131941Y69895D01*
Y57468D01*
X130441Y57237D01*
X128650Y59029D01*
X126255Y60411D01*
X124202Y60961D01*
Y50627D01*
Y40292D01*
X126255Y40842D01*
X128650Y42225D01*
X130580Y44155D01*
X130722Y44157D01*
X132164Y43881D01*
X132174Y43829D01*
X132837Y42837D01*
X132837Y42837D01*
X139186Y36488D01*
X139772Y35902D01*
X139772Y35902D01*
X140765Y35239D01*
X141935Y35006D01*
X156065D01*
X156065Y35006D01*
X157235Y35239D01*
X158228Y35902D01*
X162163Y39837D01*
X162163Y39837D01*
X162826Y40830D01*
X163059Y42000D01*
X163059Y42000D01*
Y44850D01*
X164559Y45252D01*
X165001Y44487D01*
X166862Y42625D01*
X169143Y41308D01*
X171686Y40627D01*
X174319D01*
X176862Y41308D01*
X179143Y42625D01*
X181005Y44487D01*
X182321Y46767D01*
X183002Y49310D01*
Y50505D01*
X183041Y50693D01*
X183049Y51811D01*
X183175Y53783D01*
X183284Y54577D01*
X183425Y55291D01*
X183590Y55900D01*
X183772Y56401D01*
X183961Y56792D01*
X184144Y57080D01*
X184160Y57098D01*
X186748Y59686D01*
X191199D01*
X191820Y58186D01*
X190401Y56767D01*
X189084Y54487D01*
X188403Y51943D01*
Y49310D01*
X189084Y46767D01*
X190401Y44487D01*
X192262Y42625D01*
X194543Y41308D01*
X197086Y40627D01*
X199719D01*
X202262Y41308D01*
X204543Y42625D01*
X206404Y44487D01*
X207721Y46767D01*
X208403Y49310D01*
Y51943D01*
X207721Y54487D01*
X206404Y56767D01*
X204985Y58186D01*
X205606Y59686D01*
X215892D01*
X216513Y58186D01*
X215401Y57074D01*
X214018Y54680D01*
X213468Y52627D01*
X234137D01*
X233587Y54680D01*
X232205Y57074D01*
X231092Y58186D01*
X231714Y59686D01*
X235000D01*
X236268Y59939D01*
X237343Y60657D01*
X240343Y63657D01*
X241061Y64732D01*
X241314Y66000D01*
Y99628D01*
X331343Y189657D01*
X332061Y190732D01*
X332314Y192000D01*
Y228627D01*
X341373Y237686D01*
X414719D01*
X416068Y236337D01*
X418089Y235500D01*
X420277D01*
X422299Y236337D01*
X423846Y237885D01*
X424683Y239906D01*
Y242094D01*
X423846Y244116D01*
X422299Y245663D01*
X420277Y246500D01*
D02*
G37*
G36*
X97094Y237500D02*
X94906D01*
X92885Y236663D01*
X91337Y235116D01*
X90500Y233094D01*
Y230906D01*
X91337Y228885D01*
X92885Y227337D01*
X94906Y226500D01*
X97094D01*
X99115Y227337D01*
X100663Y228885D01*
X101500Y230906D01*
Y233094D01*
X100663Y235116D01*
X99115Y236663D01*
X97094Y237500D01*
D02*
G37*
G36*
X161094Y235500D02*
X158906D01*
X156884Y234663D01*
X155337Y233116D01*
X154500Y231094D01*
Y228906D01*
X155337Y226884D01*
X156884Y225337D01*
X158906Y224500D01*
X161094D01*
X163116Y225337D01*
X164663Y226884D01*
X165500Y228906D01*
Y231094D01*
X164663Y233116D01*
X163116Y234663D01*
X161094Y235500D01*
D02*
G37*
G36*
X265094Y231500D02*
X262906D01*
X260884Y230663D01*
X259337Y229116D01*
X258500Y227094D01*
Y224906D01*
X259337Y222885D01*
X260884Y221337D01*
X262906Y220500D01*
X265094D01*
X267115Y221337D01*
X268663Y222885D01*
X269500Y224906D01*
Y227094D01*
X268663Y229116D01*
X267115Y230663D01*
X265094Y231500D01*
D02*
G37*
G36*
X547094Y274500D02*
X544906D01*
X542884Y273663D01*
X541337Y272115D01*
X540500Y270094D01*
Y267906D01*
X541337Y265884D01*
X541984Y265238D01*
X542083Y265084D01*
X542317Y264842D01*
X542480Y264651D01*
X542615Y264471D01*
X542722Y264305D01*
X542805Y264153D01*
X542866Y264015D01*
X542909Y263888D01*
X542937Y263770D01*
X542941Y263741D01*
Y201000D01*
X542941Y201000D01*
X543174Y199829D01*
X543837Y198837D01*
X554337Y188337D01*
X554337Y188337D01*
X555329Y187674D01*
X556500Y187441D01*
X557619D01*
X557637Y187438D01*
X557725Y187415D01*
X557812Y187382D01*
X557904Y187335D01*
X558007Y187270D01*
X558121Y187180D01*
X558247Y187062D01*
X558277Y187029D01*
X558337Y186884D01*
X559884Y185337D01*
X561906Y184500D01*
X564094D01*
X566115Y185337D01*
X567663Y186884D01*
X568500Y188906D01*
Y191094D01*
X567663Y193116D01*
X566115Y194663D01*
X564094Y195500D01*
X561906D01*
X559884Y194663D01*
X559600Y194378D01*
X559110Y194037D01*
X558898Y193911D01*
X558681Y193799D01*
X558482Y193710D01*
X558300Y193642D01*
X558135Y193594D01*
X557988Y193563D01*
X557953Y193559D01*
X557767D01*
X549059Y202267D01*
Y263741D01*
X549063Y263770D01*
X549091Y263888D01*
X549134Y264015D01*
X549195Y264153D01*
X549278Y264305D01*
X549385Y264471D01*
X549520Y264651D01*
X549683Y264842D01*
X549917Y265084D01*
X550016Y265238D01*
X550663Y265884D01*
X551500Y267906D01*
Y270094D01*
X550663Y272115D01*
X549115Y273663D01*
X547094Y274500D01*
D02*
G37*
G36*
X445277Y193500D02*
X443089D01*
X441068Y192663D01*
X439521Y191115D01*
X438683Y189094D01*
Y186906D01*
X439521Y184884D01*
X441068Y183337D01*
X443089Y182500D01*
X445277D01*
X447299Y183337D01*
X448846Y184884D01*
X449683Y186906D01*
Y189094D01*
X448846Y191115D01*
X447299Y192663D01*
X445277Y193500D01*
D02*
G37*
G36*
X529094Y195500D02*
X526906D01*
X524884Y194663D01*
X523337Y193116D01*
X522500Y191094D01*
Y188906D01*
X523337Y186884D01*
X524884Y185337D01*
X526153Y184812D01*
Y183188D01*
X524884Y182663D01*
X523337Y181115D01*
X522500Y179094D01*
Y176906D01*
X523337Y174884D01*
X524884Y173337D01*
X526906Y172500D01*
X529094D01*
X531115Y173337D01*
X532663Y174884D01*
X533500Y176906D01*
Y179094D01*
X532663Y181115D01*
X531115Y182663D01*
X529847Y183188D01*
Y184812D01*
X531115Y185337D01*
X532663Y186884D01*
X533500Y188906D01*
Y191094D01*
X532663Y193116D01*
X531115Y194663D01*
X529094Y195500D01*
D02*
G37*
G36*
X179094Y174500D02*
X176906D01*
X174884Y173663D01*
X173337Y172115D01*
X172500Y170094D01*
Y167906D01*
X173337Y165884D01*
X174884Y164337D01*
X176906Y163500D01*
X179094D01*
X181115Y164337D01*
X182663Y165884D01*
X183500Y167906D01*
Y170094D01*
X182663Y172115D01*
X181115Y173663D01*
X179094Y174500D01*
D02*
G37*
G36*
X445277Y169500D02*
X443089D01*
X441068Y168663D01*
X439521Y167115D01*
X438683Y165094D01*
Y162906D01*
X439521Y160884D01*
X441068Y159337D01*
X443089Y158500D01*
X445277D01*
X447299Y159337D01*
X448846Y160884D01*
X449683Y162906D01*
Y165094D01*
X448846Y167115D01*
X447299Y168663D01*
X445277Y169500D01*
D02*
G37*
G36*
X603094Y222500D02*
X600906D01*
X598885Y221663D01*
X597337Y220116D01*
X596500Y218094D01*
Y215906D01*
X597337Y213885D01*
X597868Y213354D01*
X597881Y213293D01*
X597900Y213173D01*
X597922Y212852D01*
Y135689D01*
X590311Y128078D01*
X582068D01*
X581845Y128098D01*
X581707Y128119D01*
X581646Y128132D01*
X581115Y128663D01*
X579094Y129500D01*
X576906D01*
X574884Y128663D01*
X573337Y127115D01*
X572500Y125094D01*
Y122906D01*
X573337Y120885D01*
X574884Y119337D01*
X576906Y118500D01*
X579094D01*
X581115Y119337D01*
X581646Y119868D01*
X581707Y119881D01*
X581827Y119900D01*
X582148Y119922D01*
X592000D01*
X592000Y119922D01*
X593561Y120232D01*
X594884Y121116D01*
X604884Y131116D01*
X605768Y132439D01*
X606078Y134000D01*
X606078Y134000D01*
Y212932D01*
X606098Y213155D01*
X606119Y213293D01*
X606132Y213354D01*
X606663Y213885D01*
X607500Y215906D01*
Y218094D01*
X606663Y220116D01*
X605116Y221663D01*
X603094Y222500D01*
D02*
G37*
G36*
X409000Y166059D02*
X409000Y166059D01*
X358000D01*
X356829Y165826D01*
X355837Y165163D01*
X355837Y165163D01*
X354674Y164000D01*
X342000D01*
Y156000D01*
Y150000D01*
X399175D01*
X403011Y152941D01*
X407566D01*
X417901Y142606D01*
X418275Y142046D01*
X429008Y131313D01*
X429029Y131286D01*
X429101Y131171D01*
X429171Y131036D01*
X429239Y130876D01*
X429302Y130690D01*
X429359Y130476D01*
X429407Y130233D01*
X429445Y129961D01*
X429475Y129610D01*
X429500Y129524D01*
Y128906D01*
X430337Y126884D01*
X431884Y125337D01*
X433906Y124500D01*
X436094D01*
X438116Y125337D01*
X439663Y126884D01*
X440500Y128906D01*
Y131094D01*
X439663Y133116D01*
X438116Y134663D01*
X436094Y135500D01*
X434783D01*
X434612Y135525D01*
X434292Y135509D01*
X434064Y135512D01*
X433865Y135530D01*
X433695Y135558D01*
X433551Y135595D01*
X433431Y135639D01*
X433328Y135687D01*
X433237Y135741D01*
X433217Y135755D01*
X427417Y141555D01*
X427991Y142941D01*
X538733D01*
X556119Y125556D01*
X556136Y125532D01*
X556199Y125429D01*
X556259Y125309D01*
X556313Y125168D01*
X556363Y125002D01*
X556404Y124809D01*
X556436Y124587D01*
X556455Y124336D01*
X556461Y123999D01*
X556500Y123821D01*
Y122906D01*
X557337Y120885D01*
X558885Y119337D01*
X560906Y118500D01*
X563094D01*
X565116Y119337D01*
X566663Y120885D01*
X567500Y122906D01*
Y125094D01*
X566663Y127115D01*
X565116Y128663D01*
X563094Y129500D01*
X562179D01*
X562001Y129539D01*
X561664Y129545D01*
X561413Y129564D01*
X561191Y129596D01*
X560998Y129637D01*
X560832Y129687D01*
X560691Y129741D01*
X560571Y129801D01*
X560468Y129864D01*
X560444Y129881D01*
X542163Y148163D01*
X541171Y148826D01*
X540000Y149059D01*
X540000Y149059D01*
X427267D01*
X411163Y165163D01*
X410171Y165826D01*
X409000Y166059D01*
D02*
G37*
G36*
X325094Y128500D02*
X322906D01*
X320885Y127663D01*
X319337Y126116D01*
X318500Y124094D01*
Y121906D01*
X319337Y119885D01*
X320885Y118337D01*
X320946Y118312D01*
Y116688D01*
X320885Y116663D01*
X319337Y115115D01*
X318500Y113094D01*
Y110906D01*
X319337Y108884D01*
X320885Y107337D01*
X322906Y106500D01*
X325094D01*
X327116Y107337D01*
X328663Y108884D01*
X329500Y110906D01*
Y113094D01*
X328663Y115115D01*
X327116Y116663D01*
X327054Y116688D01*
Y118312D01*
X327116Y118337D01*
X328663Y119885D01*
X329500Y121906D01*
Y124094D01*
X328663Y126116D01*
X327116Y127663D01*
X325094Y128500D01*
D02*
G37*
G36*
X120203Y60961D02*
X118150Y60411D01*
X115755Y59029D01*
X113800Y57074D01*
X112418Y54680D01*
X111868Y52627D01*
X120203D01*
Y60961D01*
D02*
G37*
G36*
X234137Y48627D02*
X225802D01*
Y40292D01*
X227855Y40842D01*
X230250Y42225D01*
X232205Y44180D01*
X233587Y46574D01*
X234137Y48627D01*
D02*
G37*
G36*
X221803D02*
X213468D01*
X214018Y46574D01*
X215401Y44180D01*
X217355Y42225D01*
X219750Y40842D01*
X221803Y40292D01*
Y48627D01*
D02*
G37*
G36*
X120203D02*
X111868D01*
X112418Y46574D01*
X113800Y44180D01*
X115755Y42225D01*
X118150Y40842D01*
X120203Y40292D01*
Y48627D01*
D02*
G37*
G36*
X459094Y81500D02*
X456906D01*
X454884Y80663D01*
X453337Y79116D01*
X452500Y77094D01*
Y74906D01*
X453337Y72884D01*
X453412Y72810D01*
Y59000D01*
X453761Y57244D01*
X454756Y55756D01*
X471756Y38756D01*
X473244Y37761D01*
X475000Y37412D01*
X550810D01*
X550885Y37337D01*
X552906Y36500D01*
X555094D01*
X557116Y37337D01*
X558663Y38884D01*
X559500Y40906D01*
Y43094D01*
X558663Y45115D01*
X557116Y46663D01*
X555094Y47500D01*
X552906D01*
X550885Y46663D01*
X550810Y46588D01*
X476900D01*
X462588Y60901D01*
Y72810D01*
X462663Y72884D01*
X463500Y74906D01*
Y77094D01*
X462663Y79116D01*
X461115Y80663D01*
X459094Y81500D01*
D02*
G37*
G36*
X162000Y428608D02*
X161000D01*
X158854Y428181D01*
X157035Y426965D01*
X138035Y407965D01*
X136819Y406146D01*
X136392Y404000D01*
Y147323D01*
X90035Y100965D01*
X88819Y99146D01*
X88392Y97000D01*
Y39000D01*
X88819Y36854D01*
X90035Y35035D01*
X103035Y22035D01*
X104854Y20819D01*
X107000Y20392D01*
X312000D01*
X314146Y20819D01*
X315965Y22035D01*
X401323Y107392D01*
X420000D01*
X420542Y107500D01*
X421094D01*
X421604Y107711D01*
X422146Y107819D01*
X422605Y108126D01*
X423116Y108337D01*
X423506Y108728D01*
X423965Y109035D01*
X424272Y109494D01*
X424663Y109885D01*
X424874Y110395D01*
X425181Y110854D01*
X425289Y111396D01*
X425500Y111906D01*
Y112458D01*
X425608Y113000D01*
X425500Y113542D01*
Y114094D01*
X425289Y114604D01*
X425181Y115146D01*
X424874Y115605D01*
X424663Y116116D01*
X424272Y116506D01*
X423965Y116965D01*
X423506Y117272D01*
X423116Y117663D01*
X422605Y117874D01*
X422146Y118181D01*
X421604Y118289D01*
X421094Y118500D01*
X420542D01*
X420000Y118608D01*
X399000D01*
X396854Y118181D01*
X395035Y116965D01*
X309677Y31608D01*
X109323D01*
X99608Y41323D01*
Y94677D01*
X145965Y141035D01*
X147181Y142854D01*
X147608Y145000D01*
Y401677D01*
X163651Y417721D01*
X164146Y417819D01*
X164605Y418126D01*
X165116Y418337D01*
X165506Y418728D01*
X165965Y419035D01*
X166272Y419494D01*
X166663Y419884D01*
X166874Y420395D01*
X167181Y420854D01*
X167289Y421396D01*
X167500Y421906D01*
Y422458D01*
X167608Y423000D01*
X167500Y423542D01*
Y424094D01*
X167289Y424604D01*
X167181Y425146D01*
X166874Y425605D01*
X166663Y426115D01*
X166272Y426506D01*
X165965Y426965D01*
X165506Y427272D01*
X165116Y427663D01*
X164605Y427874D01*
X164146Y428181D01*
X163604Y428289D01*
X163094Y428500D01*
X162542D01*
X162000Y428608D01*
D02*
G37*
%LPD*%
G36*
X211790Y306133D02*
X211419Y306188D01*
X211063Y306214D01*
X210722Y306210D01*
X210397Y306176D01*
X210087Y306112D01*
X209792Y306019D01*
X209512Y305896D01*
X209247Y305743D01*
X208998Y305561D01*
X208764Y305349D01*
X207607Y307021D01*
X207804Y307236D01*
X207988Y307472D01*
X208158Y307730D01*
X208314Y308010D01*
X208458Y308311D01*
X208587Y308634D01*
X208703Y308978D01*
X208895Y309732D01*
X208971Y310141D01*
X211790Y306133D01*
D02*
G37*
G36*
X332015Y272149D02*
X332058Y271845D01*
X332131Y271544D01*
X332232Y271245D01*
X332363Y270949D01*
X332522Y270654D01*
X332710Y270362D01*
X332928Y270072D01*
X333175Y269785D01*
X333450Y269499D01*
X328550D01*
X328825Y269785D01*
X329072Y270072D01*
X329290Y270362D01*
X329478Y270654D01*
X329637Y270949D01*
X329768Y271245D01*
X329869Y271544D01*
X329942Y271845D01*
X329986Y272149D01*
X330000Y272454D01*
X332000D01*
X332015Y272149D01*
D02*
G37*
G36*
X344516Y272250D02*
X344563Y271945D01*
X344641Y271649D01*
X344751Y271361D01*
X344892Y271083D01*
X345064Y270813D01*
X345268Y270553D01*
X345503Y270301D01*
X345770Y270058D01*
X346068Y269824D01*
X341218Y269124D01*
X341462Y269457D01*
X341872Y270112D01*
X342038Y270432D01*
X342179Y270748D01*
X342295Y271060D01*
X342385Y271367D01*
X342449Y271670D01*
X342487Y271968D01*
X342500Y272262D01*
X344500Y272564D01*
X344516Y272250D01*
D02*
G37*
G36*
X305507Y270568D02*
X305536Y270191D01*
X305587Y269832D01*
X305660Y269492D01*
X305756Y269171D01*
X305873Y268869D01*
X306013Y268586D01*
X306174Y268322D01*
X306358Y268077D01*
X306564Y267850D01*
X305149Y266436D01*
X304923Y266642D01*
X304678Y266826D01*
X304414Y266987D01*
X304131Y267127D01*
X303829Y267244D01*
X303508Y267340D01*
X303168Y267413D01*
X302809Y267464D01*
X302432Y267493D01*
X302035Y267500D01*
X305500Y270965D01*
X305507Y270568D01*
D02*
G37*
G36*
X293500Y256550D02*
X293215Y256826D01*
X292927Y257072D01*
X292638Y257290D01*
X292346Y257478D01*
X292051Y257638D01*
X291755Y257768D01*
X291456Y257869D01*
X291155Y257942D01*
X290851Y257985D01*
X290546Y258000D01*
Y260000D01*
X290851Y260014D01*
X291155Y260058D01*
X291456Y260131D01*
X291755Y260232D01*
X292051Y260362D01*
X292346Y260522D01*
X292638Y260711D01*
X292927Y260928D01*
X293215Y261175D01*
X293500Y261450D01*
Y256550D01*
D02*
G37*
G36*
Y243550D02*
X293215Y243825D01*
X292927Y244072D01*
X292638Y244289D01*
X292346Y244478D01*
X292051Y244638D01*
X291755Y244768D01*
X291456Y244869D01*
X291155Y244942D01*
X290851Y244986D01*
X290546Y245000D01*
Y247000D01*
X290851Y247015D01*
X291155Y247058D01*
X291456Y247131D01*
X291755Y247232D01*
X292051Y247362D01*
X292346Y247522D01*
X292638Y247710D01*
X292927Y247928D01*
X293215Y248174D01*
X293500Y248450D01*
Y243550D01*
D02*
G37*
G36*
X293065Y227093D02*
X292852Y227397D01*
X292626Y227669D01*
X292390Y227909D01*
X292142Y228117D01*
X291883Y228293D01*
X291612Y228437D01*
X291329Y228548D01*
X291035Y228628D01*
X290730Y228676D01*
X290413Y228692D01*
X290836Y230692D01*
X291125Y230704D01*
X291420Y230741D01*
X291723Y230801D01*
X292032Y230885D01*
X292348Y230993D01*
X292672Y231126D01*
X293002Y231282D01*
X293683Y231667D01*
X294035Y231896D01*
X293065Y227093D01*
D02*
G37*
G36*
X288507Y224568D02*
X288536Y224191D01*
X288587Y223832D01*
X288660Y223492D01*
X288756Y223171D01*
X288873Y222869D01*
X289013Y222586D01*
X289174Y222322D01*
X289358Y222077D01*
X289564Y221850D01*
X288150Y220436D01*
X287923Y220642D01*
X287678Y220826D01*
X287414Y220987D01*
X287131Y221127D01*
X286829Y221244D01*
X286508Y221340D01*
X286168Y221413D01*
X285809Y221464D01*
X285432Y221493D01*
X285035Y221500D01*
X288500Y224965D01*
X288507Y224568D01*
D02*
G37*
G36*
X551175Y356215D02*
X550928Y355928D01*
X550710Y355638D01*
X550522Y355345D01*
X550363Y355051D01*
X550232Y354755D01*
X550131Y354456D01*
X550058Y354155D01*
X550014Y353851D01*
X550000Y353546D01*
X548000D01*
X547985Y353851D01*
X547942Y354155D01*
X547869Y354456D01*
X547768Y354755D01*
X547637Y355051D01*
X547478Y355345D01*
X547290Y355638D01*
X547072Y355928D01*
X546825Y356215D01*
X546550Y356501D01*
X551450D01*
X551175Y356215D01*
D02*
G37*
G36*
X584965Y341500D02*
X584568Y341493D01*
X584191Y341464D01*
X583832Y341413D01*
X583492Y341340D01*
X583171Y341244D01*
X582869Y341127D01*
X582586Y340987D01*
X582322Y340826D01*
X582077Y340642D01*
X581851Y340436D01*
X580436Y341851D01*
X580642Y342077D01*
X580826Y342322D01*
X580987Y342586D01*
X581127Y342869D01*
X581244Y343171D01*
X581340Y343492D01*
X581413Y343832D01*
X581464Y344191D01*
X581493Y344568D01*
X581500Y344965D01*
X584965Y341500D01*
D02*
G37*
G36*
X427625Y217210D02*
X427420Y216986D01*
X427237Y216742D01*
X427073Y216479D01*
X426929Y216196D01*
X426806Y215894D01*
X426703Y215572D01*
X426621Y215230D01*
X426558Y214868D01*
X426516Y214487D01*
X426494Y214087D01*
X423166Y217684D01*
X423558Y217676D01*
X423932Y217692D01*
X424288Y217732D01*
X424625Y217796D01*
X424944Y217884D01*
X425245Y217996D01*
X425528Y218132D01*
X425793Y218291D01*
X426039Y218475D01*
X426268Y218682D01*
X427625Y217210D01*
D02*
G37*
G36*
X425015Y178694D02*
X425060Y178390D01*
X425135Y178091D01*
X425240Y177796D01*
X425375Y177505D01*
X425540Y177220D01*
X425734Y176939D01*
X425959Y176663D01*
X426214Y176391D01*
X426499Y176124D01*
X421606Y175868D01*
X421871Y176171D01*
X422108Y176474D01*
X422317Y176778D01*
X422498Y177080D01*
X422651Y177383D01*
X422777Y177686D01*
X422874Y177988D01*
X422944Y178290D01*
X422986Y178592D01*
X423000Y178894D01*
X425000Y179003D01*
X425015Y178694D01*
D02*
G37*
G36*
X278077Y184358D02*
X278322Y184174D01*
X278586Y184013D01*
X278869Y183873D01*
X279171Y183756D01*
X279492Y183660D01*
X279832Y183587D01*
X280191Y183536D01*
X280568Y183507D01*
X280965Y183500D01*
X277500Y180035D01*
X277493Y180432D01*
X277464Y180809D01*
X277413Y181168D01*
X277340Y181508D01*
X277244Y181829D01*
X277127Y182131D01*
X276987Y182414D01*
X276826Y182678D01*
X276642Y182923D01*
X276436Y183150D01*
X277850Y184564D01*
X278077Y184358D01*
D02*
G37*
G36*
X268965Y176500D02*
X268568Y176493D01*
X268191Y176464D01*
X267832Y176413D01*
X267492Y176340D01*
X267171Y176244D01*
X266869Y176127D01*
X266586Y175987D01*
X266322Y175826D01*
X266077Y175642D01*
X265851Y175436D01*
X264436Y176850D01*
X264642Y177077D01*
X264826Y177322D01*
X264987Y177586D01*
X265127Y177869D01*
X265244Y178171D01*
X265340Y178492D01*
X265413Y178832D01*
X265464Y179191D01*
X265493Y179568D01*
X265500Y179965D01*
X268965Y176500D01*
D02*
G37*
G36*
X256965D02*
X256568Y176493D01*
X256191Y176464D01*
X255832Y176413D01*
X255492Y176340D01*
X255171Y176244D01*
X254869Y176127D01*
X254586Y175987D01*
X254322Y175826D01*
X254077Y175642D01*
X253850Y175436D01*
X252436Y176850D01*
X252642Y177077D01*
X252826Y177322D01*
X252987Y177586D01*
X253127Y177869D01*
X253244Y178171D01*
X253340Y178492D01*
X253413Y178832D01*
X253464Y179191D01*
X253493Y179568D01*
X253500Y179965D01*
X256965Y176500D01*
D02*
G37*
G36*
X244965D02*
X244568Y176493D01*
X244191Y176464D01*
X243832Y176413D01*
X243492Y176340D01*
X243171Y176244D01*
X242869Y176127D01*
X242586Y175987D01*
X242322Y175826D01*
X242077Y175642D01*
X241850Y175436D01*
X240436Y176850D01*
X240642Y177077D01*
X240826Y177322D01*
X240987Y177586D01*
X241127Y177869D01*
X241244Y178171D01*
X241340Y178492D01*
X241413Y178832D01*
X241464Y179191D01*
X241493Y179568D01*
X241500Y179965D01*
X244965Y176500D01*
D02*
G37*
G36*
X232965D02*
X232568Y176493D01*
X232191Y176464D01*
X231832Y176413D01*
X231492Y176340D01*
X231171Y176244D01*
X230869Y176127D01*
X230586Y175987D01*
X230322Y175826D01*
X230077Y175642D01*
X229851Y175436D01*
X228436Y176850D01*
X228642Y177077D01*
X228826Y177322D01*
X228987Y177586D01*
X229127Y177869D01*
X229244Y178171D01*
X229340Y178492D01*
X229413Y178832D01*
X229464Y179191D01*
X229493Y179568D01*
X229500Y179965D01*
X232965Y176500D01*
D02*
G37*
G36*
X220760Y137842D02*
X221329Y136500D01*
X220977Y135973D01*
X220744Y134803D01*
X220744Y134802D01*
Y86027D01*
X211000D01*
X177297Y86243D01*
X176861Y86866D01*
X176525Y87420D01*
X176285Y87898D01*
X176137Y88287D01*
X176066Y88575D01*
X176061Y88631D01*
Y94735D01*
X219308Y137982D01*
X220760Y137842D01*
D02*
G37*
G36*
X224813Y85616D02*
X224843Y85275D01*
X224893Y84974D01*
X224963Y84711D01*
X225053Y84489D01*
X225163Y84305D01*
X225292Y84161D01*
X225443Y84057D01*
X225613Y83992D01*
X225802Y83966D01*
X221803D01*
X221992Y83992D01*
X222162Y84057D01*
X222313Y84161D01*
X222443Y84305D01*
X222553Y84489D01*
X222643Y84711D01*
X222713Y84974D01*
X222763Y85275D01*
X222792Y85616D01*
X222803Y85996D01*
X224802D01*
X224813Y85616D01*
D02*
G37*
G36*
X174049Y88241D02*
X174186Y87678D01*
X174417Y87076D01*
X174739Y86433D01*
X175153Y85750D01*
X175659Y85028D01*
X176257Y84266D01*
X177729Y82622D01*
X178603Y81740D01*
X167403D01*
X168277Y82622D01*
X170347Y85028D01*
X170853Y85750D01*
X171267Y86433D01*
X171589Y87076D01*
X171819Y87678D01*
X171957Y88241D01*
X172003Y88764D01*
X174002D01*
X174049Y88241D01*
D02*
G37*
G36*
X130756Y85535D02*
X130383Y85091D01*
X130076Y84574D01*
X129835Y83983D01*
X129661Y83318D01*
X129553Y82579D01*
X129511Y81767D01*
X129536Y80881D01*
X129627Y79921D01*
X129784Y78887D01*
X130008Y77779D01*
X120606Y83866D01*
X121968Y84154D01*
X127049Y85560D01*
X127719Y85834D01*
X128273Y86106D01*
X128713Y86376D01*
X129037Y86643D01*
X130756Y85535D01*
D02*
G37*
G36*
X194894Y68837D02*
X193544Y69504D01*
X189155Y72032D01*
X189042Y72208D01*
X189107Y72313D01*
X189348Y72348D01*
Y74348D01*
X189269Y74398D01*
X189247Y74550D01*
X189283Y74802D01*
X189376Y75155D01*
X189527Y75609D01*
X190001Y76819D01*
X191144Y79391D01*
X194894Y68837D01*
D02*
G37*
G36*
X182868Y58724D02*
X182502Y58297D01*
X182177Y57787D01*
X181891Y57194D01*
X181645Y56517D01*
X181438Y55757D01*
X181271Y54913D01*
X181145Y53987D01*
X181010Y51883D01*
X181002Y50707D01*
X173083Y58626D01*
X174259Y58634D01*
X176362Y58769D01*
X177289Y58896D01*
X178132Y59062D01*
X178892Y59269D01*
X179569Y59515D01*
X180163Y59801D01*
X180673Y60127D01*
X181100Y60492D01*
X182868Y58724D01*
D02*
G37*
G36*
X157316Y58926D02*
X156979Y58524D01*
X156679Y58028D01*
X156415Y57440D01*
X156188Y56757D01*
X155998Y55982D01*
X155845Y55114D01*
X155729Y54152D01*
X155608Y51948D01*
X155602Y50707D01*
X147683Y58626D01*
X148924Y58632D01*
X152089Y58870D01*
X152958Y59023D01*
X153733Y59213D01*
X154415Y59439D01*
X155004Y59703D01*
X155500Y60003D01*
X155902Y60340D01*
X157316Y58926D01*
D02*
G37*
G36*
X548175Y266215D02*
X547928Y265928D01*
X547710Y265638D01*
X547522Y265345D01*
X547363Y265051D01*
X547232Y264755D01*
X547131Y264456D01*
X547058Y264155D01*
X547015Y263851D01*
X547000Y263546D01*
X545000D01*
X544986Y263851D01*
X544942Y264155D01*
X544869Y264456D01*
X544768Y264755D01*
X544637Y265051D01*
X544478Y265345D01*
X544290Y265638D01*
X544072Y265928D01*
X543825Y266215D01*
X543550Y266500D01*
X548450D01*
X548175Y266215D01*
D02*
G37*
G36*
X560176Y187932D02*
X559942Y188230D01*
X559699Y188497D01*
X559447Y188732D01*
X559187Y188936D01*
X558917Y189108D01*
X558639Y189249D01*
X558351Y189359D01*
X558055Y189437D01*
X557750Y189484D01*
X557436Y189500D01*
X557738Y191500D01*
X558032Y191513D01*
X558330Y191551D01*
X558633Y191615D01*
X558940Y191705D01*
X559252Y191821D01*
X559568Y191961D01*
X559888Y192128D01*
X560213Y192320D01*
X560876Y192782D01*
X560176Y187932D01*
D02*
G37*
G36*
X604365Y214396D02*
X604288Y214260D01*
X604221Y214093D01*
X604162Y213893D01*
X604113Y213662D01*
X604072Y213399D01*
X604018Y212777D01*
X604000Y212028D01*
X600000D01*
X599995Y212418D01*
X599928Y213399D01*
X599888Y213662D01*
X599838Y213893D01*
X599780Y214093D01*
X599712Y214260D01*
X599636Y214396D01*
X599550Y214501D01*
X604450D01*
X604365Y214396D01*
D02*
G37*
G36*
X580604Y126364D02*
X580740Y126288D01*
X580907Y126221D01*
X581107Y126162D01*
X581338Y126112D01*
X581601Y126072D01*
X582223Y126018D01*
X582972Y126000D01*
Y122000D01*
X582582Y121995D01*
X581601Y121928D01*
X581338Y121888D01*
X581107Y121838D01*
X580907Y121779D01*
X580740Y121712D01*
X580604Y121636D01*
X580499Y121550D01*
Y126450D01*
X580604Y126364D01*
D02*
G37*
G36*
X354993Y158579D02*
X354795Y158363D01*
X354612Y158127D01*
X354442Y157868D01*
X354286Y157589D01*
X354144Y157287D01*
X354015Y156964D01*
X353901Y156620D01*
X353800Y156254D01*
X353641Y155457D01*
X350795Y159446D01*
X351167Y159393D01*
X351524Y159370D01*
X351866Y159376D01*
X352192Y159411D01*
X352503Y159476D01*
X352798Y159570D01*
X353078Y159694D01*
X353343Y159846D01*
X353592Y160029D01*
X353826Y160240D01*
X354993Y158579D01*
D02*
G37*
G36*
X368968Y158174D02*
X369256Y157928D01*
X369546Y157711D01*
X369838Y157522D01*
X370132Y157362D01*
X370429Y157232D01*
X370727Y157130D01*
X371029Y157058D01*
X371332Y157015D01*
X371637Y157000D01*
Y155000D01*
X371332Y154986D01*
X371029Y154942D01*
X370727Y154869D01*
X370429Y154768D01*
X370132Y154637D01*
X369838Y154478D01*
X369546Y154290D01*
X369256Y154072D01*
X368968Y153826D01*
X368683Y153550D01*
Y158450D01*
X368968Y158174D01*
D02*
G37*
G36*
X431858Y134224D02*
X432106Y134041D01*
X432371Y133883D01*
X432653Y133751D01*
X432953Y133644D01*
X433271Y133562D01*
X433606Y133505D01*
X433958Y133475D01*
X434328Y133469D01*
X434715Y133488D01*
X431507Y129785D01*
X431472Y130189D01*
X431418Y130572D01*
X431346Y130935D01*
X431256Y131278D01*
X431146Y131601D01*
X431018Y131904D01*
X430872Y132186D01*
X430706Y132449D01*
X430522Y132691D01*
X430320Y132913D01*
X431628Y134433D01*
X431858Y134224D01*
D02*
G37*
G36*
X559077Y128358D02*
X559322Y128174D01*
X559586Y128013D01*
X559869Y127873D01*
X560171Y127756D01*
X560492Y127660D01*
X560832Y127587D01*
X561191Y127536D01*
X561568Y127507D01*
X561965Y127500D01*
X558500Y124035D01*
X558493Y124432D01*
X558464Y124809D01*
X558413Y125168D01*
X558340Y125508D01*
X558244Y125829D01*
X558127Y126131D01*
X557987Y126414D01*
X557826Y126678D01*
X557642Y126923D01*
X557436Y127149D01*
X558851Y128564D01*
X559077Y128358D01*
D02*
G37*
D11*
X217657Y324000D02*
X297000D01*
X331000Y290000D01*
Y267000D02*
Y290000D01*
X197000Y303343D02*
X217657Y324000D01*
X197000Y274000D02*
Y303343D01*
X171000Y248000D02*
X197000Y274000D01*
X300882Y220000D02*
X307000Y226117D01*
X290000Y220000D02*
X300882D01*
X307000Y226117D02*
Y266000D01*
X292000Y339000D02*
X343500Y287500D01*
Y267500D02*
Y287500D01*
X201000Y280000D02*
X226000Y255000D01*
X264192D01*
X201000Y280000D02*
Y299000D01*
X205000Y282000D02*
X228000Y259000D01*
X265849D01*
X205000Y282000D02*
Y291000D01*
X212000Y284000D02*
X232000Y264000D01*
X212000Y284000D02*
Y285000D01*
X211575Y309575D02*
X212425D01*
X201000Y299000D02*
X211575Y309575D01*
X165000Y277000D02*
X227000Y339000D01*
X292000D01*
X273000Y259000D02*
X296000D01*
X232000Y264000D02*
X268000D01*
X273000Y259000D01*
X205000Y291000D02*
X212000Y298000D01*
X234808Y191000D02*
X270000D01*
X281000Y180000D01*
X424000Y206000D02*
X549000Y331000D01*
X424000Y173683D02*
Y206000D01*
X423188Y214188D02*
X549000Y340000D01*
X422995Y214188D02*
X423188D01*
X549000Y331000D02*
X571000D01*
X549000Y340000D02*
Y359000D01*
X424000Y173683D02*
X424183Y173500D01*
X571000Y331000D02*
X585000Y345000D01*
X562500Y190500D02*
X563000Y190000D01*
X556500Y190500D02*
X562500D01*
X546000Y201000D02*
X556500Y190500D01*
X546000Y201000D02*
Y269000D01*
X168000Y63000D02*
X179000D01*
X189348Y73348D02*
X195724D01*
X179000Y63000D02*
X189348Y73348D01*
X195724D02*
X198403Y76027D01*
X160000Y55000D02*
X168000Y63000D01*
X160000Y42000D02*
Y55000D01*
X156065Y38065D02*
X160000Y42000D01*
X141349Y38651D02*
X141935Y38065D01*
X135000Y45000D02*
X141349Y38651D01*
X141935Y38065D02*
X156065D01*
X135000Y45000D02*
Y82000D01*
X420438Y144209D02*
Y144395D01*
Y144209D02*
X434647Y130000D01*
X435000D01*
X408833Y156000D02*
X420438Y144395D01*
X358000Y163000D02*
X409000D01*
X366183Y156000D02*
X408833D01*
X409000Y163000D02*
X426000Y146000D01*
X540000D01*
X135000Y82000D02*
X233000Y180000D01*
X122203Y78395D02*
X234808Y191000D01*
X302000Y271000D02*
X307000Y266000D01*
X264192Y255000D02*
X289500Y229692D01*
X295308D01*
X296000Y229000D01*
X285000Y225000D02*
X290000Y220000D01*
X540000Y146000D02*
X562000Y124000D01*
X349175Y154175D02*
X358000Y163000D01*
X223803Y76027D02*
Y134803D01*
X269000Y180000D01*
X173002Y76027D02*
Y96003D01*
X257000Y180000D01*
X147603Y50627D02*
X160000Y63024D01*
Y95000D01*
X245000Y180000D01*
X122203Y76027D02*
Y78395D01*
X265849Y259000D02*
X278849Y246000D01*
X296000D01*
X343500Y267500D02*
X344000Y267000D01*
D12*
X592000Y124000D02*
X602000Y134000D01*
X578000Y124000D02*
X592000D01*
X602000Y134000D02*
Y217000D01*
D13*
X329000Y230000D02*
X340000Y241000D01*
X329000Y192000D02*
Y230000D01*
X238000Y101000D02*
X329000Y192000D01*
X340000Y241000D02*
X419183D01*
X238000Y66000D02*
Y101000D01*
X173002Y50627D02*
X185376Y63000D01*
X235000D01*
X238000Y66000D01*
D15*
X458000Y59000D02*
X475000Y42000D01*
X458000Y59000D02*
Y76000D01*
X475000Y42000D02*
X554000D01*
X554000Y42000D01*
D76*
X142000Y404000D02*
X161000Y423000D01*
X94000Y97000D02*
X142000Y145000D01*
Y404000D01*
X161000Y423000D02*
X162000D01*
X94000Y39000D02*
X107000Y26000D01*
X312000D01*
X94000Y39000D02*
Y97000D01*
X399000Y113000D02*
X420000D01*
X312000Y26000D02*
X399000Y113000D01*
D86*
X198403Y76027D02*
D03*
X173002Y50627D02*
D03*
X147603Y76027D02*
D03*
Y50627D02*
D03*
X223803D02*
D03*
X173002Y76027D02*
D03*
X198403Y50627D02*
D03*
X122203Y76027D02*
D03*
Y50627D02*
D03*
X591386Y392790D02*
D03*
X566386D02*
D03*
D87*
X223803Y76027D02*
D03*
X541386Y392790D02*
D03*
D88*
X212000Y285000D02*
D03*
X212425Y309575D02*
D03*
X289000Y331000D02*
D03*
X212000Y298000D02*
D03*
X249000Y290500D02*
D03*
X312500Y370000D02*
D03*
X593000Y143000D02*
D03*
X282500Y130000D02*
D03*
X264000Y163000D02*
D03*
X231000Y100000D02*
D03*
X249000Y147000D02*
D03*
X507500Y280000D02*
D03*
X672500Y370000D02*
D03*
Y310000D02*
D03*
Y130000D02*
D03*
Y70000D02*
D03*
X657500Y280000D02*
D03*
X642500Y250000D02*
D03*
Y190000D02*
D03*
X657500Y160000D02*
D03*
X642500Y70000D02*
D03*
X627500Y400000D02*
D03*
X612500Y370000D02*
D03*
X627500Y340000D02*
D03*
Y220000D02*
D03*
X612500Y190000D02*
D03*
Y130000D02*
D03*
X627500Y100000D02*
D03*
X612500Y70000D02*
D03*
X627500Y40000D02*
D03*
X612500Y10000D02*
D03*
X582500Y370000D02*
D03*
X597500Y340000D02*
D03*
Y100000D02*
D03*
X582500Y70000D02*
D03*
X552500Y370000D02*
D03*
Y310000D02*
D03*
X567500Y280000D02*
D03*
X537500D02*
D03*
Y100000D02*
D03*
X507500Y400000D02*
D03*
X492500Y310000D02*
D03*
Y250000D02*
D03*
Y190000D02*
D03*
X477500Y400000D02*
D03*
Y280000D02*
D03*
Y220000D02*
D03*
X447500Y400000D02*
D03*
X432500Y250000D02*
D03*
X447500Y40000D02*
D03*
X417500Y400000D02*
D03*
Y40000D02*
D03*
X387500Y400000D02*
D03*
X372500Y370000D02*
D03*
Y310000D02*
D03*
Y70000D02*
D03*
X387500Y40000D02*
D03*
X357500Y400000D02*
D03*
Y340000D02*
D03*
X342500Y70000D02*
D03*
X357500Y40000D02*
D03*
X327500Y400000D02*
D03*
Y340000D02*
D03*
X312500Y70000D02*
D03*
X282500Y370000D02*
D03*
X297500Y100000D02*
D03*
X282500Y70000D02*
D03*
X297500Y40000D02*
D03*
X252500Y310000D02*
D03*
X267500Y100000D02*
D03*
Y40000D02*
D03*
X222500Y370000D02*
D03*
X237500Y40000D02*
D03*
X192500Y370000D02*
D03*
X207500Y100000D02*
D03*
Y40000D02*
D03*
X162500Y370000D02*
D03*
X132500D02*
D03*
X102500D02*
D03*
X117500Y220000D02*
D03*
X102500Y190000D02*
D03*
X117500Y100000D02*
D03*
X87500Y400000D02*
D03*
X72500Y370000D02*
D03*
Y250000D02*
D03*
X87500Y220000D02*
D03*
Y160000D02*
D03*
X72500Y70000D02*
D03*
X57500Y340000D02*
D03*
Y280000D02*
D03*
Y160000D02*
D03*
Y100000D02*
D03*
X42500Y70000D02*
D03*
X27500Y100000D02*
D03*
X12500Y70000D02*
D03*
X281000Y180000D02*
D03*
X240000Y201000D02*
D03*
X171000Y248000D02*
D03*
X165000Y277000D02*
D03*
X422995Y214188D02*
D03*
X444183Y188000D02*
D03*
X585000Y345000D02*
D03*
X549000Y359000D02*
D03*
X10000Y330000D02*
D03*
X178000Y169000D02*
D03*
X170000Y320000D02*
D03*
X195000Y205000D02*
D03*
X180000Y215000D02*
D03*
X160000Y230000D02*
D03*
X205000Y185000D02*
D03*
X445000Y302000D02*
D03*
X460000Y317000D02*
D03*
X445000D02*
D03*
X420000Y296000D02*
D03*
Y317000D02*
D03*
X435000Y130000D02*
D03*
X505000Y30000D02*
D03*
X485000D02*
D03*
X585000Y233000D02*
D03*
X563000Y190000D02*
D03*
Y203000D02*
D03*
X530000Y293000D02*
D03*
X550000D02*
D03*
X570000D02*
D03*
X554000Y42000D02*
D03*
X455000Y130000D02*
D03*
X133000Y328000D02*
D03*
X121000D02*
D03*
X109000D02*
D03*
X162000Y423000D02*
D03*
X233000Y180000D02*
D03*
X342183Y226000D02*
D03*
X372183D02*
D03*
X357183D02*
D03*
X296000Y229000D02*
D03*
X342183Y211000D02*
D03*
X372183D02*
D03*
X357183Y196000D02*
D03*
X342183D02*
D03*
X372183D02*
D03*
X562000Y124000D02*
D03*
X578000D02*
D03*
X555000Y10000D02*
D03*
X435000D02*
D03*
X491000Y130000D02*
D03*
X311154Y296654D02*
D03*
X330000Y385000D02*
D03*
X296000Y246000D02*
D03*
X345000Y301000D02*
D03*
X365000D02*
D03*
X354750D02*
D03*
X420000Y113000D02*
D03*
X690000Y330000D02*
D03*
X344000Y267000D02*
D03*
X331000D02*
D03*
X296000Y259000D02*
D03*
X302000Y271000D02*
D03*
X264000Y226000D02*
D03*
X285000Y225000D02*
D03*
X245000Y180000D02*
D03*
X330000Y373000D02*
D03*
Y361000D02*
D03*
X257000Y180000D02*
D03*
X269000D02*
D03*
X126000Y200000D02*
D03*
Y180000D02*
D03*
Y190000D02*
D03*
X690000Y360000D02*
D03*
Y300000D02*
D03*
Y270000D02*
D03*
Y240000D02*
D03*
Y210000D02*
D03*
Y180000D02*
D03*
Y150000D02*
D03*
Y120000D02*
D03*
Y90000D02*
D03*
X528000Y269000D02*
D03*
Y178000D02*
D03*
Y190000D02*
D03*
X602000Y217000D02*
D03*
X424183Y173500D02*
D03*
X366183Y156000D02*
D03*
X350183D02*
D03*
X10000Y360000D02*
D03*
Y300000D02*
D03*
Y270000D02*
D03*
Y240000D02*
D03*
Y210000D02*
D03*
Y90000D02*
D03*
Y120000D02*
D03*
Y150000D02*
D03*
Y180000D02*
D03*
X585000Y10000D02*
D03*
X465000D02*
D03*
X495000D02*
D03*
X525000D02*
D03*
X345000D02*
D03*
X375000D02*
D03*
X405000D02*
D03*
X225000D02*
D03*
X255000D02*
D03*
X285000D02*
D03*
X315000D02*
D03*
X195000D02*
D03*
X165000D02*
D03*
X135000D02*
D03*
X105000D02*
D03*
X75000D02*
D03*
X585000Y440000D02*
D03*
X465000D02*
D03*
X495000D02*
D03*
X525000D02*
D03*
X555000D02*
D03*
X345000D02*
D03*
X375000D02*
D03*
X405000D02*
D03*
X435000D02*
D03*
X225000D02*
D03*
X255000D02*
D03*
X285000D02*
D03*
X315000D02*
D03*
X195000D02*
D03*
X165000D02*
D03*
X135000D02*
D03*
X105000D02*
D03*
X75000D02*
D03*
X265000Y55000D02*
D03*
X250000D02*
D03*
Y73000D02*
D03*
Y89000D02*
D03*
X265000Y73000D02*
D03*
Y89000D02*
D03*
X495000Y182000D02*
D03*
Y199000D02*
D03*
Y216000D02*
D03*
Y233000D02*
D03*
X20000Y315000D02*
D03*
Y335000D02*
D03*
X30000Y315000D02*
D03*
Y335000D02*
D03*
X324000Y123000D02*
D03*
X96000Y232000D02*
D03*
X185000Y423000D02*
D03*
X324000Y112000D02*
D03*
X421000Y410000D02*
D03*
X489000D02*
D03*
X403000Y377000D02*
D03*
X40000Y335000D02*
D03*
Y315000D02*
D03*
X35000Y220000D02*
D03*
Y190000D02*
D03*
X250000Y412000D02*
D03*
X300000D02*
D03*
X350000Y376000D02*
D03*
X473000Y130000D02*
D03*
X458000Y76000D02*
D03*
X444183Y164000D02*
D03*
X570000Y269000D02*
D03*
X419183Y241000D02*
D03*
X357183Y211000D02*
D03*
X546000Y269000D02*
D03*
M02*
