G04*
G04 #@! TF.GenerationSoftware,Altium Limited,Altium Designer,25.4.2 (15)*
G04*
G04 Layer_Color=32896*
%FSLAX44Y44*%
%MOMM*%
G71*
G04*
G04 #@! TF.SameCoordinates,F3998410-8278-4BEB-A66F-791B6528EB16*
G04*
G04*
G04 #@! TF.FilePolarity,Positive*
G04*
G01*
G75*
G36*
X305419Y374347D02*
X305627Y374306D01*
X305821Y374250D01*
X305974Y374181D01*
X306112Y374112D01*
X306223Y374056D01*
X306279Y374015D01*
X306307Y374001D01*
X306473Y373862D01*
X306612Y373709D01*
X306737Y373543D01*
X306820Y373404D01*
X306889Y373266D01*
X306931Y373168D01*
X306958Y373099D01*
X306972Y373071D01*
X307000Y372919D01*
X306972Y372780D01*
X306931Y372669D01*
X306889Y372600D01*
X306861Y372572D01*
X306737Y372503D01*
X306625Y372461D01*
X306528Y372447D01*
X306501D01*
X306362Y372475D01*
X306279Y372531D01*
X306251Y372544D01*
X306237Y372558D01*
X306154Y372628D01*
X306112Y372711D01*
X306085Y372766D01*
Y372780D01*
X305988Y372988D01*
X305932Y373058D01*
X305863Y373127D01*
X305821Y373182D01*
X305780Y373224D01*
X305752Y373238D01*
X305738Y373252D01*
X305641Y373307D01*
X305558Y373363D01*
X305377Y373404D01*
X305308Y373418D01*
X305253Y373432D01*
X304254D01*
X304115Y373418D01*
X303977Y373390D01*
X303866Y373349D01*
X303769Y373293D01*
X303699Y373238D01*
X303630Y373196D01*
X303602Y373168D01*
X303588Y373155D01*
X303491Y373044D01*
X303422Y372933D01*
X303380Y372822D01*
X303339Y372725D01*
X303325Y372628D01*
X303311Y372558D01*
Y372503D01*
Y372489D01*
Y371546D01*
X303325Y371393D01*
X303353Y371255D01*
X303394Y371144D01*
X303450Y371033D01*
X303505Y370963D01*
X303547Y370894D01*
X303575Y370866D01*
X303588Y370853D01*
X303699Y370769D01*
X303810Y370714D01*
X303921Y370658D01*
X304018Y370631D01*
X304115Y370617D01*
X304185Y370603D01*
X305738D01*
X305807Y370575D01*
X305904Y370533D01*
X305974Y370478D01*
X306001Y370464D01*
Y370450D01*
X306071Y370339D01*
X306112Y370228D01*
X306126Y370159D01*
Y370145D01*
Y370131D01*
X306112Y369993D01*
X306057Y369896D01*
X306015Y369826D01*
X306001Y369799D01*
X305891Y369729D01*
X305780Y369688D01*
X305696Y369674D01*
X304254D01*
X304088Y369660D01*
X303935Y369632D01*
X303810Y369577D01*
X303713Y369535D01*
X303630Y369479D01*
X303575Y369424D01*
X303547Y369396D01*
X303533Y369382D01*
X303464Y369285D01*
X303408Y369188D01*
X303367Y369077D01*
X303339Y368966D01*
X303325Y368869D01*
X303311Y368800D01*
Y368745D01*
Y368731D01*
Y366858D01*
X303325Y366706D01*
X303353Y366581D01*
X303394Y366456D01*
X303450Y366359D01*
X303505Y366290D01*
X303547Y366220D01*
X303575Y366193D01*
X303588Y366179D01*
X303699Y366096D01*
X303810Y366040D01*
X303921Y365985D01*
X304018Y365957D01*
X304115Y365943D01*
X304185Y365929D01*
X305197D01*
X305294Y365943D01*
X305405Y365957D01*
X305572Y366012D01*
X305655Y366040D01*
X305710Y366068D01*
X305738Y366096D01*
X305752D01*
X305835Y366179D01*
X305904Y366262D01*
X306015Y366428D01*
X306043Y366498D01*
X306071Y366553D01*
X306085Y366581D01*
Y366595D01*
X306140Y366706D01*
X306210Y366775D01*
X306279Y366831D01*
X306348Y366872D01*
X306404Y366900D01*
X306459Y366914D01*
X306584D01*
X306653Y366886D01*
X306764Y366844D01*
X306834Y366789D01*
X306861Y366775D01*
Y366761D01*
X306945Y366650D01*
X306986Y366553D01*
X307000Y366470D01*
Y366456D01*
Y366442D01*
X306972Y366276D01*
X306889Y366068D01*
X306778Y365888D01*
X306667Y365721D01*
X306542Y365596D01*
X306445Y365485D01*
X306362Y365416D01*
X306307Y365361D01*
X306279Y365347D01*
X306098Y365236D01*
X305904Y365153D01*
X305724Y365083D01*
X305558Y365042D01*
X305405Y365014D01*
X305294Y365000D01*
X304268D01*
X303991Y365028D01*
X303727Y365083D01*
X303505Y365166D01*
X303311Y365277D01*
X303158Y365374D01*
X303034Y365458D01*
X302964Y365513D01*
X302937Y365541D01*
X302756Y365763D01*
X302618Y365985D01*
X302521Y366207D01*
X302451Y366415D01*
X302410Y366595D01*
X302396Y366747D01*
X302382Y366803D01*
Y366844D01*
Y366858D01*
Y366872D01*
Y368745D01*
Y368897D01*
X302410Y369050D01*
X302479Y369327D01*
X302590Y369563D01*
X302701Y369771D01*
X302812Y369923D01*
X302923Y370048D01*
X302992Y370117D01*
X303006Y370145D01*
X303020D01*
X302812Y370353D01*
X302742Y370450D01*
X302673Y370547D01*
X302618Y370644D01*
X302576Y370714D01*
X302562Y370755D01*
X302548Y370769D01*
X302493Y370908D01*
X302451Y371047D01*
X302423Y371185D01*
X302396Y371296D01*
Y371393D01*
X302382Y371477D01*
Y371532D01*
Y371546D01*
Y372489D01*
X302410Y372766D01*
X302465Y373016D01*
X302562Y373238D01*
X302659Y373432D01*
X302756Y373585D01*
X302853Y373709D01*
X302909Y373779D01*
X302937Y373806D01*
X303145Y373987D01*
X303367Y374125D01*
X303588Y374222D01*
X303810Y374292D01*
X303991Y374333D01*
X304129Y374347D01*
X304185Y374361D01*
X305197D01*
X305419Y374347D01*
D02*
G37*
G36*
X271261D02*
X271441Y374306D01*
X271608Y374250D01*
X271747Y374195D01*
X271871Y374125D01*
X271954Y374070D01*
X272010Y374028D01*
X272024Y374015D01*
X272163Y373848D01*
X272274Y373668D01*
X272343Y373488D01*
X272398Y373321D01*
X272426Y373182D01*
X272440Y373058D01*
X272454Y372988D01*
Y372974D01*
Y372961D01*
Y371074D01*
X272440Y370839D01*
X272384Y370631D01*
X272315Y370450D01*
X272232Y370298D01*
X272163Y370173D01*
X272093Y370090D01*
X272038Y370034D01*
X272024Y370020D01*
X271871Y369909D01*
X271705Y369826D01*
X271539Y369757D01*
X271386Y369715D01*
X271247Y369688D01*
X271150Y369674D01*
X271053D01*
X270859Y369688D01*
X270679Y369729D01*
X270512Y369785D01*
X270374Y369854D01*
X270263Y369909D01*
X270166Y369965D01*
X270110Y370006D01*
X270096Y370020D01*
X269944Y370187D01*
X269833Y370367D01*
X269763Y370547D01*
X269708Y370714D01*
X269680Y370853D01*
X269652Y370977D01*
Y371047D01*
Y371074D01*
Y372961D01*
X269666Y373196D01*
X269722Y373404D01*
X269791Y373585D01*
X269874Y373737D01*
X269958Y373862D01*
X270027Y373945D01*
X270082Y374001D01*
X270096Y374015D01*
X270249Y374125D01*
X270415Y374209D01*
X270582Y374278D01*
X270720Y374320D01*
X270859Y374347D01*
X270956Y374361D01*
X271053D01*
X271261Y374347D01*
D02*
G37*
G36*
X278681D02*
X278778Y374306D01*
X278847Y374250D01*
X278875Y374236D01*
X278958Y374112D01*
X279000Y374001D01*
X279014Y373917D01*
Y373904D01*
Y373890D01*
Y365458D01*
X278986Y365305D01*
X278944Y365194D01*
X278903Y365139D01*
X278875Y365111D01*
X278764Y365042D01*
X278667Y365014D01*
X278584Y365000D01*
X278556D01*
X278417Y365014D01*
X278306Y365056D01*
X278251Y365097D01*
X278223Y365111D01*
X278140Y365222D01*
X278098Y365333D01*
X278084Y365416D01*
Y365444D01*
Y365458D01*
Y372073D01*
X274284Y365236D01*
X274229Y365153D01*
X274160Y365097D01*
X274090Y365056D01*
X274021Y365028D01*
X273965Y365014D01*
X273910Y365000D01*
X273868D01*
X273744Y365014D01*
X273647Y365056D01*
X273577Y365097D01*
X273549Y365111D01*
X273494Y365180D01*
X273466Y365250D01*
X273411Y365361D01*
X273397Y365444D01*
Y365458D01*
Y365471D01*
Y373890D01*
Y373973D01*
X273425Y374042D01*
X273466Y374153D01*
X273522Y374222D01*
X273535Y374236D01*
X273549D01*
X273660Y374306D01*
X273757Y374347D01*
X273841Y374361D01*
X273868D01*
X273993Y374347D01*
X274090Y374306D01*
X274160Y374250D01*
X274187Y374236D01*
X274271Y374112D01*
X274312Y374001D01*
X274326Y373917D01*
Y373904D01*
Y373890D01*
Y367274D01*
X278140Y374112D01*
X278195Y374195D01*
X278265Y374250D01*
X278334Y374306D01*
X278389Y374333D01*
X278445Y374347D01*
X278500Y374361D01*
X278542D01*
X278681Y374347D01*
D02*
G37*
G36*
X298943Y371518D02*
X299192Y371463D01*
X299428Y371366D01*
X299608Y371269D01*
X299775Y371171D01*
X299886Y371074D01*
X299955Y371019D01*
X299983Y370991D01*
X300163Y370783D01*
X300302Y370561D01*
X300385Y370339D01*
X300454Y370131D01*
X300496Y369951D01*
X300510Y369799D01*
X300523Y369743D01*
Y369715D01*
Y369688D01*
Y369674D01*
Y366858D01*
X300496Y366581D01*
X300440Y366331D01*
X300343Y366096D01*
X300246Y365915D01*
X300149Y365749D01*
X300052Y365638D01*
X299996Y365569D01*
X299969Y365541D01*
X299747Y365361D01*
X299525Y365222D01*
X299317Y365139D01*
X299109Y365069D01*
X298929Y365028D01*
X298790Y365014D01*
X298734Y365000D01*
X297722D01*
X297583Y365014D01*
X297431Y365028D01*
X297306Y365056D01*
X297181Y365083D01*
X297084Y365111D01*
X297015Y365139D01*
X296959Y365166D01*
X296945D01*
X296807Y365236D01*
X296682Y365319D01*
X296571Y365388D01*
X296488Y365458D01*
X296418Y365513D01*
X296363Y365569D01*
X296335Y365596D01*
X296321Y365610D01*
X296210Y365471D01*
X296086Y365361D01*
X295961Y365263D01*
X295836Y365180D01*
X295739Y365125D01*
X295642Y365083D01*
X295586Y365056D01*
X295572Y365042D01*
X295503Y365014D01*
X295434Y365000D01*
X295378D01*
X295240Y365028D01*
X295129Y365069D01*
X295073Y365111D01*
X295045Y365139D01*
X294962Y365250D01*
X294921Y365347D01*
X294907Y365444D01*
Y365458D01*
Y365471D01*
X294921Y365583D01*
X294948Y365666D01*
X295004Y365735D01*
X295045Y365790D01*
X295101Y365832D01*
X295156Y365860D01*
X295184Y365888D01*
X295198D01*
X295309Y365943D01*
X295406Y366012D01*
X295489Y366082D01*
X295559Y366151D01*
X295600Y366207D01*
X295642Y366262D01*
X295656Y366290D01*
X295669Y366304D01*
X295725Y366415D01*
X295767Y366512D01*
X295822Y366692D01*
X295836Y366775D01*
X295850Y366831D01*
Y366858D01*
Y366872D01*
Y371074D01*
X295864Y371227D01*
X295919Y371352D01*
X296002Y371435D01*
X296086Y371490D01*
X296169Y371518D01*
X296252Y371546D01*
X298665D01*
X298943Y371518D01*
D02*
G37*
G36*
X292549Y374347D02*
X292771Y374292D01*
X292965Y374222D01*
X293132Y374153D01*
X293270Y374070D01*
X293381Y374001D01*
X293437Y373945D01*
X293464Y373931D01*
X293631Y373737D01*
X293756Y373529D01*
X293853Y373321D01*
X293908Y373113D01*
X293950Y372947D01*
X293964Y372794D01*
X293978Y372739D01*
Y372711D01*
Y372683D01*
Y372669D01*
Y366858D01*
X293950Y366581D01*
X293894Y366331D01*
X293797Y366096D01*
X293700Y365915D01*
X293603Y365749D01*
X293506Y365638D01*
X293451Y365569D01*
X293423Y365541D01*
X293201Y365361D01*
X292979Y365222D01*
X292771Y365139D01*
X292563Y365069D01*
X292383Y365028D01*
X292244Y365014D01*
X292188Y365000D01*
X291176D01*
X290899Y365028D01*
X290635Y365083D01*
X290413Y365166D01*
X290219Y365277D01*
X290067Y365374D01*
X289956Y365458D01*
X289886Y365513D01*
X289859Y365541D01*
X289678Y365763D01*
X289540Y365985D01*
X289443Y366207D01*
X289373Y366415D01*
X289332Y366595D01*
X289318Y366734D01*
X289304Y366789D01*
Y366831D01*
Y366844D01*
Y366858D01*
Y369674D01*
X289318Y369965D01*
X289373Y370215D01*
X289457Y370436D01*
X289540Y370631D01*
X289623Y370783D01*
X289706Y370894D01*
X289762Y370950D01*
X289775Y370977D01*
X289984Y371158D01*
X290205Y371296D01*
X290441Y371393D01*
X290663Y371449D01*
X290871Y371490D01*
X291024Y371504D01*
X291093Y371518D01*
X291176D01*
X291065Y371601D01*
X290968Y371698D01*
X290899Y371768D01*
X290843Y371837D01*
X290802Y371907D01*
X290774Y371948D01*
X290746Y371976D01*
Y371990D01*
X290705Y372087D01*
X290663Y372184D01*
X290621Y372420D01*
X290607Y372517D01*
Y372600D01*
Y372655D01*
Y372669D01*
X290635Y372961D01*
X290691Y373210D01*
X290774Y373418D01*
X290871Y373598D01*
X290968Y373737D01*
X291051Y373834D01*
X291107Y373904D01*
X291134Y373917D01*
X291329Y374070D01*
X291537Y374181D01*
X291731Y374250D01*
X291911Y374306D01*
X292064Y374333D01*
X292188Y374361D01*
X292299D01*
X292549Y374347D01*
D02*
G37*
G36*
X287113Y365901D02*
X287210Y365860D01*
X287279Y365818D01*
X287307Y365790D01*
X287376Y365680D01*
X287418Y365569D01*
X287432Y365485D01*
Y365471D01*
Y365458D01*
X287418Y365333D01*
X287362Y365236D01*
X287321Y365166D01*
X287307Y365139D01*
X287196Y365056D01*
X287085Y365014D01*
X287002Y365000D01*
X286974D01*
X286835Y365028D01*
X286738Y365069D01*
X286669Y365111D01*
X286641Y365139D01*
X286558Y365250D01*
X286516Y365361D01*
X286502Y365430D01*
Y365444D01*
Y365458D01*
Y365527D01*
X286530Y365596D01*
X286586Y365693D01*
X286641Y365763D01*
X286655Y365790D01*
X286669D01*
X286780Y365874D01*
X286877Y365915D01*
X286946Y365929D01*
X286974D01*
X287113Y365901D01*
D02*
G37*
%LPC*%
G36*
X271081Y373432D02*
X271053D01*
X270928Y373418D01*
X270831Y373377D01*
X270762Y373335D01*
X270734Y373321D01*
X270679Y373252D01*
X270651Y373196D01*
X270595Y373085D01*
X270582Y372988D01*
Y372974D01*
Y372961D01*
Y371074D01*
Y370991D01*
X270609Y370922D01*
X270665Y370811D01*
X270720Y370742D01*
X270734Y370714D01*
X270748D01*
X270859Y370644D01*
X270956Y370617D01*
X271025Y370603D01*
X271053D01*
X271206Y370617D01*
X271303Y370658D01*
X271372Y370700D01*
X271400Y370714D01*
X271469Y370825D01*
X271511Y370950D01*
X271525Y371033D01*
Y371060D01*
Y371074D01*
Y372961D01*
X271497Y373113D01*
X271455Y373224D01*
X271414Y373279D01*
X271386Y373307D01*
X271275Y373377D01*
X271164Y373418D01*
X271081Y373432D01*
D02*
G37*
G36*
X298734Y370617D02*
X296779D01*
Y366858D01*
X296793Y366706D01*
X296821Y366581D01*
X296862Y366456D01*
X296918Y366359D01*
X296973Y366290D01*
X297015Y366220D01*
X297043Y366193D01*
X297056Y366179D01*
X297167Y366096D01*
X297278Y366040D01*
X297389Y365985D01*
X297486Y365957D01*
X297583Y365943D01*
X297653Y365929D01*
X298665D01*
X298790Y365943D01*
X298901Y365957D01*
X298998Y365971D01*
X299012Y365985D01*
X299026D01*
X299137Y366054D01*
X299234Y366123D01*
X299303Y366179D01*
X299331Y366193D01*
X299414Y366304D01*
X299483Y366415D01*
X299525Y366525D01*
X299566Y366637D01*
X299580Y366720D01*
X299594Y366789D01*
Y366844D01*
Y366858D01*
Y369674D01*
X299580Y369812D01*
X299566Y369923D01*
X299553Y370006D01*
X299539Y370020D01*
Y370034D01*
X299483Y370159D01*
X299414Y370256D01*
X299359Y370312D01*
X299331Y370339D01*
X299220Y370436D01*
X299109Y370506D01*
X298998Y370547D01*
X298887Y370589D01*
X298804Y370603D01*
X298734Y370617D01*
D02*
G37*
G36*
X292355Y373404D02*
X292299D01*
X292188Y373390D01*
X292092Y373377D01*
X291925Y373307D01*
X291856Y373266D01*
X291814Y373238D01*
X291786Y373224D01*
X291772Y373210D01*
X291689Y373127D01*
X291634Y373030D01*
X291592Y372947D01*
X291565Y372863D01*
X291551Y372780D01*
X291537Y372725D01*
Y372683D01*
Y372669D01*
X291551Y372572D01*
X291565Y372489D01*
X291634Y372336D01*
X291675Y372281D01*
X291703Y372239D01*
X291717Y372212D01*
X291731Y372198D01*
X291772Y372142D01*
X291842Y372087D01*
X291953Y371976D01*
X292022Y371920D01*
X292064Y371893D01*
X292092Y371865D01*
X292105Y371851D01*
X292674Y371463D01*
X293048Y371213D01*
Y372669D01*
X293034Y372794D01*
X293007Y372905D01*
X292979Y373002D01*
X292937Y373071D01*
X292896Y373141D01*
X292854Y373182D01*
X292840Y373196D01*
X292826Y373210D01*
X292743Y373279D01*
X292646Y373321D01*
X292480Y373377D01*
X292410Y373390D01*
X292355Y373404D01*
D02*
G37*
G36*
X292188Y370603D02*
X291176D01*
X291038Y370589D01*
X290899Y370561D01*
X290788Y370520D01*
X290691Y370464D01*
X290621Y370409D01*
X290552Y370367D01*
X290524Y370339D01*
X290511Y370326D01*
X290413Y370228D01*
X290344Y370117D01*
X290302Y370006D01*
X290261Y369896D01*
X290247Y369812D01*
X290233Y369743D01*
Y369688D01*
Y369674D01*
Y366858D01*
X290247Y366706D01*
X290275Y366581D01*
X290316Y366456D01*
X290372Y366359D01*
X290427Y366290D01*
X290469Y366220D01*
X290497Y366193D01*
X290511Y366179D01*
X290621Y366096D01*
X290732Y366040D01*
X290843Y365985D01*
X290940Y365957D01*
X291038Y365943D01*
X291107Y365929D01*
X292119D01*
X292244Y365943D01*
X292355Y365957D01*
X292452Y365971D01*
X292466Y365985D01*
X292480D01*
X292591Y366054D01*
X292688Y366123D01*
X292757Y366179D01*
X292785Y366193D01*
X292868Y366304D01*
X292937Y366415D01*
X292979Y366525D01*
X293021Y366637D01*
X293034Y366720D01*
X293048Y366789D01*
Y366844D01*
Y366858D01*
Y369674D01*
X293034Y369812D01*
X293021Y369923D01*
X293007Y370006D01*
X292993Y370020D01*
Y370034D01*
X292937Y370159D01*
X292868Y370256D01*
X292813Y370312D01*
X292785Y370339D01*
X292674Y370423D01*
X292563Y370492D01*
X292452Y370533D01*
X292341Y370575D01*
X292258Y370589D01*
X292188Y370603D01*
D02*
G37*
%LPD*%
M02*
