G04*
G04 #@! TF.GenerationSoftware,Altium Limited,Altium Designer,25.4.2 (15)*
G04*
G04 Layer_Physical_Order=3*
G04 Layer_Color=128*
%FSLAX44Y44*%
%MOMM*%
G71*
G04*
G04 #@! TF.SameCoordinates,F3998410-8278-4BEB-A66F-791B6528EB16*
G04*
G04*
G04 #@! TF.FilePolarity,Negative*
G04*
G01*
G75*
%ADD74C,0.3000*%
%ADD89C,1.0160*%
%ADD90C,1.8000*%
G04:AMPARAMS|DCode=91|XSize=2.524mm|YSize=2.524mm|CornerRadius=0mm|HoleSize=0mm|Usage=FLASHONLY|Rotation=0.000|XOffset=0mm|YOffset=0mm|HoleType=Round|Shape=Relief|Width=0.254mm|Gap=0.254mm|Entries=4|*
%AMTHD91*
7,0,0,2.5240,2.0160,0.2540,45*
%
%ADD91THD91*%
%ADD92C,7.1000*%
%ADD93C,1.1000*%
D74*
X247500Y224500D02*
X268000Y204000D01*
X306946D02*
X329520Y226574D01*
X347446Y244500D01*
X268000Y204000D02*
X306946D01*
X304000Y215000D02*
X309000Y220000D01*
X280000Y215000D02*
X304000D01*
X347446Y244500D02*
X349946Y247000D01*
X375000D01*
X274000Y221000D02*
X280000Y215000D01*
X274000Y221000D02*
Y229000D01*
X267000Y236000D02*
X274000Y229000D01*
X309000Y220000D02*
X314000Y225000D01*
Y254000D01*
X259000Y236000D02*
X267000D01*
X247500Y224500D02*
X259000Y236000D01*
X344000Y312000D02*
X362000D01*
X314000Y282000D02*
X344000Y312000D01*
X314000Y254000D02*
Y282000D01*
X375000Y247000D02*
X435000Y187000D01*
X457000Y180000D02*
Y217000D01*
X442000Y180000D02*
X457000D01*
X435000Y187000D02*
X442000Y180000D01*
X362000Y312000D02*
X457000Y217000D01*
D89*
X675000Y-0D02*
G03*
X700000Y25000I-0J25000D01*
G01*
X700000Y425000D02*
G03*
X675000Y450000I-25000J0D01*
G01*
X25000Y450000D02*
G03*
X-0Y425000I-0J-25000D01*
G01*
X0Y25000D02*
G03*
X25000Y0I25000J0D01*
G01*
X25000D02*
X675000Y-0D01*
X700000Y25000D02*
X700000Y425000D01*
X25000Y450000D02*
X675000Y450000D01*
X-0Y425000D02*
X0Y25000D01*
D90*
X198403Y76027D02*
D03*
X173002Y50627D02*
D03*
X223803Y76027D02*
D03*
X147603Y50627D02*
D03*
X223803D02*
D03*
X173002Y76027D02*
D03*
X122203D02*
D03*
Y50627D02*
D03*
X591386Y392790D02*
D03*
X566386D02*
D03*
X541386D02*
D03*
D91*
X147603Y76027D02*
D03*
X198403Y50627D02*
D03*
D92*
X30000Y30000D02*
D03*
X670000D02*
D03*
X30000Y420000D02*
D03*
X670000D02*
D03*
D93*
X212000Y285000D02*
D03*
X212425Y309575D02*
D03*
X212000Y298000D02*
D03*
X249000Y290500D02*
D03*
X312500Y370000D02*
D03*
X593000Y143000D02*
D03*
X282500Y130000D02*
D03*
X264000Y163000D02*
D03*
X231000Y100000D02*
D03*
X249000Y147000D02*
D03*
X507500Y280000D02*
D03*
X672500Y370000D02*
D03*
Y310000D02*
D03*
Y130000D02*
D03*
Y70000D02*
D03*
X657500Y280000D02*
D03*
X642500Y250000D02*
D03*
Y190000D02*
D03*
X657500Y160000D02*
D03*
X642500Y70000D02*
D03*
X627500Y400000D02*
D03*
X612500Y370000D02*
D03*
X627500Y340000D02*
D03*
Y220000D02*
D03*
X612500Y190000D02*
D03*
Y130000D02*
D03*
X627500Y100000D02*
D03*
X612500Y70000D02*
D03*
X627500Y40000D02*
D03*
X612500Y10000D02*
D03*
X582500Y370000D02*
D03*
X597500Y340000D02*
D03*
Y100000D02*
D03*
X582500Y70000D02*
D03*
X552500Y370000D02*
D03*
Y310000D02*
D03*
X567500Y280000D02*
D03*
X537500D02*
D03*
Y100000D02*
D03*
X507500Y400000D02*
D03*
X492500Y310000D02*
D03*
Y250000D02*
D03*
Y190000D02*
D03*
X477500Y400000D02*
D03*
Y280000D02*
D03*
Y220000D02*
D03*
X447500Y400000D02*
D03*
X432500Y250000D02*
D03*
X447500Y40000D02*
D03*
X417500Y400000D02*
D03*
Y40000D02*
D03*
X387500Y400000D02*
D03*
X372500Y370000D02*
D03*
Y310000D02*
D03*
Y70000D02*
D03*
X387500Y40000D02*
D03*
X357500Y400000D02*
D03*
Y340000D02*
D03*
X342500Y70000D02*
D03*
X357500Y40000D02*
D03*
X327500Y400000D02*
D03*
Y340000D02*
D03*
X312500Y70000D02*
D03*
X282500Y370000D02*
D03*
X297500Y100000D02*
D03*
X282500Y70000D02*
D03*
X297500Y40000D02*
D03*
X252500Y310000D02*
D03*
X267500Y100000D02*
D03*
Y40000D02*
D03*
X222500Y370000D02*
D03*
X237500Y40000D02*
D03*
X192500Y370000D02*
D03*
X207500Y100000D02*
D03*
Y40000D02*
D03*
X162500Y370000D02*
D03*
X132500D02*
D03*
X102500D02*
D03*
X117500Y220000D02*
D03*
X102500Y190000D02*
D03*
X117500Y100000D02*
D03*
X87500Y400000D02*
D03*
X72500Y370000D02*
D03*
Y250000D02*
D03*
X87500Y220000D02*
D03*
Y160000D02*
D03*
X72500Y70000D02*
D03*
X57500Y340000D02*
D03*
Y280000D02*
D03*
Y160000D02*
D03*
Y100000D02*
D03*
X42500Y70000D02*
D03*
X27500Y100000D02*
D03*
X12500Y70000D02*
D03*
X281000Y180000D02*
D03*
X240000Y201000D02*
D03*
X171000Y248000D02*
D03*
X165000Y277000D02*
D03*
X422995Y214188D02*
D03*
X585000Y345000D02*
D03*
X549000Y359000D02*
D03*
X10000Y330000D02*
D03*
X195000Y205000D02*
D03*
X180000Y215000D02*
D03*
X205000Y185000D02*
D03*
X445000Y302000D02*
D03*
X460000Y317000D02*
D03*
X445000D02*
D03*
X420000Y296000D02*
D03*
Y317000D02*
D03*
X435000Y130000D02*
D03*
X505000Y30000D02*
D03*
X485000D02*
D03*
X585000Y233000D02*
D03*
X563000Y190000D02*
D03*
Y203000D02*
D03*
X530000Y293000D02*
D03*
X550000D02*
D03*
X570000D02*
D03*
X554000Y42000D02*
D03*
X455000Y130000D02*
D03*
X133000Y328000D02*
D03*
X121000D02*
D03*
X109000D02*
D03*
X162000Y423000D02*
D03*
X233000Y180000D02*
D03*
X342183Y226000D02*
D03*
X372183D02*
D03*
X357183D02*
D03*
X296000Y229000D02*
D03*
X342183Y211000D02*
D03*
X372183D02*
D03*
X357183Y196000D02*
D03*
X342183D02*
D03*
X372183D02*
D03*
X562000Y124000D02*
D03*
X578000D02*
D03*
X555000Y10000D02*
D03*
X435000D02*
D03*
X491000Y130000D02*
D03*
X311154Y296654D02*
D03*
X296000Y246000D02*
D03*
X420000Y113000D02*
D03*
X690000Y330000D02*
D03*
X344000Y267000D02*
D03*
X331000D02*
D03*
X296000Y259000D02*
D03*
X302000Y271000D02*
D03*
X285000Y225000D02*
D03*
X245000Y180000D02*
D03*
X257000D02*
D03*
X269000D02*
D03*
X126000Y200000D02*
D03*
Y180000D02*
D03*
Y190000D02*
D03*
X690000Y360000D02*
D03*
Y300000D02*
D03*
Y270000D02*
D03*
Y240000D02*
D03*
Y210000D02*
D03*
Y180000D02*
D03*
Y150000D02*
D03*
Y120000D02*
D03*
Y90000D02*
D03*
X602000Y217000D02*
D03*
X424183Y173500D02*
D03*
X366183Y156000D02*
D03*
X350183D02*
D03*
X10000Y360000D02*
D03*
Y300000D02*
D03*
Y270000D02*
D03*
Y240000D02*
D03*
Y210000D02*
D03*
Y90000D02*
D03*
Y120000D02*
D03*
Y150000D02*
D03*
Y180000D02*
D03*
X585000Y10000D02*
D03*
X465000D02*
D03*
X495000D02*
D03*
X525000D02*
D03*
X345000D02*
D03*
X375000D02*
D03*
X405000D02*
D03*
X225000D02*
D03*
X255000D02*
D03*
X285000D02*
D03*
X315000D02*
D03*
X195000D02*
D03*
X165000D02*
D03*
X135000D02*
D03*
X105000D02*
D03*
X75000D02*
D03*
X585000Y440000D02*
D03*
X465000D02*
D03*
X495000D02*
D03*
X525000D02*
D03*
X555000D02*
D03*
X345000D02*
D03*
X375000D02*
D03*
X405000D02*
D03*
X435000D02*
D03*
X225000D02*
D03*
X255000D02*
D03*
X285000D02*
D03*
X315000D02*
D03*
X195000D02*
D03*
X165000D02*
D03*
X135000D02*
D03*
X105000D02*
D03*
X75000D02*
D03*
X265000Y55000D02*
D03*
X250000D02*
D03*
Y73000D02*
D03*
Y89000D02*
D03*
X265000Y73000D02*
D03*
Y89000D02*
D03*
X495000Y182000D02*
D03*
Y199000D02*
D03*
Y216000D02*
D03*
Y233000D02*
D03*
X20000Y315000D02*
D03*
Y335000D02*
D03*
X30000Y315000D02*
D03*
Y335000D02*
D03*
X421000Y410000D02*
D03*
X489000D02*
D03*
X40000Y335000D02*
D03*
Y315000D02*
D03*
X35000Y220000D02*
D03*
Y190000D02*
D03*
X250000Y412000D02*
D03*
X300000D02*
D03*
X350000Y376000D02*
D03*
X473000Y130000D02*
D03*
X458000Y76000D02*
D03*
X570000Y269000D02*
D03*
X419183Y241000D02*
D03*
X357183Y211000D02*
D03*
X546000Y269000D02*
D03*
M02*
