G04*
G04 #@! TF.GenerationSoftware,Altium Limited,Altium Designer,25.4.2 (15)*
G04*
G04 Layer_Color=128*
%FSLAX44Y44*%
%MOMM*%
G71*
G04*
G04 #@! TF.SameCoordinates,F3998410-8278-4BEB-A66F-791B6528EB16*
G04*
G04*
G04 #@! TF.FilePolarity,Positive*
G04*
G01*
G75*
%ADD94C,0.1270*%
D94*
X193403Y76027D02*
X203403D01*
X198403Y71027D02*
Y81027D01*
X168003Y50627D02*
X178002D01*
X173002Y45627D02*
Y55627D01*
X142603Y76027D02*
X152603D01*
X147603Y71027D02*
Y81027D01*
X218803Y76027D02*
X228803D01*
X223803Y71027D02*
Y81027D01*
X142603Y50627D02*
X152603D01*
X147603Y45627D02*
Y55627D01*
X218803Y50627D02*
X228803D01*
X223803Y45627D02*
Y55627D01*
X168003Y76027D02*
X178002D01*
X173002Y71027D02*
Y81027D01*
X193403Y50627D02*
X203403D01*
X198403Y45627D02*
Y55627D01*
X117203Y76027D02*
X127203D01*
X122203Y71027D02*
Y81027D01*
X117203Y50627D02*
X127203D01*
X122203Y45627D02*
Y55627D01*
X586386Y392790D02*
X596386D01*
X591386Y387790D02*
Y397790D01*
X561386Y392790D02*
X571386D01*
X566386Y387790D02*
Y397790D01*
X536386Y392790D02*
X546386D01*
X541386Y387790D02*
Y397790D01*
X14500Y30000D02*
X45500D01*
X30000Y14500D02*
Y45500D01*
X654500Y30000D02*
X685500D01*
X670000Y14500D02*
Y45500D01*
X14500Y420000D02*
X45500D01*
X30000Y404500D02*
Y435500D01*
X654500Y420000D02*
X685500D01*
X670000Y404500D02*
Y435500D01*
X210500Y285000D02*
X213500D01*
X212000Y283500D02*
Y286500D01*
X210925Y309575D02*
X213925D01*
X212425Y308075D02*
Y311075D01*
X287500Y331000D02*
X290500D01*
X289000Y329500D02*
Y332500D01*
X210500Y298000D02*
X213500D01*
X212000Y296500D02*
Y299500D01*
X247500Y290500D02*
X250500D01*
X249000Y289000D02*
Y292000D01*
X311000Y370000D02*
X314000D01*
X312500Y368500D02*
Y371500D01*
X591500Y143000D02*
X594500D01*
X593000Y141500D02*
Y144500D01*
X281000Y130000D02*
X284000D01*
X282500Y128500D02*
Y131500D01*
X262500Y163000D02*
X265500D01*
X264000Y161500D02*
Y164500D01*
X229500Y100000D02*
X232500D01*
X231000Y98500D02*
Y101500D01*
X247500Y147000D02*
X250500D01*
X249000Y145500D02*
Y148500D01*
X506000Y280000D02*
X509000D01*
X507500Y278500D02*
Y281500D01*
X671000Y370000D02*
X674000D01*
X672500Y368500D02*
Y371500D01*
X671000Y310000D02*
X674000D01*
X672500Y308500D02*
Y311500D01*
X671000Y130000D02*
X674000D01*
X672500Y128500D02*
Y131500D01*
X671000Y70000D02*
X674000D01*
X672500Y68500D02*
Y71500D01*
X656000Y280000D02*
X659000D01*
X657500Y278500D02*
Y281500D01*
X641000Y250000D02*
X644000D01*
X642500Y248500D02*
Y251500D01*
X641000Y190000D02*
X644000D01*
X642500Y188500D02*
Y191500D01*
X656000Y160000D02*
X659000D01*
X657500Y158500D02*
Y161500D01*
X641000Y70000D02*
X644000D01*
X642500Y68500D02*
Y71500D01*
X626000Y400000D02*
X629000D01*
X627500Y398500D02*
Y401500D01*
X611000Y370000D02*
X614000D01*
X612500Y368500D02*
Y371500D01*
X626000Y340000D02*
X629000D01*
X627500Y338500D02*
Y341500D01*
X626000Y220000D02*
X629000D01*
X627500Y218500D02*
Y221500D01*
X611000Y190000D02*
X614000D01*
X612500Y188500D02*
Y191500D01*
X611000Y130000D02*
X614000D01*
X612500Y128500D02*
Y131500D01*
X626000Y100000D02*
X629000D01*
X627500Y98500D02*
Y101500D01*
X611000Y70000D02*
X614000D01*
X612500Y68500D02*
Y71500D01*
X626000Y40000D02*
X629000D01*
X627500Y38500D02*
Y41500D01*
X611000Y10000D02*
X614000D01*
X612500Y8500D02*
Y11500D01*
X581000Y370000D02*
X584000D01*
X582500Y368500D02*
Y371500D01*
X596000Y340000D02*
X599000D01*
X597500Y338500D02*
Y341500D01*
X596000Y100000D02*
X599000D01*
X597500Y98500D02*
Y101500D01*
X581000Y70000D02*
X584000D01*
X582500Y68500D02*
Y71500D01*
X551000Y370000D02*
X554000D01*
X552500Y368500D02*
Y371500D01*
X551000Y310000D02*
X554000D01*
X552500Y308500D02*
Y311500D01*
X566000Y280000D02*
X569000D01*
X567500Y278500D02*
Y281500D01*
X536000Y280000D02*
X539000D01*
X537500Y278500D02*
Y281500D01*
X536000Y100000D02*
X539000D01*
X537500Y98500D02*
Y101500D01*
X506000Y400000D02*
X509000D01*
X507500Y398500D02*
Y401500D01*
X491000Y310000D02*
X494000D01*
X492500Y308500D02*
Y311500D01*
X491000Y250000D02*
X494000D01*
X492500Y248500D02*
Y251500D01*
X491000Y190000D02*
X494000D01*
X492500Y188500D02*
Y191500D01*
X476000Y400000D02*
X479000D01*
X477500Y398500D02*
Y401500D01*
X476000Y280000D02*
X479000D01*
X477500Y278500D02*
Y281500D01*
X476000Y220000D02*
X479000D01*
X477500Y218500D02*
Y221500D01*
X446000Y400000D02*
X449000D01*
X447500Y398500D02*
Y401500D01*
X431000Y250000D02*
X434000D01*
X432500Y248500D02*
Y251500D01*
X446000Y40000D02*
X449000D01*
X447500Y38500D02*
Y41500D01*
X416000Y400000D02*
X419000D01*
X417500Y398500D02*
Y401500D01*
X416000Y40000D02*
X419000D01*
X417500Y38500D02*
Y41500D01*
X386000Y400000D02*
X389000D01*
X387500Y398500D02*
Y401500D01*
X371000Y370000D02*
X374000D01*
X372500Y368500D02*
Y371500D01*
X371000Y310000D02*
X374000D01*
X372500Y308500D02*
Y311500D01*
X371000Y70000D02*
X374000D01*
X372500Y68500D02*
Y71500D01*
X386000Y40000D02*
X389000D01*
X387500Y38500D02*
Y41500D01*
X356000Y400000D02*
X359000D01*
X357500Y398500D02*
Y401500D01*
X356000Y340000D02*
X359000D01*
X357500Y338500D02*
Y341500D01*
X341000Y70000D02*
X344000D01*
X342500Y68500D02*
Y71500D01*
X356000Y40000D02*
X359000D01*
X357500Y38500D02*
Y41500D01*
X326000Y400000D02*
X329000D01*
X327500Y398500D02*
Y401500D01*
X326000Y340000D02*
X329000D01*
X327500Y338500D02*
Y341500D01*
X311000Y70000D02*
X314000D01*
X312500Y68500D02*
Y71500D01*
X281000Y370000D02*
X284000D01*
X282500Y368500D02*
Y371500D01*
X296000Y100000D02*
X299000D01*
X297500Y98500D02*
Y101500D01*
X281000Y70000D02*
X284000D01*
X282500Y68500D02*
Y71500D01*
X296000Y40000D02*
X299000D01*
X297500Y38500D02*
Y41500D01*
X251000Y310000D02*
X254000D01*
X252500Y308500D02*
Y311500D01*
X266000Y100000D02*
X269000D01*
X267500Y98500D02*
Y101500D01*
X266000Y40000D02*
X269000D01*
X267500Y38500D02*
Y41500D01*
X221000Y370000D02*
X224000D01*
X222500Y368500D02*
Y371500D01*
X236000Y40000D02*
X239000D01*
X237500Y38500D02*
Y41500D01*
X191000Y370000D02*
X194000D01*
X192500Y368500D02*
Y371500D01*
X206000Y100000D02*
X209000D01*
X207500Y98500D02*
Y101500D01*
X206000Y40000D02*
X209000D01*
X207500Y38500D02*
Y41500D01*
X161000Y370000D02*
X164000D01*
X162500Y368500D02*
Y371500D01*
X131000Y370000D02*
X134000D01*
X132500Y368500D02*
Y371500D01*
X101000Y370000D02*
X104000D01*
X102500Y368500D02*
Y371500D01*
X116000Y220000D02*
X119000D01*
X117500Y218500D02*
Y221500D01*
X101000Y190000D02*
X104000D01*
X102500Y188500D02*
Y191500D01*
X116000Y100000D02*
X119000D01*
X117500Y98500D02*
Y101500D01*
X86000Y400000D02*
X89000D01*
X87500Y398500D02*
Y401500D01*
X71000Y370000D02*
X74000D01*
X72500Y368500D02*
Y371500D01*
X71000Y250000D02*
X74000D01*
X72500Y248500D02*
Y251500D01*
X86000Y220000D02*
X89000D01*
X87500Y218500D02*
Y221500D01*
X86000Y160000D02*
X89000D01*
X87500Y158500D02*
Y161500D01*
X71000Y70000D02*
X74000D01*
X72500Y68500D02*
Y71500D01*
X56000Y340000D02*
X59000D01*
X57500Y338500D02*
Y341500D01*
X56000Y280000D02*
X59000D01*
X57500Y278500D02*
Y281500D01*
X56000Y160000D02*
X59000D01*
X57500Y158500D02*
Y161500D01*
X56000Y100000D02*
X59000D01*
X57500Y98500D02*
Y101500D01*
X41000Y70000D02*
X44000D01*
X42500Y68500D02*
Y71500D01*
X26000Y100000D02*
X29000D01*
X27500Y98500D02*
Y101500D01*
X11000Y70000D02*
X14000D01*
X12500Y68500D02*
Y71500D01*
X279500Y180000D02*
X282500D01*
X281000Y178500D02*
Y181500D01*
X238500Y201000D02*
X241500D01*
X240000Y199500D02*
Y202500D01*
X169500Y248000D02*
X172500D01*
X171000Y246500D02*
Y249500D01*
X163500Y277000D02*
X166500D01*
X165000Y275500D02*
Y278500D01*
X421495Y214188D02*
X424495D01*
X422995Y212688D02*
Y215688D01*
X442683Y188000D02*
X445683D01*
X444183Y186500D02*
Y189500D01*
X583500Y345000D02*
X586500D01*
X585000Y343500D02*
Y346500D01*
X547500Y359000D02*
X550500D01*
X549000Y357500D02*
Y360500D01*
X8500Y330000D02*
X11500D01*
X10000Y328500D02*
Y331500D01*
X176500Y169000D02*
X179500D01*
X178000Y167500D02*
Y170500D01*
X168500Y320000D02*
X171500D01*
X170000Y318500D02*
Y321500D01*
X193500Y205000D02*
X196500D01*
X195000Y203500D02*
Y206500D01*
X178500Y215000D02*
X181500D01*
X180000Y213500D02*
Y216500D01*
X158500Y230000D02*
X161500D01*
X160000Y228500D02*
Y231500D01*
X203500Y185000D02*
X206500D01*
X205000Y183500D02*
Y186500D01*
X443500Y302000D02*
X446500D01*
X445000Y300500D02*
Y303500D01*
X458500Y317000D02*
X461500D01*
X460000Y315500D02*
Y318500D01*
X443500Y317000D02*
X446500D01*
X445000Y315500D02*
Y318500D01*
X418500Y296000D02*
X421500D01*
X420000Y294500D02*
Y297500D01*
X418500Y317000D02*
X421500D01*
X420000Y315500D02*
Y318500D01*
X433500Y130000D02*
X436500D01*
X435000Y128500D02*
Y131500D01*
X503500Y30000D02*
X506500D01*
X505000Y28500D02*
Y31500D01*
X483500Y30000D02*
X486500D01*
X485000Y28500D02*
Y31500D01*
X583500Y233000D02*
X586500D01*
X585000Y231500D02*
Y234500D01*
X561500Y190000D02*
X564500D01*
X563000Y188500D02*
Y191500D01*
X561500Y203000D02*
X564500D01*
X563000Y201500D02*
Y204500D01*
X528500Y293000D02*
X531500D01*
X530000Y291500D02*
Y294500D01*
X548500Y293000D02*
X551500D01*
X550000Y291500D02*
Y294500D01*
X568500Y293000D02*
X571500D01*
X570000Y291500D02*
Y294500D01*
X552500Y42000D02*
X555500D01*
X554000Y40500D02*
Y43500D01*
X453500Y130000D02*
X456500D01*
X455000Y128500D02*
Y131500D01*
X131500Y328000D02*
X134500D01*
X133000Y326500D02*
Y329500D01*
X119500Y328000D02*
X122500D01*
X121000Y326500D02*
Y329500D01*
X107500Y328000D02*
X110500D01*
X109000Y326500D02*
Y329500D01*
X160500Y423000D02*
X163500D01*
X162000Y421500D02*
Y424500D01*
X231500Y180000D02*
X234500D01*
X233000Y178500D02*
Y181500D01*
X340683Y226000D02*
X343683D01*
X342183Y224500D02*
Y227500D01*
X370683Y226000D02*
X373683D01*
X372183Y224500D02*
Y227500D01*
X355683Y226000D02*
X358683D01*
X357183Y224500D02*
Y227500D01*
X294500Y229000D02*
X297500D01*
X296000Y227500D02*
Y230500D01*
X340683Y211000D02*
X343683D01*
X342183Y209500D02*
Y212500D01*
X370683Y211000D02*
X373683D01*
X372183Y209500D02*
Y212500D01*
X355683Y196000D02*
X358683D01*
X357183Y194500D02*
Y197500D01*
X340683Y196000D02*
X343683D01*
X342183Y194500D02*
Y197500D01*
X370683Y196000D02*
X373683D01*
X372183Y194500D02*
Y197500D01*
X560500Y124000D02*
X563500D01*
X562000Y122500D02*
Y125500D01*
X576500Y124000D02*
X579500D01*
X578000Y122500D02*
Y125500D01*
X553500Y10000D02*
X556500D01*
X555000Y8500D02*
Y11500D01*
X433500Y10000D02*
X436500D01*
X435000Y8500D02*
Y11500D01*
X489500Y130000D02*
X492500D01*
X491000Y128500D02*
Y131500D01*
X309654Y296654D02*
X312654D01*
X311154Y295154D02*
Y298154D01*
X328500Y385000D02*
X331500D01*
X330000Y383500D02*
Y386500D01*
X294500Y246000D02*
X297500D01*
X296000Y244500D02*
Y247500D01*
X343500Y301000D02*
X346500D01*
X345000Y299500D02*
Y302500D01*
X363500Y301000D02*
X366500D01*
X365000Y299500D02*
Y302500D01*
X353250Y301000D02*
X356250D01*
X354750Y299500D02*
Y302500D01*
X418500Y113000D02*
X421500D01*
X420000Y111500D02*
Y114500D01*
X688500Y330000D02*
X691500D01*
X690000Y328500D02*
Y331500D01*
X342500Y267000D02*
X345500D01*
X344000Y265500D02*
Y268500D01*
X329500Y267000D02*
X332500D01*
X331000Y265500D02*
Y268500D01*
X294500Y259000D02*
X297500D01*
X296000Y257500D02*
Y260500D01*
X300500Y271000D02*
X303500D01*
X302000Y269500D02*
Y272500D01*
X262500Y226000D02*
X265500D01*
X264000Y224500D02*
Y227500D01*
X283500Y225000D02*
X286500D01*
X285000Y223500D02*
Y226500D01*
X243500Y180000D02*
X246500D01*
X245000Y178500D02*
Y181500D01*
X328500Y373000D02*
X331500D01*
X330000Y371500D02*
Y374500D01*
X328500Y361000D02*
X331500D01*
X330000Y359500D02*
Y362500D01*
X255500Y180000D02*
X258500D01*
X257000Y178500D02*
Y181500D01*
X267500Y180000D02*
X270500D01*
X269000Y178500D02*
Y181500D01*
X124500Y200000D02*
X127500D01*
X126000Y198500D02*
Y201500D01*
X124500Y180000D02*
X127500D01*
X126000Y178500D02*
Y181500D01*
X124500Y190000D02*
X127500D01*
X126000Y188500D02*
Y191500D01*
X688500Y360000D02*
X691500D01*
X690000Y358500D02*
Y361500D01*
X688500Y300000D02*
X691500D01*
X690000Y298500D02*
Y301500D01*
X688500Y270000D02*
X691500D01*
X690000Y268500D02*
Y271500D01*
X688500Y240000D02*
X691500D01*
X690000Y238500D02*
Y241500D01*
X688500Y210000D02*
X691500D01*
X690000Y208500D02*
Y211500D01*
X688500Y180000D02*
X691500D01*
X690000Y178500D02*
Y181500D01*
X688500Y150000D02*
X691500D01*
X690000Y148500D02*
Y151500D01*
X688500Y120000D02*
X691500D01*
X690000Y118500D02*
Y121500D01*
X688500Y90000D02*
X691500D01*
X690000Y88500D02*
Y91500D01*
X526500Y269000D02*
X529500D01*
X528000Y267500D02*
Y270500D01*
X526500Y178000D02*
X529500D01*
X528000Y176500D02*
Y179500D01*
X526500Y190000D02*
X529500D01*
X528000Y188500D02*
Y191500D01*
X600500Y217000D02*
X603500D01*
X602000Y215500D02*
Y218500D01*
X422683Y173500D02*
X425683D01*
X424183Y172000D02*
Y175000D01*
X364683Y156000D02*
X367683D01*
X366183Y154500D02*
Y157500D01*
X348683Y156000D02*
X351683D01*
X350183Y154500D02*
Y157500D01*
X8500Y360000D02*
X11500D01*
X10000Y358500D02*
Y361500D01*
X8500Y300000D02*
X11500D01*
X10000Y298500D02*
Y301500D01*
X8500Y270000D02*
X11500D01*
X10000Y268500D02*
Y271500D01*
X8500Y240000D02*
X11500D01*
X10000Y238500D02*
Y241500D01*
X8500Y210000D02*
X11500D01*
X10000Y208500D02*
Y211500D01*
X8500Y90000D02*
X11500D01*
X10000Y88500D02*
Y91500D01*
X8500Y120000D02*
X11500D01*
X10000Y118500D02*
Y121500D01*
X8500Y150000D02*
X11500D01*
X10000Y148500D02*
Y151500D01*
X8500Y180000D02*
X11500D01*
X10000Y178500D02*
Y181500D01*
X583500Y10000D02*
X586500D01*
X585000Y8500D02*
Y11500D01*
X463500Y10000D02*
X466500D01*
X465000Y8500D02*
Y11500D01*
X493500Y10000D02*
X496500D01*
X495000Y8500D02*
Y11500D01*
X523500Y10000D02*
X526500D01*
X525000Y8500D02*
Y11500D01*
X343500Y10000D02*
X346500D01*
X345000Y8500D02*
Y11500D01*
X373500Y10000D02*
X376500D01*
X375000Y8500D02*
Y11500D01*
X403500Y10000D02*
X406500D01*
X405000Y8500D02*
Y11500D01*
X223500Y10000D02*
X226500D01*
X225000Y8500D02*
Y11500D01*
X253500Y10000D02*
X256500D01*
X255000Y8500D02*
Y11500D01*
X283500Y10000D02*
X286500D01*
X285000Y8500D02*
Y11500D01*
X313500Y10000D02*
X316500D01*
X315000Y8500D02*
Y11500D01*
X193500Y10000D02*
X196500D01*
X195000Y8500D02*
Y11500D01*
X163500Y10000D02*
X166500D01*
X165000Y8500D02*
Y11500D01*
X133500Y10000D02*
X136500D01*
X135000Y8500D02*
Y11500D01*
X103500Y10000D02*
X106500D01*
X105000Y8500D02*
Y11500D01*
X73500Y10000D02*
X76500D01*
X75000Y8500D02*
Y11500D01*
X583500Y440000D02*
X586500D01*
X585000Y438500D02*
Y441500D01*
X463500Y440000D02*
X466500D01*
X465000Y438500D02*
Y441500D01*
X493500Y440000D02*
X496500D01*
X495000Y438500D02*
Y441500D01*
X523500Y440000D02*
X526500D01*
X525000Y438500D02*
Y441500D01*
X553500Y440000D02*
X556500D01*
X555000Y438500D02*
Y441500D01*
X343500Y440000D02*
X346500D01*
X345000Y438500D02*
Y441500D01*
X373500Y440000D02*
X376500D01*
X375000Y438500D02*
Y441500D01*
X403500Y440000D02*
X406500D01*
X405000Y438500D02*
Y441500D01*
X433500Y440000D02*
X436500D01*
X435000Y438500D02*
Y441500D01*
X223500Y440000D02*
X226500D01*
X225000Y438500D02*
Y441500D01*
X253500Y440000D02*
X256500D01*
X255000Y438500D02*
Y441500D01*
X283500Y440000D02*
X286500D01*
X285000Y438500D02*
Y441500D01*
X313500Y440000D02*
X316500D01*
X315000Y438500D02*
Y441500D01*
X193500Y440000D02*
X196500D01*
X195000Y438500D02*
Y441500D01*
X163500Y440000D02*
X166500D01*
X165000Y438500D02*
Y441500D01*
X133500Y440000D02*
X136500D01*
X135000Y438500D02*
Y441500D01*
X103500Y440000D02*
X106500D01*
X105000Y438500D02*
Y441500D01*
X73500Y440000D02*
X76500D01*
X75000Y438500D02*
Y441500D01*
X263500Y55000D02*
X266500D01*
X265000Y53500D02*
Y56500D01*
X248500Y55000D02*
X251500D01*
X250000Y53500D02*
Y56500D01*
X248500Y73000D02*
X251500D01*
X250000Y71500D02*
Y74500D01*
X248500Y89000D02*
X251500D01*
X250000Y87500D02*
Y90500D01*
X263500Y73000D02*
X266500D01*
X265000Y71500D02*
Y74500D01*
X263500Y89000D02*
X266500D01*
X265000Y87500D02*
Y90500D01*
X493500Y182000D02*
X496500D01*
X495000Y180500D02*
Y183500D01*
X493500Y199000D02*
X496500D01*
X495000Y197500D02*
Y200500D01*
X493500Y216000D02*
X496500D01*
X495000Y214500D02*
Y217500D01*
X493500Y233000D02*
X496500D01*
X495000Y231500D02*
Y234500D01*
X18500Y315000D02*
X21500D01*
X20000Y313500D02*
Y316500D01*
X18500Y335000D02*
X21500D01*
X20000Y333500D02*
Y336500D01*
X28500Y315000D02*
X31500D01*
X30000Y313500D02*
Y316500D01*
X28500Y335000D02*
X31500D01*
X30000Y333500D02*
Y336500D01*
X322500Y123000D02*
X325500D01*
X324000Y121500D02*
Y124500D01*
X94500Y232000D02*
X97500D01*
X96000Y230500D02*
Y233500D01*
X183500Y423000D02*
X186500D01*
X185000Y421500D02*
Y424500D01*
X322500Y112000D02*
X325500D01*
X324000Y110500D02*
Y113500D01*
X419500Y410000D02*
X422500D01*
X421000Y408500D02*
Y411500D01*
X487500Y410000D02*
X490500D01*
X489000Y408500D02*
Y411500D01*
X401500Y377000D02*
X404500D01*
X403000Y375500D02*
Y378500D01*
X38500Y335000D02*
X41500D01*
X40000Y333500D02*
Y336500D01*
X38500Y315000D02*
X41500D01*
X40000Y313500D02*
Y316500D01*
X33500Y220000D02*
X36500D01*
X35000Y218500D02*
Y221500D01*
X33500Y190000D02*
X36500D01*
X35000Y188500D02*
Y191500D01*
X248500Y412000D02*
X251500D01*
X250000Y410500D02*
Y413500D01*
X298500Y412000D02*
X301500D01*
X300000Y410500D02*
Y413500D01*
X348500Y376000D02*
X351500D01*
X350000Y374500D02*
Y377500D01*
X471500Y130000D02*
X474500D01*
X473000Y128500D02*
Y131500D01*
X456500Y76000D02*
X459500D01*
X458000Y74500D02*
Y77500D01*
X442683Y164000D02*
X445683D01*
X444183Y162500D02*
Y165500D01*
X568500Y269000D02*
X571500D01*
X570000Y267500D02*
Y270500D01*
X417683Y241000D02*
X420683D01*
X419183Y239500D02*
Y242500D01*
X355683Y211000D02*
X358683D01*
X357183Y209500D02*
Y212500D01*
X544500Y269000D02*
X547500D01*
X546000Y267500D02*
Y270500D01*
M02*
