M48
;Layer_Color=9474304
;FILE_FORMAT=4:4
METRIC,LZ
;TYPE=PLATED
T01F00S00C0.3000
T02F00S00C1.0000
;TYPE=NON_PLATED
T03F00S00C3.1000
%
T01
X00375Y0001
X00405
X00435
X00465
X00495
X00505Y0003
X00485
X004475Y0004
X004175
X003875
X003575
X003725Y0007
X0042Y00113
X00435Y0013
X00455
X00473
X00491
X00495Y00182
X004925Y0019
X00495Y00199
X00528Y0019
Y00178
X00563Y0019
Y00203
X006125Y0019
X006425
X006575Y0016
X0069Y0015
Y0018
Y0012
X006725Y0013
X0069Y0009
X006725Y0007
X006425
X006125
X005825
X005975Y001
X006275
X006125Y0013
X00593Y00143
X00578Y00124
X00562
X005375Y001
X00554Y00042
X00555Y0001
X00585
X006125Y0001
X006275Y0004
X00525Y0001
X00458Y00076
X00444183Y00164
Y00188
X00424183Y001735
X00372183Y00196
X00357183
X00366183Y00156
X00350183
X00342183Y00196
X00281Y0018
X00269
X00257
X00245
X00233
X0024Y00201
X00205Y00185
X00178Y00169
X00126Y0018
Y0019
Y002
X001025Y0019
X000875Y0016
X000575
X00035Y0019
X0001Y0018
Y0015
Y0012
Y0009
X000125Y0007
X000425
X000725
X000575Y001
X000275
X001175
X002075
X00231Y001
X0025Y00089
X00265
X002675Y001
X00265Y00073
X0025
Y00055
X00265
X002675Y0004
X002975
X00285Y0001
X00255
X00225
X00195
X00165
X00135
X00105
X00075
X002075Y0004
X002375
X002825Y0007
X003125
X003425
X00324Y00112
Y00123
X002825Y0013
X002975Y001
X00249Y00147
X00264Y00163
X00315Y0001
X00345
X00342183Y00211
Y00226
X00344Y00267
X00331
X00302Y00271
X00296Y00259
Y00246
Y00229
X00285Y00225
X00264Y00226
X00249Y002905
X002525Y0031
X00212425Y00309575
X00212Y00298
Y00285
X00165Y00277
X00171Y00248
X0016Y0023
X0018Y00215
X00195Y00205
X001175Y0022
X000875
X00096Y00232
X000725Y0025
X000575Y0028
X0004Y00315
X0003
X0002
Y00335
X0003
X0004
X000575Y0034
X000725Y0037
X001025
X001325
X001625
X001925
X002225
X002825
X003125
X0033Y00373
Y00385
X003275Y004
X003Y00412
X00315Y0044
X00345
X00285
X00255
X00225
X00195
X00185Y00423
X00162
X00165Y0044
X00135
X00105
X00075
X000875Y004
X00109Y00328
X00121
X00133
X0017Y0032
X00289Y00331
X003275Y0034
X0033Y00361
X0035Y00376
X0035475Y00301
X00345
X00311154Y00296654
X0025Y00412
X0001Y0036
Y0033
Y003
Y0027
Y0024
Y0021
X00035Y0022
X00357183Y00226
Y00211
X00372183
Y00226
X00419183Y00241
X004325Y0025
X00422995Y00214188
X004775Y0022
X00495Y00216
Y00233
X004925Y0025
X005075Y0028
X005375
X00546Y00269
X00528
X0053Y00293
X0055
X005525Y0031
X0057Y00293
X005675Y0028
X0057Y00269
X00585Y00233
X00602Y00217
X006275Y0022
X006425Y0025
X006575Y0028
X0069Y0027
Y0024
Y0021
Y003
X006725Y0031
X0069Y0033
Y0036
X006725Y0037
X006125
X005825
X00585Y00345
X005975Y0034
X006275
Y004
X00585Y0044
X00555
X00525
X00495
X00465
X00435
X00405
X00375
X003875Y004
X004175
X00421Y0041
X004475Y004
X004775
X00489Y0041
X005075Y004
X005525Y0037
X00549Y00359
X004925Y0031
X0046Y00317
X00445
Y00302
X0042Y00296
Y00317
X003725Y0031
X00365Y00301
X003575Y0034
X003725Y0037
X00403Y00377
X003575Y004
X004775Y0028
T02
X00122203Y00050627
X00147603
X00173002
Y00076027
X00198403
X00223803
Y00050627
X00198403
X00147603Y00076027
X00122203
X00541386Y0039279
X00566386
X00591386
T03
X0067Y0003
X0003
Y0042
X0067
M30
