G04*
G04 #@! TF.GenerationSoftware,Altium Limited,Altium Designer,25.4.2 (15)*
G04*
G04 Layer_Color=8388736*
%FSLAX44Y44*%
%MOMM*%
G71*
G04*
G04 #@! TF.SameCoordinates,49B81D0F-A9A4-424D-AE8F-31BE1D99DEBE*
G04*
G04*
G04 #@! TF.FilePolarity,Negative*
G04*
G01*
G75*
G04:AMPARAMS|DCode=44|XSize=0.1mm|YSize=0.7mm|CornerRadius=0mm|HoleSize=0mm|Usage=FLASHONLY|Rotation=45.000|XOffset=0mm|YOffset=0mm|HoleType=Round|Shape=Rectangle|*
%AMROTATEDRECTD44*
4,1,4,0.2121,-0.2828,-0.2828,0.2121,-0.2121,0.2828,0.2828,-0.2121,0.2121,-0.2828,0.0*
%
%ADD44ROTATEDRECTD44*%

%ADD45R,1.0532X1.1532*%
%ADD46R,0.8032X1.2032*%
%ADD47P,0.9900X4X90.0*%
%ADD48R,1.5032X2.0032*%
%ADD49R,1.2032X1.1032*%
%ADD50R,1.2532X0.4032*%
%ADD51R,0.4032X1.2532*%
%ADD52R,6.4532X6.4532*%
%ADD53R,1.1032X1.2032*%
%ADD54R,1.2532X1.2032*%
%ADD55R,1.2032X1.2532*%
%ADD56R,1.6032X1.5032*%
%ADD57R,1.0032X1.0032*%
%ADD58R,1.4032X1.6032*%
%ADD59R,2.0032X1.5032*%
%ADD60C,2.6000*%
%ADD61R,1.1532X1.0532*%
%ADD62R,0.9532X2.7032*%
%ADD63R,1.4032X2.2032*%
%ADD64R,3.5032X1.5032*%
%ADD65R,1.5532X1.3532*%
%ADD66R,2.7032X2.4032*%
%ADD67R,1.9032X0.8032*%
%ADD68R,1.6032X2.9032*%
%ADD69R,0.7632X0.8932*%
%ADD70R,1.2032X0.7532*%
%ADD71O,1.6532X0.8032*%
%ADD72R,1.2032X0.8032*%
%ADD73C,1.8032*%
%ADD74R,1.8032X1.8032*%
%ADD75C,0.2032*%
D44*
X426828Y241828D02*
D03*
D45*
X197500Y295000D02*
D03*
X184500D02*
D03*
X197500Y276000D02*
D03*
X184500D02*
D03*
X148521Y248780D02*
D03*
X135521D02*
D03*
Y306780D02*
D03*
X148521D02*
D03*
Y277780D02*
D03*
X135521D02*
D03*
X266500Y252000D02*
D03*
X279500D02*
D03*
X191500Y401000D02*
D03*
X204500D02*
D03*
X204500Y377000D02*
D03*
X191500D02*
D03*
X554500Y126000D02*
D03*
X541500D02*
D03*
X302500Y319000D02*
D03*
X315500D02*
D03*
X280500Y154000D02*
D03*
X293500D02*
D03*
X293500Y136000D02*
D03*
X280500D02*
D03*
X602559Y309000D02*
D03*
X589559D02*
D03*
X514500Y345000D02*
D03*
X527500D02*
D03*
X527500Y327000D02*
D03*
X514500D02*
D03*
X315128Y284508D02*
D03*
X302128D02*
D03*
X184500Y314000D02*
D03*
X197500D02*
D03*
X159500Y173000D02*
D03*
X146500D02*
D03*
X554351Y109100D02*
D03*
X541351D02*
D03*
D46*
X184686Y154083D02*
D03*
X165686D02*
D03*
X175186Y130083D02*
D03*
X258500Y154000D02*
D03*
X239500D02*
D03*
X249000Y130000D02*
D03*
X150510Y192257D02*
D03*
X141010Y216257D02*
D03*
X160010D02*
D03*
X493330Y90910D02*
D03*
X512330D02*
D03*
X502830Y114910D02*
D03*
X568500Y345000D02*
D03*
X549500D02*
D03*
X559000Y321000D02*
D03*
D47*
X429657Y244657D02*
D03*
X424000Y239000D02*
D03*
D48*
X300000Y396000D02*
D03*
Y358000D02*
D03*
X350000Y320000D02*
D03*
X108000Y396000D02*
D03*
Y358000D02*
D03*
X350000Y358000D02*
D03*
X250000Y358000D02*
D03*
Y396000D02*
D03*
D49*
X188000Y239750D02*
D03*
Y226250D02*
D03*
X489000Y346813D02*
D03*
Y333312D02*
D03*
X465000Y346813D02*
D03*
Y333312D02*
D03*
D50*
X396433Y181000D02*
D03*
X396433Y185000D02*
D03*
Y189000D02*
D03*
X396433Y193000D02*
D03*
Y197000D02*
D03*
X396433Y201000D02*
D03*
Y205000D02*
D03*
Y209000D02*
D03*
X396433Y213000D02*
D03*
X396433Y217000D02*
D03*
X396433Y221000D02*
D03*
X396433Y225000D02*
D03*
Y229000D02*
D03*
X396433Y233000D02*
D03*
X396433Y237000D02*
D03*
Y241000D02*
D03*
X317933Y241000D02*
D03*
X317933Y237000D02*
D03*
X317933Y233000D02*
D03*
X317933Y229000D02*
D03*
Y225000D02*
D03*
X317933Y221000D02*
D03*
X317933Y217000D02*
D03*
X317933Y213000D02*
D03*
X317933Y209000D02*
D03*
X317933Y205000D02*
D03*
X317933Y201000D02*
D03*
Y197000D02*
D03*
Y193000D02*
D03*
X317933Y189000D02*
D03*
X317933Y185000D02*
D03*
X317933Y181000D02*
D03*
D51*
X387183Y250250D02*
D03*
X383183Y250250D02*
D03*
X379183Y250250D02*
D03*
X375183D02*
D03*
X371183D02*
D03*
X367183D02*
D03*
X363183D02*
D03*
X359183Y250250D02*
D03*
X355183Y250250D02*
D03*
X351183Y250250D02*
D03*
X347183D02*
D03*
X343183Y250250D02*
D03*
X339183Y250250D02*
D03*
X335183D02*
D03*
X331183Y250250D02*
D03*
X327183Y250250D02*
D03*
Y171750D02*
D03*
X331183D02*
D03*
X335183D02*
D03*
X339183Y171750D02*
D03*
X343183Y171750D02*
D03*
X347183D02*
D03*
X351183D02*
D03*
X355183Y171750D02*
D03*
X359183Y171750D02*
D03*
X363183Y171750D02*
D03*
X367183Y171750D02*
D03*
X371183Y171750D02*
D03*
X375183D02*
D03*
X379183Y171750D02*
D03*
X383183Y171750D02*
D03*
X387183Y171750D02*
D03*
D52*
X357183Y211000D02*
D03*
D53*
X457750Y234000D02*
D03*
X444250D02*
D03*
X384250Y304000D02*
D03*
X397750D02*
D03*
X540851Y92060D02*
D03*
X554351D02*
D03*
X554750Y144040D02*
D03*
X541250D02*
D03*
X259368Y331340D02*
D03*
X272868D02*
D03*
X316250Y145000D02*
D03*
X329750D02*
D03*
X384250Y322000D02*
D03*
X397750D02*
D03*
X360750Y283000D02*
D03*
X347250D02*
D03*
X250250Y215000D02*
D03*
X263750D02*
D03*
X397750Y286000D02*
D03*
X384250D02*
D03*
X444250Y200000D02*
D03*
X457750D02*
D03*
X444250Y177000D02*
D03*
X457750D02*
D03*
X444250Y217000D02*
D03*
X457750D02*
D03*
X224750Y200000D02*
D03*
X211250D02*
D03*
D54*
X540750Y163000D02*
D03*
X555250D02*
D03*
D55*
X295000Y53750D02*
D03*
Y68250D02*
D03*
D56*
X379000Y122000D02*
D03*
Y138000D02*
D03*
X350040Y138911D02*
D03*
Y122911D02*
D03*
D57*
X96521Y277780D02*
D03*
X111521D02*
D03*
X96521Y248780D02*
D03*
X111521D02*
D03*
X97021Y306780D02*
D03*
X112021D02*
D03*
D58*
X227000Y222000D02*
D03*
X211000D02*
D03*
X227000Y244000D02*
D03*
X211000D02*
D03*
D59*
X456183Y266000D02*
D03*
X494183D02*
D03*
D60*
X85000Y130000D02*
D03*
X639000Y373000D02*
D03*
X609000Y37000D02*
D03*
D61*
X444000Y376500D02*
D03*
Y363500D02*
D03*
X421250Y364000D02*
D03*
Y377000D02*
D03*
X421000Y346562D02*
D03*
Y333563D02*
D03*
X444000D02*
D03*
Y346562D02*
D03*
X181300Y183284D02*
D03*
Y196283D02*
D03*
X146000Y149000D02*
D03*
Y136000D02*
D03*
X207000Y148500D02*
D03*
Y135500D02*
D03*
X472040Y109500D02*
D03*
Y96500D02*
D03*
X528000Y211500D02*
D03*
Y224500D02*
D03*
Y255500D02*
D03*
Y242500D02*
D03*
X452000Y96500D02*
D03*
Y109500D02*
D03*
X489000Y363563D02*
D03*
Y376562D02*
D03*
X465000Y363563D02*
D03*
Y376562D02*
D03*
D62*
X479251Y63000D02*
D03*
X494251D02*
D03*
X509251D02*
D03*
X524251D02*
D03*
X539251D02*
D03*
X554251D02*
D03*
D63*
X459251Y26500D02*
D03*
X574251D02*
D03*
D64*
X349000Y50000D02*
D03*
X413000D02*
D03*
D65*
X318000Y67750D02*
D03*
Y50250D02*
D03*
D66*
X35000Y354250D02*
D03*
Y295250D02*
D03*
Y163250D02*
D03*
Y247250D02*
D03*
X663000Y194000D02*
D03*
Y95750D02*
D03*
Y333500D02*
D03*
Y235250D02*
D03*
D67*
X60000Y331000D02*
D03*
Y318500D02*
D03*
Y186500D02*
D03*
Y199000D02*
D03*
Y211500D02*
D03*
Y224000D02*
D03*
X638000Y169000D02*
D03*
Y156500D02*
D03*
Y144000D02*
D03*
Y131500D02*
D03*
Y119000D02*
D03*
Y308500D02*
D03*
Y296000D02*
D03*
Y283500D02*
D03*
Y271000D02*
D03*
Y258500D02*
D03*
D68*
X172500Y353000D02*
D03*
X145500D02*
D03*
D69*
X190800Y357000D02*
D03*
X215200D02*
D03*
D70*
X145500Y381500D02*
D03*
Y400500D02*
D03*
X172500D02*
D03*
Y391000D02*
D03*
Y381500D02*
D03*
X145500Y391000D02*
D03*
D71*
X283250Y271950D02*
D03*
Y284650D02*
D03*
Y297350D02*
D03*
Y310050D02*
D03*
X228750Y271950D02*
D03*
Y284650D02*
D03*
Y297350D02*
D03*
Y310050D02*
D03*
D72*
X88000Y208500D02*
D03*
Y189500D02*
D03*
X112000Y199000D02*
D03*
X571000Y233000D02*
D03*
X547000Y223500D02*
D03*
Y242500D02*
D03*
D73*
X198600Y76000D02*
D03*
X173200Y50600D02*
D03*
X147800Y76000D02*
D03*
Y50600D02*
D03*
X224000D02*
D03*
X173200Y76000D02*
D03*
X198600Y50600D02*
D03*
X122400Y76000D02*
D03*
Y50600D02*
D03*
X591386Y392790D02*
D03*
X566386D02*
D03*
D74*
X224000Y76000D02*
D03*
X541386Y392790D02*
D03*
D75*
X30000Y30000D02*
D03*
X670000D02*
D03*
X30000Y420000D02*
D03*
X670000D02*
D03*
M02*
