G04*
G04 #@! TF.GenerationSoftware,Altium Limited,Altium Designer,25.4.2 (15)*
G04*
G04 Layer_Color=65535*
%FSLAX44Y44*%
%MOMM*%
G71*
G04*
G04 #@! TF.SameCoordinates,49B81D0F-A9A4-424D-AE8F-31BE1D99DEBE*
G04*
G04*
G04 #@! TF.FilePolarity,Positive*
G04*
G01*
G75*
%ADD10C,0.1500*%
%ADD11C,0.2000*%
%ADD12C,0.2500*%
%ADD13C,0.4000*%
%ADD14C,0.1000*%
%ADD15C,0.5000*%
%ADD16C,0.2540*%
G36*
X91297Y444590D02*
X91440D01*
Y444303D01*
X91583D01*
Y444017D01*
X91727D01*
Y443873D01*
X91870D01*
Y443587D01*
X92013D01*
Y443300D01*
X92157D01*
Y443013D01*
X92300D01*
Y442870D01*
X92443D01*
Y442583D01*
X92587D01*
Y442297D01*
X92730D01*
Y442153D01*
X92873D01*
Y441867D01*
X93017D01*
Y441580D01*
X93160D01*
Y441293D01*
X93303D01*
Y441150D01*
X93447D01*
Y440863D01*
X93590D01*
Y440577D01*
X93733D01*
Y440290D01*
X93877D01*
Y440147D01*
X94020D01*
Y439860D01*
X94163D01*
Y439573D01*
X94307D01*
Y439287D01*
X94450D01*
Y439143D01*
X94593D01*
Y438857D01*
X94737D01*
Y438570D01*
X94880D01*
Y438427D01*
X95023D01*
Y438140D01*
X95167D01*
Y437853D01*
X95310D01*
Y437567D01*
X95453D01*
Y437423D01*
X95597D01*
Y437137D01*
X95740D01*
Y436850D01*
X95883D01*
Y436563D01*
X96027D01*
Y436420D01*
X96170D01*
Y436133D01*
X96313D01*
Y435847D01*
X96457D01*
Y435560D01*
X96600D01*
Y435417D01*
X96743D01*
Y435130D01*
X96887D01*
Y434843D01*
X97030D01*
Y434557D01*
X97173D01*
Y434413D01*
X97317D01*
Y434127D01*
X97460D01*
Y433840D01*
X97603D01*
Y433697D01*
X97747D01*
Y433410D01*
X97890D01*
Y433123D01*
X98033D01*
Y432837D01*
X97747D01*
Y432693D01*
X97603D01*
Y432550D01*
X97317D01*
Y432407D01*
X97030D01*
Y432263D01*
X96743D01*
Y432120D01*
X96457D01*
Y431977D01*
X96170D01*
Y431833D01*
X95740D01*
Y431690D01*
X95453D01*
Y431547D01*
X95023D01*
Y431403D01*
X94450D01*
Y431260D01*
X94020D01*
Y431117D01*
X93303D01*
Y430973D01*
X92587D01*
Y430830D01*
X91727D01*
Y430687D01*
X90723D01*
Y430543D01*
X89720D01*
Y430400D01*
X88717D01*
Y430257D01*
X88000D01*
Y430113D01*
X87283D01*
Y429970D01*
X86853D01*
Y429827D01*
X86423D01*
Y429683D01*
X86137D01*
Y429540D01*
X85850D01*
Y429397D01*
X85707D01*
Y429253D01*
X85563D01*
Y429110D01*
X85277D01*
Y428967D01*
X85133D01*
Y428823D01*
X84990D01*
Y428537D01*
X84847D01*
Y428393D01*
X84703D01*
Y428107D01*
X84560D01*
Y428250D01*
X84273D01*
Y428393D01*
X83987D01*
Y428537D01*
X83700D01*
Y428680D01*
X83557D01*
Y428823D01*
X83270D01*
Y428967D01*
X82983D01*
Y429110D01*
X82697D01*
Y429253D01*
X82553D01*
Y429397D01*
X82410D01*
Y429683D01*
X82553D01*
Y429827D01*
X82697D01*
Y430113D01*
X82840D01*
Y430400D01*
X82983D01*
Y430543D01*
X83127D01*
Y430830D01*
X83270D01*
Y431117D01*
X83413D01*
Y431403D01*
X83557D01*
Y431547D01*
X83700D01*
Y431833D01*
X83843D01*
Y432120D01*
X83987D01*
Y432407D01*
X84130D01*
Y432550D01*
X84273D01*
Y432837D01*
X84417D01*
Y433123D01*
X84560D01*
Y433410D01*
X84703D01*
Y433553D01*
X84847D01*
Y433840D01*
X84990D01*
Y434127D01*
X85133D01*
Y434270D01*
X85277D01*
Y434557D01*
X85420D01*
Y434843D01*
X85563D01*
Y435130D01*
X85707D01*
Y435273D01*
X85850D01*
Y435560D01*
X85993D01*
Y435847D01*
X86137D01*
Y436133D01*
X86280D01*
Y436277D01*
X86423D01*
Y436563D01*
X86567D01*
Y436850D01*
X86710D01*
Y436993D01*
X86853D01*
Y437280D01*
X86997D01*
Y437567D01*
X87140D01*
Y437853D01*
X87283D01*
Y437997D01*
X87427D01*
Y438283D01*
X87570D01*
Y438570D01*
X87713D01*
Y438857D01*
X87857D01*
Y439000D01*
X88000D01*
Y439287D01*
X88143D01*
Y439573D01*
X88287D01*
Y439860D01*
X88430D01*
Y440003D01*
X88573D01*
Y440290D01*
X88717D01*
Y440577D01*
X88860D01*
Y440720D01*
X89003D01*
Y441007D01*
X89147D01*
Y441293D01*
X89290D01*
Y441580D01*
X89433D01*
Y441723D01*
X89577D01*
Y442010D01*
X89720D01*
Y442297D01*
X89863D01*
Y442583D01*
X90007D01*
Y442727D01*
X90150D01*
Y443013D01*
X90293D01*
Y443300D01*
X90437D01*
Y443587D01*
X90580D01*
Y443730D01*
X90723D01*
Y444017D01*
X90867D01*
Y444303D01*
X91010D01*
Y444447D01*
X91153D01*
Y444733D01*
X91297D01*
Y444590D01*
D02*
G37*
G36*
X104493Y414600D02*
X104350D01*
Y414743D01*
X104493D01*
Y414600D01*
D02*
G37*
G36*
X100863Y426023D02*
X101007D01*
Y425880D01*
X101150D01*
Y425593D01*
X101293D01*
Y425307D01*
X101437D01*
Y425020D01*
X101580D01*
Y424877D01*
X101723D01*
Y424590D01*
X101867D01*
Y424303D01*
X102010D01*
Y424017D01*
X102153D01*
Y423873D01*
X102297D01*
Y423587D01*
X102440D01*
Y423300D01*
X102583D01*
Y423157D01*
X102727D01*
Y422870D01*
X102870D01*
Y422583D01*
X103013D01*
Y422297D01*
X103157D01*
Y422153D01*
X103300D01*
Y421867D01*
X103443D01*
Y421580D01*
X103587D01*
Y421293D01*
X103730D01*
Y421150D01*
X103873D01*
Y420863D01*
X104017D01*
Y420577D01*
X104160D01*
Y420290D01*
X104303D01*
Y420147D01*
X104447D01*
Y419860D01*
X104590D01*
Y419573D01*
X104733D01*
Y419430D01*
X104877D01*
Y419143D01*
X105020D01*
Y418857D01*
X105163D01*
Y418570D01*
X105307D01*
Y418427D01*
X105450D01*
Y418140D01*
X105593D01*
Y417853D01*
X105737D01*
Y417567D01*
X105880D01*
Y417423D01*
X106023D01*
Y417137D01*
X106167D01*
Y416850D01*
X106310D01*
Y416563D01*
X106453D01*
Y416420D01*
X106597D01*
Y416133D01*
X106740D01*
Y415847D01*
X106883D01*
Y415703D01*
X107027D01*
Y415417D01*
X107170D01*
Y415130D01*
X107313D01*
Y414843D01*
X107457D01*
Y414700D01*
X107600D01*
Y414413D01*
X107743D01*
Y414127D01*
X107887D01*
Y413840D01*
X107743D01*
Y413983D01*
X107457D01*
Y414127D01*
X107170D01*
Y414270D01*
X106883D01*
Y414413D01*
X106740D01*
Y414557D01*
X106453D01*
Y414700D01*
X106167D01*
Y414843D01*
X105880D01*
Y414987D01*
X105737D01*
Y415130D01*
X105450D01*
Y415273D01*
X105163D01*
Y415417D01*
X104877D01*
Y415560D01*
X104733D01*
Y415703D01*
X104447D01*
Y415847D01*
X104160D01*
Y415990D01*
X104017D01*
Y416133D01*
X103730D01*
Y416277D01*
X103443D01*
Y416420D01*
X103157D01*
Y416563D01*
X103013D01*
Y416707D01*
X102727D01*
Y416850D01*
X102440D01*
Y416993D01*
X102153D01*
Y417137D01*
X102010D01*
Y417280D01*
X101723D01*
Y417423D01*
X101437D01*
Y417567D01*
X101150D01*
Y417710D01*
X101007D01*
Y417853D01*
X100720D01*
Y417997D01*
X100433D01*
Y418140D01*
X100290D01*
Y418283D01*
X100003D01*
Y418427D01*
X99717D01*
Y418570D01*
X99430D01*
Y418713D01*
X99287D01*
Y418857D01*
X99000D01*
Y419000D01*
X98713D01*
Y419143D01*
X98427D01*
Y419287D01*
X98283D01*
Y419430D01*
X97997D01*
Y419573D01*
X97710D01*
Y419717D01*
X97567D01*
Y419860D01*
X97280D01*
Y420003D01*
X96993D01*
Y420147D01*
X96707D01*
Y420290D01*
X96563D01*
Y420433D01*
X96277D01*
Y420577D01*
X95990D01*
Y420720D01*
X95703D01*
Y421007D01*
X95847D01*
Y421150D01*
X95990D01*
Y421293D01*
X96133D01*
Y421437D01*
X96277D01*
Y421580D01*
X96420D01*
Y421723D01*
X96563D01*
Y421867D01*
X96707D01*
Y422010D01*
X96850D01*
Y422153D01*
X96993D01*
Y422297D01*
X97137D01*
Y422440D01*
X97280D01*
Y422583D01*
X97423D01*
Y422870D01*
X97567D01*
Y423013D01*
X97710D01*
Y423157D01*
X97853D01*
Y423300D01*
X97997D01*
Y423443D01*
X98140D01*
Y423587D01*
X98283D01*
Y423730D01*
X98427D01*
Y423873D01*
X98570D01*
Y424017D01*
X98713D01*
Y424160D01*
X98857D01*
Y424303D01*
X99000D01*
Y424447D01*
X99143D01*
Y424590D01*
X99287D01*
Y424877D01*
X99430D01*
Y425020D01*
X99573D01*
Y425163D01*
X99717D01*
Y425307D01*
X99860D01*
Y425450D01*
X100003D01*
Y425593D01*
X100147D01*
Y425737D01*
X100290D01*
Y425880D01*
X100433D01*
Y426023D01*
X100577D01*
Y426167D01*
X100720D01*
Y426310D01*
X100863D01*
Y426023D01*
D02*
G37*
G36*
X80757Y426640D02*
X80900D01*
Y426497D01*
X81187D01*
Y426353D01*
X81473D01*
Y426210D01*
X81760D01*
Y426067D01*
X81903D01*
Y425923D01*
X82190D01*
Y425780D01*
X82477D01*
Y425637D01*
X82620D01*
Y425350D01*
X82477D01*
Y425063D01*
X82333D01*
Y424920D01*
X82190D01*
Y424633D01*
X82047D01*
Y424347D01*
X81903D01*
Y424203D01*
X81760D01*
Y423917D01*
X81617D01*
Y423630D01*
X81473D01*
Y423487D01*
X81330D01*
Y423200D01*
X81187D01*
Y423057D01*
X81043D01*
Y422770D01*
X80900D01*
Y422627D01*
X80757D01*
Y422340D01*
X80613D01*
Y421910D01*
X80470D01*
Y421480D01*
X80613D01*
Y420763D01*
X80757D01*
Y420047D01*
X80900D01*
Y419473D01*
X81043D01*
Y418900D01*
X81187D01*
Y418183D01*
X81330D01*
Y417610D01*
X81473D01*
Y417180D01*
X81617D01*
Y416750D01*
X81760D01*
Y416607D01*
X81903D01*
Y416320D01*
X82047D01*
Y416177D01*
X83193D01*
Y416033D01*
X83337D01*
Y415747D01*
X83480D01*
Y415460D01*
X83623D01*
Y414887D01*
X83767D01*
Y414457D01*
X83910D01*
Y413883D01*
X84053D01*
Y413597D01*
X84197D01*
Y413453D01*
X84483D01*
Y413597D01*
X84627D01*
Y413740D01*
X84770D01*
Y414027D01*
X84913D01*
Y414313D01*
X85057D01*
Y414600D01*
X85200D01*
Y415173D01*
X85343D01*
Y416177D01*
X85200D01*
Y416750D01*
X85057D01*
Y417037D01*
X84913D01*
Y417323D01*
X84770D01*
Y417467D01*
X84627D01*
Y417610D01*
X84483D01*
Y417753D01*
X84340D01*
Y422053D01*
X84483D01*
Y422197D01*
X84627D01*
Y422483D01*
X84770D01*
Y422770D01*
X84913D01*
Y422913D01*
X85057D01*
Y423057D01*
X85200D01*
Y423343D01*
X85343D01*
Y423487D01*
X85487D01*
Y423630D01*
X85630D01*
Y423773D01*
X85917D01*
Y423630D01*
X86203D01*
Y423487D01*
X86347D01*
Y423343D01*
X86060D01*
Y423057D01*
X85917D01*
Y422913D01*
X85773D01*
Y422770D01*
X85630D01*
Y422627D01*
X85487D01*
Y422340D01*
X85343D01*
Y422197D01*
X85200D01*
Y422053D01*
X85057D01*
Y421910D01*
X84913D01*
Y421480D01*
X84770D01*
Y421050D01*
X84913D01*
Y418900D01*
X84770D01*
Y418183D01*
X84913D01*
Y417753D01*
X85057D01*
Y417467D01*
X85200D01*
Y417323D01*
X85630D01*
Y417467D01*
X85773D01*
Y417610D01*
X86060D01*
Y417897D01*
X86203D01*
Y418040D01*
X86347D01*
Y418470D01*
X86490D01*
Y419187D01*
X86347D01*
Y419617D01*
X86203D01*
Y419903D01*
X86060D01*
Y420190D01*
X85917D01*
Y420620D01*
X85773D01*
Y421480D01*
X85917D01*
Y421910D01*
X86060D01*
Y422197D01*
X86203D01*
Y422483D01*
X86347D01*
Y422627D01*
X86490D01*
Y422913D01*
X86633D01*
Y423057D01*
X86777D01*
Y423200D01*
X86920D01*
Y423057D01*
X87207D01*
Y422913D01*
X87350D01*
Y422770D01*
X87063D01*
Y422627D01*
X86920D01*
Y422483D01*
X86777D01*
Y422340D01*
X86633D01*
Y422053D01*
X86490D01*
Y421767D01*
X86347D01*
Y421193D01*
X86203D01*
Y420620D01*
X86347D01*
Y419903D01*
X86490D01*
Y419617D01*
X86633D01*
Y419330D01*
X86777D01*
Y419187D01*
X87207D01*
Y419473D01*
X87350D01*
Y420620D01*
X87207D01*
Y421337D01*
X87063D01*
Y421767D01*
X87207D01*
Y421910D01*
X87350D01*
Y422053D01*
X87493D01*
Y422197D01*
X87637D01*
Y422627D01*
X87923D01*
Y422483D01*
X88067D01*
Y422340D01*
X87923D01*
Y422197D01*
X87780D01*
Y422053D01*
X87637D01*
Y420477D01*
X87780D01*
Y420333D01*
X87923D01*
Y420190D01*
X88210D01*
Y420333D01*
X88353D01*
Y420477D01*
X88497D01*
Y421050D01*
X88353D01*
Y421337D01*
X88210D01*
Y421480D01*
X88353D01*
Y421767D01*
X88497D01*
Y422197D01*
X88640D01*
Y422053D01*
X88927D01*
Y421910D01*
X89213D01*
Y421767D01*
X89357D01*
Y421623D01*
X89643D01*
Y421480D01*
X89787D01*
Y421337D01*
X89643D01*
Y421050D01*
X89500D01*
Y420907D01*
X89357D01*
Y420763D01*
X89213D01*
Y420620D01*
X89070D01*
Y420477D01*
X88927D01*
Y420333D01*
X88783D01*
Y420190D01*
X88640D01*
Y420047D01*
X88497D01*
Y419903D01*
X88353D01*
Y419760D01*
X88210D01*
Y419617D01*
X88067D01*
Y419473D01*
X87923D01*
Y419330D01*
X87780D01*
Y419043D01*
X87637D01*
Y418900D01*
X87493D01*
Y418757D01*
X87350D01*
Y418613D01*
X87207D01*
Y418327D01*
X87063D01*
Y418183D01*
X86920D01*
Y417897D01*
X86777D01*
Y417467D01*
X86633D01*
Y416177D01*
X86490D01*
Y414743D01*
X86777D01*
Y414887D01*
X86920D01*
Y415173D01*
X87063D01*
Y415460D01*
X87207D01*
Y415603D01*
X87350D01*
Y415890D01*
X87493D01*
Y416033D01*
X87637D01*
Y416177D01*
X87780D01*
Y416320D01*
X87923D01*
Y416463D01*
X88067D01*
Y416607D01*
X88497D01*
Y416750D01*
X88927D01*
Y416607D01*
X89357D01*
Y416463D01*
X89500D01*
Y416320D01*
X89643D01*
Y416177D01*
X89787D01*
Y415890D01*
X90217D01*
Y416033D01*
X90360D01*
Y416177D01*
X90503D01*
Y416320D01*
X90647D01*
Y416463D01*
X90790D01*
Y416607D01*
X90933D01*
Y416893D01*
X91077D01*
Y417037D01*
X91220D01*
Y417180D01*
X91363D01*
Y417323D01*
X91507D01*
Y417467D01*
X91650D01*
Y417610D01*
X91793D01*
Y417753D01*
X91937D01*
Y417897D01*
X92080D01*
Y418040D01*
X92223D01*
Y418183D01*
X92367D01*
Y418327D01*
X92510D01*
Y418470D01*
X92653D01*
Y418613D01*
X92797D01*
Y418757D01*
X92940D01*
Y418900D01*
X93083D01*
Y419043D01*
X93227D01*
Y419187D01*
X93370D01*
Y419330D01*
X93657D01*
Y419187D01*
X93800D01*
Y419043D01*
X94087D01*
Y418900D01*
X94373D01*
Y418757D01*
X94660D01*
Y418613D01*
X94803D01*
Y418470D01*
X95090D01*
Y418327D01*
X95377D01*
Y418183D01*
X95663D01*
Y418040D01*
X95807D01*
Y417897D01*
X96093D01*
Y417753D01*
X96380D01*
Y417610D01*
X96667D01*
Y417467D01*
X96810D01*
Y417323D01*
X97097D01*
Y417180D01*
X97383D01*
Y417037D01*
X97527D01*
Y416893D01*
X97813D01*
Y416750D01*
X98100D01*
Y416607D01*
X98387D01*
Y416463D01*
X98530D01*
Y416320D01*
X98817D01*
Y416177D01*
X99103D01*
Y416033D01*
X99390D01*
Y415890D01*
X99533D01*
Y415747D01*
X99820D01*
Y415603D01*
X100107D01*
Y415460D01*
X100393D01*
Y415317D01*
X100537D01*
Y415173D01*
X100823D01*
Y415030D01*
X101110D01*
Y414887D01*
X101253D01*
Y414743D01*
X101540D01*
Y414600D01*
X101827D01*
Y414457D01*
X102113D01*
Y414313D01*
X102257D01*
Y414170D01*
X102543D01*
Y414027D01*
X102830D01*
Y413883D01*
X103117D01*
Y413740D01*
X103260D01*
Y413597D01*
X103547D01*
Y413453D01*
X103833D01*
Y413310D01*
X103977D01*
Y413167D01*
X104263D01*
Y413023D01*
X104550D01*
Y412880D01*
X104837D01*
Y412737D01*
X104980D01*
Y412593D01*
X105267D01*
Y412450D01*
X105553D01*
Y412307D01*
X105840D01*
Y412163D01*
X105983D01*
Y412020D01*
X106270D01*
Y411877D01*
X106557D01*
Y411733D01*
X106843D01*
Y411590D01*
X106987D01*
Y411447D01*
X107273D01*
Y411303D01*
X71727D01*
Y411590D01*
X71870D01*
Y411733D01*
X72013D01*
Y412020D01*
X72157D01*
Y412307D01*
X72300D01*
Y412450D01*
X72443D01*
Y412737D01*
X72587D01*
Y413023D01*
X72730D01*
Y413310D01*
X72873D01*
Y413453D01*
X73017D01*
Y413740D01*
X73160D01*
Y414027D01*
X73303D01*
Y414313D01*
X73447D01*
Y414457D01*
X73590D01*
Y414743D01*
X73733D01*
Y415030D01*
X73877D01*
Y415317D01*
X74020D01*
Y415460D01*
X74163D01*
Y415747D01*
X74307D01*
Y416033D01*
X74450D01*
Y416177D01*
X74593D01*
Y416463D01*
X74737D01*
Y416750D01*
X74880D01*
Y417037D01*
X75023D01*
Y417180D01*
X75167D01*
Y417467D01*
X75310D01*
Y417753D01*
X75453D01*
Y418040D01*
X75597D01*
Y418183D01*
X75740D01*
Y418470D01*
X75883D01*
Y418757D01*
X76027D01*
Y419043D01*
X76170D01*
Y419187D01*
X76313D01*
Y419473D01*
X76457D01*
Y419760D01*
X76600D01*
Y419903D01*
X76743D01*
Y420190D01*
X76887D01*
Y420477D01*
X77030D01*
Y420763D01*
X77173D01*
Y420907D01*
X77317D01*
Y421193D01*
X77460D01*
Y421480D01*
X77603D01*
Y421767D01*
X77747D01*
Y421910D01*
X77890D01*
Y422197D01*
X78033D01*
Y422483D01*
X78177D01*
Y422770D01*
X78320D01*
Y422913D01*
X78463D01*
Y423200D01*
X78607D01*
Y423487D01*
X78750D01*
Y423630D01*
X78893D01*
Y423917D01*
X79037D01*
Y424203D01*
X79180D01*
Y424490D01*
X79323D01*
Y424633D01*
X79467D01*
Y424920D01*
X79610D01*
Y425207D01*
X79753D01*
Y425493D01*
X79897D01*
Y425637D01*
X80040D01*
Y425923D01*
X80183D01*
Y426210D01*
X80327D01*
Y426497D01*
X80470D01*
Y426640D01*
X80613D01*
Y426783D01*
X80757D01*
Y426640D01*
D02*
G37*
G36*
X164000Y375500D02*
X159000D01*
Y377000D01*
X162000Y380000D01*
X164000D01*
Y375500D01*
D02*
G37*
G36*
X245000Y315005D02*
X244239Y313168D01*
X242832Y311761D01*
X240994Y311000D01*
X240000D01*
X243000Y316000D01*
X245000D01*
Y315005D01*
D02*
G37*
G36*
X41853Y122859D02*
X41931D01*
X42020Y122848D01*
X42220Y122803D01*
X42442Y122748D01*
X42686Y122659D01*
X42930Y122537D01*
X43041Y122459D01*
X43152Y122370D01*
X43163D01*
X43174Y122348D01*
X43208Y122315D01*
X43241Y122282D01*
X43296Y122226D01*
X43341Y122170D01*
X43463Y122015D01*
X43585Y121804D01*
X43707Y121560D01*
X43818Y121283D01*
X43896Y120949D01*
X42475Y120794D01*
Y120816D01*
X42464Y120861D01*
X42442Y120938D01*
X42420Y121038D01*
X42386Y121138D01*
X42331Y121249D01*
X42275Y121349D01*
X42198Y121438D01*
X42186Y121449D01*
X42153Y121471D01*
X42109Y121504D01*
X42042Y121549D01*
X41965Y121582D01*
X41865Y121615D01*
X41743Y121638D01*
X41620Y121649D01*
X41598D01*
X41543Y121638D01*
X41454Y121627D01*
X41343Y121593D01*
X41221Y121549D01*
X41088Y121471D01*
X40954Y121371D01*
X40832Y121227D01*
X40821Y121205D01*
X40799Y121183D01*
X40777Y121138D01*
X40755Y121094D01*
X40721Y121027D01*
X40699Y120949D01*
X40666Y120850D01*
X40621Y120739D01*
X40588Y120617D01*
X40555Y120472D01*
X40521Y120317D01*
X40488Y120139D01*
X40466Y119939D01*
X40444Y119717D01*
X40422Y119484D01*
X40433Y119495D01*
X40444Y119518D01*
X40477Y119540D01*
X40521Y119584D01*
X40577Y119640D01*
X40644Y119695D01*
X40799Y119817D01*
X40999Y119928D01*
X41232Y120039D01*
X41365Y120084D01*
X41498Y120106D01*
X41643Y120128D01*
X41798Y120139D01*
X41887D01*
X41953Y120128D01*
X42031Y120117D01*
X42120Y120106D01*
X42231Y120084D01*
X42342Y120050D01*
X42586Y119962D01*
X42719Y119906D01*
X42852Y119839D01*
X42986Y119762D01*
X43119Y119662D01*
X43252Y119551D01*
X43374Y119429D01*
X43385Y119418D01*
X43407Y119396D01*
X43441Y119362D01*
X43474Y119307D01*
X43530Y119229D01*
X43585Y119151D01*
X43640Y119051D01*
X43707Y118940D01*
X43774Y118818D01*
X43829Y118674D01*
X43885Y118530D01*
X43940Y118363D01*
X43973Y118197D01*
X44007Y118008D01*
X44029Y117819D01*
X44040Y117608D01*
Y117597D01*
Y117553D01*
Y117498D01*
X44029Y117409D01*
X44018Y117309D01*
X44007Y117198D01*
X43985Y117065D01*
X43951Y116931D01*
X43874Y116621D01*
X43818Y116465D01*
X43740Y116310D01*
X43663Y116154D01*
X43574Y115999D01*
X43463Y115844D01*
X43341Y115710D01*
X43330Y115699D01*
X43307Y115677D01*
X43274Y115644D01*
X43219Y115599D01*
X43152Y115544D01*
X43063Y115488D01*
X42975Y115422D01*
X42863Y115355D01*
X42741Y115289D01*
X42608Y115222D01*
X42464Y115167D01*
X42298Y115111D01*
X42131Y115067D01*
X41953Y115033D01*
X41765Y115011D01*
X41565Y115000D01*
X41509D01*
X41454Y115011D01*
X41376D01*
X41276Y115033D01*
X41154Y115044D01*
X41032Y115078D01*
X40888Y115111D01*
X40743Y115155D01*
X40588Y115222D01*
X40422Y115289D01*
X40266Y115377D01*
X40100Y115477D01*
X39944Y115599D01*
X39789Y115744D01*
X39645Y115899D01*
X39634Y115910D01*
X39611Y115943D01*
X39578Y115999D01*
X39534Y116077D01*
X39467Y116177D01*
X39411Y116299D01*
X39345Y116443D01*
X39278Y116609D01*
X39201Y116809D01*
X39134Y117020D01*
X39079Y117264D01*
X39023Y117542D01*
X38967Y117830D01*
X38934Y118152D01*
X38912Y118496D01*
X38901Y118874D01*
Y118885D01*
Y118896D01*
Y118929D01*
Y118963D01*
Y119074D01*
X38912Y119218D01*
X38923Y119396D01*
X38945Y119595D01*
X38967Y119817D01*
X39001Y120050D01*
X39034Y120295D01*
X39090Y120550D01*
X39156Y120805D01*
X39234Y121060D01*
X39323Y121294D01*
X39423Y121527D01*
X39545Y121738D01*
X39678Y121926D01*
X39689Y121937D01*
X39711Y121971D01*
X39756Y122015D01*
X39822Y122071D01*
X39900Y122148D01*
X39989Y122226D01*
X40100Y122315D01*
X40222Y122404D01*
X40366Y122481D01*
X40510Y122570D01*
X40688Y122648D01*
X40866Y122725D01*
X41054Y122781D01*
X41265Y122825D01*
X41476Y122859D01*
X41709Y122870D01*
X41798D01*
X41853Y122859D01*
D02*
G37*
G36*
X70624Y121349D02*
X67838D01*
X67605Y120039D01*
X67616D01*
X67627Y120050D01*
X67694Y120084D01*
X67794Y120117D01*
X67916Y120173D01*
X68071Y120217D01*
X68238Y120250D01*
X68426Y120283D01*
X68615Y120295D01*
X68715D01*
X68782Y120283D01*
X68859Y120272D01*
X68959Y120261D01*
X69070Y120239D01*
X69192Y120206D01*
X69448Y120117D01*
X69592Y120062D01*
X69725Y119995D01*
X69869Y119906D01*
X70014Y119806D01*
X70147Y119695D01*
X70280Y119573D01*
X70291Y119562D01*
X70313Y119540D01*
X70347Y119495D01*
X70391Y119440D01*
X70435Y119373D01*
X70502Y119284D01*
X70557Y119185D01*
X70624Y119074D01*
X70691Y118952D01*
X70746Y118807D01*
X70813Y118652D01*
X70857Y118496D01*
X70902Y118319D01*
X70935Y118130D01*
X70957Y117930D01*
X70968Y117719D01*
Y117708D01*
Y117675D01*
Y117631D01*
X70957Y117564D01*
Y117475D01*
X70935Y117375D01*
X70924Y117264D01*
X70902Y117153D01*
X70835Y116887D01*
X70735Y116598D01*
X70669Y116443D01*
X70602Y116299D01*
X70513Y116154D01*
X70413Y116010D01*
X70402Y115999D01*
X70380Y115966D01*
X70335Y115921D01*
X70280Y115855D01*
X70202Y115777D01*
X70103Y115688D01*
X69991Y115599D01*
X69869Y115511D01*
X69725Y115411D01*
X69570Y115322D01*
X69403Y115233D01*
X69215Y115155D01*
X69015Y115089D01*
X68804Y115044D01*
X68571Y115011D01*
X68327Y115000D01*
X68227D01*
X68149Y115011D01*
X68060Y115022D01*
X67949Y115033D01*
X67838Y115044D01*
X67705Y115067D01*
X67439Y115133D01*
X67139Y115244D01*
X66995Y115300D01*
X66850Y115377D01*
X66717Y115466D01*
X66584Y115566D01*
X66573Y115577D01*
X66550Y115588D01*
X66517Y115622D01*
X66473Y115666D01*
X66428Y115733D01*
X66362Y115799D01*
X66306Y115877D01*
X66240Y115966D01*
X66162Y116077D01*
X66095Y116188D01*
X65973Y116454D01*
X65862Y116754D01*
X65829Y116920D01*
X65796Y117098D01*
X67261Y117253D01*
Y117231D01*
X67272Y117176D01*
X67294Y117076D01*
X67327Y116965D01*
X67372Y116843D01*
X67439Y116709D01*
X67527Y116587D01*
X67627Y116465D01*
X67638Y116454D01*
X67683Y116421D01*
X67749Y116376D01*
X67838Y116321D01*
X67938Y116265D01*
X68060Y116221D01*
X68204Y116188D01*
X68349Y116177D01*
X68371D01*
X68426Y116188D01*
X68515Y116199D01*
X68626Y116221D01*
X68748Y116265D01*
X68882Y116332D01*
X69015Y116432D01*
X69137Y116554D01*
X69148Y116576D01*
X69192Y116621D01*
X69237Y116709D01*
X69303Y116843D01*
X69359Y116998D01*
X69414Y117187D01*
X69448Y117420D01*
X69459Y117686D01*
Y117697D01*
Y117719D01*
Y117753D01*
Y117808D01*
X69448Y117930D01*
X69414Y118086D01*
X69381Y118263D01*
X69325Y118441D01*
X69248Y118607D01*
X69137Y118752D01*
X69126Y118763D01*
X69081Y118807D01*
X69004Y118863D01*
X68915Y118940D01*
X68793Y119007D01*
X68648Y119062D01*
X68482Y119107D01*
X68304Y119118D01*
X68238D01*
X68193Y119107D01*
X68082Y119085D01*
X67927Y119051D01*
X67749Y118985D01*
X67561Y118885D01*
X67461Y118818D01*
X67361Y118741D01*
X67261Y118652D01*
X67161Y118552D01*
X65973Y118718D01*
X66728Y122725D01*
X70624D01*
Y121349D01*
D02*
G37*
G36*
X62521Y122859D02*
X62621Y122848D01*
X62732Y122837D01*
X62854Y122814D01*
X62987Y122792D01*
X63276Y122714D01*
X63565Y122603D01*
X63720Y122537D01*
X63853Y122459D01*
X63998Y122359D01*
X64120Y122248D01*
X64131Y122237D01*
X64153Y122226D01*
X64175Y122182D01*
X64220Y122137D01*
X64275Y122082D01*
X64331Y122004D01*
X64386Y121926D01*
X64453Y121826D01*
X64564Y121604D01*
X64675Y121349D01*
X64719Y121205D01*
X64741Y121049D01*
X64763Y120883D01*
X64774Y120716D01*
Y120694D01*
Y120628D01*
X64763Y120528D01*
X64752Y120406D01*
X64730Y120250D01*
X64697Y120084D01*
X64652Y119906D01*
X64586Y119728D01*
X64575Y119706D01*
X64553Y119651D01*
X64508Y119551D01*
X64442Y119429D01*
X64364Y119284D01*
X64264Y119118D01*
X64142Y118940D01*
X63998Y118752D01*
X63987Y118741D01*
X63942Y118685D01*
X63875Y118607D01*
X63776Y118496D01*
X63642Y118363D01*
X63476Y118186D01*
X63276Y117997D01*
X63032Y117764D01*
X63021Y117753D01*
X62999Y117742D01*
X62965Y117708D01*
X62921Y117664D01*
X62799Y117553D01*
X62655Y117420D01*
X62510Y117275D01*
X62366Y117131D01*
X62233Y117009D01*
X62188Y116954D01*
X62144Y116909D01*
X62133Y116898D01*
X62111Y116876D01*
X62077Y116832D01*
X62033Y116776D01*
X61933Y116654D01*
X61844Y116510D01*
X64774D01*
Y115144D01*
X59613D01*
Y115155D01*
Y115178D01*
X59624Y115222D01*
X59635Y115278D01*
X59646Y115344D01*
X59658Y115422D01*
X59702Y115622D01*
X59769Y115844D01*
X59857Y116088D01*
X59968Y116354D01*
X60113Y116609D01*
Y116621D01*
X60135Y116643D01*
X60157Y116687D01*
X60201Y116732D01*
X60246Y116809D01*
X60312Y116887D01*
X60390Y116987D01*
X60479Y117098D01*
X60579Y117231D01*
X60701Y117364D01*
X60834Y117520D01*
X60989Y117686D01*
X61156Y117853D01*
X61345Y118041D01*
X61544Y118241D01*
X61767Y118452D01*
X61778Y118463D01*
X61811Y118496D01*
X61855Y118541D01*
X61922Y118607D01*
X62011Y118674D01*
X62099Y118763D01*
X62299Y118963D01*
X62499Y119173D01*
X62699Y119384D01*
X62788Y119473D01*
X62877Y119573D01*
X62943Y119651D01*
X62987Y119717D01*
X62999Y119740D01*
X63032Y119795D01*
X63087Y119884D01*
X63143Y120006D01*
X63198Y120139D01*
X63254Y120295D01*
X63287Y120450D01*
X63298Y120617D01*
Y120628D01*
Y120639D01*
Y120694D01*
X63287Y120794D01*
X63265Y120905D01*
X63232Y121027D01*
X63187Y121149D01*
X63121Y121271D01*
X63032Y121382D01*
X63021Y121393D01*
X62987Y121427D01*
X62921Y121471D01*
X62843Y121516D01*
X62732Y121560D01*
X62610Y121604D01*
X62466Y121638D01*
X62299Y121649D01*
X62222D01*
X62133Y121638D01*
X62033Y121615D01*
X61911Y121582D01*
X61789Y121527D01*
X61667Y121460D01*
X61556Y121371D01*
X61544Y121360D01*
X61511Y121316D01*
X61467Y121249D01*
X61422Y121149D01*
X61367Y121027D01*
X61322Y120861D01*
X61278Y120672D01*
X61256Y120450D01*
X59791Y120594D01*
Y120605D01*
X59802Y120650D01*
Y120705D01*
X59824Y120794D01*
X59835Y120894D01*
X59868Y121005D01*
X59902Y121127D01*
X59935Y121271D01*
X60046Y121549D01*
X60179Y121838D01*
X60268Y121982D01*
X60368Y122115D01*
X60479Y122226D01*
X60601Y122337D01*
X60612Y122348D01*
X60634Y122359D01*
X60668Y122381D01*
X60723Y122426D01*
X60790Y122459D01*
X60879Y122503D01*
X60967Y122559D01*
X61078Y122603D01*
X61200Y122659D01*
X61334Y122703D01*
X61622Y122792D01*
X61966Y122848D01*
X62144Y122859D01*
X62333Y122870D01*
X62444D01*
X62521Y122859D01*
D02*
G37*
G36*
X50578D02*
X50678Y122848D01*
X50789Y122837D01*
X50911Y122814D01*
X51044Y122792D01*
X51333Y122714D01*
X51621Y122603D01*
X51777Y122537D01*
X51910Y122459D01*
X52054Y122359D01*
X52176Y122248D01*
X52187Y122237D01*
X52210Y122226D01*
X52232Y122182D01*
X52276Y122137D01*
X52332Y122082D01*
X52387Y122004D01*
X52443Y121926D01*
X52509Y121826D01*
X52620Y121604D01*
X52731Y121349D01*
X52776Y121205D01*
X52798Y121049D01*
X52820Y120883D01*
X52831Y120716D01*
Y120694D01*
Y120628D01*
X52820Y120528D01*
X52809Y120406D01*
X52787Y120250D01*
X52754Y120084D01*
X52709Y119906D01*
X52642Y119728D01*
X52631Y119706D01*
X52609Y119651D01*
X52565Y119551D01*
X52498Y119429D01*
X52421Y119284D01*
X52321Y119118D01*
X52199Y118940D01*
X52054Y118752D01*
X52043Y118741D01*
X51999Y118685D01*
X51932Y118607D01*
X51832Y118496D01*
X51699Y118363D01*
X51533Y118186D01*
X51333Y117997D01*
X51089Y117764D01*
X51077Y117753D01*
X51055Y117742D01*
X51022Y117708D01*
X50978Y117664D01*
X50855Y117553D01*
X50711Y117420D01*
X50567Y117275D01*
X50423Y117131D01*
X50289Y117009D01*
X50245Y116954D01*
X50201Y116909D01*
X50189Y116898D01*
X50167Y116876D01*
X50134Y116832D01*
X50090Y116776D01*
X49990Y116654D01*
X49901Y116510D01*
X52831D01*
Y115144D01*
X47670D01*
Y115155D01*
Y115178D01*
X47681Y115222D01*
X47692Y115278D01*
X47703Y115344D01*
X47714Y115422D01*
X47759Y115622D01*
X47825Y115844D01*
X47914Y116088D01*
X48025Y116354D01*
X48169Y116609D01*
Y116621D01*
X48191Y116643D01*
X48214Y116687D01*
X48258Y116732D01*
X48302Y116809D01*
X48369Y116887D01*
X48447Y116987D01*
X48535Y117098D01*
X48635Y117231D01*
X48758Y117364D01*
X48891Y117520D01*
X49046Y117686D01*
X49213Y117853D01*
X49401Y118041D01*
X49601Y118241D01*
X49823Y118452D01*
X49834Y118463D01*
X49868Y118496D01*
X49912Y118541D01*
X49978Y118607D01*
X50067Y118674D01*
X50156Y118763D01*
X50356Y118963D01*
X50556Y119173D01*
X50756Y119384D01*
X50844Y119473D01*
X50933Y119573D01*
X51000Y119651D01*
X51044Y119717D01*
X51055Y119740D01*
X51089Y119795D01*
X51144Y119884D01*
X51199Y120006D01*
X51255Y120139D01*
X51311Y120295D01*
X51344Y120450D01*
X51355Y120617D01*
Y120628D01*
Y120639D01*
Y120694D01*
X51344Y120794D01*
X51322Y120905D01*
X51288Y121027D01*
X51244Y121149D01*
X51177Y121271D01*
X51089Y121382D01*
X51077Y121393D01*
X51044Y121427D01*
X50978Y121471D01*
X50900Y121516D01*
X50789Y121560D01*
X50667Y121604D01*
X50522Y121638D01*
X50356Y121649D01*
X50278D01*
X50189Y121638D01*
X50090Y121615D01*
X49967Y121582D01*
X49845Y121527D01*
X49723Y121460D01*
X49612Y121371D01*
X49601Y121360D01*
X49568Y121316D01*
X49523Y121249D01*
X49479Y121149D01*
X49423Y121027D01*
X49379Y120861D01*
X49335Y120672D01*
X49313Y120450D01*
X47847Y120594D01*
Y120605D01*
X47859Y120650D01*
Y120705D01*
X47881Y120794D01*
X47892Y120894D01*
X47925Y121005D01*
X47958Y121127D01*
X47992Y121271D01*
X48103Y121549D01*
X48236Y121838D01*
X48325Y121982D01*
X48425Y122115D01*
X48535Y122226D01*
X48658Y122337D01*
X48669Y122348D01*
X48691Y122359D01*
X48724Y122381D01*
X48780Y122426D01*
X48846Y122459D01*
X48935Y122503D01*
X49024Y122559D01*
X49135Y122603D01*
X49257Y122659D01*
X49390Y122703D01*
X49679Y122792D01*
X50023Y122848D01*
X50201Y122859D01*
X50389Y122870D01*
X50500D01*
X50578Y122859D01*
D02*
G37*
G36*
X46660Y115144D02*
X45183D01*
Y116621D01*
X46660D01*
Y115144D01*
D02*
G37*
G36*
X31730D02*
X30254D01*
Y116621D01*
X31730D01*
Y115144D01*
D02*
G37*
G36*
X26691Y122859D02*
X26791Y122848D01*
X26902Y122837D01*
X27024Y122814D01*
X27157Y122792D01*
X27446Y122714D01*
X27734Y122603D01*
X27890Y122537D01*
X28023Y122459D01*
X28167Y122359D01*
X28289Y122248D01*
X28301Y122237D01*
X28323Y122226D01*
X28345Y122182D01*
X28389Y122137D01*
X28445Y122082D01*
X28500Y122004D01*
X28556Y121926D01*
X28623Y121826D01*
X28733Y121604D01*
X28844Y121349D01*
X28889Y121205D01*
X28911Y121049D01*
X28933Y120883D01*
X28944Y120716D01*
Y120694D01*
Y120628D01*
X28933Y120528D01*
X28922Y120406D01*
X28900Y120250D01*
X28867Y120084D01*
X28822Y119906D01*
X28756Y119728D01*
X28745Y119706D01*
X28722Y119651D01*
X28678Y119551D01*
X28611Y119429D01*
X28534Y119284D01*
X28434Y119118D01*
X28312Y118940D01*
X28167Y118752D01*
X28156Y118741D01*
X28112Y118685D01*
X28045Y118607D01*
X27945Y118496D01*
X27812Y118363D01*
X27646Y118186D01*
X27446Y117997D01*
X27202Y117764D01*
X27191Y117753D01*
X27168Y117742D01*
X27135Y117708D01*
X27091Y117664D01*
X26969Y117553D01*
X26824Y117420D01*
X26680Y117275D01*
X26536Y117131D01*
X26402Y117009D01*
X26358Y116954D01*
X26314Y116909D01*
X26303Y116898D01*
X26280Y116876D01*
X26247Y116832D01*
X26203Y116776D01*
X26103Y116654D01*
X26014Y116510D01*
X28944D01*
Y115144D01*
X23783D01*
Y115155D01*
Y115178D01*
X23794Y115222D01*
X23805Y115278D01*
X23816Y115344D01*
X23827Y115422D01*
X23872Y115622D01*
X23938Y115844D01*
X24027Y116088D01*
X24138Y116354D01*
X24283Y116609D01*
Y116621D01*
X24305Y116643D01*
X24327Y116687D01*
X24371Y116732D01*
X24416Y116809D01*
X24482Y116887D01*
X24560Y116987D01*
X24649Y117098D01*
X24749Y117231D01*
X24871Y117364D01*
X25004Y117520D01*
X25159Y117686D01*
X25326Y117853D01*
X25515Y118041D01*
X25714Y118241D01*
X25936Y118452D01*
X25947Y118463D01*
X25981Y118496D01*
X26025Y118541D01*
X26092Y118607D01*
X26181Y118674D01*
X26269Y118763D01*
X26469Y118963D01*
X26669Y119173D01*
X26869Y119384D01*
X26957Y119473D01*
X27046Y119573D01*
X27113Y119651D01*
X27157Y119717D01*
X27168Y119740D01*
X27202Y119795D01*
X27257Y119884D01*
X27313Y120006D01*
X27368Y120139D01*
X27424Y120295D01*
X27457Y120450D01*
X27468Y120617D01*
Y120628D01*
Y120639D01*
Y120694D01*
X27457Y120794D01*
X27435Y120905D01*
X27401Y121027D01*
X27357Y121149D01*
X27290Y121271D01*
X27202Y121382D01*
X27191Y121393D01*
X27157Y121427D01*
X27091Y121471D01*
X27013Y121516D01*
X26902Y121560D01*
X26780Y121604D01*
X26636Y121638D01*
X26469Y121649D01*
X26391D01*
X26303Y121638D01*
X26203Y121615D01*
X26081Y121582D01*
X25958Y121527D01*
X25836Y121460D01*
X25726Y121371D01*
X25714Y121360D01*
X25681Y121316D01*
X25637Y121249D01*
X25592Y121149D01*
X25537Y121027D01*
X25492Y120861D01*
X25448Y120672D01*
X25426Y120450D01*
X23961Y120594D01*
Y120605D01*
X23972Y120650D01*
Y120705D01*
X23994Y120794D01*
X24005Y120894D01*
X24038Y121005D01*
X24072Y121127D01*
X24105Y121271D01*
X24216Y121549D01*
X24349Y121838D01*
X24438Y121982D01*
X24538Y122115D01*
X24649Y122226D01*
X24771Y122337D01*
X24782Y122348D01*
X24804Y122359D01*
X24838Y122381D01*
X24893Y122426D01*
X24960Y122459D01*
X25048Y122503D01*
X25137Y122559D01*
X25248Y122603D01*
X25370Y122659D01*
X25503Y122703D01*
X25792Y122792D01*
X26136Y122848D01*
X26314Y122859D01*
X26502Y122870D01*
X26613D01*
X26691Y122859D01*
D02*
G37*
G36*
X56505D02*
X56594Y122848D01*
X56705Y122825D01*
X56816Y122803D01*
X56949Y122770D01*
X57094Y122725D01*
X57227Y122670D01*
X57371Y122614D01*
X57515Y122537D01*
X57660Y122437D01*
X57804Y122337D01*
X57937Y122215D01*
X58059Y122071D01*
X58070Y122059D01*
X58092Y122026D01*
X58126Y121971D01*
X58181Y121893D01*
X58237Y121782D01*
X58303Y121649D01*
X58370Y121504D01*
X58437Y121316D01*
X58503Y121116D01*
X58581Y120883D01*
X58636Y120628D01*
X58692Y120339D01*
X58747Y120028D01*
X58781Y119695D01*
X58803Y119329D01*
X58814Y118929D01*
Y118918D01*
Y118907D01*
Y118874D01*
Y118829D01*
Y118718D01*
X58803Y118574D01*
X58792Y118397D01*
X58770Y118186D01*
X58747Y117964D01*
X58725Y117719D01*
X58681Y117464D01*
X58625Y117198D01*
X58570Y116943D01*
X58492Y116687D01*
X58414Y116432D01*
X58303Y116199D01*
X58192Y115977D01*
X58059Y115788D01*
X58048Y115777D01*
X58026Y115755D01*
X57993Y115710D01*
X57948Y115666D01*
X57882Y115611D01*
X57804Y115544D01*
X57704Y115466D01*
X57604Y115400D01*
X57482Y115322D01*
X57360Y115244D01*
X57216Y115178D01*
X57060Y115122D01*
X56894Y115078D01*
X56705Y115033D01*
X56516Y115011D01*
X56316Y115000D01*
X56272D01*
X56206Y115011D01*
X56128D01*
X56039Y115022D01*
X55928Y115044D01*
X55806Y115067D01*
X55673Y115111D01*
X55528Y115155D01*
X55384Y115211D01*
X55229Y115278D01*
X55084Y115366D01*
X54929Y115455D01*
X54785Y115577D01*
X54640Y115699D01*
X54507Y115855D01*
X54496Y115866D01*
X54474Y115899D01*
X54441Y115955D01*
X54407Y116021D01*
X54352Y116121D01*
X54296Y116243D01*
X54230Y116399D01*
X54174Y116565D01*
X54108Y116765D01*
X54041Y116987D01*
X53986Y117242D01*
X53941Y117520D01*
X53897Y117830D01*
X53863Y118174D01*
X53841Y118541D01*
X53830Y118940D01*
Y118952D01*
Y118963D01*
Y118996D01*
Y119040D01*
Y119151D01*
X53841Y119296D01*
X53852Y119473D01*
X53875Y119684D01*
X53897Y119906D01*
X53919Y120150D01*
X53963Y120406D01*
X54008Y120661D01*
X54074Y120927D01*
X54141Y121183D01*
X54230Y121427D01*
X54330Y121660D01*
X54441Y121882D01*
X54574Y122071D01*
X54585Y122082D01*
X54607Y122104D01*
X54640Y122148D01*
X54696Y122193D01*
X54751Y122259D01*
X54829Y122326D01*
X54929Y122393D01*
X55029Y122470D01*
X55151Y122548D01*
X55273Y122614D01*
X55417Y122681D01*
X55573Y122748D01*
X55739Y122792D01*
X55928Y122837D01*
X56117Y122859D01*
X56316Y122870D01*
X56427D01*
X56505Y122859D01*
D02*
G37*
G36*
X35604D02*
X35693Y122848D01*
X35804Y122825D01*
X35915Y122803D01*
X36048Y122770D01*
X36193Y122725D01*
X36326Y122670D01*
X36470Y122614D01*
X36614Y122537D01*
X36759Y122437D01*
X36903Y122337D01*
X37036Y122215D01*
X37158Y122071D01*
X37169Y122059D01*
X37192Y122026D01*
X37225Y121971D01*
X37280Y121893D01*
X37336Y121782D01*
X37402Y121649D01*
X37469Y121504D01*
X37536Y121316D01*
X37602Y121116D01*
X37680Y120883D01*
X37735Y120628D01*
X37791Y120339D01*
X37846Y120028D01*
X37880Y119695D01*
X37902Y119329D01*
X37913Y118929D01*
Y118918D01*
Y118907D01*
Y118874D01*
Y118829D01*
Y118718D01*
X37902Y118574D01*
X37891Y118397D01*
X37869Y118186D01*
X37846Y117964D01*
X37824Y117719D01*
X37780Y117464D01*
X37724Y117198D01*
X37669Y116943D01*
X37591Y116687D01*
X37513Y116432D01*
X37402Y116199D01*
X37291Y115977D01*
X37158Y115788D01*
X37147Y115777D01*
X37125Y115755D01*
X37092Y115710D01*
X37047Y115666D01*
X36981Y115611D01*
X36903Y115544D01*
X36803Y115466D01*
X36703Y115400D01*
X36581Y115322D01*
X36459Y115244D01*
X36315Y115178D01*
X36159Y115122D01*
X35993Y115078D01*
X35804Y115033D01*
X35615Y115011D01*
X35416Y115000D01*
X35371D01*
X35305Y115011D01*
X35227D01*
X35138Y115022D01*
X35027Y115044D01*
X34905Y115067D01*
X34772Y115111D01*
X34627Y115155D01*
X34483Y115211D01*
X34328Y115278D01*
X34183Y115366D01*
X34028Y115455D01*
X33884Y115577D01*
X33740Y115699D01*
X33606Y115855D01*
X33595Y115866D01*
X33573Y115899D01*
X33540Y115955D01*
X33506Y116021D01*
X33451Y116121D01*
X33395Y116243D01*
X33329Y116399D01*
X33273Y116565D01*
X33207Y116765D01*
X33140Y116987D01*
X33085Y117242D01*
X33040Y117520D01*
X32996Y117830D01*
X32963Y118174D01*
X32940Y118541D01*
X32929Y118940D01*
Y118952D01*
Y118963D01*
Y118996D01*
Y119040D01*
Y119151D01*
X32940Y119296D01*
X32951Y119473D01*
X32974Y119684D01*
X32996Y119906D01*
X33018Y120150D01*
X33062Y120406D01*
X33107Y120661D01*
X33173Y120927D01*
X33240Y121183D01*
X33329Y121427D01*
X33429Y121660D01*
X33540Y121882D01*
X33673Y122071D01*
X33684Y122082D01*
X33706Y122104D01*
X33740Y122148D01*
X33795Y122193D01*
X33851Y122259D01*
X33928Y122326D01*
X34028Y122393D01*
X34128Y122470D01*
X34250Y122548D01*
X34372Y122614D01*
X34516Y122681D01*
X34672Y122748D01*
X34838Y122792D01*
X35027Y122837D01*
X35216Y122859D01*
X35416Y122870D01*
X35527D01*
X35604Y122859D01*
D02*
G37*
G36*
X20675D02*
X20764Y122848D01*
X20875Y122825D01*
X20986Y122803D01*
X21119Y122770D01*
X21263Y122725D01*
X21397Y122670D01*
X21541Y122614D01*
X21685Y122537D01*
X21829Y122437D01*
X21974Y122337D01*
X22107Y122215D01*
X22229Y122071D01*
X22240Y122059D01*
X22262Y122026D01*
X22296Y121971D01*
X22351Y121893D01*
X22407Y121782D01*
X22473Y121649D01*
X22540Y121504D01*
X22606Y121316D01*
X22673Y121116D01*
X22751Y120883D01*
X22806Y120628D01*
X22862Y120339D01*
X22917Y120028D01*
X22950Y119695D01*
X22973Y119329D01*
X22984Y118929D01*
Y118918D01*
Y118907D01*
Y118874D01*
Y118829D01*
Y118718D01*
X22973Y118574D01*
X22962Y118397D01*
X22939Y118186D01*
X22917Y117964D01*
X22895Y117719D01*
X22851Y117464D01*
X22795Y117198D01*
X22740Y116943D01*
X22662Y116687D01*
X22584Y116432D01*
X22473Y116199D01*
X22362Y115977D01*
X22229Y115788D01*
X22218Y115777D01*
X22196Y115755D01*
X22162Y115710D01*
X22118Y115666D01*
X22051Y115611D01*
X21974Y115544D01*
X21874Y115466D01*
X21774Y115400D01*
X21652Y115322D01*
X21530Y115244D01*
X21385Y115178D01*
X21230Y115122D01*
X21063Y115078D01*
X20875Y115033D01*
X20686Y115011D01*
X20486Y115000D01*
X20442D01*
X20375Y115011D01*
X20298D01*
X20209Y115022D01*
X20098Y115044D01*
X19976Y115067D01*
X19843Y115111D01*
X19698Y115155D01*
X19554Y115211D01*
X19399Y115278D01*
X19254Y115366D01*
X19099Y115455D01*
X18955Y115577D01*
X18810Y115699D01*
X18677Y115855D01*
X18666Y115866D01*
X18644Y115899D01*
X18611Y115955D01*
X18577Y116021D01*
X18522Y116121D01*
X18466Y116243D01*
X18400Y116399D01*
X18344Y116565D01*
X18277Y116765D01*
X18211Y116987D01*
X18155Y117242D01*
X18111Y117520D01*
X18067Y117830D01*
X18033Y118174D01*
X18011Y118541D01*
X18000Y118940D01*
Y118952D01*
Y118963D01*
Y118996D01*
Y119040D01*
Y119151D01*
X18011Y119296D01*
X18022Y119473D01*
X18044Y119684D01*
X18067Y119906D01*
X18089Y120150D01*
X18133Y120406D01*
X18178Y120661D01*
X18244Y120927D01*
X18311Y121183D01*
X18400Y121427D01*
X18499Y121660D01*
X18611Y121882D01*
X18744Y122071D01*
X18755Y122082D01*
X18777Y122104D01*
X18810Y122148D01*
X18866Y122193D01*
X18921Y122259D01*
X18999Y122326D01*
X19099Y122393D01*
X19199Y122470D01*
X19321Y122548D01*
X19443Y122614D01*
X19587Y122681D01*
X19743Y122748D01*
X19909Y122792D01*
X20098Y122837D01*
X20287Y122859D01*
X20486Y122870D01*
X20597D01*
X20675Y122859D01*
D02*
G37*
G36*
X24327Y136671D02*
X24382D01*
X24521Y136615D01*
X24590Y136587D01*
X24674Y136532D01*
X24688Y136518D01*
X24701Y136504D01*
X24729Y136463D01*
X24771Y136407D01*
X24840Y136269D01*
X24854Y136199D01*
X24868Y136102D01*
X24826Y135922D01*
X22996Y130402D01*
Y130388D01*
X22982Y130374D01*
X22940Y130291D01*
X22885Y130180D01*
X22788Y130056D01*
X22774Y130042D01*
X22704Y130014D01*
X22607Y129972D01*
X22455Y129917D01*
X22441D01*
X22385Y129931D01*
X22316Y129944D01*
X22233Y129972D01*
X22136Y130042D01*
X22039Y130125D01*
X21955Y130236D01*
X21872Y130402D01*
X20028Y135922D01*
X20000Y136088D01*
Y136102D01*
Y136130D01*
X20014Y136171D01*
X20028Y136227D01*
X20069Y136352D01*
X20111Y136421D01*
X20166Y136490D01*
X20180Y136504D01*
X20194Y136518D01*
X20236Y136546D01*
X20291Y136587D01*
X20430Y136657D01*
X20513Y136671D01*
X20596Y136685D01*
X20624D01*
X20707Y136671D01*
X20804Y136657D01*
X20902Y136601D01*
X20929Y136587D01*
X20985Y136546D01*
X21026Y136504D01*
X21068Y136449D01*
X21109Y136366D01*
X21151Y136282D01*
X22427Y132177D01*
X23703Y136282D01*
Y136296D01*
X23717Y136310D01*
X23758Y136379D01*
X23828Y136476D01*
X23925Y136560D01*
X23939D01*
X23953Y136574D01*
X24022Y136629D01*
X24133Y136671D01*
X24258Y136685D01*
X24285D01*
X24327Y136671D01*
D02*
G37*
G36*
X46294Y139431D02*
X46364D01*
X46447Y139417D01*
X46655Y139361D01*
X46891Y139292D01*
X47154Y139181D01*
X47404Y139015D01*
X47529Y138917D01*
X47654Y138806D01*
X47667D01*
X47681Y138779D01*
X47751Y138695D01*
X47862Y138557D01*
X47986Y138390D01*
X48097Y138168D01*
X48208Y137905D01*
X48278Y137614D01*
X48305Y137461D01*
Y137295D01*
Y132150D01*
Y132136D01*
Y132108D01*
Y132066D01*
X48292Y131997D01*
Y131928D01*
X48278Y131845D01*
X48222Y131636D01*
X48153Y131401D01*
X48042Y131137D01*
X47875Y130888D01*
X47778Y130763D01*
X47667Y130638D01*
X47640Y130610D01*
X47557Y130541D01*
X47418Y130430D01*
X47238Y130319D01*
X47016Y130208D01*
X46766Y130097D01*
X46461Y130028D01*
X46308Y130014D01*
X46142Y130000D01*
X45504D01*
X45435Y130014D01*
X45365D01*
X45282Y130028D01*
X45074Y130083D01*
X44838Y130153D01*
X44575Y130264D01*
X44325Y130416D01*
X44200Y130499D01*
X44076Y130610D01*
Y130624D01*
X44048Y130638D01*
X43979Y130721D01*
X43868Y130860D01*
X43757Y131040D01*
X43646Y131262D01*
X43535Y131525D01*
X43465Y131817D01*
X43451Y131983D01*
X43438Y132150D01*
Y137295D01*
Y137309D01*
Y137336D01*
Y137378D01*
X43451Y137434D01*
X43465Y137600D01*
X43521Y137794D01*
X43590Y138030D01*
X43701Y138279D01*
X43854Y138543D01*
X43951Y138668D01*
X44062Y138793D01*
X44076Y138806D01*
X44089Y138820D01*
X44173Y138890D01*
X44311Y139001D01*
X44492Y139125D01*
X44714Y139236D01*
X44963Y139347D01*
X45268Y139417D01*
X45421Y139444D01*
X46225D01*
X46294Y139431D01*
D02*
G37*
G36*
X41343Y131151D02*
X41468Y131110D01*
X41538Y131054D01*
X41607Y130998D01*
X41621Y130985D01*
X41635Y130971D01*
X41718Y130888D01*
X41787Y130763D01*
X41801Y130680D01*
X41815Y130596D01*
Y130583D01*
Y130555D01*
X41801Y130513D01*
X41787Y130458D01*
X41746Y130333D01*
X41690Y130250D01*
X41635Y130180D01*
X41621Y130166D01*
X41607Y130153D01*
X41524Y130097D01*
X41385Y130028D01*
X41302Y130014D01*
X41219Y130000D01*
X41177D01*
X41122Y130014D01*
X41066Y130028D01*
X40927Y130069D01*
X40858Y130111D01*
X40789Y130166D01*
Y130180D01*
X40761Y130194D01*
X40733Y130236D01*
X40705Y130291D01*
X40650Y130430D01*
X40636Y130513D01*
X40622Y130596D01*
Y130610D01*
Y130638D01*
X40636Y130680D01*
X40650Y130735D01*
X40692Y130860D01*
X40733Y130929D01*
X40789Y130998D01*
X40803Y131012D01*
X40816Y131026D01*
X40858Y131054D01*
X40900Y131096D01*
X41038Y131151D01*
X41122Y131165D01*
X41219Y131179D01*
X41246D01*
X41343Y131151D01*
D02*
G37*
G36*
X36920Y139431D02*
X36989D01*
X37072Y139417D01*
X37280Y139361D01*
X37516Y139292D01*
X37779Y139181D01*
X38029Y139015D01*
X38154Y138917D01*
X38279Y138806D01*
X38292D01*
X38306Y138779D01*
X38376Y138695D01*
X38487Y138557D01*
X38611Y138390D01*
X38722Y138168D01*
X38833Y137905D01*
X38903Y137614D01*
X38930Y137461D01*
Y137295D01*
Y132150D01*
Y132136D01*
Y132108D01*
Y132066D01*
X38916Y131997D01*
Y131928D01*
X38903Y131845D01*
X38847Y131636D01*
X38778Y131401D01*
X38667Y131137D01*
X38500Y130888D01*
X38403Y130763D01*
X38292Y130638D01*
X38265Y130610D01*
X38182Y130541D01*
X38043Y130430D01*
X37863Y130319D01*
X37641Y130208D01*
X37391Y130097D01*
X37086Y130028D01*
X36933Y130014D01*
X36767Y130000D01*
X36129D01*
X36060Y130014D01*
X35990D01*
X35907Y130028D01*
X35699Y130083D01*
X35463Y130153D01*
X35200Y130264D01*
X34950Y130416D01*
X34825Y130499D01*
X34701Y130610D01*
Y130624D01*
X34673Y130638D01*
X34603Y130721D01*
X34492Y130860D01*
X34381Y131040D01*
X34271Y131262D01*
X34160Y131525D01*
X34090Y131817D01*
X34076Y131983D01*
X34063Y132150D01*
Y137295D01*
Y137309D01*
Y137336D01*
Y137378D01*
X34076Y137434D01*
X34090Y137600D01*
X34146Y137794D01*
X34215Y138030D01*
X34326Y138279D01*
X34479Y138543D01*
X34576Y138668D01*
X34687Y138793D01*
X34701Y138806D01*
X34714Y138820D01*
X34798Y138890D01*
X34936Y139001D01*
X35117Y139125D01*
X35338Y139236D01*
X35588Y139347D01*
X35893Y139417D01*
X36046Y139444D01*
X36850D01*
X36920Y139431D01*
D02*
G37*
G36*
X31968Y131151D02*
X32093Y131110D01*
X32163Y131054D01*
X32232Y130998D01*
X32246Y130985D01*
X32260Y130971D01*
X32343Y130888D01*
X32412Y130763D01*
X32426Y130680D01*
X32440Y130596D01*
Y130583D01*
Y130555D01*
X32426Y130513D01*
X32412Y130458D01*
X32371Y130333D01*
X32315Y130250D01*
X32260Y130180D01*
X32246Y130166D01*
X32232Y130153D01*
X32149Y130097D01*
X32010Y130028D01*
X31927Y130014D01*
X31844Y130000D01*
X31802D01*
X31746Y130014D01*
X31691Y130028D01*
X31552Y130069D01*
X31483Y130111D01*
X31414Y130166D01*
Y130180D01*
X31386Y130194D01*
X31358Y130236D01*
X31330Y130291D01*
X31275Y130430D01*
X31261Y130513D01*
X31247Y130596D01*
Y130610D01*
Y130638D01*
X31261Y130680D01*
X31275Y130735D01*
X31317Y130860D01*
X31358Y130929D01*
X31414Y130998D01*
X31428Y131012D01*
X31441Y131026D01*
X31483Y131054D01*
X31525Y131096D01*
X31663Y131151D01*
X31746Y131165D01*
X31844Y131179D01*
X31871D01*
X31968Y131151D01*
D02*
G37*
G36*
X29195Y139486D02*
X29306Y139444D01*
X29375Y139389D01*
X29444Y139333D01*
X29458Y139320D01*
X29472Y139306D01*
X29500Y139264D01*
X29528Y139209D01*
X29569Y139056D01*
X29597Y138959D01*
Y138862D01*
Y130596D01*
Y130583D01*
Y130555D01*
X29583Y130499D01*
Y130444D01*
X29528Y130291D01*
X29486Y130222D01*
X29430Y130153D01*
X29417D01*
X29403Y130125D01*
X29361Y130111D01*
X29306Y130083D01*
X29167Y130028D01*
X29098Y130014D01*
X29001Y130000D01*
X28959D01*
X28917Y130014D01*
X28848D01*
X28709Y130056D01*
X28571Y130139D01*
Y130153D01*
X28543Y130166D01*
X28515Y130208D01*
X28488Y130250D01*
X28460Y130319D01*
X28432Y130402D01*
X28418Y130485D01*
X28404Y130596D01*
Y137614D01*
X27572Y136587D01*
X27558D01*
X27544Y136560D01*
X27503Y136532D01*
X27447Y136504D01*
X27322Y136449D01*
X27239Y136435D01*
X27156Y136421D01*
X27115D01*
X27073Y136435D01*
X27017Y136449D01*
X26893Y136490D01*
X26809Y136532D01*
X26740Y136587D01*
X26726Y136601D01*
X26712Y136615D01*
X26685Y136657D01*
X26657Y136712D01*
X26588Y136851D01*
X26574Y136934D01*
X26560Y137017D01*
Y137031D01*
Y137059D01*
X26574Y137101D01*
X26588Y137142D01*
X26629Y137281D01*
X26671Y137350D01*
X26726Y137420D01*
X28571Y139264D01*
X28585Y139278D01*
X28640Y139320D01*
X28709Y139375D01*
X28793Y139431D01*
X28820Y139444D01*
X28876Y139472D01*
X28973Y139500D01*
X29084Y139514D01*
X29111D01*
X29195Y139486D01*
D02*
G37*
G36*
X354390Y430458D02*
X354446Y430444D01*
X354570Y430389D01*
X354640Y430347D01*
X354709Y430278D01*
X354723Y430264D01*
X354737Y430250D01*
X354765Y430209D01*
X354792Y430153D01*
X354834Y430001D01*
X354862Y429903D01*
Y429806D01*
Y421596D01*
Y421582D01*
Y421555D01*
X354848Y421499D01*
Y421444D01*
X354792Y421291D01*
X354751Y421222D01*
X354695Y421152D01*
X354681D01*
X354668Y421125D01*
X354626Y421111D01*
X354570Y421083D01*
X354432Y421028D01*
X354362Y421014D01*
X354265Y421000D01*
X354224D01*
X354196Y421014D01*
X354141D01*
X354002Y421055D01*
X353863Y421139D01*
X353849Y421152D01*
X353835Y421166D01*
X353808Y421208D01*
X353766Y421250D01*
X353724Y421319D01*
X353697Y421402D01*
X353683Y421485D01*
X353669Y421596D01*
Y428004D01*
X352046Y425008D01*
X352033Y424994D01*
X352005Y424939D01*
X351949Y424855D01*
X351894Y424772D01*
X351811Y424689D01*
X351713Y424606D01*
X351616Y424550D01*
X351506Y424536D01*
X351464D01*
X351408Y424550D01*
X351339Y424578D01*
X351256Y424620D01*
X351173Y424689D01*
X351089Y424772D01*
X350992Y424883D01*
X349342Y428004D01*
Y421596D01*
Y421582D01*
Y421555D01*
X349328Y421499D01*
Y421444D01*
X349273Y421291D01*
X349231Y421222D01*
X349176Y421152D01*
X349162D01*
X349148Y421125D01*
X349106Y421111D01*
X349051Y421083D01*
X348912Y421028D01*
X348843Y421014D01*
X348746Y421000D01*
X348704D01*
X348662Y421014D01*
X348593D01*
X348454Y421055D01*
X348316Y421139D01*
Y421152D01*
X348288Y421166D01*
X348260Y421208D01*
X348232Y421250D01*
X348205Y421319D01*
X348177Y421402D01*
X348163Y421485D01*
X348149Y421596D01*
Y429806D01*
Y429820D01*
Y429862D01*
X348163Y429917D01*
X348177Y429987D01*
X348219Y430153D01*
X348260Y430223D01*
X348316Y430292D01*
X348330Y430306D01*
X348344Y430320D01*
X348427Y430389D01*
X348538Y430444D01*
X348621Y430458D01*
X348704Y430472D01*
X348732D01*
X348801Y430458D01*
X348898Y430430D01*
X348995Y430375D01*
X349023Y430361D01*
X349078Y430306D01*
X349162Y430223D01*
X349259Y430084D01*
X351506Y426256D01*
X353724Y430070D01*
X353738Y430084D01*
X353766Y430139D01*
X353808Y430195D01*
X353877Y430278D01*
X353960Y430347D01*
X354057Y430417D01*
X354168Y430458D01*
X354307Y430472D01*
X354348D01*
X354390Y430458D01*
D02*
G37*
G36*
X333241D02*
X333296Y430444D01*
X333421Y430389D01*
X333490Y430347D01*
X333560Y430278D01*
X333574Y430264D01*
X333587Y430250D01*
X333615Y430209D01*
X333643Y430153D01*
X333685Y430001D01*
X333712Y429903D01*
Y429806D01*
Y421596D01*
Y421582D01*
Y421555D01*
X333698Y421499D01*
Y421444D01*
X333643Y421291D01*
X333601Y421222D01*
X333546Y421152D01*
X333532D01*
X333518Y421125D01*
X333476Y421111D01*
X333421Y421083D01*
X333282Y421028D01*
X333213Y421014D01*
X333116Y421000D01*
X333074D01*
X333047Y421014D01*
X332991D01*
X332853Y421055D01*
X332714Y421139D01*
X332700Y421152D01*
X332686Y421166D01*
X332658Y421208D01*
X332617Y421250D01*
X332575Y421319D01*
X332547Y421402D01*
X332533Y421485D01*
X332520Y421596D01*
Y428004D01*
X330897Y425008D01*
X330883Y424994D01*
X330855Y424939D01*
X330800Y424855D01*
X330745Y424772D01*
X330661Y424689D01*
X330564Y424606D01*
X330467Y424550D01*
X330356Y424536D01*
X330315D01*
X330259Y424550D01*
X330190Y424578D01*
X330107Y424620D01*
X330023Y424689D01*
X329940Y424772D01*
X329843Y424883D01*
X328193Y428004D01*
Y421596D01*
Y421582D01*
Y421555D01*
X328179Y421499D01*
Y421444D01*
X328123Y421291D01*
X328082Y421222D01*
X328026Y421152D01*
X328012D01*
X327999Y421125D01*
X327957Y421111D01*
X327901Y421083D01*
X327763Y421028D01*
X327693Y421014D01*
X327596Y421000D01*
X327555D01*
X327513Y421014D01*
X327444D01*
X327305Y421055D01*
X327166Y421139D01*
Y421152D01*
X327139Y421166D01*
X327111Y421208D01*
X327083Y421250D01*
X327056Y421319D01*
X327028Y421402D01*
X327014Y421485D01*
X327000Y421596D01*
Y429806D01*
Y429820D01*
Y429862D01*
X327014Y429917D01*
X327028Y429987D01*
X327069Y430153D01*
X327111Y430223D01*
X327166Y430292D01*
X327180Y430306D01*
X327194Y430320D01*
X327277Y430389D01*
X327388Y430444D01*
X327472Y430458D01*
X327555Y430472D01*
X327583D01*
X327652Y430458D01*
X327749Y430430D01*
X327846Y430375D01*
X327874Y430361D01*
X327929Y430306D01*
X328012Y430223D01*
X328110Y430084D01*
X330356Y426256D01*
X332575Y430070D01*
X332589Y430084D01*
X332617Y430139D01*
X332658Y430195D01*
X332728Y430278D01*
X332811Y430347D01*
X332908Y430417D01*
X333019Y430458D01*
X333158Y430472D01*
X333199D01*
X333241Y430458D01*
D02*
G37*
G36*
X373653Y427671D02*
X373709D01*
X373834Y427615D01*
X373903Y427588D01*
X373972Y427532D01*
X373986D01*
X374000Y427504D01*
X374028Y427463D01*
X374069Y427421D01*
X374139Y427282D01*
X374153Y427185D01*
X374166Y427088D01*
Y421596D01*
Y421569D01*
X374153Y421499D01*
X374139Y421402D01*
X374097Y421305D01*
X374014Y421194D01*
X373903Y421097D01*
X373764Y421028D01*
X373667Y421014D01*
X373556Y421000D01*
X371185D01*
X371129Y421014D01*
X370977Y421028D01*
X370796Y421069D01*
X370574Y421139D01*
X370339Y421236D01*
X370103Y421374D01*
X369881Y421569D01*
X369853Y421596D01*
X369784Y421666D01*
X369701Y421791D01*
X369590Y421957D01*
X369479Y422165D01*
X369396Y422401D01*
X369326Y422664D01*
X369299Y422969D01*
Y427088D01*
Y427102D01*
Y427130D01*
X369313Y427171D01*
Y427227D01*
X369368Y427366D01*
X369396Y427449D01*
X369451Y427518D01*
X369465Y427532D01*
X369493Y427546D01*
X369520Y427574D01*
X369576Y427601D01*
X369715Y427657D01*
X369798Y427685D01*
X369937D01*
X369978Y427671D01*
X370034D01*
X370159Y427615D01*
X370228Y427588D01*
X370297Y427532D01*
X370311D01*
X370325Y427504D01*
X370353Y427463D01*
X370394Y427421D01*
X370464Y427282D01*
X370477Y427185D01*
X370491Y427088D01*
Y422969D01*
Y422955D01*
Y422914D01*
X370505Y422845D01*
X370519Y422775D01*
X370547Y422678D01*
X370574Y422581D01*
X370630Y422484D01*
X370699Y422401D01*
X370727Y422387D01*
X370783Y422331D01*
X370866Y422276D01*
X370963Y422220D01*
X370991D01*
X371060Y422206D01*
X371157Y422193D01*
X371268Y422179D01*
X372974D01*
Y427088D01*
Y427102D01*
Y427130D01*
X372988Y427171D01*
Y427227D01*
X373043Y427366D01*
X373071Y427449D01*
X373126Y427518D01*
X373140Y427532D01*
X373168Y427546D01*
X373196Y427574D01*
X373251Y427601D01*
X373390Y427657D01*
X373473Y427685D01*
X373612D01*
X373653Y427671D01*
D02*
G37*
G36*
X382446D02*
X382598Y427657D01*
X382779Y427615D01*
X383001Y427546D01*
X383236Y427435D01*
X383472Y427296D01*
X383694Y427102D01*
X383708D01*
X383722Y427074D01*
X383791Y427005D01*
X383888Y426880D01*
X383999Y426714D01*
X384096Y426520D01*
X384193Y426284D01*
X384263Y426007D01*
X384290Y425868D01*
Y425715D01*
Y424342D01*
Y424314D01*
X384277Y424245D01*
X384263Y424148D01*
X384221Y424051D01*
X384138Y423940D01*
X384027Y423843D01*
X383888Y423774D01*
X383791Y423760D01*
X383680Y423746D01*
X380615D01*
Y422969D01*
Y422955D01*
Y422914D01*
X380629Y422845D01*
X380643Y422775D01*
X380671Y422678D01*
X380699Y422581D01*
X380754Y422484D01*
X380823Y422401D01*
X380851Y422387D01*
X380906Y422331D01*
X380990Y422276D01*
X381087Y422220D01*
X381115D01*
X381184Y422206D01*
X381281Y422193D01*
X381392Y422179D01*
X383722D01*
X383777Y422165D01*
X383833Y422151D01*
X383971Y422096D01*
X384041Y422054D01*
X384110Y421985D01*
X384124Y421971D01*
X384138Y421957D01*
X384207Y421874D01*
X384263Y421749D01*
X384277Y421679D01*
X384290Y421596D01*
Y421582D01*
Y421555D01*
X384277Y421527D01*
Y421471D01*
X384221Y421333D01*
X384193Y421264D01*
X384138Y421194D01*
Y421180D01*
X384110Y421166D01*
X384068Y421139D01*
X384027Y421097D01*
X383957Y421055D01*
X383874Y421028D01*
X383791Y421014D01*
X383680Y421000D01*
X381309D01*
X381253Y421014D01*
X381101Y421028D01*
X380920Y421069D01*
X380699Y421139D01*
X380463Y421236D01*
X380227Y421374D01*
X380005Y421569D01*
X379977Y421596D01*
X379908Y421666D01*
X379825Y421791D01*
X379714Y421957D01*
X379603Y422165D01*
X379520Y422401D01*
X379450Y422664D01*
X379423Y422969D01*
Y425715D01*
Y425729D01*
Y425757D01*
Y425798D01*
X379436Y425854D01*
X379450Y425993D01*
X379492Y426187D01*
X379561Y426395D01*
X379658Y426631D01*
X379797Y426866D01*
X379991Y427088D01*
X380005Y427102D01*
X380019Y427116D01*
X380088Y427185D01*
X380213Y427282D01*
X380379Y427393D01*
X380588Y427490D01*
X380823Y427588D01*
X381087Y427657D01*
X381239Y427685D01*
X382390D01*
X382446Y427671D01*
D02*
G37*
G36*
X376413Y430430D02*
X376469D01*
X376593Y430375D01*
X376663Y430347D01*
X376732Y430292D01*
X376746D01*
X376760Y430264D01*
X376788Y430223D01*
X376829Y430181D01*
X376898Y430042D01*
X376912Y429945D01*
X376926Y429848D01*
Y422512D01*
Y422484D01*
X376940Y422428D01*
X376968Y422359D01*
X377023Y422262D01*
X377037Y422248D01*
X377093Y422220D01*
X377162Y422193D01*
X377245Y422179D01*
X377287D01*
X377328Y422165D01*
X377398Y422151D01*
X377523Y422109D01*
X377592Y422054D01*
X377661Y421998D01*
X377675Y421985D01*
X377689Y421971D01*
X377758Y421888D01*
X377814Y421749D01*
X377828Y421679D01*
X377842Y421596D01*
Y421582D01*
Y421555D01*
X377828Y421527D01*
Y421471D01*
X377772Y421333D01*
X377744Y421264D01*
X377689Y421194D01*
Y421180D01*
X377661Y421166D01*
X377620Y421139D01*
X377578Y421097D01*
X377439Y421028D01*
X377342Y421014D01*
X377245Y421000D01*
X377217D01*
X377134Y421014D01*
X377023Y421028D01*
X376871Y421055D01*
X376704Y421111D01*
X376524Y421194D01*
X376344Y421291D01*
X376163Y421444D01*
X376150Y421471D01*
X376094Y421527D01*
X376025Y421624D01*
X375956Y421749D01*
X375872Y421901D01*
X375803Y422082D01*
X375747Y422290D01*
X375734Y422512D01*
Y429848D01*
Y429862D01*
Y429890D01*
X375747Y429931D01*
Y429987D01*
X375803Y430125D01*
X375831Y430195D01*
X375886Y430264D01*
X375900Y430278D01*
X375928Y430292D01*
X375956Y430320D01*
X376011Y430361D01*
X376150Y430417D01*
X376233Y430430D01*
X376330Y430444D01*
X376371D01*
X376413Y430430D01*
D02*
G37*
G36*
X367218D02*
X367274D01*
X367399Y430375D01*
X367468Y430347D01*
X367537Y430292D01*
X367551D01*
X367565Y430264D01*
X367593Y430223D01*
X367634Y430181D01*
X367704Y430042D01*
X367718Y429945D01*
X367732Y429848D01*
Y421596D01*
Y421569D01*
X367718Y421499D01*
X367704Y421402D01*
X367662Y421305D01*
X367579Y421194D01*
X367468Y421097D01*
X367329Y421028D01*
X367232Y421014D01*
X367121Y421000D01*
X364750D01*
X364694Y421014D01*
X364542Y421028D01*
X364361Y421069D01*
X364140Y421139D01*
X363904Y421236D01*
X363668Y421374D01*
X363446Y421569D01*
X363418Y421596D01*
X363349Y421666D01*
X363266Y421791D01*
X363155Y421957D01*
X363044Y422165D01*
X362961Y422401D01*
X362891Y422664D01*
X362864Y422969D01*
Y425715D01*
Y425729D01*
Y425757D01*
Y425798D01*
X362878Y425854D01*
X362891Y426007D01*
X362933Y426201D01*
X363002Y426409D01*
X363100Y426644D01*
X363238Y426880D01*
X363432Y427102D01*
X363460Y427130D01*
X363543Y427199D01*
X363654Y427282D01*
X363821Y427393D01*
X364029Y427504D01*
X364264Y427588D01*
X364542Y427657D01*
X364833Y427685D01*
X366539D01*
Y429848D01*
Y429862D01*
Y429890D01*
X366553Y429931D01*
Y429987D01*
X366608Y430125D01*
X366636Y430195D01*
X366691Y430264D01*
X366705Y430278D01*
X366733Y430292D01*
X366761Y430320D01*
X366816Y430361D01*
X366955Y430417D01*
X367038Y430430D01*
X367135Y430444D01*
X367177D01*
X367218Y430430D01*
D02*
G37*
G36*
X359286Y427671D02*
X359355D01*
X359438Y427657D01*
X359646Y427601D01*
X359882Y427532D01*
X360145Y427421D01*
X360395Y427255D01*
X360520Y427158D01*
X360645Y427047D01*
X360659D01*
X360672Y427019D01*
X360742Y426936D01*
X360853Y426797D01*
X360978Y426631D01*
X361088Y426409D01*
X361199Y426145D01*
X361269Y425854D01*
X361297Y425701D01*
Y425535D01*
Y423150D01*
Y423136D01*
Y423108D01*
Y423066D01*
X361283Y422997D01*
Y422928D01*
X361269Y422845D01*
X361213Y422636D01*
X361144Y422401D01*
X361033Y422137D01*
X360867Y421888D01*
X360770Y421763D01*
X360659Y421638D01*
X360631Y421610D01*
X360548Y421541D01*
X360409Y421430D01*
X360229Y421319D01*
X360007Y421208D01*
X359757Y421097D01*
X359452Y421028D01*
X359300Y421014D01*
X359133Y421000D01*
X358495D01*
X358426Y421014D01*
X358357D01*
X358273Y421028D01*
X358065Y421083D01*
X357830Y421152D01*
X357566Y421264D01*
X357316Y421416D01*
X357192Y421499D01*
X357067Y421610D01*
Y421624D01*
X357039Y421638D01*
X356970Y421721D01*
X356859Y421860D01*
X356748Y422040D01*
X356637Y422262D01*
X356526Y422525D01*
X356456Y422817D01*
X356443Y422983D01*
X356429Y423150D01*
Y425535D01*
Y425549D01*
Y425577D01*
Y425618D01*
X356443Y425674D01*
X356456Y425840D01*
X356512Y426034D01*
X356581Y426270D01*
X356692Y426520D01*
X356845Y426783D01*
X356942Y426908D01*
X357053Y427033D01*
X357067Y427047D01*
X357081Y427061D01*
X357164Y427130D01*
X357303Y427241D01*
X357483Y427366D01*
X357705Y427477D01*
X357954Y427588D01*
X358259Y427657D01*
X358412Y427685D01*
X359216D01*
X359286Y427671D01*
D02*
G37*
G36*
X344738D02*
X344890Y427657D01*
X345070Y427615D01*
X345292Y427546D01*
X345528Y427435D01*
X345764Y427296D01*
X345986Y427102D01*
X346000D01*
X346014Y427074D01*
X346083Y427005D01*
X346180Y426880D01*
X346291Y426714D01*
X346388Y426520D01*
X346485Y426284D01*
X346554Y426007D01*
X346582Y425868D01*
Y425715D01*
Y421596D01*
Y421582D01*
Y421555D01*
X346568Y421499D01*
Y421444D01*
X346513Y421291D01*
X346471Y421222D01*
X346416Y421152D01*
X346402D01*
X346388Y421125D01*
X346346Y421111D01*
X346291Y421083D01*
X346152Y421028D01*
X346083Y421014D01*
X345986Y421000D01*
X345944D01*
X345903Y421014D01*
X345833D01*
X345695Y421055D01*
X345556Y421139D01*
Y421152D01*
X345528Y421166D01*
X345500Y421208D01*
X345473Y421250D01*
X345445Y421319D01*
X345417Y421402D01*
X345403Y421485D01*
X345390Y421596D01*
Y425715D01*
Y425729D01*
Y425771D01*
X345376Y425826D01*
X345362Y425909D01*
X345334Y425993D01*
X345292Y426090D01*
X345237Y426187D01*
X345168Y426270D01*
X345154Y426284D01*
X345126Y426312D01*
X345084Y426339D01*
X345015Y426395D01*
X344932Y426436D01*
X344835Y426464D01*
X344724Y426492D01*
X344599Y426506D01*
X342907D01*
Y421596D01*
Y421582D01*
Y421555D01*
X342893Y421499D01*
Y421444D01*
X342838Y421291D01*
X342796Y421222D01*
X342741Y421152D01*
X342727D01*
X342713Y421125D01*
X342671Y421111D01*
X342616Y421083D01*
X342477Y421028D01*
X342408Y421014D01*
X342311Y421000D01*
X342269D01*
X342228Y421014D01*
X342158D01*
X342020Y421055D01*
X341881Y421139D01*
Y421152D01*
X341853Y421166D01*
X341825Y421208D01*
X341798Y421250D01*
X341770Y421319D01*
X341742Y421402D01*
X341728Y421485D01*
X341714Y421596D01*
Y427088D01*
Y427102D01*
Y427116D01*
X341728Y427185D01*
X341742Y427282D01*
X341784Y427393D01*
X341867Y427490D01*
X341964Y427588D01*
X342117Y427657D01*
X342200Y427685D01*
X344682D01*
X344738Y427671D01*
D02*
G37*
G36*
X338136D02*
X338206D01*
X338289Y427657D01*
X338497Y427601D01*
X338733Y427532D01*
X338996Y427421D01*
X339246Y427255D01*
X339371Y427158D01*
X339495Y427047D01*
X339509D01*
X339523Y427019D01*
X339593Y426936D01*
X339703Y426797D01*
X339828Y426631D01*
X339939Y426409D01*
X340050Y426145D01*
X340120Y425854D01*
X340147Y425701D01*
Y425535D01*
Y423150D01*
Y423136D01*
Y423108D01*
Y423066D01*
X340133Y422997D01*
Y422928D01*
X340120Y422845D01*
X340064Y422636D01*
X339995Y422401D01*
X339884Y422137D01*
X339717Y421888D01*
X339620Y421763D01*
X339509Y421638D01*
X339482Y421610D01*
X339398Y421541D01*
X339260Y421430D01*
X339079Y421319D01*
X338857Y421208D01*
X338608Y421097D01*
X338303Y421028D01*
X338150Y421014D01*
X337984Y421000D01*
X337346D01*
X337276Y421014D01*
X337207D01*
X337124Y421028D01*
X336916Y421083D01*
X336680Y421152D01*
X336417Y421264D01*
X336167Y421416D01*
X336042Y421499D01*
X335917Y421610D01*
Y421624D01*
X335890Y421638D01*
X335820Y421721D01*
X335709Y421860D01*
X335598Y422040D01*
X335488Y422262D01*
X335377Y422525D01*
X335307Y422817D01*
X335293Y422983D01*
X335279Y423150D01*
Y425535D01*
Y425549D01*
Y425577D01*
Y425618D01*
X335293Y425674D01*
X335307Y425840D01*
X335363Y426034D01*
X335432Y426270D01*
X335543Y426520D01*
X335695Y426783D01*
X335793Y426908D01*
X335904Y427033D01*
X335917Y427047D01*
X335931Y427061D01*
X336015Y427130D01*
X336153Y427241D01*
X336333Y427366D01*
X336555Y427477D01*
X336805Y427588D01*
X337110Y427657D01*
X337263Y427685D01*
X338067D01*
X338136Y427671D01*
D02*
G37*
%LPC*%
G36*
X83050Y415890D02*
X82190D01*
Y415030D01*
X82333D01*
Y414743D01*
X82477D01*
Y414457D01*
X82620D01*
Y414313D01*
X82763D01*
Y414027D01*
X82907D01*
Y413883D01*
X83050D01*
Y413740D01*
X83193D01*
Y413597D01*
X83337D01*
Y413453D01*
X83623D01*
Y413597D01*
X83767D01*
Y414313D01*
X83623D01*
Y414743D01*
X83480D01*
Y415317D01*
X83337D01*
Y415603D01*
X83193D01*
Y415747D01*
X83050D01*
Y415890D01*
D02*
G37*
G36*
X88783Y416463D02*
X88497D01*
Y416320D01*
X88210D01*
Y416177D01*
X88067D01*
Y416033D01*
X87923D01*
Y415890D01*
X87780D01*
Y415747D01*
X87637D01*
Y415603D01*
X87493D01*
Y415317D01*
X87350D01*
Y415173D01*
X87207D01*
Y414887D01*
X87063D01*
Y414313D01*
X86920D01*
Y414170D01*
X87063D01*
Y413740D01*
X87207D01*
Y413453D01*
X87350D01*
Y413310D01*
X88067D01*
Y413453D01*
X88353D01*
Y413597D01*
X88497D01*
Y413740D01*
X88640D01*
Y413883D01*
X88783D01*
Y414027D01*
X88927D01*
Y414170D01*
X89070D01*
Y414313D01*
X89213D01*
Y414600D01*
X89357D01*
Y414887D01*
X89500D01*
Y415890D01*
X89357D01*
Y416033D01*
X89213D01*
Y416177D01*
X89070D01*
Y416320D01*
X88783D01*
Y416463D01*
D02*
G37*
G36*
X41565Y119051D02*
X41498D01*
X41410Y119029D01*
X41310Y119007D01*
X41199Y118963D01*
X41076Y118907D01*
X40954Y118818D01*
X40843Y118707D01*
X40832Y118696D01*
X40799Y118641D01*
X40755Y118563D01*
X40699Y118463D01*
X40644Y118319D01*
X40599Y118152D01*
X40566Y117952D01*
X40555Y117719D01*
Y117708D01*
Y117686D01*
Y117653D01*
Y117597D01*
X40577Y117475D01*
X40599Y117309D01*
X40633Y117131D01*
X40688Y116943D01*
X40766Y116765D01*
X40877Y116609D01*
X40888Y116598D01*
X40932Y116554D01*
X41010Y116487D01*
X41099Y116421D01*
X41210Y116343D01*
X41332Y116288D01*
X41476Y116243D01*
X41631Y116221D01*
X41698D01*
X41776Y116243D01*
X41876Y116265D01*
X41976Y116299D01*
X42098Y116354D01*
X42209Y116432D01*
X42320Y116532D01*
X42331Y116543D01*
X42364Y116598D01*
X42408Y116676D01*
X42464Y116787D01*
X42508Y116931D01*
X42553Y117109D01*
X42586Y117331D01*
X42597Y117586D01*
Y117597D01*
Y117620D01*
Y117664D01*
Y117708D01*
X42586Y117842D01*
X42564Y118008D01*
X42519Y118186D01*
X42475Y118374D01*
X42397Y118552D01*
X42298Y118696D01*
X42286Y118707D01*
X42242Y118752D01*
X42186Y118807D01*
X42098Y118874D01*
X41987Y118940D01*
X41865Y118996D01*
X41720Y119040D01*
X41565Y119051D01*
D02*
G37*
G36*
X56316Y121649D02*
X56272D01*
X56217Y121638D01*
X56161Y121627D01*
X56083Y121604D01*
X56006Y121571D01*
X55917Y121527D01*
X55839Y121471D01*
X55828Y121460D01*
X55806Y121438D01*
X55773Y121393D01*
X55728Y121338D01*
X55673Y121249D01*
X55628Y121149D01*
X55573Y121016D01*
X55528Y120861D01*
Y120850D01*
X55517Y120838D01*
Y120794D01*
X55506Y120750D01*
X55495Y120683D01*
X55484Y120605D01*
X55473Y120517D01*
X55462Y120406D01*
X55440Y120272D01*
X55429Y120139D01*
X55417Y119973D01*
X55406Y119806D01*
X55395Y119606D01*
Y119407D01*
X55384Y119173D01*
Y118929D01*
Y118918D01*
Y118874D01*
Y118796D01*
Y118707D01*
Y118596D01*
X55395Y118474D01*
Y118330D01*
X55406Y118186D01*
X55417Y117875D01*
X55440Y117564D01*
X55451Y117420D01*
X55473Y117287D01*
X55495Y117164D01*
X55517Y117053D01*
X55528Y117031D01*
X55539Y116976D01*
X55573Y116887D01*
X55606Y116787D01*
X55662Y116676D01*
X55717Y116565D01*
X55784Y116465D01*
X55850Y116388D01*
X55861Y116376D01*
X55884Y116365D01*
X55928Y116332D01*
X55984Y116310D01*
X56050Y116277D01*
X56128Y116243D01*
X56217Y116232D01*
X56316Y116221D01*
X56361D01*
X56416Y116232D01*
X56472Y116243D01*
X56550Y116265D01*
X56627Y116288D01*
X56705Y116332D01*
X56783Y116388D01*
X56794Y116399D01*
X56816Y116421D01*
X56860Y116465D01*
X56905Y116532D01*
X56949Y116609D01*
X57005Y116721D01*
X57060Y116843D01*
X57105Y116998D01*
Y117009D01*
X57116Y117020D01*
Y117065D01*
X57127Y117109D01*
X57138Y117176D01*
X57149Y117253D01*
X57171Y117342D01*
X57182Y117453D01*
X57193Y117575D01*
X57216Y117719D01*
X57227Y117875D01*
X57238Y118052D01*
X57249Y118241D01*
Y118452D01*
X57260Y118685D01*
Y118929D01*
Y118940D01*
Y118985D01*
Y119062D01*
Y119151D01*
Y119262D01*
X57249Y119384D01*
Y119529D01*
X57238Y119673D01*
X57227Y119984D01*
X57204Y120283D01*
X57182Y120428D01*
X57160Y120572D01*
X57138Y120694D01*
X57116Y120794D01*
Y120805D01*
X57105Y120816D01*
X57094Y120872D01*
X57060Y120961D01*
X57027Y121072D01*
X56971Y121183D01*
X56916Y121294D01*
X56849Y121393D01*
X56783Y121471D01*
X56772Y121482D01*
X56749Y121504D01*
X56705Y121527D01*
X56649Y121560D01*
X56583Y121593D01*
X56505Y121627D01*
X56416Y121638D01*
X56316Y121649D01*
D02*
G37*
G36*
X35416D02*
X35371D01*
X35316Y121638D01*
X35260Y121627D01*
X35182Y121604D01*
X35105Y121571D01*
X35016Y121527D01*
X34938Y121471D01*
X34927Y121460D01*
X34905Y121438D01*
X34872Y121393D01*
X34827Y121338D01*
X34772Y121249D01*
X34727Y121149D01*
X34672Y121016D01*
X34627Y120861D01*
Y120850D01*
X34616Y120838D01*
Y120794D01*
X34605Y120750D01*
X34594Y120683D01*
X34583Y120605D01*
X34572Y120517D01*
X34561Y120406D01*
X34539Y120272D01*
X34528Y120139D01*
X34516Y119973D01*
X34505Y119806D01*
X34494Y119606D01*
Y119407D01*
X34483Y119173D01*
Y118929D01*
Y118918D01*
Y118874D01*
Y118796D01*
Y118707D01*
Y118596D01*
X34494Y118474D01*
Y118330D01*
X34505Y118186D01*
X34516Y117875D01*
X34539Y117564D01*
X34550Y117420D01*
X34572Y117287D01*
X34594Y117164D01*
X34616Y117053D01*
X34627Y117031D01*
X34639Y116976D01*
X34672Y116887D01*
X34705Y116787D01*
X34761Y116676D01*
X34816Y116565D01*
X34883Y116465D01*
X34949Y116388D01*
X34960Y116376D01*
X34983Y116365D01*
X35027Y116332D01*
X35083Y116310D01*
X35149Y116277D01*
X35227Y116243D01*
X35316Y116232D01*
X35416Y116221D01*
X35460D01*
X35515Y116232D01*
X35571Y116243D01*
X35649Y116265D01*
X35726Y116288D01*
X35804Y116332D01*
X35882Y116388D01*
X35893Y116399D01*
X35915Y116421D01*
X35959Y116465D01*
X36004Y116532D01*
X36048Y116609D01*
X36104Y116721D01*
X36159Y116843D01*
X36204Y116998D01*
Y117009D01*
X36215Y117020D01*
Y117065D01*
X36226Y117109D01*
X36237Y117176D01*
X36248Y117253D01*
X36270Y117342D01*
X36281Y117453D01*
X36293Y117575D01*
X36315Y117719D01*
X36326Y117875D01*
X36337Y118052D01*
X36348Y118241D01*
Y118452D01*
X36359Y118685D01*
Y118929D01*
Y118940D01*
Y118985D01*
Y119062D01*
Y119151D01*
Y119262D01*
X36348Y119384D01*
Y119529D01*
X36337Y119673D01*
X36326Y119984D01*
X36304Y120283D01*
X36281Y120428D01*
X36259Y120572D01*
X36237Y120694D01*
X36215Y120794D01*
Y120805D01*
X36204Y120816D01*
X36193Y120872D01*
X36159Y120961D01*
X36126Y121072D01*
X36070Y121183D01*
X36015Y121294D01*
X35948Y121393D01*
X35882Y121471D01*
X35871Y121482D01*
X35849Y121504D01*
X35804Y121527D01*
X35749Y121560D01*
X35682Y121593D01*
X35604Y121627D01*
X35515Y121638D01*
X35416Y121649D01*
D02*
G37*
G36*
X20486D02*
X20442D01*
X20386Y121638D01*
X20331Y121627D01*
X20253Y121604D01*
X20176Y121571D01*
X20087Y121527D01*
X20009Y121471D01*
X19998Y121460D01*
X19976Y121438D01*
X19943Y121393D01*
X19898Y121338D01*
X19843Y121249D01*
X19798Y121149D01*
X19743Y121016D01*
X19698Y120861D01*
Y120850D01*
X19687Y120838D01*
Y120794D01*
X19676Y120750D01*
X19665Y120683D01*
X19654Y120605D01*
X19643Y120517D01*
X19632Y120406D01*
X19610Y120272D01*
X19598Y120139D01*
X19587Y119973D01*
X19576Y119806D01*
X19565Y119606D01*
Y119407D01*
X19554Y119173D01*
Y118929D01*
Y118918D01*
Y118874D01*
Y118796D01*
Y118707D01*
Y118596D01*
X19565Y118474D01*
Y118330D01*
X19576Y118186D01*
X19587Y117875D01*
X19610Y117564D01*
X19621Y117420D01*
X19643Y117287D01*
X19665Y117164D01*
X19687Y117053D01*
X19698Y117031D01*
X19709Y116976D01*
X19743Y116887D01*
X19776Y116787D01*
X19832Y116676D01*
X19887Y116565D01*
X19954Y116465D01*
X20020Y116388D01*
X20031Y116376D01*
X20054Y116365D01*
X20098Y116332D01*
X20153Y116310D01*
X20220Y116277D01*
X20298Y116243D01*
X20386Y116232D01*
X20486Y116221D01*
X20531D01*
X20586Y116232D01*
X20642Y116243D01*
X20719Y116265D01*
X20797Y116288D01*
X20875Y116332D01*
X20952Y116388D01*
X20964Y116399D01*
X20986Y116421D01*
X21030Y116465D01*
X21075Y116532D01*
X21119Y116609D01*
X21174Y116721D01*
X21230Y116843D01*
X21274Y116998D01*
Y117009D01*
X21286Y117020D01*
Y117065D01*
X21297Y117109D01*
X21308Y117176D01*
X21319Y117253D01*
X21341Y117342D01*
X21352Y117453D01*
X21363Y117575D01*
X21385Y117719D01*
X21397Y117875D01*
X21408Y118052D01*
X21419Y118241D01*
Y118452D01*
X21430Y118685D01*
Y118929D01*
Y118940D01*
Y118985D01*
Y119062D01*
Y119151D01*
Y119262D01*
X21419Y119384D01*
Y119529D01*
X21408Y119673D01*
X21397Y119984D01*
X21374Y120283D01*
X21352Y120428D01*
X21330Y120572D01*
X21308Y120694D01*
X21286Y120794D01*
Y120805D01*
X21274Y120816D01*
X21263Y120872D01*
X21230Y120961D01*
X21197Y121072D01*
X21141Y121183D01*
X21086Y121294D01*
X21019Y121393D01*
X20952Y121471D01*
X20941Y121482D01*
X20919Y121504D01*
X20875Y121527D01*
X20819Y121560D01*
X20753Y121593D01*
X20675Y121627D01*
X20586Y121638D01*
X20486Y121649D01*
D02*
G37*
G36*
X46142Y138266D02*
X45518D01*
X45448Y138252D01*
X45351Y138224D01*
X45241Y138196D01*
X45130Y138141D01*
X45019Y138071D01*
X44908Y137974D01*
X44894Y137961D01*
X44866Y137919D01*
X44824Y137863D01*
X44769Y137780D01*
X44714Y137683D01*
X44672Y137572D01*
X44644Y137434D01*
X44630Y137295D01*
Y132150D01*
Y132136D01*
Y132080D01*
X44644Y132011D01*
X44672Y131914D01*
X44700Y131803D01*
X44741Y131692D01*
X44811Y131567D01*
X44908Y131456D01*
X44921Y131442D01*
X44963Y131415D01*
X45019Y131373D01*
X45102Y131318D01*
X45199Y131262D01*
X45310Y131220D01*
X45448Y131193D01*
X45587Y131179D01*
X46211D01*
X46281Y131193D01*
X46378Y131220D01*
X46475Y131248D01*
X46600Y131290D01*
X46711Y131359D01*
X46821Y131456D01*
X46835Y131470D01*
X46863Y131512D01*
X46919Y131567D01*
X46974Y131650D01*
X47016Y131747D01*
X47071Y131872D01*
X47099Y131997D01*
X47113Y132150D01*
Y137295D01*
Y137309D01*
Y137364D01*
X47099Y137434D01*
X47071Y137530D01*
X47043Y137628D01*
X46988Y137752D01*
X46919Y137863D01*
X46821Y137974D01*
X46808Y137988D01*
X46766Y138016D01*
X46711Y138071D01*
X46627Y138127D01*
X46530Y138168D01*
X46419Y138224D01*
X46281Y138252D01*
X46142Y138266D01*
D02*
G37*
G36*
X36767D02*
X36143D01*
X36074Y138252D01*
X35976Y138224D01*
X35865Y138196D01*
X35754Y138141D01*
X35644Y138071D01*
X35533Y137974D01*
X35519Y137961D01*
X35491Y137919D01*
X35449Y137863D01*
X35394Y137780D01*
X35338Y137683D01*
X35297Y137572D01*
X35269Y137434D01*
X35255Y137295D01*
Y132150D01*
Y132136D01*
Y132080D01*
X35269Y132011D01*
X35297Y131914D01*
X35325Y131803D01*
X35366Y131692D01*
X35436Y131567D01*
X35533Y131456D01*
X35547Y131442D01*
X35588Y131415D01*
X35644Y131373D01*
X35727Y131318D01*
X35824Y131262D01*
X35935Y131220D01*
X36074Y131193D01*
X36212Y131179D01*
X36836D01*
X36906Y131193D01*
X37003Y131220D01*
X37100Y131248D01*
X37225Y131290D01*
X37336Y131359D01*
X37446Y131456D01*
X37460Y131470D01*
X37488Y131512D01*
X37543Y131567D01*
X37599Y131650D01*
X37641Y131747D01*
X37696Y131872D01*
X37724Y131997D01*
X37738Y132150D01*
Y137295D01*
Y137309D01*
Y137364D01*
X37724Y137434D01*
X37696Y137530D01*
X37668Y137628D01*
X37613Y137752D01*
X37543Y137863D01*
X37446Y137974D01*
X37433Y137988D01*
X37391Y138016D01*
X37336Y138071D01*
X37252Y138127D01*
X37155Y138168D01*
X37044Y138224D01*
X36906Y138252D01*
X36767Y138266D01*
D02*
G37*
G36*
X382307Y426506D02*
X381336D01*
X381281Y426492D01*
X381198Y426478D01*
X381101Y426450D01*
X381017Y426409D01*
X380920Y426353D01*
X380823Y426270D01*
X380809Y426256D01*
X380768Y426201D01*
X380712Y426117D01*
X380657Y426020D01*
Y425993D01*
X380643Y425937D01*
X380629Y425840D01*
X380615Y425715D01*
Y424925D01*
X383098D01*
Y425715D01*
Y425729D01*
Y425771D01*
X383084Y425826D01*
X383070Y425909D01*
X383042Y425993D01*
X383001Y426090D01*
X382945Y426187D01*
X382876Y426270D01*
X382862Y426284D01*
X382834Y426312D01*
X382793Y426339D01*
X382723Y426395D01*
X382640Y426436D01*
X382543Y426464D01*
X382432Y426492D01*
X382307Y426506D01*
D02*
G37*
G36*
X366539D02*
X364777D01*
X364722Y426492D01*
X364639Y426478D01*
X364542Y426450D01*
X364459Y426409D01*
X364361Y426353D01*
X364264Y426270D01*
X364250Y426256D01*
X364209Y426201D01*
X364154Y426117D01*
X364098Y426020D01*
Y425993D01*
X364084Y425937D01*
X364070Y425840D01*
X364056Y425715D01*
Y422969D01*
Y422955D01*
Y422914D01*
X364070Y422845D01*
X364084Y422775D01*
X364112Y422678D01*
X364140Y422581D01*
X364195Y422484D01*
X364264Y422401D01*
X364292Y422387D01*
X364348Y422331D01*
X364431Y422276D01*
X364528Y422220D01*
X364556D01*
X364625Y422206D01*
X364722Y422193D01*
X364833Y422179D01*
X366539D01*
Y426506D01*
D02*
G37*
G36*
X359133D02*
X358509D01*
X358440Y426492D01*
X358343Y426464D01*
X358232Y426436D01*
X358121Y426381D01*
X358010Y426312D01*
X357899Y426214D01*
X357885Y426201D01*
X357857Y426159D01*
X357816Y426104D01*
X357760Y426020D01*
X357705Y425923D01*
X357663Y425812D01*
X357635Y425674D01*
X357621Y425535D01*
Y423150D01*
Y423136D01*
Y423080D01*
X357635Y423011D01*
X357663Y422914D01*
X357691Y422803D01*
X357732Y422692D01*
X357802Y422567D01*
X357899Y422456D01*
X357913Y422442D01*
X357954Y422415D01*
X358010Y422373D01*
X358093Y422318D01*
X358190Y422262D01*
X358301Y422220D01*
X358440Y422193D01*
X358578Y422179D01*
X359202D01*
X359272Y422193D01*
X359369Y422220D01*
X359466Y422248D01*
X359591Y422290D01*
X359702Y422359D01*
X359813Y422456D01*
X359827Y422470D01*
X359854Y422512D01*
X359910Y422567D01*
X359965Y422650D01*
X360007Y422747D01*
X360062Y422872D01*
X360090Y422997D01*
X360104Y423150D01*
Y425535D01*
Y425549D01*
Y425604D01*
X360090Y425674D01*
X360062Y425771D01*
X360034Y425882D01*
X359979Y425993D01*
X359910Y426104D01*
X359813Y426214D01*
X359799Y426228D01*
X359757Y426256D01*
X359702Y426312D01*
X359618Y426367D01*
X359521Y426409D01*
X359411Y426464D01*
X359272Y426492D01*
X359133Y426506D01*
D02*
G37*
G36*
X337984D02*
X337360D01*
X337290Y426492D01*
X337193Y426464D01*
X337082Y426436D01*
X336971Y426381D01*
X336860Y426312D01*
X336749Y426214D01*
X336736Y426201D01*
X336708Y426159D01*
X336666Y426104D01*
X336611Y426020D01*
X336555Y425923D01*
X336514Y425812D01*
X336486Y425674D01*
X336472Y425535D01*
Y423150D01*
Y423136D01*
Y423080D01*
X336486Y423011D01*
X336514Y422914D01*
X336541Y422803D01*
X336583Y422692D01*
X336652Y422567D01*
X336749Y422456D01*
X336763Y422442D01*
X336805Y422415D01*
X336860Y422373D01*
X336944Y422318D01*
X337041Y422262D01*
X337152Y422220D01*
X337290Y422193D01*
X337429Y422179D01*
X338053D01*
X338122Y422193D01*
X338219Y422220D01*
X338317Y422248D01*
X338441Y422290D01*
X338552Y422359D01*
X338663Y422456D01*
X338677Y422470D01*
X338705Y422512D01*
X338760Y422567D01*
X338816Y422650D01*
X338857Y422747D01*
X338913Y422872D01*
X338941Y422997D01*
X338955Y423150D01*
Y425535D01*
Y425549D01*
Y425604D01*
X338941Y425674D01*
X338913Y425771D01*
X338885Y425882D01*
X338830Y425993D01*
X338760Y426104D01*
X338663Y426214D01*
X338649Y426228D01*
X338608Y426256D01*
X338552Y426312D01*
X338469Y426367D01*
X338372Y426409D01*
X338261Y426464D01*
X338122Y426492D01*
X337984Y426506D01*
D02*
G37*
%LPD*%
D10*
X64504Y142004D02*
G03*
X63004Y143504I-1500J0D01*
G01*
Y126500D02*
G03*
X64504Y128000I0J1500D01*
G01*
X18500Y143504D02*
G03*
X17000Y142004I0J-1500D01*
G01*
Y128000D02*
G03*
X18500Y126500I1500J0D01*
G01*
X217500Y364000D02*
G03*
X217500Y364000I-500J0D01*
G01*
X18500Y126500D02*
X63004D01*
X18500Y143504D02*
X63004D01*
X64504Y128000D02*
Y142004D01*
X17000Y128000D02*
Y142004D01*
X191000Y288000D02*
Y302000D01*
X203700Y288000D02*
Y289920D01*
X178300Y288000D02*
X203700D01*
X178300D02*
Y289920D01*
Y300080D02*
Y302000D01*
X203700D01*
Y300080D02*
Y302000D01*
X191000Y269000D02*
Y283000D01*
X203700Y269000D02*
Y270920D01*
X178300Y269000D02*
X203700D01*
X178300D02*
Y270920D01*
Y281080D02*
Y283000D01*
X203700D01*
Y281080D02*
Y283000D01*
X181000Y233000D02*
X195000D01*
X181000Y219000D02*
X184000D01*
X181000D02*
Y247000D01*
X184000D01*
X192000D02*
X195000D01*
Y219000D02*
Y247000D01*
X192000Y219000D02*
X195000D01*
X465000Y238000D02*
Y241000D01*
X437000D02*
X465000D01*
X437000Y238000D02*
Y241000D01*
Y227000D02*
Y230000D01*
Y227000D02*
X465000D01*
Y230000D01*
X451000Y227000D02*
Y241000D01*
X391000Y297000D02*
Y311000D01*
X405000Y297000D02*
Y300000D01*
X377000Y297000D02*
X405000D01*
X377000D02*
Y300000D01*
Y308000D02*
Y311000D01*
X405000D01*
Y308000D02*
Y311000D01*
X370000Y130000D02*
X388000D01*
X370000Y147000D02*
X374000D01*
X370000Y113000D02*
Y147000D01*
Y113000D02*
X374000D01*
X384000D02*
X388000D01*
Y147000D01*
X384000D02*
X388000D01*
X129321Y241780D02*
Y243700D01*
Y241780D02*
X154721D01*
Y243700D01*
Y253860D02*
Y255780D01*
X129321D02*
X154721D01*
X129321Y253860D02*
Y255780D01*
X142021Y241780D02*
Y255780D01*
X104021Y270780D02*
Y274280D01*
X117991Y280320D02*
X119261D01*
Y284780D01*
X117991D02*
X119261D01*
X117991Y275240D02*
X119261D01*
Y270780D02*
Y275240D01*
X117991Y270780D02*
X119261D01*
X104021Y281280D02*
Y284780D01*
X88781Y282860D02*
Y284780D01*
X119021D01*
X117991Y280320D02*
Y284780D01*
Y270780D02*
Y275240D01*
X88781Y270780D02*
X118021D01*
X88781D02*
Y272700D01*
X547601Y85060D02*
Y99060D01*
X561601Y85060D02*
Y88060D01*
X533601Y85060D02*
X561601D01*
X533601D02*
Y88060D01*
Y96060D02*
Y99060D01*
X561601D01*
Y96060D02*
Y99060D01*
X548000Y137040D02*
Y151040D01*
X534000Y148040D02*
Y151040D01*
X562000D01*
Y148040D02*
Y151040D01*
Y137040D02*
Y140040D01*
X534000Y137040D02*
X562000D01*
X534000D02*
Y140040D01*
X252118Y324340D02*
Y327340D01*
Y324340D02*
X280119D01*
Y327340D01*
Y335340D02*
Y338340D01*
X252118D02*
X280119D01*
X252118Y335340D02*
Y338340D01*
X266119Y324340D02*
Y338340D01*
X309000Y138000D02*
Y141000D01*
Y138000D02*
X337000D01*
Y141000D01*
Y149000D02*
Y152000D01*
X309000D02*
X337000D01*
X309000Y149000D02*
Y152000D01*
X323000Y138000D02*
Y152000D01*
X482000Y340062D02*
X496000D01*
X482000Y326063D02*
X485000D01*
X482000D02*
Y354062D01*
X485000D01*
X493000D02*
X496000D01*
Y326063D02*
Y354062D01*
X493000Y326063D02*
X496000D01*
X458000Y340062D02*
X472000D01*
X458000Y326063D02*
X461000D01*
X458000D02*
Y354062D01*
X461000D01*
X469000D02*
X472000D01*
Y326063D02*
Y354062D01*
X469000Y326063D02*
X472000D01*
X117991Y251320D02*
X119261D01*
Y255780D01*
X117991D02*
X119261D01*
X117991Y246240D02*
X119261D01*
Y241780D02*
Y246240D01*
X117991Y241780D02*
X119261D01*
X88781Y253860D02*
Y255780D01*
X119021D01*
X117991Y251320D02*
Y255780D01*
Y241780D02*
Y246240D01*
X88781Y241780D02*
X119021D01*
X88781D02*
Y243700D01*
X104021Y241780D02*
Y245280D01*
Y252280D02*
Y255780D01*
X104521Y310280D02*
Y313780D01*
Y299780D02*
Y303280D01*
X118491Y309320D02*
X119761D01*
Y313780D01*
X118491D02*
X119761D01*
X118491Y304240D02*
X119761D01*
Y299780D02*
Y304240D01*
X118491Y299780D02*
X119761D01*
X89281Y311860D02*
Y313780D01*
X119521D01*
X118491Y309320D02*
Y313780D01*
Y299780D02*
Y304240D01*
X89281Y299780D02*
X119521D01*
X89281D02*
Y301700D01*
X391000Y315000D02*
Y329000D01*
X405000Y315000D02*
Y318000D01*
X377000Y315000D02*
X405000D01*
X377000D02*
Y318000D01*
Y326000D02*
Y329000D01*
X405000D01*
Y326000D02*
Y329000D01*
X354000Y276000D02*
Y290000D01*
X340000Y287000D02*
Y290000D01*
X368000D01*
Y287000D02*
Y290000D01*
Y276000D02*
Y279000D01*
X340000Y276000D02*
X368000D01*
X340000D02*
Y279000D01*
X243000Y208000D02*
Y211000D01*
Y208000D02*
X271000D01*
Y211000D01*
Y219000D02*
Y222000D01*
X243000D02*
X271000D01*
X243000Y219000D02*
Y222000D01*
X257000Y208000D02*
Y222000D01*
X405000Y290000D02*
Y293000D01*
X377000D02*
X405000D01*
X377000Y290000D02*
Y293000D01*
Y279000D02*
Y282000D01*
Y279000D02*
X405000D01*
Y282000D01*
X391000Y279000D02*
Y293000D01*
X451000Y193000D02*
Y207000D01*
X465000Y193000D02*
Y196000D01*
X437000Y193000D02*
X465000D01*
X437000D02*
Y196000D01*
Y204000D02*
Y207000D01*
X465000D01*
Y204000D02*
Y207000D01*
X451000Y170000D02*
Y184000D01*
X465000Y170000D02*
Y173000D01*
X437000Y170000D02*
X465000D01*
X437000D02*
Y173000D01*
Y181000D02*
Y184000D01*
X465000D01*
Y181000D02*
Y184000D01*
X451000Y210000D02*
Y224000D01*
X465000Y210000D02*
Y213000D01*
X437000Y210000D02*
X465000D01*
X437000D02*
Y213000D01*
Y221000D02*
Y224000D01*
X465000D01*
Y221000D02*
Y224000D01*
X142021Y299780D02*
Y313780D01*
X129321Y311860D02*
Y313780D01*
X154721D01*
Y311860D02*
Y313780D01*
Y299780D02*
Y301700D01*
X129321Y299780D02*
X154721D01*
X129321D02*
Y301700D01*
Y270780D02*
Y272700D01*
Y270780D02*
X154721D01*
Y272700D01*
Y282860D02*
Y284780D01*
X129321D02*
X154721D01*
X129321Y282860D02*
Y284780D01*
X142021Y270780D02*
Y284780D01*
X218000Y193000D02*
Y207000D01*
X204000Y204000D02*
Y207000D01*
X232000D01*
Y204000D02*
Y207000D01*
Y193000D02*
Y196000D01*
X204000Y193000D02*
X232000D01*
X204000D02*
Y196000D01*
X341040Y130911D02*
X359040D01*
X355040Y113911D02*
X359040D01*
Y147911D01*
X355040D02*
X359040D01*
X341040D02*
X345040D01*
X341040Y113911D02*
Y147911D01*
Y113911D02*
X345040D01*
X285700Y257080D02*
Y259000D01*
X260300D02*
X285700D01*
X260300Y257080D02*
Y259000D01*
Y245000D02*
Y246920D01*
Y245000D02*
X285700D01*
Y246920D01*
X273000Y245000D02*
Y259000D01*
X210700Y406080D02*
Y408000D01*
X185300D02*
X210700D01*
X185300Y406080D02*
Y408000D01*
Y394000D02*
Y395920D01*
Y394000D02*
X210700D01*
Y395920D01*
X198000Y394000D02*
Y408000D01*
X449080Y357300D02*
X451000D01*
Y382700D01*
X449080D02*
X451000D01*
X437000D02*
X438920D01*
X437000Y357300D02*
Y382700D01*
Y357300D02*
X438920D01*
X437000Y370000D02*
X451000D01*
X185300D02*
Y371920D01*
Y370000D02*
X210700D01*
Y371920D01*
Y382080D02*
Y384000D01*
X185300D02*
X210700D01*
X185300Y382080D02*
Y384000D01*
X198000Y370000D02*
Y384000D01*
X535300Y119000D02*
Y120920D01*
Y119000D02*
X560700D01*
Y120920D01*
Y131080D02*
Y133000D01*
X535300D02*
X560700D01*
X535300Y131080D02*
Y133000D01*
X548000Y119000D02*
Y133000D01*
X321700Y324080D02*
Y326000D01*
X296300D02*
X321700D01*
X296300Y324080D02*
Y326000D01*
Y312000D02*
Y313920D01*
Y312000D02*
X321700D01*
Y313920D01*
X309000Y312000D02*
Y326000D01*
X287000Y147000D02*
Y161000D01*
X274300Y159080D02*
Y161000D01*
X299700D01*
Y159080D02*
Y161000D01*
Y147000D02*
Y148920D01*
X274300Y147000D02*
X299700D01*
X274300D02*
Y148920D01*
X287000Y129000D02*
Y143000D01*
X299700Y129000D02*
Y130920D01*
X274300Y129000D02*
X299700D01*
X274300D02*
Y130920D01*
Y141080D02*
Y143000D01*
X299700D01*
Y141080D02*
Y143000D01*
X325000Y76000D02*
X327000D01*
Y42000D02*
Y76000D01*
X325000Y42000D02*
X327000D01*
X309000Y76000D02*
X311000D01*
X309000Y42000D02*
Y76000D01*
Y42000D02*
X311000D01*
X309000Y59000D02*
X327000D01*
X414250Y370500D02*
X428250D01*
X414250Y357800D02*
X416170D01*
X414250D02*
Y383200D01*
X416170D01*
X426330D02*
X428250D01*
Y357800D02*
Y383200D01*
X426330Y357800D02*
X428250D01*
X426080Y327363D02*
X428000D01*
Y352762D01*
X426080D02*
X428000D01*
X414000D02*
X415920D01*
X414000Y327363D02*
Y352762D01*
Y327363D02*
X415920D01*
X414000Y340062D02*
X428000D01*
X437000D02*
X451000D01*
X437000Y327363D02*
X438920D01*
X437000D02*
Y352762D01*
X438920D01*
X449080D02*
X451000D01*
Y327363D02*
Y352762D01*
X449080Y327363D02*
X451000D01*
X596059Y302000D02*
Y316000D01*
X608759Y302000D02*
Y303920D01*
X583359Y302000D02*
X608759D01*
X583359D02*
Y303920D01*
Y314080D02*
Y316000D01*
X608759D01*
Y314080D02*
Y316000D01*
X521000Y338000D02*
Y352000D01*
X508300Y350080D02*
Y352000D01*
X533700D01*
Y350080D02*
Y352000D01*
Y338000D02*
Y339920D01*
X508300Y338000D02*
X533700D01*
X508300D02*
Y339920D01*
X521000Y320000D02*
Y334000D01*
X533700Y320000D02*
Y321920D01*
X508300Y320000D02*
X533700D01*
X508300D02*
Y321920D01*
Y332080D02*
Y334000D01*
X533700D01*
Y332080D02*
Y334000D01*
X174300Y202484D02*
X176220D01*
X174300Y177083D02*
Y202484D01*
Y177083D02*
X176220D01*
X186380D02*
X188300D01*
Y202484D01*
X186380D02*
X188300D01*
X174300Y189783D02*
X188300D01*
X308628Y277508D02*
Y291508D01*
X321328Y277508D02*
Y279428D01*
X295928Y277508D02*
X321328D01*
X295928D02*
Y279428D01*
Y289588D02*
Y291508D01*
X321328D01*
Y289588D02*
Y291508D01*
X191000Y307000D02*
Y321000D01*
X178300Y319080D02*
Y321000D01*
X203700D01*
Y319080D02*
Y321000D01*
Y307000D02*
Y308920D01*
X178300Y307000D02*
X203700D01*
X178300D02*
Y308920D01*
X151080Y129800D02*
X153000D01*
Y155200D01*
X151080D02*
X153000D01*
X139000D02*
X140920D01*
X139000Y129800D02*
Y155200D01*
Y129800D02*
X140920D01*
X139000Y142500D02*
X153000D01*
X212080Y129300D02*
X214000D01*
Y154700D01*
X212080D02*
X214000D01*
X200000D02*
X201920D01*
X200000Y129300D02*
Y154700D01*
Y129300D02*
X201920D01*
X200000Y142000D02*
X214000D01*
X153000Y166000D02*
Y180000D01*
X165700Y166000D02*
Y167920D01*
X140300Y166000D02*
X165700D01*
X140300D02*
Y167920D01*
Y178080D02*
Y180000D01*
X165700D01*
Y178080D02*
Y180000D01*
X465040Y103000D02*
X479040D01*
X477120Y115700D02*
X479040D01*
Y90300D02*
Y115700D01*
X477120Y90300D02*
X479040D01*
X465040D02*
X466960D01*
X465040D02*
Y115700D01*
X466960D01*
X521000Y230700D02*
X522920D01*
X521000Y205300D02*
Y230700D01*
Y205300D02*
X522920D01*
X533080D02*
X535000D01*
Y230700D01*
X533080D02*
X535000D01*
X521000Y218000D02*
X535000D01*
X533080Y236300D02*
X535000D01*
Y261700D01*
X533080D02*
X535000D01*
X521000D02*
X522920D01*
X521000Y236300D02*
Y261700D01*
Y236300D02*
X522920D01*
X521000Y249000D02*
X535000D01*
X445000Y115700D02*
X446920D01*
X445000Y90300D02*
Y115700D01*
Y90300D02*
X446920D01*
X457080D02*
X459000D01*
Y115700D01*
X457080D02*
X459000D01*
X445000Y103000D02*
X459000D01*
X535151Y102100D02*
Y104020D01*
Y102100D02*
X560551D01*
Y104020D01*
Y114180D02*
Y116100D01*
X535151D02*
X560551D01*
X535151Y114180D02*
Y116100D01*
X547851Y102100D02*
Y116100D01*
X482000Y382762D02*
X483920D01*
X482000Y357363D02*
Y382762D01*
Y357363D02*
X483920D01*
X494080D02*
X496000D01*
Y382762D01*
X494080D02*
X496000D01*
X482000Y370062D02*
X496000D01*
X458000Y382762D02*
X459920D01*
X458000Y357363D02*
Y382762D01*
Y357363D02*
X459920D01*
X470080D02*
X472000D01*
Y382762D01*
X470080D02*
X472000D01*
X458000Y370062D02*
X472000D01*
X589616Y350001D02*
X591948D01*
X590782D01*
Y343004D01*
X589616D01*
X591948D01*
X600112D02*
X595447D01*
X600112Y347669D01*
Y348835D01*
X598946Y350001D01*
X596613D01*
X595447Y348835D01*
X607110D02*
X605943Y350001D01*
X603611D01*
X602445Y348835D01*
Y344170D01*
X603611Y343004D01*
X605943D01*
X607110Y344170D01*
X609442Y341837D02*
X614108D01*
X616440Y343004D02*
X618773D01*
X617607D01*
Y350001D01*
X616440Y348835D01*
X49500Y374500D02*
Y381498D01*
X52999D01*
X54165Y380331D01*
Y377999D01*
X52999Y376833D01*
X49500D01*
X56498Y381498D02*
Y374500D01*
X58830Y376833D01*
X61163Y374500D01*
Y381498D01*
X63495Y374500D02*
Y381498D01*
X66994D01*
X68161Y380331D01*
Y377999D01*
X66994Y376833D01*
X63495D01*
X65828D02*
X68161Y374500D01*
X587500Y208664D02*
X589833D01*
X588666D01*
Y201666D01*
X587500D01*
X589833D01*
X597997D02*
X593331D01*
X597997Y206331D01*
Y207498D01*
X596830Y208664D01*
X594498D01*
X593331Y207498D01*
X604994D02*
X603828Y208664D01*
X601496D01*
X600329Y207498D01*
Y202833D01*
X601496Y201666D01*
X603828D01*
X604994Y202833D01*
X607327Y200500D02*
X611992D01*
X618990Y201666D02*
X614325D01*
X618990Y206331D01*
Y207498D01*
X617824Y208664D01*
X615491D01*
X614325Y207498D01*
X436336Y19500D02*
X443334D01*
Y22999D01*
X442167Y24165D01*
X437502D01*
X436336Y22999D01*
Y19500D01*
Y26498D02*
X442167D01*
X443334Y27664D01*
Y29997D01*
X442167Y31163D01*
X436336D01*
X437502Y38161D02*
X436336Y36994D01*
Y34662D01*
X437502Y33496D01*
X438669D01*
X439835Y34662D01*
Y36994D01*
X441001Y38161D01*
X442167D01*
X443334Y36994D01*
Y34662D01*
X442167Y33496D01*
X436336Y40493D02*
Y45158D01*
Y42826D01*
X443334D01*
X444500Y47491D02*
Y52156D01*
X437502Y59154D02*
X436336Y57988D01*
Y55655D01*
X437502Y54489D01*
X438669D01*
X439835Y55655D01*
Y57988D01*
X441001Y59154D01*
X442167D01*
X443334Y57988D01*
Y55655D01*
X442167Y54489D01*
X443334Y61487D02*
X436336D01*
X443334Y66152D01*
X436336D01*
X437502Y73149D02*
X436336Y71983D01*
Y69651D01*
X437502Y68484D01*
X438669D01*
X439835Y69651D01*
Y71983D01*
X441001Y73149D01*
X442167D01*
X443334Y71983D01*
Y69651D01*
X442167Y68484D01*
X93670Y295499D02*
Y288501D01*
Y292000D01*
X98335D01*
Y295499D01*
Y288501D01*
X100667Y295499D02*
Y288501D01*
X105333D01*
X107665Y294333D02*
X108832Y295499D01*
X111164D01*
X112330Y294333D01*
Y293166D01*
X111164Y292000D01*
X109998D01*
X111164D01*
X112330Y290834D01*
Y289667D01*
X111164Y288501D01*
X108832D01*
X107665Y289667D01*
X240836Y171499D02*
Y166834D01*
X243169Y164501D01*
X245501Y166834D01*
Y171499D01*
X247834D02*
X252499D01*
X250166D01*
Y164501D01*
X254832D02*
X257164D01*
X255998D01*
Y171499D01*
X254832Y170333D01*
X193721Y344193D02*
Y339528D01*
X196053Y337196D01*
X198386Y339528D01*
Y344193D01*
X200718D02*
Y337196D01*
X204217D01*
X205383Y338362D01*
Y343027D01*
X204217Y344193D01*
X200718D01*
X207716Y343027D02*
X208882Y344193D01*
X211215D01*
X212381Y343027D01*
Y341861D01*
X211215Y340695D01*
X210049D01*
X211215D01*
X212381Y339528D01*
Y338362D01*
X211215Y337196D01*
X208882D01*
X207716Y338362D01*
X408670Y398501D02*
Y405499D01*
X412169D01*
X413335Y404333D01*
Y402000D01*
X412169Y400834D01*
X408670D01*
X411002D02*
X413335Y398501D01*
X415667Y404333D02*
X416834Y405499D01*
X419166D01*
X420333Y404333D01*
Y403166D01*
X419166Y402000D01*
X418000D01*
X419166D01*
X420333Y400834D01*
Y399667D01*
X419166Y398501D01*
X416834D01*
X415667Y399667D01*
X427330Y398501D02*
X422665D01*
X427330Y403166D01*
Y404333D01*
X426164Y405499D01*
X423831D01*
X422665Y404333D01*
X432670Y398501D02*
Y405499D01*
X436169D01*
X437335Y404333D01*
Y402000D01*
X436169Y400834D01*
X432670D01*
X435002D02*
X437335Y398501D01*
X444333D02*
X439667D01*
X444333Y403166D01*
Y404333D01*
X443166Y405499D01*
X440834D01*
X439667Y404333D01*
X446665D02*
X447831Y405499D01*
X450164D01*
X451330Y404333D01*
Y403166D01*
X450164Y402000D01*
X451330Y400834D01*
Y399667D01*
X450164Y398501D01*
X447831D01*
X446665Y399667D01*
Y400834D01*
X447831Y402000D01*
X446665Y403166D01*
Y404333D01*
X447831Y402000D02*
X450164D01*
X222499Y393253D02*
X215501D01*
Y396752D01*
X216667Y397918D01*
X219000D01*
X220166Y396752D01*
Y393253D01*
Y395585D02*
X222499Y397918D01*
Y400251D02*
Y402583D01*
Y401417D01*
X215501D01*
X216667Y400251D01*
Y406082D02*
X215501Y407248D01*
Y409581D01*
X216667Y410747D01*
X221333D01*
X222499Y409581D01*
Y407248D01*
X221333Y406082D01*
X216667D01*
X221499Y371169D02*
X214501D01*
Y374667D01*
X215667Y375834D01*
X218000D01*
X219166Y374667D01*
Y371169D01*
Y373501D02*
X221499Y375834D01*
X220333Y378166D02*
X221499Y379333D01*
Y381665D01*
X220333Y382831D01*
X215667D01*
X214501Y381665D01*
Y379333D01*
X215667Y378166D01*
X216834D01*
X218000Y379333D01*
Y382831D01*
X281169Y118501D02*
Y125499D01*
X284667D01*
X285834Y124333D01*
Y122000D01*
X284667Y120834D01*
X281169D01*
X283501D02*
X285834Y118501D01*
X292831D02*
X288166D01*
X292831Y123166D01*
Y124333D01*
X291665Y125499D01*
X289333D01*
X288166Y124333D01*
X282857Y164878D02*
Y171876D01*
X286356D01*
X287523Y170710D01*
Y168377D01*
X286356Y167211D01*
X282857D01*
X285190D02*
X287523Y164878D01*
X289855D02*
X292188D01*
X291021D01*
Y171876D01*
X289855Y170710D01*
X154335Y331499D02*
Y324501D01*
X159000D01*
X161333D02*
X163665D01*
X162499D01*
Y331499D01*
X161333Y330333D01*
X203836Y265499D02*
X208501D01*
Y264333D01*
X203836Y259667D01*
Y258501D01*
X208501D01*
X215499Y259667D02*
Y264333D01*
X214333Y265499D01*
X212000D01*
X210834Y264333D01*
Y259667D01*
X212000Y258501D01*
X214333D01*
X213166Y260834D02*
X215499Y258501D01*
X214333D02*
X215499Y259667D01*
X217831Y258501D02*
X220164D01*
X218998D01*
Y265499D01*
X217831Y264333D01*
X268834Y348333D02*
X267667Y349499D01*
X265335D01*
X264168Y348333D01*
Y343667D01*
X265335Y342501D01*
X267667D01*
X268834Y343667D01*
X275832Y349499D02*
X271166D01*
Y346000D01*
X273499Y347166D01*
X274665D01*
X275832Y346000D01*
Y343667D01*
X274665Y342501D01*
X272333D01*
X271166Y343667D01*
X299670Y330501D02*
Y337499D01*
X303169D01*
X304335Y336333D01*
Y334000D01*
X303169Y332834D01*
X299670D01*
X302002D02*
X304335Y330501D01*
X311333D02*
X306667D01*
X311333Y335166D01*
Y336333D01*
X310166Y337499D01*
X307834D01*
X306667Y336333D01*
X313665Y337499D02*
X318330D01*
Y336333D01*
X313665Y331667D01*
Y330501D01*
X172499Y260670D02*
X165501D01*
Y264168D01*
X166667Y265335D01*
X169000D01*
X170166Y264168D01*
Y260670D01*
Y263002D02*
X172499Y265335D01*
Y272333D02*
Y267667D01*
X167834Y272333D01*
X166667D01*
X165501Y271166D01*
Y268834D01*
X166667Y267667D01*
X165501Y279330D02*
X166667Y276998D01*
X169000Y274665D01*
X171332D01*
X172499Y275832D01*
Y278164D01*
X171332Y279330D01*
X170166D01*
X169000Y278164D01*
Y274665D01*
X172499Y290670D02*
X165501D01*
Y294168D01*
X166667Y295335D01*
X169000D01*
X170166Y294168D01*
Y290670D01*
Y293002D02*
X172499Y295335D01*
Y302333D02*
Y297667D01*
X167834Y302333D01*
X166667D01*
X165501Y301166D01*
Y298834D01*
X166667Y297667D01*
X172499Y308164D02*
X165501D01*
X169000Y304665D01*
Y309330D01*
X263670Y234501D02*
Y241499D01*
X267169D01*
X268335Y240333D01*
Y238000D01*
X267169Y236834D01*
X263670D01*
X266002D02*
X268335Y234501D01*
X275333D02*
X270667D01*
X275333Y239166D01*
Y240333D01*
X274166Y241499D01*
X271834D01*
X270667Y240333D01*
X282330Y234501D02*
X277665D01*
X282330Y239166D01*
Y240333D01*
X281164Y241499D01*
X278831D01*
X277665Y240333D01*
X180253Y324501D02*
Y331499D01*
X183752D01*
X184918Y330333D01*
Y328000D01*
X183752Y326834D01*
X180253D01*
X182585D02*
X184918Y324501D01*
X187251D02*
X189583D01*
X188417D01*
Y331499D01*
X187251Y330333D01*
X193082D02*
X194248Y331499D01*
X196581D01*
X197747Y330333D01*
Y329166D01*
X196581Y328000D01*
X197747Y326834D01*
Y325667D01*
X196581Y324501D01*
X194248D01*
X193082Y325667D01*
Y326834D01*
X194248Y328000D01*
X193082Y329166D01*
Y330333D01*
X194248Y328000D02*
X196581D01*
X317253Y295501D02*
Y302499D01*
X320752D01*
X321918Y301333D01*
Y299000D01*
X320752Y297834D01*
X317253D01*
X319585D02*
X321918Y295501D01*
X324251D02*
X326583D01*
X325417D01*
Y302499D01*
X324251Y301333D01*
X330082Y302499D02*
X334747D01*
Y301333D01*
X330082Y296667D01*
Y295501D01*
X228836Y331499D02*
Y324501D01*
X232335D01*
X233501Y325667D01*
Y330333D01*
X232335Y331499D01*
X228836D01*
X235834D02*
Y324501D01*
X239333D01*
X240499Y325667D01*
Y330333D01*
X239333Y331499D01*
X235834D01*
X242831Y324501D02*
X245164D01*
X243998D01*
Y331499D01*
X242831Y330333D01*
X360335Y375333D02*
X359169Y376499D01*
X356836D01*
X355670Y375333D01*
Y370667D01*
X356836Y369501D01*
X359169D01*
X360335Y370667D01*
X367333Y369501D02*
X362667D01*
X367333Y374166D01*
Y375333D01*
X366166Y376499D01*
X363834D01*
X362667Y375333D01*
X369665D02*
X370831Y376499D01*
X373164D01*
X374330Y375333D01*
Y370667D01*
X373164Y369501D01*
X370831D01*
X369665Y370667D01*
Y375333D01*
X412918Y288333D02*
X411752Y289499D01*
X409419D01*
X408253Y288333D01*
Y283667D01*
X409419Y282501D01*
X411752D01*
X412918Y283667D01*
X415251Y282501D02*
X417583D01*
X416417D01*
Y289499D01*
X415251Y288333D01*
X425747Y289499D02*
X421082D01*
Y286000D01*
X423415Y287166D01*
X424581D01*
X425747Y286000D01*
Y283667D01*
X424581Y282501D01*
X422248D01*
X421082Y283667D01*
X414084Y305333D02*
X412918Y306499D01*
X410585D01*
X409419Y305333D01*
Y300667D01*
X410585Y299501D01*
X412918D01*
X414084Y300667D01*
X416417Y299501D02*
X418750D01*
X417583D01*
Y306499D01*
X416417Y305333D01*
X422248Y299501D02*
X424581D01*
X423415D01*
Y306499D01*
X422248Y305333D01*
X413834Y322333D02*
X412667Y323499D01*
X410335D01*
X409169Y322333D01*
Y317667D01*
X410335Y316501D01*
X412667D01*
X413834Y317667D01*
X416166Y323499D02*
X420831D01*
Y322333D01*
X416166Y317667D01*
Y316501D01*
X589501Y60670D02*
X596499Y65335D01*
X589501D02*
X596499Y60670D01*
Y67667D02*
X589501D01*
Y71166D01*
X590667Y72333D01*
X593000D01*
X594166Y71166D01*
Y67667D01*
X589501Y74665D02*
Y79330D01*
X590667D01*
X595333Y74665D01*
X596499D01*
X489670Y429499D02*
X494335Y422501D01*
Y429499D02*
X489670Y422501D01*
X496667D02*
Y429499D01*
X500166D01*
X501333Y428333D01*
Y426000D01*
X500166Y424834D01*
X496667D01*
X503665Y428333D02*
X504832Y429499D01*
X507164D01*
X508330Y428333D01*
Y427166D01*
X507164Y426000D01*
X505998D01*
X507164D01*
X508330Y424834D01*
Y423667D01*
X507164Y422501D01*
X504832D01*
X503665Y423667D01*
X514335Y167499D02*
X509670D01*
Y164000D01*
X512002D01*
X509670D01*
Y160501D01*
X516667Y167499D02*
Y161667D01*
X517834Y160501D01*
X520166D01*
X521333Y161667D01*
Y167499D01*
X528330Y160501D02*
X523665D01*
X528330Y165166D01*
Y166333D01*
X527164Y167499D01*
X524832D01*
X523665Y166333D01*
X290501Y87499D02*
X285836D01*
Y84000D01*
X288169D01*
X285836D01*
Y80501D01*
X292834Y87499D02*
Y81667D01*
X294000Y80501D01*
X296333D01*
X297499Y81667D01*
Y87499D01*
X299832Y80501D02*
X302164D01*
X300998D01*
Y87499D01*
X299832Y86333D01*
X343168Y109499D02*
Y102501D01*
X347834D01*
X354831D02*
X350166D01*
X354831Y107166D01*
Y108333D01*
X353665Y109499D01*
X351333D01*
X350166Y108333D01*
X145836Y418499D02*
Y411501D01*
X149335D01*
X150501Y412667D01*
Y417333D01*
X149335Y418499D01*
X145836D01*
X152834Y411501D02*
Y416166D01*
X155166Y418499D01*
X157499Y416166D01*
Y411501D01*
Y415000D01*
X152834D01*
X159831Y411501D02*
X162164D01*
X160998D01*
Y418499D01*
X159831Y417333D01*
X611501Y81670D02*
X618499Y86335D01*
X611501D02*
X618499Y81670D01*
Y88667D02*
X611501D01*
Y92166D01*
X612667Y93333D01*
X615000D01*
X616166Y92166D01*
Y88667D01*
X611501Y100330D02*
X612667Y97998D01*
X615000Y95665D01*
X617332D01*
X618499Y96832D01*
Y99164D01*
X617332Y100330D01*
X616166D01*
X615000Y99164D01*
Y95665D01*
X611501Y227170D02*
X618499Y231835D01*
X611501D02*
X618499Y227170D01*
Y234167D02*
X611501D01*
Y237666D01*
X612667Y238833D01*
X615000D01*
X616166Y237666D01*
Y234167D01*
X611501Y245830D02*
Y241165D01*
X615000D01*
X613834Y243498D01*
Y244664D01*
X615000Y245830D01*
X617332D01*
X618499Y244664D01*
Y242332D01*
X617332Y241165D01*
X52670Y273499D02*
X57335Y266501D01*
Y273499D02*
X52670Y266501D01*
X59667D02*
Y273499D01*
X63166D01*
X64333Y272333D01*
Y270000D01*
X63166Y268834D01*
X59667D01*
X71330Y266501D02*
X66665D01*
X71330Y271166D01*
Y272333D01*
X70164Y273499D01*
X67832D01*
X66665Y272333D01*
X42670Y86499D02*
X47335Y79501D01*
Y86499D02*
X42670Y79501D01*
X49667D02*
Y86499D01*
X53166D01*
X54333Y85333D01*
Y83000D01*
X53166Y81834D01*
X49667D01*
X60164Y79501D02*
Y86499D01*
X56665Y83000D01*
X61330D01*
X7836Y380499D02*
X12501Y373501D01*
Y380499D02*
X7836Y373501D01*
X14834D02*
Y380499D01*
X18333D01*
X19499Y379333D01*
Y377000D01*
X18333Y375834D01*
X14834D01*
X21832Y373501D02*
X24164D01*
X22998D01*
Y380499D01*
X21832Y379333D01*
X497670Y132499D02*
Y127834D01*
X500002Y125501D01*
X502335Y127834D01*
Y132499D01*
X504667D02*
X509333D01*
X507000D01*
Y125501D01*
X515164D02*
Y132499D01*
X511665Y129000D01*
X516330D01*
X166670Y121499D02*
Y116834D01*
X169002Y114501D01*
X171335Y116834D01*
Y121499D01*
X173667D02*
X178333D01*
X176000D01*
Y114501D01*
X180665Y120333D02*
X181831Y121499D01*
X184164D01*
X185330Y120333D01*
Y119166D01*
X184164Y118000D01*
X182998D01*
X184164D01*
X185330Y116834D01*
Y115667D01*
X184164Y114501D01*
X181831D01*
X180665Y115667D01*
X131970Y231465D02*
Y226800D01*
X134302Y224467D01*
X136635Y226800D01*
Y231465D01*
X138968D02*
X143633D01*
X141300D01*
Y224467D01*
X150630D02*
X145965D01*
X150630Y229132D01*
Y230299D01*
X149464Y231465D01*
X147132D01*
X145965Y230299D01*
X551526Y260499D02*
Y255834D01*
X553859Y253501D01*
X556192Y255834D01*
Y260499D01*
X558524D02*
Y253501D01*
X562023D01*
X563189Y254667D01*
Y259333D01*
X562023Y260499D01*
X558524D01*
X569021Y253501D02*
Y260499D01*
X565522Y257000D01*
X570187D01*
X559836Y361499D02*
Y356834D01*
X562169Y354501D01*
X564501Y356834D01*
Y361499D01*
X566834D02*
Y354501D01*
X570333D01*
X571499Y355667D01*
Y360333D01*
X570333Y361499D01*
X566834D01*
X573831Y354501D02*
X576164D01*
X574998D01*
Y361499D01*
X573831Y360333D01*
X92670Y227499D02*
Y222834D01*
X95002Y220501D01*
X97335Y222834D01*
Y227499D01*
X99667D02*
Y220501D01*
X103166D01*
X104333Y221667D01*
Y226333D01*
X103166Y227499D01*
X99667D01*
X111330Y220501D02*
X106665D01*
X111330Y225166D01*
Y226333D01*
X110164Y227499D01*
X107831D01*
X106665Y226333D01*
X409670Y387501D02*
Y394499D01*
X413168D01*
X414335Y393333D01*
Y391000D01*
X413168Y389834D01*
X409670D01*
X412002D02*
X414335Y387501D01*
X416667Y393333D02*
X417834Y394499D01*
X420166D01*
X421333Y393333D01*
Y392166D01*
X420166Y391000D01*
X419000D01*
X420166D01*
X421333Y389834D01*
Y388667D01*
X420166Y387501D01*
X417834D01*
X416667Y388667D01*
X423665Y393333D02*
X424832Y394499D01*
X427164D01*
X428330Y393333D01*
Y392166D01*
X427164Y391000D01*
X425998D01*
X427164D01*
X428330Y389834D01*
Y388667D01*
X427164Y387501D01*
X424832D01*
X423665Y388667D01*
X456836Y398564D02*
Y405561D01*
X460335D01*
X461501Y404395D01*
Y402062D01*
X460335Y400896D01*
X456836D01*
X459169D02*
X461501Y398564D01*
X463834Y404395D02*
X465000Y405561D01*
X467333D01*
X468499Y404395D01*
Y403229D01*
X467333Y402062D01*
X466166D01*
X467333D01*
X468499Y400896D01*
Y399730D01*
X467333Y398564D01*
X465000D01*
X463834Y399730D01*
X470831Y398564D02*
X473164D01*
X471998D01*
Y405561D01*
X470831Y404395D01*
X479670Y397501D02*
Y404499D01*
X483169D01*
X484335Y403333D01*
Y401000D01*
X483169Y399834D01*
X479670D01*
X482002D02*
X484335Y397501D01*
X486667Y403333D02*
X487834Y404499D01*
X490166D01*
X491333Y403333D01*
Y402166D01*
X490166Y401000D01*
X489000D01*
X490166D01*
X491333Y399834D01*
Y398667D01*
X490166Y397501D01*
X487834D01*
X486667Y398667D01*
X493665Y403333D02*
X494832Y404499D01*
X497164D01*
X498330Y403333D01*
Y398667D01*
X497164Y397501D01*
X494832D01*
X493665Y398667D01*
Y403333D01*
X432670Y387501D02*
Y394499D01*
X436169D01*
X437335Y393333D01*
Y391000D01*
X436169Y389834D01*
X432670D01*
X435002D02*
X437335Y387501D01*
X444333D02*
X439667D01*
X444333Y392166D01*
Y393333D01*
X443166Y394499D01*
X440834D01*
X439667Y393333D01*
X446665Y388667D02*
X447831Y387501D01*
X450164D01*
X451330Y388667D01*
Y393333D01*
X450164Y394499D01*
X447831D01*
X446665Y393333D01*
Y392166D01*
X447831Y391000D01*
X451330D01*
X565670Y122501D02*
Y129499D01*
X569169D01*
X570335Y128333D01*
Y126000D01*
X569169Y124834D01*
X565670D01*
X568002D02*
X570335Y122501D01*
X577333D02*
X572667D01*
X577333Y127166D01*
Y128333D01*
X576166Y129499D01*
X573834D01*
X572667Y128333D01*
X584330Y129499D02*
X579665D01*
Y126000D01*
X581998Y127166D01*
X583164D01*
X584330Y126000D01*
Y123667D01*
X583164Y122501D01*
X580831D01*
X579665Y123667D01*
X565670Y105501D02*
Y112499D01*
X569169D01*
X570335Y111333D01*
Y109000D01*
X569169Y107834D01*
X565670D01*
X568002D02*
X570335Y105501D01*
X577333D02*
X572667D01*
X577333Y110166D01*
Y111333D01*
X576166Y112499D01*
X573834D01*
X572667Y111333D01*
X579665D02*
X580831Y112499D01*
X583164D01*
X584330Y111333D01*
Y110166D01*
X583164Y109000D01*
X581998D01*
X583164D01*
X584330Y107834D01*
Y106667D01*
X583164Y105501D01*
X580831D01*
X579665Y106667D01*
X130836Y288501D02*
Y295499D01*
X134335D01*
X135501Y294333D01*
Y292000D01*
X134335Y290834D01*
X130836D01*
X133168D02*
X135501Y288501D01*
X142499D02*
X137834D01*
X142499Y293166D01*
Y294333D01*
X141333Y295499D01*
X139000D01*
X137834Y294333D01*
X144831Y288501D02*
X147164D01*
X145998D01*
Y295499D01*
X144831Y294333D01*
X129670Y317501D02*
Y324499D01*
X133168D01*
X134335Y323333D01*
Y321000D01*
X133168Y319834D01*
X129670D01*
X132002D02*
X134335Y317501D01*
X141333D02*
X136667D01*
X141333Y322166D01*
Y323333D01*
X140166Y324499D01*
X137834D01*
X136667Y323333D01*
X143665D02*
X144831Y324499D01*
X147164D01*
X148330Y323333D01*
Y318667D01*
X147164Y317501D01*
X144831D01*
X143665Y318667D01*
Y323333D01*
X130253Y259501D02*
Y266499D01*
X133752D01*
X134918Y265333D01*
Y263000D01*
X133752Y261834D01*
X130253D01*
X132585D02*
X134918Y259501D01*
X137251D02*
X139583D01*
X138417D01*
Y266499D01*
X137251Y265333D01*
X143082Y260667D02*
X144248Y259501D01*
X146581D01*
X147747Y260667D01*
Y265333D01*
X146581Y266499D01*
X144248D01*
X143082Y265333D01*
Y264166D01*
X144248Y263000D01*
X147747D01*
X585253Y319501D02*
Y326499D01*
X588752D01*
X589918Y325333D01*
Y323000D01*
X588752Y321834D01*
X585253D01*
X587585D02*
X589918Y319501D01*
X592251D02*
X594583D01*
X593417D01*
Y326499D01*
X592251Y325333D01*
X602747Y326499D02*
X600415Y325333D01*
X598082Y323000D01*
Y320667D01*
X599248Y319501D01*
X601581D01*
X602747Y320667D01*
Y321834D01*
X601581Y323000D01*
X598082D01*
X516499Y240753D02*
X509501D01*
Y244252D01*
X510667Y245418D01*
X513000D01*
X514166Y244252D01*
Y240753D01*
Y243085D02*
X516499Y245418D01*
Y247751D02*
Y250083D01*
Y248917D01*
X509501D01*
X510667Y247751D01*
X509501Y258247D02*
Y253582D01*
X513000D01*
X511834Y255915D01*
Y257081D01*
X513000Y258247D01*
X515333D01*
X516499Y257081D01*
Y254748D01*
X515333Y253582D01*
X516499Y208253D02*
X509501D01*
Y211752D01*
X510667Y212918D01*
X513000D01*
X514166Y211752D01*
Y208253D01*
Y210585D02*
X516499Y212918D01*
Y215250D02*
Y217583D01*
Y216417D01*
X509501D01*
X510667Y215250D01*
X516499Y224581D02*
X509501D01*
X513000Y221082D01*
Y225747D01*
X465253Y119501D02*
Y126499D01*
X468752D01*
X469918Y125333D01*
Y123000D01*
X468752Y121834D01*
X465253D01*
X467585D02*
X469918Y119501D01*
X472251D02*
X474583D01*
X473417D01*
Y126499D01*
X472251Y125333D01*
X478082D02*
X479248Y126499D01*
X481581D01*
X482747Y125333D01*
Y124166D01*
X481581Y123000D01*
X480415D01*
X481581D01*
X482747Y121834D01*
Y120667D01*
X481581Y119501D01*
X479248D01*
X478082Y120667D01*
X442253Y119501D02*
Y126499D01*
X445752D01*
X446918Y125333D01*
Y123000D01*
X445752Y121834D01*
X442253D01*
X444585D02*
X446918Y119501D01*
X449251D02*
X451583D01*
X450417D01*
Y126499D01*
X449251Y125333D01*
X459747Y119501D02*
X455082D01*
X459747Y124166D01*
Y125333D01*
X458581Y126499D01*
X456248D01*
X455082Y125333D01*
X310419Y79501D02*
Y86499D01*
X313918D01*
X315084Y85333D01*
Y83000D01*
X313918Y81834D01*
X310419D01*
X312752D02*
X315084Y79501D01*
X317417D02*
X319749D01*
X318583D01*
Y86499D01*
X317417Y85333D01*
X323248Y79501D02*
X325581D01*
X324415D01*
Y86499D01*
X323248Y85333D01*
X201168Y158501D02*
Y165499D01*
X204667D01*
X205834Y164333D01*
Y162000D01*
X204667Y160834D01*
X201168D01*
X203501D02*
X205834Y158501D01*
X208166Y164333D02*
X209333Y165499D01*
X211665D01*
X212831Y164333D01*
Y163166D01*
X211665Y162000D01*
X212831Y160834D01*
Y159667D01*
X211665Y158501D01*
X209333D01*
X208166Y159667D01*
Y160834D01*
X209333Y162000D01*
X208166Y163166D01*
Y164333D01*
X209333Y162000D02*
X211665D01*
X121168Y138501D02*
Y145499D01*
X124667D01*
X125834Y144333D01*
Y142000D01*
X124667Y140834D01*
X121168D01*
X123501D02*
X125834Y138501D01*
X128166Y145499D02*
X132831D01*
Y144333D01*
X128166Y139667D01*
Y138501D01*
X173169Y206501D02*
Y213499D01*
X176667D01*
X177834Y212333D01*
Y210000D01*
X176667Y208834D01*
X173169D01*
X175501D02*
X177834Y206501D01*
X184832Y213499D02*
X182499Y212333D01*
X180166Y210000D01*
Y207667D01*
X181333Y206501D01*
X183665D01*
X184832Y207667D01*
Y208834D01*
X183665Y210000D01*
X180166D01*
X515168Y298501D02*
Y305499D01*
X518667D01*
X519834Y304333D01*
Y302000D01*
X518667Y300834D01*
X515168D01*
X517501D02*
X519834Y298501D01*
X526832Y305499D02*
X522166D01*
Y302000D01*
X524499Y303166D01*
X525665D01*
X526832Y302000D01*
Y299667D01*
X525665Y298501D01*
X523333D01*
X522166Y299667D01*
X123168Y169501D02*
Y176499D01*
X126667D01*
X127834Y175333D01*
Y173000D01*
X126667Y171834D01*
X123168D01*
X125501D02*
X127834Y169501D01*
X133665D02*
Y176499D01*
X130166Y173000D01*
X134831D01*
X515168Y309501D02*
Y316499D01*
X518667D01*
X519834Y315333D01*
Y313000D01*
X518667Y311834D01*
X515168D01*
X517501D02*
X519834Y309501D01*
X522166Y315333D02*
X523333Y316499D01*
X525665D01*
X526832Y315333D01*
Y314166D01*
X525665Y313000D01*
X524499D01*
X525665D01*
X526832Y311834D01*
Y310667D01*
X525665Y309501D01*
X523333D01*
X522166Y310667D01*
X93670Y324499D02*
Y317501D01*
Y321000D01*
X98335D01*
Y324499D01*
Y317501D01*
X100667Y324499D02*
Y317501D01*
X105333D01*
X112330D02*
X107665D01*
X112330Y322166D01*
Y323333D01*
X111164Y324499D01*
X108832D01*
X107665Y323333D01*
X93836Y266499D02*
Y259501D01*
Y263000D01*
X98501D01*
Y266499D01*
Y259501D01*
X100834Y266499D02*
Y259501D01*
X105499D01*
X107831D02*
X110164D01*
X108998D01*
Y266499D01*
X107831Y265333D01*
X380853Y268499D02*
Y261501D01*
X384352D01*
X385518Y262667D01*
Y267333D01*
X384352Y268499D01*
X380853D01*
X387851D02*
Y261501D01*
X391349D01*
X392516Y262667D01*
Y267333D01*
X391349Y268499D01*
X387851D01*
X399514Y261501D02*
X394848D01*
X399514Y266166D01*
Y267333D01*
X398347Y268499D01*
X396015D01*
X394848Y267333D01*
X314335Y409333D02*
X313169Y410499D01*
X310836D01*
X309670Y409333D01*
Y404667D01*
X310836Y403501D01*
X313169D01*
X314335Y404667D01*
X321333Y403501D02*
X316667D01*
X321333Y408166D01*
Y409333D01*
X320166Y410499D01*
X317834D01*
X316667Y409333D01*
X327164Y403501D02*
Y410499D01*
X323665Y407000D01*
X328330D01*
X460335Y393395D02*
X459169Y394561D01*
X456836D01*
X455670Y393395D01*
Y388730D01*
X456836Y387564D01*
X459169D01*
X460335Y388730D01*
X467333Y387564D02*
X462667D01*
X467333Y392229D01*
Y393395D01*
X466166Y394561D01*
X463834D01*
X462667Y393395D01*
X469665D02*
X470831Y394561D01*
X473164D01*
X474330Y393395D01*
Y392229D01*
X473164Y391063D01*
X471998D01*
X473164D01*
X474330Y389896D01*
Y388730D01*
X473164Y387564D01*
X470831D01*
X469665Y388730D01*
X484335Y321333D02*
X483169Y322499D01*
X480836D01*
X479670Y321333D01*
Y316667D01*
X480836Y315501D01*
X483169D01*
X484335Y316667D01*
X491333Y315501D02*
X486667D01*
X491333Y320166D01*
Y321333D01*
X490166Y322499D01*
X487834D01*
X486667Y321333D01*
X498330Y315501D02*
X493665D01*
X498330Y320166D01*
Y321333D01*
X497164Y322499D01*
X494832D01*
X493665Y321333D01*
X319501Y132333D02*
X318335Y133499D01*
X316002D01*
X314836Y132333D01*
Y127667D01*
X316002Y126501D01*
X318335D01*
X319501Y127667D01*
X326499Y126501D02*
X321834D01*
X326499Y131166D01*
Y132333D01*
X325333Y133499D01*
X323000D01*
X321834Y132333D01*
X328831Y126501D02*
X331164D01*
X329998D01*
Y133499D01*
X328831Y132333D01*
X473918Y215333D02*
X472752Y216499D01*
X470419D01*
X469253Y215333D01*
Y210667D01*
X470419Y209501D01*
X472752D01*
X473918Y210667D01*
X476251Y209501D02*
X478583D01*
X477417D01*
Y216499D01*
X476251Y215333D01*
X482082Y210667D02*
X483248Y209501D01*
X485581D01*
X486747Y210667D01*
Y215333D01*
X485581Y216499D01*
X483248D01*
X482082Y215333D01*
Y214166D01*
X483248Y213000D01*
X486747D01*
X473918Y297333D02*
X472752Y298499D01*
X470419D01*
X469253Y297333D01*
Y292667D01*
X470419Y291501D01*
X472752D01*
X473918Y292667D01*
X476251Y291501D02*
X478583D01*
X477417D01*
Y298499D01*
X476251Y297333D01*
X482082D02*
X483248Y298499D01*
X485581D01*
X486747Y297333D01*
Y296166D01*
X485581Y295000D01*
X486747Y293834D01*
Y292667D01*
X485581Y291501D01*
X483248D01*
X482082Y292667D01*
Y293834D01*
X483248Y295000D01*
X482082Y296166D01*
Y297333D01*
X483248Y295000D02*
X485581D01*
X473918Y176333D02*
X472752Y177499D01*
X470419D01*
X469253Y176333D01*
Y171667D01*
X470419Y170501D01*
X472752D01*
X473918Y171667D01*
X476251Y170501D02*
X478583D01*
X477417D01*
Y177499D01*
X476251Y176333D01*
X482082Y177499D02*
X486747D01*
Y176333D01*
X482082Y171667D01*
Y170501D01*
X473918Y199333D02*
X472752Y200499D01*
X470419D01*
X469253Y199333D01*
Y194667D01*
X470419Y193501D01*
X472752D01*
X473918Y194667D01*
X476251Y193501D02*
X478583D01*
X477417D01*
Y200499D01*
X476251Y199333D01*
X486747Y200499D02*
X484415Y199333D01*
X482082Y197000D01*
Y194667D01*
X483248Y193501D01*
X485581D01*
X486747Y194667D01*
Y195834D01*
X485581Y197000D01*
X482082D01*
X183918Y256333D02*
X182752Y257499D01*
X180419D01*
X179253Y256333D01*
Y251667D01*
X180419Y250501D01*
X182752D01*
X183918Y251667D01*
X186251Y250501D02*
X188583D01*
X187417D01*
Y257499D01*
X186251Y256333D01*
X195581Y250501D02*
Y257499D01*
X192082Y254000D01*
X196747D01*
X473918Y232333D02*
X472752Y233499D01*
X470419D01*
X469253Y232333D01*
Y227667D01*
X470419Y226501D01*
X472752D01*
X473918Y227667D01*
X476251Y226501D02*
X478583D01*
X477417D01*
Y233499D01*
X476251Y232333D01*
X482082D02*
X483248Y233499D01*
X485581D01*
X486747Y232333D01*
Y231166D01*
X485581Y230000D01*
X484415D01*
X485581D01*
X486747Y228834D01*
Y227667D01*
X485581Y226501D01*
X483248D01*
X482082Y227667D01*
X252918Y202333D02*
X251752Y203499D01*
X249419D01*
X248253Y202333D01*
Y197667D01*
X249419Y196501D01*
X251752D01*
X252918Y197667D01*
X255251Y196501D02*
X257583D01*
X256417D01*
Y203499D01*
X255251Y202333D01*
X265747Y196501D02*
X261082D01*
X265747Y201166D01*
Y202333D01*
X264581Y203499D01*
X262248D01*
X261082Y202333D01*
X374918Y107333D02*
X373752Y108499D01*
X371419D01*
X370253Y107333D01*
Y102667D01*
X371419Y101501D01*
X373752D01*
X374918Y102667D01*
X377251Y101501D02*
X379583D01*
X378417D01*
Y108499D01*
X377251Y107333D01*
X383082D02*
X384248Y108499D01*
X386581D01*
X387747Y107333D01*
Y102667D01*
X386581Y101501D01*
X384248D01*
X383082Y102667D01*
Y107333D01*
X351834Y300333D02*
X350667Y301499D01*
X348335D01*
X347169Y300333D01*
Y295667D01*
X348335Y294501D01*
X350667D01*
X351834Y295667D01*
X354166D02*
X355333Y294501D01*
X357665D01*
X358831Y295667D01*
Y300333D01*
X357665Y301499D01*
X355333D01*
X354166Y300333D01*
Y299166D01*
X355333Y298000D01*
X358831D01*
X215834Y187333D02*
X214667Y188499D01*
X212335D01*
X211168Y187333D01*
Y182667D01*
X212335Y181501D01*
X214667D01*
X215834Y182667D01*
X218166Y187333D02*
X219333Y188499D01*
X221665D01*
X222831Y187333D01*
Y186166D01*
X221665Y185000D01*
X222831Y183834D01*
Y182667D01*
X221665Y181501D01*
X219333D01*
X218166Y182667D01*
Y183834D01*
X219333Y185000D01*
X218166Y186166D01*
Y187333D01*
X219333Y185000D02*
X221665D01*
X521834Y146333D02*
X520667Y147499D01*
X518335D01*
X517169Y146333D01*
Y141667D01*
X518335Y140501D01*
X520667D01*
X521834Y141667D01*
X528831Y147499D02*
X526499Y146333D01*
X524166Y144000D01*
Y141667D01*
X525333Y140501D01*
X527665D01*
X528831Y141667D01*
Y142834D01*
X527665Y144000D01*
X524166D01*
X570834Y94333D02*
X569667Y95499D01*
X567335D01*
X566169Y94333D01*
Y89667D01*
X567335Y88501D01*
X569667D01*
X570834Y89667D01*
X576665Y88501D02*
Y95499D01*
X573166Y92000D01*
X577831D01*
X340834Y85333D02*
X339667Y86499D01*
X337335D01*
X336169Y85333D01*
Y80667D01*
X337335Y79501D01*
X339667D01*
X340834Y80667D01*
X343166Y85333D02*
X344333Y86499D01*
X346665D01*
X347831Y85333D01*
Y84166D01*
X346665Y83000D01*
X345499D01*
X346665D01*
X347831Y81834D01*
Y80667D01*
X346665Y79501D01*
X344333D01*
X343166Y80667D01*
X264834Y409333D02*
X263667Y410499D01*
X261335D01*
X260168Y409333D01*
Y404667D01*
X261335Y403501D01*
X263667D01*
X264834Y404667D01*
X271831Y403501D02*
X267166D01*
X271831Y408166D01*
Y409333D01*
X270665Y410499D01*
X268333D01*
X267166Y409333D01*
X125000Y411333D02*
X123834Y412499D01*
X121501D01*
X120335Y411333D01*
Y406667D01*
X121501Y405501D01*
X123834D01*
X125000Y406667D01*
X127333Y405501D02*
X129665D01*
X128499D01*
Y412499D01*
X127333Y411333D01*
D11*
X389000Y433000D02*
G03*
X387000Y435000I-2000J0D01*
G01*
Y417000D02*
G03*
X389000Y419000I0J2000D01*
G01*
X325000Y435000D02*
G03*
X323000Y433000I0J-2000D01*
G01*
Y419000D02*
G03*
X325000Y417000I2000J0D01*
G01*
X118521Y287780D02*
G03*
X118521Y287780I-500J0D01*
G01*
X118521Y258780D02*
G03*
X118521Y258780I-500J0D01*
G01*
X119021Y316780D02*
G03*
X119021Y316780I-500J0D01*
G01*
X163500Y380000D02*
G03*
X159000Y375500I0J-4500D01*
G01*
X240000Y311000D02*
G03*
X245000Y316000I0J5000D01*
G01*
X325000Y417000D02*
X387000D01*
X325000Y435000D02*
X387000D01*
X389000Y419000D02*
Y433000D01*
X323000Y419000D02*
Y433000D01*
X190686Y135083D02*
Y145083D01*
X182186Y135083D02*
X190686D01*
X159686D02*
Y145083D01*
Y135083D02*
X168186D01*
X172186Y149083D02*
X178186D01*
X309500Y355500D02*
X316500D01*
X283500D02*
X290500D01*
X309500Y398500D02*
X321500D01*
X278500D02*
X290500D01*
X316500Y355500D02*
X321500Y360500D01*
X278500D02*
X283500Y355500D01*
X321500Y360500D02*
Y398500D01*
X278500Y360500D02*
Y398500D01*
X264500Y135000D02*
Y145000D01*
X256000Y135000D02*
X264500D01*
X233500D02*
Y145000D01*
Y135000D02*
X242000D01*
X246000Y149000D02*
X252000D01*
X399183Y169000D02*
Y176000D01*
X392183Y169000D02*
X399183Y169000D01*
X315183Y169000D02*
X322183Y169000D01*
X315183Y176000D02*
X315183Y169000D01*
X315183Y253000D02*
X315183Y246000D01*
X315183Y253000D02*
X322183Y253000D01*
X399183Y246000D02*
Y253000D01*
X392183D02*
X399183D01*
X563000Y155500D02*
Y160500D01*
X533000Y155500D02*
X563000D01*
X533000D02*
Y160500D01*
X563000Y165500D02*
Y170500D01*
X533000D02*
X563000D01*
X533000Y165500D02*
Y170500D01*
X297500Y76000D02*
X302500D01*
Y46000D02*
Y76000D01*
X297500Y46000D02*
X302500D01*
X287500Y76000D02*
X292500D01*
X287500Y46000D02*
Y76000D01*
Y46000D02*
X292500D01*
X147510Y211257D02*
X153510D01*
X135010Y197257D02*
X143510D01*
X135010D02*
Y207257D01*
X157510Y197257D02*
X166010D01*
Y207257D01*
X487330Y99910D02*
Y109910D01*
X495830D01*
X518330Y99910D02*
Y109910D01*
X509830D02*
X518330D01*
X499830Y95910D02*
X505830D01*
X236000Y222000D02*
Y254000D01*
X202000D02*
X236000D01*
X202000Y212000D02*
Y254000D01*
Y212000D02*
X234000D01*
X236000Y214000D01*
Y222000D01*
X458683Y287500D02*
X496683D01*
X458683Y244500D02*
X496683D01*
X453683Y282500D02*
X458683Y287500D01*
X453683Y249500D02*
X458683Y244500D01*
X496683Y287500D02*
X496683Y275500D01*
X496683Y244500D02*
X496683Y256500D01*
X453683Y275500D02*
X453683Y282500D01*
X453683Y256500D02*
X453683Y249500D01*
X117500Y355500D02*
X124500D01*
X91500D02*
X98500D01*
X117500Y398500D02*
X129500D01*
X86500D02*
X98500D01*
X124500Y355500D02*
X129500Y360500D01*
X86500D02*
X91500Y355500D01*
X129500Y360500D02*
Y398500D01*
X86500Y360500D02*
Y398500D01*
X348000Y24875D02*
Y40500D01*
Y59500D02*
Y75125D01*
X414000Y17000D02*
Y40500D01*
Y59500D02*
Y83000D01*
X348000Y24875D02*
X355875Y17000D01*
X348000Y75125D02*
X355875Y83000D01*
Y17000D02*
X414000D01*
X355875Y83000D02*
X414000D01*
X139000Y369500D02*
X179000D01*
X139000Y336500D02*
X179000D01*
X194000Y364000D02*
X212000D01*
X194000Y350000D02*
X212000D01*
X154000Y375500D02*
Y406500D01*
X164000Y375500D02*
Y406500D01*
X154000D02*
X164000D01*
X154000Y375500D02*
X164000D01*
X163500Y380000D02*
X164000D01*
X240000Y266000D02*
X272000D01*
Y316000D01*
X243000D02*
X272000D01*
X240000Y313000D02*
X243000Y316000D01*
X240000Y266000D02*
Y313000D01*
X574500Y326000D02*
Y336000D01*
X566000Y326000D02*
X574500D01*
X543500D02*
Y336000D01*
Y326000D02*
X552000D01*
X556000Y340000D02*
X562000D01*
X97000Y214500D02*
X107000D01*
Y206000D02*
Y214500D01*
X97000Y183500D02*
X107000D01*
Y192000D01*
X93000Y196000D02*
Y202000D01*
X359500Y317500D02*
X366500Y317500D01*
X333500D02*
X340500Y317500D01*
X359500Y360500D02*
X371500Y360500D01*
X328500D02*
X340500Y360500D01*
X366500Y317500D02*
X371500Y322500D01*
X328500D02*
X333500Y317500D01*
X371500Y322500D02*
Y360500D01*
X328500Y322500D02*
Y360500D01*
X552000Y230000D02*
Y236000D01*
X566000Y217500D02*
Y226000D01*
X556000Y217500D02*
X566000D01*
Y240000D02*
Y248500D01*
X556000D02*
X566000D01*
X228500Y360500D02*
Y398500D01*
X271500Y360500D02*
Y398500D01*
X228500Y360500D02*
X233500Y355500D01*
X266500D02*
X271500Y360500D01*
X228500Y398500D02*
X240500D01*
X259500D02*
X271500D01*
X233500Y355500D02*
X240500D01*
X259500D02*
X266500D01*
D12*
X194436Y154083D02*
G03*
X194436Y154083I-1250J0D01*
G01*
X268250Y154000D02*
G03*
X268250Y154000I-1250J0D01*
G01*
X406933Y170500D02*
G03*
X406933Y170500I-1250J0D01*
G01*
X169760Y216257D02*
G03*
X169760Y216257I-1250J0D01*
G01*
X486080Y90910D02*
G03*
X486080Y90910I-1250J0D01*
G01*
X173750Y373250D02*
G03*
X173750Y373250I-1250J0D01*
G01*
X230000Y318550D02*
G03*
X230000Y318550I-1250J0D01*
G01*
X578250Y345000D02*
G03*
X578250Y345000I-1250J0D01*
G01*
X89250Y217000D02*
G03*
X89250Y217000I-1250J0D01*
G01*
X548250Y251000D02*
G03*
X548250Y251000I-1250J0D01*
G01*
D13*
X225500Y118000D02*
G03*
X225500Y118000I-1500J0D01*
G01*
X79352Y330112D02*
G03*
X79200Y330100I-152J988D01*
G01*
X79152Y223512D02*
G03*
X79000Y223500I-152J988D01*
G01*
X616200Y117900D02*
G03*
X616200Y117900I-1000J0D01*
G01*
Y257400D02*
G03*
X616200Y257400I-1000J0D01*
G01*
X523886Y361790D02*
G03*
X523886Y361790I-1500J0D01*
G01*
D14*
X237500Y211000D02*
G03*
X237500Y211000I-500J0D01*
G01*
X102271Y280280D02*
X105771Y277780D01*
X102271D02*
Y280280D01*
X105771Y277780D02*
Y280030D01*
Y275530D02*
Y277780D01*
X102271Y275280D02*
Y277780D01*
Y275280D02*
X105771Y277780D01*
X102271Y251280D02*
X105771Y248780D01*
X102271D02*
Y251280D01*
X105771Y248780D02*
Y251030D01*
Y246530D02*
Y248780D01*
X102271Y246280D02*
Y248780D01*
Y246280D02*
X105771Y248780D01*
X102771Y304280D02*
X106271Y306780D01*
X102771Y304280D02*
Y306780D01*
X106271Y304530D02*
Y306780D01*
Y309030D01*
X102771Y306780D02*
Y309280D01*
X106271Y306780D01*
D15*
X468251Y72500D02*
G03*
X468251Y72500I-1000J0D01*
G01*
D16*
X67400Y11000D02*
Y111000D01*
X280400Y11000D02*
Y111000D01*
X67400D02*
X280400D01*
X67400Y11000D02*
X280400D01*
X449251Y12500D02*
Y80500D01*
Y12500D02*
X584251D01*
X449251Y80500D02*
X584251D01*
Y12500D02*
Y80500D01*
X9000Y369000D02*
X73000D01*
X9000Y280500D02*
X73000D01*
Y369000D01*
X9000Y280500D02*
Y369000D01*
X7000Y262100D02*
X73100D01*
X7000Y148500D02*
X73100D01*
Y262100D01*
X7000Y148500D02*
Y262100D01*
X623100Y78900D02*
X694000D01*
X623100Y210700D02*
X694000D01*
X623100Y78900D02*
Y210700D01*
X694000Y78900D02*
Y210700D01*
X623100Y218400D02*
X694000D01*
X623100Y350200D02*
X694000D01*
X623100Y218400D02*
Y350200D01*
X694000Y218400D02*
Y350200D01*
X619386Y367790D02*
Y430790D01*
X513386Y367790D02*
X619386D01*
X513386Y430790D02*
X619386D01*
X513386Y367790D02*
Y430790D01*
M02*
