G04*
G04 #@! TF.GenerationSoftware,Altium Limited,Altium Designer,25.4.2 (15)*
G04*
G04 Layer_Color=2752767*
%FSLAX44Y44*%
%MOMM*%
G71*
G04*
G04 #@! TF.SameCoordinates,49B81D0F-A9A4-424D-AE8F-31BE1D99DEBE*
G04*
G04*
G04 #@! TF.FilePolarity,Positive*
G04*
G01*
G75*
%ADD100C,0.1270*%
%ADD101C,0.1693*%
D100*
X193520Y70920D02*
Y81080D01*
X203680D01*
Y70920D01*
X193520D01*
X168120Y45520D02*
Y55680D01*
X178280D01*
Y45520D01*
X168120D01*
X142720Y70920D02*
Y81080D01*
X152880D01*
Y70920D01*
X142720D01*
X218920D02*
Y81080D01*
X229080D01*
Y70920D01*
X218920D01*
X142720Y45520D02*
Y55680D01*
X152880D01*
Y45520D01*
X142720D01*
X218920D02*
Y55680D01*
X229080D01*
Y45520D01*
X218920D01*
X168120Y70920D02*
Y81080D01*
X178280D01*
Y70920D01*
X168120D01*
X193520Y45520D02*
Y55680D01*
X203680D01*
Y45520D01*
X193520D01*
X117320Y70920D02*
Y81080D01*
X127480D01*
Y70920D01*
X117320D01*
Y45520D02*
Y55680D01*
X127480D01*
Y45520D01*
X117320D01*
X586306Y387710D02*
Y397870D01*
X596466D01*
Y387710D01*
X586306D01*
X561306D02*
Y397870D01*
X571466D01*
Y387710D01*
X561306D01*
X536306D02*
Y397870D01*
X546466D01*
Y387710D01*
X536306D01*
X341000Y334920D02*
X335920Y345080D01*
X346080D01*
X341000Y334920D01*
X335000Y304920D02*
X329920Y315080D01*
X340080D01*
X335000Y304920D01*
X435000Y124920D02*
X429920Y135080D01*
X440080D01*
X435000Y124920D01*
X426000Y202920D02*
X420920Y213080D01*
X431080D01*
X426000Y202920D01*
Y211920D02*
X420920Y222080D01*
X431080D01*
X426000Y211920D01*
X432000Y249920D02*
X426920Y260080D01*
X437080D01*
X432000Y249920D01*
X416656Y244576D02*
X411576Y254736D01*
X421736D01*
X416656Y244576D01*
X367000Y304920D02*
X361920Y315080D01*
X372080D01*
X367000Y304920D01*
Y324920D02*
X361920Y335080D01*
X372080D01*
X367000Y324920D01*
Y314670D02*
X361920Y324830D01*
X372080D01*
X367000Y314670D01*
X496000Y304920D02*
X490920Y315080D01*
X501080D01*
X496000Y304920D01*
X530096Y287824D02*
X525016Y297984D01*
X535176D01*
X530096Y287824D01*
X542596Y300324D02*
X537516Y310484D01*
X547676D01*
X542596Y300324D01*
X180000Y206920D02*
X174920Y217080D01*
X185080D01*
X180000Y206920D01*
X265000Y121920D02*
X259920Y132080D01*
X270080D01*
X265000Y121920D01*
X233000Y174920D02*
X227920Y185080D01*
X238080D01*
X233000Y174920D01*
X257000D02*
X251920Y185080D01*
X262080D01*
X257000Y174920D01*
X245000D02*
X239920Y185080D01*
X250080D01*
X245000Y174920D01*
X204000Y178920D02*
X198920Y189080D01*
X209080D01*
X204000Y178920D01*
X344000Y261920D02*
X338920Y272080D01*
X349080D01*
X344000Y261920D01*
X167000Y280284D02*
X161920Y290444D01*
X172080D01*
X167000Y280284D01*
X264000Y220920D02*
X258920Y231080D01*
X269080D01*
X264000Y220920D01*
X444183Y182920D02*
X439103Y193080D01*
X449263D01*
X444183Y182920D01*
X83000Y164920D02*
X77920Y175080D01*
X88080D01*
X83000Y164920D01*
X475500Y379920D02*
X470420Y390080D01*
X480580D01*
X475500Y379920D01*
Y279920D02*
X470420Y290080D01*
X480580D01*
X475500Y279920D01*
X210000Y88920D02*
X204920Y99080D01*
X215080D01*
X210000Y88920D01*
X197000Y96920D02*
X191920Y107080D01*
X202080D01*
X197000Y96920D01*
X663000Y354920D02*
X657920Y365080D01*
X668080D01*
X663000Y354920D01*
Y304920D02*
X657920Y315080D01*
X668080D01*
X663000Y304920D01*
X675500Y279920D02*
X670420Y290080D01*
X680580D01*
X675500Y279920D01*
X663000Y254920D02*
X657920Y265080D01*
X668080D01*
X663000Y254920D01*
Y154920D02*
X657920Y165080D01*
X668080D01*
X663000Y154920D01*
X675500Y129920D02*
X670420Y140080D01*
X680580D01*
X675500Y129920D01*
X638000Y204920D02*
X632920Y215080D01*
X643080D01*
X638000Y204920D01*
Y104920D02*
X632920Y115080D01*
X643080D01*
X638000Y104920D01*
Y54920D02*
X632920Y65080D01*
X643080D01*
X638000Y54920D01*
X613000Y404920D02*
X607920Y415080D01*
X618080D01*
X613000Y404920D01*
X625500Y379920D02*
X620420Y390080D01*
X630580D01*
X625500Y379920D01*
X613000Y354920D02*
X607920Y365080D01*
X618080D01*
X613000Y354920D01*
X625500Y329920D02*
X620420Y340080D01*
X630580D01*
X625500Y329920D01*
Y229920D02*
X620420Y240080D01*
X630580D01*
X625500Y229920D01*
Y179920D02*
X620420Y190080D01*
X630580D01*
X625500Y179920D01*
X613000Y104920D02*
X607920Y115080D01*
X618080D01*
X613000Y104920D01*
X625500Y79920D02*
X620420Y90080D01*
X630580D01*
X625500Y79920D01*
X613000Y54920D02*
X607920Y65080D01*
X618080D01*
X613000Y54920D01*
Y4920D02*
X607920Y15080D01*
X618080D01*
X613000Y4920D01*
X588000Y404920D02*
X582920Y415080D01*
X593080D01*
X588000Y404920D01*
Y354920D02*
X582920Y365080D01*
X593080D01*
X588000Y354920D01*
X600500Y329920D02*
X595420Y340080D01*
X605580D01*
X600500Y329920D01*
X588000Y204920D02*
X582920Y215080D01*
X593080D01*
X588000Y204920D01*
Y154920D02*
X582920Y165080D01*
X593080D01*
X588000Y154920D01*
Y104920D02*
X582920Y115080D01*
X593080D01*
X588000Y104920D01*
X600500Y79920D02*
X595420Y90080D01*
X605580D01*
X600500Y79920D01*
X588000Y54920D02*
X582920Y65080D01*
X593080D01*
X588000Y54920D01*
X563000Y404920D02*
X557920Y415080D01*
X568080D01*
X563000Y404920D01*
Y254920D02*
X557920Y265080D01*
X568080D01*
X563000Y254920D01*
X575500Y129920D02*
X570420Y140080D01*
X580580D01*
X575500Y129920D01*
Y79920D02*
X570420Y90080D01*
X580580D01*
X575500Y79920D01*
X538000Y404920D02*
X532920Y415080D01*
X543080D01*
X538000Y404920D01*
Y354920D02*
X532920Y365080D01*
X543080D01*
X538000Y354920D01*
Y4920D02*
X532920Y15080D01*
X543080D01*
X538000Y4920D01*
X513000Y404920D02*
X507920Y415080D01*
X518080D01*
X513000Y404920D01*
X525500Y279920D02*
X520420Y290080D01*
X530580D01*
X525500Y279920D01*
X513000Y254920D02*
X507920Y265080D01*
X518080D01*
X513000Y254920D01*
Y104920D02*
X507920Y115080D01*
X518080D01*
X513000Y104920D01*
Y4920D02*
X507920Y15080D01*
X518080D01*
X513000Y4920D01*
X500500Y379920D02*
X495420Y390080D01*
X505580D01*
X500500Y379920D01*
Y329920D02*
X495420Y340080D01*
X505580D01*
X500500Y329920D01*
X488000Y204920D02*
X482920Y215080D01*
X493080D01*
X488000Y204920D01*
Y104920D02*
X482920Y115080D01*
X493080D01*
X488000Y104920D01*
X463000Y404920D02*
X457920Y415080D01*
X468080D01*
X463000Y404920D01*
X475500Y229920D02*
X470420Y240080D01*
X480580D01*
X475500Y229920D01*
Y179920D02*
X470420Y190080D01*
X480580D01*
X475500Y179920D01*
Y79920D02*
X470420Y90080D01*
X480580D01*
X475500Y79920D01*
X463000Y54920D02*
X457920Y65080D01*
X468080D01*
X463000Y54920D01*
X438000Y404920D02*
X432920Y415080D01*
X443080D01*
X438000Y404920D01*
X450500Y79920D02*
X445420Y90080D01*
X455580D01*
X450500Y79920D01*
X438000Y54920D02*
X432920Y65080D01*
X443080D01*
X438000Y54920D01*
X425500Y79920D02*
X420420Y90080D01*
X430580D01*
X425500Y79920D01*
X388000Y404920D02*
X382920Y415080D01*
X393080D01*
X388000Y404920D01*
X400500Y79920D02*
X395420Y90080D01*
X405580D01*
X400500Y79920D01*
X388000Y4920D02*
X382920Y15080D01*
X393080D01*
X388000Y4920D01*
X363000Y404920D02*
X357920Y415080D01*
X368080D01*
X363000Y404920D01*
Y354920D02*
X357920Y365080D01*
X368080D01*
X363000Y354920D01*
X375500Y79920D02*
X370420Y90080D01*
X380580D01*
X375500Y79920D01*
X363000Y4920D02*
X357920Y15080D01*
X368080D01*
X363000Y4920D01*
X338000Y404920D02*
X332920Y415080D01*
X343080D01*
X338000Y404920D01*
X350500Y379920D02*
X345420Y390080D01*
X355580D01*
X350500Y379920D01*
Y79920D02*
X345420Y90080D01*
X355580D01*
X350500Y79920D01*
Y29920D02*
X345420Y40080D01*
X355580D01*
X350500Y29920D01*
X313000Y404920D02*
X307920Y415080D01*
X318080D01*
X313000Y404920D01*
X325500Y329920D02*
X320420Y340080D01*
X330580D01*
X325500Y329920D01*
Y79920D02*
X320420Y90080D01*
X330580D01*
X325500Y79920D01*
Y29920D02*
X320420Y40080D01*
X330580D01*
X325500Y29920D01*
X288000Y404920D02*
X282920Y415080D01*
X293080D01*
X288000Y404920D01*
Y104920D02*
X282920Y115080D01*
X293080D01*
X288000Y104920D01*
X300500Y79920D02*
X295420Y90080D01*
X305580D01*
X300500Y79920D01*
X263000Y404920D02*
X257920Y415080D01*
X268080D01*
X263000Y404920D01*
Y304920D02*
X257920Y315080D01*
X268080D01*
X263000Y304920D01*
Y104920D02*
X257920Y115080D01*
X268080D01*
X263000Y104920D01*
X275500Y29920D02*
X270420Y40080D01*
X280580D01*
X275500Y29920D01*
X238000Y404920D02*
X232920Y415080D01*
X243080D01*
X238000Y404920D01*
X250500Y29920D02*
X245420Y40080D01*
X255580D01*
X250500Y29920D01*
X238000Y4920D02*
X232920Y15080D01*
X243080D01*
X238000Y4920D01*
X213000Y104920D02*
X207920Y115080D01*
X218080D01*
X213000Y104920D01*
X225500Y29920D02*
X220420Y40080D01*
X230580D01*
X225500Y29920D01*
X213000Y4920D02*
X207920Y15080D01*
X218080D01*
X213000Y4920D01*
X200500Y329920D02*
X195420Y340080D01*
X205580D01*
X200500Y329920D01*
Y29920D02*
X195420Y40080D01*
X205580D01*
X200500Y29920D01*
X163000Y304920D02*
X157920Y315080D01*
X168080D01*
X163000Y304920D01*
Y254920D02*
X157920Y265080D01*
X168080D01*
X163000Y254920D01*
X175500Y229920D02*
X170420Y240080D01*
X180580D01*
X175500Y229920D01*
Y29920D02*
X170420Y40080D01*
X180580D01*
X175500Y29920D01*
X138000Y104920D02*
X132920Y115080D01*
X143080D01*
X138000Y104920D01*
X113000Y254920D02*
X107920Y265080D01*
X118080D01*
X113000Y254920D01*
X125500Y229920D02*
X120420Y240080D01*
X130580D01*
X125500Y229920D01*
Y29920D02*
X120420Y40080D01*
X130580D01*
X125500Y29920D01*
X88000Y254920D02*
X82920Y265080D01*
X93080D01*
X88000Y254920D01*
X100500Y229920D02*
X95420Y240080D01*
X105580D01*
X100500Y229920D01*
Y179920D02*
X95420Y190080D01*
X105580D01*
X100500Y179920D01*
X88000Y154920D02*
X82920Y165080D01*
X93080D01*
X88000Y154920D01*
Y104920D02*
X82920Y115080D01*
X93080D01*
X88000Y104920D01*
Y4920D02*
X82920Y15080D01*
X93080D01*
X88000Y4920D01*
X75500Y379920D02*
X70420Y390080D01*
X80580D01*
X75500Y379920D01*
Y279920D02*
X70420Y290080D01*
X80580D01*
X75500Y279920D01*
X63000Y254920D02*
X57920Y265080D01*
X68080D01*
X63000Y254920D01*
X75500Y229920D02*
X70420Y240080D01*
X80580D01*
X75500Y229920D01*
X63000Y154920D02*
X57920Y165080D01*
X68080D01*
X63000Y154920D01*
Y104920D02*
X57920Y115080D01*
X68080D01*
X63000Y104920D01*
X75500Y79920D02*
X70420Y90080D01*
X80580D01*
X75500Y79920D01*
X63000Y54920D02*
X57920Y65080D01*
X68080D01*
X63000Y54920D01*
X75500Y29920D02*
X70420Y40080D01*
X80580D01*
X75500Y29920D01*
X50500Y379920D02*
X45420Y390080D01*
X55580D01*
X50500Y379920D01*
X38000Y204920D02*
X32920Y215080D01*
X43080D01*
X38000Y204920D01*
Y104920D02*
X32920Y115080D01*
X43080D01*
X38000Y104920D01*
X50500Y79920D02*
X45420Y90080D01*
X55580D01*
X50500Y79920D01*
X13000Y304920D02*
X7920Y315080D01*
X18080D01*
X13000Y304920D01*
Y254920D02*
X7920Y265080D01*
X18080D01*
X13000Y254920D01*
X25500Y179920D02*
X20420Y190080D01*
X30580D01*
X25500Y179920D01*
X13000Y154920D02*
X7920Y165080D01*
X18080D01*
X13000Y154920D01*
Y104920D02*
X7920Y115080D01*
X18080D01*
X13000Y104920D01*
X25500Y79920D02*
X20420Y90080D01*
X30580D01*
X25500Y79920D01*
X489000Y385920D02*
X483920Y396080D01*
X494080D01*
X489000Y385920D01*
X460000Y311920D02*
X454920Y322080D01*
X465080D01*
X460000Y311920D01*
X445000D02*
X439920Y322080D01*
X450080D01*
X445000Y311920D01*
Y296920D02*
X439920Y307080D01*
X450080D01*
X445000Y296920D01*
X87000Y399920D02*
X81920Y410080D01*
X92080D01*
X87000Y399920D01*
X611000Y262920D02*
X605920Y273080D01*
X616080D01*
X611000Y262920D01*
X235000Y361920D02*
X229920Y372080D01*
X240080D01*
X235000Y361920D01*
X83000Y218920D02*
X77920Y229080D01*
X88080D01*
X83000Y218920D01*
X35000Y370920D02*
X29920Y381080D01*
X40080D01*
X35000Y370920D01*
X420000Y300920D02*
X414920Y311080D01*
X425080D01*
X420000Y300920D01*
X406000Y331920D02*
X400920Y342080D01*
X411080D01*
X406000Y331920D01*
Y353920D02*
X400920Y364080D01*
X411080D01*
X406000Y353920D01*
Y342920D02*
X400920Y353080D01*
X411080D01*
X406000Y342920D01*
X388000Y333920D02*
X382920Y344080D01*
X393080D01*
X388000Y333920D01*
Y344920D02*
X382920Y355080D01*
X393080D01*
X388000Y344920D01*
Y355920D02*
X382920Y366080D01*
X393080D01*
X388000Y355920D01*
Y366920D02*
X382920Y377080D01*
X393080D01*
X388000Y366920D01*
X127000Y318920D02*
X121920Y329080D01*
X132080D01*
X127000Y318920D01*
X97000D02*
X91920Y329080D01*
X102080D01*
X97000Y318920D01*
X127000Y333920D02*
X121920Y344080D01*
X132080D01*
X127000Y333920D01*
X112000Y318920D02*
X106920Y329080D01*
X117080D01*
X112000Y318920D01*
X82000D02*
X76920Y329080D01*
X87080D01*
X82000Y318920D01*
Y333920D02*
X76920Y344080D01*
X87080D01*
X82000Y333920D01*
X112000D02*
X106920Y344080D01*
X117080D01*
X112000Y333920D01*
X97000D02*
X91920Y344080D01*
X102080D01*
X97000Y333920D01*
X609000Y210920D02*
X603920Y221080D01*
X614080D01*
X609000Y210920D01*
X601000Y178920D02*
X595920Y189080D01*
X606080D01*
X601000Y178920D01*
X585000Y239920D02*
X579920Y250080D01*
X590080D01*
X585000Y239920D01*
X527000Y182920D02*
X521920Y193080D01*
X532080D01*
X527000Y182920D01*
Y173920D02*
X521920Y184080D01*
X532080D01*
X527000Y173920D01*
X569000Y157920D02*
X563920Y168080D01*
X574080D01*
X569000Y157920D01*
X594000Y148920D02*
X588920Y159080D01*
X599080D01*
X594000Y148920D01*
X566000Y168920D02*
X560920Y179080D01*
X571080D01*
X566000Y168920D01*
X604000Y138920D02*
X598920Y149080D01*
X609080D01*
X604000Y138920D01*
X569000D02*
X563920Y149080D01*
X574080D01*
X569000Y138920D01*
X170000Y314920D02*
X164920Y325080D01*
X175080D01*
X170000Y314920D01*
X268000Y351920D02*
X262920Y362080D01*
X273080D01*
X268000Y351920D01*
X167000Y224920D02*
X161920Y235080D01*
X172080D01*
X167000Y224920D01*
Y243920D02*
X161920Y254080D01*
X172080D01*
X167000Y243920D01*
X212000Y304495D02*
X206920Y314655D01*
X217080D01*
X212000Y304495D01*
X254000Y285420D02*
X248920Y295580D01*
X259080D01*
X254000Y285420D01*
X178364Y163556D02*
X173284Y173716D01*
X183444D01*
X178364Y163556D01*
X192136Y202784D02*
X187056Y212944D01*
X197216D01*
X192136Y202784D01*
X212000Y292920D02*
X206920Y303080D01*
X217080D01*
X212000Y292920D01*
X328000Y107379D02*
X322920Y117539D01*
X333080D01*
X328000Y107379D01*
Y118920D02*
X322920Y129080D01*
X333080D01*
X328000Y118920D01*
X319000Y107379D02*
X313920Y117539D01*
X324080D01*
X319000Y107379D01*
Y118920D02*
X313920Y129080D01*
X324080D01*
X319000Y118920D01*
X294542Y33420D02*
X289462Y43580D01*
X299622D01*
X294542Y33420D01*
X405000Y4920D02*
X399920Y15080D01*
X410080D01*
X405000Y4920D01*
X315000D02*
X309920Y15080D01*
X320080D01*
X315000Y4920D01*
X345000D02*
X339920Y15080D01*
X350080D01*
X345000Y4920D01*
X375000D02*
X369920Y15080D01*
X380080D01*
X375000Y4920D01*
X335875Y62795D02*
X330795Y72955D01*
X340955D01*
X335875Y62795D01*
X438000Y104920D02*
X432920Y115080D01*
X443080D01*
X438000Y104920D01*
X135000Y434920D02*
X129920Y445080D01*
X140080D01*
X135000Y434920D01*
X212000Y279920D02*
X206920Y290080D01*
X217080D01*
X212000Y279920D01*
X281000Y174920D02*
X275920Y185080D01*
X286080D01*
X281000Y174920D01*
X240000Y195920D02*
X234920Y206080D01*
X245080D01*
X240000Y195920D01*
X585000Y339920D02*
X579920Y350080D01*
X590080D01*
X585000Y339920D01*
X549000Y353920D02*
X543920Y364080D01*
X554080D01*
X549000Y353920D01*
X10000Y324920D02*
X4920Y335080D01*
X15080D01*
X10000Y324920D01*
X420000Y289920D02*
X414920Y300080D01*
X425080D01*
X420000Y289920D01*
Y311920D02*
X414920Y322080D01*
X425080D01*
X420000Y311920D01*
X505000Y24920D02*
X499920Y35080D01*
X510080D01*
X505000Y24920D01*
X485000D02*
X479920Y35080D01*
X490080D01*
X485000Y24920D01*
X585000Y227920D02*
X579920Y238080D01*
X590080D01*
X585000Y227920D01*
X563000Y184920D02*
X557920Y195080D01*
X568080D01*
X563000Y184920D01*
Y197920D02*
X557920Y208080D01*
X568080D01*
X563000Y197920D01*
X550000Y287920D02*
X544920Y298080D01*
X555080D01*
X550000Y287920D01*
X570000D02*
X564920Y298080D01*
X575080D01*
X570000Y287920D01*
X554000Y36920D02*
X548920Y47080D01*
X559080D01*
X554000Y36920D01*
X455000Y124920D02*
X449920Y135080D01*
X460080D01*
X455000Y124920D01*
X342183Y220920D02*
X337103Y231080D01*
X347263D01*
X342183Y220920D01*
X372183D02*
X367103Y231080D01*
X377263D01*
X372183Y220920D01*
X357183D02*
X352103Y231080D01*
X362263D01*
X357183Y220920D01*
X296000Y223920D02*
X290920Y234080D01*
X301080D01*
X296000Y223920D01*
X342183Y205920D02*
X337103Y216080D01*
X347263D01*
X342183Y205920D01*
X372183D02*
X367103Y216080D01*
X377263D01*
X372183Y205920D01*
X357183Y190920D02*
X352103Y201080D01*
X362263D01*
X357183Y190920D01*
X342183D02*
X337103Y201080D01*
X347263D01*
X342183Y190920D01*
X372183D02*
X367103Y201080D01*
X377263D01*
X372183Y190920D01*
X555000Y4920D02*
X549920Y15080D01*
X560080D01*
X555000Y4920D01*
X435000D02*
X429920Y15080D01*
X440080D01*
X435000Y4920D01*
X491000Y124920D02*
X485920Y135080D01*
X496080D01*
X491000Y124920D01*
X311154Y291574D02*
X306074Y301734D01*
X316234D01*
X311154Y291574D01*
X330000Y379920D02*
X324920Y390080D01*
X335080D01*
X330000Y379920D01*
X296000Y240920D02*
X290920Y251080D01*
X301080D01*
X296000Y240920D01*
X690000Y324920D02*
X684920Y335080D01*
X695080D01*
X690000Y324920D01*
X331000Y261920D02*
X325920Y272080D01*
X336080D01*
X331000Y261920D01*
X296000Y253920D02*
X290920Y264080D01*
X301080D01*
X296000Y253920D01*
X302000Y265920D02*
X296920Y276080D01*
X307080D01*
X302000Y265920D01*
X285000Y219920D02*
X279920Y230080D01*
X290080D01*
X285000Y219920D01*
X330000Y367920D02*
X324920Y378080D01*
X335080D01*
X330000Y367920D01*
Y355920D02*
X324920Y366080D01*
X335080D01*
X330000Y355920D01*
X269000Y174920D02*
X263920Y185080D01*
X274080D01*
X269000Y174920D01*
X126000Y194920D02*
X120920Y205080D01*
X131080D01*
X126000Y194920D01*
Y174920D02*
X120920Y185080D01*
X131080D01*
X126000Y174920D01*
Y184920D02*
X120920Y195080D01*
X131080D01*
X126000Y184920D01*
X690000Y354920D02*
X684920Y365080D01*
X695080D01*
X690000Y354920D01*
Y294920D02*
X684920Y305080D01*
X695080D01*
X690000Y294920D01*
Y264920D02*
X684920Y275080D01*
X695080D01*
X690000Y264920D01*
Y234920D02*
X684920Y245080D01*
X695080D01*
X690000Y234920D01*
Y204920D02*
X684920Y215080D01*
X695080D01*
X690000Y204920D01*
Y174920D02*
X684920Y185080D01*
X695080D01*
X690000Y174920D01*
Y144920D02*
X684920Y155080D01*
X695080D01*
X690000Y144920D01*
Y114920D02*
X684920Y125080D01*
X695080D01*
X690000Y114920D01*
Y84920D02*
X684920Y95080D01*
X695080D01*
X690000Y84920D01*
X528000Y263920D02*
X522920Y274080D01*
X533080D01*
X528000Y263920D01*
X424183Y168420D02*
X419103Y178580D01*
X429263D01*
X424183Y168420D01*
X366183Y150920D02*
X361103Y161080D01*
X371263D01*
X366183Y150920D01*
X350183D02*
X345103Y161080D01*
X355263D01*
X350183Y150920D01*
X10000Y354920D02*
X4920Y365080D01*
X15080D01*
X10000Y354920D01*
Y294920D02*
X4920Y305080D01*
X15080D01*
X10000Y294920D01*
Y264920D02*
X4920Y275080D01*
X15080D01*
X10000Y264920D01*
Y234920D02*
X4920Y245080D01*
X15080D01*
X10000Y234920D01*
Y204920D02*
X4920Y215080D01*
X15080D01*
X10000Y204920D01*
Y84920D02*
X4920Y95080D01*
X15080D01*
X10000Y84920D01*
Y114920D02*
X4920Y125080D01*
X15080D01*
X10000Y114920D01*
Y144920D02*
X4920Y155080D01*
X15080D01*
X10000Y144920D01*
Y174920D02*
X4920Y185080D01*
X15080D01*
X10000Y174920D01*
X585000Y4920D02*
X579920Y15080D01*
X590080D01*
X585000Y4920D01*
X465000D02*
X459920Y15080D01*
X470080D01*
X465000Y4920D01*
X495000D02*
X489920Y15080D01*
X500080D01*
X495000Y4920D01*
X525000D02*
X519920Y15080D01*
X530080D01*
X525000Y4920D01*
X225000D02*
X219920Y15080D01*
X230080D01*
X225000Y4920D01*
X255000D02*
X249920Y15080D01*
X260080D01*
X255000Y4920D01*
X285000D02*
X279920Y15080D01*
X290080D01*
X285000Y4920D01*
X195000D02*
X189920Y15080D01*
X200080D01*
X195000Y4920D01*
X165000D02*
X159920Y15080D01*
X170080D01*
X165000Y4920D01*
X135000D02*
X129920Y15080D01*
X140080D01*
X135000Y4920D01*
X105000D02*
X99920Y15080D01*
X110080D01*
X105000Y4920D01*
X75000D02*
X69920Y15080D01*
X80080D01*
X75000Y4920D01*
X585000Y434920D02*
X579920Y445080D01*
X590080D01*
X585000Y434920D01*
X465000D02*
X459920Y445080D01*
X470080D01*
X465000Y434920D01*
X495000D02*
X489920Y445080D01*
X500080D01*
X495000Y434920D01*
X525000D02*
X519920Y445080D01*
X530080D01*
X525000Y434920D01*
X555000D02*
X549920Y445080D01*
X560080D01*
X555000Y434920D01*
X345000D02*
X339920Y445080D01*
X350080D01*
X345000Y434920D01*
X375000D02*
X369920Y445080D01*
X380080D01*
X375000Y434920D01*
X405000D02*
X399920Y445080D01*
X410080D01*
X405000Y434920D01*
X435000D02*
X429920Y445080D01*
X440080D01*
X435000Y434920D01*
X225000D02*
X219920Y445080D01*
X230080D01*
X225000Y434920D01*
X255000D02*
X249920Y445080D01*
X260080D01*
X255000Y434920D01*
X285000D02*
X279920Y445080D01*
X290080D01*
X285000Y434920D01*
X315000D02*
X309920Y445080D01*
X320080D01*
X315000Y434920D01*
X195000D02*
X189920Y445080D01*
X200080D01*
X195000Y434920D01*
X165000D02*
X159920Y445080D01*
X170080D01*
X165000Y434920D01*
X105000D02*
X99920Y445080D01*
X110080D01*
X105000Y434920D01*
X75000D02*
X69920Y445080D01*
X80080D01*
X75000Y434920D01*
X265000Y49920D02*
X259920Y60080D01*
X270080D01*
X265000Y49920D01*
X250000D02*
X244920Y60080D01*
X255080D01*
X250000Y49920D01*
Y67920D02*
X244920Y78080D01*
X255080D01*
X250000Y67920D01*
Y83920D02*
X244920Y94080D01*
X255080D01*
X250000Y83920D01*
X265000Y67920D02*
X259920Y78080D01*
X270080D01*
X265000Y67920D01*
Y83920D02*
X259920Y94080D01*
X270080D01*
X265000Y83920D01*
X495000Y176920D02*
X489920Y187080D01*
X500080D01*
X495000Y176920D01*
Y193920D02*
X489920Y204080D01*
X500080D01*
X495000Y193920D01*
Y210920D02*
X489920Y221080D01*
X500080D01*
X495000Y210920D01*
Y227920D02*
X489920Y238080D01*
X500080D01*
X495000Y227920D01*
X20000Y309920D02*
X14920Y320080D01*
X25080D01*
X20000Y309920D01*
Y329920D02*
X14920Y340080D01*
X25080D01*
X20000Y329920D01*
X30000Y309920D02*
X24920Y320080D01*
X35080D01*
X30000Y309920D01*
Y329920D02*
X24920Y340080D01*
X35080D01*
X30000Y329920D01*
X421000Y404920D02*
X415920Y415080D01*
X426080D01*
X421000Y404920D01*
X489000D02*
X483920Y415080D01*
X494080D01*
X489000Y404920D01*
X40000Y329920D02*
X34920Y340080D01*
X45080D01*
X40000Y329920D01*
Y309920D02*
X34920Y320080D01*
X45080D01*
X40000Y309920D01*
X35000Y214920D02*
X29920Y225080D01*
X40080D01*
X35000Y214920D01*
Y184920D02*
X29920Y195080D01*
X40080D01*
X35000Y184920D01*
X350000Y370920D02*
X344920Y381080D01*
X355080D01*
X350000Y370920D01*
X473000Y124920D02*
X467920Y135080D01*
X478080D01*
X473000Y124920D01*
X444183Y158920D02*
X439103Y169080D01*
X449263D01*
X444183Y158920D01*
X570000Y263920D02*
X564920Y274080D01*
X575080D01*
X570000Y263920D01*
X357183Y205920D02*
X352103Y216080D01*
X362263D01*
X357183Y205920D01*
X546000Y263920D02*
X540920Y274080D01*
X551080D01*
X546000Y263920D01*
D101*
X35080Y30000D02*
G03*
X35080Y30000I-5080J0D01*
G01*
X675080D02*
G03*
X675080Y30000I-5080J0D01*
G01*
X35080Y420000D02*
G03*
X35080Y420000I-5080J0D01*
G01*
X675080D02*
G03*
X675080Y420000I-5080J0D01*
G01*
M02*
