G04*
G04 #@! TF.GenerationSoftware,Altium Limited,Altium Designer,25.4.2 (15)*
G04*
G04 Layer_Physical_Order=2*
G04 Layer_Color=32768*
%FSLAX44Y44*%
%MOMM*%
G71*
G04*
G04 #@! TF.SameCoordinates,49B81D0F-A9A4-424D-AE8F-31BE1D99DEBE*
G04*
G04*
G04 #@! TF.FilePolarity,Negative*
G04*
G01*
G75*
%ADD94C,1.0160*%
%ADD95C,1.8000*%
G04:AMPARAMS|DCode=96|XSize=2.524mm|YSize=2.524mm|CornerRadius=0mm|HoleSize=0mm|Usage=FLASHONLY|Rotation=0.000|XOffset=0mm|YOffset=0mm|HoleType=Round|Shape=Relief|Width=0.254mm|Gap=0.254mm|Entries=4|*
%AMTHD96*
7,0,0,2.5240,2.0160,0.2540,45*
%
%ADD96THD96*%
%ADD97C,7.3000*%
%ADD98C,1.1000*%
D94*
X675000Y-0D02*
G03*
X700000Y25000I-0J25000D01*
G01*
X700000Y425000D02*
G03*
X675000Y450000I-25000J0D01*
G01*
X25000Y450000D02*
G03*
X-0Y425000I-0J-25000D01*
G01*
X0Y25000D02*
G03*
X25000Y0I25000J0D01*
G01*
X25000D02*
X675000Y-0D01*
X700000Y25000D02*
X700000Y425000D01*
X25000Y450000D02*
X675000Y450000D01*
X-0Y425000D02*
X0Y25000D01*
D95*
X198600Y76000D02*
D03*
X173200Y50600D02*
D03*
X147800Y76000D02*
D03*
X224000D02*
D03*
X147800Y50600D02*
D03*
X173200Y76000D02*
D03*
X198600Y50600D02*
D03*
X122400Y76000D02*
D03*
X566386Y392790D02*
D03*
X541386D02*
D03*
D96*
X224000Y50600D02*
D03*
X122400D02*
D03*
X591386Y392790D02*
D03*
D97*
X30000Y30000D02*
D03*
X670000D02*
D03*
X30000Y420000D02*
D03*
X670000D02*
D03*
D98*
X426000Y208000D02*
D03*
Y217000D02*
D03*
X416656Y249656D02*
D03*
X367000Y310000D02*
D03*
Y330000D02*
D03*
Y319750D02*
D03*
X233000Y180000D02*
D03*
X257000D02*
D03*
X245000D02*
D03*
X344000Y267000D02*
D03*
X167000Y285364D02*
D03*
X264000Y226000D02*
D03*
X444183Y188000D02*
D03*
X83000Y170000D02*
D03*
X489000Y391000D02*
D03*
X83000Y224000D02*
D03*
X388000Y339000D02*
D03*
Y350000D02*
D03*
Y361000D02*
D03*
Y372000D02*
D03*
X127000Y324000D02*
D03*
X97000D02*
D03*
X127000Y339000D02*
D03*
X112000Y324000D02*
D03*
X82000D02*
D03*
Y339000D02*
D03*
X112000D02*
D03*
X97000D02*
D03*
X609000Y216000D02*
D03*
X527000Y188000D02*
D03*
Y179000D02*
D03*
X569000Y163000D02*
D03*
Y144000D02*
D03*
X170000Y320000D02*
D03*
X268000Y357000D02*
D03*
X167000Y230000D02*
D03*
Y249000D02*
D03*
X212000Y309575D02*
D03*
X178364Y168636D02*
D03*
X212000Y298000D02*
D03*
X328000Y112459D02*
D03*
Y124000D02*
D03*
X319000Y112459D02*
D03*
Y124000D02*
D03*
X294542Y38500D02*
D03*
X335875Y67875D02*
D03*
X438000Y110000D02*
D03*
X212000Y285000D02*
D03*
X281000Y180000D02*
D03*
X585000Y345000D02*
D03*
X549000Y359000D02*
D03*
X563000Y190000D02*
D03*
X554000Y42000D02*
D03*
X296000Y229000D02*
D03*
X330000Y385000D02*
D03*
X296000Y246000D02*
D03*
X331000Y267000D02*
D03*
X296000Y259000D02*
D03*
X302000Y271000D02*
D03*
X285000Y225000D02*
D03*
X330000Y373000D02*
D03*
Y361000D02*
D03*
X269000Y180000D02*
D03*
X528000Y269000D02*
D03*
X424183Y173500D02*
D03*
X366183Y156000D02*
D03*
X350183D02*
D03*
X444183Y164000D02*
D03*
X546000Y269000D02*
D03*
M02*
