G04*
G04 #@! TF.GenerationSoftware,Altium Limited,Altium Designer,25.4.2 (15)*
G04*
G04 Layer_Physical_Order=3*
G04 Layer_Color=128*
%FSLAX44Y44*%
%MOMM*%
G71*
G04*
G04 #@! TF.SameCoordinates,49B81D0F-A9A4-424D-AE8F-31BE1D99DEBE*
G04*
G04*
G04 #@! TF.FilePolarity,Negative*
G04*
G01*
G75*
%ADD78C,0.3000*%
%ADD94C,1.0160*%
%ADD95C,1.8000*%
G04:AMPARAMS|DCode=96|XSize=2.524mm|YSize=2.524mm|CornerRadius=0mm|HoleSize=0mm|Usage=FLASHONLY|Rotation=0.000|XOffset=0mm|YOffset=0mm|HoleType=Round|Shape=Relief|Width=0.254mm|Gap=0.254mm|Entries=4|*
%AMTHD96*
7,0,0,2.5240,2.0160,0.2540,45*
%
%ADD96THD96*%
%ADD97C,7.3000*%
%ADD98C,1.1000*%
D78*
X379000Y295000D02*
X457000Y217000D01*
X379000Y295000D02*
Y338000D01*
X457000Y180000D02*
Y217000D01*
X374000Y343000D02*
X379000Y338000D01*
X361000Y343000D02*
X374000D01*
X356000Y338000D02*
X361000Y343000D01*
X356000Y307000D02*
Y338000D01*
X247500Y224500D02*
X268000Y204000D01*
X306946D02*
X329520Y226574D01*
X347446Y244500D01*
X268000Y204000D02*
X306946D01*
X304000Y215000D02*
X309000Y220000D01*
X280000Y215000D02*
X304000D01*
X347446Y244500D02*
X349946Y247000D01*
X375000D01*
X274000Y221000D02*
X280000Y215000D01*
X274000Y221000D02*
Y229000D01*
X267000Y236000D02*
X274000Y229000D01*
X309000Y220000D02*
X314000Y225000D01*
Y254000D01*
X259000Y236000D02*
X267000D01*
X247500Y224500D02*
X259000Y236000D01*
X314000Y265000D02*
X356000Y307000D01*
X314000Y254000D02*
Y265000D01*
X375000Y247000D02*
X435000Y187000D01*
X442000Y180000D02*
X457000D01*
X435000Y187000D02*
X442000Y180000D01*
D94*
X675000Y-0D02*
G03*
X700000Y25000I-0J25000D01*
G01*
X700000Y425000D02*
G03*
X675000Y450000I-25000J0D01*
G01*
X25000Y450000D02*
G03*
X-0Y425000I-0J-25000D01*
G01*
X0Y25000D02*
G03*
X25000Y0I25000J0D01*
G01*
X25000D02*
X675000Y-0D01*
X700000Y25000D02*
X700000Y425000D01*
X25000Y450000D02*
X675000Y450000D01*
X-0Y425000D02*
X0Y25000D01*
D95*
X198600Y76000D02*
D03*
X173200Y50600D02*
D03*
X224000Y76000D02*
D03*
X147800Y50600D02*
D03*
X224000D02*
D03*
X173200Y76000D02*
D03*
X122400D02*
D03*
Y50600D02*
D03*
X591386Y392790D02*
D03*
X566386D02*
D03*
X541386D02*
D03*
D96*
X147800Y76000D02*
D03*
X198600Y50600D02*
D03*
D97*
X30000Y30000D02*
D03*
X670000D02*
D03*
X30000Y420000D02*
D03*
X670000D02*
D03*
D98*
X341000Y340000D02*
D03*
X335000Y310000D02*
D03*
X435000Y130000D02*
D03*
X426000Y208000D02*
D03*
Y217000D02*
D03*
X432000Y255000D02*
D03*
X416656Y249656D02*
D03*
X496000Y310000D02*
D03*
X530096Y292904D02*
D03*
X542596Y305404D02*
D03*
X180000Y212000D02*
D03*
X265000Y127000D02*
D03*
X233000Y180000D02*
D03*
X257000D02*
D03*
X245000D02*
D03*
X204000Y184000D02*
D03*
X344000Y267000D02*
D03*
X167000Y285364D02*
D03*
X83000Y170000D02*
D03*
X475500Y385000D02*
D03*
Y285000D02*
D03*
X210000Y94000D02*
D03*
X197000Y102000D02*
D03*
X663000Y360000D02*
D03*
Y310000D02*
D03*
X675500Y285000D02*
D03*
X663000Y260000D02*
D03*
Y160000D02*
D03*
X675500Y135000D02*
D03*
X638000Y210000D02*
D03*
Y110000D02*
D03*
Y60000D02*
D03*
X613000Y410000D02*
D03*
X625500Y385000D02*
D03*
X613000Y360000D02*
D03*
X625500Y335000D02*
D03*
Y235000D02*
D03*
Y185000D02*
D03*
X613000Y110000D02*
D03*
X625500Y85000D02*
D03*
X613000Y60000D02*
D03*
Y10000D02*
D03*
X588000Y410000D02*
D03*
Y360000D02*
D03*
X600500Y335000D02*
D03*
X588000Y210000D02*
D03*
Y160000D02*
D03*
Y110000D02*
D03*
X600500Y85000D02*
D03*
X588000Y60000D02*
D03*
X563000Y410000D02*
D03*
Y260000D02*
D03*
X575500Y135000D02*
D03*
Y85000D02*
D03*
X538000Y410000D02*
D03*
Y360000D02*
D03*
Y10000D02*
D03*
X513000Y410000D02*
D03*
X525500Y285000D02*
D03*
X513000Y260000D02*
D03*
Y110000D02*
D03*
Y10000D02*
D03*
X500500Y385000D02*
D03*
Y335000D02*
D03*
X488000Y210000D02*
D03*
Y110000D02*
D03*
X463000Y410000D02*
D03*
X475500Y235000D02*
D03*
Y185000D02*
D03*
Y85000D02*
D03*
X463000Y60000D02*
D03*
X438000Y410000D02*
D03*
X450500Y85000D02*
D03*
X438000Y60000D02*
D03*
X425500Y85000D02*
D03*
X388000Y410000D02*
D03*
X400500Y85000D02*
D03*
X388000Y10000D02*
D03*
X363000Y410000D02*
D03*
Y360000D02*
D03*
X375500Y85000D02*
D03*
X363000Y10000D02*
D03*
X338000Y410000D02*
D03*
X350500Y385000D02*
D03*
Y85000D02*
D03*
Y35000D02*
D03*
X313000Y410000D02*
D03*
X325500Y335000D02*
D03*
Y85000D02*
D03*
Y35000D02*
D03*
X288000Y410000D02*
D03*
Y110000D02*
D03*
X300500Y85000D02*
D03*
X263000Y410000D02*
D03*
Y310000D02*
D03*
Y110000D02*
D03*
X275500Y35000D02*
D03*
X238000Y410000D02*
D03*
X250500Y35000D02*
D03*
X238000Y10000D02*
D03*
X213000Y110000D02*
D03*
X225500Y35000D02*
D03*
X213000Y10000D02*
D03*
X200500Y335000D02*
D03*
Y35000D02*
D03*
X163000Y310000D02*
D03*
Y260000D02*
D03*
X175500Y235000D02*
D03*
Y35000D02*
D03*
X138000Y110000D02*
D03*
X113000Y260000D02*
D03*
X125500Y235000D02*
D03*
Y35000D02*
D03*
X88000Y260000D02*
D03*
X100500Y235000D02*
D03*
Y185000D02*
D03*
X88000Y160000D02*
D03*
Y110000D02*
D03*
Y10000D02*
D03*
X75500Y385000D02*
D03*
Y285000D02*
D03*
X63000Y260000D02*
D03*
X75500Y235000D02*
D03*
X63000Y160000D02*
D03*
Y110000D02*
D03*
X75500Y85000D02*
D03*
X63000Y60000D02*
D03*
X75500Y35000D02*
D03*
X50500Y385000D02*
D03*
X38000Y210000D02*
D03*
Y110000D02*
D03*
X50500Y85000D02*
D03*
X13000Y310000D02*
D03*
Y260000D02*
D03*
X25500Y185000D02*
D03*
X13000Y160000D02*
D03*
Y110000D02*
D03*
X25500Y85000D02*
D03*
X489000Y391000D02*
D03*
X460000Y317000D02*
D03*
X445000D02*
D03*
Y302000D02*
D03*
X87000Y405000D02*
D03*
X611000Y268000D02*
D03*
X235000Y367000D02*
D03*
X83000Y224000D02*
D03*
X35000Y376000D02*
D03*
X420000Y306000D02*
D03*
X406000Y337000D02*
D03*
Y359000D02*
D03*
Y348000D02*
D03*
X609000Y216000D02*
D03*
X601000Y184000D02*
D03*
X585000Y245000D02*
D03*
X569000Y163000D02*
D03*
X594000Y154000D02*
D03*
X566000Y174000D02*
D03*
X604000Y144000D02*
D03*
X569000D02*
D03*
X268000Y357000D02*
D03*
X167000Y249000D02*
D03*
X212000Y309575D02*
D03*
X254000Y290500D02*
D03*
X192136Y207864D02*
D03*
X212000Y298000D02*
D03*
X294542Y38500D02*
D03*
X405000Y10000D02*
D03*
X315000D02*
D03*
X345000D02*
D03*
X375000D02*
D03*
X335875Y67875D02*
D03*
X438000Y110000D02*
D03*
X135000Y440000D02*
D03*
X212000Y285000D02*
D03*
X281000Y180000D02*
D03*
X240000Y201000D02*
D03*
X585000Y345000D02*
D03*
X549000Y359000D02*
D03*
X10000Y330000D02*
D03*
X420000Y295000D02*
D03*
Y317000D02*
D03*
X505000Y30000D02*
D03*
X485000D02*
D03*
X585000Y233000D02*
D03*
X563000Y190000D02*
D03*
Y203000D02*
D03*
X550000Y293000D02*
D03*
X570000D02*
D03*
X554000Y42000D02*
D03*
X455000Y130000D02*
D03*
X342183Y226000D02*
D03*
X372183D02*
D03*
X357183D02*
D03*
X296000Y229000D02*
D03*
X342183Y211000D02*
D03*
X372183D02*
D03*
X357183Y196000D02*
D03*
X342183D02*
D03*
X372183D02*
D03*
X555000Y10000D02*
D03*
X435000D02*
D03*
X491000Y130000D02*
D03*
X311154Y296654D02*
D03*
X296000Y246000D02*
D03*
X690000Y330000D02*
D03*
X331000Y267000D02*
D03*
X296000Y259000D02*
D03*
X302000Y271000D02*
D03*
X285000Y225000D02*
D03*
X269000Y180000D02*
D03*
X126000Y200000D02*
D03*
Y180000D02*
D03*
Y190000D02*
D03*
X690000Y360000D02*
D03*
Y300000D02*
D03*
Y270000D02*
D03*
Y240000D02*
D03*
Y210000D02*
D03*
Y180000D02*
D03*
Y150000D02*
D03*
Y120000D02*
D03*
Y90000D02*
D03*
X424183Y173500D02*
D03*
X366183Y156000D02*
D03*
X350183D02*
D03*
X10000Y360000D02*
D03*
Y300000D02*
D03*
Y270000D02*
D03*
Y240000D02*
D03*
Y210000D02*
D03*
Y90000D02*
D03*
Y120000D02*
D03*
Y150000D02*
D03*
Y180000D02*
D03*
X585000Y10000D02*
D03*
X465000D02*
D03*
X495000D02*
D03*
X525000D02*
D03*
X225000D02*
D03*
X255000D02*
D03*
X285000D02*
D03*
X195000D02*
D03*
X165000D02*
D03*
X135000D02*
D03*
X105000D02*
D03*
X75000D02*
D03*
X585000Y440000D02*
D03*
X465000D02*
D03*
X495000D02*
D03*
X525000D02*
D03*
X555000D02*
D03*
X345000D02*
D03*
X375000D02*
D03*
X405000D02*
D03*
X435000D02*
D03*
X225000D02*
D03*
X255000D02*
D03*
X285000D02*
D03*
X315000D02*
D03*
X195000D02*
D03*
X165000D02*
D03*
X105000D02*
D03*
X75000D02*
D03*
X265000Y55000D02*
D03*
X250000D02*
D03*
Y73000D02*
D03*
Y89000D02*
D03*
X265000Y73000D02*
D03*
Y89000D02*
D03*
X495000Y182000D02*
D03*
Y199000D02*
D03*
Y216000D02*
D03*
Y233000D02*
D03*
X20000Y315000D02*
D03*
Y335000D02*
D03*
X30000Y315000D02*
D03*
Y335000D02*
D03*
X421000Y410000D02*
D03*
X489000D02*
D03*
X40000Y335000D02*
D03*
Y315000D02*
D03*
X35000Y220000D02*
D03*
Y190000D02*
D03*
X350000Y376000D02*
D03*
X473000Y130000D02*
D03*
X570000Y269000D02*
D03*
X357183Y211000D02*
D03*
X546000Y269000D02*
D03*
M02*
