G04*
G04 #@! TF.GenerationSoftware,Altium Limited,Altium Designer,25.4.2 (15)*
G04*
G04 Layer_Color=128*
%FSLAX44Y44*%
%MOMM*%
G71*
G04*
G04 #@! TF.SameCoordinates,49B81D0F-A9A4-424D-AE8F-31BE1D99DEBE*
G04*
G04*
G04 #@! TF.FilePolarity,Positive*
G04*
G01*
G75*
%ADD100C,0.1270*%
D100*
X193600Y76000D02*
X203600D01*
X198600Y71000D02*
Y81000D01*
X168200Y50600D02*
X178200D01*
X173200Y45600D02*
Y55600D01*
X142800Y76000D02*
X152800D01*
X147800Y71000D02*
Y81000D01*
X219000Y76000D02*
X229000D01*
X224000Y71000D02*
Y81000D01*
X142800Y50600D02*
X152800D01*
X147800Y45600D02*
Y55600D01*
X219000Y50600D02*
X229000D01*
X224000Y45600D02*
Y55600D01*
X168200Y76000D02*
X178200D01*
X173200Y71000D02*
Y81000D01*
X193600Y50600D02*
X203600D01*
X198600Y45600D02*
Y55600D01*
X117400Y76000D02*
X127400D01*
X122400Y71000D02*
Y81000D01*
X117400Y50600D02*
X127400D01*
X122400Y45600D02*
Y55600D01*
X586386Y392790D02*
X596386D01*
X591386Y387790D02*
Y397790D01*
X561386Y392790D02*
X571386D01*
X566386Y387790D02*
Y397790D01*
X536386Y392790D02*
X546386D01*
X541386Y387790D02*
Y397790D01*
X13500Y30000D02*
X46500D01*
X30000Y13500D02*
Y46500D01*
X653500Y30000D02*
X686500D01*
X670000Y13500D02*
Y46500D01*
X13500Y420000D02*
X46500D01*
X30000Y403500D02*
Y436500D01*
X653500Y420000D02*
X686500D01*
X670000Y403500D02*
Y436500D01*
X339500Y340000D02*
X342500D01*
X341000Y338500D02*
Y341500D01*
X333500Y310000D02*
X336500D01*
X335000Y308500D02*
Y311500D01*
X433500Y130000D02*
X436500D01*
X435000Y128500D02*
Y131500D01*
X424500Y208000D02*
X427500D01*
X426000Y206500D02*
Y209500D01*
X424500Y217000D02*
X427500D01*
X426000Y215500D02*
Y218500D01*
X430500Y255000D02*
X433500D01*
X432000Y253500D02*
Y256500D01*
X415156Y249656D02*
X418156D01*
X416656Y248156D02*
Y251156D01*
X365500Y310000D02*
X368500D01*
X367000Y308500D02*
Y311500D01*
X365500Y330000D02*
X368500D01*
X367000Y328500D02*
Y331500D01*
X365500Y319750D02*
X368500D01*
X367000Y318250D02*
Y321250D01*
X494500Y310000D02*
X497500D01*
X496000Y308500D02*
Y311500D01*
X528596Y292904D02*
X531596D01*
X530096Y291404D02*
Y294404D01*
X541096Y305404D02*
X544096D01*
X542596Y303904D02*
Y306904D01*
X178500Y212000D02*
X181500D01*
X180000Y210500D02*
Y213500D01*
X263500Y127000D02*
X266500D01*
X265000Y125500D02*
Y128500D01*
X231500Y180000D02*
X234500D01*
X233000Y178500D02*
Y181500D01*
X255500Y180000D02*
X258500D01*
X257000Y178500D02*
Y181500D01*
X243500Y180000D02*
X246500D01*
X245000Y178500D02*
Y181500D01*
X202500Y184000D02*
X205500D01*
X204000Y182500D02*
Y185500D01*
X342500Y267000D02*
X345500D01*
X344000Y265500D02*
Y268500D01*
X165500Y285364D02*
X168500D01*
X167000Y283864D02*
Y286864D01*
X262500Y226000D02*
X265500D01*
X264000Y224500D02*
Y227500D01*
X442683Y188000D02*
X445683D01*
X444183Y186500D02*
Y189500D01*
X81500Y170000D02*
X84500D01*
X83000Y168500D02*
Y171500D01*
X474000Y385000D02*
X477000D01*
X475500Y383500D02*
Y386500D01*
X474000Y285000D02*
X477000D01*
X475500Y283500D02*
Y286500D01*
X208500Y94000D02*
X211500D01*
X210000Y92500D02*
Y95500D01*
X195500Y102000D02*
X198500D01*
X197000Y100500D02*
Y103500D01*
X661500Y360000D02*
X664500D01*
X663000Y358500D02*
Y361500D01*
X661500Y310000D02*
X664500D01*
X663000Y308500D02*
Y311500D01*
X674000Y285000D02*
X677000D01*
X675500Y283500D02*
Y286500D01*
X661500Y260000D02*
X664500D01*
X663000Y258500D02*
Y261500D01*
X661500Y160000D02*
X664500D01*
X663000Y158500D02*
Y161500D01*
X674000Y135000D02*
X677000D01*
X675500Y133500D02*
Y136500D01*
X636500Y210000D02*
X639500D01*
X638000Y208500D02*
Y211500D01*
X636500Y110000D02*
X639500D01*
X638000Y108500D02*
Y111500D01*
X636500Y60000D02*
X639500D01*
X638000Y58500D02*
Y61500D01*
X611500Y410000D02*
X614500D01*
X613000Y408500D02*
Y411500D01*
X624000Y385000D02*
X627000D01*
X625500Y383500D02*
Y386500D01*
X611500Y360000D02*
X614500D01*
X613000Y358500D02*
Y361500D01*
X624000Y335000D02*
X627000D01*
X625500Y333500D02*
Y336500D01*
X624000Y235000D02*
X627000D01*
X625500Y233500D02*
Y236500D01*
X624000Y185000D02*
X627000D01*
X625500Y183500D02*
Y186500D01*
X611500Y110000D02*
X614500D01*
X613000Y108500D02*
Y111500D01*
X624000Y85000D02*
X627000D01*
X625500Y83500D02*
Y86500D01*
X611500Y60000D02*
X614500D01*
X613000Y58500D02*
Y61500D01*
X611500Y10000D02*
X614500D01*
X613000Y8500D02*
Y11500D01*
X586500Y410000D02*
X589500D01*
X588000Y408500D02*
Y411500D01*
X586500Y360000D02*
X589500D01*
X588000Y358500D02*
Y361500D01*
X599000Y335000D02*
X602000D01*
X600500Y333500D02*
Y336500D01*
X586500Y210000D02*
X589500D01*
X588000Y208500D02*
Y211500D01*
X586500Y160000D02*
X589500D01*
X588000Y158500D02*
Y161500D01*
X586500Y110000D02*
X589500D01*
X588000Y108500D02*
Y111500D01*
X599000Y85000D02*
X602000D01*
X600500Y83500D02*
Y86500D01*
X586500Y60000D02*
X589500D01*
X588000Y58500D02*
Y61500D01*
X561500Y410000D02*
X564500D01*
X563000Y408500D02*
Y411500D01*
X561500Y260000D02*
X564500D01*
X563000Y258500D02*
Y261500D01*
X574000Y135000D02*
X577000D01*
X575500Y133500D02*
Y136500D01*
X574000Y85000D02*
X577000D01*
X575500Y83500D02*
Y86500D01*
X536500Y410000D02*
X539500D01*
X538000Y408500D02*
Y411500D01*
X536500Y360000D02*
X539500D01*
X538000Y358500D02*
Y361500D01*
X536500Y10000D02*
X539500D01*
X538000Y8500D02*
Y11500D01*
X511500Y410000D02*
X514500D01*
X513000Y408500D02*
Y411500D01*
X524000Y285000D02*
X527000D01*
X525500Y283500D02*
Y286500D01*
X511500Y260000D02*
X514500D01*
X513000Y258500D02*
Y261500D01*
X511500Y110000D02*
X514500D01*
X513000Y108500D02*
Y111500D01*
X511500Y10000D02*
X514500D01*
X513000Y8500D02*
Y11500D01*
X499000Y385000D02*
X502000D01*
X500500Y383500D02*
Y386500D01*
X499000Y335000D02*
X502000D01*
X500500Y333500D02*
Y336500D01*
X486500Y210000D02*
X489500D01*
X488000Y208500D02*
Y211500D01*
X486500Y110000D02*
X489500D01*
X488000Y108500D02*
Y111500D01*
X461500Y410000D02*
X464500D01*
X463000Y408500D02*
Y411500D01*
X474000Y235000D02*
X477000D01*
X475500Y233500D02*
Y236500D01*
X474000Y185000D02*
X477000D01*
X475500Y183500D02*
Y186500D01*
X474000Y85000D02*
X477000D01*
X475500Y83500D02*
Y86500D01*
X461500Y60000D02*
X464500D01*
X463000Y58500D02*
Y61500D01*
X436500Y410000D02*
X439500D01*
X438000Y408500D02*
Y411500D01*
X449000Y85000D02*
X452000D01*
X450500Y83500D02*
Y86500D01*
X436500Y60000D02*
X439500D01*
X438000Y58500D02*
Y61500D01*
X424000Y85000D02*
X427000D01*
X425500Y83500D02*
Y86500D01*
X386500Y410000D02*
X389500D01*
X388000Y408500D02*
Y411500D01*
X399000Y85000D02*
X402000D01*
X400500Y83500D02*
Y86500D01*
X386500Y10000D02*
X389500D01*
X388000Y8500D02*
Y11500D01*
X361500Y410000D02*
X364500D01*
X363000Y408500D02*
Y411500D01*
X361500Y360000D02*
X364500D01*
X363000Y358500D02*
Y361500D01*
X374000Y85000D02*
X377000D01*
X375500Y83500D02*
Y86500D01*
X361500Y10000D02*
X364500D01*
X363000Y8500D02*
Y11500D01*
X336500Y410000D02*
X339500D01*
X338000Y408500D02*
Y411500D01*
X349000Y385000D02*
X352000D01*
X350500Y383500D02*
Y386500D01*
X349000Y85000D02*
X352000D01*
X350500Y83500D02*
Y86500D01*
X349000Y35000D02*
X352000D01*
X350500Y33500D02*
Y36500D01*
X311500Y410000D02*
X314500D01*
X313000Y408500D02*
Y411500D01*
X324000Y335000D02*
X327000D01*
X325500Y333500D02*
Y336500D01*
X324000Y85000D02*
X327000D01*
X325500Y83500D02*
Y86500D01*
X324000Y35000D02*
X327000D01*
X325500Y33500D02*
Y36500D01*
X286500Y410000D02*
X289500D01*
X288000Y408500D02*
Y411500D01*
X286500Y110000D02*
X289500D01*
X288000Y108500D02*
Y111500D01*
X299000Y85000D02*
X302000D01*
X300500Y83500D02*
Y86500D01*
X261500Y410000D02*
X264500D01*
X263000Y408500D02*
Y411500D01*
X261500Y310000D02*
X264500D01*
X263000Y308500D02*
Y311500D01*
X261500Y110000D02*
X264500D01*
X263000Y108500D02*
Y111500D01*
X274000Y35000D02*
X277000D01*
X275500Y33500D02*
Y36500D01*
X236500Y410000D02*
X239500D01*
X238000Y408500D02*
Y411500D01*
X249000Y35000D02*
X252000D01*
X250500Y33500D02*
Y36500D01*
X236500Y10000D02*
X239500D01*
X238000Y8500D02*
Y11500D01*
X211500Y110000D02*
X214500D01*
X213000Y108500D02*
Y111500D01*
X224000Y35000D02*
X227000D01*
X225500Y33500D02*
Y36500D01*
X211500Y10000D02*
X214500D01*
X213000Y8500D02*
Y11500D01*
X199000Y335000D02*
X202000D01*
X200500Y333500D02*
Y336500D01*
X199000Y35000D02*
X202000D01*
X200500Y33500D02*
Y36500D01*
X161500Y310000D02*
X164500D01*
X163000Y308500D02*
Y311500D01*
X161500Y260000D02*
X164500D01*
X163000Y258500D02*
Y261500D01*
X174000Y235000D02*
X177000D01*
X175500Y233500D02*
Y236500D01*
X174000Y35000D02*
X177000D01*
X175500Y33500D02*
Y36500D01*
X136500Y110000D02*
X139500D01*
X138000Y108500D02*
Y111500D01*
X111500Y260000D02*
X114500D01*
X113000Y258500D02*
Y261500D01*
X124000Y235000D02*
X127000D01*
X125500Y233500D02*
Y236500D01*
X124000Y35000D02*
X127000D01*
X125500Y33500D02*
Y36500D01*
X86500Y260000D02*
X89500D01*
X88000Y258500D02*
Y261500D01*
X99000Y235000D02*
X102000D01*
X100500Y233500D02*
Y236500D01*
X99000Y185000D02*
X102000D01*
X100500Y183500D02*
Y186500D01*
X86500Y160000D02*
X89500D01*
X88000Y158500D02*
Y161500D01*
X86500Y110000D02*
X89500D01*
X88000Y108500D02*
Y111500D01*
X86500Y10000D02*
X89500D01*
X88000Y8500D02*
Y11500D01*
X74000Y385000D02*
X77000D01*
X75500Y383500D02*
Y386500D01*
X74000Y285000D02*
X77000D01*
X75500Y283500D02*
Y286500D01*
X61500Y260000D02*
X64500D01*
X63000Y258500D02*
Y261500D01*
X74000Y235000D02*
X77000D01*
X75500Y233500D02*
Y236500D01*
X61500Y160000D02*
X64500D01*
X63000Y158500D02*
Y161500D01*
X61500Y110000D02*
X64500D01*
X63000Y108500D02*
Y111500D01*
X74000Y85000D02*
X77000D01*
X75500Y83500D02*
Y86500D01*
X61500Y60000D02*
X64500D01*
X63000Y58500D02*
Y61500D01*
X74000Y35000D02*
X77000D01*
X75500Y33500D02*
Y36500D01*
X49000Y385000D02*
X52000D01*
X50500Y383500D02*
Y386500D01*
X36500Y210000D02*
X39500D01*
X38000Y208500D02*
Y211500D01*
X36500Y110000D02*
X39500D01*
X38000Y108500D02*
Y111500D01*
X49000Y85000D02*
X52000D01*
X50500Y83500D02*
Y86500D01*
X11500Y310000D02*
X14500D01*
X13000Y308500D02*
Y311500D01*
X11500Y260000D02*
X14500D01*
X13000Y258500D02*
Y261500D01*
X24000Y185000D02*
X27000D01*
X25500Y183500D02*
Y186500D01*
X11500Y160000D02*
X14500D01*
X13000Y158500D02*
Y161500D01*
X11500Y110000D02*
X14500D01*
X13000Y108500D02*
Y111500D01*
X24000Y85000D02*
X27000D01*
X25500Y83500D02*
Y86500D01*
X487500Y391000D02*
X490500D01*
X489000Y389500D02*
Y392500D01*
X458500Y317000D02*
X461500D01*
X460000Y315500D02*
Y318500D01*
X443500Y317000D02*
X446500D01*
X445000Y315500D02*
Y318500D01*
X443500Y302000D02*
X446500D01*
X445000Y300500D02*
Y303500D01*
X85500Y405000D02*
X88500D01*
X87000Y403500D02*
Y406500D01*
X609500Y268000D02*
X612500D01*
X611000Y266500D02*
Y269500D01*
X233500Y367000D02*
X236500D01*
X235000Y365500D02*
Y368500D01*
X81500Y224000D02*
X84500D01*
X83000Y222500D02*
Y225500D01*
X33500Y376000D02*
X36500D01*
X35000Y374500D02*
Y377500D01*
X418500Y306000D02*
X421500D01*
X420000Y304500D02*
Y307500D01*
X404500Y337000D02*
X407500D01*
X406000Y335500D02*
Y338500D01*
X404500Y359000D02*
X407500D01*
X406000Y357500D02*
Y360500D01*
X404500Y348000D02*
X407500D01*
X406000Y346500D02*
Y349500D01*
X386500Y339000D02*
X389500D01*
X388000Y337500D02*
Y340500D01*
X386500Y350000D02*
X389500D01*
X388000Y348500D02*
Y351500D01*
X386500Y361000D02*
X389500D01*
X388000Y359500D02*
Y362500D01*
X386500Y372000D02*
X389500D01*
X388000Y370500D02*
Y373500D01*
X125500Y324000D02*
X128500D01*
X127000Y322500D02*
Y325500D01*
X95500Y324000D02*
X98500D01*
X97000Y322500D02*
Y325500D01*
X125500Y339000D02*
X128500D01*
X127000Y337500D02*
Y340500D01*
X110500Y324000D02*
X113500D01*
X112000Y322500D02*
Y325500D01*
X80500Y324000D02*
X83500D01*
X82000Y322500D02*
Y325500D01*
X80500Y339000D02*
X83500D01*
X82000Y337500D02*
Y340500D01*
X110500Y339000D02*
X113500D01*
X112000Y337500D02*
Y340500D01*
X95500Y339000D02*
X98500D01*
X97000Y337500D02*
Y340500D01*
X607500Y216000D02*
X610500D01*
X609000Y214500D02*
Y217500D01*
X599500Y184000D02*
X602500D01*
X601000Y182500D02*
Y185500D01*
X583500Y245000D02*
X586500D01*
X585000Y243500D02*
Y246500D01*
X525500Y188000D02*
X528500D01*
X527000Y186500D02*
Y189500D01*
X525500Y179000D02*
X528500D01*
X527000Y177500D02*
Y180500D01*
X567500Y163000D02*
X570500D01*
X569000Y161500D02*
Y164500D01*
X592500Y154000D02*
X595500D01*
X594000Y152500D02*
Y155500D01*
X564500Y174000D02*
X567500D01*
X566000Y172500D02*
Y175500D01*
X602500Y144000D02*
X605500D01*
X604000Y142500D02*
Y145500D01*
X567500Y144000D02*
X570500D01*
X569000Y142500D02*
Y145500D01*
X168500Y320000D02*
X171500D01*
X170000Y318500D02*
Y321500D01*
X266500Y357000D02*
X269500D01*
X268000Y355500D02*
Y358500D01*
X165500Y230000D02*
X168500D01*
X167000Y228500D02*
Y231500D01*
X165500Y249000D02*
X168500D01*
X167000Y247500D02*
Y250500D01*
X210500Y309575D02*
X213500D01*
X212000Y308075D02*
Y311075D01*
X252500Y290500D02*
X255500D01*
X254000Y289000D02*
Y292000D01*
X176864Y168636D02*
X179864D01*
X178364Y167136D02*
Y170136D01*
X190636Y207864D02*
X193636D01*
X192136Y206364D02*
Y209364D01*
X210500Y298000D02*
X213500D01*
X212000Y296500D02*
Y299500D01*
X326500Y112459D02*
X329500D01*
X328000Y110959D02*
Y113959D01*
X326500Y124000D02*
X329500D01*
X328000Y122500D02*
Y125500D01*
X317500Y112459D02*
X320500D01*
X319000Y110959D02*
Y113959D01*
X317500Y124000D02*
X320500D01*
X319000Y122500D02*
Y125500D01*
X293042Y38500D02*
X296042D01*
X294542Y37000D02*
Y40000D01*
X403500Y10000D02*
X406500D01*
X405000Y8500D02*
Y11500D01*
X313500Y10000D02*
X316500D01*
X315000Y8500D02*
Y11500D01*
X343500Y10000D02*
X346500D01*
X345000Y8500D02*
Y11500D01*
X373500Y10000D02*
X376500D01*
X375000Y8500D02*
Y11500D01*
X334375Y67875D02*
X337375D01*
X335875Y66375D02*
Y69375D01*
X436500Y110000D02*
X439500D01*
X438000Y108500D02*
Y111500D01*
X133500Y440000D02*
X136500D01*
X135000Y438500D02*
Y441500D01*
X210500Y285000D02*
X213500D01*
X212000Y283500D02*
Y286500D01*
X279500Y180000D02*
X282500D01*
X281000Y178500D02*
Y181500D01*
X238500Y201000D02*
X241500D01*
X240000Y199500D02*
Y202500D01*
X583500Y345000D02*
X586500D01*
X585000Y343500D02*
Y346500D01*
X547500Y359000D02*
X550500D01*
X549000Y357500D02*
Y360500D01*
X8500Y330000D02*
X11500D01*
X10000Y328500D02*
Y331500D01*
X418500Y295000D02*
X421500D01*
X420000Y293500D02*
Y296500D01*
X418500Y317000D02*
X421500D01*
X420000Y315500D02*
Y318500D01*
X503500Y30000D02*
X506500D01*
X505000Y28500D02*
Y31500D01*
X483500Y30000D02*
X486500D01*
X485000Y28500D02*
Y31500D01*
X583500Y233000D02*
X586500D01*
X585000Y231500D02*
Y234500D01*
X561500Y190000D02*
X564500D01*
X563000Y188500D02*
Y191500D01*
X561500Y203000D02*
X564500D01*
X563000Y201500D02*
Y204500D01*
X548500Y293000D02*
X551500D01*
X550000Y291500D02*
Y294500D01*
X568500Y293000D02*
X571500D01*
X570000Y291500D02*
Y294500D01*
X552500Y42000D02*
X555500D01*
X554000Y40500D02*
Y43500D01*
X453500Y130000D02*
X456500D01*
X455000Y128500D02*
Y131500D01*
X340683Y226000D02*
X343683D01*
X342183Y224500D02*
Y227500D01*
X370683Y226000D02*
X373683D01*
X372183Y224500D02*
Y227500D01*
X355683Y226000D02*
X358683D01*
X357183Y224500D02*
Y227500D01*
X294500Y229000D02*
X297500D01*
X296000Y227500D02*
Y230500D01*
X340683Y211000D02*
X343683D01*
X342183Y209500D02*
Y212500D01*
X370683Y211000D02*
X373683D01*
X372183Y209500D02*
Y212500D01*
X355683Y196000D02*
X358683D01*
X357183Y194500D02*
Y197500D01*
X340683Y196000D02*
X343683D01*
X342183Y194500D02*
Y197500D01*
X370683Y196000D02*
X373683D01*
X372183Y194500D02*
Y197500D01*
X553500Y10000D02*
X556500D01*
X555000Y8500D02*
Y11500D01*
X433500Y10000D02*
X436500D01*
X435000Y8500D02*
Y11500D01*
X489500Y130000D02*
X492500D01*
X491000Y128500D02*
Y131500D01*
X309654Y296654D02*
X312654D01*
X311154Y295154D02*
Y298154D01*
X328500Y385000D02*
X331500D01*
X330000Y383500D02*
Y386500D01*
X294500Y246000D02*
X297500D01*
X296000Y244500D02*
Y247500D01*
X688500Y330000D02*
X691500D01*
X690000Y328500D02*
Y331500D01*
X329500Y267000D02*
X332500D01*
X331000Y265500D02*
Y268500D01*
X294500Y259000D02*
X297500D01*
X296000Y257500D02*
Y260500D01*
X300500Y271000D02*
X303500D01*
X302000Y269500D02*
Y272500D01*
X283500Y225000D02*
X286500D01*
X285000Y223500D02*
Y226500D01*
X328500Y373000D02*
X331500D01*
X330000Y371500D02*
Y374500D01*
X328500Y361000D02*
X331500D01*
X330000Y359500D02*
Y362500D01*
X267500Y180000D02*
X270500D01*
X269000Y178500D02*
Y181500D01*
X124500Y200000D02*
X127500D01*
X126000Y198500D02*
Y201500D01*
X124500Y180000D02*
X127500D01*
X126000Y178500D02*
Y181500D01*
X124500Y190000D02*
X127500D01*
X126000Y188500D02*
Y191500D01*
X688500Y360000D02*
X691500D01*
X690000Y358500D02*
Y361500D01*
X688500Y300000D02*
X691500D01*
X690000Y298500D02*
Y301500D01*
X688500Y270000D02*
X691500D01*
X690000Y268500D02*
Y271500D01*
X688500Y240000D02*
X691500D01*
X690000Y238500D02*
Y241500D01*
X688500Y210000D02*
X691500D01*
X690000Y208500D02*
Y211500D01*
X688500Y180000D02*
X691500D01*
X690000Y178500D02*
Y181500D01*
X688500Y150000D02*
X691500D01*
X690000Y148500D02*
Y151500D01*
X688500Y120000D02*
X691500D01*
X690000Y118500D02*
Y121500D01*
X688500Y90000D02*
X691500D01*
X690000Y88500D02*
Y91500D01*
X526500Y269000D02*
X529500D01*
X528000Y267500D02*
Y270500D01*
X422683Y173500D02*
X425683D01*
X424183Y172000D02*
Y175000D01*
X364683Y156000D02*
X367683D01*
X366183Y154500D02*
Y157500D01*
X348683Y156000D02*
X351683D01*
X350183Y154500D02*
Y157500D01*
X8500Y360000D02*
X11500D01*
X10000Y358500D02*
Y361500D01*
X8500Y300000D02*
X11500D01*
X10000Y298500D02*
Y301500D01*
X8500Y270000D02*
X11500D01*
X10000Y268500D02*
Y271500D01*
X8500Y240000D02*
X11500D01*
X10000Y238500D02*
Y241500D01*
X8500Y210000D02*
X11500D01*
X10000Y208500D02*
Y211500D01*
X8500Y90000D02*
X11500D01*
X10000Y88500D02*
Y91500D01*
X8500Y120000D02*
X11500D01*
X10000Y118500D02*
Y121500D01*
X8500Y150000D02*
X11500D01*
X10000Y148500D02*
Y151500D01*
X8500Y180000D02*
X11500D01*
X10000Y178500D02*
Y181500D01*
X583500Y10000D02*
X586500D01*
X585000Y8500D02*
Y11500D01*
X463500Y10000D02*
X466500D01*
X465000Y8500D02*
Y11500D01*
X493500Y10000D02*
X496500D01*
X495000Y8500D02*
Y11500D01*
X523500Y10000D02*
X526500D01*
X525000Y8500D02*
Y11500D01*
X223500Y10000D02*
X226500D01*
X225000Y8500D02*
Y11500D01*
X253500Y10000D02*
X256500D01*
X255000Y8500D02*
Y11500D01*
X283500Y10000D02*
X286500D01*
X285000Y8500D02*
Y11500D01*
X193500Y10000D02*
X196500D01*
X195000Y8500D02*
Y11500D01*
X163500Y10000D02*
X166500D01*
X165000Y8500D02*
Y11500D01*
X133500Y10000D02*
X136500D01*
X135000Y8500D02*
Y11500D01*
X103500Y10000D02*
X106500D01*
X105000Y8500D02*
Y11500D01*
X73500Y10000D02*
X76500D01*
X75000Y8500D02*
Y11500D01*
X583500Y440000D02*
X586500D01*
X585000Y438500D02*
Y441500D01*
X463500Y440000D02*
X466500D01*
X465000Y438500D02*
Y441500D01*
X493500Y440000D02*
X496500D01*
X495000Y438500D02*
Y441500D01*
X523500Y440000D02*
X526500D01*
X525000Y438500D02*
Y441500D01*
X553500Y440000D02*
X556500D01*
X555000Y438500D02*
Y441500D01*
X343500Y440000D02*
X346500D01*
X345000Y438500D02*
Y441500D01*
X373500Y440000D02*
X376500D01*
X375000Y438500D02*
Y441500D01*
X403500Y440000D02*
X406500D01*
X405000Y438500D02*
Y441500D01*
X433500Y440000D02*
X436500D01*
X435000Y438500D02*
Y441500D01*
X223500Y440000D02*
X226500D01*
X225000Y438500D02*
Y441500D01*
X253500Y440000D02*
X256500D01*
X255000Y438500D02*
Y441500D01*
X283500Y440000D02*
X286500D01*
X285000Y438500D02*
Y441500D01*
X313500Y440000D02*
X316500D01*
X315000Y438500D02*
Y441500D01*
X193500Y440000D02*
X196500D01*
X195000Y438500D02*
Y441500D01*
X163500Y440000D02*
X166500D01*
X165000Y438500D02*
Y441500D01*
X103500Y440000D02*
X106500D01*
X105000Y438500D02*
Y441500D01*
X73500Y440000D02*
X76500D01*
X75000Y438500D02*
Y441500D01*
X263500Y55000D02*
X266500D01*
X265000Y53500D02*
Y56500D01*
X248500Y55000D02*
X251500D01*
X250000Y53500D02*
Y56500D01*
X248500Y73000D02*
X251500D01*
X250000Y71500D02*
Y74500D01*
X248500Y89000D02*
X251500D01*
X250000Y87500D02*
Y90500D01*
X263500Y73000D02*
X266500D01*
X265000Y71500D02*
Y74500D01*
X263500Y89000D02*
X266500D01*
X265000Y87500D02*
Y90500D01*
X493500Y182000D02*
X496500D01*
X495000Y180500D02*
Y183500D01*
X493500Y199000D02*
X496500D01*
X495000Y197500D02*
Y200500D01*
X493500Y216000D02*
X496500D01*
X495000Y214500D02*
Y217500D01*
X493500Y233000D02*
X496500D01*
X495000Y231500D02*
Y234500D01*
X18500Y315000D02*
X21500D01*
X20000Y313500D02*
Y316500D01*
X18500Y335000D02*
X21500D01*
X20000Y333500D02*
Y336500D01*
X28500Y315000D02*
X31500D01*
X30000Y313500D02*
Y316500D01*
X28500Y335000D02*
X31500D01*
X30000Y333500D02*
Y336500D01*
X419500Y410000D02*
X422500D01*
X421000Y408500D02*
Y411500D01*
X487500Y410000D02*
X490500D01*
X489000Y408500D02*
Y411500D01*
X38500Y335000D02*
X41500D01*
X40000Y333500D02*
Y336500D01*
X38500Y315000D02*
X41500D01*
X40000Y313500D02*
Y316500D01*
X33500Y220000D02*
X36500D01*
X35000Y218500D02*
Y221500D01*
X33500Y190000D02*
X36500D01*
X35000Y188500D02*
Y191500D01*
X348500Y376000D02*
X351500D01*
X350000Y374500D02*
Y377500D01*
X471500Y130000D02*
X474500D01*
X473000Y128500D02*
Y131500D01*
X442683Y164000D02*
X445683D01*
X444183Y162500D02*
Y165500D01*
X568500Y269000D02*
X571500D01*
X570000Y267500D02*
Y270500D01*
X355683Y211000D02*
X358683D01*
X357183Y209500D02*
Y212500D01*
X544500Y269000D02*
X547500D01*
X546000Y267500D02*
Y270500D01*
M02*
