G04*
G04 #@! TF.GenerationSoftware,Altium Limited,Altium Designer,25.4.2 (15)*
G04*
G04 Layer_Color=32896*
%FSLAX44Y44*%
%MOMM*%
G71*
G04*
G04 #@! TF.SameCoordinates,49B81D0F-A9A4-424D-AE8F-31BE1D99DEBE*
G04*
G04*
G04 #@! TF.FilePolarity,Positive*
G04*
G01*
G75*
%ADD99R,9.0000X1.6000*%
G36*
X469419Y395347D02*
X469627Y395306D01*
X469821Y395250D01*
X469974Y395181D01*
X470112Y395112D01*
X470223Y395056D01*
X470279Y395014D01*
X470307Y395001D01*
X470473Y394862D01*
X470612Y394709D01*
X470737Y394543D01*
X470820Y394404D01*
X470889Y394266D01*
X470931Y394169D01*
X470958Y394099D01*
X470972Y394071D01*
X471000Y393919D01*
X470972Y393780D01*
X470931Y393669D01*
X470889Y393600D01*
X470861Y393572D01*
X470737Y393503D01*
X470626Y393461D01*
X470528Y393447D01*
X470501D01*
X470362Y393475D01*
X470279Y393531D01*
X470251Y393544D01*
X470237Y393558D01*
X470154Y393628D01*
X470112Y393711D01*
X470085Y393766D01*
Y393780D01*
X469988Y393988D01*
X469932Y394058D01*
X469863Y394127D01*
X469821Y394182D01*
X469780Y394224D01*
X469752Y394238D01*
X469738Y394252D01*
X469641Y394307D01*
X469558Y394363D01*
X469377Y394404D01*
X469308Y394418D01*
X469253Y394432D01*
X468254D01*
X468115Y394418D01*
X467977Y394390D01*
X467866Y394349D01*
X467769Y394293D01*
X467699Y394238D01*
X467630Y394196D01*
X467602Y394169D01*
X467588Y394155D01*
X467491Y394044D01*
X467422Y393933D01*
X467380Y393822D01*
X467339Y393725D01*
X467325Y393628D01*
X467311Y393558D01*
Y393503D01*
Y393489D01*
Y392546D01*
X467325Y392393D01*
X467353Y392255D01*
X467394Y392144D01*
X467450Y392033D01*
X467505Y391963D01*
X467547Y391894D01*
X467575Y391866D01*
X467588Y391852D01*
X467699Y391769D01*
X467810Y391714D01*
X467921Y391658D01*
X468018Y391631D01*
X468115Y391617D01*
X468185Y391603D01*
X469738D01*
X469807Y391575D01*
X469904Y391534D01*
X469974Y391478D01*
X470001Y391464D01*
Y391450D01*
X470071Y391339D01*
X470112Y391228D01*
X470126Y391159D01*
Y391145D01*
Y391131D01*
X470112Y390993D01*
X470057Y390896D01*
X470015Y390826D01*
X470001Y390798D01*
X469891Y390729D01*
X469780Y390687D01*
X469696Y390674D01*
X468254D01*
X468088Y390660D01*
X467935Y390632D01*
X467810Y390577D01*
X467713Y390535D01*
X467630Y390480D01*
X467575Y390424D01*
X467547Y390396D01*
X467533Y390382D01*
X467464Y390285D01*
X467408Y390188D01*
X467366Y390077D01*
X467339Y389966D01*
X467325Y389869D01*
X467311Y389800D01*
Y389744D01*
Y389731D01*
Y387858D01*
X467325Y387706D01*
X467353Y387581D01*
X467394Y387456D01*
X467450Y387359D01*
X467505Y387290D01*
X467547Y387220D01*
X467575Y387193D01*
X467588Y387179D01*
X467699Y387096D01*
X467810Y387040D01*
X467921Y386985D01*
X468018Y386957D01*
X468115Y386943D01*
X468185Y386929D01*
X469197D01*
X469294Y386943D01*
X469405Y386957D01*
X469572Y387012D01*
X469655Y387040D01*
X469710Y387068D01*
X469738Y387096D01*
X469752D01*
X469835Y387179D01*
X469904Y387262D01*
X470015Y387428D01*
X470043Y387498D01*
X470071Y387553D01*
X470085Y387581D01*
Y387595D01*
X470140Y387706D01*
X470210Y387775D01*
X470279Y387831D01*
X470348Y387872D01*
X470404Y387900D01*
X470459Y387914D01*
X470584D01*
X470653Y387886D01*
X470764Y387845D01*
X470834Y387789D01*
X470861Y387775D01*
Y387761D01*
X470945Y387650D01*
X470986Y387553D01*
X471000Y387470D01*
Y387456D01*
Y387442D01*
X470972Y387276D01*
X470889Y387068D01*
X470778Y386888D01*
X470667Y386721D01*
X470542Y386596D01*
X470445Y386485D01*
X470362Y386416D01*
X470307Y386361D01*
X470279Y386347D01*
X470099Y386236D01*
X469904Y386152D01*
X469724Y386083D01*
X469558Y386042D01*
X469405Y386014D01*
X469294Y386000D01*
X468268D01*
X467991Y386028D01*
X467727Y386083D01*
X467505Y386166D01*
X467311Y386277D01*
X467159Y386374D01*
X467034Y386458D01*
X466964Y386513D01*
X466937Y386541D01*
X466756Y386763D01*
X466618Y386985D01*
X466521Y387206D01*
X466451Y387415D01*
X466410Y387595D01*
X466396Y387747D01*
X466382Y387803D01*
Y387845D01*
Y387858D01*
Y387872D01*
Y389744D01*
Y389897D01*
X466410Y390050D01*
X466479Y390327D01*
X466590Y390563D01*
X466701Y390771D01*
X466812Y390923D01*
X466923Y391048D01*
X466992Y391117D01*
X467006Y391145D01*
X467020D01*
X466812Y391353D01*
X466742Y391450D01*
X466673Y391547D01*
X466618Y391644D01*
X466576Y391714D01*
X466562Y391755D01*
X466548Y391769D01*
X466493Y391908D01*
X466451Y392047D01*
X466423Y392185D01*
X466396Y392296D01*
Y392393D01*
X466382Y392477D01*
Y392532D01*
Y392546D01*
Y393489D01*
X466410Y393766D01*
X466465Y394016D01*
X466562Y394238D01*
X466659Y394432D01*
X466756Y394585D01*
X466853Y394709D01*
X466909Y394779D01*
X466937Y394806D01*
X467145Y394987D01*
X467366Y395125D01*
X467588Y395223D01*
X467810Y395292D01*
X467991Y395333D01*
X468129Y395347D01*
X468185Y395361D01*
X469197D01*
X469419Y395347D01*
D02*
G37*
G36*
X435261D02*
X435441Y395306D01*
X435608Y395250D01*
X435746Y395195D01*
X435871Y395125D01*
X435955Y395070D01*
X436010Y395028D01*
X436024Y395014D01*
X436163Y394848D01*
X436273Y394668D01*
X436343Y394487D01*
X436398Y394321D01*
X436426Y394182D01*
X436440Y394058D01*
X436454Y393988D01*
Y393974D01*
Y393960D01*
Y392074D01*
X436440Y391839D01*
X436385Y391631D01*
X436315Y391450D01*
X436232Y391298D01*
X436163Y391173D01*
X436093Y391090D01*
X436038Y391034D01*
X436024Y391020D01*
X435871Y390909D01*
X435705Y390826D01*
X435538Y390757D01*
X435386Y390715D01*
X435247Y390687D01*
X435150Y390674D01*
X435053D01*
X434859Y390687D01*
X434679Y390729D01*
X434512Y390785D01*
X434374Y390854D01*
X434263Y390909D01*
X434165Y390965D01*
X434110Y391007D01*
X434096Y391020D01*
X433944Y391187D01*
X433833Y391367D01*
X433763Y391547D01*
X433708Y391714D01*
X433680Y391852D01*
X433652Y391977D01*
Y392047D01*
Y392074D01*
Y393960D01*
X433666Y394196D01*
X433722Y394404D01*
X433791Y394585D01*
X433874Y394737D01*
X433957Y394862D01*
X434027Y394945D01*
X434082Y395001D01*
X434096Y395014D01*
X434249Y395125D01*
X434415Y395209D01*
X434582Y395278D01*
X434720Y395320D01*
X434859Y395347D01*
X434956Y395361D01*
X435053D01*
X435261Y395347D01*
D02*
G37*
G36*
X442681D02*
X442778Y395306D01*
X442847Y395250D01*
X442875Y395236D01*
X442958Y395112D01*
X443000Y395001D01*
X443014Y394917D01*
Y394903D01*
Y394890D01*
Y386458D01*
X442986Y386305D01*
X442944Y386194D01*
X442903Y386139D01*
X442875Y386111D01*
X442764Y386042D01*
X442667Y386014D01*
X442584Y386000D01*
X442556D01*
X442417Y386014D01*
X442306Y386055D01*
X442251Y386097D01*
X442223Y386111D01*
X442140Y386222D01*
X442098Y386333D01*
X442084Y386416D01*
Y386444D01*
Y386458D01*
Y393073D01*
X438284Y386236D01*
X438229Y386152D01*
X438160Y386097D01*
X438090Y386055D01*
X438021Y386028D01*
X437966Y386014D01*
X437910Y386000D01*
X437868D01*
X437744Y386014D01*
X437646Y386055D01*
X437577Y386097D01*
X437549Y386111D01*
X437494Y386180D01*
X437466Y386250D01*
X437411Y386361D01*
X437397Y386444D01*
Y386458D01*
Y386471D01*
Y394890D01*
Y394973D01*
X437425Y395042D01*
X437466Y395153D01*
X437522Y395223D01*
X437536Y395236D01*
X437549D01*
X437660Y395306D01*
X437757Y395347D01*
X437841Y395361D01*
X437868D01*
X437993Y395347D01*
X438090Y395306D01*
X438160Y395250D01*
X438187Y395236D01*
X438271Y395112D01*
X438312Y395001D01*
X438326Y394917D01*
Y394903D01*
Y394890D01*
Y388274D01*
X442140Y395112D01*
X442195Y395195D01*
X442265Y395250D01*
X442334Y395306D01*
X442389Y395333D01*
X442445Y395347D01*
X442500Y395361D01*
X442542D01*
X442681Y395347D01*
D02*
G37*
G36*
X462943Y392518D02*
X463192Y392463D01*
X463428Y392366D01*
X463608Y392268D01*
X463775Y392171D01*
X463885Y392074D01*
X463955Y392019D01*
X463983Y391991D01*
X464163Y391783D01*
X464302Y391561D01*
X464385Y391339D01*
X464454Y391131D01*
X464496Y390951D01*
X464510Y390798D01*
X464524Y390743D01*
Y390715D01*
Y390687D01*
Y390674D01*
Y387858D01*
X464496Y387581D01*
X464440Y387331D01*
X464343Y387096D01*
X464246Y386915D01*
X464149Y386749D01*
X464052Y386638D01*
X463997Y386569D01*
X463969Y386541D01*
X463747Y386361D01*
X463525Y386222D01*
X463317Y386139D01*
X463109Y386069D01*
X462929Y386028D01*
X462790Y386014D01*
X462734Y386000D01*
X461722D01*
X461583Y386014D01*
X461431Y386028D01*
X461306Y386055D01*
X461181Y386083D01*
X461084Y386111D01*
X461015Y386139D01*
X460959Y386166D01*
X460945D01*
X460807Y386236D01*
X460682Y386319D01*
X460571Y386388D01*
X460488Y386458D01*
X460418Y386513D01*
X460363Y386569D01*
X460335Y386596D01*
X460321Y386610D01*
X460210Y386471D01*
X460086Y386361D01*
X459961Y386264D01*
X459836Y386180D01*
X459739Y386125D01*
X459642Y386083D01*
X459586Y386055D01*
X459572Y386042D01*
X459503Y386014D01*
X459434Y386000D01*
X459378D01*
X459240Y386028D01*
X459129Y386069D01*
X459073Y386111D01*
X459045Y386139D01*
X458962Y386250D01*
X458921Y386347D01*
X458907Y386444D01*
Y386458D01*
Y386471D01*
X458921Y386582D01*
X458948Y386666D01*
X459004Y386735D01*
X459045Y386791D01*
X459101Y386832D01*
X459156Y386860D01*
X459184Y386888D01*
X459198D01*
X459309Y386943D01*
X459406Y387012D01*
X459489Y387082D01*
X459559Y387151D01*
X459600Y387206D01*
X459642Y387262D01*
X459656Y387290D01*
X459669Y387304D01*
X459725Y387415D01*
X459767Y387512D01*
X459822Y387692D01*
X459836Y387775D01*
X459850Y387831D01*
Y387858D01*
Y387872D01*
Y392074D01*
X459864Y392227D01*
X459919Y392352D01*
X460002Y392435D01*
X460086Y392490D01*
X460169Y392518D01*
X460252Y392546D01*
X462665D01*
X462943Y392518D01*
D02*
G37*
G36*
X456549Y395347D02*
X456771Y395292D01*
X456965Y395223D01*
X457132Y395153D01*
X457270Y395070D01*
X457381Y395001D01*
X457437Y394945D01*
X457464Y394931D01*
X457631Y394737D01*
X457756Y394529D01*
X457853Y394321D01*
X457908Y394113D01*
X457950Y393947D01*
X457964Y393794D01*
X457978Y393739D01*
Y393711D01*
Y393683D01*
Y393669D01*
Y387858D01*
X457950Y387581D01*
X457894Y387331D01*
X457797Y387096D01*
X457700Y386915D01*
X457603Y386749D01*
X457506Y386638D01*
X457451Y386569D01*
X457423Y386541D01*
X457201Y386361D01*
X456979Y386222D01*
X456771Y386139D01*
X456563Y386069D01*
X456383Y386028D01*
X456244Y386014D01*
X456189Y386000D01*
X455176D01*
X454899Y386028D01*
X454635Y386083D01*
X454413Y386166D01*
X454219Y386277D01*
X454067Y386374D01*
X453956Y386458D01*
X453886Y386513D01*
X453859Y386541D01*
X453678Y386763D01*
X453540Y386985D01*
X453443Y387206D01*
X453373Y387415D01*
X453332Y387595D01*
X453318Y387733D01*
X453304Y387789D01*
Y387831D01*
Y387845D01*
Y387858D01*
Y390674D01*
X453318Y390965D01*
X453373Y391214D01*
X453456Y391436D01*
X453540Y391631D01*
X453623Y391783D01*
X453706Y391894D01*
X453762Y391950D01*
X453775Y391977D01*
X453983Y392158D01*
X454205Y392296D01*
X454441Y392393D01*
X454663Y392449D01*
X454871Y392490D01*
X455024Y392504D01*
X455093Y392518D01*
X455176D01*
X455065Y392601D01*
X454968Y392698D01*
X454899Y392768D01*
X454843Y392837D01*
X454802Y392906D01*
X454774Y392948D01*
X454746Y392976D01*
Y392990D01*
X454705Y393087D01*
X454663Y393184D01*
X454621Y393420D01*
X454608Y393517D01*
Y393600D01*
Y393655D01*
Y393669D01*
X454635Y393960D01*
X454691Y394210D01*
X454774Y394418D01*
X454871Y394598D01*
X454968Y394737D01*
X455051Y394834D01*
X455107Y394903D01*
X455135Y394917D01*
X455329Y395070D01*
X455537Y395181D01*
X455731Y395250D01*
X455911Y395306D01*
X456064Y395333D01*
X456189Y395361D01*
X456300D01*
X456549Y395347D01*
D02*
G37*
G36*
X451113Y386901D02*
X451210Y386860D01*
X451279Y386818D01*
X451307Y386791D01*
X451376Y386679D01*
X451418Y386569D01*
X451432Y386485D01*
Y386471D01*
Y386458D01*
X451418Y386333D01*
X451362Y386236D01*
X451321Y386166D01*
X451307Y386139D01*
X451196Y386055D01*
X451085Y386014D01*
X451002Y386000D01*
X450974D01*
X450835Y386028D01*
X450738Y386069D01*
X450669Y386111D01*
X450641Y386139D01*
X450558Y386250D01*
X450516Y386361D01*
X450503Y386430D01*
Y386444D01*
Y386458D01*
Y386527D01*
X450530Y386596D01*
X450586Y386693D01*
X450641Y386763D01*
X450655Y386791D01*
X450669D01*
X450780Y386874D01*
X450877Y386915D01*
X450946Y386929D01*
X450974D01*
X451113Y386901D01*
D02*
G37*
%LPC*%
G36*
X435081Y394432D02*
X435053D01*
X434928Y394418D01*
X434831Y394376D01*
X434762Y394335D01*
X434734Y394321D01*
X434679Y394252D01*
X434651Y394196D01*
X434595Y394085D01*
X434582Y393988D01*
Y393974D01*
Y393960D01*
Y392074D01*
Y391991D01*
X434609Y391922D01*
X434665Y391811D01*
X434720Y391741D01*
X434734Y391714D01*
X434748D01*
X434859Y391644D01*
X434956Y391617D01*
X435025Y391603D01*
X435053D01*
X435206Y391617D01*
X435303Y391658D01*
X435372Y391700D01*
X435400Y391714D01*
X435469Y391825D01*
X435511Y391950D01*
X435525Y392033D01*
Y392061D01*
Y392074D01*
Y393960D01*
X435497Y394113D01*
X435455Y394224D01*
X435414Y394279D01*
X435386Y394307D01*
X435275Y394376D01*
X435164Y394418D01*
X435081Y394432D01*
D02*
G37*
G36*
X462734Y391617D02*
X460779D01*
Y387858D01*
X460793Y387706D01*
X460821Y387581D01*
X460862Y387456D01*
X460918Y387359D01*
X460973Y387290D01*
X461015Y387220D01*
X461043Y387193D01*
X461056Y387179D01*
X461167Y387096D01*
X461278Y387040D01*
X461389Y386985D01*
X461486Y386957D01*
X461583Y386943D01*
X461653Y386929D01*
X462665D01*
X462790Y386943D01*
X462901Y386957D01*
X462998Y386971D01*
X463012Y386985D01*
X463026D01*
X463137Y387054D01*
X463234Y387123D01*
X463303Y387179D01*
X463331Y387193D01*
X463414Y387304D01*
X463483Y387415D01*
X463525Y387525D01*
X463567Y387636D01*
X463580Y387720D01*
X463594Y387789D01*
Y387845D01*
Y387858D01*
Y390674D01*
X463580Y390812D01*
X463567Y390923D01*
X463553Y391007D01*
X463539Y391020D01*
Y391034D01*
X463483Y391159D01*
X463414Y391256D01*
X463358Y391312D01*
X463331Y391339D01*
X463220Y391436D01*
X463109Y391506D01*
X462998Y391547D01*
X462887Y391589D01*
X462804Y391603D01*
X462734Y391617D01*
D02*
G37*
G36*
X456355Y394404D02*
X456300D01*
X456189Y394390D01*
X456091Y394376D01*
X455925Y394307D01*
X455856Y394266D01*
X455814Y394238D01*
X455786Y394224D01*
X455773Y394210D01*
X455689Y394127D01*
X455634Y394030D01*
X455592Y393947D01*
X455564Y393863D01*
X455551Y393780D01*
X455537Y393725D01*
Y393683D01*
Y393669D01*
X455551Y393572D01*
X455564Y393489D01*
X455634Y393336D01*
X455675Y393281D01*
X455703Y393239D01*
X455717Y393212D01*
X455731Y393198D01*
X455773Y393142D01*
X455842Y393087D01*
X455953Y392976D01*
X456022Y392920D01*
X456064Y392893D01*
X456091Y392865D01*
X456105Y392851D01*
X456674Y392463D01*
X457048Y392213D01*
Y393669D01*
X457034Y393794D01*
X457007Y393905D01*
X456979Y394002D01*
X456937Y394071D01*
X456896Y394141D01*
X456854Y394182D01*
X456840Y394196D01*
X456827Y394210D01*
X456743Y394279D01*
X456646Y394321D01*
X456480Y394376D01*
X456410Y394390D01*
X456355Y394404D01*
D02*
G37*
G36*
X456189Y391603D02*
X455176D01*
X455037Y391589D01*
X454899Y391561D01*
X454788Y391520D01*
X454691Y391464D01*
X454621Y391409D01*
X454552Y391367D01*
X454524Y391339D01*
X454510Y391325D01*
X454413Y391228D01*
X454344Y391117D01*
X454302Y391007D01*
X454261Y390896D01*
X454247Y390812D01*
X454233Y390743D01*
Y390687D01*
Y390674D01*
Y387858D01*
X454247Y387706D01*
X454275Y387581D01*
X454316Y387456D01*
X454372Y387359D01*
X454427Y387290D01*
X454469Y387220D01*
X454497Y387193D01*
X454510Y387179D01*
X454621Y387096D01*
X454732Y387040D01*
X454843Y386985D01*
X454940Y386957D01*
X455037Y386943D01*
X455107Y386929D01*
X456119D01*
X456244Y386943D01*
X456355Y386957D01*
X456452Y386971D01*
X456466Y386985D01*
X456480D01*
X456591Y387054D01*
X456688Y387123D01*
X456757Y387179D01*
X456785Y387193D01*
X456868Y387304D01*
X456937Y387415D01*
X456979Y387525D01*
X457021Y387636D01*
X457034Y387720D01*
X457048Y387789D01*
Y387845D01*
Y387858D01*
Y390674D01*
X457034Y390812D01*
X457021Y390923D01*
X457007Y391007D01*
X456993Y391020D01*
Y391034D01*
X456937Y391159D01*
X456868Y391256D01*
X456813Y391312D01*
X456785Y391339D01*
X456674Y391423D01*
X456563Y391492D01*
X456452Y391534D01*
X456341Y391575D01*
X456258Y391589D01*
X456189Y391603D01*
D02*
G37*
%LPD*%
D99*
X385000Y390000D02*
D03*
M02*
