G04*
G04 #@! TF.GenerationSoftware,Altium Limited,Altium Designer,25.4.2 (15)*
G04*
G04 Layer_Physical_Order=4*
G04 Layer_Color=16711680*
%FSLAX44Y44*%
%MOMM*%
G71*
G04*
G04 #@! TF.SameCoordinates,49B81D0F-A9A4-424D-AE8F-31BE1D99DEBE*
G04*
G04*
G04 #@! TF.FilePolarity,Positive*
G04*
G01*
G75*
%ADD11C,0.2000*%
%ADD12C,0.2500*%
%ADD13C,0.4000*%
%ADD15C,0.5000*%
%ADD78C,0.3000*%
%ADD80C,0.7000*%
%ADD91C,1.6000*%
%ADD92R,1.6000X1.6000*%
%ADD93C,0.7000*%
G36*
X642917Y444536D02*
X642159Y443778D01*
X638782Y439130D01*
X636174Y434011D01*
X634399Y428547D01*
X633500Y422873D01*
Y417127D01*
X634399Y411453D01*
X636174Y405989D01*
X638782Y400870D01*
X642159Y396222D01*
X646222Y392159D01*
X650870Y388782D01*
X655989Y386174D01*
X661453Y384399D01*
X667127Y383500D01*
X672873D01*
X678547Y384399D01*
X684011Y386174D01*
X689130Y388782D01*
X693500Y391957D01*
X695000Y391501D01*
Y58499D01*
X693500Y58043D01*
X689130Y61218D01*
X684011Y63826D01*
X678547Y65601D01*
X672873Y66500D01*
X667127D01*
X661453Y65601D01*
X655989Y63826D01*
X650870Y61218D01*
X646222Y57841D01*
X642159Y53778D01*
X638782Y49130D01*
X636174Y44011D01*
X634399Y38547D01*
X633500Y32873D01*
Y27127D01*
X634399Y21453D01*
X636174Y15989D01*
X638782Y10870D01*
X642159Y6222D01*
X642917Y5464D01*
X642343Y4078D01*
X57657Y4078D01*
X57083Y5464D01*
X57841Y6222D01*
X61218Y10870D01*
X63826Y15989D01*
X65601Y21453D01*
X66500Y27127D01*
Y32873D01*
X65601Y38547D01*
X63826Y44011D01*
X61218Y49130D01*
X57841Y53778D01*
X53778Y57841D01*
X49130Y61218D01*
X44011Y63826D01*
X38547Y65601D01*
X32873Y66500D01*
X27127D01*
X21453Y65601D01*
X15989Y63826D01*
X10870Y61218D01*
X6222Y57841D01*
X5464Y57083D01*
X4078Y57657D01*
X4078Y392343D01*
X5464Y392917D01*
X6222Y392159D01*
X10870Y388782D01*
X15989Y386174D01*
X21453Y384399D01*
X27127Y383500D01*
X32873D01*
X38547Y384399D01*
X44011Y386174D01*
X49130Y388782D01*
X53778Y392159D01*
X57841Y396222D01*
X61218Y400870D01*
X63826Y405989D01*
X65601Y411453D01*
X66500Y417127D01*
Y422873D01*
X65601Y428547D01*
X63826Y434011D01*
X61218Y439130D01*
X57841Y443778D01*
X57083Y444536D01*
X57657Y445922D01*
X642343D01*
X642917Y444536D01*
D02*
G37*
%LPC*%
G36*
X593386Y403125D02*
Y394790D01*
X601720D01*
X601170Y396843D01*
X599788Y399237D01*
X597833Y401192D01*
X595439Y402575D01*
X593386Y403125D01*
D02*
G37*
G36*
X589386D02*
X587333Y402575D01*
X584939Y401192D01*
X582984Y399237D01*
X581601Y396843D01*
X581051Y394790D01*
X589386D01*
Y403125D01*
D02*
G37*
G36*
X567702Y402790D02*
X565069D01*
X562526Y402108D01*
X560246Y400792D01*
X558384Y398930D01*
X557067Y396650D01*
X556386Y394107D01*
Y391474D01*
X557067Y388930D01*
X558384Y386650D01*
X560246Y384788D01*
X562526Y383471D01*
X565069Y382790D01*
X567702D01*
X570246Y383471D01*
X572526Y384788D01*
X574388Y386650D01*
X575704Y388930D01*
X576386Y391474D01*
Y394107D01*
X575704Y396650D01*
X574388Y398930D01*
X572526Y400792D01*
X570246Y402108D01*
X567702Y402790D01*
D02*
G37*
G36*
X551386D02*
X531386D01*
Y382790D01*
X551386D01*
Y402790D01*
D02*
G37*
G36*
X601720Y390790D02*
X593386D01*
Y382456D01*
X595439Y383006D01*
X597833Y384388D01*
X599788Y386343D01*
X601170Y388737D01*
X601720Y390790D01*
D02*
G37*
G36*
X589386D02*
X581051D01*
X581601Y388737D01*
X582984Y386343D01*
X584939Y384388D01*
X587333Y383006D01*
X589386Y382456D01*
Y390790D01*
D02*
G37*
G36*
X313500Y398500D02*
X178500D01*
Y379000D01*
X313500D01*
Y398500D01*
D02*
G37*
G36*
X331094Y390500D02*
X328906D01*
X326884Y389663D01*
X325337Y388116D01*
X324500Y386094D01*
Y383906D01*
X325337Y381884D01*
X326884Y380337D01*
X328153Y379812D01*
Y378188D01*
X326884Y377663D01*
X325337Y376115D01*
X324500Y374094D01*
Y371906D01*
X325337Y369884D01*
X326884Y368337D01*
X328153Y367812D01*
Y366188D01*
X326884Y365663D01*
X325337Y364115D01*
X324500Y362094D01*
Y359906D01*
X325337Y357884D01*
X326884Y356337D01*
X328906Y355500D01*
X331094D01*
X333116Y356337D01*
X334663Y357884D01*
X335500Y359906D01*
Y362094D01*
X334663Y364115D01*
X333116Y365663D01*
X331847Y366188D01*
Y367812D01*
X333116Y368337D01*
X334663Y369884D01*
X335500Y371906D01*
Y374094D01*
X334663Y376115D01*
X333116Y377663D01*
X331847Y378188D01*
Y379812D01*
X333116Y380337D01*
X334663Y381884D01*
X335500Y383906D01*
Y386094D01*
X334663Y388116D01*
X333116Y389663D01*
X331094Y390500D01*
D02*
G37*
G36*
X490094Y396500D02*
X487906D01*
X485885Y395663D01*
X484337Y394115D01*
X483500Y392094D01*
Y389906D01*
X484337Y387884D01*
X485431Y386790D01*
Y281478D01*
X426453Y222500D01*
X424906D01*
X422884Y221663D01*
X421337Y220116D01*
X420500Y218094D01*
Y215906D01*
X421337Y213885D01*
X422722Y212500D01*
X421337Y211115D01*
X420500Y209094D01*
Y206906D01*
X421337Y204884D01*
X422884Y203337D01*
X424303Y202750D01*
X424788Y201114D01*
X421837Y198163D01*
X421174Y197171D01*
X420941Y196000D01*
X420941Y196000D01*
Y178692D01*
X420937Y178660D01*
X420907Y178532D01*
X420862Y178391D01*
X420798Y178236D01*
X420712Y178066D01*
X420601Y177881D01*
X420464Y177683D01*
X420298Y177471D01*
X420070Y177209D01*
X420010Y177104D01*
X419520Y176616D01*
X418683Y174594D01*
Y172406D01*
X419520Y170385D01*
X421068Y168837D01*
X423089Y168000D01*
X425277D01*
X427299Y168837D01*
X428846Y170385D01*
X429683Y172406D01*
Y174594D01*
X428846Y176616D01*
X428005Y177456D01*
X427893Y177612D01*
X427657Y177834D01*
X427496Y178006D01*
X427365Y178166D01*
X427263Y178313D01*
X427186Y178447D01*
X427129Y178569D01*
X427089Y178681D01*
X427063Y178788D01*
X427059Y178813D01*
Y194733D01*
X574267Y341941D01*
X579742D01*
X579770Y341937D01*
X579888Y341909D01*
X580015Y341866D01*
X580153Y341805D01*
X580305Y341722D01*
X580471Y341615D01*
X580651Y341480D01*
X580842Y341317D01*
X581084Y341083D01*
X581238Y340984D01*
X581884Y340337D01*
X583906Y339500D01*
X586094D01*
X588116Y340337D01*
X589663Y341884D01*
X590500Y343906D01*
Y346094D01*
X589663Y348116D01*
X588116Y349663D01*
X586094Y350500D01*
X583906D01*
X581884Y349663D01*
X581237Y349016D01*
X581084Y348917D01*
X580842Y348683D01*
X580651Y348520D01*
X580471Y348385D01*
X580305Y348278D01*
X580153Y348195D01*
X580015Y348134D01*
X579888Y348091D01*
X579770Y348063D01*
X579742Y348059D01*
X573000D01*
X573000Y348059D01*
X571829Y347826D01*
X570837Y347163D01*
X570837Y347163D01*
X552541Y328867D01*
X551158Y329605D01*
X551233Y329982D01*
X551233Y329982D01*
Y353972D01*
X552116Y354337D01*
X553663Y355885D01*
X554500Y357906D01*
Y360094D01*
X553663Y362116D01*
X552116Y363663D01*
X550094Y364500D01*
X547906D01*
X545885Y363663D01*
X544337Y362116D01*
X543500Y360094D01*
Y357906D01*
X544337Y355885D01*
X545116Y355106D01*
Y331249D01*
X494069Y280202D01*
X492569Y280823D01*
Y386790D01*
X493663Y387884D01*
X494500Y389906D01*
Y392094D01*
X493663Y394115D01*
X492116Y395663D01*
X490094Y396500D01*
D02*
G37*
G36*
X389094Y377500D02*
X386906D01*
X384884Y376663D01*
X383337Y375116D01*
X382500Y373094D01*
Y370906D01*
X383337Y368885D01*
X384884Y367337D01*
X384946Y367312D01*
Y365688D01*
X384884Y365663D01*
X383337Y364115D01*
X382500Y362094D01*
Y359906D01*
X383337Y357884D01*
X384884Y356337D01*
X384946Y356312D01*
Y354688D01*
X384884Y354663D01*
X383337Y353116D01*
X382500Y351094D01*
Y348906D01*
X383337Y346884D01*
X384884Y345337D01*
X384946Y345312D01*
Y343688D01*
X384884Y343663D01*
X383337Y342116D01*
X382500Y340094D01*
Y337906D01*
X383337Y335885D01*
X384884Y334337D01*
X386906Y333500D01*
X389094D01*
X391115Y334337D01*
X392663Y335885D01*
X393500Y337906D01*
Y340094D01*
X392663Y342116D01*
X391115Y343663D01*
X391054Y343688D01*
Y345312D01*
X391115Y345337D01*
X392663Y346884D01*
X393500Y348906D01*
Y351094D01*
X392663Y353116D01*
X391115Y354663D01*
X391054Y354688D01*
Y356312D01*
X391115Y356337D01*
X392663Y357884D01*
X393500Y359906D01*
Y362094D01*
X392663Y364115D01*
X391115Y365663D01*
X391054Y365688D01*
Y367312D01*
X391115Y367337D01*
X392663Y368885D01*
X393500Y370906D01*
Y373094D01*
X392663Y375116D01*
X391115Y376663D01*
X389094Y377500D01*
D02*
G37*
G36*
X128094Y344500D02*
X125906D01*
X123884Y343663D01*
X122337Y342116D01*
X121500Y340094D01*
Y337906D01*
X122337Y335885D01*
X123884Y334337D01*
X125906Y333500D01*
X128094D01*
X130115Y334337D01*
X131663Y335885D01*
X132500Y337906D01*
Y340094D01*
X131663Y342116D01*
X130115Y343663D01*
X128094Y344500D01*
D02*
G37*
G36*
X113094D02*
X110906D01*
X108884Y343663D01*
X107337Y342116D01*
X106500Y340094D01*
Y337906D01*
X107337Y335885D01*
X108884Y334337D01*
X110906Y333500D01*
X113094D01*
X115115Y334337D01*
X116663Y335885D01*
X117500Y337906D01*
Y340094D01*
X116663Y342116D01*
X115115Y343663D01*
X113094Y344500D01*
D02*
G37*
G36*
X98094D02*
X95906D01*
X93884Y343663D01*
X92337Y342116D01*
X91500Y340094D01*
Y337906D01*
X92337Y335885D01*
X93884Y334337D01*
X95906Y333500D01*
X98094D01*
X100115Y334337D01*
X101663Y335885D01*
X102500Y337906D01*
Y340094D01*
X101663Y342116D01*
X100115Y343663D01*
X98094Y344500D01*
D02*
G37*
G36*
X83094D02*
X80906D01*
X78885Y343663D01*
X77337Y342116D01*
X76500Y340094D01*
Y337906D01*
X77337Y335885D01*
X78885Y334337D01*
X80906Y333500D01*
X83094D01*
X85115Y334337D01*
X86663Y335885D01*
X87500Y337906D01*
Y340094D01*
X86663Y342116D01*
X85115Y343663D01*
X83094Y344500D01*
D02*
G37*
G36*
X289000Y336000D02*
X228267Y335941D01*
X227941D01*
X225059Y333059D01*
X211636D01*
X211636Y333059D01*
X210466Y332826D01*
X209473Y332163D01*
X168556Y291245D01*
X168532Y291227D01*
X168429Y291165D01*
X168309Y291105D01*
X168168Y291050D01*
X168002Y291001D01*
X167809Y290960D01*
X167587Y290928D01*
X167336Y290909D01*
X166999Y290903D01*
X166821Y290864D01*
X165906D01*
X163885Y290027D01*
X162337Y288479D01*
X161500Y286458D01*
Y284270D01*
X162337Y282248D01*
X163885Y280701D01*
X165906Y279864D01*
X168094D01*
X170116Y280701D01*
X171663Y282248D01*
X172500Y284270D01*
Y285185D01*
X172539Y285363D01*
X172545Y285700D01*
X172564Y285951D01*
X172596Y286173D01*
X172637Y286366D01*
X172687Y286532D01*
X172741Y286673D01*
X172801Y286793D01*
X172864Y286896D01*
X172881Y286919D01*
X192555Y306594D01*
X193941Y306020D01*
Y275267D01*
X171698Y253024D01*
X171584Y253045D01*
X171115Y253173D01*
X170940Y253236D01*
X170202Y253576D01*
X170116Y253663D01*
X168094Y254500D01*
X165906D01*
X163885Y253663D01*
X162337Y252115D01*
X161500Y250094D01*
Y247906D01*
X162337Y245884D01*
X163885Y244337D01*
X165906Y243500D01*
X168094D01*
X170116Y244337D01*
X171663Y245884D01*
X171832Y246293D01*
X171964Y246515D01*
X172055Y246640D01*
X172135Y246731D01*
X172201Y246792D01*
X172256Y246832D01*
X172304Y246859D01*
X172353Y246880D01*
X172413Y246897D01*
X172422Y246898D01*
X172957D01*
X172957Y246898D01*
X174127Y247131D01*
X175120Y247794D01*
X199163Y271837D01*
X199163Y271837D01*
X199785Y272768D01*
X199844Y272834D01*
X201437Y273238D01*
X221837Y252837D01*
X221837Y252837D01*
X222829Y252174D01*
X224000Y251941D01*
X224000Y251941D01*
X262925D01*
X283084Y231783D01*
X282732Y230014D01*
X281884Y229663D01*
X280337Y228116D01*
X279500Y226094D01*
Y223906D01*
X280337Y221884D01*
X281884Y220337D01*
X283906Y219500D01*
X284821D01*
X284999Y219461D01*
X285336Y219455D01*
X285587Y219436D01*
X285809Y219404D01*
X286002Y219363D01*
X286168Y219313D01*
X286309Y219259D01*
X286429Y219199D01*
X286532Y219136D01*
X286556Y219119D01*
X287837Y217837D01*
X287837Y217837D01*
X288829Y217174D01*
X290000Y216941D01*
X300882D01*
X300882Y216941D01*
X302053Y217174D01*
X303045Y217837D01*
X309163Y223955D01*
X309163Y223955D01*
X309826Y224947D01*
X310059Y226117D01*
X310059Y226118D01*
Y266000D01*
X310059Y266000D01*
X309826Y267171D01*
X309163Y268163D01*
X307881Y269445D01*
X307864Y269468D01*
X307801Y269571D01*
X307741Y269691D01*
X307687Y269832D01*
X307637Y269998D01*
X307596Y270191D01*
X307564Y270413D01*
X307545Y270664D01*
X307539Y271001D01*
X307500Y271179D01*
Y272094D01*
X306663Y274116D01*
X305116Y275663D01*
X303094Y276500D01*
X300906D01*
X298885Y275663D01*
X297337Y274116D01*
X296500Y272094D01*
Y269906D01*
X297337Y267885D01*
X298885Y266337D01*
X300906Y265500D01*
X301821D01*
X301999Y265461D01*
X302336Y265455D01*
X302587Y265436D01*
X302809Y265404D01*
X303002Y265363D01*
X303168Y265313D01*
X303309Y265259D01*
X303429Y265199D01*
X303532Y265136D01*
X303556Y265119D01*
X303941Y264733D01*
Y263000D01*
X299778D01*
X299116Y263663D01*
X297094Y264500D01*
X294906D01*
X292885Y263663D01*
X292711Y263489D01*
X292506Y263376D01*
X291949Y263115D01*
X291742Y263035D01*
X291633Y263000D01*
X276865D01*
X276749Y262884D01*
X270471Y269163D01*
X269478Y269826D01*
X268308Y270059D01*
X268307Y270059D01*
X231267D01*
X217881Y283444D01*
X217864Y283468D01*
X217801Y283571D01*
X217741Y283691D01*
X217687Y283832D01*
X217637Y283998D01*
X217596Y284191D01*
X217564Y284413D01*
X217545Y284664D01*
X217539Y285001D01*
X217500Y285179D01*
Y286094D01*
X216663Y288116D01*
X215116Y289663D01*
X213094Y290500D01*
X211944D01*
X211697Y290654D01*
X211593Y290742D01*
X211564Y290775D01*
X211111Y292000D01*
X211413Y292436D01*
X211664Y292455D01*
X212001Y292461D01*
X212179Y292500D01*
X213094D01*
X215116Y293337D01*
X216663Y294884D01*
X217500Y296906D01*
Y299094D01*
X216663Y301115D01*
X215116Y302663D01*
X214359Y302976D01*
Y304599D01*
X215116Y304913D01*
X216663Y306460D01*
X217500Y308481D01*
Y310669D01*
X216663Y312691D01*
X215116Y314238D01*
X213094Y315075D01*
X210906D01*
X210251Y314804D01*
X209402Y316076D01*
X214267Y320941D01*
X295733D01*
X327941Y288733D01*
Y272258D01*
X327937Y272230D01*
X327909Y272112D01*
X327866Y271985D01*
X327805Y271847D01*
X327722Y271695D01*
X327615Y271529D01*
X327481Y271349D01*
X327317Y271158D01*
X327083Y270916D01*
X326984Y270762D01*
X326337Y270116D01*
X325500Y268094D01*
Y265906D01*
X326337Y263885D01*
X327884Y262337D01*
X329906Y261500D01*
X332094D01*
X334115Y262337D01*
X335663Y263885D01*
X336500Y265906D01*
Y267000D01*
X338500D01*
Y265906D01*
X339337Y263885D01*
X340885Y262337D01*
X342906Y261500D01*
X345094D01*
X347116Y262337D01*
X348663Y263885D01*
X349500Y265906D01*
Y268094D01*
X348663Y270116D01*
X347116Y271663D01*
X346971Y271723D01*
X346938Y271752D01*
X346820Y271879D01*
X346730Y271993D01*
X346665Y272096D01*
X346618Y272188D01*
X346585Y272275D01*
X346562Y272362D01*
X346559Y272381D01*
Y287500D01*
X346559Y287500D01*
X346326Y288671D01*
X345663Y289663D01*
X345663Y289663D01*
X303163Y332163D01*
X302171Y332826D01*
X301000Y333059D01*
X301000Y333059D01*
X289000D01*
Y336000D01*
D02*
G37*
G36*
X128094Y329500D02*
X125906D01*
X123884Y328663D01*
X122337Y327116D01*
X121500Y325094D01*
Y322906D01*
X122337Y320885D01*
X123884Y319337D01*
X125906Y318500D01*
X128094D01*
X130115Y319337D01*
X131663Y320885D01*
X132500Y322906D01*
Y325094D01*
X131663Y327116D01*
X130115Y328663D01*
X128094Y329500D01*
D02*
G37*
G36*
X113094D02*
X110906D01*
X108884Y328663D01*
X107337Y327116D01*
X106500Y325094D01*
Y322906D01*
X107337Y320885D01*
X108884Y319337D01*
X110906Y318500D01*
X113094D01*
X115115Y319337D01*
X116663Y320885D01*
X117500Y322906D01*
Y325094D01*
X116663Y327116D01*
X115115Y328663D01*
X113094Y329500D01*
D02*
G37*
G36*
X98094D02*
X95906D01*
X93884Y328663D01*
X92337Y327116D01*
X91500Y325094D01*
Y322906D01*
X92337Y320885D01*
X93884Y319337D01*
X95906Y318500D01*
X98094D01*
X100115Y319337D01*
X101663Y320885D01*
X102500Y322906D01*
Y325094D01*
X101663Y327116D01*
X100115Y328663D01*
X98094Y329500D01*
D02*
G37*
G36*
X83094D02*
X80906D01*
X78885Y328663D01*
X77337Y327116D01*
X76500Y325094D01*
Y322906D01*
X77337Y320885D01*
X78885Y319337D01*
X80906Y318500D01*
X83094D01*
X85115Y319337D01*
X86663Y320885D01*
X87500Y322906D01*
Y325094D01*
X86663Y327116D01*
X85115Y328663D01*
X83094Y329500D01*
D02*
G37*
G36*
X171094Y325500D02*
X168906D01*
X166884Y324663D01*
X165337Y323116D01*
X164500Y321094D01*
Y318906D01*
X165337Y316884D01*
X166884Y315337D01*
X168906Y314500D01*
X171094D01*
X173116Y315337D01*
X174663Y316884D01*
X175500Y318906D01*
Y321094D01*
X174663Y323116D01*
X173116Y324663D01*
X171094Y325500D01*
D02*
G37*
G36*
X368094Y335500D02*
X365906D01*
X363885Y334663D01*
X362337Y333116D01*
X361500Y331094D01*
Y328906D01*
X362337Y326884D01*
X363390Y325832D01*
X363723Y324875D01*
X363390Y323918D01*
X362337Y322865D01*
X361500Y320844D01*
Y318656D01*
X362337Y316635D01*
X363117Y315855D01*
X363748Y314875D01*
X363117Y313895D01*
X362337Y313116D01*
X361500Y311094D01*
Y308906D01*
X362337Y306884D01*
X363885Y305337D01*
X365906Y304500D01*
X368094D01*
X370116Y305337D01*
X371663Y306884D01*
X372500Y308906D01*
Y311094D01*
X371663Y313116D01*
X370883Y313895D01*
X370252Y314875D01*
X370883Y315855D01*
X371663Y316635D01*
X372500Y318656D01*
Y320844D01*
X371663Y322865D01*
X370610Y323918D01*
X370277Y324875D01*
X370610Y325832D01*
X371663Y326884D01*
X372500Y328906D01*
Y331094D01*
X371663Y333116D01*
X370116Y334663D01*
X368094Y335500D01*
D02*
G37*
G36*
X529094Y274500D02*
X526906D01*
X524884Y273663D01*
X523337Y272115D01*
X522500Y270094D01*
Y267906D01*
X523337Y265884D01*
X524884Y264337D01*
X526906Y263500D01*
X529094D01*
X531115Y264337D01*
X532663Y265884D01*
X533500Y267906D01*
Y270094D01*
X532663Y272115D01*
X531115Y273663D01*
X529094Y274500D01*
D02*
G37*
G36*
X417750Y255156D02*
X415562D01*
X413540Y254318D01*
X412900Y253678D01*
X412753Y253585D01*
X412569Y253411D01*
X412441Y253307D01*
X412315Y253220D01*
X412190Y253148D01*
X412063Y253089D01*
X411931Y253040D01*
X411790Y253001D01*
X411638Y252971D01*
X411619Y252969D01*
X348656D01*
X347388Y252717D01*
X346312Y251999D01*
X326657Y232343D01*
X325939Y231268D01*
X325686Y230000D01*
Y217373D01*
X288000Y179686D01*
X286500Y180308D01*
Y181094D01*
X285663Y183116D01*
X284116Y184663D01*
X282094Y185500D01*
X281179D01*
X281001Y185539D01*
X280664Y185545D01*
X280413Y185564D01*
X280191Y185596D01*
X279998Y185637D01*
X279832Y185687D01*
X279691Y185741D01*
X279571Y185801D01*
X279468Y185864D01*
X279445Y185881D01*
X272163Y193163D01*
X271171Y193826D01*
X270000Y194059D01*
X270000Y194059D01*
X234808D01*
X233637Y193826D01*
X232645Y193163D01*
X232645Y193163D01*
X127568Y88086D01*
X127350Y87952D01*
X126943Y87751D01*
X126440Y87542D01*
X121502Y86097D01*
X120184Y85792D01*
X120181Y85790D01*
X120178Y85790D01*
X120003Y85710D01*
X118540Y85318D01*
X116260Y84002D01*
X114398Y82140D01*
X113082Y79860D01*
X112400Y77316D01*
Y74683D01*
X113082Y72140D01*
X114398Y69860D01*
X116260Y67998D01*
X118540Y66681D01*
X121083Y66000D01*
X123716D01*
X126260Y66681D01*
X128540Y67998D01*
X130402Y69860D01*
X130441Y69928D01*
X131941Y69526D01*
Y57918D01*
X130441Y57408D01*
X128847Y59002D01*
X126453Y60384D01*
X124400Y60935D01*
Y50600D01*
Y40265D01*
X126453Y40816D01*
X128847Y42198D01*
X130617Y43968D01*
X131662Y43881D01*
X132267Y43690D01*
X132837Y42837D01*
X132837Y42837D01*
X139186Y36488D01*
X139772Y35902D01*
X139772Y35902D01*
X140765Y35239D01*
X141935Y35006D01*
X156065D01*
X156065Y35006D01*
X157235Y35239D01*
X158228Y35902D01*
X162163Y39837D01*
X162163Y39837D01*
X162826Y40830D01*
X163059Y42000D01*
X163059Y42000D01*
Y45165D01*
X164559Y45567D01*
X165198Y44460D01*
X167060Y42598D01*
X169340Y41281D01*
X171884Y40600D01*
X174517D01*
X177060Y41281D01*
X179340Y42598D01*
X181202Y44460D01*
X182519Y46740D01*
X183200Y49283D01*
Y50673D01*
X183235Y50864D01*
X183222Y51970D01*
X183314Y53919D01*
X183410Y54702D01*
X183541Y55408D01*
X183699Y56008D01*
X183875Y56503D01*
X184061Y56891D01*
X184243Y57178D01*
X184262Y57200D01*
X186748Y59686D01*
X191457D01*
X192044Y58186D01*
X190598Y56740D01*
X189282Y54460D01*
X188600Y51916D01*
Y49283D01*
X189282Y46740D01*
X190598Y44460D01*
X192460Y42598D01*
X194740Y41281D01*
X197283Y40600D01*
X199916D01*
X202460Y41281D01*
X204740Y42598D01*
X206602Y44460D01*
X207918Y46740D01*
X208600Y49283D01*
Y51916D01*
X207918Y54460D01*
X206602Y56740D01*
X205156Y58186D01*
X205744Y59686D01*
X216116D01*
X216737Y58186D01*
X215598Y57047D01*
X214216Y54653D01*
X213666Y52600D01*
X234335D01*
X233784Y54653D01*
X232402Y57047D01*
X231263Y58186D01*
X231884Y59686D01*
X235000D01*
X236268Y59939D01*
X237343Y60657D01*
X240343Y63657D01*
X241061Y64732D01*
X241314Y66000D01*
Y123628D01*
X331343Y213657D01*
X332061Y214732D01*
X332314Y216000D01*
Y228627D01*
X350028Y246342D01*
X411619D01*
X411638Y246340D01*
X411790Y246311D01*
X411931Y246271D01*
X412063Y246223D01*
X412190Y246163D01*
X412315Y246091D01*
X412441Y246005D01*
X412569Y245901D01*
X412753Y245726D01*
X412900Y245634D01*
X413540Y244993D01*
X415562Y244156D01*
X417750D01*
X419771Y244993D01*
X421318Y246540D01*
X422156Y248562D01*
Y250750D01*
X421318Y252771D01*
X419771Y254318D01*
X417750Y255156D01*
D02*
G37*
G36*
X168094Y235500D02*
X165906D01*
X163885Y234663D01*
X162337Y233116D01*
X161500Y231094D01*
Y228906D01*
X162337Y226884D01*
X163885Y225337D01*
X165906Y224500D01*
X168094D01*
X170116Y225337D01*
X171663Y226884D01*
X172500Y228906D01*
Y231094D01*
X171663Y233116D01*
X170116Y234663D01*
X168094Y235500D01*
D02*
G37*
G36*
X265094Y231500D02*
X262906D01*
X260884Y230663D01*
X259337Y229116D01*
X258500Y227094D01*
Y224906D01*
X259337Y222885D01*
X260884Y221337D01*
X262906Y220500D01*
X265094D01*
X267115Y221337D01*
X268663Y222885D01*
X269500Y224906D01*
Y227094D01*
X268663Y229116D01*
X267115Y230663D01*
X265094Y231500D01*
D02*
G37*
G36*
X547094Y274500D02*
X544906D01*
X542884Y273663D01*
X541337Y272115D01*
X540500Y270094D01*
Y267906D01*
X541337Y265884D01*
X541984Y265238D01*
X542083Y265084D01*
X542317Y264842D01*
X542480Y264651D01*
X542615Y264471D01*
X542722Y264305D01*
X542805Y264153D01*
X542866Y264015D01*
X542909Y263888D01*
X542937Y263770D01*
X542941Y263741D01*
Y201000D01*
X542941Y201000D01*
X543174Y199829D01*
X543837Y198837D01*
X554337Y188337D01*
X554337Y188337D01*
X555329Y187674D01*
X556500Y187441D01*
X557619D01*
X557637Y187438D01*
X557725Y187415D01*
X557812Y187382D01*
X557904Y187335D01*
X558007Y187270D01*
X558121Y187180D01*
X558247Y187062D01*
X558277Y187029D01*
X558337Y186884D01*
X559884Y185337D01*
X561906Y184500D01*
X564094D01*
X566115Y185337D01*
X567663Y186884D01*
X568500Y188906D01*
Y191094D01*
X567663Y193116D01*
X566115Y194663D01*
X564094Y195500D01*
X561906D01*
X559884Y194663D01*
X559600Y194378D01*
X559110Y194037D01*
X558898Y193911D01*
X558681Y193799D01*
X558482Y193710D01*
X558300Y193642D01*
X558135Y193594D01*
X557988Y193563D01*
X557953Y193559D01*
X557767D01*
X549059Y202267D01*
Y263741D01*
X549063Y263770D01*
X549091Y263888D01*
X549134Y264015D01*
X549195Y264153D01*
X549278Y264305D01*
X549385Y264471D01*
X549520Y264651D01*
X549683Y264842D01*
X549917Y265084D01*
X550016Y265238D01*
X550663Y265884D01*
X551500Y267906D01*
Y270094D01*
X550663Y272115D01*
X549115Y273663D01*
X547094Y274500D01*
D02*
G37*
G36*
X445277Y193500D02*
X443089D01*
X441068Y192663D01*
X439521Y191115D01*
X438683Y189094D01*
Y186906D01*
X439521Y184884D01*
X441068Y183337D01*
X443089Y182500D01*
X445277D01*
X447299Y183337D01*
X448846Y184884D01*
X449683Y186906D01*
Y189094D01*
X448846Y191115D01*
X447299Y192663D01*
X445277Y193500D01*
D02*
G37*
G36*
X528094D02*
X525906D01*
X523885Y192663D01*
X522337Y191115D01*
X521500Y189094D01*
Y186906D01*
X522337Y184884D01*
X523722Y183500D01*
X522337Y182115D01*
X521500Y180094D01*
Y177906D01*
X522337Y175884D01*
X523885Y174337D01*
X525906Y173500D01*
X528094D01*
X530116Y174337D01*
X531663Y175884D01*
X532500Y177906D01*
Y180094D01*
X531663Y182115D01*
X530278Y183500D01*
X531663Y184884D01*
X532500Y186906D01*
Y189094D01*
X531663Y191115D01*
X530116Y192663D01*
X528094Y193500D01*
D02*
G37*
G36*
X401000Y169059D02*
X401000Y169059D01*
X356674D01*
X356674Y169059D01*
X355504Y168826D01*
X354511Y168163D01*
X350349Y164000D01*
X342000D01*
Y156000D01*
Y150000D01*
X393674D01*
X432523Y111151D01*
X432500Y111094D01*
Y108906D01*
X433337Y106884D01*
X434884Y105337D01*
X436906Y104500D01*
X439094D01*
X441115Y105337D01*
X442663Y106884D01*
X443500Y108906D01*
Y111094D01*
X442663Y113116D01*
X441115Y114663D01*
X439094Y115500D01*
X436906D01*
X436849Y115477D01*
X401763Y150563D01*
X401861Y152060D01*
X406816Y155859D01*
X420837Y141837D01*
X420837Y141837D01*
X421829Y141174D01*
X423000Y140941D01*
X423000Y140941D01*
X564314D01*
X564337Y140885D01*
X565885Y139337D01*
X567906Y138500D01*
X570094D01*
X572116Y139337D01*
X573663Y140885D01*
X574500Y142906D01*
Y145094D01*
X573663Y147115D01*
X572116Y148663D01*
X570094Y149500D01*
X567906D01*
X565885Y148663D01*
X564337Y147115D01*
X564314Y147059D01*
X424267D01*
X403163Y168163D01*
X402170Y168826D01*
X401000Y169059D01*
D02*
G37*
G36*
X84094Y229500D02*
X81906D01*
X79885Y228663D01*
X78337Y227115D01*
X77500Y225094D01*
Y222906D01*
X78337Y220884D01*
X78969Y220253D01*
X79053Y220116D01*
X79165Y219995D01*
X79207Y219939D01*
X79249Y219871D01*
X79291Y219786D01*
X79333Y219679D01*
X79373Y219547D01*
X79408Y219388D01*
X79431Y219226D01*
Y174774D01*
X79408Y174612D01*
X79373Y174453D01*
X79333Y174321D01*
X79291Y174214D01*
X79249Y174129D01*
X79207Y174061D01*
X79165Y174006D01*
X79053Y173884D01*
X78969Y173747D01*
X78337Y173116D01*
X77500Y171094D01*
Y168906D01*
X78337Y166884D01*
X79885Y165337D01*
X81906Y164500D01*
X84094D01*
X86116Y165337D01*
X87663Y166884D01*
X88500Y168906D01*
Y171094D01*
X87663Y173116D01*
X87031Y173747D01*
X86947Y173884D01*
X86835Y174006D01*
X86793Y174061D01*
X86751Y174129D01*
X86709Y174214D01*
X86667Y174321D01*
X86627Y174453D01*
X86593Y174612D01*
X86569Y174774D01*
Y219226D01*
X86593Y219388D01*
X86627Y219547D01*
X86667Y219679D01*
X86709Y219786D01*
X86751Y219871D01*
X86793Y219939D01*
X86835Y219994D01*
X86947Y220116D01*
X87031Y220253D01*
X87663Y220884D01*
X88500Y222906D01*
Y225094D01*
X87663Y227115D01*
X86116Y228663D01*
X84094Y229500D01*
D02*
G37*
G36*
X179458Y174136D02*
X177270D01*
X175249Y173299D01*
X173701Y171751D01*
X172864Y169730D01*
Y167542D01*
X173701Y165520D01*
X175249Y163973D01*
X177270Y163136D01*
X179458D01*
X181479Y163973D01*
X183027Y165520D01*
X183864Y167542D01*
Y169730D01*
X183027Y171751D01*
X181479Y173299D01*
X179458Y174136D01*
D02*
G37*
G36*
X445277Y169500D02*
X443089D01*
X441068Y168663D01*
X439521Y167115D01*
X438683Y165094D01*
Y162906D01*
X439521Y160884D01*
X441068Y159337D01*
X443089Y158500D01*
X445277D01*
X447299Y159337D01*
X448846Y160884D01*
X449683Y162906D01*
Y165094D01*
X448846Y167115D01*
X447299Y168663D01*
X445277Y169500D01*
D02*
G37*
G36*
X610094Y221500D02*
X607906D01*
X605885Y220663D01*
X604337Y219116D01*
X603500Y217094D01*
Y214906D01*
X604337Y212885D01*
X604868Y212354D01*
X604881Y212293D01*
X604899Y212173D01*
X604922Y211852D01*
Y204689D01*
X568993Y168760D01*
X568821Y168616D01*
X568709Y168534D01*
X568657Y168500D01*
X567906D01*
X565885Y167663D01*
X564337Y166115D01*
X563500Y164094D01*
Y161906D01*
X564337Y159885D01*
X565885Y158337D01*
X567906Y157500D01*
X570094D01*
X572116Y158337D01*
X573663Y159885D01*
X574500Y161906D01*
Y162656D01*
X574534Y162709D01*
X574606Y162807D01*
X574817Y163050D01*
X611884Y200116D01*
X611884Y200116D01*
X612768Y201439D01*
X613078Y203000D01*
X613078Y203000D01*
Y211932D01*
X613098Y212155D01*
X613119Y212293D01*
X613132Y212354D01*
X613663Y212885D01*
X614500Y214906D01*
Y217094D01*
X613663Y219116D01*
X612116Y220663D01*
X610094Y221500D01*
D02*
G37*
G36*
X329094Y129500D02*
X326906D01*
X324884Y128663D01*
X323500Y127278D01*
X322116Y128663D01*
X320094Y129500D01*
X317906D01*
X315884Y128663D01*
X314337Y127115D01*
X313500Y125094D01*
Y122906D01*
X314337Y120885D01*
X315884Y119337D01*
X316600Y119041D01*
Y117418D01*
X315884Y117121D01*
X314337Y115574D01*
X313500Y113553D01*
Y111365D01*
X314337Y109343D01*
X315884Y107796D01*
X317906Y106959D01*
X320094D01*
X322116Y107796D01*
X323500Y109181D01*
X324884Y107796D01*
X326906Y106959D01*
X329094D01*
X331115Y107796D01*
X332663Y109343D01*
X333500Y111365D01*
Y113553D01*
X332663Y115574D01*
X331115Y117121D01*
X330401Y117418D01*
Y119041D01*
X331115Y119337D01*
X332663Y120885D01*
X333500Y122906D01*
Y125094D01*
X332663Y127115D01*
X331115Y128663D01*
X329094Y129500D01*
D02*
G37*
G36*
X120400Y60935D02*
X118347Y60384D01*
X115953Y59002D01*
X113998Y57047D01*
X112616Y54653D01*
X112065Y52600D01*
X120400D01*
Y60935D01*
D02*
G37*
G36*
X234335Y48600D02*
X226000D01*
Y40265D01*
X228053Y40816D01*
X230447Y42198D01*
X232402Y44153D01*
X233784Y46547D01*
X234335Y48600D01*
D02*
G37*
G36*
X222000D02*
X213666D01*
X214216Y46547D01*
X215598Y44153D01*
X217553Y42198D01*
X219947Y40816D01*
X222000Y40265D01*
Y48600D01*
D02*
G37*
G36*
X120400D02*
X112065D01*
X112616Y46547D01*
X113998Y44153D01*
X115953Y42198D01*
X118347Y40816D01*
X120400Y40265D01*
Y48600D01*
D02*
G37*
G36*
X336969Y73375D02*
X334781D01*
X332760Y72538D01*
X331212Y70991D01*
X330670Y69682D01*
X330636Y69631D01*
X330624Y69570D01*
X330375Y68969D01*
Y68318D01*
X330287Y67875D01*
Y67334D01*
X330375Y66891D01*
Y66781D01*
X330417Y66680D01*
X330636Y65578D01*
X331631Y64089D01*
X356964Y38756D01*
X358453Y37761D01*
X360209Y37412D01*
X550810D01*
X550885Y37337D01*
X552906Y36500D01*
X555094D01*
X557116Y37337D01*
X558663Y38884D01*
X559500Y40906D01*
Y43094D01*
X558663Y45115D01*
X557116Y46663D01*
X555094Y47500D01*
X552906D01*
X550885Y46663D01*
X550810Y46588D01*
X362109D01*
X341375Y67322D01*
Y68969D01*
X340538Y70991D01*
X338991Y72538D01*
X336969Y73375D01*
D02*
G37*
G36*
X268000Y362608D02*
X154101D01*
X151954Y362181D01*
X150135Y360965D01*
X138035Y348865D01*
X136819Y347046D01*
X136392Y344899D01*
Y147323D01*
X90035Y100965D01*
X88819Y99146D01*
X88392Y97000D01*
Y39000D01*
X88819Y36854D01*
X90035Y35035D01*
X104035Y21035D01*
X105854Y19819D01*
X108000Y19392D01*
X281042D01*
X283188Y19819D01*
X285007Y21035D01*
X298507Y34535D01*
X298814Y34994D01*
X299204Y35385D01*
X299416Y35895D01*
X299722Y36354D01*
X299830Y36896D01*
X300042Y37406D01*
Y37958D01*
X300149Y38500D01*
X300042Y39042D01*
Y39594D01*
X299830Y40104D01*
X299722Y40646D01*
X299416Y41105D01*
X299204Y41616D01*
X298814Y42006D01*
X298507Y42465D01*
X298048Y42772D01*
X297657Y43163D01*
X297147Y43374D01*
X296688Y43681D01*
X296146Y43789D01*
X295636Y44000D01*
X295083D01*
X294542Y44108D01*
X294000Y44000D01*
X293448D01*
X292937Y43789D01*
X292396Y43681D01*
X291936Y43374D01*
X291426Y43163D01*
X291036Y42772D01*
X290576Y42465D01*
X278719Y30608D01*
X110323D01*
X99608Y41323D01*
Y94677D01*
X145965Y141035D01*
X147181Y142854D01*
X147608Y145000D01*
Y342577D01*
X156423Y351392D01*
X268000D01*
X268542Y351500D01*
X269094D01*
X269604Y351711D01*
X270146Y351819D01*
X270605Y352126D01*
X271115Y352337D01*
X271506Y352728D01*
X271965Y353035D01*
X272272Y353494D01*
X272663Y353885D01*
X272874Y354395D01*
X273181Y354854D01*
X273289Y355396D01*
X273500Y355906D01*
Y356458D01*
X273608Y357000D01*
X273500Y357542D01*
Y358094D01*
X273289Y358604D01*
X273181Y359146D01*
X272874Y359605D01*
X272663Y360116D01*
X272272Y360506D01*
X271965Y360965D01*
X271506Y361272D01*
X271115Y361663D01*
X270605Y361874D01*
X270146Y362181D01*
X269604Y362289D01*
X269094Y362500D01*
X268542D01*
X268000Y362608D01*
D02*
G37*
%LPD*%
G36*
X582500Y342550D02*
X582215Y342826D01*
X581927Y343072D01*
X581638Y343289D01*
X581345Y343478D01*
X581051Y343638D01*
X580755Y343768D01*
X580456Y343870D01*
X580155Y343942D01*
X579851Y343985D01*
X579546Y344000D01*
Y346000D01*
X579851Y346015D01*
X580155Y346058D01*
X580456Y346130D01*
X580755Y346232D01*
X581051Y346362D01*
X581345Y346522D01*
X581638Y346711D01*
X581927Y346928D01*
X582215Y347174D01*
X582500Y347450D01*
Y342550D01*
D02*
G37*
G36*
X430629Y211022D02*
X430425Y210798D01*
X430241Y210555D01*
X430077Y210292D01*
X429934Y210009D01*
X429811Y209706D01*
X429708Y209384D01*
X429625Y209042D01*
X429563Y208681D01*
X429520Y208300D01*
X429499Y207899D01*
X426171Y211496D01*
X426563Y211488D01*
X426937Y211504D01*
X427292Y211544D01*
X427630Y211609D01*
X427949Y211696D01*
X428250Y211808D01*
X428533Y211944D01*
X428797Y212103D01*
X429044Y212287D01*
X429272Y212494D01*
X430629Y211022D01*
D02*
G37*
G36*
X425015Y178694D02*
X425060Y178390D01*
X425135Y178091D01*
X425240Y177796D01*
X425375Y177505D01*
X425540Y177220D01*
X425734Y176939D01*
X425959Y176663D01*
X426214Y176391D01*
X426499Y176124D01*
X421606Y175868D01*
X421871Y176171D01*
X422108Y176474D01*
X422317Y176778D01*
X422498Y177080D01*
X422651Y177383D01*
X422777Y177686D01*
X422874Y177988D01*
X422944Y178290D01*
X422986Y178592D01*
X423000Y178894D01*
X425000Y179003D01*
X425015Y178694D01*
D02*
G37*
G36*
X212659Y306138D02*
X212249Y306051D01*
X211495Y305841D01*
X211151Y305718D01*
X210829Y305583D01*
X210528Y305436D01*
X210250Y305277D01*
X209994Y305106D01*
X209759Y304922D01*
X209547Y304727D01*
X207833Y305842D01*
X208046Y306077D01*
X208228Y306327D01*
X208379Y306591D01*
X208499Y306870D01*
X208589Y307163D01*
X208648Y307471D01*
X208676Y307793D01*
X208674Y308130D01*
X208640Y308482D01*
X208577Y308847D01*
X212659Y306138D01*
D02*
G37*
G36*
X211965Y294500D02*
X211568Y294493D01*
X211191Y294464D01*
X210832Y294413D01*
X210492Y294340D01*
X210171Y294244D01*
X209869Y294127D01*
X209586Y293987D01*
X209322Y293826D01*
X209077Y293642D01*
X208850Y293436D01*
X207436Y294851D01*
X207642Y295077D01*
X207826Y295322D01*
X207987Y295586D01*
X208127Y295869D01*
X208244Y296171D01*
X208340Y296492D01*
X208413Y296832D01*
X208464Y297191D01*
X208493Y297568D01*
X208500Y297965D01*
X211965Y294500D01*
D02*
G37*
G36*
X171564Y288514D02*
X171358Y288287D01*
X171174Y288042D01*
X171013Y287778D01*
X170873Y287495D01*
X170756Y287193D01*
X170660Y286872D01*
X170587Y286532D01*
X170536Y286173D01*
X170507Y285795D01*
X170500Y285399D01*
X167035Y288864D01*
X167432Y288871D01*
X167809Y288900D01*
X168168Y288951D01*
X168508Y289024D01*
X168829Y289120D01*
X169131Y289237D01*
X169414Y289377D01*
X169678Y289538D01*
X169923Y289722D01*
X170149Y289928D01*
X171564Y288514D01*
D02*
G37*
G36*
X215507Y284568D02*
X215536Y284191D01*
X215587Y283832D01*
X215660Y283492D01*
X215756Y283171D01*
X215873Y282869D01*
X216013Y282586D01*
X216174Y282322D01*
X216358Y282077D01*
X216564Y281850D01*
X215149Y280436D01*
X214923Y280642D01*
X214678Y280826D01*
X214414Y280987D01*
X214131Y281127D01*
X213829Y281244D01*
X213508Y281340D01*
X213168Y281413D01*
X212809Y281464D01*
X212432Y281493D01*
X212035Y281500D01*
X215500Y284965D01*
X215507Y284568D01*
D02*
G37*
G36*
X332015Y272149D02*
X332058Y271845D01*
X332131Y271544D01*
X332232Y271245D01*
X332363Y270949D01*
X332522Y270654D01*
X332710Y270362D01*
X332928Y270072D01*
X333175Y269785D01*
X333450Y269499D01*
X328550D01*
X328825Y269785D01*
X329072Y270072D01*
X329290Y270362D01*
X329478Y270654D01*
X329637Y270949D01*
X329768Y271245D01*
X329869Y271544D01*
X329942Y271845D01*
X329986Y272149D01*
X330000Y272454D01*
X332000D01*
X332015Y272149D01*
D02*
G37*
G36*
X344516Y272250D02*
X344563Y271945D01*
X344641Y271649D01*
X344751Y271361D01*
X344892Y271083D01*
X345064Y270813D01*
X345268Y270553D01*
X345503Y270301D01*
X345770Y270058D01*
X346068Y269824D01*
X341218Y269124D01*
X341462Y269457D01*
X341872Y270112D01*
X342038Y270432D01*
X342179Y270748D01*
X342295Y271060D01*
X342385Y271367D01*
X342449Y271670D01*
X342487Y271968D01*
X342500Y272262D01*
X344500Y272564D01*
X344516Y272250D01*
D02*
G37*
G36*
X305507Y270568D02*
X305536Y270191D01*
X305587Y269832D01*
X305660Y269492D01*
X305756Y269171D01*
X305873Y268869D01*
X306013Y268586D01*
X306174Y268322D01*
X306358Y268077D01*
X306564Y267850D01*
X305149Y266436D01*
X304923Y266642D01*
X304678Y266826D01*
X304414Y266987D01*
X304131Y267127D01*
X303829Y267244D01*
X303508Y267340D01*
X303168Y267413D01*
X302809Y267464D01*
X302432Y267493D01*
X302035Y267500D01*
X305500Y270965D01*
X305507Y270568D01*
D02*
G37*
G36*
X292993Y257209D02*
X292794Y257516D01*
X292581Y257791D01*
X292356Y258033D01*
X292117Y258243D01*
X291864Y258421D01*
X291599Y258567D01*
X291320Y258680D01*
X291028Y258761D01*
X290723Y258809D01*
X290404Y258825D01*
X290914Y260826D01*
X291198Y260837D01*
X291490Y260871D01*
X291792Y260928D01*
X292102Y261009D01*
X292421Y261112D01*
X292749Y261238D01*
X293431Y261558D01*
X293786Y261753D01*
X294149Y261970D01*
X292993Y257209D01*
D02*
G37*
G36*
X169109Y251834D02*
X170169Y251347D01*
X170501Y251227D01*
X171133Y251054D01*
X171433Y251000D01*
X171723Y250968D01*
X172002Y250957D01*
X172600Y248957D01*
X172280Y248940D01*
X171975Y248892D01*
X171684Y248810D01*
X171409Y248696D01*
X171149Y248549D01*
X170904Y248370D01*
X170674Y248158D01*
X170459Y247913D01*
X170259Y247636D01*
X170074Y247327D01*
X168735Y252040D01*
X169109Y251834D01*
D02*
G37*
G36*
X293500Y243550D02*
X293215Y243825D01*
X292927Y244072D01*
X292638Y244289D01*
X292346Y244478D01*
X292051Y244638D01*
X291755Y244768D01*
X291456Y244869D01*
X291155Y244942D01*
X290851Y244986D01*
X290546Y245000D01*
Y247000D01*
X290851Y247015D01*
X291155Y247058D01*
X291456Y247131D01*
X291755Y247232D01*
X292051Y247362D01*
X292346Y247522D01*
X292638Y247710D01*
X292927Y247928D01*
X293215Y248174D01*
X293500Y248450D01*
Y243550D01*
D02*
G37*
G36*
X293065Y227093D02*
X292852Y227397D01*
X292626Y227669D01*
X292390Y227909D01*
X292142Y228117D01*
X291883Y228293D01*
X291612Y228437D01*
X291329Y228548D01*
X291035Y228628D01*
X290730Y228676D01*
X290413Y228692D01*
X290836Y230692D01*
X291125Y230704D01*
X291420Y230741D01*
X291723Y230801D01*
X292032Y230885D01*
X292348Y230993D01*
X292672Y231126D01*
X293002Y231282D01*
X293683Y231667D01*
X294035Y231896D01*
X293065Y227093D01*
D02*
G37*
G36*
X288507Y224568D02*
X288536Y224191D01*
X288587Y223832D01*
X288660Y223492D01*
X288756Y223171D01*
X288873Y222869D01*
X289013Y222586D01*
X289174Y222322D01*
X289358Y222077D01*
X289564Y221850D01*
X288150Y220436D01*
X287923Y220642D01*
X287678Y220826D01*
X287414Y220987D01*
X287131Y221127D01*
X286829Y221244D01*
X286508Y221340D01*
X286168Y221413D01*
X285809Y221464D01*
X285432Y221493D01*
X285035Y221500D01*
X288500Y224965D01*
X288507Y224568D01*
D02*
G37*
G36*
X414156Y247206D02*
X413916Y247434D01*
X413665Y247638D01*
X413404Y247818D01*
X413132Y247974D01*
X412851Y248106D01*
X412559Y248214D01*
X412256Y248298D01*
X411943Y248358D01*
X411620Y248394D01*
X411287Y248406D01*
Y250906D01*
X411620Y250918D01*
X411943Y250954D01*
X412256Y251014D01*
X412559Y251098D01*
X412851Y251206D01*
X413132Y251338D01*
X413404Y251494D01*
X413665Y251674D01*
X413916Y251878D01*
X414156Y252106D01*
Y247206D01*
D02*
G37*
G36*
X278077Y184358D02*
X278322Y184174D01*
X278586Y184013D01*
X278869Y183873D01*
X279171Y183756D01*
X279492Y183660D01*
X279832Y183587D01*
X280191Y183536D01*
X280568Y183507D01*
X280965Y183500D01*
X277500Y180035D01*
X277493Y180432D01*
X277464Y180809D01*
X277413Y181168D01*
X277340Y181508D01*
X277244Y181829D01*
X277127Y182131D01*
X276987Y182414D01*
X276826Y182678D01*
X276642Y182923D01*
X276436Y183150D01*
X277850Y184564D01*
X278077Y184358D01*
D02*
G37*
G36*
X268965Y176500D02*
X268568Y176493D01*
X268191Y176464D01*
X267832Y176413D01*
X267492Y176340D01*
X267171Y176244D01*
X266869Y176127D01*
X266586Y175987D01*
X266322Y175826D01*
X266077Y175642D01*
X265851Y175436D01*
X264436Y176850D01*
X264642Y177077D01*
X264826Y177322D01*
X264987Y177586D01*
X265127Y177869D01*
X265244Y178171D01*
X265340Y178492D01*
X265413Y178832D01*
X265464Y179191D01*
X265493Y179568D01*
X265500Y179965D01*
X268965Y176500D01*
D02*
G37*
G36*
X256965D02*
X256568Y176493D01*
X256191Y176464D01*
X255832Y176413D01*
X255492Y176340D01*
X255171Y176244D01*
X254869Y176127D01*
X254586Y175987D01*
X254322Y175826D01*
X254077Y175642D01*
X253850Y175436D01*
X252436Y176850D01*
X252642Y177077D01*
X252826Y177322D01*
X252987Y177586D01*
X253127Y177869D01*
X253244Y178171D01*
X253340Y178492D01*
X253413Y178832D01*
X253464Y179191D01*
X253493Y179568D01*
X253500Y179965D01*
X256965Y176500D01*
D02*
G37*
G36*
X244965D02*
X244568Y176493D01*
X244191Y176464D01*
X243832Y176413D01*
X243492Y176340D01*
X243171Y176244D01*
X242869Y176127D01*
X242586Y175987D01*
X242322Y175826D01*
X242077Y175642D01*
X241850Y175436D01*
X240436Y176850D01*
X240642Y177077D01*
X240826Y177322D01*
X240987Y177586D01*
X241127Y177869D01*
X241244Y178171D01*
X241340Y178492D01*
X241413Y178832D01*
X241464Y179191D01*
X241493Y179568D01*
X241500Y179965D01*
X244965Y176500D01*
D02*
G37*
G36*
X232965D02*
X232568Y176493D01*
X232191Y176464D01*
X231832Y176413D01*
X231492Y176340D01*
X231171Y176244D01*
X230869Y176127D01*
X230586Y175987D01*
X230322Y175826D01*
X230077Y175642D01*
X229851Y175436D01*
X228436Y176850D01*
X228642Y177077D01*
X228826Y177322D01*
X228987Y177586D01*
X229127Y177869D01*
X229244Y178171D01*
X229340Y178492D01*
X229413Y178832D01*
X229464Y179191D01*
X229493Y179568D01*
X229500Y179965D01*
X232965Y176500D01*
D02*
G37*
G36*
X220760Y137842D02*
X221329Y136500D01*
X220977Y135973D01*
X220744Y134803D01*
X220744Y134802D01*
Y86000D01*
X214000D01*
Y86000D01*
X213803Y86027D01*
Y86027D01*
X212511Y86027D01*
X211000D01*
X177328Y86243D01*
X177297Y86281D01*
X176860Y86885D01*
X176524Y87426D01*
X176285Y87893D01*
X176138Y88276D01*
X176067Y88563D01*
X176061Y88625D01*
Y94735D01*
X219308Y137982D01*
X220760Y137842D01*
D02*
G37*
G36*
X224813Y85589D02*
X224843Y85248D01*
X224893Y84947D01*
X224963Y84685D01*
X225053Y84462D01*
X225163Y84278D01*
X225292Y84135D01*
X225443Y84030D01*
X225613Y83965D01*
X225802Y83939D01*
X221803D01*
X221992Y83965D01*
X222162Y84030D01*
X222313Y84135D01*
X222443Y84278D01*
X222553Y84462D01*
X222643Y84685D01*
X222713Y84947D01*
X222763Y85248D01*
X222792Y85589D01*
X222803Y85969D01*
X224802D01*
X224813Y85589D01*
D02*
G37*
G36*
X174049Y88228D02*
X174189Y87662D01*
X174422Y87059D01*
X174747Y86422D01*
X175166Y85748D01*
X175678Y85040D01*
X176283Y84295D01*
X177773Y82700D01*
X178657Y81850D01*
X167461Y81573D01*
X168324Y82486D01*
X170368Y84960D01*
X170867Y85696D01*
X171276Y86388D01*
X171594Y87035D01*
X171821Y87637D01*
X171957Y88196D01*
X172003Y88710D01*
X174002Y88760D01*
X174049Y88228D01*
D02*
G37*
G36*
X130831Y85609D02*
X130455Y85163D01*
X130148Y84645D01*
X129910Y84055D01*
X129740Y83393D01*
X129640Y82659D01*
X129608Y81853D01*
X129645Y80975D01*
X129750Y80026D01*
X129925Y79004D01*
X130168Y77911D01*
X120645Y83805D01*
X122019Y84124D01*
X127121Y85616D01*
X127788Y85894D01*
X128337Y86166D01*
X128768Y86430D01*
X129081Y86688D01*
X130831Y85609D01*
D02*
G37*
G36*
X195050Y68831D02*
X193708Y69503D01*
X189267Y72047D01*
X189128Y72224D01*
X189161Y72330D01*
X189365Y72365D01*
Y74365D01*
X189318Y74416D01*
X189325Y74567D01*
X189387Y74819D01*
X189504Y75172D01*
X189904Y76180D01*
X191361Y79406D01*
X195050Y68831D01*
D02*
G37*
G36*
X182970Y58826D02*
X182600Y58395D01*
X182274Y57882D01*
X181990Y57287D01*
X181749Y56611D01*
X181550Y55853D01*
X181394Y55013D01*
X181280Y54092D01*
X181182Y52005D01*
X181196Y50839D01*
X173121Y58600D01*
X174308Y58630D01*
X176427Y58801D01*
X177359Y58942D01*
X178206Y59120D01*
X178968Y59334D01*
X179645Y59585D01*
X180237Y59873D01*
X180744Y60197D01*
X181167Y60559D01*
X182970Y58826D01*
D02*
G37*
G36*
X157415Y59025D02*
X157073Y58617D01*
X156771Y58119D01*
X156509Y57528D01*
X156288Y56847D01*
X156106Y56074D01*
X155964Y55210D01*
X155862Y54254D01*
X155778Y52068D01*
X155796Y50839D01*
X147721Y58600D01*
X148975Y58629D01*
X152163Y58920D01*
X153036Y59084D01*
X153813Y59282D01*
X154496Y59514D01*
X155083Y59779D01*
X155575Y60078D01*
X155972Y60411D01*
X157415Y59025D01*
D02*
G37*
G36*
X548175Y266215D02*
X547928Y265928D01*
X547710Y265638D01*
X547522Y265345D01*
X547363Y265051D01*
X547232Y264755D01*
X547131Y264456D01*
X547058Y264155D01*
X547015Y263851D01*
X547000Y263546D01*
X545000D01*
X544986Y263851D01*
X544942Y264155D01*
X544869Y264456D01*
X544768Y264755D01*
X544637Y265051D01*
X544478Y265345D01*
X544290Y265638D01*
X544072Y265928D01*
X543825Y266215D01*
X543550Y266500D01*
X548450D01*
X548175Y266215D01*
D02*
G37*
G36*
X560176Y187932D02*
X559942Y188230D01*
X559699Y188497D01*
X559447Y188732D01*
X559187Y188936D01*
X558917Y189108D01*
X558639Y189249D01*
X558351Y189359D01*
X558055Y189437D01*
X557750Y189484D01*
X557436Y189500D01*
X557738Y191500D01*
X558032Y191513D01*
X558330Y191551D01*
X558633Y191615D01*
X558940Y191705D01*
X559252Y191821D01*
X559568Y191961D01*
X559888Y192128D01*
X560213Y192320D01*
X560876Y192782D01*
X560176Y187932D01*
D02*
G37*
G36*
X85269Y221305D02*
X85108Y221092D01*
X84965Y220861D01*
X84842Y220611D01*
X84738Y220344D01*
X84652Y220059D01*
X84586Y219756D01*
X84538Y219434D01*
X84509Y219095D01*
X84500Y218738D01*
X81500D01*
X81490Y219095D01*
X81462Y219434D01*
X81414Y219756D01*
X81348Y220059D01*
X81263Y220344D01*
X81158Y220611D01*
X81034Y220861D01*
X80892Y221092D01*
X80730Y221305D01*
X80550Y221500D01*
X85450D01*
X85269Y221305D01*
D02*
G37*
G36*
X84509Y174905D02*
X84538Y174566D01*
X84586Y174244D01*
X84652Y173941D01*
X84738Y173656D01*
X84842Y173389D01*
X84965Y173139D01*
X85108Y172908D01*
X85269Y172695D01*
X85450Y172500D01*
X80550D01*
X80730Y172695D01*
X80892Y172908D01*
X81034Y173139D01*
X81158Y173389D01*
X81263Y173656D01*
X81348Y173941D01*
X81414Y174244D01*
X81462Y174566D01*
X81490Y174905D01*
X81500Y175262D01*
X84500D01*
X84509Y174905D01*
D02*
G37*
G36*
X611365Y213396D02*
X611288Y213260D01*
X611221Y213093D01*
X611162Y212893D01*
X611113Y212662D01*
X611072Y212399D01*
X611018Y211777D01*
X611000Y211028D01*
X607000D01*
X606996Y211418D01*
X606928Y212399D01*
X606888Y212662D01*
X606838Y212893D01*
X606780Y213093D01*
X606712Y213260D01*
X606636Y213396D01*
X606550Y213500D01*
X611450D01*
X611365Y213396D01*
D02*
G37*
G36*
X573930Y165102D02*
X573657Y164823D01*
X573012Y164081D01*
X572854Y163867D01*
X572726Y163668D01*
X572626Y163486D01*
X572555Y163319D01*
X572513Y163169D01*
X572500Y163035D01*
X569035Y166500D01*
X569169Y166513D01*
X569319Y166555D01*
X569486Y166626D01*
X569668Y166726D01*
X569867Y166854D01*
X570081Y167012D01*
X570559Y167413D01*
X571102Y167930D01*
X573930Y165102D01*
D02*
G37*
D11*
X423000Y144000D02*
X569000D01*
X356674Y166000D02*
X401000D01*
X423000Y144000D01*
X351025Y156842D02*
Y160351D01*
X356674Y166000D01*
X350183Y156000D02*
X351025Y156842D01*
X392000Y156000D02*
X438000Y110000D01*
X366183Y156000D02*
X392000D01*
X426192Y208000D02*
X548175Y329982D01*
X426000Y208000D02*
X426192D01*
X548175Y329982D02*
Y358175D01*
X549000Y359000D01*
X573000Y345000D02*
X585000D01*
X424000Y196000D02*
X573000Y345000D01*
X424000Y173683D02*
Y196000D01*
X135000Y82000D02*
X233000Y180000D01*
X122400Y78592D02*
X234808Y191000D01*
X270000D01*
X173002Y96003D02*
X257000Y180000D01*
X160000Y95000D02*
X245000Y180000D01*
X343500Y267500D02*
X344000Y267000D01*
X343500Y267500D02*
Y287500D01*
X301000Y330000D02*
X343500Y287500D01*
X211636Y330000D02*
X301000D01*
X167000Y285364D02*
X211636Y330000D01*
X201500Y277500D02*
Y298094D01*
X224000Y255000D02*
X264192D01*
X201500Y277500D02*
X224000Y255000D01*
X226808Y261000D02*
X266000D01*
X281000Y246000D01*
X205500Y282308D02*
X226808Y261000D01*
X281000Y246000D02*
X296000D01*
X160000Y63024D02*
Y95000D01*
X213000Y324000D02*
X297000D01*
X197000Y308000D02*
X213000Y324000D01*
X230000Y267000D02*
X268308D01*
X275482Y259825D01*
X212000Y285000D02*
X230000Y267000D01*
X264192Y255000D02*
X289500Y229692D01*
X147800Y50824D02*
X160000Y63024D01*
X147800Y50600D02*
Y50824D01*
X173002Y76198D02*
Y96003D01*
Y76198D02*
X173200Y76000D01*
X223803Y76198D02*
Y134803D01*
Y76198D02*
X224000Y76000D01*
X223803Y134803D02*
X269000Y180000D01*
X122400Y76000D02*
Y78592D01*
X270000Y191000D02*
X281000Y180000D01*
X189365Y73365D02*
X195965D01*
X198600Y76000D01*
X135000Y45000D02*
Y82000D01*
Y45000D02*
X141349Y38651D01*
X141935Y38065D01*
X156065D01*
X160000Y42000D01*
Y55000D01*
X168000Y63000D01*
X179000D01*
X189365Y73365D01*
X197000Y274000D02*
Y308000D01*
X167957Y249957D02*
X172957D01*
X197000Y274000D01*
X167000Y249000D02*
X167957Y249957D01*
X212000Y308594D02*
Y309575D01*
X205500Y282308D02*
Y291500D01*
X275482Y259825D02*
X295175D01*
X201500Y298094D02*
X212000Y308594D01*
X205500Y291500D02*
X212000Y298000D01*
X295175Y259825D02*
X296000Y259000D01*
X297000Y324000D02*
X331000Y290000D01*
Y267000D02*
Y290000D01*
X300882Y220000D02*
X307000Y226117D01*
X290000Y220000D02*
X300882D01*
X307000Y226117D02*
Y266000D01*
X424000Y173683D02*
X424183Y173500D01*
X562500Y190500D02*
X563000Y190000D01*
X556500Y190500D02*
X562500D01*
X546000Y201000D02*
X556500Y190500D01*
X546000Y201000D02*
Y269000D01*
X302000Y271000D02*
X307000Y266000D01*
X289500Y229692D02*
X295308D01*
X296000Y229000D01*
X285000Y225000D02*
X290000Y220000D01*
D12*
X348656Y249656D02*
X416656D01*
X329000Y230000D02*
X348656Y249656D01*
X238000Y66000D02*
Y125000D01*
X329000Y216000D01*
Y230000D01*
X173200Y50824D02*
X185376Y63000D01*
X173200Y50600D02*
Y50824D01*
X235000Y63000D02*
X238000Y66000D01*
X185376Y63000D02*
X235000D01*
D13*
X569000Y163000D02*
X609000Y203000D01*
Y216000D01*
D15*
X334875Y67334D02*
X360209Y42000D01*
X554000D01*
X334875Y67334D02*
Y67875D01*
X554000Y42000D02*
X554000Y42000D01*
D78*
X489000Y280000D02*
Y391000D01*
X426000Y217000D02*
X489000Y280000D01*
X83000Y170000D02*
Y224000D01*
D80*
X94000Y39000D02*
Y97000D01*
X142000Y145000D01*
X94000Y39000D02*
X108000Y25000D01*
X154101Y357000D02*
X268000D01*
X142000Y344899D02*
X154101Y357000D01*
X142000Y145000D02*
Y344899D01*
X281042Y25000D02*
X294542Y38500D01*
X108000Y25000D02*
X281042D01*
D91*
X198600Y76000D02*
D03*
X173200Y50600D02*
D03*
X147800Y76000D02*
D03*
Y50600D02*
D03*
X224000D02*
D03*
X173200Y76000D02*
D03*
X198600Y50600D02*
D03*
X122400Y76000D02*
D03*
Y50600D02*
D03*
X591386Y392790D02*
D03*
X566386D02*
D03*
D92*
X224000Y76000D02*
D03*
X541386Y392790D02*
D03*
D93*
X341000Y340000D02*
D03*
X335000Y310000D02*
D03*
X435000Y130000D02*
D03*
X426000Y208000D02*
D03*
Y217000D02*
D03*
X432000Y255000D02*
D03*
X416656Y249656D02*
D03*
X367000Y310000D02*
D03*
Y330000D02*
D03*
Y319750D02*
D03*
X496000Y310000D02*
D03*
X530096Y292904D02*
D03*
X542596Y305404D02*
D03*
X180000Y212000D02*
D03*
X265000Y127000D02*
D03*
X233000Y180000D02*
D03*
X257000D02*
D03*
X245000D02*
D03*
X204000Y184000D02*
D03*
X344000Y267000D02*
D03*
X167000Y285364D02*
D03*
X264000Y226000D02*
D03*
X444183Y188000D02*
D03*
X83000Y170000D02*
D03*
X475500Y385000D02*
D03*
Y285000D02*
D03*
X210000Y94000D02*
D03*
X197000Y102000D02*
D03*
X663000Y360000D02*
D03*
Y310000D02*
D03*
X675500Y285000D02*
D03*
X663000Y260000D02*
D03*
Y160000D02*
D03*
X675500Y135000D02*
D03*
X638000Y210000D02*
D03*
Y110000D02*
D03*
Y60000D02*
D03*
X613000Y410000D02*
D03*
X625500Y385000D02*
D03*
X613000Y360000D02*
D03*
X625500Y335000D02*
D03*
Y235000D02*
D03*
Y185000D02*
D03*
X613000Y110000D02*
D03*
X625500Y85000D02*
D03*
X613000Y60000D02*
D03*
Y10000D02*
D03*
X588000Y410000D02*
D03*
Y360000D02*
D03*
X600500Y335000D02*
D03*
X588000Y210000D02*
D03*
Y160000D02*
D03*
Y110000D02*
D03*
X600500Y85000D02*
D03*
X588000Y60000D02*
D03*
X563000Y410000D02*
D03*
Y260000D02*
D03*
X575500Y135000D02*
D03*
Y85000D02*
D03*
X538000Y410000D02*
D03*
Y360000D02*
D03*
Y10000D02*
D03*
X513000Y410000D02*
D03*
X525500Y285000D02*
D03*
X513000Y260000D02*
D03*
Y110000D02*
D03*
Y10000D02*
D03*
X500500Y385000D02*
D03*
Y335000D02*
D03*
X488000Y210000D02*
D03*
Y110000D02*
D03*
X463000Y410000D02*
D03*
X475500Y235000D02*
D03*
Y185000D02*
D03*
Y85000D02*
D03*
X463000Y60000D02*
D03*
X438000Y410000D02*
D03*
X450500Y85000D02*
D03*
X438000Y60000D02*
D03*
X425500Y85000D02*
D03*
X388000Y410000D02*
D03*
X400500Y85000D02*
D03*
X388000Y10000D02*
D03*
X363000Y410000D02*
D03*
Y360000D02*
D03*
X375500Y85000D02*
D03*
X363000Y10000D02*
D03*
X338000Y410000D02*
D03*
X350500Y385000D02*
D03*
Y85000D02*
D03*
Y35000D02*
D03*
X313000Y410000D02*
D03*
X325500Y335000D02*
D03*
Y85000D02*
D03*
Y35000D02*
D03*
X288000Y410000D02*
D03*
Y110000D02*
D03*
X300500Y85000D02*
D03*
X263000Y410000D02*
D03*
Y310000D02*
D03*
Y110000D02*
D03*
X275500Y35000D02*
D03*
X238000Y410000D02*
D03*
X250500Y35000D02*
D03*
X238000Y10000D02*
D03*
X213000Y110000D02*
D03*
X225500Y35000D02*
D03*
X213000Y10000D02*
D03*
X200500Y335000D02*
D03*
Y35000D02*
D03*
X163000Y310000D02*
D03*
Y260000D02*
D03*
X175500Y235000D02*
D03*
Y35000D02*
D03*
X138000Y110000D02*
D03*
X113000Y260000D02*
D03*
X125500Y235000D02*
D03*
Y35000D02*
D03*
X88000Y260000D02*
D03*
X100500Y235000D02*
D03*
Y185000D02*
D03*
X88000Y160000D02*
D03*
Y110000D02*
D03*
Y10000D02*
D03*
X75500Y385000D02*
D03*
Y285000D02*
D03*
X63000Y260000D02*
D03*
X75500Y235000D02*
D03*
X63000Y160000D02*
D03*
Y110000D02*
D03*
X75500Y85000D02*
D03*
X63000Y60000D02*
D03*
X75500Y35000D02*
D03*
X50500Y385000D02*
D03*
X38000Y210000D02*
D03*
Y110000D02*
D03*
X50500Y85000D02*
D03*
X13000Y310000D02*
D03*
Y260000D02*
D03*
X25500Y185000D02*
D03*
X13000Y160000D02*
D03*
Y110000D02*
D03*
X25500Y85000D02*
D03*
X489000Y391000D02*
D03*
X460000Y317000D02*
D03*
X445000D02*
D03*
Y302000D02*
D03*
X87000Y405000D02*
D03*
X611000Y268000D02*
D03*
X235000Y367000D02*
D03*
X83000Y224000D02*
D03*
X35000Y376000D02*
D03*
X420000Y306000D02*
D03*
X406000Y337000D02*
D03*
Y359000D02*
D03*
Y348000D02*
D03*
X388000Y339000D02*
D03*
Y350000D02*
D03*
Y361000D02*
D03*
Y372000D02*
D03*
X127000Y324000D02*
D03*
X97000D02*
D03*
X127000Y339000D02*
D03*
X112000Y324000D02*
D03*
X82000D02*
D03*
Y339000D02*
D03*
X112000D02*
D03*
X97000D02*
D03*
X609000Y216000D02*
D03*
X601000Y184000D02*
D03*
X585000Y245000D02*
D03*
X527000Y188000D02*
D03*
Y179000D02*
D03*
X569000Y163000D02*
D03*
X594000Y154000D02*
D03*
X566000Y174000D02*
D03*
X604000Y144000D02*
D03*
X569000D02*
D03*
X170000Y320000D02*
D03*
X268000Y357000D02*
D03*
X167000Y230000D02*
D03*
Y249000D02*
D03*
X212000Y309575D02*
D03*
X254000Y290500D02*
D03*
X178364Y168636D02*
D03*
X192136Y207864D02*
D03*
X212000Y298000D02*
D03*
X328000Y112459D02*
D03*
Y124000D02*
D03*
X319000Y112459D02*
D03*
Y124000D02*
D03*
X294542Y38500D02*
D03*
X405000Y10000D02*
D03*
X315000D02*
D03*
X345000D02*
D03*
X375000D02*
D03*
X335875Y67875D02*
D03*
X438000Y110000D02*
D03*
X135000Y440000D02*
D03*
X212000Y285000D02*
D03*
X281000Y180000D02*
D03*
X240000Y201000D02*
D03*
X585000Y345000D02*
D03*
X549000Y359000D02*
D03*
X10000Y330000D02*
D03*
X420000Y295000D02*
D03*
Y317000D02*
D03*
X505000Y30000D02*
D03*
X485000D02*
D03*
X585000Y233000D02*
D03*
X563000Y190000D02*
D03*
Y203000D02*
D03*
X550000Y293000D02*
D03*
X570000D02*
D03*
X554000Y42000D02*
D03*
X455000Y130000D02*
D03*
X342183Y226000D02*
D03*
X372183D02*
D03*
X357183D02*
D03*
X296000Y229000D02*
D03*
X342183Y211000D02*
D03*
X372183D02*
D03*
X357183Y196000D02*
D03*
X342183D02*
D03*
X372183D02*
D03*
X555000Y10000D02*
D03*
X435000D02*
D03*
X491000Y130000D02*
D03*
X311154Y296654D02*
D03*
X330000Y385000D02*
D03*
X296000Y246000D02*
D03*
X690000Y330000D02*
D03*
X331000Y267000D02*
D03*
X296000Y259000D02*
D03*
X302000Y271000D02*
D03*
X285000Y225000D02*
D03*
X330000Y373000D02*
D03*
Y361000D02*
D03*
X269000Y180000D02*
D03*
X126000Y200000D02*
D03*
Y180000D02*
D03*
Y190000D02*
D03*
X690000Y360000D02*
D03*
Y300000D02*
D03*
Y270000D02*
D03*
Y240000D02*
D03*
Y210000D02*
D03*
Y180000D02*
D03*
Y150000D02*
D03*
Y120000D02*
D03*
Y90000D02*
D03*
X528000Y269000D02*
D03*
X424183Y173500D02*
D03*
X366183Y156000D02*
D03*
X350183D02*
D03*
X10000Y360000D02*
D03*
Y300000D02*
D03*
Y270000D02*
D03*
Y240000D02*
D03*
Y210000D02*
D03*
Y90000D02*
D03*
Y120000D02*
D03*
Y150000D02*
D03*
Y180000D02*
D03*
X585000Y10000D02*
D03*
X465000D02*
D03*
X495000D02*
D03*
X525000D02*
D03*
X225000D02*
D03*
X255000D02*
D03*
X285000D02*
D03*
X195000D02*
D03*
X165000D02*
D03*
X135000D02*
D03*
X105000D02*
D03*
X75000D02*
D03*
X585000Y440000D02*
D03*
X465000D02*
D03*
X495000D02*
D03*
X525000D02*
D03*
X555000D02*
D03*
X345000D02*
D03*
X375000D02*
D03*
X405000D02*
D03*
X435000D02*
D03*
X225000D02*
D03*
X255000D02*
D03*
X285000D02*
D03*
X315000D02*
D03*
X195000D02*
D03*
X165000D02*
D03*
X105000D02*
D03*
X75000D02*
D03*
X265000Y55000D02*
D03*
X250000D02*
D03*
Y73000D02*
D03*
Y89000D02*
D03*
X265000Y73000D02*
D03*
Y89000D02*
D03*
X495000Y182000D02*
D03*
Y199000D02*
D03*
Y216000D02*
D03*
Y233000D02*
D03*
X20000Y315000D02*
D03*
Y335000D02*
D03*
X30000Y315000D02*
D03*
Y335000D02*
D03*
X421000Y410000D02*
D03*
X489000D02*
D03*
X40000Y335000D02*
D03*
Y315000D02*
D03*
X35000Y220000D02*
D03*
Y190000D02*
D03*
X350000Y376000D02*
D03*
X473000Y130000D02*
D03*
X444183Y164000D02*
D03*
X570000Y269000D02*
D03*
X357183Y211000D02*
D03*
X546000Y269000D02*
D03*
M02*
