G04*
G04 #@! TF.GenerationSoftware,Altium Limited,Altium Designer,25.4.2 (15)*
G04*
G04 Layer_Physical_Order=1*
G04 Layer_Color=255*
%FSLAX44Y44*%
%MOMM*%
G71*
G04*
G04 #@! TF.SameCoordinates,2757192E-E8AF-4120-B63B-14C5750386C4*
G04*
G04*
G04 #@! TF.FilePolarity,Positive*
G04*
G01*
G75*
%ADD11C,0.2000*%
%ADD12C,0.4000*%
%ADD13C,0.2500*%
%ADD15C,0.5000*%
%ADD17O,1.4500X0.6000*%
%ADD18R,0.8000X0.8000*%
%ADD19R,2.5000X2.2000*%
%ADD20R,1.7000X0.6000*%
%ADD21R,0.8500X0.9500*%
%ADD22R,0.6000X1.0000*%
%ADD23R,1.0000X0.9000*%
%ADD24R,1.2000X1.4000*%
%ADD25R,0.9500X0.8500*%
%ADD26R,6.2500X6.2500*%
%ADD27R,0.2000X1.0500*%
%ADD28R,1.0500X0.2000*%
%ADD29R,0.9000X1.0000*%
%ADD30R,1.4000X1.3000*%
%ADD31R,3.3000X1.3000*%
%ADD32C,1.0000*%
%ADD33R,0.6900X0.5600*%
%ADD34R,1.1500X1.3500*%
%ADD35R,1.3000X1.8000*%
%ADD36R,1.0000X0.6000*%
%ADD37R,1.2000X2.0000*%
%ADD38R,0.7500X2.5000*%
%ADD39R,1.2000X1.6000*%
%ADD40R,3.3000X1.6000*%
%ADD41R,1.8000X1.3000*%
%ADD42R,2.7000X1.3000*%
%ADD72R,1.0000X1.0000*%
%ADD73C,1.0000*%
%ADD74C,0.3000*%
%ADD75C,0.3200*%
%ADD76C,0.7000*%
%ADD77R,1.2000X1.0000*%
%ADD78R,0.8000X1.1000*%
%ADD79R,1.8163X1.2540*%
%ADD80R,0.1999X1.0250*%
%ADD81R,1.0250X0.1999*%
%ADD82R,1.0250X0.1999*%
%ADD83R,1.8000X3.3000*%
%ADD84R,0.1941X0.4000*%
%ADD85R,0.1941X0.9000*%
%ADD86C,1.6000*%
%ADD87R,1.6000X1.6000*%
%ADD88C,0.7000*%
G36*
X644331Y444536D02*
X642922Y443127D01*
X639638Y438606D01*
X637101Y433627D01*
X635374Y428313D01*
X634500Y422794D01*
Y417206D01*
X635374Y411687D01*
X637101Y406373D01*
X639638Y401394D01*
X642922Y396873D01*
X646873Y392922D01*
X651394Y389638D01*
X656373Y387101D01*
X661687Y385374D01*
X667206Y384500D01*
X672794D01*
X678313Y385374D01*
X683627Y387101D01*
X688606Y389638D01*
X693127Y392922D01*
X693614Y393410D01*
X695000Y392836D01*
Y57164D01*
X693614Y56590D01*
X693127Y57078D01*
X688606Y60362D01*
X683627Y62899D01*
X678313Y64626D01*
X672794Y65500D01*
X667206D01*
X661687Y64626D01*
X656373Y62899D01*
X651394Y60362D01*
X646873Y57078D01*
X642922Y53127D01*
X639638Y48606D01*
X637101Y43627D01*
X635374Y38313D01*
X634500Y32794D01*
Y27206D01*
X635374Y21687D01*
X637101Y16373D01*
X639638Y11394D01*
X642922Y6873D01*
X644331Y5464D01*
X643757Y4078D01*
X56243Y4078D01*
X55669Y5464D01*
X57078Y6873D01*
X60362Y11394D01*
X62899Y16373D01*
X64626Y21687D01*
X65500Y27206D01*
Y32794D01*
X64626Y38313D01*
X62899Y43627D01*
X60362Y48606D01*
X57078Y53127D01*
X53127Y57078D01*
X48606Y60362D01*
X43627Y62899D01*
X38313Y64626D01*
X32794Y65500D01*
X27206D01*
X21687Y64626D01*
X16373Y62899D01*
X11394Y60362D01*
X6873Y57078D01*
X5464Y55669D01*
X4078Y56243D01*
X4078Y393758D01*
X5464Y394332D01*
X6873Y392922D01*
X11394Y389638D01*
X16373Y387101D01*
X21687Y385374D01*
X27206Y384500D01*
X32794D01*
X38313Y385374D01*
X43627Y387101D01*
X48606Y389638D01*
X53127Y392922D01*
X57078Y396873D01*
X60362Y401394D01*
X62899Y406373D01*
X64626Y411687D01*
X65500Y417206D01*
Y422794D01*
X64626Y428313D01*
X62899Y433627D01*
X60362Y438606D01*
X57078Y443127D01*
X55669Y444536D01*
X56243Y445922D01*
X643757D01*
X644331Y444536D01*
D02*
G37*
%LPC*%
G36*
X216500Y416500D02*
X210000D01*
Y408000D01*
X216500D01*
Y416500D01*
D02*
G37*
G36*
X206000D02*
X199500D01*
Y408000D01*
X206000D01*
Y416500D01*
D02*
G37*
G36*
X309000Y407500D02*
X302000D01*
Y398000D01*
X309000D01*
Y407500D01*
D02*
G37*
G36*
X259000D02*
X252000D01*
Y398000D01*
X259000D01*
Y407500D01*
D02*
G37*
G36*
X298000D02*
X291000D01*
Y398000D01*
X298000D01*
Y407500D01*
D02*
G37*
G36*
X248000D02*
X241000D01*
Y398000D01*
X248000D01*
Y407500D01*
D02*
G37*
G36*
X185000Y430060D02*
X183173Y429820D01*
X181470Y429114D01*
X180008Y427992D01*
X178885Y426530D01*
X178180Y424827D01*
X177940Y423000D01*
Y421901D01*
X177875Y418486D01*
X177728Y416433D01*
X177671Y416000D01*
X177000D01*
Y414013D01*
X176991Y413969D01*
X177000Y413926D01*
Y413876D01*
X176995Y413841D01*
X177000Y413824D01*
Y396000D01*
X193000D01*
Y413824D01*
X193005Y413841D01*
X193000Y413876D01*
Y413926D01*
X193009Y413969D01*
X193000Y414013D01*
Y416000D01*
X192432D01*
X192060Y421196D01*
Y423000D01*
X191820Y424827D01*
X191115Y426530D01*
X189993Y427992D01*
X188530Y429114D01*
X186827Y429820D01*
X185000Y430060D01*
D02*
G37*
G36*
X162000D02*
X160173Y429820D01*
X158470Y429114D01*
X157008Y427992D01*
X155885Y426530D01*
X155180Y424827D01*
X154940Y423000D01*
Y421901D01*
X154875Y418486D01*
X154728Y416433D01*
X154671Y416000D01*
X154000D01*
Y415494D01*
X145806Y413060D01*
X130000D01*
X128173Y412820D01*
X126470Y412114D01*
X125007Y410992D01*
X118008Y403993D01*
X116885Y402530D01*
X116180Y400827D01*
X115940Y399000D01*
Y398436D01*
X115916Y398159D01*
X115890Y398000D01*
X114500D01*
Y396013D01*
X114491Y395970D01*
X114500Y395926D01*
Y393265D01*
X111147Y391588D01*
X95000D01*
X93244Y391239D01*
X91756Y390244D01*
X83756Y382244D01*
X82761Y380756D01*
X82412Y379000D01*
Y372895D01*
X82326Y371802D01*
X82325Y371800D01*
X81550D01*
Y369813D01*
X81541Y369770D01*
X81550Y369726D01*
Y362200D01*
X92450D01*
Y369726D01*
X92459Y369770D01*
X92450Y369813D01*
Y371800D01*
X91714D01*
X91588Y373395D01*
Y377099D01*
X96901Y382412D01*
X111147D01*
X114500Y380735D01*
Y376000D01*
X131500D01*
Y395926D01*
X131509Y395970D01*
X131500Y396013D01*
Y397515D01*
X132924Y398940D01*
X145806D01*
X154000Y396506D01*
Y396000D01*
X155987D01*
X156031Y395991D01*
X156074Y396000D01*
X170000D01*
Y413824D01*
X170005Y413841D01*
X170000Y413876D01*
Y413926D01*
X170009Y413969D01*
X170000Y414013D01*
Y416000D01*
X169432D01*
X169060Y421196D01*
Y423000D01*
X168820Y424827D01*
X168114Y426530D01*
X166992Y427992D01*
X165530Y429114D01*
X163827Y429820D01*
X162000Y430060D01*
D02*
G37*
G36*
X216500Y404000D02*
X210000D01*
Y395500D01*
X216500D01*
Y404000D01*
D02*
G37*
G36*
X206000D02*
X199500D01*
Y395500D01*
X206000D01*
Y404000D01*
D02*
G37*
G36*
X593386Y403125D02*
Y394790D01*
X601720D01*
X601170Y396843D01*
X599788Y399237D01*
X597833Y401192D01*
X595439Y402575D01*
X593386Y403125D01*
D02*
G37*
G36*
X589386D02*
X587333Y402575D01*
X584939Y401192D01*
X582984Y399237D01*
X581601Y396843D01*
X581051Y394790D01*
X589386D01*
Y403125D01*
D02*
G37*
G36*
X309000Y394000D02*
X302000D01*
Y384500D01*
X309000D01*
Y394000D01*
D02*
G37*
G36*
X298000D02*
X291000D01*
Y384500D01*
X298000D01*
Y394000D01*
D02*
G37*
G36*
X259000D02*
X252000D01*
Y384500D01*
X259000D01*
Y394000D01*
D02*
G37*
G36*
X248000D02*
X241000D01*
Y384500D01*
X248000D01*
Y394000D01*
D02*
G37*
G36*
X601720Y390790D02*
X593386D01*
Y382456D01*
X595439Y383006D01*
X597833Y384388D01*
X599788Y386343D01*
X601170Y388737D01*
X601720Y390790D01*
D02*
G37*
G36*
X589386D02*
X581051D01*
X581601Y388737D01*
X582984Y386343D01*
X584939Y384388D01*
X587333Y383006D01*
X589386Y382456D01*
Y390790D01*
D02*
G37*
G36*
X339000Y393039D02*
X323000D01*
X322220Y392884D01*
X321558Y392442D01*
X321116Y391780D01*
X320961Y391000D01*
Y365060D01*
X315475D01*
X314662Y365077D01*
X313074Y365189D01*
X311717Y365368D01*
X310599Y365607D01*
X309733Y365888D01*
X309128Y366182D01*
X308775Y366442D01*
X308616Y366632D01*
X308552Y366775D01*
X308500Y367170D01*
Y369000D01*
X306513D01*
X306469Y369009D01*
X306426Y369000D01*
X293600D01*
X293561Y369008D01*
X293545Y369006D01*
X293531Y369009D01*
X293487Y369000D01*
X291500D01*
Y368358D01*
X283194Y365060D01*
X265475D01*
X264662Y365077D01*
X263074Y365189D01*
X261717Y365368D01*
X260599Y365607D01*
X259733Y365888D01*
X259128Y366182D01*
X258775Y366442D01*
X258616Y366632D01*
X258552Y366775D01*
X258500Y367170D01*
Y369000D01*
X256513D01*
X256469Y369009D01*
X256426Y369000D01*
X241500D01*
Y362826D01*
X241454Y361969D01*
X241266Y360750D01*
X240955Y359521D01*
X240516Y358277D01*
X239946Y357016D01*
X239240Y355738D01*
X238397Y354443D01*
X237413Y353133D01*
X236286Y351809D01*
X235571Y351056D01*
X233575Y349060D01*
X210860D01*
X208004Y349155D01*
X206631Y349291D01*
X205472Y349476D01*
X204560Y349697D01*
X203915Y349931D01*
X203555Y350130D01*
X203504Y350175D01*
X203500Y350198D01*
Y352000D01*
X201513D01*
X201469Y352009D01*
X201426Y352000D01*
X166500D01*
Y332000D01*
X201426D01*
X201469Y331991D01*
X201513Y332000D01*
X203500D01*
Y333802D01*
X203504Y333825D01*
X203555Y333870D01*
X203915Y334068D01*
X204560Y334302D01*
X205472Y334524D01*
X206606Y334706D01*
X209661Y334932D01*
X210129Y334940D01*
X236500D01*
X238327Y335180D01*
X240030Y335886D01*
X241492Y337007D01*
X244832Y340347D01*
X257006Y347000D01*
X258500D01*
Y348830D01*
X258552Y349225D01*
X258616Y349368D01*
X258775Y349558D01*
X259128Y349818D01*
X259733Y350112D01*
X260599Y350393D01*
X261684Y350625D01*
X264692Y350923D01*
X265475Y350940D01*
X283194D01*
X291500Y347643D01*
Y347000D01*
X293487D01*
X293531Y346991D01*
X293546Y346994D01*
X293561Y346992D01*
X293600Y347000D01*
X306426D01*
X306469Y346991D01*
X306513Y347000D01*
X308500D01*
Y348830D01*
X308552Y349225D01*
X308616Y349368D01*
X308775Y349558D01*
X309128Y349818D01*
X309733Y350112D01*
X310599Y350393D01*
X311684Y350625D01*
X314692Y350923D01*
X315475Y350940D01*
X325647D01*
X327474Y351180D01*
X329177Y351886D01*
X330578Y352961D01*
X339000D01*
X339500Y353060D01*
X340510Y352524D01*
X341000Y352127D01*
Y346500D01*
X348000D01*
Y358000D01*
Y369500D01*
X341039D01*
Y391000D01*
X340884Y391780D01*
X340442Y392442D01*
X339780Y392884D01*
X339000Y393039D01*
D02*
G37*
G36*
X640316Y383000D02*
X637683D01*
X635140Y382318D01*
X632860Y381002D01*
X630998Y379140D01*
X629682Y376860D01*
X629000Y374316D01*
Y371684D01*
X629682Y369140D01*
X630998Y366860D01*
X632860Y364998D01*
X635140Y363681D01*
X637683Y363000D01*
X640316D01*
X642860Y363681D01*
X645140Y364998D01*
X647002Y366860D01*
X648318Y369140D01*
X649000Y371684D01*
Y374316D01*
X648318Y376860D01*
X647002Y379140D01*
X645140Y381002D01*
X642860Y382318D01*
X640316Y383000D01*
D02*
G37*
G36*
X359000Y369500D02*
X352000D01*
Y360000D01*
X359000D01*
Y369500D01*
D02*
G37*
G36*
X132000Y360500D02*
X125000D01*
Y351000D01*
X132000D01*
Y360500D01*
D02*
G37*
G36*
X121000D02*
X114000D01*
Y351000D01*
X121000D01*
Y360500D01*
D02*
G37*
G36*
X359000Y356000D02*
X352000D01*
Y346500D01*
X359000D01*
Y356000D01*
D02*
G37*
G36*
X49500Y367250D02*
X20500D01*
Y341250D01*
X49500D01*
Y367250D01*
D02*
G37*
G36*
X567702Y402790D02*
X565069D01*
X562526Y402108D01*
X560246Y400792D01*
X558384Y398930D01*
X557067Y396650D01*
X556386Y394107D01*
Y391474D01*
X557067Y388930D01*
X558384Y386650D01*
X560246Y384788D01*
X561321Y384167D01*
X561462Y384042D01*
X562366Y383510D01*
X563120Y383012D01*
X563762Y382529D01*
X564290Y382068D01*
X564708Y381634D01*
X565019Y381237D01*
X565233Y380885D01*
X565364Y380579D01*
X565433Y380313D01*
X565441Y380211D01*
Y352000D01*
X563500D01*
Y338000D01*
X573500D01*
Y341941D01*
X579742D01*
X579770Y341937D01*
X579888Y341909D01*
X580015Y341866D01*
X580153Y341805D01*
X580305Y341722D01*
X580471Y341615D01*
X580651Y341480D01*
X580842Y341317D01*
X581084Y341083D01*
X581238Y340984D01*
X581884Y340337D01*
X583906Y339500D01*
X586094D01*
X588116Y340337D01*
X589663Y341884D01*
X590500Y343906D01*
Y346094D01*
X589663Y348116D01*
X588116Y349663D01*
X586094Y350500D01*
X583906D01*
X581884Y349663D01*
X581237Y349016D01*
X581084Y348917D01*
X580842Y348683D01*
X580651Y348520D01*
X580471Y348385D01*
X580305Y348278D01*
X580153Y348195D01*
X580015Y348134D01*
X579888Y348091D01*
X579770Y348063D01*
X579742Y348059D01*
X573500D01*
Y352000D01*
X571559D01*
Y380677D01*
X571614Y380906D01*
X571730Y381255D01*
X574372Y386541D01*
X575064Y387743D01*
X575065Y387747D01*
X575068Y387750D01*
X575130Y387935D01*
X575704Y388930D01*
X576386Y391474D01*
Y394107D01*
X575704Y396650D01*
X574388Y398930D01*
X572526Y400792D01*
X570246Y402108D01*
X567702Y402790D01*
D02*
G37*
G36*
X551386D02*
X531386D01*
Y387775D01*
X531380Y387751D01*
X531371Y387569D01*
X531358Y387483D01*
X531333Y387386D01*
X531294Y387274D01*
X531237Y387146D01*
X531157Y387000D01*
X531051Y386838D01*
X530917Y386660D01*
X530847Y386577D01*
X512337Y368067D01*
X511674Y367075D01*
X511441Y365904D01*
X511441Y365904D01*
Y351750D01*
X508250D01*
Y338250D01*
X519750D01*
X520750Y338250D01*
X522250Y338250D01*
X524441D01*
Y325423D01*
X524277Y325277D01*
X524058Y325131D01*
X523981Y325016D01*
X523877Y324924D01*
X523762Y324688D01*
X523616Y324469D01*
X523589Y324334D01*
X523528Y324209D01*
X523512Y323947D01*
X523473Y323750D01*
X521250D01*
Y324250D01*
X516500D01*
Y317000D01*
Y309750D01*
X521250D01*
Y310250D01*
X533750D01*
Y323750D01*
X531527D01*
X531488Y323947D01*
X531472Y324209D01*
X531411Y324334D01*
X531384Y324469D01*
X531238Y324688D01*
X531123Y324924D01*
X531019Y325016D01*
X530942Y325131D01*
X530723Y325277D01*
X530559Y325423D01*
Y338250D01*
X533750D01*
Y341941D01*
X544500D01*
Y338000D01*
X554500D01*
Y352000D01*
X552059D01*
Y353741D01*
X552063Y353770D01*
X552091Y353888D01*
X552134Y354015D01*
X552195Y354153D01*
X552278Y354305D01*
X552385Y354471D01*
X552519Y354651D01*
X552683Y354842D01*
X552917Y355084D01*
X553016Y355238D01*
X553663Y355885D01*
X554500Y357906D01*
Y360094D01*
X553663Y362116D01*
X552116Y363663D01*
X550094Y364500D01*
X547906D01*
X545885Y363663D01*
X544337Y362116D01*
X543500Y360094D01*
Y357906D01*
X544337Y355885D01*
X544984Y355238D01*
X545083Y355084D01*
X545317Y354842D01*
X545480Y354651D01*
X545615Y354471D01*
X545722Y354305D01*
X545805Y354153D01*
X545866Y354015D01*
X545909Y353888D01*
X545937Y353770D01*
X545941Y353741D01*
Y352000D01*
X544500D01*
Y348059D01*
X533750D01*
Y351750D01*
X522250D01*
X521250Y351750D01*
X519750Y351750D01*
X517559D01*
Y364637D01*
X535173Y382252D01*
X535255Y382322D01*
X535434Y382455D01*
X535596Y382561D01*
X535742Y382641D01*
X535870Y382699D01*
X535981Y382738D01*
X536079Y382762D01*
X536164Y382775D01*
X536347Y382784D01*
X536371Y382790D01*
X551386D01*
Y402790D01*
D02*
G37*
G36*
X92450Y347400D02*
X81550D01*
Y339874D01*
X81541Y339831D01*
X81550Y339787D01*
Y337800D01*
X81550D01*
X81028Y336516D01*
X80099Y335588D01*
X71124D01*
X70500Y335620D01*
Y336000D01*
X68513D01*
X68470Y336009D01*
X68426Y336000D01*
X49500D01*
Y326000D01*
X68426D01*
X68470Y325991D01*
X68513Y326000D01*
X70500D01*
Y326326D01*
X71876Y326412D01*
X82000D01*
X83756Y326761D01*
X85244Y327756D01*
X90194Y332706D01*
X91189Y334194D01*
X91485Y335681D01*
X92014Y337800D01*
X92450D01*
Y339787D01*
X92459Y339831D01*
X92450Y339874D01*
Y347400D01*
D02*
G37*
G36*
X132000Y347000D02*
X125000D01*
Y337500D01*
X132000D01*
Y347000D01*
D02*
G37*
G36*
X121000D02*
X114000D01*
Y337500D01*
X121000D01*
Y347000D01*
D02*
G37*
G36*
X257369Y338840D02*
X252369D01*
Y333340D01*
X257369D01*
Y338840D01*
D02*
G37*
G36*
X496500Y331312D02*
X491000D01*
Y326312D01*
X496500D01*
Y331312D01*
D02*
G37*
G36*
X257369Y329340D02*
X252369D01*
Y323840D01*
X257369D01*
Y329340D01*
D02*
G37*
G36*
X564500Y328500D02*
X561000D01*
Y323000D01*
X564500D01*
Y328500D01*
D02*
G37*
G36*
X557000D02*
X553500D01*
Y323000D01*
X557000D01*
Y328500D01*
D02*
G37*
G36*
X677500Y346500D02*
X648500D01*
Y320500D01*
X677500D01*
Y346500D01*
D02*
G37*
G36*
X71000Y324000D02*
X62000D01*
Y320500D01*
X71000D01*
Y324000D01*
D02*
G37*
G36*
X58000D02*
X49000D01*
Y320500D01*
X58000D01*
Y324000D01*
D02*
G37*
G36*
X512500Y324250D02*
X507750D01*
Y319000D01*
X512500D01*
Y324250D01*
D02*
G37*
G36*
X564500Y319000D02*
X561000D01*
Y313500D01*
X564500D01*
Y319000D01*
D02*
G37*
G36*
X557000D02*
X553500D01*
Y313500D01*
X557000D01*
Y319000D01*
D02*
G37*
G36*
X71000Y316500D02*
X62000D01*
Y313000D01*
X71000D01*
Y316500D01*
D02*
G37*
G36*
X58000D02*
X49000D01*
Y313000D01*
X58000D01*
Y316500D01*
D02*
G37*
G36*
X587559Y316250D02*
X582809D01*
Y311000D01*
X587559D01*
Y316250D01*
D02*
G37*
G36*
X512500Y315000D02*
X507750D01*
Y309750D01*
X512500D01*
Y315000D01*
D02*
G37*
G36*
X146521Y314030D02*
X141771D01*
Y313530D01*
X129271D01*
Y309389D01*
X129125Y309364D01*
X128945Y309349D01*
X118347D01*
X118167Y309364D01*
X118021Y309389D01*
Y312780D01*
X106021D01*
Y300780D01*
X115947D01*
X115990Y300771D01*
X116034Y300780D01*
X118021D01*
Y302173D01*
X118163Y302196D01*
X118338Y302211D01*
X128945D01*
X129125Y302196D01*
X129271Y302171D01*
Y300030D01*
X141771D01*
Y299530D01*
X146521D01*
Y306780D01*
Y314030D01*
D02*
G37*
G36*
X155271D02*
X150521D01*
Y308780D01*
X155271D01*
Y314030D01*
D02*
G37*
G36*
X596309Y316250D02*
X591559D01*
Y309000D01*
Y301750D01*
X596309D01*
Y302250D01*
X608809D01*
Y302250D01*
X609748Y303261D01*
X610017Y303314D01*
X610290Y303334D01*
X610404Y303391D01*
X610528Y303416D01*
X610756Y303568D01*
X611001Y303691D01*
X611084Y303787D01*
X611190Y303858D01*
X611342Y304086D01*
X611521Y304293D01*
X611561Y304414D01*
X611632Y304520D01*
X611674Y304734D01*
X611776Y304761D01*
X612082Y304812D01*
X612285Y304830D01*
X625986D01*
X627500Y304181D01*
Y303500D01*
X629466D01*
X629507Y303491D01*
X629519Y303494D01*
X629530Y303491D01*
X629574Y303500D01*
X648500D01*
Y313500D01*
X629574D01*
X629530Y313509D01*
X629519Y313506D01*
X629507Y313509D01*
X629466Y313500D01*
X627500D01*
Y312819D01*
X625986Y312171D01*
X612285D01*
X612082Y312188D01*
X611776Y312239D01*
X611674Y312267D01*
X611632Y312480D01*
X611561Y312586D01*
X611521Y312707D01*
X611342Y312914D01*
X611190Y313142D01*
X611084Y313213D01*
X611001Y313309D01*
X610756Y313432D01*
X610528Y313584D01*
X610404Y313609D01*
X610290Y313666D01*
X610017Y313686D01*
X609748Y313739D01*
X609108Y314487D01*
X608813Y315068D01*
X608809Y315082D01*
Y315750D01*
X596309D01*
Y316250D01*
D02*
G37*
G36*
X587559Y307000D02*
X582809D01*
Y301750D01*
X587559D01*
Y307000D01*
D02*
G37*
G36*
X155271Y304780D02*
X150521D01*
Y299530D01*
X155271D01*
Y304780D01*
D02*
G37*
G36*
X345250Y290500D02*
X340250D01*
Y285000D01*
X345250D01*
Y290500D01*
D02*
G37*
G36*
X49500Y308250D02*
X20500D01*
Y282250D01*
X49500D01*
Y308250D01*
D02*
G37*
G36*
X142271Y284530D02*
X140771Y284530D01*
X129271D01*
Y281609D01*
X129125Y281584D01*
X128945Y281569D01*
X117847D01*
X117668Y281584D01*
X117521Y281609D01*
Y283780D01*
X105521D01*
Y271780D01*
X117521D01*
Y274391D01*
X117668Y274416D01*
X117847Y274431D01*
X128945D01*
X129125Y274416D01*
X129271Y274391D01*
Y271030D01*
X140771D01*
X141771Y271030D01*
X143271Y271030D01*
X154771D01*
Y271967D01*
X155027Y272018D01*
X155319Y272045D01*
X155415Y272095D01*
X155521Y272116D01*
X155764Y272279D01*
X156023Y272415D01*
X156092Y272498D01*
X156182Y272558D01*
X156345Y272802D01*
X156532Y273027D01*
X156564Y273130D01*
X156624Y273220D01*
X156654Y273372D01*
X156917Y273416D01*
X157097Y273431D01*
X160226D01*
X160388Y273408D01*
X160547Y273373D01*
X160679Y273333D01*
X160786Y273291D01*
X160871Y273249D01*
X160939Y273207D01*
X160994Y273165D01*
X161116Y273053D01*
X161253Y272969D01*
X161884Y272337D01*
X163906Y271500D01*
X166094D01*
X168116Y272337D01*
X169663Y273885D01*
X170500Y275906D01*
Y278094D01*
X169663Y280116D01*
X168116Y281663D01*
X166094Y282500D01*
X163906D01*
X161884Y281663D01*
X161253Y281031D01*
X161116Y280947D01*
X160994Y280835D01*
X160939Y280793D01*
X160871Y280751D01*
X160786Y280709D01*
X160679Y280667D01*
X160547Y280627D01*
X160388Y280592D01*
X160226Y280569D01*
X157097D01*
X156917Y280584D01*
X156654Y280628D01*
X156624Y280780D01*
X156564Y280870D01*
X156532Y280973D01*
X156345Y281198D01*
X156182Y281442D01*
X156092Y281502D01*
X156023Y281585D01*
X155764Y281721D01*
X155521Y281884D01*
X155415Y281905D01*
X155319Y281955D01*
X155027Y281982D01*
X154771Y282033D01*
Y284530D01*
X143271D01*
X142271Y284530D01*
D02*
G37*
G36*
X189000Y328000D02*
X159000D01*
Y318000D01*
X169000Y308000D01*
X178250D01*
Y307250D01*
X181441D01*
Y301750D01*
X178250D01*
Y288250D01*
X181441D01*
Y282750D01*
X178250D01*
Y269250D01*
X190750D01*
Y269250D01*
X191250D01*
Y269250D01*
X203750D01*
Y271807D01*
X204547Y272941D01*
X205718Y273174D01*
X206710Y273837D01*
X211047Y278174D01*
X211438Y278759D01*
X212179Y279500D01*
X213094D01*
X215116Y280337D01*
X216544Y281766D01*
X220413D01*
X220895Y281045D01*
X222549Y279940D01*
X224500Y279552D01*
X233000D01*
X234951Y279940D01*
X236605Y281045D01*
X237710Y282699D01*
X238098Y284650D01*
X237710Y286601D01*
X236605Y288255D01*
X235000Y289327D01*
Y292673D01*
X236605Y293745D01*
X237710Y295399D01*
X238098Y297350D01*
X237710Y299301D01*
X236605Y300955D01*
X235000Y302027D01*
Y305373D01*
X236605Y306445D01*
X237710Y308099D01*
X238098Y310050D01*
X237710Y312001D01*
X236605Y313655D01*
X234951Y314760D01*
X233000Y315148D01*
X224500D01*
X222549Y314760D01*
X220895Y313655D01*
X220372Y312871D01*
X216907D01*
X215540Y314238D01*
X213519Y315075D01*
X211331D01*
X210431Y314703D01*
X208971Y316163D01*
X207978Y316826D01*
X206808Y317059D01*
X206807Y317059D01*
X203750D01*
Y320750D01*
X191250D01*
X191000Y322146D01*
Y326000D01*
X189000Y328000D01*
D02*
G37*
G36*
X345250Y281000D02*
X340250D01*
Y275500D01*
X345250D01*
Y281000D01*
D02*
G37*
G36*
X233000Y277558D02*
X230750D01*
Y273950D01*
X238210D01*
X238181Y274096D01*
X236965Y275915D01*
X235146Y277131D01*
X233000Y277558D01*
D02*
G37*
G36*
X226750D02*
X224500D01*
X222354Y277131D01*
X220535Y275915D01*
X219319Y274096D01*
X219290Y273950D01*
X226750D01*
Y277558D01*
D02*
G37*
G36*
X649000Y276500D02*
X640000D01*
Y273000D01*
X649000D01*
Y276500D01*
D02*
G37*
G36*
X636000D02*
X627000D01*
Y273000D01*
X636000D01*
Y276500D01*
D02*
G37*
G36*
X505683Y275000D02*
X496183D01*
Y268000D01*
X505683D01*
Y275000D01*
D02*
G37*
G36*
X492183D02*
X482683D01*
Y268000D01*
X492183D01*
Y275000D01*
D02*
G37*
G36*
X238210Y269950D02*
X230750D01*
Y266342D01*
X233000D01*
X235146Y266769D01*
X236965Y267985D01*
X238181Y269804D01*
X238210Y269950D01*
D02*
G37*
G36*
X226750D02*
X219290D01*
X219319Y269804D01*
X220535Y267985D01*
X222354Y266769D01*
X224500Y266342D01*
X226750D01*
Y269950D01*
D02*
G37*
G36*
X649000Y269000D02*
X640000D01*
Y265500D01*
X649000D01*
Y269000D01*
D02*
G37*
G36*
X636000D02*
X627000D01*
Y265500D01*
X636000D01*
Y269000D01*
D02*
G37*
G36*
X411781Y387039D02*
X380000D01*
X379220Y386884D01*
X378558Y386442D01*
X378116Y385780D01*
X377961Y385000D01*
Y330493D01*
X377750Y329080D01*
X377750D01*
X377750Y329080D01*
Y315080D01*
X381191D01*
Y311040D01*
X377750D01*
Y297040D01*
X381191D01*
Y293000D01*
X377933D01*
Y281074D01*
X377924Y281031D01*
X377933Y280987D01*
Y279000D01*
X378186D01*
X378825Y274385D01*
Y273756D01*
X375218Y270149D01*
X374002Y268329D01*
X373708Y266851D01*
X373020Y266163D01*
X372357Y265170D01*
X372124Y264000D01*
X372124Y264000D01*
Y257500D01*
X364552D01*
X363931Y259000D01*
X364715Y259785D01*
X365931Y261604D01*
X366358Y263750D01*
Y271385D01*
X366997Y276000D01*
X367250D01*
Y277987D01*
X367259Y278030D01*
X367250Y278074D01*
Y287926D01*
X367259Y287969D01*
X367253Y287999D01*
X367258Y288030D01*
X367250Y288064D01*
Y290000D01*
X366576D01*
X366358Y292927D01*
Y294427D01*
X368965Y297035D01*
X369272Y297494D01*
X369663Y297885D01*
X369874Y298395D01*
X370181Y298854D01*
X370289Y299396D01*
X370500Y299906D01*
Y300458D01*
X370608Y301000D01*
X370500Y301542D01*
Y302094D01*
X370289Y302604D01*
X370181Y303146D01*
X369874Y303605D01*
X369663Y304116D01*
X369272Y304506D01*
X368965Y304965D01*
X368506Y305272D01*
X368116Y305663D01*
X367605Y305874D01*
X367146Y306181D01*
X366604Y306289D01*
X366094Y306500D01*
X365542D01*
X365000Y306608D01*
X358011D01*
X357854Y306825D01*
X357635Y307152D01*
X357572Y307215D01*
X357174Y307766D01*
X357908Y309000D01*
X358500D01*
Y310987D01*
X358509Y311031D01*
X358500Y311074D01*
Y331000D01*
X341500D01*
Y311074D01*
X341491Y311031D01*
X341500Y310987D01*
Y309000D01*
X342472D01*
X343280Y307864D01*
X343310Y307459D01*
X342906Y306327D01*
X342707Y306083D01*
X342395Y305874D01*
X341884Y305663D01*
X341494Y305272D01*
X341035Y304965D01*
X340728Y304506D01*
X340337Y304116D01*
X340126Y303605D01*
X339819Y303146D01*
X339711Y302604D01*
X339500Y302094D01*
Y301542D01*
X339392Y301000D01*
X339500Y300458D01*
Y299906D01*
X339711Y299396D01*
X339819Y298854D01*
X340126Y298395D01*
X340337Y297885D01*
X340728Y297494D01*
X341035Y297035D01*
X341494Y296728D01*
X341884Y296337D01*
X342395Y296126D01*
X342854Y295819D01*
X343396Y295711D01*
X343906Y295500D01*
X344458D01*
X345000Y295392D01*
X355142D01*
Y292009D01*
X355120Y291639D01*
X354250Y290500D01*
X349250D01*
Y283000D01*
Y275500D01*
X354250D01*
X354751Y274208D01*
X355142Y271385D01*
Y266035D01*
X354002Y264329D01*
X353576Y262183D01*
X354002Y260037D01*
X354695Y259000D01*
X353894Y257500D01*
X352183D01*
Y257500D01*
X350242D01*
Y263328D01*
X350009Y264499D01*
X349502Y265258D01*
X349490Y265318D01*
X349475Y265442D01*
X349467Y265591D01*
X349474Y265843D01*
X349500Y265906D01*
Y266324D01*
X349510Y266435D01*
X349500Y266530D01*
Y268094D01*
X348663Y270116D01*
X347116Y271663D01*
X345094Y272500D01*
X342906D01*
X340885Y271663D01*
X339337Y270116D01*
X338500Y268094D01*
Y266863D01*
X338322Y266576D01*
X338255Y266492D01*
X338248Y266485D01*
X337000Y265963D01*
X336969Y265980D01*
X336583Y266283D01*
X336564Y266413D01*
X336545Y266664D01*
X336539Y267001D01*
X336500Y267179D01*
Y268094D01*
X335663Y270116D01*
X334115Y271663D01*
X332094Y272500D01*
X329906D01*
X327884Y271663D01*
X326337Y270116D01*
X325500Y268094D01*
Y265906D01*
X326337Y263885D01*
X327884Y262337D01*
X329906Y261500D01*
X330821D01*
X330999Y261461D01*
X331336Y261455D01*
X331587Y261436D01*
X331809Y261404D01*
X332002Y261363D01*
X332124Y261326D01*
Y257500D01*
X328183D01*
Y257500D01*
X324183D01*
Y244750D01*
X323433D01*
Y244000D01*
X320992D01*
Y268666D01*
X327163Y274837D01*
X327826Y275830D01*
X328059Y277000D01*
Y310000D01*
X328059Y310000D01*
X327826Y311171D01*
X327163Y312163D01*
X318663Y320663D01*
X317670Y321326D01*
X316500Y321559D01*
X316500Y321559D01*
X313496D01*
X312750Y322750D01*
Y323250D01*
X312750D01*
Y335750D01*
X299250D01*
Y334059D01*
X295114D01*
X294091Y334099D01*
X293985Y334134D01*
X293847Y334195D01*
X293695Y334278D01*
X293529Y334385D01*
X293349Y334520D01*
X293158Y334683D01*
X292916Y334917D01*
X292762Y335016D01*
X292115Y335663D01*
X290094Y336500D01*
X287906D01*
X285884Y335663D01*
X285810Y335588D01*
X281206D01*
X280796Y335624D01*
X280222Y335720D01*
X279792Y335836D01*
X279512Y335950D01*
X279386Y336027D01*
X279368Y336190D01*
Y338340D01*
X266369D01*
X266369Y338840D01*
X261369D01*
Y331340D01*
Y323840D01*
X266369D01*
Y323840D01*
X267868Y323988D01*
X268308Y323535D01*
X268463Y322756D01*
X269457Y321267D01*
X272590Y318135D01*
X272526Y312640D01*
X271887Y312213D01*
X264337Y304663D01*
X263674Y303671D01*
X263441Y302500D01*
X263441Y302500D01*
Y258750D01*
X260250D01*
Y245250D01*
X271750D01*
X273000Y244000D01*
X276541D01*
X276674Y243330D01*
X277337Y242337D01*
X284837Y234837D01*
X285830Y234174D01*
X287000Y233941D01*
X287000Y233941D01*
X291042D01*
X291663Y232441D01*
X291337Y232115D01*
X290500Y230094D01*
Y229400D01*
X289000Y228778D01*
X288116Y229663D01*
X286094Y230500D01*
X283906D01*
X281884Y229663D01*
X281559Y229337D01*
X280059Y229958D01*
Y233000D01*
X279826Y234171D01*
X279163Y235163D01*
X279163Y235163D01*
X274163Y240163D01*
X273171Y240826D01*
X272000Y241059D01*
X272000Y241059D01*
X254000D01*
X252829Y240826D01*
X251837Y240163D01*
X251837Y240163D01*
X247733Y236059D01*
X235000D01*
Y253000D01*
X219000D01*
Y253000D01*
X219000Y253000D01*
X217500Y253000D01*
X203000D01*
Y249059D01*
X201829Y248826D01*
X200837Y248163D01*
X200837Y248163D01*
X196500Y243826D01*
X195842Y243909D01*
X195000Y244748D01*
Y246500D01*
X181000D01*
Y234793D01*
X180500Y233500D01*
X180500Y232207D01*
Y228500D01*
X188000D01*
Y226500D01*
X190000D01*
Y219500D01*
X194506D01*
X196003Y218208D01*
X196000Y217000D01*
X201586D01*
X202000Y216000D01*
Y211000D01*
X221524D01*
Y209382D01*
X221359Y209237D01*
X221141Y209091D01*
X221064Y208976D01*
X220960Y208884D01*
X220845Y208648D01*
X220699Y208429D01*
X220672Y208293D01*
X220611Y208169D01*
X220595Y207907D01*
X220543Y207649D01*
X219760Y206982D01*
X219280Y206747D01*
X218083Y207210D01*
X216790Y207210D01*
X213083D01*
Y199710D01*
Y192210D01*
X216790D01*
X218083Y192210D01*
X219376Y192710D01*
X231083D01*
Y206710D01*
X229965D01*
X229956Y206712D01*
X229405Y206982D01*
X228622Y207649D01*
X228571Y207907D01*
X228554Y208169D01*
X228494Y208293D01*
X228467Y208429D01*
X228321Y208648D01*
X228205Y208884D01*
X228102Y208976D01*
X228025Y209091D01*
X227806Y209237D01*
X227642Y209382D01*
Y211000D01*
X235000D01*
Y219909D01*
X235000D01*
Y221941D01*
X243250D01*
Y217000D01*
X250250D01*
Y215000D01*
X252250D01*
Y207500D01*
X254053D01*
X254674Y206000D01*
X234555Y185881D01*
X234532Y185864D01*
X234429Y185801D01*
X234309Y185741D01*
X234168Y185687D01*
X234002Y185637D01*
X233809Y185596D01*
X233587Y185564D01*
X233336Y185545D01*
X232999Y185539D01*
X232821Y185500D01*
X231906D01*
X229884Y184663D01*
X228337Y183116D01*
X227500Y181094D01*
Y178906D01*
X228337Y176884D01*
X229884Y175337D01*
X231906Y174500D01*
X231764Y173059D01*
X203267D01*
X196059Y180267D01*
Y191000D01*
X195826Y192171D01*
X195163Y193163D01*
X195163Y193163D01*
X190041Y198284D01*
X189049Y198948D01*
X188050Y199146D01*
Y202533D01*
X174550D01*
Y199180D01*
X163122D01*
X163122Y199180D01*
X161951Y198948D01*
X160959Y198284D01*
X160959Y198284D01*
X157733Y195059D01*
X155510D01*
Y199257D01*
X145510D01*
Y209257D01*
X146010D01*
Y223257D01*
X136010D01*
Y219316D01*
X125257D01*
X124087Y219083D01*
X123094Y218420D01*
X123094Y218420D01*
X116233Y211559D01*
X95000D01*
Y213500D01*
X81000D01*
Y212713D01*
X79500Y212186D01*
X77843Y213843D01*
X76768Y214561D01*
X75500Y214814D01*
X70500D01*
Y216500D01*
X49500D01*
Y206500D01*
X70500D01*
Y208186D01*
X74127D01*
X76157Y206157D01*
X77232Y205439D01*
X78500Y205186D01*
X81000D01*
Y203500D01*
X95000D01*
Y205441D01*
X103390D01*
X104500Y204500D01*
X104500Y203941D01*
Y201000D01*
X112000D01*
X119500D01*
Y204500D01*
X120793Y205000D01*
X132596D01*
X133394Y203500D01*
X133174Y203171D01*
X132941Y202000D01*
X132941Y202000D01*
Y176000D01*
X132941Y176000D01*
X133174Y174830D01*
X133837Y173837D01*
X136837Y170837D01*
X136837Y170837D01*
X137000Y170728D01*
Y152059D01*
X122267D01*
X91326Y183000D01*
X91703Y184500D01*
X95000D01*
Y194500D01*
X81000D01*
Y192814D01*
X80500D01*
X79232Y192561D01*
X78157Y191843D01*
X76128Y189814D01*
X70500D01*
Y191500D01*
X49500D01*
Y181500D01*
X70500D01*
Y183186D01*
X77500D01*
X78768Y183439D01*
X79634Y184017D01*
X81000Y184500D01*
X81000Y184500D01*
X81000Y184500D01*
X84941D01*
Y182000D01*
X84941Y182000D01*
X85174Y180830D01*
X85837Y179837D01*
X118837Y146837D01*
X118837Y146837D01*
X119830Y146174D01*
X121000Y145941D01*
X121000Y145941D01*
X139250D01*
Y143750D01*
X139250Y142750D01*
X139250D01*
Y142250D01*
X139250D01*
Y129750D01*
X152750D01*
Y132941D01*
X157733D01*
X162754Y127920D01*
X163747Y127257D01*
X164917Y127024D01*
X164917Y127024D01*
X170186D01*
Y123083D01*
X180186D01*
Y127024D01*
X185919D01*
X185919Y127024D01*
X187089Y127257D01*
X188082Y127920D01*
X192603Y132441D01*
X200250D01*
Y129250D01*
X213750D01*
Y132441D01*
X256500D01*
X256500Y132441D01*
X257670Y132674D01*
X258663Y133337D01*
X289147Y163821D01*
X333495Y163942D01*
X334118Y162444D01*
X331910Y160236D01*
X331045Y159435D01*
X330162Y158709D01*
X329847Y158483D01*
X329602Y158330D01*
X329533Y158295D01*
X327994Y157989D01*
X326506Y156994D01*
X325511Y155506D01*
X325162Y153750D01*
Y153434D01*
X324633Y152783D01*
X323250Y152500D01*
Y152500D01*
X318250D01*
Y145000D01*
Y137500D01*
X323250D01*
X324409Y136678D01*
X325162Y134768D01*
Y133039D01*
X313000D01*
X312220Y132884D01*
X311558Y132442D01*
X311116Y131780D01*
X310961Y131000D01*
Y120000D01*
Y106000D01*
X311116Y105220D01*
X311558Y104558D01*
X312220Y104116D01*
X313000Y103961D01*
X327663D01*
Y98540D01*
X335163D01*
Y96540D01*
X337123D01*
Y91540D01*
X337163Y91341D01*
Y89040D01*
X342663D01*
Y89501D01*
X351163D01*
X351360Y89540D01*
X354585D01*
X355220Y89116D01*
X356000Y88961D01*
X412000D01*
X412780Y89116D01*
X413442Y89558D01*
X413884Y90220D01*
X414039Y91000D01*
Y109223D01*
X414585Y109501D01*
X415539Y109683D01*
X416884Y108337D01*
X418906Y107500D01*
X420364D01*
X421409Y106456D01*
X422897Y105461D01*
X424653Y105112D01*
X425249D01*
X427793Y104873D01*
Y104700D01*
X429779D01*
X429823Y104691D01*
X429867Y104700D01*
X441792D01*
Y114700D01*
X429867D01*
X429823Y114709D01*
X429779Y114700D01*
X427793D01*
Y114700D01*
X426292Y114549D01*
X424597Y116244D01*
X424406Y116372D01*
X423116Y117663D01*
X421094Y118500D01*
X418906D01*
X416884Y117663D01*
X415539Y116317D01*
X414585Y116499D01*
X414039Y116777D01*
Y120155D01*
X430845Y136961D01*
X433811D01*
X433906Y135500D01*
X431884Y134663D01*
X430337Y133116D01*
X429500Y131094D01*
Y128906D01*
X430337Y126884D01*
X431884Y125337D01*
X433906Y124500D01*
X436094D01*
X438116Y125337D01*
X439644Y125030D01*
X447741Y116933D01*
X447250Y115747D01*
X447250D01*
Y104247D01*
X447250Y103247D01*
X447250Y101747D01*
Y90247D01*
X460750D01*
Y93438D01*
X465290D01*
Y90250D01*
X474995D01*
X475290Y90191D01*
X475290Y90191D01*
X488330D01*
Y83910D01*
X498330D01*
Y97910D01*
X488330D01*
Y96309D01*
X478790D01*
Y102750D01*
X479290D01*
Y107500D01*
X464790D01*
Y102750D01*
X465290D01*
Y99556D01*
X461811D01*
X460750Y100616D01*
X460750Y102747D01*
X460750Y104247D01*
Y115747D01*
X456449D01*
X456251Y116746D01*
X455588Y117738D01*
X441759Y131567D01*
X440767Y132230D01*
X440196Y132343D01*
X440189Y132350D01*
X439767Y132864D01*
X439663Y133116D01*
X438116Y134663D01*
X436094Y135500D01*
X436189Y136961D01*
X496155D01*
X516961Y116155D01*
Y97910D01*
X507330D01*
Y83910D01*
X507330Y83910D01*
X507330D01*
X506563Y82755D01*
X506006Y82199D01*
X505012Y80710D01*
X504663Y78954D01*
Y77817D01*
X504626Y77500D01*
X503501D01*
Y75513D01*
X503492Y75469D01*
X503501Y75426D01*
Y48500D01*
X515001D01*
Y75426D01*
X515009Y75469D01*
X515001Y75513D01*
Y77348D01*
X515481Y78036D01*
X515687Y78031D01*
X517091Y77345D01*
X517116Y77220D01*
X517558Y76558D01*
X518220Y76116D01*
X518501Y76060D01*
Y48500D01*
X530001D01*
Y76263D01*
X530442Y76558D01*
X530884Y77220D01*
X531039Y78000D01*
Y133148D01*
X532000Y134250D01*
X551000D01*
Y133750D01*
X554941D01*
Y128000D01*
X554941Y128000D01*
X555174Y126829D01*
X555837Y125837D01*
X556119Y125555D01*
X556136Y125532D01*
X556199Y125429D01*
X556259Y125309D01*
X556313Y125168D01*
X556363Y125002D01*
X556404Y124809D01*
X556436Y124587D01*
X556455Y124336D01*
X556461Y123999D01*
X556500Y123821D01*
Y122906D01*
X557337Y120885D01*
X557984Y120238D01*
X558083Y120084D01*
X558317Y119842D01*
X558480Y119651D01*
X558615Y119471D01*
X558722Y119305D01*
X558805Y119153D01*
X558866Y119015D01*
X558909Y118888D01*
X558937Y118770D01*
X558941Y118742D01*
Y117911D01*
X557881Y116850D01*
X554601Y116850D01*
X553101Y116850D01*
X541601D01*
Y103350D01*
X544792D01*
Y99060D01*
X541101D01*
Y85060D01*
X541101Y85060D01*
X541220Y83560D01*
X540545Y82936D01*
X539662Y82210D01*
X539348Y81984D01*
X539103Y81831D01*
X539033Y81796D01*
X537495Y81489D01*
X536006Y80495D01*
X535012Y79006D01*
X534712Y77500D01*
X533501D01*
Y75513D01*
X533492Y75469D01*
X533501Y75426D01*
Y75336D01*
X533498Y75313D01*
X533501Y75304D01*
Y48500D01*
X545001D01*
Y75304D01*
X545003Y75313D01*
X545001Y75336D01*
Y75426D01*
X545009Y75469D01*
X545001Y75513D01*
Y77500D01*
X545001Y77500D01*
X545001D01*
X545001Y77500D01*
X545285Y78882D01*
X545842Y79516D01*
X549394Y83069D01*
X549394Y83069D01*
X550057Y84061D01*
X550256Y85060D01*
X552808D01*
X554101Y84560D01*
X555394Y84560D01*
X559101D01*
Y92060D01*
Y99560D01*
X555394D01*
X554101Y99560D01*
X552808Y99060D01*
X551970D01*
X550910Y100121D01*
Y102289D01*
X551970Y103350D01*
X554101Y103350D01*
X555601Y103350D01*
X567101D01*
Y116850D01*
X565059D01*
Y118742D01*
X565063Y118770D01*
X565091Y118888D01*
X565134Y119015D01*
X565195Y119153D01*
X565278Y119305D01*
X565385Y119471D01*
X565519Y119651D01*
X565683Y119842D01*
X565917Y120084D01*
X566016Y120238D01*
X566663Y120885D01*
X567500Y122906D01*
Y125094D01*
X566663Y127115D01*
X565116Y128663D01*
X563094Y129500D01*
X562179D01*
X562001Y129539D01*
X561664Y129545D01*
X561413Y129564D01*
X561191Y129596D01*
X561059Y129624D01*
Y133750D01*
X565000D01*
Y146750D01*
X565000D01*
Y147250D01*
X565000D01*
Y158869D01*
X566070Y159920D01*
X570152Y159849D01*
X571000Y158700D01*
Y148700D01*
X585000D01*
Y158700D01*
X582279D01*
X582257Y158755D01*
X582175Y159059D01*
X582104Y159485D01*
X582078Y159781D01*
Y164000D01*
X582078Y164000D01*
X581768Y165561D01*
X580884Y166884D01*
X580884Y166884D01*
X573836Y173931D01*
X574458Y175431D01*
X582522D01*
X616477Y141477D01*
X617634Y140703D01*
X619000Y140431D01*
X626118D01*
X627500Y139754D01*
Y139000D01*
X629385D01*
X629403Y138995D01*
X629437Y139000D01*
X629487D01*
X629530Y138991D01*
X629574Y139000D01*
X632385D01*
X632402Y138995D01*
X632438Y139000D01*
X632487D01*
X632531Y138991D01*
X632574Y139000D01*
X648500D01*
Y149000D01*
X647000D01*
Y151500D01*
X648500D01*
Y161500D01*
X647000D01*
Y164000D01*
X648500D01*
Y174000D01*
X632574D01*
X632531Y174009D01*
X632487Y174000D01*
X632438D01*
X632402Y174005D01*
X632385Y174000D01*
X629574D01*
X629530Y174009D01*
X629487Y174000D01*
X629437D01*
X629403Y174005D01*
X629385Y174000D01*
X627500D01*
Y173246D01*
X626118Y172569D01*
X619478D01*
X605569Y186478D01*
Y212226D01*
X605592Y212388D01*
X605627Y212547D01*
X605667Y212679D01*
X605709Y212786D01*
X605751Y212871D01*
X605793Y212939D01*
X605835Y212994D01*
X605947Y213116D01*
X606031Y213253D01*
X606663Y213885D01*
X607500Y215906D01*
Y218094D01*
X606663Y220116D01*
X606036Y220742D01*
X605957Y220874D01*
X605870Y220968D01*
X605853Y220992D01*
X605828Y221035D01*
X605796Y221106D01*
X605759Y221206D01*
X605723Y221341D01*
X605696Y221479D01*
X605671Y221726D01*
Y247480D01*
X613520Y255329D01*
X627023D01*
X627227Y255312D01*
X627500Y255266D01*
Y253500D01*
X648500D01*
Y263500D01*
X629565D01*
X629520Y263509D01*
X629477Y263500D01*
X627500D01*
Y262691D01*
X627203Y262670D01*
X612000D01*
X610595Y262391D01*
X609404Y261595D01*
X599559Y251750D01*
X598919Y251843D01*
X598059Y252281D01*
Y272449D01*
X598060Y272552D01*
X598076Y272885D01*
X605020Y279830D01*
X625986D01*
X627500Y279181D01*
Y278500D01*
X629466D01*
X629507Y278491D01*
X629519Y278494D01*
X629530Y278491D01*
X629574Y278500D01*
X648500D01*
Y288500D01*
X629574D01*
X629530Y288509D01*
X629519Y288506D01*
X629507Y288509D01*
X629466Y288500D01*
X627500D01*
Y287819D01*
X625986Y287171D01*
X603500D01*
X602095Y286891D01*
X600905Y286096D01*
X592405Y277596D01*
X591609Y276405D01*
X591329Y275000D01*
X591609Y273595D01*
X591853Y273231D01*
X591941Y271003D01*
Y232267D01*
X586233Y226559D01*
X579610D01*
X578500Y227500D01*
X578500Y228059D01*
Y231000D01*
X571000D01*
Y235000D01*
X578500D01*
Y238500D01*
X574513D01*
X574049Y239900D01*
X574047Y240000D01*
X586523Y252477D01*
X587297Y253634D01*
X587569Y255000D01*
Y282378D01*
X597520Y292330D01*
X625986D01*
X627500Y291681D01*
Y291000D01*
X629466D01*
X629507Y290991D01*
X629519Y290994D01*
X629530Y290991D01*
X629574Y291000D01*
X648500D01*
Y301000D01*
X629574D01*
X629530Y301009D01*
X629519Y301006D01*
X629507Y301009D01*
X629466Y301000D01*
X627500D01*
Y300319D01*
X625986Y299671D01*
X596000D01*
X594595Y299391D01*
X593405Y298596D01*
X581405Y286595D01*
X580609Y285405D01*
X580330Y284000D01*
X580431Y283487D01*
Y256478D01*
X570022Y246069D01*
X554318D01*
X554142Y246084D01*
X554000Y246107D01*
Y247500D01*
X552013D01*
X551969Y247509D01*
X551926Y247500D01*
X549059D01*
Y263741D01*
X549063Y263770D01*
X549091Y263888D01*
X549134Y264015D01*
X549195Y264153D01*
X549278Y264305D01*
X549385Y264471D01*
X549520Y264651D01*
X549683Y264842D01*
X549917Y265084D01*
X550016Y265238D01*
X550663Y265884D01*
X551500Y267906D01*
Y270094D01*
X550663Y272115D01*
X549115Y273663D01*
X547094Y274500D01*
X544906D01*
X542884Y273663D01*
X541337Y272115D01*
X540500Y270094D01*
Y267906D01*
X541337Y265884D01*
X541984Y265238D01*
X542083Y265084D01*
X542317Y264842D01*
X542480Y264651D01*
X542615Y264471D01*
X542722Y264305D01*
X542805Y264153D01*
X542866Y264015D01*
X542909Y263888D01*
X542937Y263770D01*
X542941Y263741D01*
Y247500D01*
X540000D01*
Y245559D01*
X535811D01*
X534750Y246619D01*
X534750Y248750D01*
X534750Y250250D01*
Y259676D01*
X534759Y259720D01*
X534750Y259763D01*
Y261750D01*
X532951D01*
X532920Y261808D01*
X532811Y262107D01*
X532704Y262557D01*
X532616Y263148D01*
X532588Y263507D01*
Y265810D01*
X532663Y265884D01*
X533500Y267906D01*
Y270094D01*
X532663Y272115D01*
X531115Y273663D01*
X529094Y274500D01*
X526906D01*
X524884Y273663D01*
X523337Y272115D01*
X522500Y270094D01*
Y267906D01*
X523337Y265884D01*
X523412Y265810D01*
Y263507D01*
X523384Y263148D01*
X523296Y262557D01*
X523189Y262107D01*
X523080Y261808D01*
X523049Y261750D01*
X521250D01*
Y259763D01*
X521241Y259720D01*
X521250Y259676D01*
Y250250D01*
X521250Y249250D01*
X521250Y247750D01*
Y245559D01*
X518500D01*
X518500Y245559D01*
X517329Y245326D01*
X516337Y244663D01*
X507837Y236163D01*
X507174Y235170D01*
X506941Y234000D01*
X506941Y234000D01*
Y176267D01*
X490733Y160059D01*
X450004D01*
X449957Y160092D01*
X449299Y161045D01*
X449167Y161559D01*
X449364Y161854D01*
X449472Y162396D01*
X449683Y162906D01*
Y163458D01*
X449791Y164000D01*
Y165248D01*
X450315Y168256D01*
X450933Y169500D01*
X455933D01*
Y177000D01*
Y184500D01*
X451000D01*
Y191500D01*
X455933D01*
Y199000D01*
Y206500D01*
X451000D01*
Y208500D01*
X455933D01*
Y216000D01*
Y223500D01*
X451000D01*
Y225500D01*
X455933D01*
Y233000D01*
Y240500D01*
X450933D01*
X450135Y241669D01*
X450041Y242927D01*
Y254407D01*
X450467Y254769D01*
X451352Y255433D01*
X452222Y255998D01*
X453075Y256467D01*
X453910Y256843D01*
X454729Y257129D01*
X455533Y257330D01*
X456326Y257449D01*
X457215Y257494D01*
X457240Y257500D01*
X467183D01*
Y274500D01*
X445183D01*
Y269556D01*
X445177Y269532D01*
X445133Y268643D01*
X445014Y267850D01*
X444813Y267045D01*
X444526Y266227D01*
X444150Y265392D01*
X443681Y264539D01*
X443116Y263669D01*
X442452Y262784D01*
X441973Y262220D01*
X440468Y260715D01*
X439252Y258896D01*
X438825Y256750D01*
Y242009D01*
X438746Y240665D01*
X438671Y240005D01*
X438670Y240000D01*
X437933D01*
Y238064D01*
X437925Y238030D01*
X437930Y237999D01*
X437924Y237969D01*
X437933Y237926D01*
Y237125D01*
X434580Y235449D01*
X423532D01*
X422910Y236949D01*
X423846Y237885D01*
X424683Y239906D01*
Y242094D01*
X423846Y244116D01*
X423199Y244762D01*
X423100Y244916D01*
X422867Y245158D01*
X422703Y245349D01*
X422568Y245529D01*
X422461Y245695D01*
X422379Y245847D01*
X422318Y245985D01*
X422274Y246112D01*
X422246Y246230D01*
X422242Y246259D01*
Y254916D01*
X481163Y313837D01*
X481163Y313837D01*
X481826Y314829D01*
X482059Y316000D01*
Y326312D01*
X487000D01*
Y333312D01*
X489000D01*
Y335312D01*
X496500D01*
Y340312D01*
X496000Y340312D01*
Y353312D01*
X493825D01*
X492569Y354688D01*
Y355920D01*
X493265Y357313D01*
X495750D01*
Y369812D01*
X495750D01*
Y370312D01*
X495750D01*
Y382812D01*
X482250D01*
Y380171D01*
X482105Y380147D01*
X481924Y380131D01*
X472076D01*
X471895Y380147D01*
X471750Y380171D01*
Y382812D01*
X458250D01*
Y380171D01*
X458105Y380147D01*
X457924Y380131D01*
X451076D01*
X450895Y380147D01*
X450750Y380171D01*
Y382812D01*
X437250D01*
Y380171D01*
X437105Y380147D01*
X436924Y380131D01*
X428076D01*
X427895Y380147D01*
X427750Y380171D01*
Y382812D01*
X414250D01*
X413820Y384134D01*
Y385000D01*
X413665Y385780D01*
X413223Y386442D01*
X412562Y386884D01*
X411781Y387039D01*
D02*
G37*
G36*
X505683Y264000D02*
X496183D01*
Y257000D01*
X505683D01*
Y264000D01*
D02*
G37*
G36*
X492183D02*
X482683D01*
Y257000D01*
X492183D01*
Y264000D01*
D02*
G37*
G36*
X142271Y255530D02*
X140771Y255530D01*
X129271D01*
Y253389D01*
X129125Y253365D01*
X128945Y253349D01*
X117838D01*
X117663Y253364D01*
X117521Y253387D01*
Y254780D01*
X115534D01*
X115490Y254789D01*
X115447Y254780D01*
X105521D01*
Y242780D01*
X117521D01*
Y246171D01*
X117668Y246196D01*
X117847Y246211D01*
X128945D01*
X129125Y246196D01*
X129271Y246171D01*
Y242030D01*
X140771D01*
X141771Y242030D01*
X143271Y242030D01*
X154771D01*
Y244391D01*
X154917Y244416D01*
X155097Y244431D01*
X166226D01*
X166388Y244408D01*
X166547Y244373D01*
X166679Y244333D01*
X166786Y244291D01*
X166871Y244249D01*
X166939Y244207D01*
X166994Y244165D01*
X167116Y244053D01*
X167253Y243969D01*
X167885Y243337D01*
X169906Y242500D01*
X172094D01*
X174116Y243337D01*
X175663Y244884D01*
X176500Y246906D01*
Y249094D01*
X175663Y251115D01*
X174116Y252663D01*
X172094Y253500D01*
X169906D01*
X167885Y252663D01*
X167253Y252031D01*
X167116Y251947D01*
X166994Y251835D01*
X166939Y251793D01*
X166871Y251751D01*
X166786Y251709D01*
X166679Y251667D01*
X166547Y251627D01*
X166388Y251593D01*
X166226Y251569D01*
X155097D01*
X154917Y251584D01*
X154771Y251609D01*
Y255530D01*
X143271D01*
X142271Y255530D01*
D02*
G37*
G36*
X459933Y240500D02*
Y235000D01*
X464933D01*
Y240500D01*
X459933D01*
D02*
G37*
G36*
X49500Y260250D02*
X20500D01*
Y234250D01*
X49500D01*
Y260250D01*
D02*
G37*
G36*
X103021Y312780D02*
X91021D01*
Y300780D01*
X92912D01*
X92936Y300635D01*
X92952Y300454D01*
Y284106D01*
X92936Y283925D01*
X92912Y283780D01*
X90521D01*
Y271780D01*
X92912D01*
X92936Y271635D01*
X92952Y271454D01*
Y256106D01*
X92936Y255925D01*
X92890Y255649D01*
X92886Y255632D01*
X92740Y255603D01*
X92633Y255532D01*
X92512Y255491D01*
X92306Y255313D01*
X92079Y255161D01*
X92007Y255054D01*
X91910Y254970D01*
X91815Y254780D01*
X90521D01*
Y242780D01*
X92941D01*
Y237258D01*
X92937Y237230D01*
X92909Y237112D01*
X92866Y236985D01*
X92805Y236847D01*
X92722Y236695D01*
X92615Y236529D01*
X92480Y236349D01*
X92317Y236158D01*
X92083Y235916D01*
X91984Y235762D01*
X91337Y235116D01*
X90500Y233094D01*
Y230906D01*
X91337Y228885D01*
X92885Y227337D01*
X94906Y226500D01*
X97094D01*
X99115Y227337D01*
X100663Y228885D01*
X101500Y230906D01*
Y233094D01*
X100663Y235116D01*
X100016Y235762D01*
X99917Y235916D01*
X99683Y236158D01*
X99520Y236349D01*
X99385Y236529D01*
X99278Y236695D01*
X99195Y236847D01*
X99134Y236985D01*
X99091Y237112D01*
X99063Y237230D01*
X99059Y237258D01*
Y242780D01*
X102521D01*
Y254780D01*
X101226D01*
X101131Y254970D01*
X101034Y255054D01*
X100963Y255161D01*
X100736Y255313D01*
X100530Y255491D01*
X100408Y255532D01*
X100301Y255603D01*
X100156Y255632D01*
X100151Y255649D01*
X100105Y255925D01*
X100089Y256106D01*
Y271454D01*
X100105Y271635D01*
X100129Y271780D01*
X102521D01*
Y283780D01*
X100129D01*
X100105Y283925D01*
X100089Y284106D01*
Y300454D01*
X100105Y300635D01*
X100129Y300780D01*
X103021D01*
Y312780D01*
D02*
G37*
G36*
X464933Y231000D02*
X459933D01*
Y225500D01*
X464933D01*
Y231000D01*
D02*
G37*
G36*
X677500Y248250D02*
X648500D01*
Y222250D01*
X677500D01*
Y248250D01*
D02*
G37*
G36*
X186000Y224500D02*
X180500D01*
Y219500D01*
X186000D01*
Y224500D01*
D02*
G37*
G36*
X70500Y229000D02*
X49500D01*
Y219000D01*
X70500D01*
Y229000D01*
D02*
G37*
G36*
X464933Y223500D02*
X459933D01*
Y218000D01*
X464933D01*
Y223500D01*
D02*
G37*
G36*
X161094Y235500D02*
X158906D01*
X156884Y234663D01*
X155337Y233116D01*
X154500Y231094D01*
Y228906D01*
X155337Y226884D01*
X155984Y226238D01*
X156083Y226084D01*
X156317Y225842D01*
X156480Y225651D01*
X156615Y225471D01*
X156722Y225305D01*
X156805Y225153D01*
X156866Y225015D01*
X156909Y224888D01*
X156937Y224770D01*
X156941Y224741D01*
Y223257D01*
X155010D01*
Y209257D01*
X165010D01*
Y223257D01*
X163059D01*
Y224741D01*
X163063Y224770D01*
X163091Y224888D01*
X163134Y225015D01*
X163195Y225153D01*
X163278Y225305D01*
X163385Y225471D01*
X163519Y225651D01*
X163683Y225842D01*
X163917Y226084D01*
X164016Y226238D01*
X164663Y226884D01*
X165500Y228906D01*
Y231094D01*
X164663Y233116D01*
X163116Y234663D01*
X161094Y235500D01*
D02*
G37*
G36*
X464933Y214000D02*
X459933D01*
Y208500D01*
X464933D01*
Y214000D01*
D02*
G37*
G36*
X248250Y213000D02*
X243250D01*
Y207500D01*
X248250D01*
Y213000D01*
D02*
G37*
G36*
X209083Y207210D02*
X204083D01*
Y201710D01*
X209083D01*
Y207210D01*
D02*
G37*
G36*
X464933Y206500D02*
X459933D01*
Y201000D01*
X464933D01*
Y206500D01*
D02*
G37*
G36*
X71000Y204500D02*
X62000D01*
Y201000D01*
X71000D01*
Y204500D01*
D02*
G37*
G36*
X58000D02*
X49000D01*
Y201000D01*
X58000D01*
Y204500D01*
D02*
G37*
G36*
X119500Y197000D02*
X114000D01*
Y193500D01*
X119500D01*
Y197000D01*
D02*
G37*
G36*
X110000D02*
X104500D01*
Y193500D01*
X110000D01*
Y197000D01*
D02*
G37*
G36*
X71000D02*
X62000D01*
Y193500D01*
X71000D01*
Y197000D01*
D02*
G37*
G36*
X58000D02*
X49000D01*
Y193500D01*
X58000D01*
Y197000D01*
D02*
G37*
G36*
X209083Y197710D02*
X204083D01*
Y192210D01*
X209083D01*
Y197710D01*
D02*
G37*
G36*
X464933Y197000D02*
X459933D01*
Y191500D01*
X464933D01*
Y197000D01*
D02*
G37*
G36*
X677500Y207000D02*
X648500D01*
Y181000D01*
X677500D01*
Y207000D01*
D02*
G37*
G36*
X464933Y184500D02*
X459933D01*
Y179000D01*
X464933D01*
Y184500D01*
D02*
G37*
G36*
Y175000D02*
X459933D01*
Y169500D01*
X464933D01*
Y175000D01*
D02*
G37*
G36*
X49500Y176250D02*
X20500D01*
Y150250D01*
X49500D01*
Y176250D01*
D02*
G37*
G36*
X314250Y152500D02*
X309250D01*
Y147000D01*
X314250D01*
Y152500D01*
D02*
G37*
G36*
Y143000D02*
X309250D01*
Y137500D01*
X314250D01*
Y143000D01*
D02*
G37*
G36*
X649000Y137000D02*
X640000D01*
Y133500D01*
X649000D01*
Y137000D01*
D02*
G37*
G36*
X636000D02*
X627000D01*
Y133500D01*
X636000D01*
Y137000D01*
D02*
G37*
G36*
X93316Y146000D02*
X90683D01*
X88140Y145318D01*
X85860Y144002D01*
X83998Y142140D01*
X82682Y139860D01*
X82000Y137317D01*
Y134684D01*
X82682Y132140D01*
X83998Y129860D01*
X85860Y127998D01*
X88140Y126681D01*
X90683Y126000D01*
X93316D01*
X95860Y126681D01*
X98140Y127998D01*
X100002Y129860D01*
X101319Y132140D01*
X102000Y134684D01*
Y137317D01*
X101319Y139860D01*
X100002Y142140D01*
X98140Y144002D01*
X95860Y145318D01*
X93316Y146000D01*
D02*
G37*
G36*
X649000Y129500D02*
X640000D01*
Y126000D01*
X649000D01*
Y129500D01*
D02*
G37*
G36*
X636000D02*
X627000D01*
Y126000D01*
X636000D01*
Y129500D01*
D02*
G37*
G36*
X508330Y122410D02*
X504830D01*
Y116910D01*
X508330D01*
Y122410D01*
D02*
G37*
G36*
X500830D02*
X497330D01*
Y116910D01*
X500830D01*
Y122410D01*
D02*
G37*
G36*
X585000Y145300D02*
X571000D01*
Y135300D01*
X573721D01*
X573743Y135245D01*
X573825Y134941D01*
X573896Y134515D01*
X573922Y134219D01*
Y128068D01*
X573902Y127845D01*
X573881Y127707D01*
X573868Y127646D01*
X573337Y127115D01*
X572500Y125094D01*
Y122906D01*
X573337Y120885D01*
X574884Y119337D01*
X576906Y118500D01*
X577799D01*
X577955Y118463D01*
X578121Y118456D01*
X578190Y118447D01*
X578267Y118428D01*
X578357Y118398D01*
X578462Y118352D01*
X578584Y118286D01*
X578721Y118198D01*
X578852Y118101D01*
X580477Y116477D01*
X581634Y115703D01*
X583000Y115431D01*
X626118D01*
X627500Y114754D01*
Y114000D01*
X629385D01*
X629403Y113995D01*
X629437Y114000D01*
X629487D01*
X629530Y113991D01*
X629574Y114000D01*
X632385D01*
X632402Y113995D01*
X632438Y114000D01*
X632487D01*
X632531Y113991D01*
X632574Y114000D01*
X648500D01*
Y124000D01*
X632574D01*
X632531Y124009D01*
X632487Y124000D01*
X632438D01*
X632402Y124005D01*
X632385Y124000D01*
X629574D01*
X629530Y124009D01*
X629487Y124000D01*
X629437D01*
X629403Y124005D01*
X629385Y124000D01*
X627500D01*
Y123246D01*
X626118Y122569D01*
X584478D01*
X583899Y123148D01*
X583802Y123279D01*
X583713Y123417D01*
X583648Y123538D01*
X583602Y123643D01*
X583572Y123733D01*
X583554Y123810D01*
X583544Y123879D01*
X583537Y124045D01*
X583500Y124201D01*
Y125094D01*
X582663Y127115D01*
X582132Y127646D01*
X582119Y127707D01*
X582100Y127827D01*
X582078Y128148D01*
Y134219D01*
X582104Y134515D01*
X582175Y134941D01*
X582257Y135245D01*
X582279Y135300D01*
X585000D01*
Y145300D01*
D02*
G37*
G36*
X479290Y116250D02*
X474040D01*
Y111500D01*
X479290D01*
Y116250D01*
D02*
G37*
G36*
X470040D02*
X464790D01*
Y111500D01*
X470040D01*
Y116250D01*
D02*
G37*
G36*
X508330Y112910D02*
X504830D01*
Y107410D01*
X508330D01*
Y112910D01*
D02*
G37*
G36*
X500830D02*
X497330D01*
Y107410D01*
X500830D01*
Y112910D01*
D02*
G37*
G36*
X563101Y99560D02*
Y94060D01*
X568101D01*
Y99560D01*
X563101D01*
D02*
G37*
G36*
X333163Y94540D02*
X327663D01*
Y89040D01*
X333163D01*
Y94540D01*
D02*
G37*
G36*
X568101Y90060D02*
X563101D01*
Y84560D01*
X568101D01*
Y90060D01*
D02*
G37*
G36*
X677500Y108750D02*
X648500D01*
Y82750D01*
X677500D01*
Y108750D01*
D02*
G37*
G36*
X441792Y101300D02*
X427793D01*
Y93369D01*
X427784Y93324D01*
X427793Y93281D01*
Y91300D01*
X429632D01*
X429742Y91288D01*
X429807Y91178D01*
X429920Y90894D01*
X430034Y90459D01*
X430128Y89880D01*
X430162Y89482D01*
Y86587D01*
X430126Y86175D01*
X430030Y85599D01*
X429913Y85166D01*
X429798Y84881D01*
X429718Y84750D01*
X427000D01*
Y67250D01*
X442500D01*
Y70968D01*
X442631Y71047D01*
X442916Y71164D01*
X443349Y71280D01*
X443926Y71376D01*
X444337Y71412D01*
X454810D01*
X454884Y71337D01*
X456906Y70500D01*
X459094D01*
X461115Y71337D01*
X462663Y72884D01*
X463500Y74906D01*
Y77094D01*
X462663Y79116D01*
X461115Y80663D01*
X459094Y81500D01*
X456906D01*
X454884Y80663D01*
X454810Y80588D01*
X444337D01*
X443926Y80624D01*
X443349Y80720D01*
X442916Y80837D01*
X442631Y80953D01*
X442500Y81032D01*
Y84750D01*
X439782D01*
X439702Y84881D01*
X439587Y85166D01*
X439470Y85599D01*
X439374Y86175D01*
X439338Y86587D01*
Y89463D01*
X439374Y89875D01*
X439470Y90451D01*
X439587Y90884D01*
X439702Y91169D01*
X439782Y91300D01*
X441792D01*
Y101300D01*
D02*
G37*
G36*
X233803Y86027D02*
X213803D01*
Y66027D01*
X233803D01*
Y86027D01*
D02*
G37*
G36*
X199719D02*
X197086D01*
X194543Y85345D01*
X192262Y84029D01*
X190401Y82167D01*
X189084Y79887D01*
X188403Y77343D01*
Y74710D01*
X189084Y72167D01*
X190401Y69887D01*
X192262Y68025D01*
X194543Y66708D01*
X197086Y66027D01*
X199719D01*
X202262Y66708D01*
X204543Y68025D01*
X206404Y69887D01*
X207721Y72167D01*
X208403Y74710D01*
Y77343D01*
X207721Y79887D01*
X206404Y82167D01*
X204543Y84029D01*
X202262Y85345D01*
X199719Y86027D01*
D02*
G37*
G36*
X174319D02*
X171686D01*
X169143Y85345D01*
X166862Y84029D01*
X165001Y82167D01*
X163684Y79887D01*
X163003Y77343D01*
Y74710D01*
X163684Y72167D01*
X165001Y69887D01*
X166862Y68025D01*
X169143Y66708D01*
X171686Y66027D01*
X174319D01*
X176862Y66708D01*
X179143Y68025D01*
X181005Y69887D01*
X182321Y72167D01*
X183002Y74710D01*
Y77343D01*
X182321Y79887D01*
X181005Y82167D01*
X179143Y84029D01*
X176862Y85345D01*
X174319Y86027D01*
D02*
G37*
G36*
X148919D02*
X146286D01*
X143743Y85345D01*
X141462Y84029D01*
X139601Y82167D01*
X138284Y79887D01*
X137603Y77343D01*
Y74710D01*
X138284Y72167D01*
X139601Y69887D01*
X141462Y68025D01*
X143743Y66708D01*
X146286Y66027D01*
X148919D01*
X151462Y66708D01*
X153743Y68025D01*
X155604Y69887D01*
X156921Y72167D01*
X157603Y74710D01*
Y77343D01*
X156921Y79887D01*
X155604Y82167D01*
X153743Y84029D01*
X151462Y85345D01*
X148919Y86027D01*
D02*
G37*
G36*
X123519D02*
X120886D01*
X118343Y85345D01*
X116062Y84029D01*
X114201Y82167D01*
X112884Y79887D01*
X112203Y77343D01*
Y74710D01*
X112884Y72167D01*
X114201Y69887D01*
X116062Y68025D01*
X118343Y66708D01*
X120886Y66027D01*
X123519D01*
X126062Y66708D01*
X128343Y68025D01*
X130204Y69887D01*
X131521Y72167D01*
X132203Y74710D01*
Y77343D01*
X131521Y79887D01*
X130204Y82167D01*
X128343Y84029D01*
X126062Y85345D01*
X123519Y86027D01*
D02*
G37*
G36*
X500501Y78000D02*
X496251D01*
Y65000D01*
X500501D01*
Y78000D01*
D02*
G37*
G36*
X492251D02*
X488001D01*
Y65000D01*
X492251D01*
Y78000D01*
D02*
G37*
G36*
X320528Y64000D02*
X303528D01*
Y57000D01*
X320528D01*
Y64000D01*
D02*
G37*
G36*
X299529D02*
X282528D01*
Y57000D01*
X299529D01*
Y64000D01*
D02*
G37*
G36*
X225802Y60961D02*
Y52627D01*
X234137D01*
X233587Y54680D01*
X232205Y57074D01*
X230250Y59029D01*
X227855Y60411D01*
X225802Y60961D01*
D02*
G37*
G36*
X221803D02*
X219750Y60411D01*
X217355Y59029D01*
X215401Y57074D01*
X214018Y54680D01*
X213468Y52627D01*
X221803D01*
Y60961D01*
D02*
G37*
G36*
X124202D02*
Y52627D01*
X132537D01*
X131987Y54680D01*
X130605Y57074D01*
X128650Y59029D01*
X126255Y60411D01*
X124202Y60961D01*
D02*
G37*
G36*
X120203D02*
X118150Y60411D01*
X115755Y59029D01*
X113800Y57074D01*
X112418Y54680D01*
X111868Y52627D01*
X120203D01*
Y60961D01*
D02*
G37*
G36*
X425000Y84750D02*
X409500D01*
Y82147D01*
X406254Y80383D01*
X405173Y80168D01*
X403685Y79173D01*
X385528Y61017D01*
X384028Y61638D01*
Y63500D01*
X347028D01*
Y46500D01*
X384028D01*
Y50617D01*
X384120Y50678D01*
X384350Y50780D01*
X384718Y50887D01*
X385221Y50978D01*
X385572Y51011D01*
X386599D01*
X388355Y51361D01*
X389844Y52355D01*
X408010Y70521D01*
X409500Y69711D01*
Y67250D01*
X412218D01*
X412298Y67119D01*
X412413Y66834D01*
X412530Y66401D01*
X412626Y65825D01*
X412662Y65413D01*
Y63750D01*
X413011Y61994D01*
X414006Y60506D01*
X416927Y57584D01*
X418416Y56589D01*
X420172Y56240D01*
X471664D01*
X472075Y56204D01*
X472651Y56108D01*
X473085Y55992D01*
X473370Y55876D01*
X473501Y55796D01*
Y48500D01*
X485001D01*
Y77500D01*
X473501D01*
Y65860D01*
X473370Y65781D01*
X473085Y65665D01*
X472651Y65549D01*
X472075Y65453D01*
X471664Y65417D01*
X424206D01*
X423381Y66917D01*
X423593Y67250D01*
X425000D01*
Y84750D01*
D02*
G37*
G36*
X500501Y61000D02*
X496251D01*
Y48000D01*
X500501D01*
Y61000D01*
D02*
G37*
G36*
X492251D02*
X488001D01*
Y48000D01*
X492251D01*
Y61000D01*
D02*
G37*
G36*
X320528Y53000D02*
X303528D01*
Y46000D01*
X320528D01*
Y53000D01*
D02*
G37*
G36*
X299529D02*
X282528D01*
Y46000D01*
X299529D01*
Y53000D01*
D02*
G37*
G36*
X199719Y60627D02*
X197086D01*
X194543Y59945D01*
X192262Y58629D01*
X190401Y56767D01*
X189084Y54487D01*
X188403Y51943D01*
Y49310D01*
X189084Y46767D01*
X190401Y44487D01*
X192262Y42625D01*
X194543Y41308D01*
X197086Y40627D01*
X199719D01*
X202262Y41308D01*
X204543Y42625D01*
X206404Y44487D01*
X207721Y46767D01*
X208403Y49310D01*
Y51943D01*
X207721Y54487D01*
X206404Y56767D01*
X204543Y58629D01*
X202262Y59945D01*
X199719Y60627D01*
D02*
G37*
G36*
X174319D02*
X171686D01*
X169143Y59945D01*
X166862Y58629D01*
X165001Y56767D01*
X163684Y54487D01*
X163003Y51943D01*
Y49310D01*
X163684Y46767D01*
X165001Y44487D01*
X166862Y42625D01*
X169143Y41308D01*
X171686Y40627D01*
X174319D01*
X176862Y41308D01*
X179143Y42625D01*
X181005Y44487D01*
X182321Y46767D01*
X183002Y49310D01*
Y51943D01*
X182321Y54487D01*
X181005Y56767D01*
X179143Y58629D01*
X176862Y59945D01*
X174319Y60627D01*
D02*
G37*
G36*
X148919D02*
X146286D01*
X143743Y59945D01*
X141462Y58629D01*
X139601Y56767D01*
X138284Y54487D01*
X137603Y51943D01*
Y49310D01*
X138284Y46767D01*
X139601Y44487D01*
X141462Y42625D01*
X143743Y41308D01*
X146286Y40627D01*
X148919D01*
X151462Y41308D01*
X153743Y42625D01*
X155604Y44487D01*
X156921Y46767D01*
X157603Y49310D01*
Y51943D01*
X156921Y54487D01*
X155604Y56767D01*
X153743Y58629D01*
X151462Y59945D01*
X148919Y60627D01*
D02*
G37*
G36*
X234137Y48627D02*
X225802D01*
Y40292D01*
X227855Y40842D01*
X230250Y42225D01*
X232205Y44180D01*
X233587Y46574D01*
X234137Y48627D01*
D02*
G37*
G36*
X221803D02*
X213468D01*
X214018Y46574D01*
X215401Y44180D01*
X217355Y42225D01*
X219750Y40842D01*
X221803Y40292D01*
Y48627D01*
D02*
G37*
G36*
X132537D02*
X124202D01*
Y40292D01*
X126255Y40842D01*
X128650Y42225D01*
X130605Y44180D01*
X131987Y46574D01*
X132537Y48627D01*
D02*
G37*
G36*
X120203D02*
X111868D01*
X112418Y46574D01*
X113800Y44180D01*
X115755Y42225D01*
X118150Y40842D01*
X120203Y40292D01*
Y48627D01*
D02*
G37*
G36*
X560001Y77500D02*
X548501D01*
Y50574D01*
X548492Y50531D01*
X548501Y50487D01*
Y48500D01*
X548927D01*
X549663Y45486D01*
Y45441D01*
X549337Y45115D01*
X548500Y43094D01*
Y40906D01*
X549337Y38884D01*
X550885Y37337D01*
X552906Y36500D01*
X555094D01*
X557116Y37337D01*
X558663Y38884D01*
X559500Y40906D01*
Y43094D01*
X558839Y44690D01*
Y45486D01*
X559574Y48500D01*
X560001D01*
Y50487D01*
X560009Y50531D01*
X560001Y50574D01*
Y77500D01*
D02*
G37*
G36*
X610317Y47000D02*
X607683D01*
X605140Y46318D01*
X602860Y45002D01*
X600998Y43140D01*
X599682Y40860D01*
X599000Y38317D01*
Y35684D01*
X599682Y33140D01*
X600998Y30860D01*
X602860Y28998D01*
X605140Y27682D01*
X607683Y27000D01*
X610317D01*
X612860Y27682D01*
X615140Y28998D01*
X617002Y30860D01*
X618318Y33140D01*
X619000Y35684D01*
Y38317D01*
X618318Y40860D01*
X617002Y43140D01*
X615140Y45002D01*
X612860Y46318D01*
X610317Y47000D01*
D02*
G37*
G36*
X582251Y38500D02*
X566251D01*
Y14500D01*
X582251D01*
Y38500D01*
D02*
G37*
G36*
X467251D02*
X451251D01*
Y14500D01*
X467251D01*
Y38500D01*
D02*
G37*
%LPD*%
G36*
X190010Y421284D02*
X190475Y414782D01*
X190620Y414331D01*
X190785Y414060D01*
X190970Y413969D01*
X179030D01*
X179215Y414060D01*
X179380Y414331D01*
X179525Y414782D01*
X179651Y415414D01*
X179758Y416227D01*
X179913Y418394D01*
X180000Y423000D01*
X190000D01*
X190010Y421284D01*
D02*
G37*
G36*
X167010D02*
X167475Y414782D01*
X167621Y414331D01*
X167785Y414060D01*
X167969Y413969D01*
X156031D01*
Y398031D01*
X146031Y401000D01*
Y411000D01*
X156031Y413969D01*
X156215Y414060D01*
X156379Y414331D01*
X156525Y414782D01*
X156651Y415414D01*
X156758Y416227D01*
X156913Y418394D01*
X157000Y423000D01*
X167000D01*
X167010Y421284D01*
D02*
G37*
G36*
X128015Y398424D02*
X128059Y397909D01*
X128132Y397454D01*
X128235Y397061D01*
X128367Y396727D01*
X128529Y396454D01*
X128720Y396242D01*
X128940Y396091D01*
X129190Y396000D01*
X129469Y395970D01*
X116531D01*
X116810Y396000D01*
X117059Y396091D01*
X117280Y396242D01*
X117471Y396454D01*
X117633Y396727D01*
X117765Y397061D01*
X117868Y397454D01*
X117941Y397909D01*
X117985Y398424D01*
X118000Y399000D01*
X128000D01*
X128015Y398424D01*
D02*
G37*
G36*
X116531Y382000D02*
X111531Y384500D01*
Y389500D01*
X116531Y392000D01*
Y382000D01*
D02*
G37*
G36*
X89509Y373820D02*
X89730Y371020D01*
X89831Y370569D01*
X89951Y370219D01*
X90089Y369969D01*
X90245Y369819D01*
X90420Y369770D01*
X83581D01*
X83755Y369819D01*
X83912Y369969D01*
X84049Y370219D01*
X84169Y370569D01*
X84270Y371020D01*
X84353Y371570D01*
X84463Y372970D01*
X84500Y374770D01*
X89500D01*
X89509Y373820D01*
D02*
G37*
G36*
X339000Y355000D02*
X323000D01*
Y391000D01*
X339000D01*
Y355000D01*
D02*
G37*
G36*
X306569Y366215D02*
X306870Y365541D01*
X307369Y364945D01*
X308069Y364429D01*
X308969Y363992D01*
X310070Y363635D01*
X311369Y363357D01*
X312869Y363159D01*
X314569Y363040D01*
X316469Y363000D01*
Y353000D01*
X314569Y352960D01*
X311369Y352643D01*
X310070Y352365D01*
X308969Y352008D01*
X308069Y351571D01*
X307369Y351055D01*
X306870Y350460D01*
X306569Y349785D01*
X306469Y349030D01*
Y366969D01*
X306569Y366215D01*
D02*
G37*
G36*
X293531Y349030D02*
X283531Y353000D01*
Y363000D01*
X293531Y366969D01*
Y349030D01*
D02*
G37*
G36*
X256569Y366215D02*
X256870Y365541D01*
X257369Y364945D01*
X258069Y364429D01*
X258969Y363992D01*
X260070Y363635D01*
X261369Y363357D01*
X262869Y363159D01*
X264569Y363040D01*
X266469Y363000D01*
Y353000D01*
X264569Y352960D01*
X261369Y352643D01*
X260070Y352365D01*
X258969Y352008D01*
X258069Y351571D01*
X257369Y351055D01*
X256870Y350460D01*
X256569Y349785D01*
X256469Y349030D01*
Y366969D01*
X256569Y366215D01*
D02*
G37*
G36*
X256469Y349030D02*
X243531Y341959D01*
X236459Y349030D01*
X237803Y350445D01*
X239006Y351859D01*
X240068Y353273D01*
X240990Y354687D01*
X241770Y356102D01*
X242410Y357516D01*
X242909Y358930D01*
X243267Y360344D01*
X243484Y361758D01*
X243561Y363173D01*
X256469Y349030D01*
D02*
G37*
G36*
X201569Y349405D02*
X201870Y348900D01*
X202369Y348455D01*
X203069Y348069D01*
X203969Y347742D01*
X205070Y347475D01*
X206369Y347267D01*
X207869Y347119D01*
X211469Y347000D01*
Y337000D01*
X209569Y336970D01*
X206369Y336733D01*
X205070Y336525D01*
X203969Y336258D01*
X203069Y335931D01*
X202369Y335545D01*
X201870Y335099D01*
X201569Y334595D01*
X201469Y334030D01*
Y349969D01*
X201569Y349405D01*
D02*
G37*
G36*
X572575Y387507D02*
X569842Y382038D01*
X569652Y381468D01*
X569538Y380996D01*
X569500Y380621D01*
X567500Y380068D01*
X567450Y380656D01*
X567300Y381240D01*
X567049Y381821D01*
X566699Y382399D01*
X566249Y382974D01*
X565698Y383546D01*
X565047Y384114D01*
X564297Y384679D01*
X563446Y385241D01*
X562495Y385800D01*
X573297Y388760D01*
X572575Y387507D01*
D02*
G37*
G36*
X569510Y351589D02*
X569540Y351248D01*
X569590Y350947D01*
X569660Y350685D01*
X569750Y350462D01*
X569860Y350279D01*
X569990Y350135D01*
X570140Y350030D01*
X570310Y349965D01*
X570500Y349939D01*
X566500D01*
X566690Y349965D01*
X566860Y350030D01*
X567010Y350135D01*
X567140Y350279D01*
X567250Y350462D01*
X567340Y350685D01*
X567410Y350947D01*
X567460Y351248D01*
X567490Y351589D01*
X567500Y351969D01*
X569500D01*
X569510Y351589D01*
D02*
G37*
G36*
X571465Y346810D02*
X571530Y346640D01*
X571635Y346490D01*
X571778Y346360D01*
X571962Y346250D01*
X572185Y346160D01*
X572447Y346090D01*
X572748Y346040D01*
X573089Y346010D01*
X573470Y346000D01*
Y344000D01*
X573089Y343990D01*
X572748Y343960D01*
X572447Y343910D01*
X572185Y343840D01*
X571962Y343750D01*
X571778Y343640D01*
X571635Y343510D01*
X571530Y343360D01*
X571465Y343190D01*
X571439Y343000D01*
Y347000D01*
X571465Y346810D01*
D02*
G37*
G36*
X582500Y342550D02*
X582215Y342826D01*
X581927Y343072D01*
X581638Y343289D01*
X581345Y343478D01*
X581051Y343638D01*
X580755Y343768D01*
X580456Y343870D01*
X580155Y343942D01*
X579851Y343985D01*
X579546Y344000D01*
Y346000D01*
X579851Y346015D01*
X580155Y346058D01*
X580456Y346130D01*
X580755Y346232D01*
X581051Y346362D01*
X581345Y346522D01*
X581638Y346711D01*
X581927Y346928D01*
X582215Y347174D01*
X582500Y347450D01*
Y342550D01*
D02*
G37*
G36*
X536245Y384821D02*
X535962Y384806D01*
X535679Y384764D01*
X535396Y384693D01*
X535113Y384594D01*
X534831Y384467D01*
X534548Y384311D01*
X534265Y384128D01*
X533982Y383915D01*
X533699Y383675D01*
X533416Y383406D01*
X532002Y384821D01*
X532271Y385103D01*
X532511Y385386D01*
X532723Y385669D01*
X532907Y385952D01*
X533063Y386235D01*
X533190Y386518D01*
X533289Y386800D01*
X533360Y387083D01*
X533402Y387366D01*
X533416Y387649D01*
X536245Y384821D01*
D02*
G37*
G36*
X551175Y356215D02*
X550928Y355928D01*
X550710Y355638D01*
X550522Y355345D01*
X550363Y355051D01*
X550232Y354755D01*
X550131Y354456D01*
X550058Y354155D01*
X550014Y353851D01*
X550000Y353546D01*
X548000D01*
X547985Y353851D01*
X547942Y354155D01*
X547869Y354456D01*
X547768Y354755D01*
X547637Y355051D01*
X547478Y355345D01*
X547290Y355638D01*
X547072Y355928D01*
X546825Y356215D01*
X546550Y356501D01*
X551450D01*
X551175Y356215D01*
D02*
G37*
G36*
X550010Y351589D02*
X550040Y351248D01*
X550090Y350947D01*
X550160Y350685D01*
X550250Y350462D01*
X550360Y350279D01*
X550490Y350135D01*
X550640Y350030D01*
X550810Y349965D01*
X551000Y349939D01*
X547000D01*
X547190Y349965D01*
X547360Y350030D01*
X547510Y350135D01*
X547640Y350279D01*
X547750Y350462D01*
X547840Y350685D01*
X547910Y350947D01*
X547960Y351248D01*
X547990Y351589D01*
X548000Y351969D01*
X550000D01*
X550010Y351589D01*
D02*
G37*
G36*
X515510Y351339D02*
X515540Y350998D01*
X515590Y350697D01*
X515660Y350435D01*
X515750Y350212D01*
X515860Y350028D01*
X515990Y349885D01*
X516140Y349780D01*
X516310Y349715D01*
X516500Y349689D01*
X512500D01*
X512690Y349715D01*
X512860Y349780D01*
X513010Y349885D01*
X513140Y350028D01*
X513250Y350212D01*
X513340Y350435D01*
X513410Y350697D01*
X513460Y350998D01*
X513490Y351339D01*
X513500Y351720D01*
X515500D01*
X515510Y351339D01*
D02*
G37*
G36*
X546561Y343000D02*
X546535Y343190D01*
X546470Y343360D01*
X546365Y343510D01*
X546222Y343640D01*
X546038Y343750D01*
X545815Y343840D01*
X545553Y343910D01*
X545252Y343960D01*
X544911Y343990D01*
X544530Y344000D01*
Y346000D01*
X544911Y346010D01*
X545252Y346040D01*
X545553Y346090D01*
X545815Y346160D01*
X546038Y346250D01*
X546222Y346360D01*
X546365Y346490D01*
X546470Y346640D01*
X546535Y346810D01*
X546561Y347000D01*
Y343000D01*
D02*
G37*
G36*
X531740Y346810D02*
X531800Y346640D01*
X531899Y346490D01*
X532039Y346360D01*
X532220Y346250D01*
X532439Y346160D01*
X532700Y346090D01*
X532999Y346040D01*
X533340Y346010D01*
X533719Y346000D01*
Y344000D01*
X533340Y343990D01*
X532999Y343960D01*
X532700Y343910D01*
X532439Y343840D01*
X532220Y343750D01*
X532039Y343640D01*
X531899Y343510D01*
X531800Y343360D01*
X531740Y343190D01*
X531720Y343000D01*
Y347000D01*
X531740Y346810D01*
D02*
G37*
G36*
X529310Y340285D02*
X529140Y340220D01*
X528990Y340115D01*
X528860Y339972D01*
X528750Y339788D01*
X528660Y339565D01*
X528590Y339303D01*
X528540Y339002D01*
X528510Y338661D01*
X528500Y338280D01*
X526500D01*
X526490Y338661D01*
X526460Y339002D01*
X526410Y339303D01*
X526340Y339565D01*
X526250Y339788D01*
X526140Y339972D01*
X526010Y340115D01*
X525860Y340220D01*
X525690Y340285D01*
X525500Y340311D01*
X529500D01*
X529310Y340285D01*
D02*
G37*
G36*
X528510Y325339D02*
X528540Y324998D01*
X528590Y324697D01*
X528660Y324435D01*
X528750Y324212D01*
X528860Y324029D01*
X528990Y323885D01*
X529140Y323780D01*
X529310Y323715D01*
X529500Y323689D01*
X528501D01*
X528510Y323339D01*
X528540Y322998D01*
X528590Y322697D01*
X528660Y322435D01*
X528750Y322212D01*
X528860Y322029D01*
X528990Y321885D01*
X529140Y321780D01*
X529310Y321715D01*
X529500Y321689D01*
X525500D01*
X525690Y321715D01*
X525860Y321780D01*
X526010Y321885D01*
X526140Y322029D01*
X526250Y322212D01*
X526340Y322435D01*
X526410Y322697D01*
X526460Y322998D01*
X526490Y323339D01*
X526499Y323689D01*
X525500D01*
X525690Y323715D01*
X525860Y323780D01*
X526010Y323885D01*
X526140Y324029D01*
X526250Y324212D01*
X526340Y324435D01*
X526410Y324697D01*
X526460Y324998D01*
X526490Y325339D01*
X526500Y325719D01*
X528500D01*
X528510Y325339D01*
D02*
G37*
G36*
X89450Y335950D02*
X84450D01*
X83581Y339831D01*
X90420D01*
X89450Y335950D01*
D02*
G37*
G36*
X68520Y333880D02*
X68670Y333801D01*
X68920Y333730D01*
X69269Y333669D01*
X69720Y333617D01*
X71670Y333519D01*
X73470Y333500D01*
Y328500D01*
X72519Y328495D01*
X68920Y328270D01*
X68670Y328200D01*
X68520Y328120D01*
X68470Y328031D01*
Y333969D01*
X68520Y333880D01*
D02*
G37*
G36*
X116020Y308495D02*
X116110Y308240D01*
X116260Y308015D01*
X116470Y307820D01*
X116740Y307655D01*
X117070Y307520D01*
X117460Y307415D01*
X117910Y307340D01*
X118420Y307295D01*
X118990Y307280D01*
Y304280D01*
X118420Y304265D01*
X117910Y304221D01*
X117460Y304148D01*
X117070Y304045D01*
X116740Y303913D01*
X116470Y303751D01*
X116260Y303560D01*
X116110Y303340D01*
X116020Y303090D01*
X115990Y302810D01*
Y308780D01*
X116020Y308495D01*
D02*
G37*
G36*
X131332Y302780D02*
X131296Y303065D01*
X131201Y303320D01*
X131046Y303545D01*
X130832Y303740D01*
X130559Y303905D01*
X130226Y304040D01*
X129834Y304145D01*
X129382Y304220D01*
X128871Y304265D01*
X128301Y304280D01*
Y307280D01*
X128871Y307295D01*
X129382Y307340D01*
X129834Y307415D01*
X130226Y307520D01*
X130559Y307655D01*
X130832Y307820D01*
X131046Y308015D01*
X131201Y308240D01*
X131296Y308495D01*
X131332Y308780D01*
Y302780D01*
D02*
G37*
G36*
X609786Y311396D02*
X609887Y311124D01*
X610051Y310884D01*
X610279Y310676D01*
X610571Y310500D01*
X610925Y310356D01*
X611344Y310244D01*
X611825Y310164D01*
X612370Y310116D01*
X612978Y310100D01*
Y306900D01*
X612370Y306884D01*
X611825Y306836D01*
X611344Y306756D01*
X610925Y306644D01*
X610571Y306500D01*
X610279Y306324D01*
X610051Y306116D01*
X609887Y305876D01*
X609786Y305604D01*
X609748Y305300D01*
Y306894D01*
X609370Y306884D01*
X608825Y306836D01*
X608344Y306756D01*
X607925Y306644D01*
X607571Y306500D01*
X607279Y306324D01*
X607051Y306116D01*
X606887Y305876D01*
X606786Y305604D01*
X606748Y305300D01*
Y311700D01*
X606786Y311396D01*
X606887Y311124D01*
X607051Y310884D01*
X607279Y310676D01*
X607571Y310500D01*
X607925Y310356D01*
X608344Y310244D01*
X608825Y310164D01*
X609370Y310116D01*
X609748Y310106D01*
Y311700D01*
X609786Y311396D01*
D02*
G37*
G36*
X629530Y305530D02*
X626330Y306900D01*
Y310100D01*
X629530Y311469D01*
Y305530D01*
D02*
G37*
G36*
X154770Y279715D02*
X154860Y279460D01*
X155010Y279235D01*
X155220Y279040D01*
X155490Y278875D01*
X155820Y278740D01*
X156210Y278635D01*
X156660Y278560D01*
X157170Y278515D01*
X157740Y278500D01*
Y275500D01*
X157170Y275485D01*
X156660Y275440D01*
X156210Y275365D01*
X155820Y275260D01*
X155490Y275125D01*
X155220Y274960D01*
X155010Y274765D01*
X154860Y274540D01*
X154770Y274285D01*
X154740Y274000D01*
Y274995D01*
X152771Y274000D01*
Y280000D01*
X154740Y279005D01*
Y280000D01*
X154770Y279715D01*
D02*
G37*
G36*
X131332Y275000D02*
X131296Y275285D01*
X131201Y275540D01*
X131046Y275765D01*
X130832Y275960D01*
X130559Y276125D01*
X130226Y276260D01*
X129834Y276365D01*
X129382Y276440D01*
X128871Y276485D01*
X128301Y276500D01*
Y279500D01*
X128871Y279515D01*
X129382Y279560D01*
X129834Y279635D01*
X130226Y279740D01*
X130559Y279875D01*
X130832Y280040D01*
X131046Y280235D01*
X131201Y280460D01*
X131296Y280715D01*
X131332Y281000D01*
Y275000D01*
D02*
G37*
G36*
X115520Y280715D02*
X115610Y280460D01*
X115760Y280235D01*
X115970Y280040D01*
X116240Y279875D01*
X116570Y279740D01*
X116960Y279635D01*
X117410Y279560D01*
X117920Y279515D01*
X118490Y279500D01*
Y276500D01*
X117920Y276485D01*
X117410Y276440D01*
X116960Y276365D01*
X116570Y276260D01*
X116240Y276125D01*
X115970Y275960D01*
X115760Y275765D01*
X115610Y275540D01*
X115520Y275285D01*
X115490Y275000D01*
Y281000D01*
X115520Y280715D01*
D02*
G37*
G36*
X162500Y274550D02*
X162305Y274730D01*
X162092Y274892D01*
X161861Y275035D01*
X161611Y275158D01*
X161344Y275263D01*
X161059Y275348D01*
X160756Y275415D01*
X160434Y275462D01*
X160095Y275490D01*
X159738Y275500D01*
Y278500D01*
X160095Y278510D01*
X160434Y278538D01*
X160756Y278585D01*
X161059Y278652D01*
X161344Y278738D01*
X161611Y278842D01*
X161861Y278965D01*
X162092Y279108D01*
X162305Y279270D01*
X162500Y279450D01*
Y274550D01*
D02*
G37*
G36*
X173507Y319568D02*
X173536Y319191D01*
X173587Y318832D01*
X173660Y318492D01*
X173756Y318171D01*
X173873Y317869D01*
X174013Y317586D01*
X174174Y317322D01*
X174358Y317077D01*
X174564Y316850D01*
X173150Y315436D01*
X172923Y315642D01*
X172678Y315826D01*
X172414Y315987D01*
X172131Y316127D01*
X171829Y316244D01*
X171508Y316340D01*
X171168Y316413D01*
X170809Y316464D01*
X170432Y316493D01*
X170035Y316500D01*
X173500Y319965D01*
X173507Y319568D01*
D02*
G37*
G36*
X180311Y313000D02*
X180285Y313190D01*
X180220Y313360D01*
X180115Y313510D01*
X179971Y313640D01*
X179788Y313750D01*
X179565Y313840D01*
X179303Y313910D01*
X179002Y313960D01*
X178661Y313990D01*
X178281Y314000D01*
Y316000D01*
X178661Y316010D01*
X179002Y316040D01*
X179303Y316090D01*
X179565Y316160D01*
X179788Y316250D01*
X179971Y316360D01*
X180115Y316490D01*
X180220Y316640D01*
X180285Y316810D01*
X180311Y317000D01*
Y313000D01*
D02*
G37*
G36*
X201740Y315810D02*
X201800Y315640D01*
X201900Y315490D01*
X202040Y315360D01*
X202220Y315250D01*
X202439Y315160D01*
X202700Y315090D01*
X202999Y315040D01*
X203340Y315010D01*
X203720Y315000D01*
Y313000D01*
X203340Y312990D01*
X202999Y312960D01*
X202700Y312910D01*
X202439Y312840D01*
X202220Y312750D01*
X202040Y312640D01*
X201900Y312510D01*
X201800Y312360D01*
X201740Y312190D01*
X201719Y312000D01*
Y316000D01*
X201740Y315810D01*
D02*
G37*
G36*
X186310Y309285D02*
X186140Y309220D01*
X185990Y309115D01*
X185860Y308971D01*
X185750Y308788D01*
X185660Y308565D01*
X185590Y308303D01*
X185540Y308002D01*
X185510Y307661D01*
X185500Y307281D01*
X183500D01*
X183490Y307661D01*
X183460Y308002D01*
X183410Y308303D01*
X183340Y308565D01*
X183250Y308788D01*
X183140Y308971D01*
X183010Y309115D01*
X182860Y309220D01*
X182690Y309285D01*
X182500Y309311D01*
X186500D01*
X186310Y309285D01*
D02*
G37*
G36*
X185510Y301339D02*
X185540Y300998D01*
X185590Y300697D01*
X185660Y300435D01*
X185750Y300212D01*
X185860Y300028D01*
X185990Y299885D01*
X186140Y299780D01*
X186310Y299715D01*
X186500Y299689D01*
X182500D01*
X182690Y299715D01*
X182860Y299780D01*
X183010Y299885D01*
X183140Y300028D01*
X183250Y300212D01*
X183340Y300435D01*
X183410Y300697D01*
X183460Y300998D01*
X183490Y301339D01*
X183500Y301719D01*
X185500D01*
X185510Y301339D01*
D02*
G37*
G36*
X222057Y295694D02*
X221880Y295881D01*
X221688Y296047D01*
X221481Y296194D01*
X221259Y296322D01*
X221021Y296430D01*
X220768Y296518D01*
X220499Y296587D01*
X220215Y296636D01*
X219916Y296665D01*
X219602Y296675D01*
X219841Y298675D01*
X220156Y298685D01*
X220464Y298714D01*
X220765Y298763D01*
X221058Y298831D01*
X221345Y298919D01*
X221624Y299027D01*
X221897Y299153D01*
X222162Y299300D01*
X222420Y299466D01*
X222671Y299651D01*
X222057Y295694D01*
D02*
G37*
G36*
X214968Y299916D02*
X215227Y299656D01*
X215493Y299426D01*
X215765Y299227D01*
X216043Y299058D01*
X216328Y298920D01*
X216620Y298813D01*
X216918Y298736D01*
X217223Y298690D01*
X217534Y298675D01*
X217339Y296675D01*
X217041Y296661D01*
X216740Y296621D01*
X216438Y296554D01*
X216133Y296460D01*
X215826Y296338D01*
X215517Y296190D01*
X215206Y296015D01*
X214893Y295813D01*
X214578Y295584D01*
X214261Y295329D01*
X214716Y300207D01*
X214968Y299916D01*
D02*
G37*
G36*
X211010Y294643D02*
X210663Y294734D01*
X210334Y294797D01*
X210023Y294832D01*
X209730Y294839D01*
X209456Y294818D01*
X209199Y294769D01*
X208961Y294692D01*
X208740Y294587D01*
X208538Y294454D01*
X208354Y294293D01*
X207080Y295847D01*
X207269Y296052D01*
X207451Y296280D01*
X207625Y296530D01*
X207791Y296803D01*
X207950Y297100D01*
X208243Y297761D01*
X208378Y298125D01*
X208624Y298923D01*
X211010Y294643D01*
D02*
G37*
G36*
X201715Y296810D02*
X201780Y296640D01*
X201885Y296490D01*
X202029Y296360D01*
X202212Y296250D01*
X202435Y296160D01*
X202697Y296090D01*
X202998Y296040D01*
X203339Y296010D01*
X203720Y296000D01*
Y294000D01*
X203339Y293990D01*
X202998Y293960D01*
X202697Y293910D01*
X202435Y293840D01*
X202212Y293750D01*
X202029Y293640D01*
X201885Y293510D01*
X201780Y293360D01*
X201715Y293190D01*
X201689Y293000D01*
Y297000D01*
X201715Y296810D01*
D02*
G37*
G36*
X186310Y290285D02*
X186140Y290220D01*
X185990Y290115D01*
X185860Y289971D01*
X185750Y289788D01*
X185660Y289565D01*
X185590Y289303D01*
X185540Y289002D01*
X185510Y288661D01*
X185500Y288280D01*
X183500D01*
X183490Y288661D01*
X183460Y289002D01*
X183410Y289303D01*
X183340Y289565D01*
X183250Y289788D01*
X183140Y289971D01*
X183010Y290115D01*
X182860Y290220D01*
X182690Y290285D01*
X182500Y290311D01*
X186500D01*
X186310Y290285D01*
D02*
G37*
G36*
X185510Y282339D02*
X185540Y281998D01*
X185590Y281697D01*
X185660Y281435D01*
X185750Y281212D01*
X185860Y281028D01*
X185990Y280885D01*
X186140Y280780D01*
X186310Y280715D01*
X186500Y280689D01*
X182500D01*
X182690Y280715D01*
X182860Y280780D01*
X183010Y280885D01*
X183140Y281028D01*
X183250Y281212D01*
X183340Y281435D01*
X183410Y281697D01*
X183460Y281998D01*
X183490Y282339D01*
X183500Y282719D01*
X185500D01*
X185510Y282339D01*
D02*
G37*
G36*
X201715Y277810D02*
X201780Y277640D01*
X201885Y277490D01*
X202029Y277360D01*
X202212Y277250D01*
X202435Y277160D01*
X202697Y277090D01*
X202998Y277040D01*
X203339Y277010D01*
X203720Y277000D01*
Y275000D01*
X203339Y274990D01*
X202998Y274960D01*
X202697Y274910D01*
X202435Y274840D01*
X202212Y274750D01*
X202029Y274640D01*
X201885Y274510D01*
X201780Y274360D01*
X201715Y274190D01*
X201689Y274000D01*
Y278000D01*
X201715Y277810D01*
D02*
G37*
G36*
X416311Y374000D02*
X416275Y374285D01*
X416180Y374540D01*
X416025Y374765D01*
X415812Y374960D01*
X415538Y375125D01*
X415205Y375260D01*
X414813Y375365D01*
X414362Y375440D01*
X413851Y375485D01*
X413280Y375500D01*
Y378500D01*
X413851Y378515D01*
X414362Y378560D01*
X414813Y378635D01*
X415205Y378740D01*
X415538Y378875D01*
X415812Y379040D01*
X416025Y379235D01*
X416180Y379460D01*
X416275Y379715D01*
X416311Y380000D01*
Y374000D01*
D02*
G37*
G36*
X484311Y373563D02*
X484275Y373848D01*
X484180Y374103D01*
X484025Y374328D01*
X483811Y374523D01*
X483538Y374688D01*
X483205Y374823D01*
X482813Y374927D01*
X482362Y375003D01*
X481851Y375047D01*
X481281Y375062D01*
Y378063D01*
X481851Y378078D01*
X482362Y378122D01*
X482813Y378198D01*
X483205Y378302D01*
X483538Y378438D01*
X483811Y378602D01*
X484025Y378797D01*
X484180Y379022D01*
X484275Y379277D01*
X484311Y379562D01*
Y373563D01*
D02*
G37*
G36*
X469725Y379277D02*
X469820Y379022D01*
X469975Y378797D01*
X470189Y378602D01*
X470462Y378438D01*
X470795Y378302D01*
X471187Y378198D01*
X471638Y378122D01*
X472149Y378078D01*
X472719Y378063D01*
Y375062D01*
X472149Y375047D01*
X471638Y375003D01*
X471187Y374927D01*
X470795Y374823D01*
X470462Y374688D01*
X470189Y374523D01*
X469975Y374328D01*
X469820Y374103D01*
X469725Y373848D01*
X469689Y373563D01*
Y379562D01*
X469725Y379277D01*
D02*
G37*
G36*
X460311Y373563D02*
X460275Y373848D01*
X460180Y374103D01*
X460025Y374328D01*
X459812Y374523D01*
X459538Y374688D01*
X459205Y374823D01*
X458813Y374927D01*
X458362Y375003D01*
X457851Y375047D01*
X457281Y375062D01*
Y378063D01*
X457851Y378078D01*
X458362Y378122D01*
X458813Y378198D01*
X459205Y378302D01*
X459538Y378438D01*
X459812Y378602D01*
X460025Y378797D01*
X460180Y379022D01*
X460275Y379277D01*
X460311Y379562D01*
Y373563D01*
D02*
G37*
G36*
X448725Y379277D02*
X448820Y379022D01*
X448975Y378797D01*
X449189Y378602D01*
X449462Y378438D01*
X449795Y378302D01*
X450187Y378198D01*
X450638Y378122D01*
X451149Y378078D01*
X451720Y378063D01*
Y375062D01*
X451149Y375047D01*
X450638Y375003D01*
X450187Y374927D01*
X449795Y374823D01*
X449462Y374688D01*
X449189Y374523D01*
X448975Y374328D01*
X448820Y374103D01*
X448725Y373848D01*
X448689Y373563D01*
Y379562D01*
X448725Y379277D01*
D02*
G37*
G36*
X439311Y373563D02*
X439275Y373848D01*
X439180Y374103D01*
X439025Y374328D01*
X438811Y374523D01*
X438538Y374688D01*
X438205Y374823D01*
X437813Y374927D01*
X437362Y375003D01*
X436851Y375047D01*
X436281Y375062D01*
Y378063D01*
X436851Y378078D01*
X437362Y378122D01*
X437813Y378198D01*
X438205Y378302D01*
X438538Y378438D01*
X438811Y378602D01*
X439025Y378797D01*
X439180Y379022D01*
X439275Y379277D01*
X439311Y379562D01*
Y373563D01*
D02*
G37*
G36*
X425725Y379277D02*
X425820Y379022D01*
X425975Y378797D01*
X426189Y378602D01*
X426462Y378438D01*
X426795Y378302D01*
X427187Y378198D01*
X427638Y378122D01*
X428149Y378078D01*
X428719Y378063D01*
Y375062D01*
X428149Y375047D01*
X427638Y375003D01*
X427187Y374927D01*
X426795Y374823D01*
X426462Y374688D01*
X426189Y374523D01*
X425975Y374328D01*
X425820Y374103D01*
X425725Y373848D01*
X425689Y373563D01*
Y379562D01*
X425725Y379277D01*
D02*
G37*
G36*
X490500Y356343D02*
X487500D01*
X486000Y359343D01*
X492000D01*
X490500Y356343D01*
D02*
G37*
G36*
X466500D02*
X463500D01*
X462000Y359343D01*
X468000D01*
X466500Y356343D01*
D02*
G37*
G36*
X446715Y359338D02*
X446460Y359243D01*
X446235Y359088D01*
X446040Y358874D01*
X445875Y358601D01*
X445740Y358268D01*
X445635Y357876D01*
X445560Y357424D01*
X445515Y356913D01*
X445500Y356343D01*
X442500D01*
X442485Y356913D01*
X442440Y357424D01*
X442365Y357876D01*
X442260Y358268D01*
X442125Y358601D01*
X441960Y358874D01*
X441765Y359088D01*
X441540Y359243D01*
X441285Y359338D01*
X441000Y359373D01*
X447000D01*
X446715Y359338D01*
D02*
G37*
G36*
X423715D02*
X423460Y359243D01*
X423235Y359088D01*
X423040Y358874D01*
X422875Y358601D01*
X422740Y358268D01*
X422635Y357876D01*
X422560Y357424D01*
X422515Y356913D01*
X422500Y356343D01*
X419500D01*
X419485Y356913D01*
X419440Y357424D01*
X419365Y357876D01*
X419260Y358268D01*
X419125Y358601D01*
X418960Y358874D01*
X418765Y359088D01*
X418540Y359243D01*
X418285Y359338D01*
X418000Y359373D01*
X424000D01*
X423715Y359338D01*
D02*
G37*
G36*
X482105Y372978D02*
X482250Y372954D01*
Y370312D01*
X482250D01*
Y369812D01*
X482250D01*
Y358996D01*
X481625Y357746D01*
X480454Y357513D01*
X479462Y356850D01*
X479462Y356850D01*
X477000Y354388D01*
X474038Y357350D01*
X473046Y358013D01*
X471875Y358246D01*
X471750Y359684D01*
Y369812D01*
X471750D01*
Y370312D01*
X471750D01*
Y372954D01*
X471895Y372978D01*
X472076Y372994D01*
X481924D01*
X482105Y372978D01*
D02*
G37*
G36*
X466102Y356237D02*
X466202Y356227D01*
X466579Y356210D01*
X469118Y356188D01*
Y354188D01*
X466061Y354126D01*
X466050Y354086D01*
X466039Y353986D01*
X466022Y353609D01*
X466015Y352841D01*
X466040Y352562D01*
X466090Y352262D01*
X466160Y352002D01*
X466250Y351782D01*
X466360Y351602D01*
X466490Y351462D01*
X466640Y351362D01*
X466810Y351302D01*
X467000Y351282D01*
X466002D01*
X466000Y351069D01*
X464000D01*
X463996Y351282D01*
X463000D01*
X463190Y351302D01*
X463360Y351362D01*
X463510Y351462D01*
X463640Y351602D01*
X463750Y351782D01*
X463840Y352002D01*
X463910Y352262D01*
X463960Y352562D01*
X463968Y352655D01*
X463939Y354128D01*
X466060D01*
Y356249D01*
X466102Y356237D01*
D02*
G37*
G36*
X487940Y353628D02*
X490061D01*
X490050Y353586D01*
X490039Y353486D01*
X490022Y353109D01*
X490019Y352796D01*
X490040Y352562D01*
X490090Y352262D01*
X490160Y352002D01*
X490250Y351782D01*
X490360Y351602D01*
X490490Y351462D01*
X490640Y351362D01*
X490810Y351302D01*
X491000Y351282D01*
X490006D01*
X490000Y350569D01*
X488000D01*
X487986Y351282D01*
X487000D01*
X487190Y351302D01*
X487360Y351362D01*
X487510Y351462D01*
X487640Y351602D01*
X487750Y351782D01*
X487840Y352002D01*
X487910Y352262D01*
X487960Y352562D01*
X487960Y352562D01*
X487939Y353627D01*
X487898Y353638D01*
X487798Y353648D01*
X487421Y353665D01*
X484882Y353688D01*
Y355687D01*
X487940Y355749D01*
Y353628D01*
D02*
G37*
G36*
X442940Y353503D02*
X445061D01*
X445050Y353461D01*
X445039Y353360D01*
X445022Y352984D01*
X445016Y352330D01*
X445040Y352062D01*
X445090Y351762D01*
X445160Y351502D01*
X445250Y351282D01*
X445360Y351102D01*
X445490Y350962D01*
X445640Y350862D01*
X445810Y350802D01*
X446000Y350782D01*
X445003D01*
X445000Y350444D01*
X443000D01*
X442993Y350782D01*
X442000D01*
X442190Y350802D01*
X442360Y350862D01*
X442510Y350962D01*
X442640Y351102D01*
X442750Y351282D01*
X442840Y351502D01*
X442910Y351762D01*
X442960Y352062D01*
X442966Y352132D01*
X442939Y353502D01*
X442898Y353513D01*
X442798Y353523D01*
X442421Y353540D01*
X439882Y353563D01*
Y355563D01*
X442940Y355624D01*
Y353503D01*
D02*
G37*
G36*
X422102Y355612D02*
X422202Y355602D01*
X422579Y355585D01*
X425118Y355563D01*
Y353563D01*
X422061Y353501D01*
X422050Y353461D01*
X422039Y353360D01*
X422022Y352984D01*
X422016Y352330D01*
X422040Y352062D01*
X422090Y351762D01*
X422160Y351502D01*
X422250Y351282D01*
X422360Y351102D01*
X422490Y350962D01*
X422640Y350862D01*
X422810Y350802D01*
X423000Y350782D01*
X422003D01*
X422000Y350444D01*
X420000D01*
X419993Y350782D01*
X419000D01*
X419190Y350802D01*
X419360Y350862D01*
X419510Y350962D01*
X419640Y351102D01*
X419750Y351282D01*
X419840Y351502D01*
X419910Y351762D01*
X419960Y352062D01*
X419966Y352132D01*
X419939Y353503D01*
X422060D01*
Y355624D01*
X422102Y355612D01*
D02*
G37*
G36*
X291785Y333175D02*
X292073Y332928D01*
X292362Y332710D01*
X292654Y332522D01*
X292949Y332363D01*
X293245Y332232D01*
X293544Y332131D01*
X293799Y332069D01*
X295380Y332008D01*
X296291Y332000D01*
Y330000D01*
X295380Y329992D01*
X293566Y329875D01*
X293544Y329869D01*
X293245Y329768D01*
X292949Y329637D01*
X292654Y329478D01*
X292362Y329290D01*
X292073Y329072D01*
X291785Y328825D01*
X291500Y328550D01*
Y329595D01*
X291234Y329508D01*
X290961Y329377D01*
X290767Y329231D01*
Y332769D01*
X290961Y332623D01*
X291234Y332492D01*
X291500Y332405D01*
Y333450D01*
X291785Y333175D01*
D02*
G37*
G36*
X411781Y370000D02*
X402000D01*
X395000Y363000D01*
Y330141D01*
X380000D01*
Y385000D01*
X411781D01*
Y370000D01*
D02*
G37*
G36*
X301311Y329000D02*
X301285Y329190D01*
X301220Y329360D01*
X301115Y329510D01*
X300972Y329640D01*
X300788Y329750D01*
X300565Y329840D01*
X300303Y329910D01*
X300002Y329960D01*
X299661Y329990D01*
X299280Y330000D01*
Y332000D01*
X299661Y332010D01*
X300002Y332040D01*
X300303Y332090D01*
X300565Y332160D01*
X300788Y332250D01*
X300972Y332360D01*
X301115Y332490D01*
X301220Y332640D01*
X301285Y332810D01*
X301311Y333000D01*
Y329000D01*
D02*
G37*
G36*
X385260Y328669D02*
X385290Y328328D01*
X385340Y328027D01*
X385410Y327765D01*
X385500Y327542D01*
X385610Y327359D01*
X385740Y327215D01*
X385890Y327110D01*
X386060Y327045D01*
X386250Y327019D01*
X382250D01*
X382440Y327045D01*
X382610Y327110D01*
X382760Y327215D01*
X382890Y327359D01*
X383000Y327542D01*
X383090Y327765D01*
X383160Y328027D01*
X383210Y328328D01*
X383240Y328669D01*
X383250Y329050D01*
X385250D01*
X385260Y328669D01*
D02*
G37*
G36*
X277388Y335525D02*
X277538Y335100D01*
X277788Y334725D01*
X278138Y334400D01*
X278588Y334125D01*
X279138Y333900D01*
X279788Y333725D01*
X280538Y333600D01*
X281388Y333525D01*
X282338Y333500D01*
Y328500D01*
X281388Y328479D01*
X280538Y328415D01*
X279788Y328308D01*
X279138Y328159D01*
X278588Y327968D01*
X278138Y327733D01*
X277788Y327457D01*
X277538Y327137D01*
X277388Y326775D01*
X277338Y326371D01*
X275202Y324512D01*
X270202D01*
X268399Y326371D01*
X277338D01*
Y336000D01*
X277388Y335525D01*
D02*
G37*
G36*
X310715Y320310D02*
X310780Y320140D01*
X310885Y319990D01*
X311028Y319860D01*
X311212Y319750D01*
X311435Y319660D01*
X311697Y319590D01*
X311998Y319540D01*
X312339Y319510D01*
X312719Y319500D01*
Y317500D01*
X312339Y317490D01*
X311998Y317460D01*
X311697Y317410D01*
X311435Y317340D01*
X311212Y317250D01*
X311028Y317140D01*
X310885Y317010D01*
X310780Y316860D01*
X310715Y316690D01*
X310689Y316500D01*
Y320500D01*
X310715Y320310D01*
D02*
G37*
G36*
X386060Y317115D02*
X385890Y317050D01*
X385740Y316945D01*
X385610Y316801D01*
X385500Y316618D01*
X385410Y316395D01*
X385340Y316133D01*
X385290Y315832D01*
X385260Y315491D01*
X385250Y315110D01*
X383250D01*
X383240Y315491D01*
X383210Y315832D01*
X383160Y316133D01*
X383090Y316395D01*
X383000Y316618D01*
X382890Y316801D01*
X382760Y316945D01*
X382610Y317050D01*
X382440Y317115D01*
X382250Y317141D01*
X386250D01*
X386060Y317115D01*
D02*
G37*
G36*
X414207Y367619D02*
X414250Y367578D01*
Y357313D01*
X417391D01*
X417416Y357167D01*
X417431Y356987D01*
Y354562D01*
X417481Y354313D01*
X416293Y352812D01*
X414250D01*
Y340312D01*
X413750D01*
Y335563D01*
X421000D01*
Y333563D01*
X423000D01*
Y326813D01*
X426941D01*
Y287267D01*
X416733Y277059D01*
X405075D01*
X404933Y278500D01*
X404933D01*
Y284000D01*
X397933D01*
Y286000D01*
X395933D01*
Y293500D01*
X390933D01*
X390933Y293000D01*
X387308D01*
Y295979D01*
X388369Y297040D01*
X389457D01*
X390750Y296540D01*
X392043Y296540D01*
X395750D01*
Y304040D01*
Y311540D01*
X392043D01*
X390750Y311540D01*
X389457Y311040D01*
X388369D01*
X387308Y312101D01*
Y315080D01*
X390750D01*
X390750Y314580D01*
X395750D01*
Y322080D01*
X397750D01*
Y324080D01*
X404750D01*
Y329580D01*
X397499D01*
X397039Y330141D01*
Y362155D01*
X402845Y367961D01*
X411781D01*
X412562Y368116D01*
X412750Y368242D01*
X414207Y367619D01*
D02*
G37*
G36*
X284860Y314528D02*
X284935Y314213D01*
X285060Y313935D01*
X285235Y313693D01*
X285460Y313487D01*
X285735Y313318D01*
X286060Y313185D01*
X286435Y313088D01*
X286860Y313028D01*
X287335Y313003D01*
X277858Y312807D01*
X278234Y312935D01*
X278570Y313081D01*
X278866Y313245D01*
X279123Y313426D01*
X279341Y313624D01*
X279519Y313840D01*
X279657Y314074D01*
X279756Y314324D01*
X279815Y314593D01*
X279835Y314878D01*
X284835D01*
X284860Y314528D01*
D02*
G37*
G36*
X307810Y314285D02*
X307640Y314220D01*
X307490Y314115D01*
X307360Y313972D01*
X307250Y313788D01*
X307160Y313565D01*
X307090Y313303D01*
X307040Y313002D01*
X307010Y312661D01*
X307001Y312311D01*
X308000D01*
X307810Y312285D01*
X307640Y312220D01*
X307490Y312115D01*
X307360Y311971D01*
X307250Y311788D01*
X307160Y311565D01*
X307090Y311303D01*
X307040Y311002D01*
X307010Y310661D01*
X307000Y310280D01*
X305000D01*
X304990Y310661D01*
X304960Y311002D01*
X304910Y311303D01*
X304840Y311565D01*
X304750Y311788D01*
X304640Y311971D01*
X304510Y312115D01*
X304360Y312220D01*
X304190Y312285D01*
X304000Y312311D01*
X304999D01*
X304990Y312661D01*
X304960Y313002D01*
X304910Y313303D01*
X304840Y313565D01*
X304750Y313788D01*
X304640Y313972D01*
X304510Y314115D01*
X304360Y314220D01*
X304190Y314285D01*
X304000Y314311D01*
X308000D01*
X307810Y314285D01*
D02*
G37*
G36*
X385260Y310629D02*
X385290Y310288D01*
X385340Y309987D01*
X385410Y309725D01*
X385500Y309502D01*
X385610Y309319D01*
X385740Y309175D01*
X385890Y309070D01*
X386060Y309005D01*
X386250Y308979D01*
X382250D01*
X382440Y309005D01*
X382610Y309070D01*
X382760Y309175D01*
X382890Y309319D01*
X383000Y309502D01*
X383090Y309725D01*
X383160Y309987D01*
X383210Y310288D01*
X383240Y310629D01*
X383250Y311010D01*
X385250D01*
X385260Y310629D01*
D02*
G37*
G36*
X276823Y308069D02*
X276645Y308256D01*
X276448Y308422D01*
X276233Y308570D01*
X275998Y308697D01*
X275745Y308805D01*
X275474Y308893D01*
X275183Y308962D01*
X274874Y309011D01*
X274547Y309040D01*
X274200Y309050D01*
Y311050D01*
X274547Y311060D01*
X274874Y311089D01*
X275183Y311138D01*
X275474Y311207D01*
X275745Y311295D01*
X275998Y311403D01*
X276233Y311530D01*
X276448Y311678D01*
X276645Y311844D01*
X276823Y312031D01*
Y308069D01*
D02*
G37*
G36*
X353500Y306857D02*
X346500D01*
X343531Y311031D01*
X356469D01*
X353500Y306857D01*
D02*
G37*
G36*
X386060Y299075D02*
X385890Y299010D01*
X385740Y298905D01*
X385610Y298762D01*
X385500Y298578D01*
X385410Y298355D01*
X385340Y298093D01*
X385290Y297792D01*
X385260Y297451D01*
X385250Y297071D01*
X383250D01*
X383240Y297451D01*
X383210Y297792D01*
X383160Y298093D01*
X383090Y298355D01*
X383000Y298578D01*
X382890Y298762D01*
X382760Y298905D01*
X382610Y299010D01*
X382440Y299075D01*
X382250Y299101D01*
X386250D01*
X386060Y299075D01*
D02*
G37*
G36*
X290084Y298798D02*
X290236Y298631D01*
X290414Y298483D01*
X290619Y298355D01*
X290851Y298246D01*
X291109Y298158D01*
X291393Y298089D01*
X291704Y298039D01*
X292042Y298010D01*
X292406Y298000D01*
X292146Y296000D01*
X291827Y295990D01*
X291516Y295961D01*
X291213Y295912D01*
X290917Y295844D01*
X290629Y295756D01*
X290348Y295648D01*
X290074Y295522D01*
X289808Y295375D01*
X289549Y295209D01*
X289298Y295024D01*
X289958Y298986D01*
X290084Y298798D01*
D02*
G37*
G36*
X629530Y293030D02*
X626330Y294400D01*
Y297600D01*
X629530Y298969D01*
Y293030D01*
D02*
G37*
G36*
X385260Y292589D02*
X385290Y292248D01*
X385340Y291947D01*
X385410Y291685D01*
X385500Y291462D01*
X385610Y291278D01*
X385740Y291135D01*
X385890Y291030D01*
X386060Y290965D01*
X386250Y290939D01*
X382250D01*
X382440Y290965D01*
X382610Y291030D01*
X382760Y291135D01*
X382890Y291278D01*
X383000Y291462D01*
X383090Y291685D01*
X383160Y291947D01*
X383210Y292248D01*
X383240Y292589D01*
X383250Y292969D01*
X385250D01*
X385260Y292589D01*
D02*
G37*
G36*
X364260Y293640D02*
X364599Y289090D01*
X364725Y288599D01*
X364870Y288249D01*
X365035Y288039D01*
X365219Y287969D01*
X356281D01*
X356465Y288039D01*
X356629Y288249D01*
X356775Y288599D01*
X356901Y289090D01*
X357008Y289720D01*
X357095Y290490D01*
X357211Y292449D01*
X357250Y294970D01*
X364250D01*
X364260Y293640D01*
D02*
G37*
G36*
X458105Y372978D02*
X458250Y372954D01*
Y370312D01*
X458250D01*
Y369812D01*
X458250D01*
Y357313D01*
X460735D01*
X461431Y355920D01*
Y355187D01*
X461506Y354813D01*
X460377Y353312D01*
X458000D01*
Y340312D01*
X457500Y340312D01*
Y335312D01*
X465000D01*
Y333312D01*
X467000D01*
Y326312D01*
X471941D01*
Y320267D01*
X438445Y286770D01*
X437059Y287344D01*
Y326813D01*
X442000D01*
Y333563D01*
X444000D01*
Y335563D01*
X451250D01*
Y340312D01*
X450750D01*
Y352812D01*
X448707D01*
X447519Y354313D01*
X447569Y354562D01*
Y356987D01*
X447584Y357167D01*
X447609Y357313D01*
X450750D01*
Y369812D01*
X450750D01*
Y370312D01*
X450750D01*
Y372954D01*
X450895Y372978D01*
X451076Y372994D01*
X457924D01*
X458105Y372978D01*
D02*
G37*
G36*
X321941Y308733D02*
Y293232D01*
X321878Y291758D01*
X317128D01*
Y284508D01*
X313128D01*
Y289197D01*
X313000D01*
X313128Y289214D01*
Y291758D01*
X308378D01*
Y291258D01*
X301000D01*
Y299674D01*
X308163Y306837D01*
X308163Y306837D01*
X308826Y307829D01*
X309059Y309000D01*
Y310250D01*
X312750D01*
Y315441D01*
X315233D01*
X321941Y308733D01*
D02*
G37*
G36*
X289855Y286444D02*
X290052Y286278D01*
X290267Y286131D01*
X290501Y286003D01*
X290755Y285895D01*
X291026Y285807D01*
X291317Y285738D01*
X291626Y285689D01*
X291953Y285660D01*
X292300Y285650D01*
Y283650D01*
X291953Y283640D01*
X291626Y283611D01*
X291317Y283562D01*
X291026Y283493D01*
X290755Y283405D01*
X290501Y283297D01*
X290267Y283169D01*
X290052Y283022D01*
X289855Y282856D01*
X289677Y282669D01*
Y286631D01*
X289855Y286444D01*
D02*
G37*
G36*
X297908Y282650D02*
X295908Y283650D01*
Y285650D01*
X297908Y286650D01*
Y282650D01*
D02*
G37*
G36*
X629530Y280530D02*
X626330Y281900D01*
Y285100D01*
X629530Y286469D01*
Y280530D01*
D02*
G37*
G36*
X303810Y279793D02*
X303640Y279728D01*
X303490Y279624D01*
X303360Y279480D01*
X303250Y279296D01*
X303160Y279074D01*
X303090Y278811D01*
X303040Y278510D01*
X303010Y278169D01*
X303000Y277789D01*
X301000D01*
X300990Y278169D01*
X300960Y278510D01*
X300910Y278811D01*
X300840Y279074D01*
X300750Y279296D01*
X300640Y279480D01*
X300510Y279624D01*
X300360Y279728D01*
X300190Y279793D01*
X300000Y279819D01*
X304000D01*
X303810Y279793D01*
D02*
G37*
G36*
X387933Y274030D02*
X380933D01*
X379964Y281031D01*
X388903D01*
X387933Y274030D01*
D02*
G37*
G36*
X303015Y276149D02*
X303058Y275845D01*
X303130Y275544D01*
X303232Y275245D01*
X303363Y274949D01*
X303522Y274654D01*
X303710Y274362D01*
X303928Y274072D01*
X304174Y273785D01*
X304450Y273500D01*
X299550D01*
X299825Y273785D01*
X300072Y274072D01*
X300289Y274362D01*
X300478Y274654D01*
X300637Y274949D01*
X300768Y275245D01*
X300870Y275544D01*
X300942Y275845D01*
X300986Y276149D01*
X301000Y276454D01*
X303000D01*
X303015Y276149D01*
D02*
G37*
G36*
X364250Y271031D02*
X357250D01*
X356281Y278030D01*
X365219D01*
X364250Y271031D01*
D02*
G37*
G36*
X596107Y273812D02*
X596085Y273694D01*
X596065Y273515D01*
X596021Y272611D01*
X596000Y270551D01*
X594000D01*
X593868Y273869D01*
X596132D01*
X596107Y273812D01*
D02*
G37*
G36*
X282000Y268997D02*
X281810Y268971D01*
X281640Y268906D01*
X281490Y268801D01*
X281360Y268657D01*
X281250Y268474D01*
X281160Y268251D01*
X281090Y267989D01*
X281040Y267687D01*
X281010Y267346D01*
X281000Y266966D01*
X279000D01*
X278990Y267327D01*
X278960Y267656D01*
X278911Y267955D01*
X278841Y268223D01*
X278752Y268460D01*
X278643Y268666D01*
X278514Y268841D01*
X278366Y268984D01*
X278197Y269097D01*
X278009Y269179D01*
X282000Y268997D01*
D02*
G37*
G36*
X548175Y266215D02*
X547928Y265928D01*
X547710Y265638D01*
X547522Y265345D01*
X547363Y265051D01*
X547232Y264755D01*
X547131Y264456D01*
X547058Y264155D01*
X547015Y263851D01*
X547000Y263546D01*
X545000D01*
X544986Y263851D01*
X544942Y264155D01*
X544869Y264456D01*
X544768Y264755D01*
X544637Y265051D01*
X544478Y265345D01*
X544290Y265638D01*
X544072Y265928D01*
X543825Y266215D01*
X543550Y266500D01*
X548450D01*
X548175Y266215D01*
D02*
G37*
G36*
X347445Y266241D02*
X347426Y265564D01*
X347442Y265266D01*
X347475Y264994D01*
X347524Y264749D01*
X347591Y264531D01*
X347674Y264339D01*
X347774Y264174D01*
X347890Y264035D01*
X346476Y262621D01*
X346321Y262757D01*
X346138Y262883D01*
X345928Y262999D01*
X345691Y263104D01*
X345426Y263198D01*
X345133Y263282D01*
X344814Y263356D01*
X344092Y263472D01*
X343689Y263514D01*
X347479Y266620D01*
X347445Y266241D01*
D02*
G37*
G36*
X334507Y266568D02*
X334536Y266191D01*
X334587Y265832D01*
X334660Y265492D01*
X334756Y265171D01*
X334873Y264869D01*
X335013Y264586D01*
X335174Y264322D01*
X335358Y264077D01*
X335564Y263850D01*
X334150Y262436D01*
X333923Y262642D01*
X333678Y262826D01*
X333414Y262987D01*
X333131Y263127D01*
X332829Y263244D01*
X332508Y263340D01*
X332168Y263413D01*
X331809Y263464D01*
X331432Y263493D01*
X331035Y263500D01*
X334500Y266965D01*
X334507Y266568D01*
D02*
G37*
G36*
X530522Y263769D02*
X530589Y262920D01*
X530700Y262169D01*
X530855Y261520D01*
X531055Y260970D01*
X531299Y260520D01*
X531588Y260170D01*
X531921Y259919D01*
X532298Y259769D01*
X532719Y259720D01*
X523280D01*
X523702Y259769D01*
X524080Y259919D01*
X524412Y260170D01*
X524701Y260520D01*
X524945Y260970D01*
X525145Y261520D01*
X525300Y262169D01*
X525411Y262920D01*
X525478Y263769D01*
X525500Y264720D01*
X530500D01*
X530522Y263769D01*
D02*
G37*
G36*
X281010Y258339D02*
X281040Y257998D01*
X281090Y257697D01*
X281160Y257435D01*
X281250Y257212D01*
X281360Y257029D01*
X281490Y256885D01*
X281640Y256780D01*
X281810Y256715D01*
X282000Y256689D01*
X278000D01*
X278190Y256715D01*
X278360Y256780D01*
X278510Y256885D01*
X278640Y257029D01*
X278750Y257212D01*
X278840Y257435D01*
X278910Y257697D01*
X278960Y257998D01*
X278990Y258339D01*
X279000Y258720D01*
X281000D01*
X281010Y258339D01*
D02*
G37*
G36*
X267510D02*
X267540Y257998D01*
X267590Y257697D01*
X267660Y257435D01*
X267750Y257212D01*
X267860Y257029D01*
X267990Y256885D01*
X268140Y256780D01*
X268310Y256715D01*
X268500Y256689D01*
X264500D01*
X264690Y256715D01*
X264860Y256780D01*
X265010Y256885D01*
X265140Y257029D01*
X265250Y257212D01*
X265340Y257435D01*
X265410Y257697D01*
X265460Y257998D01*
X265490Y258339D01*
X265500Y258720D01*
X267500D01*
X267510Y258339D01*
D02*
G37*
G36*
X629561Y255800D02*
X629523Y256104D01*
X629422Y256376D01*
X629257Y256616D01*
X629030Y256824D01*
X628738Y257000D01*
X628383Y257144D01*
X627965Y257256D01*
X627484Y257336D01*
X626939Y257384D01*
X626330Y257400D01*
Y260600D01*
X626939Y260609D01*
X627962Y260678D01*
X628378Y260739D01*
X628731Y260817D01*
X629019Y260913D01*
X629243Y261026D01*
X629403Y261157D01*
X629498Y261304D01*
X629530Y261469D01*
X629561Y255800D01*
D02*
G37*
G36*
X299495Y259513D02*
X299900Y258419D01*
X300050Y258100D01*
X300375Y257530D01*
X300549Y257279D01*
X300731Y257052D01*
X300921Y256847D01*
X299929Y255010D01*
X299691Y255225D01*
X299441Y255406D01*
X299178Y255553D01*
X298903Y255667D01*
X298615Y255747D01*
X298315Y255794D01*
X298002Y255807D01*
X297678Y255786D01*
X297340Y255731D01*
X296990Y255643D01*
X299376Y259923D01*
X299495Y259513D01*
D02*
G37*
G36*
X457113Y259531D02*
X456123Y259481D01*
X455133Y259333D01*
X454143Y259085D01*
X453153Y258738D01*
X452164Y258293D01*
X451174Y257749D01*
X450184Y257105D01*
X449194Y256363D01*
X448204Y255521D01*
X447214Y254581D01*
X442264Y259531D01*
X443204Y260520D01*
X444046Y261510D01*
X444788Y262500D01*
X445432Y263490D01*
X445976Y264480D01*
X446422Y265470D01*
X446768Y266460D01*
X447016Y267450D01*
X447164Y268440D01*
X447214Y269430D01*
X457113Y259531D01*
D02*
G37*
G36*
X547010Y247089D02*
X547040Y246748D01*
X547090Y246447D01*
X547160Y246185D01*
X547250Y245962D01*
X547360Y245779D01*
X547490Y245635D01*
X547640Y245530D01*
X547810Y245465D01*
X548000Y245439D01*
X544000D01*
X544190Y245465D01*
X544360Y245530D01*
X544510Y245635D01*
X544640Y245779D01*
X544750Y245962D01*
X544840Y246185D01*
X544910Y246447D01*
X544960Y246748D01*
X544990Y247089D01*
X545000Y247470D01*
X547000D01*
X547010Y247089D01*
D02*
G37*
G36*
X281310Y247285D02*
X281140Y247220D01*
X280990Y247115D01*
X280860Y246971D01*
X280750Y246788D01*
X280660Y246565D01*
X280590Y246303D01*
X280540Y246002D01*
X280510Y245661D01*
X280500Y245280D01*
X278500D01*
X278490Y245661D01*
X278460Y246002D01*
X278410Y246303D01*
X278340Y246565D01*
X278250Y246788D01*
X278140Y246971D01*
X278010Y247115D01*
X277860Y247220D01*
X277690Y247285D01*
X277500Y247311D01*
X281500D01*
X281310Y247285D01*
D02*
G37*
G36*
X205061Y244000D02*
X205035Y244190D01*
X204970Y244360D01*
X204865Y244510D01*
X204722Y244640D01*
X204538Y244750D01*
X204315Y244840D01*
X204053Y244910D01*
X203752Y244960D01*
X203411Y244990D01*
X203030Y245000D01*
Y247000D01*
X203411Y247010D01*
X203752Y247040D01*
X204053Y247090D01*
X204315Y247160D01*
X204538Y247250D01*
X204722Y247360D01*
X204865Y247490D01*
X204970Y247640D01*
X205035Y247810D01*
X205061Y248000D01*
Y244000D01*
D02*
G37*
G36*
X420198Y246149D02*
X420241Y245845D01*
X420314Y245544D01*
X420415Y245245D01*
X420546Y244949D01*
X420705Y244655D01*
X420894Y244362D01*
X421111Y244072D01*
X421358Y243785D01*
X421633Y243500D01*
X416733D01*
X417009Y243785D01*
X417255Y244072D01*
X417473Y244362D01*
X417661Y244655D01*
X417821Y244949D01*
X417951Y245245D01*
X418053Y245544D01*
X418125Y245845D01*
X418169Y246149D01*
X418183Y246454D01*
X420183D01*
X420198Y246149D01*
D02*
G37*
G36*
X417230Y265555D02*
X406837Y255163D01*
X406174Y254170D01*
X405941Y253000D01*
X405941Y253000D01*
Y242711D01*
X405179Y242120D01*
X403683Y242796D01*
Y244000D01*
X390933D01*
Y244750D01*
X390183D01*
Y249954D01*
X390242Y250250D01*
Y257259D01*
X399924Y266941D01*
X416656D01*
X417230Y265555D01*
D02*
G37*
G36*
X318943Y243589D02*
X318973Y243248D01*
X319023Y242947D01*
X319093Y242685D01*
X319183Y242462D01*
X319293Y242278D01*
X319423Y242134D01*
X319573Y242030D01*
X319743Y241965D01*
X319933Y241939D01*
X315933D01*
X316123Y241965D01*
X316293Y242030D01*
X316443Y242134D01*
X316573Y242278D01*
X316683Y242462D01*
X316773Y242685D01*
X316843Y242947D01*
X316893Y243248D01*
X316923Y243589D01*
X316933Y243969D01*
X318933D01*
X318943Y243589D01*
D02*
G37*
G36*
X299355Y244893D02*
X299321Y244543D01*
X299317Y244207D01*
X299345Y243885D01*
X299403Y243577D01*
X299492Y243284D01*
X299613Y243006D01*
X299764Y242741D01*
X299946Y242491D01*
X300158Y242256D01*
X298438Y241147D01*
X298226Y241343D01*
X297992Y241526D01*
X297736Y241697D01*
X297458Y241857D01*
X297158Y242005D01*
X296836Y242140D01*
X296492Y242264D01*
X295737Y242477D01*
X295327Y242565D01*
X299421Y245259D01*
X299355Y244893D01*
D02*
G37*
G36*
X542061Y240500D02*
X542035Y240690D01*
X541970Y240860D01*
X541865Y241010D01*
X541721Y241140D01*
X541538Y241250D01*
X541315Y241340D01*
X541053Y241410D01*
X540752Y241460D01*
X540411Y241490D01*
X540031Y241500D01*
Y243500D01*
X540411Y243510D01*
X540752Y243540D01*
X541053Y243590D01*
X541315Y243660D01*
X541538Y243750D01*
X541721Y243860D01*
X541865Y243990D01*
X541970Y244140D01*
X542035Y244310D01*
X542061Y244500D01*
Y240500D01*
D02*
G37*
G36*
X532715Y244310D02*
X532780Y244140D01*
X532885Y243990D01*
X533029Y243860D01*
X533212Y243750D01*
X533435Y243660D01*
X533697Y243590D01*
X533998Y243540D01*
X534339Y243510D01*
X534720Y243500D01*
Y241500D01*
X534339Y241490D01*
X533998Y241460D01*
X533697Y241410D01*
X533435Y241340D01*
X533212Y241250D01*
X533029Y241140D01*
X532885Y241010D01*
X532780Y240860D01*
X532715Y240690D01*
X532689Y240500D01*
Y244500D01*
X532715Y244310D01*
D02*
G37*
G36*
X523311Y240500D02*
X523285Y240690D01*
X523220Y240860D01*
X523115Y241010D01*
X522971Y241140D01*
X522788Y241250D01*
X522565Y241340D01*
X522303Y241410D01*
X522002Y241460D01*
X521661Y241490D01*
X521281Y241500D01*
Y243500D01*
X521661Y243510D01*
X522002Y243540D01*
X522303Y243590D01*
X522565Y243660D01*
X522788Y243750D01*
X522971Y243860D01*
X523115Y243990D01*
X523220Y244140D01*
X523285Y244310D01*
X523311Y244500D01*
Y240500D01*
D02*
G37*
G36*
X552000Y245190D02*
X552090Y244940D01*
X552239Y244720D01*
X552449Y244529D01*
X552719Y244367D01*
X553050Y244235D01*
X553439Y244132D01*
X553890Y244059D01*
X554399Y244015D01*
X554969Y244000D01*
Y241000D01*
X554399Y240985D01*
X553890Y240941D01*
X553439Y240868D01*
X553050Y240765D01*
X552719Y240633D01*
X552449Y240471D01*
X552239Y240280D01*
X552090Y240060D01*
X552000Y239810D01*
X551969Y239531D01*
Y245469D01*
X552000Y245190D01*
D02*
G37*
G36*
X192965Y241810D02*
X193030Y241640D01*
X193135Y241490D01*
X193279Y241360D01*
X193462Y241250D01*
X193685Y241160D01*
X193947Y241090D01*
X194248Y241040D01*
X194589Y241010D01*
X194970Y241000D01*
Y239000D01*
X194589Y238990D01*
X194248Y238960D01*
X193947Y238910D01*
X193685Y238840D01*
X193462Y238750D01*
X193279Y238640D01*
X193135Y238510D01*
X193030Y238360D01*
X192965Y238190D01*
X192939Y238000D01*
Y242000D01*
X192965Y241810D01*
D02*
G37*
G36*
X447943Y243640D02*
X448282Y239090D01*
X448408Y238599D01*
X448554Y238249D01*
X448718Y238039D01*
X448903Y237969D01*
X439964D01*
X440148Y238039D01*
X440313Y238249D01*
X440458Y238599D01*
X440584Y239090D01*
X440691Y239720D01*
X440778Y240490D01*
X440894Y242449D01*
X440933Y244970D01*
X447933D01*
X447943Y243640D01*
D02*
G37*
G36*
X419148Y237500D02*
X418752Y237493D01*
X418374Y237464D01*
X418015Y237413D01*
X417675Y237340D01*
X417354Y237244D01*
X417052Y237127D01*
X416769Y236987D01*
X416505Y236826D01*
X416260Y236642D01*
X416034Y236436D01*
X414619Y237850D01*
X414825Y238077D01*
X415009Y238322D01*
X415171Y238586D01*
X415310Y238869D01*
X415428Y239171D01*
X415523Y239492D01*
X415596Y239832D01*
X415647Y240191D01*
X415676Y240568D01*
X415683Y240965D01*
X419148Y237500D01*
D02*
G37*
G36*
X216959Y238576D02*
X217007Y238293D01*
X217082Y238010D01*
X217185Y237728D01*
X217315Y237445D01*
X217474Y237162D01*
X217660Y236879D01*
X217873Y236596D01*
X218115Y236313D01*
X218384Y236031D01*
X215970Y235616D01*
X215687Y235885D01*
X215404Y236127D01*
X215121Y236340D01*
X214838Y236526D01*
X214555Y236685D01*
X214272Y236815D01*
X213990Y236918D01*
X213707Y236993D01*
X213424Y237041D01*
X213141Y237061D01*
X216939Y238859D01*
X216959Y238576D01*
D02*
G37*
G36*
X439964Y228030D02*
X434964Y228361D01*
Y233361D01*
X439964Y235861D01*
Y228030D01*
D02*
G37*
G36*
X299510Y229399D02*
X299750Y228645D01*
X299884Y228302D01*
X300181Y227683D01*
X300344Y227407D01*
X300517Y227154D01*
X300700Y226923D01*
X300892Y226714D01*
X299846Y224932D01*
X299610Y225146D01*
X299359Y225327D01*
X299096Y225476D01*
X298819Y225593D01*
X298529Y225677D01*
X298225Y225729D01*
X297908Y225748D01*
X297578Y225735D01*
X297234Y225690D01*
X296877Y225612D01*
X299405Y229809D01*
X299510Y229399D01*
D02*
G37*
G36*
X232965Y226810D02*
X233030Y226640D01*
X233135Y226490D01*
X233279Y226360D01*
X233462Y226250D01*
X233685Y226160D01*
X233947Y226090D01*
X234248Y226040D01*
X234589Y226010D01*
X234970Y226000D01*
Y224000D01*
X234589Y223990D01*
X234248Y223960D01*
X233947Y223910D01*
X233685Y223840D01*
X233462Y223750D01*
X233279Y223640D01*
X233135Y223510D01*
X233030Y223360D01*
X232965Y223190D01*
X232939Y223000D01*
Y227000D01*
X232965Y226810D01*
D02*
G37*
G36*
X542061Y222500D02*
X542035Y222690D01*
X541970Y222860D01*
X541865Y223010D01*
X541721Y223140D01*
X541538Y223250D01*
X541315Y223340D01*
X541053Y223410D01*
X540752Y223460D01*
X540411Y223490D01*
X540031Y223500D01*
Y225500D01*
X540410Y225510D01*
X540751Y225539D01*
X541050Y225587D01*
X541311Y225655D01*
X541530Y225742D01*
X541711Y225849D01*
X541851Y225975D01*
X541950Y226120D01*
X542010Y226285D01*
X542030Y226469D01*
X542061Y222500D01*
D02*
G37*
G36*
X532715Y226310D02*
X532780Y226140D01*
X532885Y225990D01*
X533029Y225860D01*
X533212Y225750D01*
X533435Y225660D01*
X533697Y225590D01*
X533998Y225540D01*
X534339Y225510D01*
X534720Y225500D01*
Y223500D01*
X534339Y223490D01*
X533998Y223460D01*
X533697Y223410D01*
X533435Y223340D01*
X533212Y223250D01*
X533029Y223140D01*
X532885Y223010D01*
X532780Y222860D01*
X532715Y222690D01*
X532689Y222500D01*
Y226500D01*
X532715Y226310D01*
D02*
G37*
G36*
X523311Y222500D02*
X523285Y222690D01*
X523220Y222860D01*
X523115Y223010D01*
X522971Y223140D01*
X522788Y223250D01*
X522565Y223340D01*
X522303Y223410D01*
X522002Y223460D01*
X521661Y223490D01*
X521281Y223500D01*
Y225500D01*
X521661Y225510D01*
X522002Y225540D01*
X522303Y225590D01*
X522565Y225660D01*
X522788Y225750D01*
X522971Y225860D01*
X523115Y225990D01*
X523220Y226140D01*
X523285Y226310D01*
X523311Y226500D01*
Y222500D01*
D02*
G37*
G36*
X548102Y224550D02*
X548202Y224539D01*
X548579Y224522D01*
X551118Y224500D01*
Y222500D01*
X548060Y222439D01*
Y224561D01*
X548102Y224550D01*
D02*
G37*
G36*
X551990Y225310D02*
X552049Y225140D01*
X552150Y224990D01*
X552290Y224860D01*
X552469Y224750D01*
X552690Y224660D01*
X552949Y224590D01*
X553250Y224540D01*
X553590Y224510D01*
X553969Y224500D01*
Y222500D01*
X553590Y222490D01*
X553250Y222460D01*
X552949Y222410D01*
X552690Y222340D01*
X552469Y222250D01*
X552290Y222140D01*
X552150Y222010D01*
X552049Y221860D01*
X551990Y221690D01*
X551969Y221500D01*
Y225500D01*
X551990Y225310D01*
D02*
G37*
G36*
X288510Y225399D02*
X288750Y224645D01*
X288884Y224302D01*
X289181Y223683D01*
X289344Y223407D01*
X289517Y223154D01*
X289700Y222923D01*
X289892Y222714D01*
X288846Y220932D01*
X288610Y221146D01*
X288359Y221327D01*
X288096Y221476D01*
X287819Y221593D01*
X287529Y221677D01*
X287225Y221729D01*
X286908Y221748D01*
X286578Y221735D01*
X286234Y221690D01*
X285877Y221612D01*
X288405Y225809D01*
X288510Y225399D01*
D02*
G37*
G36*
X598145Y228090D02*
X598330Y227950D01*
Y221656D01*
X598310Y221509D01*
X598277Y221341D01*
X598241Y221206D01*
X598204Y221106D01*
X598172Y221035D01*
X598147Y220992D01*
X598130Y220968D01*
X598043Y220874D01*
X597964Y220742D01*
X597337Y220116D01*
X596500Y218094D01*
Y215906D01*
X597337Y213885D01*
X597969Y213253D01*
X598053Y213116D01*
X598165Y212994D01*
X598207Y212939D01*
X598249Y212871D01*
X598291Y212786D01*
X598333Y212679D01*
X598373Y212547D01*
X598408Y212388D01*
X598431Y212226D01*
Y185000D01*
X598497Y184671D01*
X597114Y183932D01*
X588523Y192523D01*
X587366Y193297D01*
X586000Y193569D01*
X567774D01*
X567612Y193592D01*
X567453Y193627D01*
X567321Y193667D01*
X567214Y193709D01*
X567129Y193751D01*
X567061Y193793D01*
X567006Y193835D01*
X566884Y193947D01*
X566747Y194031D01*
X566115Y194663D01*
X564094Y195500D01*
X561906D01*
X559884Y194663D01*
X558337Y193116D01*
X557500Y191094D01*
Y188906D01*
X558337Y186884D01*
X559884Y185337D01*
X561906Y184500D01*
X564094D01*
X564568Y184697D01*
X565804Y183865D01*
X565789Y182569D01*
X556478D01*
X551000Y188047D01*
Y216000D01*
Y218500D01*
X554000D01*
Y220441D01*
X587500D01*
X587500Y220441D01*
X588671Y220674D01*
X589663Y221337D01*
X596829Y228504D01*
X598145Y228090D01*
D02*
G37*
G36*
X266517Y224020D02*
X266655Y222419D01*
X266775Y221770D01*
X266930Y221220D01*
X267119Y220770D01*
X267343Y220420D01*
X267600Y220170D01*
X267893Y220019D01*
X268220Y219970D01*
X259280D01*
X259702Y220019D01*
X260079Y220170D01*
X260412Y220420D01*
X260701Y220770D01*
X260945Y221220D01*
X261145Y221770D01*
X261300Y222419D01*
X261411Y223169D01*
X261478Y224020D01*
X261500Y224970D01*
X266500D01*
X266517Y224020D01*
D02*
G37*
G36*
X603609Y221847D02*
X603676Y221179D01*
X603736Y220876D01*
X603812Y220594D01*
X603906Y220334D01*
X604016Y220094D01*
X604144Y219875D01*
X604288Y219677D01*
X604450Y219499D01*
X599550D01*
X599711Y219677D01*
X599856Y219875D01*
X599983Y220094D01*
X600094Y220334D01*
X600187Y220594D01*
X600264Y220876D01*
X600323Y221179D01*
X600366Y221503D01*
X600392Y221847D01*
X600400Y222213D01*
X603600D01*
X603609Y221847D01*
D02*
G37*
G36*
X549715Y220525D02*
X549460Y220430D01*
X549235Y220275D01*
X549040Y220061D01*
X548875Y219788D01*
X548740Y219455D01*
X548635Y219063D01*
X548560Y218612D01*
X548515Y218101D01*
X548500Y217530D01*
X545500D01*
X545485Y218101D01*
X545440Y218612D01*
X545365Y219063D01*
X545260Y219455D01*
X545125Y219788D01*
X544960Y220061D01*
X544765Y220275D01*
X544540Y220430D01*
X544285Y220525D01*
X544000Y220561D01*
X550000D01*
X549715Y220525D01*
D02*
G37*
G36*
X228810Y218035D02*
X228640Y217970D01*
X228490Y217865D01*
X228360Y217722D01*
X228250Y217538D01*
X228160Y217315D01*
X228090Y217053D01*
X228040Y216752D01*
X228010Y216411D01*
X228000Y216031D01*
X226000D01*
X225990Y216411D01*
X225960Y216752D01*
X225910Y217053D01*
X225840Y217315D01*
X225750Y217538D01*
X225640Y217722D01*
X225510Y217865D01*
X225360Y217970D01*
X225190Y218035D01*
X225000Y218061D01*
X229000D01*
X228810Y218035D01*
D02*
G37*
G36*
X228000Y215000D02*
X226000D01*
X225990Y215006D01*
X225960Y215012D01*
X225910Y215018D01*
X225640Y215037D01*
X225000Y215061D01*
X229000D01*
X228000Y215000D01*
D02*
G37*
G36*
X138071Y214257D02*
X138045Y214447D01*
X137980Y214617D01*
X137875Y214767D01*
X137732Y214897D01*
X137548Y215007D01*
X137325Y215097D01*
X137063Y215167D01*
X136762Y215217D01*
X136421Y215247D01*
X136040Y215257D01*
Y217257D01*
X136421Y217267D01*
X136762Y217297D01*
X137063Y217347D01*
X137325Y217417D01*
X137548Y217507D01*
X137732Y217617D01*
X137875Y217747D01*
X137980Y217897D01*
X138045Y218067D01*
X138071Y218257D01*
Y214257D01*
D02*
G37*
G36*
X268239Y216810D02*
X268300Y216640D01*
X268400Y216490D01*
X268540Y216360D01*
X268720Y216250D01*
X268939Y216160D01*
X269200Y216090D01*
X269499Y216040D01*
X269839Y216010D01*
X270219Y216000D01*
Y214000D01*
X269839Y213990D01*
X269499Y213960D01*
X269200Y213910D01*
X268939Y213840D01*
X268720Y213750D01*
X268540Y213640D01*
X268400Y213510D01*
X268300Y213360D01*
X268239Y213190D01*
X268220Y213000D01*
Y217000D01*
X268239Y216810D01*
D02*
G37*
G36*
X604269Y214305D02*
X604108Y214092D01*
X603965Y213861D01*
X603842Y213612D01*
X603737Y213344D01*
X603652Y213059D01*
X603586Y212756D01*
X603538Y212434D01*
X603509Y212095D01*
X603500Y211738D01*
X600500D01*
X600490Y212095D01*
X600462Y212434D01*
X600415Y212756D01*
X600348Y213059D01*
X600262Y213344D01*
X600158Y213612D01*
X600034Y213861D01*
X599892Y214092D01*
X599730Y214305D01*
X599550Y214501D01*
X604450D01*
X604269Y214305D01*
D02*
G37*
G36*
X439964Y211428D02*
X436755Y213928D01*
Y218928D01*
X439964Y220970D01*
Y211428D01*
D02*
G37*
G36*
X422660Y210704D02*
X418653Y210500D01*
X417829Y212500D01*
X418173Y212513D01*
X418478Y212554D01*
X418744Y212620D01*
X418971Y212714D01*
X419159Y212834D01*
X419308Y212981D01*
X419418Y213155D01*
X419489Y213356D01*
X419520Y213584D01*
X419513Y213838D01*
X422660Y210704D01*
D02*
G37*
G36*
X142010Y209288D02*
X140010D01*
X139010Y211288D01*
X143010D01*
X142010Y209288D01*
D02*
G37*
G36*
X68470Y213762D02*
X68550Y213550D01*
X68680Y213363D01*
X68858Y213200D01*
X69087Y213062D01*
X69365Y212950D01*
X69692Y212862D01*
X70068Y212800D01*
X70494Y212763D01*
X70970Y212750D01*
Y210250D01*
X70494Y210238D01*
X70068Y210200D01*
X69692Y210138D01*
X69365Y210050D01*
X69087Y209937D01*
X68858Y209800D01*
X68680Y209638D01*
X68550Y209450D01*
X68470Y209237D01*
X68439Y209000D01*
Y214000D01*
X68470Y213762D01*
D02*
G37*
G36*
X225593Y209299D02*
X225623Y208958D01*
X225673Y208657D01*
X225743Y208395D01*
X225833Y208172D01*
X225943Y207988D01*
X226073Y207845D01*
X226223Y207740D01*
X226393Y207675D01*
X226583Y207649D01*
X222583D01*
X222773Y207675D01*
X222943Y207740D01*
X223093Y207845D01*
X223223Y207988D01*
X223333Y208172D01*
X223423Y208395D01*
X223493Y208657D01*
X223543Y208958D01*
X223573Y209299D01*
X223583Y209680D01*
X225583D01*
X225593Y209299D01*
D02*
G37*
G36*
X92990Y210310D02*
X93049Y210140D01*
X93149Y209990D01*
X93289Y209860D01*
X93469Y209750D01*
X93689Y209660D01*
X93949Y209590D01*
X94249Y209540D01*
X94590Y209510D01*
X94970Y209500D01*
Y207500D01*
X94590Y207490D01*
X94249Y207460D01*
X93949Y207410D01*
X93689Y207340D01*
X93469Y207250D01*
X93289Y207140D01*
X93149Y207010D01*
X93049Y206860D01*
X92990Y206690D01*
X92970Y206500D01*
Y210500D01*
X92990Y210310D01*
D02*
G37*
G36*
X83061Y206000D02*
X83030Y206238D01*
X82950Y206450D01*
X82820Y206637D01*
X82641Y206800D01*
X82413Y206938D01*
X82135Y207050D01*
X81808Y207138D01*
X81432Y207200D01*
X81006Y207237D01*
X80531Y207250D01*
Y209750D01*
X81006Y209762D01*
X81432Y209800D01*
X81808Y209862D01*
X82135Y209950D01*
X82413Y210063D01*
X82641Y210200D01*
X82820Y210362D01*
X82950Y210550D01*
X83030Y210763D01*
X83061Y211000D01*
Y206000D01*
D02*
G37*
G36*
X225593Y206299D02*
X225623Y205958D01*
X225673Y205657D01*
X225743Y205395D01*
X225833Y205172D01*
X225943Y204988D01*
X226073Y204844D01*
X226223Y204740D01*
X226393Y204675D01*
X226583Y204649D01*
X222583D01*
X222773Y204675D01*
X222943Y204740D01*
X223093Y204844D01*
X223223Y204988D01*
X223333Y205172D01*
X223423Y205395D01*
X223493Y205657D01*
X223543Y205958D01*
X223573Y206299D01*
X223583Y206679D01*
X225583D01*
X225593Y206299D01*
D02*
G37*
G36*
X530500Y202281D02*
X525500D01*
X523280Y207281D01*
X532719D01*
X530500Y202281D01*
D02*
G37*
G36*
X413367Y201074D02*
X413202Y201025D01*
X412906Y200915D01*
X412775Y200855D01*
X412654Y200791D01*
X412545Y200724D01*
X412447Y200653D01*
X412360Y200579D01*
X412285Y200502D01*
X412220Y200420D01*
X410590Y201580D01*
X410646Y201667D01*
X410694Y201764D01*
X410736Y201871D01*
X410770Y201987D01*
X410798Y202112D01*
X410819Y202246D01*
X410832Y202390D01*
X410839Y202706D01*
X410831Y202878D01*
X413367Y201074D01*
D02*
G37*
G36*
X439964Y195000D02*
X435964Y197000D01*
Y201000D01*
X439964Y203000D01*
Y195000D01*
D02*
G37*
G36*
X186013Y197932D02*
X186074Y197762D01*
X186172Y197612D01*
X186306Y197481D01*
X186477Y197372D01*
X186684Y197281D01*
X186928Y197211D01*
X187208Y197162D01*
X187525Y197132D01*
X187878Y197122D01*
Y195122D01*
X187525Y195112D01*
X187208Y195082D01*
X186928Y195032D01*
X186684Y194962D01*
X186477Y194872D01*
X186306Y194762D01*
X186172Y194632D01*
X186074Y194482D01*
X186013Y194312D01*
X185989Y194122D01*
Y198121D01*
X186013Y197932D01*
D02*
G37*
G36*
X176611Y194122D02*
X176585Y194312D01*
X176520Y194482D01*
X176415Y194632D01*
X176271Y194762D01*
X176088Y194872D01*
X175865Y194962D01*
X175603Y195032D01*
X175302Y195082D01*
X174961Y195112D01*
X174580Y195122D01*
Y197122D01*
X174961Y197132D01*
X175302Y197162D01*
X175603Y197211D01*
X175865Y197281D01*
X176088Y197372D01*
X176271Y197481D01*
X176415Y197612D01*
X176520Y197762D01*
X176585Y197932D01*
X176611Y198121D01*
Y194122D01*
D02*
G37*
G36*
X414417Y193231D02*
X414223Y193377D01*
X413949Y193508D01*
X413596Y193623D01*
X413163Y193723D01*
X412650Y193808D01*
X411386Y193931D01*
X409803Y193992D01*
X408892Y194000D01*
Y196000D01*
X409803Y196008D01*
X412650Y196192D01*
X413163Y196277D01*
X413596Y196377D01*
X413949Y196492D01*
X414223Y196623D01*
X414417Y196769D01*
Y193231D01*
D02*
G37*
G36*
X153475Y193810D02*
X153540Y193640D01*
X153645Y193490D01*
X153788Y193360D01*
X153972Y193250D01*
X154195Y193160D01*
X154457Y193090D01*
X154758Y193040D01*
X155099Y193010D01*
X155479Y193000D01*
Y191000D01*
X155099Y190990D01*
X154758Y190960D01*
X154457Y190910D01*
X154195Y190840D01*
X153972Y190750D01*
X153788Y190640D01*
X153645Y190510D01*
X153540Y190360D01*
X153475Y190190D01*
X153449Y190000D01*
Y194000D01*
X153475Y193810D01*
D02*
G37*
G36*
X446808Y189030D02*
X441808D01*
X439964Y194030D01*
X448903D01*
X446808Y189030D01*
D02*
G37*
G36*
X565695Y192269D02*
X565908Y192108D01*
X566139Y191966D01*
X566389Y191842D01*
X566656Y191737D01*
X566941Y191652D01*
X567244Y191586D01*
X567566Y191538D01*
X567905Y191509D01*
X568262Y191500D01*
Y188500D01*
X567905Y188491D01*
X567566Y188462D01*
X567244Y188414D01*
X566941Y188348D01*
X566656Y188263D01*
X566389Y188158D01*
X566139Y188034D01*
X565908Y187892D01*
X565695Y187731D01*
X565499Y187550D01*
Y192450D01*
X565695Y192269D01*
D02*
G37*
G36*
X83061Y187000D02*
X83030Y187237D01*
X82950Y187450D01*
X82820Y187638D01*
X82641Y187800D01*
X82413Y187938D01*
X82135Y188050D01*
X81808Y188137D01*
X81432Y188200D01*
X81006Y188237D01*
X80531Y188250D01*
Y190750D01*
X81006Y190763D01*
X81432Y190800D01*
X81808Y190863D01*
X82135Y190950D01*
X82413Y191063D01*
X82641Y191200D01*
X82820Y191362D01*
X82950Y191550D01*
X83030Y191763D01*
X83061Y192000D01*
Y187000D01*
D02*
G37*
G36*
X151896Y185429D02*
X149896D01*
X148896Y187288D01*
X152896D01*
X151896Y185429D01*
D02*
G37*
G36*
X89810Y186535D02*
X89640Y186470D01*
X89490Y186365D01*
X89360Y186222D01*
X89250Y186038D01*
X89160Y185815D01*
X89090Y185553D01*
X89040Y185252D01*
X89010Y184911D01*
X89000Y184531D01*
X87000D01*
X86990Y184911D01*
X86960Y185252D01*
X86910Y185553D01*
X86840Y185815D01*
X86750Y186038D01*
X86640Y186222D01*
X86510Y186365D01*
X86360Y186470D01*
X86190Y186535D01*
X86000Y186561D01*
X90000D01*
X89810Y186535D01*
D02*
G37*
G36*
X68470Y188762D02*
X68550Y188550D01*
X68680Y188363D01*
X68858Y188200D01*
X69087Y188062D01*
X69365Y187950D01*
X69692Y187862D01*
X70068Y187800D01*
X70494Y187763D01*
X70970Y187750D01*
Y185250D01*
X70494Y185238D01*
X70068Y185200D01*
X69692Y185138D01*
X69365Y185050D01*
X69087Y184937D01*
X68858Y184800D01*
X68680Y184638D01*
X68550Y184450D01*
X68470Y184237D01*
X68439Y184000D01*
Y189000D01*
X68470Y188762D01*
D02*
G37*
G36*
X285564Y183150D02*
X285358Y182923D01*
X285174Y182678D01*
X285013Y182414D01*
X284873Y182131D01*
X284756Y181829D01*
X284660Y181508D01*
X284587Y181168D01*
X284536Y180809D01*
X284507Y180432D01*
X284500Y180035D01*
X281035Y183500D01*
X281432Y183507D01*
X281809Y183536D01*
X282168Y183587D01*
X282508Y183660D01*
X282829Y183756D01*
X283131Y183873D01*
X283414Y184013D01*
X283678Y184174D01*
X283923Y184358D01*
X284149Y184564D01*
X285564Y183150D01*
D02*
G37*
G36*
X273564Y183150D02*
X273358Y182923D01*
X273174Y182678D01*
X273013Y182414D01*
X272873Y182131D01*
X272756Y181829D01*
X272660Y181508D01*
X272587Y181168D01*
X272536Y180809D01*
X272507Y180432D01*
X272500Y180035D01*
X269035Y183500D01*
X269432Y183507D01*
X269809Y183536D01*
X270168Y183587D01*
X270508Y183660D01*
X270829Y183756D01*
X271131Y183873D01*
X271414Y184013D01*
X271678Y184174D01*
X271923Y184358D01*
X272150Y184564D01*
X273564Y183150D01*
D02*
G37*
G36*
X261564D02*
X261358Y182923D01*
X261174Y182678D01*
X261013Y182414D01*
X260873Y182131D01*
X260756Y181829D01*
X260660Y181508D01*
X260587Y181168D01*
X260536Y180809D01*
X260507Y180432D01*
X260500Y180035D01*
X257035Y183500D01*
X257432Y183507D01*
X257809Y183536D01*
X258168Y183587D01*
X258508Y183660D01*
X258829Y183756D01*
X259131Y183873D01*
X259414Y184013D01*
X259678Y184174D01*
X259923Y184358D01*
X260149Y184564D01*
X261564Y183150D01*
D02*
G37*
G36*
X249564D02*
X249358Y182923D01*
X249174Y182678D01*
X249013Y182414D01*
X248873Y182131D01*
X248756Y181829D01*
X248660Y181508D01*
X248587Y181168D01*
X248536Y180809D01*
X248507Y180432D01*
X248500Y180035D01*
X245035Y183500D01*
X245432Y183507D01*
X245809Y183536D01*
X246168Y183587D01*
X246508Y183660D01*
X246829Y183756D01*
X247131Y183873D01*
X247414Y184013D01*
X247678Y184174D01*
X247923Y184358D01*
X248150Y184564D01*
X249564Y183150D01*
D02*
G37*
G36*
X237564D02*
X237358Y182923D01*
X237174Y182678D01*
X237013Y182414D01*
X236873Y182131D01*
X236756Y181829D01*
X236660Y181508D01*
X236587Y181168D01*
X236536Y180809D01*
X236507Y180432D01*
X236500Y180035D01*
X233035Y183500D01*
X233432Y183507D01*
X233809Y183536D01*
X234168Y183587D01*
X234508Y183660D01*
X234829Y183756D01*
X235131Y183873D01*
X235414Y184013D01*
X235678Y184174D01*
X235923Y184358D01*
X236150Y184564D01*
X237564Y183150D01*
D02*
G37*
G36*
X157801Y179189D02*
X157831Y178879D01*
X157881Y178606D01*
X157951Y178368D01*
X158041Y178165D01*
X158151Y177999D01*
X158281Y177868D01*
X158431Y177773D01*
X158601Y177713D01*
X158791Y177689D01*
X155281Y177719D01*
X155378Y177738D01*
X155464Y177792D01*
X155541Y177883D01*
X155607Y178010D01*
X155663Y178173D01*
X155709Y178373D01*
X155745Y178608D01*
X155771Y178881D01*
X155791Y179534D01*
X157791D01*
X157801Y179189D01*
D02*
G37*
G36*
X182300Y177064D02*
X180300D01*
X179300Y179064D01*
X183300D01*
X182300Y177064D01*
D02*
G37*
G36*
X421260Y177858D02*
X421505Y177674D01*
X421769Y177513D01*
X422052Y177373D01*
X422354Y177256D01*
X422675Y177160D01*
X423015Y177087D01*
X423374Y177036D01*
X423752Y177007D01*
X424148Y177000D01*
X420683Y173535D01*
X420676Y173932D01*
X420647Y174309D01*
X420596Y174668D01*
X420523Y175008D01*
X420428Y175329D01*
X420310Y175631D01*
X420171Y175914D01*
X420009Y176178D01*
X419825Y176423D01*
X419619Y176649D01*
X421034Y178064D01*
X421260Y177858D01*
D02*
G37*
G36*
X531513Y177831D02*
X531555Y177681D01*
X531626Y177514D01*
X531726Y177332D01*
X531854Y177133D01*
X532012Y176919D01*
X532413Y176441D01*
X532930Y175898D01*
X530102Y173070D01*
X529823Y173343D01*
X529081Y173988D01*
X528867Y174146D01*
X528668Y174274D01*
X528486Y174374D01*
X528319Y174445D01*
X528169Y174487D01*
X528035Y174500D01*
X531500Y177965D01*
X531513Y177831D01*
D02*
G37*
G36*
X142281Y171000D02*
X140281Y172000D01*
Y174000D01*
X142281Y175000D01*
Y171000D01*
D02*
G37*
G36*
X632531Y166031D02*
X629530Y167500D01*
Y166031D01*
X626530Y167500D01*
Y170500D01*
X629530Y171970D01*
Y170500D01*
X632531Y171970D01*
Y166031D01*
D02*
G37*
G36*
X181990Y172929D02*
X181775Y172691D01*
X181594Y172441D01*
X181447Y172178D01*
X181333Y171903D01*
X181253Y171615D01*
X181206Y171315D01*
X181193Y171003D01*
X181214Y170678D01*
X181269Y170340D01*
X181357Y169990D01*
X177077Y172376D01*
X177487Y172495D01*
X178581Y172900D01*
X178900Y173050D01*
X179470Y173375D01*
X179720Y173549D01*
X179948Y173731D01*
X180153Y173920D01*
X181990Y172929D01*
D02*
G37*
G36*
X388148Y173560D02*
X388213Y173390D01*
X388318Y173240D01*
X388462Y173110D01*
X388645Y173000D01*
X388868Y172910D01*
X389130Y172840D01*
X389431Y172790D01*
X389772Y172760D01*
X390153Y172750D01*
Y170750D01*
X389772Y170740D01*
X389431Y170710D01*
X389130Y170660D01*
X388868Y170590D01*
X388645Y170500D01*
X388462Y170390D01*
X388318Y170260D01*
X388213Y170110D01*
X388148Y169940D01*
X388122Y169750D01*
Y173750D01*
X388148Y173560D01*
D02*
G37*
G36*
X439964Y172031D02*
X448903D01*
X447683Y165030D01*
X440683D01*
X439964Y172031D01*
X434964Y174321D01*
Y179321D01*
X439964Y181821D01*
Y172031D01*
D02*
G37*
G36*
X181507Y168568D02*
X181536Y168191D01*
X181587Y167832D01*
X181660Y167492D01*
X181756Y167171D01*
X181873Y166869D01*
X182013Y166586D01*
X182174Y166322D01*
X182358Y166077D01*
X182564Y165851D01*
X181150Y164436D01*
X180923Y164642D01*
X180678Y164826D01*
X180414Y164987D01*
X180131Y165127D01*
X179829Y165244D01*
X179508Y165340D01*
X179168Y165413D01*
X178809Y165464D01*
X178432Y165493D01*
X178035Y165500D01*
X181500Y168965D01*
X181507Y168568D01*
D02*
G37*
G36*
X403000Y164000D02*
X419000Y148000D01*
X505000D01*
X509000Y152000D01*
X518000Y161000D01*
X529000D01*
Y78000D01*
X526251D01*
Y63000D01*
X522251D01*
Y78000D01*
X519000D01*
Y117000D01*
X497000Y139000D01*
X430000D01*
X412000Y121000D01*
Y91000D01*
X362663D01*
Y94540D01*
X355163D01*
Y98540D01*
X362663D01*
Y102000D01*
X364181D01*
Y101945D01*
X378181D01*
Y110945D01*
X380181D01*
Y112945D01*
X396181D01*
Y119696D01*
X399000D01*
Y150000D01*
X382242Y150000D01*
Y164000D01*
X386683D01*
Y164000D01*
X386694Y164011D01*
X403000Y164000D01*
D02*
G37*
G36*
X186010Y160672D02*
X186040Y160331D01*
X186090Y160030D01*
X186160Y159767D01*
X186250Y159545D01*
X186360Y159361D01*
X186490Y159217D01*
X186640Y159113D01*
X186810Y159048D01*
X187000Y159022D01*
X183000D01*
X183190Y159048D01*
X183360Y159113D01*
X183510Y159217D01*
X183640Y159361D01*
X183750Y159545D01*
X183840Y159767D01*
X183910Y160030D01*
X183960Y160331D01*
X183990Y160672D01*
X184000Y161052D01*
X186000D01*
X186010Y160672D01*
D02*
G37*
G36*
X632561Y154000D02*
X632525Y154285D01*
X632430Y154540D01*
X632275Y154765D01*
X632061Y154960D01*
X631788Y155125D01*
X631455Y155260D01*
X631063Y155365D01*
X630612Y155440D01*
X630101Y155485D01*
X629553Y155499D01*
X629561Y154000D01*
X629525Y154285D01*
X629430Y154540D01*
X629275Y154765D01*
X629062Y154960D01*
X628788Y155125D01*
X628455Y155260D01*
X628063Y155365D01*
X627612Y155440D01*
X627101Y155485D01*
X626530Y155500D01*
Y158500D01*
X627100Y158510D01*
X628060Y158587D01*
X628451Y158655D01*
X628781Y158742D01*
X629050Y158849D01*
X629260Y158975D01*
X629411Y159121D01*
X629501Y159285D01*
X629530Y159469D01*
X629536Y158500D01*
X630101Y158510D01*
X631060Y158587D01*
X631451Y158655D01*
X631781Y158742D01*
X632051Y158849D01*
X632261Y158975D01*
X632411Y159121D01*
X632500Y159285D01*
X632531Y159469D01*
X632561Y154000D01*
D02*
G37*
G36*
X348685Y160800D02*
X348900Y160623D01*
X349139Y160447D01*
X349688Y160099D01*
X349998Y159927D01*
X351072Y159419D01*
X351477Y159252D01*
X346958Y157359D01*
X347077Y157682D01*
X347159Y157995D01*
X347204Y158300D01*
X347212Y158595D01*
X347182Y158880D01*
X347116Y159157D01*
X347011Y159424D01*
X346870Y159681D01*
X346692Y159929D01*
X346476Y160168D01*
X348494Y160979D01*
X348685Y160800D01*
D02*
G37*
G36*
X364235Y160731D02*
X364463Y160549D01*
X364713Y160375D01*
X364987Y160209D01*
X365283Y160050D01*
X365944Y159757D01*
X366309Y159622D01*
X367106Y159376D01*
X362826Y156990D01*
X362917Y157337D01*
X362980Y157666D01*
X363015Y157977D01*
X363022Y158270D01*
X363001Y158544D01*
X362952Y158801D01*
X362875Y159039D01*
X362770Y159260D01*
X362637Y159462D01*
X362476Y159646D01*
X364030Y160921D01*
X364235Y160731D01*
D02*
G37*
G36*
X580020Y159909D02*
X580080Y159228D01*
X580180Y158627D01*
X580320Y158105D01*
X580500Y157662D01*
X580720Y157298D01*
X580980Y157015D01*
X581280Y156810D01*
X581620Y156685D01*
X582000Y156639D01*
X574000D01*
X574380Y156685D01*
X574720Y156810D01*
X575020Y157015D01*
X575280Y157298D01*
X575500Y157662D01*
X575680Y158105D01*
X575820Y158627D01*
X575920Y159228D01*
X575980Y159909D01*
X576000Y160669D01*
X580000D01*
X580020Y159909D01*
D02*
G37*
G36*
X187651Y158810D02*
X187716Y158640D01*
X187821Y158490D01*
X187964Y158360D01*
X188148Y158250D01*
X188371Y158160D01*
X188633Y158090D01*
X188934Y158040D01*
X189275Y158010D01*
X189655Y158000D01*
Y156000D01*
X189275Y155990D01*
X188934Y155960D01*
X188633Y155910D01*
X188371Y155840D01*
X188148Y155750D01*
X187964Y155640D01*
X187821Y155510D01*
X187716Y155360D01*
X187651Y155190D01*
X187625Y155000D01*
Y159000D01*
X187651Y158810D01*
D02*
G37*
G36*
X207432Y154225D02*
X207462Y153909D01*
X207512Y153630D01*
X207582Y153389D01*
X207672Y153184D01*
X207782Y153017D01*
X207912Y152887D01*
X208062Y152794D01*
X208232Y152738D01*
X208422Y152719D01*
X204422D01*
X204612Y152738D01*
X204782Y152794D01*
X204932Y152887D01*
X205062Y153017D01*
X205172Y153184D01*
X205262Y153389D01*
X205332Y153630D01*
X205382Y153909D01*
X205412Y154225D01*
X205422Y154578D01*
X207422D01*
X207432Y154225D01*
D02*
G37*
G36*
X162747Y152083D02*
X162721Y152273D01*
X162656Y152443D01*
X162551Y152593D01*
X162407Y152723D01*
X162224Y152833D01*
X162001Y152923D01*
X161739Y152993D01*
X161438Y153043D01*
X161097Y153073D01*
X160716Y153083D01*
Y155083D01*
X161097Y155093D01*
X161438Y155123D01*
X161739Y155173D01*
X162001Y155243D01*
X162224Y155333D01*
X162407Y155443D01*
X162551Y155573D01*
X162656Y155723D01*
X162721Y155893D01*
X162747Y156083D01*
Y152083D01*
D02*
G37*
G36*
X376124Y147445D02*
X364681D01*
Y143943D01*
X364550Y143863D01*
X364265Y143747D01*
X363831Y143631D01*
X363255Y143535D01*
X362844Y143499D01*
X360877D01*
X360465Y143535D01*
X359889Y143631D01*
X359456Y143747D01*
X359171Y143863D01*
X359040Y143943D01*
Y147411D01*
X341040D01*
Y130411D01*
Y128032D01*
X340909Y127953D01*
X340624Y127837D01*
X340191Y127720D01*
X339615Y127624D01*
X339203Y127588D01*
X337039D01*
Y131000D01*
X336884Y131780D01*
X336442Y132442D01*
X335780Y132884D01*
X335000Y133039D01*
X334338D01*
Y134768D01*
X335611Y138000D01*
X336250D01*
Y139987D01*
X336259Y140030D01*
X336255Y140048D01*
X336258Y140066D01*
X336250Y140105D01*
Y149926D01*
X336259Y149970D01*
X336250Y150013D01*
Y152000D01*
X334496D01*
X334493Y152008D01*
X334419Y152273D01*
X334352Y152657D01*
X334338Y152807D01*
Y153615D01*
X334483Y153847D01*
X334690Y154135D01*
X336341Y156015D01*
X341346Y161020D01*
X341346Y161020D01*
X342009Y162013D01*
X342242Y163183D01*
X342625Y164222D01*
X344124Y163955D01*
Y160876D01*
X344124Y160875D01*
X344357Y159705D01*
X345020Y158713D01*
X345143Y158590D01*
X345160Y158560D01*
X345166Y158544D01*
X345168Y158534D01*
X345170Y158516D01*
X345169Y158476D01*
X345158Y158404D01*
X345130Y158295D01*
X345045Y158066D01*
X345019Y157906D01*
X344683Y157094D01*
Y154906D01*
X345521Y152885D01*
X347068Y151337D01*
X349089Y150500D01*
X351277D01*
X353299Y151337D01*
X354846Y152885D01*
X355683Y154906D01*
Y157094D01*
X354846Y159115D01*
X353299Y160663D01*
X352421Y161026D01*
X352252Y161138D01*
X351896Y161285D01*
X350930Y161742D01*
X350729Y161853D01*
X350292Y162131D01*
X350242Y162167D01*
Y164500D01*
X352183D01*
Y164500D01*
X358183D01*
Y164500D01*
X360125D01*
Y160353D01*
X360125Y160353D01*
X360357Y159182D01*
X360851Y158444D01*
X360900Y158352D01*
X360925Y158332D01*
X360941Y158303D01*
X360956Y158287D01*
X360979Y158253D01*
X360981Y158216D01*
X360979Y158116D01*
X360963Y157973D01*
X360927Y157788D01*
X360854Y157508D01*
X360854Y157506D01*
X360683Y157094D01*
Y154906D01*
X361521Y152885D01*
X363068Y151337D01*
X365089Y150500D01*
X367277D01*
X369299Y151337D01*
X370846Y152885D01*
X371683Y154906D01*
Y157094D01*
X370846Y159115D01*
X369299Y160663D01*
X367730Y161312D01*
X367708Y161325D01*
X367680Y161333D01*
X367277Y161500D01*
X367139D01*
X366964Y161554D01*
X366712Y161647D01*
X366242Y161856D01*
Y164000D01*
X370683D01*
Y164500D01*
X376124D01*
Y147445D01*
D02*
G37*
G36*
X335613Y158199D02*
X334974Y157549D01*
X333091Y155405D01*
X332788Y154983D01*
X332553Y154606D01*
X332385Y154275D01*
X332284Y153989D01*
X332250Y153749D01*
X332270Y153032D01*
X332329Y152389D01*
X332427Y151822D01*
X332565Y151330D01*
X332742Y150915D01*
X332959Y150574D01*
X333215Y150310D01*
X333511Y150121D01*
X333845Y150007D01*
X334220Y149970D01*
X325280D01*
X325655Y150007D01*
X325989Y150121D01*
X326285Y150310D01*
X326541Y150574D01*
X326758Y150915D01*
X326935Y151330D01*
X327073Y151822D01*
X327171Y152389D01*
X327230Y153032D01*
X327250Y153750D01*
X332248D01*
X329748Y156250D01*
X329989Y156284D01*
X330275Y156385D01*
X330606Y156553D01*
X330983Y156788D01*
X331405Y157091D01*
X332386Y157898D01*
X333549Y158974D01*
X334199Y159613D01*
X335613Y158199D01*
D02*
G37*
G36*
X141311Y147000D02*
X141285Y147190D01*
X141220Y147360D01*
X141115Y147510D01*
X140971Y147640D01*
X140788Y147750D01*
X140565Y147840D01*
X140303Y147910D01*
X140002Y147960D01*
X139661Y147990D01*
X139281Y148000D01*
Y150000D01*
X139661Y150010D01*
X140002Y150040D01*
X140303Y150090D01*
X140565Y150160D01*
X140788Y150250D01*
X140971Y150360D01*
X141115Y150490D01*
X141220Y150640D01*
X141285Y150810D01*
X141311Y151000D01*
Y147000D01*
D02*
G37*
G36*
X150708Y149810D02*
X150751Y149640D01*
X150820Y149490D01*
X150913Y149360D01*
X151032Y149250D01*
X151176Y149160D01*
X151344Y149090D01*
X151538Y149040D01*
X151756Y149010D01*
X152000Y149000D01*
Y147000D01*
X151756Y146990D01*
X151538Y146960D01*
X151344Y146910D01*
X151176Y146840D01*
X151032Y146750D01*
X150913Y146640D01*
X150820Y146510D01*
X150751Y146360D01*
X150708Y146190D01*
X150689Y146000D01*
Y150000D01*
X150708Y149810D01*
D02*
G37*
G36*
X632531Y141031D02*
X629530Y142500D01*
Y141031D01*
X626530Y142500D01*
Y145500D01*
X629530Y146969D01*
Y145500D01*
X632531Y146969D01*
Y141031D01*
D02*
G37*
G36*
X380193Y147035D02*
X380223Y146695D01*
X380273Y146395D01*
X380343Y146135D01*
X380433Y145915D01*
X380543Y145735D01*
X380673Y145595D01*
X380823Y145495D01*
X380993Y145435D01*
X381183Y145415D01*
X377183D01*
X377373Y145435D01*
X377543Y145495D01*
X377693Y145595D01*
X377823Y145735D01*
X377933Y145915D01*
X378023Y146135D01*
X378093Y146395D01*
X378143Y146695D01*
X378173Y147035D01*
X378183Y147415D01*
X380183D01*
X380193Y147035D01*
D02*
G37*
G36*
X366742Y133911D02*
X366686Y134386D01*
X366531Y134811D01*
X366276Y135186D01*
X365922Y135511D01*
X365469Y135786D01*
X364916Y136011D01*
X364264Y136186D01*
X363512Y136311D01*
X362662Y136386D01*
X361860Y136407D01*
X361059Y136386D01*
X360208Y136311D01*
X359457Y136186D01*
X358805Y136011D01*
X358252Y135786D01*
X357799Y135511D01*
X357445Y135186D01*
X357190Y134811D01*
X357035Y134386D01*
X356979Y133911D01*
Y143911D01*
X357035Y143436D01*
X357190Y143011D01*
X357445Y142636D01*
X357799Y142311D01*
X358252Y142036D01*
X358805Y141811D01*
X359457Y141636D01*
X360208Y141511D01*
X361059Y141436D01*
X361860Y141415D01*
X362662Y141436D01*
X363512Y141511D01*
X364264Y141636D01*
X364916Y141811D01*
X365469Y142036D01*
X365922Y142311D01*
X366276Y142636D01*
X366531Y143011D01*
X366686Y143436D01*
X366742Y143911D01*
Y133911D01*
D02*
G37*
G36*
X275000Y158326D02*
X255233Y138559D01*
X215000D01*
Y147000D01*
Y156000D01*
Y166000D01*
X216110Y166941D01*
X275000D01*
Y158326D01*
D02*
G37*
G36*
X553061Y138500D02*
X553035Y138690D01*
X552970Y138860D01*
X552865Y139010D01*
X552721Y139140D01*
X552538Y139250D01*
X552315Y139340D01*
X552053Y139410D01*
X551752Y139460D01*
X551411Y139490D01*
X551031Y139500D01*
Y141500D01*
X551411Y141510D01*
X551752Y141540D01*
X552053Y141590D01*
X552315Y141660D01*
X552538Y141750D01*
X552721Y141860D01*
X552865Y141990D01*
X552970Y142140D01*
X553035Y142310D01*
X553061Y142500D01*
Y138500D01*
D02*
G37*
G36*
X543715Y142310D02*
X543780Y142140D01*
X543885Y141990D01*
X544029Y141860D01*
X544212Y141750D01*
X544435Y141660D01*
X544697Y141590D01*
X544998Y141540D01*
X545339Y141510D01*
X545720Y141500D01*
Y139500D01*
X545339Y139490D01*
X544998Y139460D01*
X544697Y139410D01*
X544435Y139340D01*
X544212Y139250D01*
X544029Y139140D01*
X543885Y139010D01*
X543780Y138860D01*
X543715Y138690D01*
X543689Y138500D01*
Y142500D01*
X543715Y142310D01*
D02*
G37*
G36*
X332250Y135030D02*
X327250D01*
X325280Y140030D01*
X334220D01*
X332250Y135030D01*
D02*
G37*
G36*
X150715Y137810D02*
X150780Y137640D01*
X150885Y137490D01*
X151028Y137360D01*
X151212Y137250D01*
X151435Y137160D01*
X151697Y137090D01*
X151998Y137040D01*
X152339Y137010D01*
X152719Y137000D01*
Y135000D01*
X152339Y134990D01*
X151998Y134960D01*
X151697Y134910D01*
X151435Y134840D01*
X151212Y134750D01*
X151028Y134640D01*
X150885Y134510D01*
X150780Y134360D01*
X150715Y134190D01*
X150689Y134000D01*
Y138000D01*
X150715Y137810D01*
D02*
G37*
G36*
X559810Y135785D02*
X559640Y135720D01*
X559490Y135615D01*
X559360Y135471D01*
X559250Y135288D01*
X559160Y135065D01*
X559090Y134803D01*
X559040Y134502D01*
X559010Y134161D01*
X559000Y133780D01*
X557000D01*
X556990Y134161D01*
X556960Y134502D01*
X556910Y134803D01*
X556840Y135065D01*
X556750Y135288D01*
X556640Y135471D01*
X556510Y135615D01*
X556360Y135720D01*
X556190Y135785D01*
X556000Y135811D01*
X560000D01*
X559810Y135785D01*
D02*
G37*
G36*
X211715Y137310D02*
X211780Y137140D01*
X211885Y136990D01*
X212029Y136860D01*
X212212Y136750D01*
X212435Y136660D01*
X212697Y136590D01*
X212998Y136540D01*
X213339Y136510D01*
X213720Y136500D01*
Y134500D01*
X213339Y134490D01*
X212998Y134460D01*
X212697Y134410D01*
X212435Y134340D01*
X212212Y134250D01*
X212029Y134140D01*
X211885Y134010D01*
X211780Y133860D01*
X211715Y133690D01*
X211689Y133500D01*
Y137500D01*
X211715Y137310D01*
D02*
G37*
G36*
X202311Y133500D02*
X202285Y133690D01*
X202220Y133860D01*
X202115Y134010D01*
X201971Y134140D01*
X201788Y134250D01*
X201565Y134340D01*
X201303Y134410D01*
X201002Y134460D01*
X200661Y134490D01*
X200280Y134500D01*
Y136500D01*
X200661Y136510D01*
X201002Y136540D01*
X201303Y136590D01*
X201565Y136660D01*
X201788Y136750D01*
X201971Y136860D01*
X202115Y136990D01*
X202220Y137140D01*
X202285Y137310D01*
X202311Y137500D01*
Y133500D01*
D02*
G37*
G36*
X178151Y131893D02*
X178216Y131723D01*
X178321Y131573D01*
X178465Y131443D01*
X178648Y131333D01*
X178871Y131243D01*
X179133Y131173D01*
X179434Y131123D01*
X179775Y131093D01*
X180156Y131083D01*
Y129083D01*
X179775Y129073D01*
X179434Y129043D01*
X179133Y128993D01*
X178871Y128923D01*
X178648Y128833D01*
X178465Y128723D01*
X178321Y128593D01*
X178216Y128443D01*
X178151Y128273D01*
X178125Y128083D01*
Y132083D01*
X178151Y131893D01*
D02*
G37*
G36*
X172247Y128083D02*
X172221Y128273D01*
X172156Y128443D01*
X172051Y128593D01*
X171908Y128723D01*
X171724Y128833D01*
X171501Y128923D01*
X171239Y128993D01*
X170938Y129043D01*
X170597Y129073D01*
X170217Y129083D01*
Y131083D01*
X170597Y131093D01*
X170938Y131123D01*
X171239Y131173D01*
X171501Y131243D01*
X171724Y131333D01*
X171908Y131443D01*
X172051Y131573D01*
X172156Y131723D01*
X172221Y131893D01*
X172247Y132083D01*
Y128083D01*
D02*
G37*
G36*
X438094Y131687D02*
X438680Y130974D01*
X438856Y130800D01*
X439023Y130657D01*
X439181Y130546D01*
X439328Y130467D01*
X439467Y130420D01*
X439596Y130404D01*
Y128404D01*
X439422Y128391D01*
X439230Y128354D01*
X439021Y128292D01*
X438793Y128205D01*
X438547Y128093D01*
X438000Y127794D01*
X437700Y127608D01*
X437046Y127160D01*
X437880Y131988D01*
X438094Y131687D01*
D02*
G37*
G36*
X559077Y128358D02*
X559322Y128174D01*
X559586Y128013D01*
X559869Y127873D01*
X560171Y127756D01*
X560492Y127660D01*
X560832Y127587D01*
X561191Y127536D01*
X561568Y127507D01*
X561965Y127500D01*
X558500Y124035D01*
X558493Y124432D01*
X558464Y124809D01*
X558413Y125168D01*
X558340Y125508D01*
X558244Y125829D01*
X558127Y126131D01*
X557987Y126414D01*
X557826Y126678D01*
X557642Y126923D01*
X557436Y127149D01*
X558851Y128564D01*
X559077Y128358D01*
D02*
G37*
G36*
X564174Y121215D02*
X563928Y120927D01*
X563711Y120638D01*
X563522Y120346D01*
X563363Y120051D01*
X563232Y119755D01*
X563130Y119456D01*
X563058Y119155D01*
X563014Y118851D01*
X563000Y118546D01*
X561000D01*
X560985Y118851D01*
X560942Y119155D01*
X560869Y119456D01*
X560768Y119755D01*
X560638Y120051D01*
X560478Y120346D01*
X560289Y120638D01*
X560072Y120927D01*
X559826Y121215D01*
X559550Y121501D01*
X564450D01*
X564174Y121215D01*
D02*
G37*
G36*
X343101Y118000D02*
X343045Y118475D01*
X342890Y118900D01*
X342635Y119275D01*
X342281Y119600D01*
X341828Y119875D01*
X341275Y120100D01*
X340623Y120275D01*
X339872Y120400D01*
X339021Y120475D01*
X338070Y120500D01*
Y125500D01*
X339021Y125525D01*
X339872Y125600D01*
X340623Y125725D01*
X341275Y125900D01*
X341828Y126125D01*
X342281Y126400D01*
X342635Y126725D01*
X342890Y127100D01*
X343045Y127525D01*
X343101Y128000D01*
Y118000D01*
D02*
G37*
G36*
X563010Y116439D02*
X563040Y116098D01*
X563090Y115797D01*
X563160Y115535D01*
X563250Y115312D01*
X563360Y115129D01*
X563490Y114985D01*
X563640Y114880D01*
X563810Y114815D01*
X564000Y114789D01*
X560000D01*
X560190Y114815D01*
X560360Y114880D01*
X560510Y114985D01*
X560640Y115129D01*
X560750Y115312D01*
X560840Y115535D01*
X560910Y115797D01*
X560960Y116098D01*
X560990Y116439D01*
X561000Y116820D01*
X563000D01*
X563010Y116439D01*
D02*
G37*
G36*
X363255Y134286D02*
X363831Y134191D01*
X364265Y134074D01*
X364550Y133958D01*
X364681Y133879D01*
Y130445D01*
X395681D01*
Y130445D01*
X396961Y129915D01*
Y121736D01*
X396181D01*
X395400Y121580D01*
X394739Y121138D01*
X394297Y120477D01*
X394142Y119696D01*
Y119445D01*
X364681D01*
Y105469D01*
X364479Y104892D01*
X364000Y104039D01*
X356000D01*
X355220Y103884D01*
X354705Y103540D01*
X351360D01*
X351163Y103579D01*
X342663D01*
Y104040D01*
X337900D01*
X337528Y104472D01*
X336948Y105540D01*
X337039Y106000D01*
Y118412D01*
X339203D01*
X339615Y118376D01*
X340191Y118280D01*
X340624Y118163D01*
X340909Y118047D01*
X341040Y117968D01*
Y114411D01*
X359040D01*
Y130411D01*
Y133879D01*
X359171Y133958D01*
X359456Y134074D01*
X359889Y134191D01*
X360465Y134286D01*
X360877Y134323D01*
X362844D01*
X363255Y134286D01*
D02*
G37*
G36*
X454435Y115222D02*
X454465Y114905D01*
X454515Y114625D01*
X454585Y114381D01*
X454675Y114173D01*
X454785Y114003D01*
X454915Y113869D01*
X455065Y113771D01*
X455235Y113710D01*
X455425Y113686D01*
X451425D01*
X451615Y113710D01*
X451785Y113771D01*
X451935Y113869D01*
X452065Y114003D01*
X452175Y114173D01*
X452265Y114381D01*
X452335Y114625D01*
X452385Y114905D01*
X452415Y115222D01*
X452425Y115575D01*
X454425D01*
X454435Y115222D01*
D02*
G37*
G36*
X429823Y106730D02*
X424823Y107200D01*
Y112200D01*
X429823Y112669D01*
Y106730D01*
D02*
G37*
G36*
X335000Y106000D02*
X313000D01*
Y120000D01*
Y125000D01*
Y131000D01*
X335000D01*
Y106000D01*
D02*
G37*
G36*
X549661Y105385D02*
X549491Y105320D01*
X549341Y105215D01*
X549211Y105071D01*
X549101Y104888D01*
X549011Y104665D01*
X548941Y104403D01*
X548891Y104102D01*
X548861Y103761D01*
X548851Y103380D01*
X546851D01*
X546841Y103761D01*
X546811Y104102D01*
X546761Y104403D01*
X546691Y104665D01*
X546601Y104888D01*
X546491Y105071D01*
X546361Y105215D01*
X546211Y105320D01*
X546041Y105385D01*
X545851Y105411D01*
X549851D01*
X549661Y105385D01*
D02*
G37*
G36*
X548861Y98649D02*
X548891Y98308D01*
X548941Y98007D01*
X549011Y97745D01*
X549101Y97522D01*
X549211Y97338D01*
X549341Y97195D01*
X549491Y97090D01*
X549661Y97025D01*
X549851Y96999D01*
X545851D01*
X546041Y97025D01*
X546211Y97090D01*
X546361Y97195D01*
X546491Y97338D01*
X546601Y97522D01*
X546691Y97745D01*
X546761Y98007D01*
X546811Y98308D01*
X546841Y98649D01*
X546851Y99030D01*
X548851D01*
X548861Y98649D01*
D02*
G37*
G36*
X467351Y94497D02*
X467325Y94687D01*
X467260Y94857D01*
X467155Y95007D01*
X467011Y95137D01*
X466828Y95247D01*
X466605Y95337D01*
X466343Y95407D01*
X466042Y95457D01*
X465701Y95487D01*
X465321Y95497D01*
Y97497D01*
X465701Y97507D01*
X466042Y97537D01*
X466343Y97587D01*
X466605Y97657D01*
X466828Y97747D01*
X467011Y97857D01*
X467155Y97987D01*
X467260Y98137D01*
X467325Y98307D01*
X467351Y98497D01*
Y94497D01*
D02*
G37*
G36*
X458715Y98307D02*
X458780Y98137D01*
X458885Y97987D01*
X459029Y97857D01*
X459212Y97747D01*
X459435Y97657D01*
X459697Y97587D01*
X459998Y97537D01*
X460339Y97507D01*
X460719Y97497D01*
Y95497D01*
X460339Y95487D01*
X459998Y95457D01*
X459697Y95407D01*
X459435Y95337D01*
X459212Y95247D01*
X459029Y95137D01*
X458885Y95007D01*
X458780Y94857D01*
X458715Y94687D01*
X458689Y94497D01*
Y98497D01*
X458715Y98307D01*
D02*
G37*
G36*
X476755Y95060D02*
X476820Y94890D01*
X476925Y94740D01*
X477068Y94610D01*
X477252Y94500D01*
X477475Y94410D01*
X477737Y94340D01*
X478038Y94290D01*
X478379Y94260D01*
X478759Y94250D01*
Y92250D01*
X476759Y92281D01*
X476729Y95250D01*
X476755Y95060D01*
D02*
G37*
G36*
X490391Y91250D02*
X490365Y91440D01*
X490300Y91610D01*
X490196Y91760D01*
X490051Y91890D01*
X489868Y92000D01*
X489645Y92090D01*
X489383Y92160D01*
X489082Y92210D01*
X488741Y92240D01*
X488360Y92250D01*
Y94250D01*
X488741Y94260D01*
X489082Y94290D01*
X489383Y94340D01*
X489645Y94410D01*
X489868Y94500D01*
X490051Y94610D01*
X490196Y94740D01*
X490300Y94890D01*
X490365Y95060D01*
X490391Y95250D01*
Y91250D01*
D02*
G37*
G36*
X549042Y87097D02*
X548872Y87036D01*
X548722Y86938D01*
X548592Y86804D01*
X548482Y86633D01*
X548392Y86426D01*
X548322Y86182D01*
X548272Y85902D01*
X548242Y85585D01*
X548232Y85232D01*
X546232D01*
X546222Y85585D01*
X546192Y85902D01*
X546142Y86182D01*
X546072Y86426D01*
X545982Y86633D01*
X545872Y86804D01*
X545742Y86938D01*
X545592Y87036D01*
X545422Y87097D01*
X545232Y87121D01*
X549232D01*
X549042Y87097D01*
D02*
G37*
G36*
X513338Y88414D02*
X513496Y85971D01*
X514330D01*
X514140Y85946D01*
X513970Y85880D01*
X513820Y85776D01*
X513690Y85632D01*
X513580Y85448D01*
X513553Y85381D01*
X513607Y85054D01*
X513707Y84621D01*
X513822Y84268D01*
X513953Y83994D01*
X514099Y83800D01*
X510561D01*
X510707Y83994D01*
X510838Y84268D01*
X510953Y84621D01*
X511053Y85054D01*
X511107Y85381D01*
X511080Y85448D01*
X510970Y85632D01*
X510840Y85776D01*
X510690Y85880D01*
X510520Y85946D01*
X510330Y85971D01*
X511177D01*
X511261Y86831D01*
X511322Y88414D01*
X511330Y89325D01*
X513330D01*
X513338Y88414D01*
D02*
G37*
G36*
X545113Y81699D02*
X544475Y81049D01*
X542592Y78906D01*
X542289Y78483D01*
X542054Y78106D01*
X541885Y77775D01*
X541784Y77489D01*
X541751Y77249D01*
X541763Y76912D01*
X541799Y76609D01*
X541860Y76342D01*
X541946Y76111D01*
X542056Y75915D01*
X542190Y75754D01*
X542348Y75630D01*
X542531Y75541D01*
X542738Y75487D01*
X542970Y75469D01*
X535531D01*
X535763Y75487D01*
X535970Y75541D01*
X536153Y75630D01*
X536312Y75754D01*
X536446Y75915D01*
X536555Y76111D01*
X536641Y76342D01*
X536702Y76609D01*
X536738Y76912D01*
X536751Y77251D01*
X541749D01*
X539249Y79751D01*
X539489Y79784D01*
X539775Y79885D01*
X540107Y80054D01*
X540483Y80289D01*
X540906Y80592D01*
X541887Y81399D01*
X543050Y82475D01*
X543699Y83113D01*
X545113Y81699D01*
D02*
G37*
G36*
X511763Y78292D02*
X511860Y77177D01*
X511946Y76724D01*
X512056Y76341D01*
X512190Y76027D01*
X512348Y75783D01*
X512531Y75609D01*
X512738Y75504D01*
X512970Y75469D01*
X505531D01*
X505763Y75504D01*
X505970Y75609D01*
X506153Y75783D01*
X506312Y76027D01*
X506446Y76341D01*
X506555Y76724D01*
X506641Y77177D01*
X506702Y77700D01*
X506738Y78292D01*
X506751Y78954D01*
X511751D01*
X511763Y78292D01*
D02*
G37*
%LPC*%
G36*
X419000Y331562D02*
X413750D01*
Y326813D01*
X419000D01*
Y327344D01*
X418990Y327723D01*
X418960Y328064D01*
X418910Y328366D01*
X418840Y328628D01*
X418750Y328851D01*
X418640Y329034D01*
X418510Y329178D01*
X418360Y329282D01*
X418190Y329348D01*
X418000Y329373D01*
X419000D01*
Y331562D01*
D02*
G37*
G36*
X404750Y320080D02*
X402189D01*
Y320080D01*
Y320080D01*
X399750D01*
Y314580D01*
X404750D01*
Y320080D01*
D02*
G37*
G36*
X399750Y311540D02*
Y306040D01*
X402189D01*
Y306040D01*
Y306040D01*
X404750D01*
Y311540D01*
X399750D01*
D02*
G37*
G36*
X404750Y302040D02*
X399750D01*
Y296540D01*
X404750D01*
Y302040D01*
D02*
G37*
G36*
X404933Y293500D02*
X399933D01*
Y288000D01*
X402372D01*
Y288000D01*
Y288000D01*
X404933D01*
Y293500D01*
D02*
G37*
G36*
X451250Y331562D02*
X446000D01*
Y329373D01*
X447000D01*
X446810Y329348D01*
X446640Y329282D01*
X446490Y329178D01*
X446360Y329034D01*
X446250Y328851D01*
X446160Y328628D01*
X446090Y328366D01*
X446040Y328064D01*
X446010Y327723D01*
X446000Y327343D01*
X446000D01*
Y326813D01*
X451250D01*
Y331562D01*
D02*
G37*
G36*
X463000Y331312D02*
X457500D01*
Y326312D01*
X463000D01*
Y328873D01*
D01*
D01*
Y331312D01*
D02*
G37*
G36*
X396181Y108945D02*
X382181D01*
Y101945D01*
X396181D01*
Y108945D01*
D02*
G37*
%LPD*%
G36*
X131332Y246780D02*
X131296Y247065D01*
X131201Y247320D01*
X131046Y247545D01*
X130832Y247740D01*
X130559Y247905D01*
X130226Y248040D01*
X129834Y248145D01*
X129382Y248220D01*
X128871Y248265D01*
X128301Y248280D01*
Y251280D01*
X128871Y251295D01*
X129382Y251340D01*
X129834Y251415D01*
X130226Y251520D01*
X130559Y251655D01*
X130832Y251820D01*
X131046Y252015D01*
X131201Y252240D01*
X131296Y252495D01*
X131332Y252780D01*
Y246780D01*
D02*
G37*
G36*
X115520Y252470D02*
X115610Y252220D01*
X115760Y252000D01*
X115970Y251809D01*
X116240Y251647D01*
X116570Y251515D01*
X116960Y251412D01*
X117410Y251339D01*
X117920Y251295D01*
X118490Y251280D01*
Y248280D01*
X117920Y248265D01*
X117410Y248220D01*
X116960Y248145D01*
X116570Y248040D01*
X116240Y247905D01*
X115970Y247740D01*
X115760Y247545D01*
X115610Y247320D01*
X115520Y247065D01*
X115490Y246780D01*
Y252750D01*
X115520Y252470D01*
D02*
G37*
G36*
X168500Y245550D02*
X168305Y245730D01*
X168092Y245892D01*
X167861Y246035D01*
X167612Y246158D01*
X167344Y246262D01*
X167059Y246348D01*
X166756Y246415D01*
X166434Y246462D01*
X166095Y246490D01*
X165738Y246500D01*
Y249500D01*
X166095Y249510D01*
X166434Y249538D01*
X166756Y249585D01*
X167059Y249652D01*
X167344Y249737D01*
X167612Y249842D01*
X167861Y249965D01*
X168092Y250108D01*
X168305Y250270D01*
X168500Y250450D01*
Y245550D01*
D02*
G37*
G36*
X152770Y250715D02*
X152860Y250460D01*
X153010Y250235D01*
X153220Y250040D01*
X153490Y249875D01*
X153820Y249740D01*
X154210Y249635D01*
X154660Y249560D01*
X155170Y249515D01*
X155740Y249500D01*
Y246500D01*
X155170Y246485D01*
X154660Y246440D01*
X154210Y246365D01*
X153820Y246260D01*
X153490Y246125D01*
X153220Y245960D01*
X153010Y245765D01*
X152860Y245540D01*
X152770Y245285D01*
X152740Y245000D01*
Y251000D01*
X152770Y250715D01*
D02*
G37*
G36*
X99236Y302805D02*
X98981Y302710D01*
X98756Y302556D01*
X98561Y302341D01*
X98396Y302068D01*
X98261Y301735D01*
X98156Y301343D01*
X98081Y300892D01*
X98036Y300381D01*
X98021Y299811D01*
X95021D01*
X95006Y300381D01*
X94961Y300892D01*
X94886Y301343D01*
X94781Y301735D01*
X94646Y302068D01*
X94481Y302341D01*
X94286Y302556D01*
X94061Y302710D01*
X93806Y302805D01*
X93521Y302841D01*
X99521D01*
X99236Y302805D01*
D02*
G37*
G36*
X98036Y284179D02*
X98081Y283668D01*
X98156Y283217D01*
X98261Y282825D01*
X98396Y282492D01*
X98561Y282219D01*
X98756Y282005D01*
X98981Y281850D01*
X99236Y281755D01*
X99521Y281719D01*
X93521D01*
X93806Y281755D01*
X94061Y281850D01*
X94286Y282005D01*
X94481Y282219D01*
X94646Y282492D01*
X94781Y282825D01*
X94886Y283217D01*
X94961Y283668D01*
X95006Y284179D01*
X95021Y284750D01*
X98021D01*
X98036Y284179D01*
D02*
G37*
G36*
X99236Y273805D02*
X98981Y273710D01*
X98756Y273556D01*
X98561Y273342D01*
X98396Y273068D01*
X98261Y272735D01*
X98156Y272343D01*
X98081Y271892D01*
X98036Y271381D01*
X98021Y270811D01*
X95021D01*
X95006Y271381D01*
X94961Y271892D01*
X94886Y272343D01*
X94781Y272735D01*
X94646Y273068D01*
X94481Y273342D01*
X94286Y273556D01*
X94061Y273710D01*
X93806Y273805D01*
X93521Y273841D01*
X99521D01*
X99236Y273805D01*
D02*
G37*
G36*
X98036Y256179D02*
X98081Y255668D01*
X98156Y255217D01*
X98261Y254825D01*
X98396Y254492D01*
X98561Y254219D01*
X98756Y254005D01*
X98981Y253850D01*
X99236Y253755D01*
X99521Y253719D01*
X98303D01*
X98396Y253492D01*
X98561Y253219D01*
X98756Y253005D01*
X98981Y252850D01*
X99236Y252755D01*
X99521Y252719D01*
X93521D01*
X93806Y252755D01*
X94061Y252850D01*
X94286Y253005D01*
X94481Y253219D01*
X94646Y253492D01*
X94738Y253719D01*
X93521D01*
X93806Y253755D01*
X94061Y253850D01*
X94286Y254005D01*
X94481Y254219D01*
X94646Y254492D01*
X94781Y254825D01*
X94886Y255217D01*
X94961Y255668D01*
X95006Y256179D01*
X95021Y256749D01*
X98021D01*
X98036Y256179D01*
D02*
G37*
G36*
X97810Y244815D02*
X97640Y244750D01*
X97490Y244646D01*
X97360Y244501D01*
X97250Y244318D01*
X97160Y244095D01*
X97090Y243833D01*
X97040Y243532D01*
X97010Y243191D01*
X97000Y242810D01*
X95000D01*
X94990Y243191D01*
X94960Y243532D01*
X94910Y243833D01*
X94840Y244095D01*
X94750Y244318D01*
X94640Y244501D01*
X94510Y244646D01*
X94360Y244750D01*
X94190Y244815D01*
X94000Y244841D01*
X98000D01*
X97810Y244815D01*
D02*
G37*
G36*
X97015Y237149D02*
X97058Y236845D01*
X97130Y236544D01*
X97232Y236245D01*
X97362Y235949D01*
X97522Y235654D01*
X97711Y235362D01*
X97928Y235072D01*
X98174Y234785D01*
X98450Y234499D01*
X93550D01*
X93826Y234785D01*
X94072Y235072D01*
X94290Y235362D01*
X94478Y235654D01*
X94637Y235949D01*
X94768Y236245D01*
X94869Y236544D01*
X94942Y236845D01*
X94986Y237149D01*
X95000Y237454D01*
X97000D01*
X97015Y237149D01*
D02*
G37*
G36*
X162174Y227215D02*
X161928Y226928D01*
X161710Y226638D01*
X161522Y226346D01*
X161362Y226051D01*
X161232Y225755D01*
X161131Y225456D01*
X161058Y225155D01*
X161014Y224851D01*
X161000Y224546D01*
X159000D01*
X158986Y224851D01*
X158942Y225155D01*
X158869Y225456D01*
X158768Y225755D01*
X158638Y226051D01*
X158478Y226346D01*
X158289Y226638D01*
X158072Y226928D01*
X157825Y227215D01*
X157550Y227500D01*
X162450D01*
X162174Y227215D01*
D02*
G37*
G36*
X161010Y222847D02*
X161040Y222506D01*
X161090Y222204D01*
X161160Y221942D01*
X161250Y221719D01*
X161360Y221536D01*
X161490Y221392D01*
X161640Y221287D01*
X161810Y221222D01*
X162000Y221196D01*
X158000D01*
X158190Y221222D01*
X158360Y221287D01*
X158510Y221392D01*
X158640Y221536D01*
X158750Y221719D01*
X158840Y221942D01*
X158910Y222204D01*
X158960Y222506D01*
X158990Y222847D01*
X159000Y223227D01*
X161000D01*
X161010Y222847D01*
D02*
G37*
G36*
X581620Y137315D02*
X581280Y137190D01*
X580980Y136985D01*
X580720Y136701D01*
X580500Y136338D01*
X580320Y135895D01*
X580180Y135373D01*
X580080Y134772D01*
X580020Y134091D01*
X580000Y133330D01*
X576000D01*
X575980Y134091D01*
X575920Y134772D01*
X575820Y135373D01*
X575680Y135895D01*
X575500Y136338D01*
X575280Y136701D01*
X575020Y136985D01*
X574720Y137190D01*
X574380Y137315D01*
X574000Y137361D01*
X582000D01*
X581620Y137315D01*
D02*
G37*
G36*
X580005Y128582D02*
X580072Y127601D01*
X580112Y127338D01*
X580162Y127107D01*
X580220Y126907D01*
X580288Y126740D01*
X580364Y126604D01*
X580450Y126500D01*
X575550D01*
X575635Y126604D01*
X575712Y126740D01*
X575779Y126907D01*
X575838Y127107D01*
X575887Y127338D01*
X575928Y127601D01*
X575982Y128223D01*
X576000Y128972D01*
X580000D01*
X580005Y128582D01*
D02*
G37*
G36*
X632531Y116031D02*
X629530Y117500D01*
Y116031D01*
X626530Y117500D01*
Y120500D01*
X629530Y121969D01*
Y120500D01*
X632531Y121969D01*
Y116031D01*
D02*
G37*
G36*
X581510Y123699D02*
X581547Y123434D01*
X581610Y123170D01*
X581699Y122907D01*
X581814Y122644D01*
X581955Y122381D01*
X582122Y122120D01*
X582316Y121859D01*
X582536Y121599D01*
X582782Y121340D01*
X580660Y119218D01*
X580401Y119464D01*
X580141Y119684D01*
X579880Y119878D01*
X579619Y120045D01*
X579356Y120186D01*
X579094Y120302D01*
X578830Y120390D01*
X578566Y120453D01*
X578301Y120490D01*
X578035Y120500D01*
X581500Y123965D01*
X581510Y123699D01*
D02*
G37*
G36*
X439275Y93305D02*
X438850Y93150D01*
X438475Y92895D01*
X438150Y92541D01*
X437875Y92088D01*
X437650Y91535D01*
X437475Y90883D01*
X437350Y90132D01*
X437275Y89281D01*
X437250Y88330D01*
X432250D01*
X432226Y89281D01*
X432153Y90131D01*
X432032Y90880D01*
X431862Y91531D01*
X431643Y92080D01*
X431376Y92530D01*
X431061Y92880D01*
X430697Y93131D01*
X430284Y93280D01*
X429823Y93330D01*
X439750Y93361D01*
X439275Y93305D01*
D02*
G37*
G36*
X437275Y86769D02*
X437350Y85918D01*
X437475Y85167D01*
X437650Y84515D01*
X437875Y83962D01*
X438150Y83509D01*
X438475Y83155D01*
X438850Y82900D01*
X439275Y82745D01*
X439750Y82689D01*
X429750D01*
X430225Y82745D01*
X430650Y82900D01*
X431025Y83155D01*
X431350Y83509D01*
X431625Y83962D01*
X431850Y84515D01*
X432025Y85167D01*
X432150Y85918D01*
X432225Y86769D01*
X432250Y87719D01*
X437250D01*
X437275Y86769D01*
D02*
G37*
G36*
X440495Y80525D02*
X440650Y80100D01*
X440905Y79725D01*
X441259Y79400D01*
X441712Y79125D01*
X442265Y78900D01*
X442917Y78725D01*
X443668Y78600D01*
X444519Y78525D01*
X445470Y78500D01*
Y73500D01*
X444519Y73475D01*
X443668Y73400D01*
X442917Y73275D01*
X442265Y73100D01*
X441712Y72875D01*
X441259Y72600D01*
X440905Y72275D01*
X440650Y71900D01*
X440495Y71475D01*
X440439Y71000D01*
Y81000D01*
X440495Y80525D01*
D02*
G37*
G36*
X411530Y70929D02*
X406929Y73429D01*
Y78429D01*
X411530Y80929D01*
Y70929D01*
D02*
G37*
G36*
X421775Y69255D02*
X421350Y69100D01*
X420975Y68845D01*
X420650Y68492D01*
X420375Y68038D01*
X420150Y67485D01*
X419975Y66833D01*
X419850Y66082D01*
X419775Y65231D01*
X419750Y64281D01*
X414750D01*
X414725Y65231D01*
X414650Y66082D01*
X414525Y66833D01*
X414350Y67485D01*
X414125Y68038D01*
X413850Y68492D01*
X413525Y68845D01*
X413150Y69100D01*
X412725Y69255D01*
X412250Y69311D01*
X422250D01*
X421775Y69255D01*
D02*
G37*
G36*
X475562Y55828D02*
X475506Y56303D01*
X475351Y56728D01*
X475096Y57103D01*
X474742Y57428D01*
X474289Y57703D01*
X473736Y57928D01*
X473084Y58103D01*
X472332Y58228D01*
X471481Y58303D01*
X470531Y58328D01*
Y63328D01*
X471481Y63353D01*
X472332Y63428D01*
X473084Y63553D01*
X473736Y63728D01*
X474289Y63953D01*
X474742Y64228D01*
X475096Y64553D01*
X475351Y64928D01*
X475506Y65353D01*
X475562Y65828D01*
Y55828D01*
D02*
G37*
G36*
X382019Y60124D02*
X382162Y59699D01*
X382397Y59324D01*
X382723Y58999D01*
X383141Y58724D01*
X383649Y58499D01*
X384250Y58324D01*
X384942Y58199D01*
X385725Y58124D01*
X386599Y58099D01*
Y53099D01*
X385725Y53074D01*
X384942Y52999D01*
X384250Y52874D01*
X383649Y52699D01*
X383141Y52474D01*
X382723Y52199D01*
X382397Y51874D01*
X382162Y51499D01*
X382019Y51074D01*
X381967Y50599D01*
Y60599D01*
X382019Y60124D01*
D02*
G37*
G36*
X556751Y45531D02*
X551751D01*
X550531Y50531D01*
X557970D01*
X556751Y45531D01*
D02*
G37*
D11*
X208885Y280532D02*
X212000Y283647D01*
Y285000D01*
X212425Y310025D02*
X212637Y309813D01*
X228513D02*
X228750Y310050D01*
X212637Y309813D02*
X228513D01*
X206808Y314000D02*
X211232Y309575D01*
X212425D01*
X274050Y310050D02*
X283250D01*
X289000Y331000D02*
X305500D01*
X306000Y331500D01*
X197500Y314000D02*
X206808D01*
X197500Y295000D02*
X207647D01*
X210647Y298000D01*
X212000D01*
X212325Y297675D02*
X228425D01*
X212000Y298000D02*
X212325Y297675D01*
X228425D02*
X228750Y297350D01*
X228575Y284825D02*
X228750Y284650D01*
X212175Y284825D02*
X228575D01*
X212000Y285000D02*
X212175Y284825D01*
X208885Y280337D02*
Y280532D01*
X204547Y276000D02*
X208885Y280337D01*
X197500Y276000D02*
X204547D01*
X184500Y277000D02*
Y296000D01*
X184500Y296000D02*
Y315000D01*
X170957Y319043D02*
X175000Y315000D01*
X184500D01*
X491330Y93250D02*
X493330Y91250D01*
X472040Y96500D02*
X475290Y93250D01*
X491330D01*
X493330Y90910D02*
Y91250D01*
X328647Y361000D02*
X330000D01*
X250000Y355500D02*
Y358000D01*
X281000Y180000D02*
X290000Y189000D01*
X202000Y170000D02*
X283515D01*
X298515Y185000D02*
X317933D01*
X283515Y170000D02*
X298515Y185000D01*
X214000Y239000D02*
X220000Y233000D01*
X249000D01*
X254000Y238000D01*
X184500Y296000D02*
X184500Y296000D01*
X197500D02*
X199500Y294000D01*
X203000Y246000D02*
X210000D01*
X197000Y240000D02*
X203000Y246000D01*
X188000Y240000D02*
X197000D01*
X96000Y232000D02*
Y248259D01*
X96521Y248780D01*
X96521Y306280D02*
X97021Y306780D01*
X124647Y200000D02*
X126000D01*
X123647Y199000D02*
X124647Y200000D01*
X122000Y387000D02*
X123000Y388000D01*
X422933Y211500D02*
Y214125D01*
X409426Y211500D02*
X422933D01*
Y214125D02*
X422995Y214188D01*
X568500Y345000D02*
X585000D01*
X549000Y345500D02*
Y359000D01*
Y345500D02*
X549500Y345000D01*
X527500D02*
X549500D01*
X568500D02*
Y390676D01*
X566386Y392790D02*
X568500Y390676D01*
X379183Y139943D02*
X380181Y138945D01*
X379183Y139943D02*
Y171750D01*
X178000Y169000D02*
Y170353D01*
X181300Y173653D01*
Y183284D01*
X224583Y212583D02*
X227000Y215000D01*
X224583Y202710D02*
Y212583D01*
X163122Y196122D02*
X187878D01*
X159000Y192000D02*
X163122Y196122D01*
X193000Y179000D02*
Y191000D01*
X187878Y196122D02*
X193000Y191000D01*
X185000Y154397D02*
Y162000D01*
X178000Y169000D02*
X185000Y162000D01*
X141010Y207010D02*
Y216257D01*
X136000Y202000D02*
X141010Y207010D01*
X136000Y176000D02*
Y202000D01*
Y176000D02*
X139000Y173000D01*
X146500D01*
X160000Y216267D02*
Y230000D01*
Y216267D02*
X160010Y216257D01*
X170000Y320000D02*
X170957Y319043D01*
Y317579D02*
Y319043D01*
X150767Y192000D02*
X159000D01*
X156791Y175709D02*
Y179534D01*
X150896Y185429D02*
X156791Y179534D01*
Y175709D02*
X159500Y173000D01*
X150896Y185429D02*
Y191872D01*
X117500Y208500D02*
X125257Y216257D01*
X141010D01*
X88000Y208500D02*
X117500D01*
X254000Y238000D02*
X272000D01*
X193000Y179000D02*
X202000Y170000D01*
X159000Y136000D02*
X164917Y130083D01*
X146000Y136000D02*
X159000D01*
X164917Y130083D02*
X175186D01*
X176005D02*
X185919D01*
X191336Y135500D01*
X207000D01*
X204000Y157000D02*
X206422Y154578D01*
X185000Y155314D02*
X186686Y157000D01*
X204000D01*
X185000Y154397D02*
Y155314D01*
X206422Y149078D02*
X207000Y148500D01*
X206422Y149078D02*
Y154578D01*
X184686Y154083D02*
X185000Y154397D01*
X227000Y225000D02*
X248000D01*
X256000Y233000D02*
X269000D01*
X248000Y225000D02*
X256000Y233000D01*
X227000Y215000D02*
Y225000D01*
X121000Y328000D02*
Y329353D01*
X123000Y331353D01*
X420000Y290000D02*
Y296000D01*
X416000Y286000D02*
X420000Y290000D01*
X397933Y286000D02*
X416000D01*
X411960Y304040D02*
X420000Y296000D01*
X397750Y304040D02*
X411960D01*
X397750Y322080D02*
X414920D01*
X420000Y317000D01*
Y332562D01*
X421000Y333563D01*
X465000Y322000D02*
Y333312D01*
X460000Y317000D02*
X465000Y322000D01*
X444000Y333563D02*
X445000Y332562D01*
Y317000D02*
Y332562D01*
X393000Y377000D02*
X403000D01*
X384250Y368250D02*
X393000Y377000D01*
X384250Y322080D02*
Y368250D01*
X420563Y377000D02*
X421000Y376562D01*
X491000Y130000D02*
X491500Y129500D01*
X453425Y110072D02*
X454000Y109497D01*
X439596Y129404D02*
X453425Y115575D01*
X435000Y130000D02*
X435596Y129404D01*
X453425Y110072D02*
Y115575D01*
X435596Y129404D02*
X439596D01*
X256500Y135500D02*
X302000Y181000D01*
X207000Y135500D02*
X256500D01*
X302000Y181000D02*
X317933D01*
X121000Y149000D02*
X146000D01*
X88000Y182000D02*
Y189500D01*
Y182000D02*
X121000Y149000D01*
X547232Y91691D02*
X547601Y92060D01*
X539251Y77251D02*
X547232Y85232D01*
Y91691D01*
X595000Y231000D02*
Y275000D01*
X587500Y223500D02*
X595000Y231000D01*
X547000Y223500D02*
X587500D01*
X477816Y60828D02*
X478987Y62000D01*
X640500Y157000D02*
X641000Y156500D01*
X494000Y293000D02*
X494183Y292817D01*
X514500Y365904D02*
X541386Y392790D01*
X514500Y345000D02*
Y365904D01*
X387183Y171750D02*
X406250D01*
X425500Y152500D02*
X494500D01*
X406250Y171750D02*
X425500Y152500D01*
X494500D02*
X514000Y172000D01*
Y219000D01*
X428183Y157000D02*
X492000D01*
X510000Y175000D01*
Y234000D01*
X518500Y242500D02*
X528000D01*
X510000Y234000D02*
X518500Y242500D01*
X514000Y219000D02*
X519500Y224500D01*
X528000D01*
X546000D01*
X419183Y256183D02*
X479000Y316000D01*
X419183Y241000D02*
Y256183D01*
X479000Y316000D02*
Y352062D01*
X527500Y319000D02*
Y345000D01*
X558000Y128000D02*
Y140250D01*
Y128000D02*
X562000Y124000D01*
Y110249D02*
Y124607D01*
X512330Y82034D02*
Y90910D01*
X472037Y96497D02*
X472040Y96500D01*
X454000Y96497D02*
X472037D01*
X420000Y113000D02*
X421353D01*
X434750Y96257D02*
X434793Y96300D01*
X329750Y153750D02*
X339183Y163183D01*
Y171750D01*
X349951Y123000D02*
X350040Y122911D01*
X353103Y301000D02*
X353670Y301567D01*
Y303186D01*
X359183Y250250D02*
Y262183D01*
X185000Y342000D02*
X185000Y342000D01*
X233000Y180000D02*
X258000Y205000D01*
X297192Y229000D02*
X301192Y225000D01*
X296000Y229000D02*
X297192D01*
X301192Y225000D02*
X317933D01*
X560851Y109100D02*
X562000Y110249D01*
X547851Y91310D02*
Y109100D01*
X556750Y140500D02*
X557000Y140250D01*
X538000Y140500D02*
X556750D01*
X546000Y224500D02*
X547000Y223500D01*
X528000Y242500D02*
X546000D01*
Y243500D02*
X547000Y242500D01*
X546000Y243500D02*
Y269000D01*
X605559Y309000D02*
X606059Y308500D01*
X366183Y156000D02*
Y157353D01*
X363183Y160353D02*
X366183Y157353D01*
X363183Y160353D02*
Y171750D01*
X266500Y302500D02*
X274050Y310050D01*
X266500Y252000D02*
Y302500D01*
X272702Y331173D02*
X272868Y331340D01*
X273209Y331000D01*
X311154Y296104D02*
Y296654D01*
Y296104D02*
X315000Y292258D01*
Y284636D02*
Y292258D01*
X223418Y297350D02*
X228750D01*
X296000Y245000D02*
X308000Y233000D01*
X296000Y245000D02*
Y246000D01*
X411183Y233000D02*
X419183Y241000D01*
X379991Y268808D02*
X381808D01*
X375183Y264000D02*
X379991Y268808D01*
X379183Y250250D02*
Y266183D01*
X398657Y270000D02*
X420000D01*
X387183Y250250D02*
Y258526D01*
X383183Y250250D02*
Y260183D01*
X397000Y274000D02*
X418000D01*
X383183Y260183D02*
X397000Y274000D01*
X387183Y258526D02*
X398657Y270000D01*
X384250Y286184D02*
X384433Y286000D01*
X384250Y286184D02*
Y304040D01*
Y322080D01*
X384250Y322080D01*
X315000Y284636D02*
X315128Y284508D01*
X283250Y297350D02*
X283600Y297000D01*
X294000D01*
X306000Y309000D01*
Y318500D01*
X316500D01*
X325000Y310000D01*
Y277000D02*
Y310000D01*
X317933Y269933D02*
X325000Y277000D01*
X317933Y241000D02*
Y269933D01*
X306000Y229000D02*
X317933D01*
X298000Y237000D02*
X306000Y229000D01*
X287000Y237000D02*
X298000D01*
X279500Y244500D02*
X287000Y237000D01*
X479000Y352062D02*
X481625Y354688D01*
X409000Y253000D02*
X475000Y319000D01*
Y352062D01*
X471875Y355187D02*
X475000Y352062D01*
X396433Y237000D02*
X405000D01*
X409000Y241000D01*
Y253000D01*
X396433Y237000D02*
Y237000D01*
X420000Y270000D02*
X434000Y284000D01*
Y351063D01*
X430000Y286000D02*
Y352062D01*
X418000Y274000D02*
X430000Y286000D01*
X434000Y351063D02*
X437500Y354562D01*
X427500D02*
X430000Y352062D01*
X437500Y354562D02*
X444000D01*
Y346562D02*
Y354562D01*
X331000Y267000D02*
X335183Y262817D01*
Y250250D02*
Y262817D01*
X347183Y253000D02*
Y263328D01*
X344000Y266512D02*
X347183Y263328D01*
X344000Y266512D02*
Y267000D01*
X406683Y221000D02*
X416544Y230861D01*
X416822D01*
X396433Y233000D02*
X411183D01*
X282335Y310965D02*
X283250Y310050D01*
Y284650D02*
X301986D01*
X302128Y284508D01*
X302000Y284380D02*
X302128Y284508D01*
X302000Y271000D02*
Y284380D01*
X279500Y244500D02*
Y252000D01*
X297353Y259000D02*
X305000Y251353D01*
Y243441D02*
Y251353D01*
X296000Y259000D02*
X297353D01*
X305000Y243441D02*
X311441Y237000D01*
X146000Y149000D02*
X147000Y148000D01*
X152000D01*
X158083Y154083D01*
X165686D01*
X279500Y252000D02*
X280000Y252500D01*
Y270102D01*
X281848Y271950D01*
X283250D01*
X308000Y233000D02*
X317933D01*
X311441Y237000D02*
X317933D01*
X285000Y225000D02*
X286192D01*
X290192Y221000D01*
X317933D01*
X269000Y233000D02*
X273000Y229000D01*
X297679Y205000D02*
X297679Y205000D01*
X317933D01*
X299336Y201000D02*
X299336Y201000D01*
X317933D01*
X300993Y197000D02*
X300993Y197000D01*
X317933D01*
X302649Y193000D02*
X302650Y193000D01*
X317933D01*
X290000Y189000D02*
X317933D01*
X272000Y238000D02*
X277000Y233000D01*
Y222000D02*
Y233000D01*
Y222000D02*
X282000Y217000D01*
X317933D01*
X273000Y220000D02*
Y229000D01*
Y220000D02*
X280000Y213000D01*
X317933D01*
X263750Y215000D02*
X271000D01*
X277000Y209000D01*
X317933D01*
X263750Y215000D02*
X264000Y215250D01*
X317933Y225000D02*
Y225000D01*
Y237000D02*
Y237000D01*
X317933Y233000D02*
Y233000D01*
X317933Y209000D02*
X317933Y209000D01*
X258000Y205000D02*
X297679D01*
X266000Y201000D02*
X299336D01*
X245000Y180000D02*
X266000Y201000D01*
X282000Y193000D02*
X302649D01*
X269000Y180000D02*
X282000Y193000D01*
X274000Y197000D02*
X300993D01*
X257000Y180000D02*
X274000Y197000D01*
X640500Y259000D02*
X641000Y258500D01*
X404683Y193000D02*
X424183Y173500D01*
Y173500D02*
Y173500D01*
X347183Y160875D02*
X350183Y157875D01*
X347183Y160875D02*
Y171750D01*
X350183Y156000D02*
Y157875D01*
X481625Y354688D02*
X489000D01*
Y346813D02*
Y354688D01*
X465000Y355187D02*
X471875D01*
X421000Y354562D02*
X427500D01*
X404183Y181000D02*
X428183Y157000D01*
X411405Y201000D02*
X412828Y203000D01*
X408340Y195000D02*
X416183D01*
X396433Y197000D02*
X406340D01*
X396433Y197000D02*
Y197000D01*
X406340D02*
X408340Y195000D01*
X396433Y201000D02*
X411405D01*
X396433Y201000D02*
X396433Y201000D01*
X396433Y217000D02*
X412183D01*
X396433Y221000D02*
X406683D01*
X402926Y205000D02*
X409426Y211500D01*
X396433Y205000D02*
X402926D01*
X396433Y193000D02*
X404683D01*
X465000Y346813D02*
Y355187D01*
X421000Y346562D02*
Y354562D01*
X375183Y250250D02*
Y264000D01*
X396433Y181000D02*
X404183D01*
X317933Y197000D02*
X317933Y197000D01*
X317933Y185000D02*
X317933Y185000D01*
D12*
X534000Y172000D02*
X570000D01*
X528000Y178000D02*
X534000Y172000D01*
X570000D02*
X578000Y164000D01*
Y153700D02*
Y164000D01*
Y124000D02*
Y140300D01*
X412828Y203000D02*
X425808D01*
X429808Y199000D01*
X444433D01*
D13*
X78500Y208500D02*
X88000D01*
X88000Y208500D01*
X75500Y211500D02*
X78500Y208500D01*
X60000Y211500D02*
X75500D01*
X80500Y189500D02*
X88000D01*
X77500Y186500D02*
X80500Y189500D01*
X60000Y186500D02*
X77500D01*
D15*
X520500Y153500D02*
X539000D01*
X539250Y153750D02*
X558000D01*
X272702Y324512D02*
X282335Y314878D01*
X272702Y324512D02*
Y331173D01*
X282335Y310965D02*
Y314878D01*
X273209Y331000D02*
X289000D01*
X430995Y222188D02*
X436755Y216428D01*
X417371Y222188D02*
X430995D01*
X412183Y217000D02*
X417371Y222188D01*
X444183Y188000D02*
X444308Y188125D01*
Y198875D02*
X444433Y199000D01*
X444308Y188125D02*
Y198875D01*
X329750Y145000D02*
Y153750D01*
Y128750D02*
Y145000D01*
X95000Y387000D02*
X122000D01*
X87000Y379000D02*
X95000Y387000D01*
X87000Y367000D02*
Y379000D01*
X539251Y63000D02*
Y77251D01*
X509251Y78954D02*
X512330Y82034D01*
X509251Y63000D02*
Y78954D01*
X554251Y42251D02*
Y63000D01*
X420172Y60828D02*
X477816D01*
X417250Y63750D02*
X420172Y60828D01*
X417250Y63750D02*
Y76000D01*
X365528Y55000D02*
X366128Y55599D01*
X386599D02*
X406929Y75929D01*
X417179D02*
X417250Y76000D01*
X366128Y55599D02*
X386599D01*
X406929Y75929D02*
X417179D01*
X539000Y153500D02*
X539250Y153750D01*
X424653Y109700D02*
X434793D01*
X421353Y113000D02*
X424653Y109700D01*
X434750Y76000D02*
Y96257D01*
X324000Y123000D02*
X329750Y128750D01*
X324000Y123000D02*
X349951D01*
X350040Y138911D02*
X380146D01*
X434750Y76000D02*
X458000D01*
X416822Y230861D02*
X442433D01*
X444433Y232861D02*
Y233000D01*
X442433Y230861D02*
X444433Y232861D01*
X264000Y215250D02*
Y226000D01*
X528000Y256000D02*
Y269000D01*
Y190000D02*
Y211500D01*
X86950Y335950D02*
Y342550D01*
X87000Y342600D01*
X82000Y331000D02*
X86950Y335950D01*
X60000Y331000D02*
X82000D01*
X416183Y195000D02*
X434362Y176821D01*
X442433D01*
X442612Y177000D01*
X444433D01*
X436755Y216428D02*
X444005D01*
X444433Y216000D01*
D17*
X283250Y271950D02*
D03*
Y284650D02*
D03*
Y297350D02*
D03*
Y310050D02*
D03*
X228750Y271950D02*
D03*
Y284650D02*
D03*
Y297350D02*
D03*
Y310050D02*
D03*
D18*
X96521Y277780D02*
D03*
X111521D02*
D03*
X112021Y306780D02*
D03*
X97021D02*
D03*
X96521Y248780D02*
D03*
X111521D02*
D03*
D19*
X663000Y235250D02*
D03*
Y333500D02*
D03*
Y95750D02*
D03*
Y194000D02*
D03*
X35000Y163250D02*
D03*
Y247250D02*
D03*
Y354250D02*
D03*
Y295250D02*
D03*
D20*
X638000Y258500D02*
D03*
Y271000D02*
D03*
Y283500D02*
D03*
Y296000D02*
D03*
Y308500D02*
D03*
Y119000D02*
D03*
Y131500D02*
D03*
Y144000D02*
D03*
Y156500D02*
D03*
Y169000D02*
D03*
X60000Y186500D02*
D03*
Y199000D02*
D03*
Y211500D02*
D03*
Y224000D02*
D03*
Y331000D02*
D03*
Y318500D02*
D03*
D21*
X602559Y309000D02*
D03*
X589559D02*
D03*
X514500Y345000D02*
D03*
X527500D02*
D03*
X527500Y317000D02*
D03*
X514500D02*
D03*
X279500Y252000D02*
D03*
X266500D02*
D03*
X315128Y284508D02*
D03*
X302128D02*
D03*
X197500Y295000D02*
D03*
X184500D02*
D03*
X197500Y276000D02*
D03*
X184500D02*
D03*
X184500Y314000D02*
D03*
X197500D02*
D03*
X159500Y173000D02*
D03*
X146500D02*
D03*
X135521Y248780D02*
D03*
X148521D02*
D03*
Y306780D02*
D03*
X135521D02*
D03*
Y277780D02*
D03*
X148521D02*
D03*
X560851Y110100D02*
D03*
X547851D02*
D03*
D22*
X160010Y216257D02*
D03*
X141010D02*
D03*
X150510Y192257D02*
D03*
X568500Y345000D02*
D03*
X549500D02*
D03*
X559000Y321000D02*
D03*
X184686Y154083D02*
D03*
X165686D02*
D03*
X175186Y130083D02*
D03*
X502830Y114910D02*
D03*
X512330Y90910D02*
D03*
X493330D02*
D03*
D23*
X188000Y240000D02*
D03*
Y226500D02*
D03*
X558000Y153750D02*
D03*
Y140250D02*
D03*
X489000Y333312D02*
D03*
Y346813D02*
D03*
X465000Y333312D02*
D03*
Y346813D02*
D03*
D24*
X211000Y244000D02*
D03*
X227000D02*
D03*
X211000Y222000D02*
D03*
X227000D02*
D03*
D25*
X181300Y183284D02*
D03*
Y196283D02*
D03*
X306000Y316500D02*
D03*
Y329500D02*
D03*
X146000Y149000D02*
D03*
Y136000D02*
D03*
X207000Y148500D02*
D03*
Y135500D02*
D03*
X472040Y109500D02*
D03*
Y96500D02*
D03*
X444000Y346562D02*
D03*
Y333563D02*
D03*
X528000Y211500D02*
D03*
Y224500D02*
D03*
X444000Y363563D02*
D03*
Y376562D02*
D03*
X421000Y363563D02*
D03*
Y376562D02*
D03*
X528000Y255500D02*
D03*
Y242500D02*
D03*
X421000Y333563D02*
D03*
Y346562D02*
D03*
X454000Y96497D02*
D03*
Y109497D02*
D03*
X539000Y153500D02*
D03*
Y140500D02*
D03*
X489000Y363563D02*
D03*
Y376562D02*
D03*
X465000Y363563D02*
D03*
Y376562D02*
D03*
D26*
X357183Y211000D02*
D03*
D27*
X387183Y171750D02*
D03*
X383183Y171750D02*
D03*
X379183Y171750D02*
D03*
X375183Y171750D02*
D03*
X371183D02*
D03*
X367183Y171750D02*
D03*
X363183Y171750D02*
D03*
X359183Y171750D02*
D03*
X355183Y171750D02*
D03*
X351183Y171750D02*
D03*
X347183D02*
D03*
X343183D02*
D03*
X339183Y171750D02*
D03*
X335183Y171750D02*
D03*
X331183D02*
D03*
X327183D02*
D03*
Y250250D02*
D03*
X331183Y250250D02*
D03*
X335183Y250250D02*
D03*
X339183D02*
D03*
X343183Y250250D02*
D03*
X347183Y250250D02*
D03*
X351183D02*
D03*
X355183Y250250D02*
D03*
X359183Y250250D02*
D03*
X363183Y250250D02*
D03*
X367183D02*
D03*
X371183D02*
D03*
X375183D02*
D03*
X379183D02*
D03*
X383183Y250250D02*
D03*
X387183Y250250D02*
D03*
D28*
X317933Y181000D02*
D03*
X317933Y185000D02*
D03*
X317933Y189000D02*
D03*
X317933Y193000D02*
D03*
Y197000D02*
D03*
Y201000D02*
D03*
X317933Y205000D02*
D03*
X317933Y209000D02*
D03*
X317933Y213000D02*
D03*
X317933Y217000D02*
D03*
X317933Y221000D02*
D03*
X317933Y225000D02*
D03*
Y229000D02*
D03*
X317933Y233000D02*
D03*
X317933Y237000D02*
D03*
X317933Y241000D02*
D03*
X396433Y241000D02*
D03*
Y237000D02*
D03*
X396433Y233000D02*
D03*
X396433Y229000D02*
D03*
Y225000D02*
D03*
X396433Y221000D02*
D03*
X396433Y217000D02*
D03*
X396433Y213000D02*
D03*
X396433Y209000D02*
D03*
Y205000D02*
D03*
Y201000D02*
D03*
X396433Y197000D02*
D03*
Y193000D02*
D03*
X396433Y189000D02*
D03*
Y185000D02*
D03*
X396433Y181000D02*
D03*
D29*
X272868Y331340D02*
D03*
X259368D02*
D03*
X329750Y145000D02*
D03*
X316250D02*
D03*
X457933Y216000D02*
D03*
X444433D02*
D03*
X457933Y177000D02*
D03*
X444433D02*
D03*
X457933Y199000D02*
D03*
X444433D02*
D03*
X547601Y92060D02*
D03*
X561101D02*
D03*
X211083Y199710D02*
D03*
X224583D02*
D03*
X397750Y304040D02*
D03*
X384250D02*
D03*
X250250Y215000D02*
D03*
X263750D02*
D03*
X397750Y322080D02*
D03*
X384250D02*
D03*
X457933Y233000D02*
D03*
X444433D02*
D03*
X384433Y286000D02*
D03*
X397933D02*
D03*
X360750Y283000D02*
D03*
X347250D02*
D03*
D30*
X350040Y122911D02*
D03*
Y138911D02*
D03*
D31*
X301528Y55000D02*
D03*
X365528D02*
D03*
D32*
X639000Y373000D02*
D03*
X609000Y37000D02*
D03*
X92000Y136000D02*
D03*
D33*
X87000Y367000D02*
D03*
Y342600D02*
D03*
D34*
X417250Y76000D02*
D03*
X434750D02*
D03*
D35*
X300000Y358000D02*
D03*
Y396000D02*
D03*
X350000Y358000D02*
D03*
Y320000D02*
D03*
X250000Y358000D02*
D03*
Y396000D02*
D03*
X123000Y387000D02*
D03*
Y349000D02*
D03*
D36*
X578000Y140300D02*
D03*
Y153700D02*
D03*
X88000Y208500D02*
D03*
Y189500D02*
D03*
X112000Y199000D02*
D03*
X434793Y96300D02*
D03*
Y109700D02*
D03*
X571000Y233000D02*
D03*
X547000Y223500D02*
D03*
Y242500D02*
D03*
D37*
X574251Y26500D02*
D03*
X459251D02*
D03*
D38*
X554251Y63000D02*
D03*
X539251D02*
D03*
X524251D02*
D03*
X509251D02*
D03*
X494251D02*
D03*
X479251D02*
D03*
D39*
X208000Y406000D02*
D03*
X185000D02*
D03*
X162000D02*
D03*
D40*
X185000Y342000D02*
D03*
D41*
X494183Y266000D02*
D03*
X456183D02*
D03*
D42*
X380181Y110945D02*
D03*
Y138945D02*
D03*
D72*
X355163Y96540D02*
D03*
X335163D02*
D03*
D73*
X325647Y358000D02*
X328647Y361000D01*
X300000Y358000D02*
X325647D01*
X236500Y342000D02*
X250000Y355500D01*
X185000Y342000D02*
X236500D01*
X130000Y406000D02*
X162000D01*
X123000Y399000D02*
X130000Y406000D01*
X123000Y388000D02*
Y399000D01*
X185000Y406000D02*
Y423000D01*
X162000Y406000D02*
Y423000D01*
X250000Y358000D02*
X300000D01*
D74*
X151301Y249000D02*
X152301Y248000D01*
X171000D01*
X96521Y249780D02*
Y277780D01*
Y306280D01*
X152741Y277000D02*
X165000D01*
X150741Y279000D02*
X152741Y277000D01*
X111521Y249780D02*
X137521D01*
X111861Y278000D02*
X137861D01*
X584000Y179000D02*
X619000Y144000D01*
X555000Y179000D02*
X584000D01*
X547000Y187000D02*
X555000Y179000D01*
X444000Y376562D02*
X489000D01*
X403000Y377000D02*
X420563D01*
X578000Y124000D02*
X583000Y119000D01*
X641000D01*
X619000Y144000D02*
X641000D01*
X547000Y187000D02*
Y223500D01*
X563000Y190000D02*
X586000D01*
X619000Y157000D01*
X640500D01*
X584000Y255000D02*
Y284000D01*
X571500Y242500D02*
X584000Y255000D01*
X547000Y242500D02*
X571500D01*
X112021Y305780D02*
X137521D01*
X444000Y354562D02*
Y362562D01*
X602000Y185000D02*
Y217000D01*
Y185000D02*
X618000Y169000D01*
X641000D01*
X489000Y354688D02*
Y362562D01*
X465000Y355187D02*
Y363563D01*
X421000Y354562D02*
Y362562D01*
X489000Y376562D02*
X489000Y376562D01*
X421000Y376562D02*
X444000D01*
D75*
X603500Y283500D02*
X641000D01*
X595000Y275000D02*
X603500Y283500D01*
X596000Y296000D02*
X641000D01*
X584000Y284000D02*
X596000Y296000D01*
X602000Y217000D02*
Y249000D01*
X612000Y259000D02*
X640500D01*
X602000Y249000D02*
X612000Y259000D01*
X606059Y308500D02*
X641000D01*
D76*
X444433Y256750D02*
X453683Y266000D01*
X444433Y233000D02*
Y256750D01*
X453683Y266000D02*
X456183D01*
X444183Y164000D02*
Y176750D01*
X360750Y296750D02*
X365000Y301000D01*
X360750Y263750D02*
Y296750D01*
X354750Y301000D02*
X365000D01*
X359183Y262183D02*
X360750Y263750D01*
X381808Y268808D02*
X384433Y271433D01*
X379183Y266183D02*
X381808Y268808D01*
X384433Y271433D02*
Y286000D01*
X350000Y306857D02*
X353670Y303186D01*
X345000Y301000D02*
X354750D01*
X353103D02*
X354750D01*
X350000Y306857D02*
Y320000D01*
X126000Y190000D02*
Y200000D01*
Y180000D02*
Y190000D01*
X444183Y176750D02*
X444433Y177000D01*
D77*
X345163Y96540D02*
D03*
D78*
X360000Y96500D02*
D03*
D79*
X331081Y96270D02*
D03*
D80*
X339183Y245125D02*
D03*
X367183Y176875D02*
D03*
D81*
X391308Y229000D02*
D03*
D82*
X391308Y213000D02*
D03*
D83*
X527000Y181500D02*
D03*
D84*
X383213Y167000D02*
D03*
D85*
Y160500D02*
D03*
D86*
X198403Y76027D02*
D03*
X173002Y50627D02*
D03*
X147603Y76027D02*
D03*
Y50627D02*
D03*
X223803D02*
D03*
X173002Y76027D02*
D03*
X198403Y50627D02*
D03*
X122203Y76027D02*
D03*
Y50627D02*
D03*
X591386Y392790D02*
D03*
X566386D02*
D03*
D87*
X223803Y76027D02*
D03*
X541386Y392790D02*
D03*
D88*
X212000Y285000D02*
D03*
X212425Y309575D02*
D03*
X289000Y331000D02*
D03*
X212000Y298000D02*
D03*
X249000Y290500D02*
D03*
X312500Y370000D02*
D03*
X593000Y143000D02*
D03*
X282500Y130000D02*
D03*
X264000Y163000D02*
D03*
X231000Y100000D02*
D03*
X249000Y147000D02*
D03*
X507500Y280000D02*
D03*
X672500Y370000D02*
D03*
Y310000D02*
D03*
Y130000D02*
D03*
Y70000D02*
D03*
X657500Y280000D02*
D03*
X642500Y250000D02*
D03*
Y190000D02*
D03*
X657500Y160000D02*
D03*
X642500Y70000D02*
D03*
X627500Y400000D02*
D03*
X612500Y370000D02*
D03*
X627500Y340000D02*
D03*
Y220000D02*
D03*
X612500Y190000D02*
D03*
Y130000D02*
D03*
X627500Y100000D02*
D03*
X612500Y70000D02*
D03*
X627500Y40000D02*
D03*
X612500Y10000D02*
D03*
X582500Y370000D02*
D03*
X597500Y340000D02*
D03*
Y100000D02*
D03*
X582500Y70000D02*
D03*
X552500Y370000D02*
D03*
Y310000D02*
D03*
X567500Y280000D02*
D03*
X537500D02*
D03*
Y100000D02*
D03*
X507500Y400000D02*
D03*
X492500Y310000D02*
D03*
Y250000D02*
D03*
Y190000D02*
D03*
X477500Y400000D02*
D03*
Y280000D02*
D03*
Y220000D02*
D03*
X447500Y400000D02*
D03*
X432500Y250000D02*
D03*
X447500Y40000D02*
D03*
X417500Y400000D02*
D03*
Y40000D02*
D03*
X387500Y400000D02*
D03*
X372500Y370000D02*
D03*
Y310000D02*
D03*
Y70000D02*
D03*
X387500Y40000D02*
D03*
X357500Y400000D02*
D03*
Y340000D02*
D03*
X342500Y70000D02*
D03*
X357500Y40000D02*
D03*
X327500Y400000D02*
D03*
Y340000D02*
D03*
X312500Y70000D02*
D03*
X282500Y370000D02*
D03*
X297500Y100000D02*
D03*
X282500Y70000D02*
D03*
X297500Y40000D02*
D03*
X252500Y310000D02*
D03*
X267500Y100000D02*
D03*
Y40000D02*
D03*
X222500Y370000D02*
D03*
X237500Y40000D02*
D03*
X192500Y370000D02*
D03*
X207500Y100000D02*
D03*
Y40000D02*
D03*
X162500Y370000D02*
D03*
X132500D02*
D03*
X102500D02*
D03*
X117500Y220000D02*
D03*
X102500Y190000D02*
D03*
X117500Y100000D02*
D03*
X87500Y400000D02*
D03*
X72500Y370000D02*
D03*
Y250000D02*
D03*
X87500Y220000D02*
D03*
Y160000D02*
D03*
X72500Y70000D02*
D03*
X57500Y340000D02*
D03*
Y280000D02*
D03*
Y160000D02*
D03*
Y100000D02*
D03*
X42500Y70000D02*
D03*
X27500Y100000D02*
D03*
X12500Y70000D02*
D03*
X281000Y180000D02*
D03*
X240000Y201000D02*
D03*
X171000Y248000D02*
D03*
X165000Y277000D02*
D03*
X422995Y214188D02*
D03*
X444183Y188000D02*
D03*
X585000Y345000D02*
D03*
X549000Y359000D02*
D03*
X10000Y330000D02*
D03*
X178000Y169000D02*
D03*
X170000Y320000D02*
D03*
X195000Y205000D02*
D03*
X180000Y215000D02*
D03*
X160000Y230000D02*
D03*
X205000Y185000D02*
D03*
X445000Y302000D02*
D03*
X460000Y317000D02*
D03*
X445000D02*
D03*
X420000Y296000D02*
D03*
Y317000D02*
D03*
X435000Y130000D02*
D03*
X505000Y30000D02*
D03*
X485000D02*
D03*
X585000Y233000D02*
D03*
X563000Y190000D02*
D03*
Y203000D02*
D03*
X530000Y293000D02*
D03*
X550000D02*
D03*
X570000D02*
D03*
X554000Y42000D02*
D03*
X455000Y130000D02*
D03*
X133000Y328000D02*
D03*
X121000D02*
D03*
X109000D02*
D03*
X162000Y423000D02*
D03*
X233000Y180000D02*
D03*
X342183Y226000D02*
D03*
X372183D02*
D03*
X357183D02*
D03*
X296000Y229000D02*
D03*
X342183Y211000D02*
D03*
X372183D02*
D03*
X357183Y196000D02*
D03*
X342183D02*
D03*
X372183D02*
D03*
X562000Y124000D02*
D03*
X578000D02*
D03*
X555000Y10000D02*
D03*
X435000D02*
D03*
X491000Y130000D02*
D03*
X311154Y296654D02*
D03*
X330000Y385000D02*
D03*
X296000Y246000D02*
D03*
X345000Y301000D02*
D03*
X365000D02*
D03*
X354750D02*
D03*
X420000Y113000D02*
D03*
X690000Y330000D02*
D03*
X344000Y267000D02*
D03*
X331000D02*
D03*
X296000Y259000D02*
D03*
X302000Y271000D02*
D03*
X264000Y226000D02*
D03*
X285000Y225000D02*
D03*
X245000Y180000D02*
D03*
X330000Y373000D02*
D03*
Y361000D02*
D03*
X257000Y180000D02*
D03*
X269000D02*
D03*
X126000Y200000D02*
D03*
Y180000D02*
D03*
Y190000D02*
D03*
X690000Y360000D02*
D03*
Y300000D02*
D03*
Y270000D02*
D03*
Y240000D02*
D03*
Y210000D02*
D03*
Y180000D02*
D03*
Y150000D02*
D03*
Y120000D02*
D03*
Y90000D02*
D03*
X528000Y269000D02*
D03*
Y178000D02*
D03*
Y190000D02*
D03*
X602000Y217000D02*
D03*
X424183Y173500D02*
D03*
X366183Y156000D02*
D03*
X350183D02*
D03*
X10000Y360000D02*
D03*
Y300000D02*
D03*
Y270000D02*
D03*
Y240000D02*
D03*
Y210000D02*
D03*
Y90000D02*
D03*
Y120000D02*
D03*
Y150000D02*
D03*
Y180000D02*
D03*
X585000Y10000D02*
D03*
X465000D02*
D03*
X495000D02*
D03*
X525000D02*
D03*
X345000D02*
D03*
X375000D02*
D03*
X405000D02*
D03*
X225000D02*
D03*
X255000D02*
D03*
X285000D02*
D03*
X315000D02*
D03*
X195000D02*
D03*
X165000D02*
D03*
X135000D02*
D03*
X105000D02*
D03*
X75000D02*
D03*
X585000Y440000D02*
D03*
X465000D02*
D03*
X495000D02*
D03*
X525000D02*
D03*
X555000D02*
D03*
X345000D02*
D03*
X375000D02*
D03*
X405000D02*
D03*
X435000D02*
D03*
X225000D02*
D03*
X255000D02*
D03*
X285000D02*
D03*
X315000D02*
D03*
X195000D02*
D03*
X165000D02*
D03*
X135000D02*
D03*
X105000D02*
D03*
X75000D02*
D03*
X265000Y55000D02*
D03*
X250000D02*
D03*
Y73000D02*
D03*
Y89000D02*
D03*
X265000Y73000D02*
D03*
Y89000D02*
D03*
X495000Y182000D02*
D03*
Y199000D02*
D03*
Y216000D02*
D03*
Y233000D02*
D03*
X20000Y315000D02*
D03*
Y335000D02*
D03*
X30000Y315000D02*
D03*
Y335000D02*
D03*
X324000Y123000D02*
D03*
X96000Y232000D02*
D03*
X185000Y423000D02*
D03*
X324000Y112000D02*
D03*
X421000Y410000D02*
D03*
X489000D02*
D03*
X403000Y377000D02*
D03*
X40000Y335000D02*
D03*
Y315000D02*
D03*
X35000Y220000D02*
D03*
Y190000D02*
D03*
X250000Y412000D02*
D03*
X300000D02*
D03*
X350000Y376000D02*
D03*
X473000Y130000D02*
D03*
X458000Y76000D02*
D03*
X444183Y164000D02*
D03*
X570000Y269000D02*
D03*
X419183Y241000D02*
D03*
X357183Y211000D02*
D03*
X546000Y269000D02*
D03*
M02*
