G04*
G04 #@! TF.GenerationSoftware,Altium Limited,Altium Designer,25.4.2 (15)*
G04*
G04 Layer_Physical_Order=4*
G04 Layer_Color=16711680*
%FSLAX44Y44*%
%MOMM*%
G71*
G04*
G04 #@! TF.SameCoordinates,2757192E-E8AF-4120-B63B-14C5750386C4*
G04*
G04*
G04 #@! TF.FilePolarity,Positive*
G04*
G01*
G75*
%ADD11C,0.2000*%
%ADD12C,0.4000*%
%ADD13C,0.2500*%
%ADD15C,0.5000*%
%ADD76C,0.7000*%
%ADD86C,1.6000*%
%ADD87R,1.6000X1.6000*%
%ADD88C,0.7000*%
G36*
X644331Y444536D02*
X642922Y443127D01*
X639638Y438606D01*
X637101Y433627D01*
X635374Y428313D01*
X634500Y422794D01*
Y417206D01*
X635374Y411687D01*
X637101Y406373D01*
X639638Y401394D01*
X642922Y396873D01*
X646873Y392922D01*
X651394Y389638D01*
X656373Y387101D01*
X661687Y385374D01*
X667206Y384500D01*
X672794D01*
X678313Y385374D01*
X683627Y387101D01*
X688606Y389638D01*
X693127Y392922D01*
X693614Y393410D01*
X695000Y392836D01*
Y57164D01*
X693614Y56590D01*
X693127Y57078D01*
X688606Y60362D01*
X683627Y62899D01*
X678313Y64626D01*
X672794Y65500D01*
X667206D01*
X661687Y64626D01*
X656373Y62899D01*
X651394Y60362D01*
X646873Y57078D01*
X642922Y53127D01*
X639638Y48606D01*
X637101Y43627D01*
X635374Y38313D01*
X634500Y32794D01*
Y27206D01*
X635374Y21687D01*
X637101Y16373D01*
X639638Y11394D01*
X642922Y6873D01*
X644331Y5464D01*
X643757Y4078D01*
X56243Y4078D01*
X55669Y5464D01*
X57078Y6873D01*
X60362Y11394D01*
X62899Y16373D01*
X64626Y21687D01*
X65500Y27206D01*
Y32794D01*
X64626Y38313D01*
X62899Y43627D01*
X60362Y48606D01*
X57078Y53127D01*
X53127Y57078D01*
X48606Y60362D01*
X43627Y62899D01*
X38313Y64626D01*
X32794Y65500D01*
X27206D01*
X21687Y64626D01*
X16373Y62899D01*
X11394Y60362D01*
X6873Y57078D01*
X5464Y55669D01*
X4078Y56243D01*
X4078Y393758D01*
X5464Y394332D01*
X6873Y392922D01*
X11394Y389638D01*
X16373Y387101D01*
X21687Y385374D01*
X27206Y384500D01*
X32794D01*
X38313Y385374D01*
X43627Y387101D01*
X48606Y389638D01*
X53127Y392922D01*
X57078Y396873D01*
X60362Y401394D01*
X62899Y406373D01*
X64626Y411687D01*
X65500Y417206D01*
Y422794D01*
X64626Y428313D01*
X62899Y433627D01*
X60362Y438606D01*
X57078Y443127D01*
X55669Y444536D01*
X56243Y445922D01*
X643757D01*
X644331Y444536D01*
D02*
G37*
%LPC*%
G36*
X186094Y428500D02*
X183906D01*
X181884Y427663D01*
X180337Y426115D01*
X179500Y424094D01*
Y421906D01*
X180337Y419884D01*
X181884Y418337D01*
X183906Y417500D01*
X186094D01*
X188116Y418337D01*
X189663Y419884D01*
X190500Y421906D01*
Y424094D01*
X189663Y426115D01*
X188116Y427663D01*
X186094Y428500D01*
D02*
G37*
G36*
X593386Y403125D02*
Y394790D01*
X601720D01*
X601170Y396843D01*
X599788Y399237D01*
X597833Y401192D01*
X595439Y402575D01*
X593386Y403125D01*
D02*
G37*
G36*
X589386D02*
X587333Y402575D01*
X584939Y401192D01*
X582984Y399237D01*
X581601Y396843D01*
X581051Y394790D01*
X589386D01*
Y403125D01*
D02*
G37*
G36*
X567702Y402790D02*
X565069D01*
X562526Y402108D01*
X560246Y400792D01*
X558384Y398930D01*
X557067Y396650D01*
X556386Y394107D01*
Y391474D01*
X557067Y388930D01*
X558384Y386650D01*
X560246Y384788D01*
X562526Y383471D01*
X565069Y382790D01*
X567702D01*
X570246Y383471D01*
X572526Y384788D01*
X574388Y386650D01*
X575704Y388930D01*
X576386Y391474D01*
Y394107D01*
X575704Y396650D01*
X574388Y398930D01*
X572526Y400792D01*
X570246Y402108D01*
X567702Y402790D01*
D02*
G37*
G36*
X551386D02*
X531386D01*
Y382790D01*
X551386D01*
Y402790D01*
D02*
G37*
G36*
X601720Y390790D02*
X593386D01*
Y382456D01*
X595439Y383006D01*
X597833Y384388D01*
X599788Y386343D01*
X601170Y388737D01*
X601720Y390790D01*
D02*
G37*
G36*
X589386D02*
X581051D01*
X581601Y388737D01*
X582984Y386343D01*
X584939Y384388D01*
X587333Y383006D01*
X589386Y382456D01*
Y390790D01*
D02*
G37*
G36*
X313500Y398500D02*
X178500D01*
Y379000D01*
X313500D01*
Y398500D01*
D02*
G37*
G36*
X404094Y382500D02*
X401906D01*
X399884Y381663D01*
X398337Y380116D01*
X397500Y378094D01*
Y375906D01*
X398337Y373885D01*
X399884Y372337D01*
X401906Y371500D01*
X404094D01*
X406115Y372337D01*
X407663Y373885D01*
X408500Y375906D01*
Y378094D01*
X407663Y380116D01*
X406115Y381663D01*
X404094Y382500D01*
D02*
G37*
G36*
X331094Y390500D02*
X328906D01*
X326884Y389663D01*
X325337Y388116D01*
X324500Y386094D01*
Y383906D01*
X325337Y381884D01*
X326884Y380337D01*
X328153Y379812D01*
Y378188D01*
X326884Y377663D01*
X325337Y376115D01*
X324500Y374094D01*
Y371906D01*
X325337Y369884D01*
X326884Y368337D01*
X328153Y367812D01*
Y366188D01*
X326884Y365663D01*
X325337Y364115D01*
X324500Y362094D01*
Y359906D01*
X325337Y357884D01*
X326884Y356337D01*
X328906Y355500D01*
X331094D01*
X333116Y356337D01*
X334663Y357884D01*
X335500Y359906D01*
Y362094D01*
X334663Y364115D01*
X333116Y365663D01*
X331847Y366188D01*
Y367812D01*
X333116Y368337D01*
X334663Y369884D01*
X335500Y371906D01*
Y374094D01*
X334663Y376115D01*
X333116Y377663D01*
X331847Y378188D01*
Y379812D01*
X333116Y380337D01*
X334663Y381884D01*
X335500Y383906D01*
Y386094D01*
X334663Y388116D01*
X333116Y389663D01*
X331094Y390500D01*
D02*
G37*
G36*
X292000Y342059D02*
X292000Y342059D01*
X227000D01*
X227000Y342059D01*
X225830Y341826D01*
X224837Y341163D01*
X224837Y341163D01*
X166151Y282477D01*
X166094Y282500D01*
X163906D01*
X161884Y281663D01*
X160337Y280116D01*
X159500Y278094D01*
Y275906D01*
X160337Y273885D01*
X161884Y272337D01*
X163906Y271500D01*
X166094D01*
X168116Y272337D01*
X169663Y273885D01*
X170500Y275906D01*
Y278094D01*
X170476Y278151D01*
X192555Y300230D01*
X193941Y299656D01*
Y275267D01*
X172151Y253477D01*
X172094Y253500D01*
X169906D01*
X167885Y252663D01*
X166337Y251115D01*
X165500Y249094D01*
Y246906D01*
X166337Y244884D01*
X167885Y243337D01*
X169906Y242500D01*
X172094D01*
X174116Y243337D01*
X175663Y244884D01*
X176500Y246906D01*
Y249094D01*
X176476Y249151D01*
X199163Y271837D01*
X199163Y271837D01*
X199515Y272364D01*
X201228Y272772D01*
X213000Y261000D01*
X221000Y253000D01*
X223000D01*
X223000Y253000D01*
X224303Y252526D01*
X224830Y252174D01*
X226000Y251941D01*
X226000Y251941D01*
X262925D01*
X283084Y231783D01*
X282732Y230014D01*
X281884Y229663D01*
X280337Y228116D01*
X279500Y226094D01*
Y223906D01*
X280337Y221884D01*
X281884Y220337D01*
X283906Y219500D01*
X284821D01*
X284999Y219461D01*
X285336Y219455D01*
X285587Y219436D01*
X285809Y219404D01*
X286002Y219363D01*
X286168Y219313D01*
X286309Y219259D01*
X286429Y219199D01*
X286532Y219136D01*
X286556Y219119D01*
X287837Y217837D01*
X287837Y217837D01*
X288829Y217174D01*
X290000Y216941D01*
X300882D01*
X300882Y216941D01*
X302053Y217174D01*
X303045Y217837D01*
X309163Y223955D01*
X309163Y223955D01*
X309826Y224947D01*
X310059Y226117D01*
X310059Y226118D01*
Y266000D01*
X310059Y266000D01*
X309826Y267171D01*
X309163Y268163D01*
X307881Y269445D01*
X307864Y269468D01*
X307801Y269571D01*
X307741Y269691D01*
X307687Y269832D01*
X307637Y269998D01*
X307596Y270191D01*
X307564Y270413D01*
X307545Y270664D01*
X307539Y271001D01*
X307500Y271179D01*
Y272094D01*
X306663Y274116D01*
X305116Y275663D01*
X303094Y276500D01*
X300906D01*
X298885Y275663D01*
X297337Y274116D01*
X296500Y272094D01*
Y269906D01*
X297337Y267885D01*
X298722Y266500D01*
X298605Y265736D01*
X298262Y265000D01*
X271326D01*
X270163Y266163D01*
X269170Y266826D01*
X268000Y267059D01*
X268000Y267059D01*
X234117D01*
X233069Y267257D01*
X217184Y283142D01*
X217500Y283906D01*
Y286094D01*
X216663Y288116D01*
X215116Y289663D01*
X213094Y290500D01*
X211875D01*
X211101Y292000D01*
X211456Y292500D01*
X213094D01*
X215116Y293337D01*
X216663Y294884D01*
X217500Y296906D01*
Y299094D01*
X216663Y301115D01*
X215116Y302663D01*
X214572Y302888D01*
Y304512D01*
X215540Y304913D01*
X217087Y306460D01*
X217925Y308481D01*
Y310669D01*
X217087Y312691D01*
X215540Y314238D01*
X214693Y314589D01*
X214341Y316358D01*
X218924Y320941D01*
X295733D01*
X327941Y288733D01*
Y272258D01*
X327937Y272230D01*
X327909Y272112D01*
X327866Y271985D01*
X327805Y271847D01*
X327722Y271695D01*
X327615Y271529D01*
X327481Y271349D01*
X327317Y271158D01*
X327083Y270916D01*
X326984Y270762D01*
X326337Y270116D01*
X325500Y268094D01*
Y265906D01*
X326337Y263885D01*
X327884Y262337D01*
X329906Y261500D01*
X332094D01*
X334115Y262337D01*
X335663Y263885D01*
X336500Y265906D01*
Y267000D01*
X338500D01*
Y265906D01*
X339337Y263885D01*
X340885Y262337D01*
X342906Y261500D01*
X345094D01*
X347116Y262337D01*
X348663Y263885D01*
X349500Y265906D01*
Y268094D01*
X348663Y270116D01*
X347116Y271663D01*
X346971Y271723D01*
X346938Y271752D01*
X346820Y271879D01*
X346730Y271993D01*
X346665Y272096D01*
X346618Y272188D01*
X346585Y272275D01*
X346562Y272362D01*
X346559Y272381D01*
Y287500D01*
X346326Y288671D01*
X345663Y289663D01*
X345663Y289663D01*
X294163Y341163D01*
X293171Y341826D01*
X292000Y342059D01*
D02*
G37*
G36*
X550094Y364500D02*
X547906D01*
X545885Y363663D01*
X544337Y362116D01*
X543500Y360094D01*
Y357906D01*
X544337Y355885D01*
X544984Y355238D01*
X545083Y355084D01*
X545317Y354842D01*
X545480Y354651D01*
X545615Y354471D01*
X545722Y354305D01*
X545805Y354153D01*
X545866Y354015D01*
X545909Y353888D01*
X545937Y353770D01*
X545941Y353741D01*
Y341267D01*
X424677Y220002D01*
X424655Y219986D01*
X424559Y219928D01*
X424448Y219875D01*
X424317Y219827D01*
X424164Y219784D01*
X423983Y219750D01*
X423773Y219726D01*
X423534Y219716D01*
X423206Y219722D01*
X423012Y219688D01*
X421901D01*
X419880Y218850D01*
X418333Y217303D01*
X417495Y215282D01*
Y213094D01*
X418333Y211072D01*
X419880Y209525D01*
X420752Y209164D01*
X420816Y209104D01*
X421276Y207323D01*
X421174Y207171D01*
X420941Y206000D01*
X420941Y206000D01*
Y178692D01*
X420937Y178660D01*
X420907Y178532D01*
X420862Y178391D01*
X420798Y178236D01*
X420712Y178066D01*
X420601Y177881D01*
X420464Y177683D01*
X420298Y177471D01*
X420070Y177209D01*
X420010Y177104D01*
X419520Y176616D01*
X418683Y174594D01*
Y172406D01*
X419520Y170385D01*
X421068Y168837D01*
X423089Y168000D01*
X425277D01*
X427299Y168837D01*
X428846Y170385D01*
X429683Y172406D01*
Y174594D01*
X428846Y176616D01*
X428005Y177456D01*
X427893Y177612D01*
X427657Y177834D01*
X427496Y178006D01*
X427365Y178166D01*
X427263Y178313D01*
X427186Y178447D01*
X427129Y178569D01*
X427089Y178681D01*
X427063Y178788D01*
X427059Y178813D01*
Y204733D01*
X550267Y327941D01*
X571000D01*
X571000Y327941D01*
X572170Y328174D01*
X573163Y328837D01*
X583445Y339119D01*
X583468Y339136D01*
X583571Y339199D01*
X583691Y339259D01*
X583832Y339313D01*
X583998Y339363D01*
X584191Y339404D01*
X584413Y339436D01*
X584664Y339455D01*
X585001Y339461D01*
X585179Y339500D01*
X586094D01*
X588116Y340337D01*
X589663Y341884D01*
X590500Y343906D01*
Y346094D01*
X589663Y348116D01*
X588116Y349663D01*
X586094Y350500D01*
X583906D01*
X581884Y349663D01*
X580337Y348116D01*
X579500Y346094D01*
Y345179D01*
X579461Y345001D01*
X579455Y344664D01*
X579436Y344413D01*
X579404Y344191D01*
X579363Y343998D01*
X579313Y343832D01*
X579259Y343691D01*
X579199Y343571D01*
X579136Y343468D01*
X579119Y343444D01*
X569733Y334059D01*
X549506D01*
X548844Y335394D01*
X548831Y335505D01*
X551163Y337837D01*
X551163Y337837D01*
X551826Y338829D01*
X552059Y340000D01*
X552059Y340000D01*
Y353741D01*
X552063Y353770D01*
X552091Y353888D01*
X552134Y354015D01*
X552195Y354153D01*
X552278Y354305D01*
X552385Y354471D01*
X552519Y354651D01*
X552683Y354842D01*
X552917Y355084D01*
X553016Y355238D01*
X553663Y355885D01*
X554500Y357906D01*
Y360094D01*
X553663Y362116D01*
X552116Y363663D01*
X550094Y364500D01*
D02*
G37*
G36*
X171094Y325500D02*
X168906D01*
X166884Y324663D01*
X165337Y323116D01*
X164500Y321094D01*
Y318906D01*
X165337Y316884D01*
X166884Y315337D01*
X168906Y314500D01*
X171094D01*
X173116Y315337D01*
X174663Y316884D01*
X175500Y318906D01*
Y321094D01*
X174663Y323116D01*
X173116Y324663D01*
X171094Y325500D01*
D02*
G37*
G36*
X366094Y306500D02*
X363906D01*
X361884Y305663D01*
X360832Y304610D01*
X359875Y304277D01*
X358918Y304610D01*
X357866Y305663D01*
X355844Y306500D01*
X353656D01*
X351635Y305663D01*
X350855Y304883D01*
X349875Y304252D01*
X348895Y304883D01*
X348116Y305663D01*
X346094Y306500D01*
X343906D01*
X341884Y305663D01*
X340337Y304116D01*
X339500Y302094D01*
Y299906D01*
X340337Y297885D01*
X341884Y296337D01*
X343906Y295500D01*
X346094D01*
X348116Y296337D01*
X348895Y297117D01*
X349875Y297748D01*
X350855Y297117D01*
X351635Y296337D01*
X353656Y295500D01*
X355844D01*
X357866Y296337D01*
X358918Y297390D01*
X359875Y297724D01*
X360832Y297390D01*
X361884Y296337D01*
X363906Y295500D01*
X366094D01*
X368116Y296337D01*
X369663Y297885D01*
X370500Y299906D01*
Y302094D01*
X369663Y304116D01*
X368116Y305663D01*
X366094Y306500D01*
D02*
G37*
G36*
X529094Y274500D02*
X526906D01*
X524884Y273663D01*
X523337Y272115D01*
X522500Y270094D01*
Y267906D01*
X523337Y265884D01*
X524884Y264337D01*
X526906Y263500D01*
X529094D01*
X531115Y264337D01*
X532663Y265884D01*
X533500Y267906D01*
Y270094D01*
X532663Y272115D01*
X531115Y273663D01*
X529094Y274500D01*
D02*
G37*
G36*
X420277Y246500D02*
X418089D01*
X416068Y245663D01*
X414719Y244314D01*
X340000D01*
X338732Y244061D01*
X337657Y243343D01*
X326657Y232343D01*
X325939Y231268D01*
X325686Y230000D01*
Y193373D01*
X235657Y103343D01*
X234939Y102268D01*
X234686Y101000D01*
Y87161D01*
X233803Y86027D01*
X226861D01*
Y133535D01*
X267444Y174119D01*
X267468Y174136D01*
X267571Y174199D01*
X267691Y174259D01*
X267832Y174313D01*
X267998Y174363D01*
X268191Y174404D01*
X268413Y174436D01*
X268664Y174455D01*
X269001Y174461D01*
X269179Y174500D01*
X270094D01*
X272115Y175337D01*
X273663Y176884D01*
X274188Y178153D01*
X275812D01*
X276337Y176884D01*
X277885Y175337D01*
X279906Y174500D01*
X282094D01*
X284116Y175337D01*
X285663Y176884D01*
X286500Y178906D01*
Y181094D01*
X285663Y183116D01*
X284116Y184663D01*
X282094Y185500D01*
X281179D01*
X281001Y185539D01*
X280664Y185545D01*
X280413Y185564D01*
X280191Y185596D01*
X279998Y185637D01*
X279832Y185687D01*
X279691Y185741D01*
X279571Y185801D01*
X279468Y185864D01*
X279445Y185881D01*
X272163Y193163D01*
X271171Y193826D01*
X270000Y194059D01*
X270000Y194059D01*
X234808D01*
X234808Y194059D01*
X233637Y193826D01*
X232645Y193163D01*
X232645Y193163D01*
X127515Y88034D01*
X127289Y87894D01*
X126882Y87695D01*
X126388Y87493D01*
X121485Y86136D01*
X120969Y86027D01*
X120886D01*
X120577Y85944D01*
X120184Y85861D01*
X120182Y85860D01*
X120180Y85860D01*
X120042Y85801D01*
X118343Y85345D01*
X116062Y84029D01*
X114201Y82167D01*
X112884Y79887D01*
X112203Y77343D01*
Y74710D01*
X112884Y72167D01*
X114201Y69887D01*
X116062Y68025D01*
X118343Y66708D01*
X120886Y66027D01*
X123519D01*
X126062Y66708D01*
X128343Y68025D01*
X130204Y69887D01*
X130441Y70297D01*
X131941Y69895D01*
Y57468D01*
X130441Y57237D01*
X128650Y59029D01*
X126255Y60411D01*
X124202Y60961D01*
Y50627D01*
Y40292D01*
X126255Y40842D01*
X128650Y42225D01*
X130580Y44155D01*
X130722Y44157D01*
X132164Y43881D01*
X132174Y43829D01*
X132837Y42837D01*
X132837Y42837D01*
X139186Y36488D01*
X139772Y35902D01*
X139772Y35902D01*
X140765Y35239D01*
X141935Y35006D01*
X156065D01*
X156065Y35006D01*
X157235Y35239D01*
X158228Y35902D01*
X162163Y39837D01*
X162163Y39837D01*
X162826Y40830D01*
X163059Y42000D01*
X163059Y42000D01*
Y44850D01*
X164559Y45252D01*
X165001Y44487D01*
X166862Y42625D01*
X169143Y41308D01*
X171686Y40627D01*
X174319D01*
X176862Y41308D01*
X179143Y42625D01*
X181005Y44487D01*
X182321Y46767D01*
X183002Y49310D01*
Y50505D01*
X183041Y50693D01*
X183049Y51811D01*
X183175Y53783D01*
X183284Y54577D01*
X183425Y55291D01*
X183590Y55900D01*
X183772Y56401D01*
X183961Y56792D01*
X184144Y57080D01*
X184160Y57098D01*
X186748Y59686D01*
X191199D01*
X191820Y58186D01*
X190401Y56767D01*
X189084Y54487D01*
X188403Y51943D01*
Y49310D01*
X189084Y46767D01*
X190401Y44487D01*
X192262Y42625D01*
X194543Y41308D01*
X197086Y40627D01*
X199719D01*
X202262Y41308D01*
X204543Y42625D01*
X206404Y44487D01*
X207721Y46767D01*
X208403Y49310D01*
Y51943D01*
X207721Y54487D01*
X206404Y56767D01*
X204985Y58186D01*
X205606Y59686D01*
X215892D01*
X216513Y58186D01*
X215401Y57074D01*
X214018Y54680D01*
X213468Y52627D01*
X234137D01*
X233587Y54680D01*
X232205Y57074D01*
X231092Y58186D01*
X231714Y59686D01*
X235000D01*
X236268Y59939D01*
X237343Y60657D01*
X240343Y63657D01*
X241061Y64732D01*
X241314Y66000D01*
Y99628D01*
X331343Y189657D01*
X332061Y190732D01*
X332314Y192000D01*
Y228627D01*
X341373Y237686D01*
X414719D01*
X416068Y236337D01*
X418089Y235500D01*
X420277D01*
X422299Y236337D01*
X423846Y237885D01*
X424683Y239906D01*
Y242094D01*
X423846Y244116D01*
X422299Y245663D01*
X420277Y246500D01*
D02*
G37*
G36*
X97094Y237500D02*
X94906D01*
X92885Y236663D01*
X91337Y235116D01*
X90500Y233094D01*
Y230906D01*
X91337Y228885D01*
X92885Y227337D01*
X94906Y226500D01*
X97094D01*
X99115Y227337D01*
X100663Y228885D01*
X101500Y230906D01*
Y233094D01*
X100663Y235116D01*
X99115Y236663D01*
X97094Y237500D01*
D02*
G37*
G36*
X161094Y235500D02*
X158906D01*
X156884Y234663D01*
X155337Y233116D01*
X154500Y231094D01*
Y228906D01*
X155337Y226884D01*
X156884Y225337D01*
X158906Y224500D01*
X161094D01*
X163116Y225337D01*
X164663Y226884D01*
X165500Y228906D01*
Y231094D01*
X164663Y233116D01*
X163116Y234663D01*
X161094Y235500D01*
D02*
G37*
G36*
X265094Y231500D02*
X262906D01*
X260884Y230663D01*
X259337Y229116D01*
X258500Y227094D01*
Y224906D01*
X259337Y222885D01*
X260884Y221337D01*
X262906Y220500D01*
X265094D01*
X267115Y221337D01*
X268663Y222885D01*
X269500Y224906D01*
Y227094D01*
X268663Y229116D01*
X267115Y230663D01*
X265094Y231500D01*
D02*
G37*
G36*
X547094Y274500D02*
X544906D01*
X542884Y273663D01*
X541337Y272115D01*
X540500Y270094D01*
Y267906D01*
X541337Y265884D01*
X541984Y265238D01*
X542083Y265084D01*
X542317Y264842D01*
X542480Y264651D01*
X542615Y264471D01*
X542722Y264305D01*
X542805Y264153D01*
X542866Y264015D01*
X542909Y263888D01*
X542937Y263770D01*
X542941Y263741D01*
Y201000D01*
X542941Y201000D01*
X543174Y199829D01*
X543837Y198837D01*
X554337Y188337D01*
X554337Y188337D01*
X555329Y187674D01*
X556500Y187441D01*
X557619D01*
X557637Y187438D01*
X557725Y187415D01*
X557812Y187382D01*
X557904Y187335D01*
X558007Y187270D01*
X558121Y187180D01*
X558247Y187062D01*
X558277Y187029D01*
X558337Y186884D01*
X559884Y185337D01*
X561906Y184500D01*
X564094D01*
X566115Y185337D01*
X567663Y186884D01*
X568500Y188906D01*
Y191094D01*
X567663Y193116D01*
X566115Y194663D01*
X564094Y195500D01*
X561906D01*
X559884Y194663D01*
X559600Y194378D01*
X559110Y194037D01*
X558898Y193911D01*
X558681Y193799D01*
X558482Y193710D01*
X558300Y193642D01*
X558135Y193594D01*
X557988Y193563D01*
X557953Y193559D01*
X557767D01*
X549059Y202267D01*
Y263741D01*
X549063Y263770D01*
X549091Y263888D01*
X549134Y264015D01*
X549195Y264153D01*
X549278Y264305D01*
X549385Y264471D01*
X549520Y264651D01*
X549683Y264842D01*
X549917Y265084D01*
X550016Y265238D01*
X550663Y265884D01*
X551500Y267906D01*
Y270094D01*
X550663Y272115D01*
X549115Y273663D01*
X547094Y274500D01*
D02*
G37*
G36*
X445277Y193500D02*
X443089D01*
X441068Y192663D01*
X439521Y191115D01*
X438683Y189094D01*
Y186906D01*
X439521Y184884D01*
X441068Y183337D01*
X443089Y182500D01*
X445277D01*
X447299Y183337D01*
X448846Y184884D01*
X449683Y186906D01*
Y189094D01*
X448846Y191115D01*
X447299Y192663D01*
X445277Y193500D01*
D02*
G37*
G36*
X529094Y195500D02*
X526906D01*
X524884Y194663D01*
X523337Y193116D01*
X522500Y191094D01*
Y188906D01*
X523337Y186884D01*
X524884Y185337D01*
X526153Y184812D01*
Y183188D01*
X524884Y182663D01*
X523337Y181115D01*
X522500Y179094D01*
Y176906D01*
X523337Y174884D01*
X524884Y173337D01*
X526906Y172500D01*
X529094D01*
X531115Y173337D01*
X532663Y174884D01*
X533500Y176906D01*
Y179094D01*
X532663Y181115D01*
X531115Y182663D01*
X529847Y183188D01*
Y184812D01*
X531115Y185337D01*
X532663Y186884D01*
X533500Y188906D01*
Y191094D01*
X532663Y193116D01*
X531115Y194663D01*
X529094Y195500D01*
D02*
G37*
G36*
X179094Y174500D02*
X176906D01*
X174884Y173663D01*
X173337Y172115D01*
X172500Y170094D01*
Y167906D01*
X173337Y165884D01*
X174884Y164337D01*
X176906Y163500D01*
X179094D01*
X181115Y164337D01*
X182663Y165884D01*
X183500Y167906D01*
Y170094D01*
X182663Y172115D01*
X181115Y173663D01*
X179094Y174500D01*
D02*
G37*
G36*
X445277Y169500D02*
X443089D01*
X441068Y168663D01*
X439521Y167115D01*
X438683Y165094D01*
Y162906D01*
X439521Y160884D01*
X441068Y159337D01*
X443089Y158500D01*
X445277D01*
X447299Y159337D01*
X448846Y160884D01*
X449683Y162906D01*
Y165094D01*
X448846Y167115D01*
X447299Y168663D01*
X445277Y169500D01*
D02*
G37*
G36*
X603094Y222500D02*
X600906D01*
X598885Y221663D01*
X597337Y220116D01*
X596500Y218094D01*
Y215906D01*
X597337Y213885D01*
X597868Y213354D01*
X597881Y213293D01*
X597900Y213173D01*
X597922Y212852D01*
Y135689D01*
X590311Y128078D01*
X582068D01*
X581845Y128098D01*
X581707Y128119D01*
X581646Y128132D01*
X581115Y128663D01*
X579094Y129500D01*
X576906D01*
X574884Y128663D01*
X573337Y127115D01*
X572500Y125094D01*
Y122906D01*
X573337Y120885D01*
X574884Y119337D01*
X576906Y118500D01*
X579094D01*
X581115Y119337D01*
X581646Y119868D01*
X581707Y119881D01*
X581827Y119900D01*
X582148Y119922D01*
X592000D01*
X592000Y119922D01*
X593561Y120232D01*
X594884Y121116D01*
X604884Y131116D01*
X605768Y132439D01*
X606078Y134000D01*
X606078Y134000D01*
Y212932D01*
X606098Y213155D01*
X606119Y213293D01*
X606132Y213354D01*
X606663Y213885D01*
X607500Y215906D01*
Y218094D01*
X606663Y220116D01*
X605116Y221663D01*
X603094Y222500D01*
D02*
G37*
G36*
X409000Y166059D02*
X409000Y166059D01*
X358000D01*
X356829Y165826D01*
X355837Y165163D01*
X355837Y165163D01*
X354674Y164000D01*
X342000D01*
Y156000D01*
Y150000D01*
X399175D01*
X403011Y152941D01*
X407566D01*
X417901Y142606D01*
X418275Y142046D01*
X429008Y131313D01*
X429029Y131286D01*
X429101Y131171D01*
X429171Y131036D01*
X429239Y130876D01*
X429302Y130690D01*
X429359Y130476D01*
X429407Y130233D01*
X429445Y129961D01*
X429475Y129610D01*
X429500Y129524D01*
Y128906D01*
X430337Y126884D01*
X431884Y125337D01*
X433906Y124500D01*
X436094D01*
X438116Y125337D01*
X439663Y126884D01*
X440500Y128906D01*
Y131094D01*
X439663Y133116D01*
X438116Y134663D01*
X436094Y135500D01*
X434783D01*
X434612Y135525D01*
X434292Y135509D01*
X434064Y135512D01*
X433865Y135530D01*
X433695Y135558D01*
X433551Y135595D01*
X433431Y135639D01*
X433328Y135687D01*
X433237Y135741D01*
X433217Y135755D01*
X427417Y141555D01*
X427991Y142941D01*
X538733D01*
X556119Y125556D01*
X556136Y125532D01*
X556199Y125429D01*
X556259Y125309D01*
X556313Y125168D01*
X556363Y125002D01*
X556404Y124809D01*
X556436Y124587D01*
X556455Y124336D01*
X556461Y123999D01*
X556500Y123821D01*
Y122906D01*
X557337Y120885D01*
X558885Y119337D01*
X560906Y118500D01*
X563094D01*
X565116Y119337D01*
X566663Y120885D01*
X567500Y122906D01*
Y125094D01*
X566663Y127115D01*
X565116Y128663D01*
X563094Y129500D01*
X562179D01*
X562001Y129539D01*
X561664Y129545D01*
X561413Y129564D01*
X561191Y129596D01*
X560998Y129637D01*
X560832Y129687D01*
X560691Y129741D01*
X560571Y129801D01*
X560468Y129864D01*
X560444Y129881D01*
X542163Y148163D01*
X541171Y148826D01*
X540000Y149059D01*
X540000Y149059D01*
X427267D01*
X411163Y165163D01*
X410171Y165826D01*
X409000Y166059D01*
D02*
G37*
G36*
X325094Y128500D02*
X322906D01*
X320885Y127663D01*
X319337Y126116D01*
X318500Y124094D01*
Y121906D01*
X319337Y119885D01*
X320885Y118337D01*
X320946Y118312D01*
Y116688D01*
X320885Y116663D01*
X319337Y115115D01*
X318500Y113094D01*
Y110906D01*
X319337Y108884D01*
X320885Y107337D01*
X322906Y106500D01*
X325094D01*
X327116Y107337D01*
X328663Y108884D01*
X329500Y110906D01*
Y113094D01*
X328663Y115115D01*
X327116Y116663D01*
X327054Y116688D01*
Y118312D01*
X327116Y118337D01*
X328663Y119885D01*
X329500Y121906D01*
Y124094D01*
X328663Y126116D01*
X327116Y127663D01*
X325094Y128500D01*
D02*
G37*
G36*
X120203Y60961D02*
X118150Y60411D01*
X115755Y59029D01*
X113800Y57074D01*
X112418Y54680D01*
X111868Y52627D01*
X120203D01*
Y60961D01*
D02*
G37*
G36*
X234137Y48627D02*
X225802D01*
Y40292D01*
X227855Y40842D01*
X230250Y42225D01*
X232205Y44180D01*
X233587Y46574D01*
X234137Y48627D01*
D02*
G37*
G36*
X221803D02*
X213468D01*
X214018Y46574D01*
X215401Y44180D01*
X217355Y42225D01*
X219750Y40842D01*
X221803Y40292D01*
Y48627D01*
D02*
G37*
G36*
X120203D02*
X111868D01*
X112418Y46574D01*
X113800Y44180D01*
X115755Y42225D01*
X118150Y40842D01*
X120203Y40292D01*
Y48627D01*
D02*
G37*
G36*
X459094Y81500D02*
X456906D01*
X454884Y80663D01*
X453337Y79116D01*
X452500Y77094D01*
Y74906D01*
X453337Y72884D01*
X453412Y72810D01*
Y59000D01*
X453761Y57244D01*
X454756Y55756D01*
X471756Y38756D01*
X473244Y37761D01*
X475000Y37412D01*
X550810D01*
X550885Y37337D01*
X552906Y36500D01*
X555094D01*
X557116Y37337D01*
X558663Y38884D01*
X559500Y40906D01*
Y43094D01*
X558663Y45115D01*
X557116Y46663D01*
X555094Y47500D01*
X552906D01*
X550885Y46663D01*
X550810Y46588D01*
X476900D01*
X462588Y60901D01*
Y72810D01*
X462663Y72884D01*
X463500Y74906D01*
Y77094D01*
X462663Y79116D01*
X461115Y80663D01*
X459094Y81500D01*
D02*
G37*
G36*
X162000Y428608D02*
X161000D01*
X158854Y428181D01*
X157035Y426965D01*
X138035Y407965D01*
X136819Y406146D01*
X136392Y404000D01*
Y147323D01*
X90035Y100965D01*
X88819Y99146D01*
X88392Y97000D01*
Y39000D01*
X88819Y36854D01*
X90035Y35035D01*
X103035Y22035D01*
X104854Y20819D01*
X107000Y20392D01*
X312000D01*
X314146Y20819D01*
X315965Y22035D01*
X401323Y107392D01*
X420000D01*
X420542Y107500D01*
X421094D01*
X421604Y107711D01*
X422146Y107819D01*
X422605Y108126D01*
X423116Y108337D01*
X423506Y108728D01*
X423965Y109035D01*
X424272Y109494D01*
X424663Y109885D01*
X424874Y110395D01*
X425181Y110854D01*
X425289Y111396D01*
X425500Y111906D01*
Y112458D01*
X425608Y113000D01*
X425500Y113542D01*
Y114094D01*
X425289Y114604D01*
X425181Y115146D01*
X424874Y115605D01*
X424663Y116116D01*
X424272Y116506D01*
X423965Y116965D01*
X423506Y117272D01*
X423116Y117663D01*
X422605Y117874D01*
X422146Y118181D01*
X421604Y118289D01*
X421094Y118500D01*
X420542D01*
X420000Y118608D01*
X399000D01*
X396854Y118181D01*
X395035Y116965D01*
X309677Y31608D01*
X109323D01*
X99608Y41323D01*
Y94677D01*
X145965Y141035D01*
X147181Y142854D01*
X147608Y145000D01*
Y401677D01*
X163651Y417721D01*
X164146Y417819D01*
X164605Y418126D01*
X165116Y418337D01*
X165506Y418728D01*
X165965Y419035D01*
X166272Y419494D01*
X166663Y419884D01*
X166874Y420395D01*
X167181Y420854D01*
X167289Y421396D01*
X167500Y421906D01*
Y422458D01*
X167608Y423000D01*
X167500Y423542D01*
Y424094D01*
X167289Y424604D01*
X167181Y425146D01*
X166874Y425605D01*
X166663Y426115D01*
X166272Y426506D01*
X165965Y426965D01*
X165506Y427272D01*
X165116Y427663D01*
X164605Y427874D01*
X164146Y428181D01*
X163604Y428289D01*
X163094Y428500D01*
X162542D01*
X162000Y428608D01*
D02*
G37*
%LPD*%
G36*
X245081Y394795D02*
X245284Y394702D01*
X245414Y394591D01*
X245525Y394443D01*
X245580Y394295D01*
X245599Y394184D01*
X245618Y394091D01*
Y394054D01*
Y392832D01*
X245599Y392684D01*
X245580Y392573D01*
X245543Y392462D01*
X245488Y392369D01*
X245451Y392314D01*
X245414Y392258D01*
X245395Y392240D01*
X245377Y392221D01*
X245192Y392110D01*
X245006Y392054D01*
X244932D01*
X244877Y392036D01*
X244821D01*
X244692Y392054D01*
X244599Y392073D01*
X244414Y392147D01*
X244340Y392184D01*
X244284Y392202D01*
X244266Y392240D01*
X244247D01*
X244173Y392332D01*
X244118Y392425D01*
X244044Y392628D01*
Y392702D01*
X244025Y392777D01*
Y392814D01*
Y392832D01*
Y393258D01*
X240914D01*
X243747Y383222D01*
X243766Y383148D01*
X243784Y383074D01*
Y383018D01*
Y382981D01*
X243766Y382852D01*
X243747Y382741D01*
X243673Y382555D01*
X243599Y382444D01*
X243562Y382426D01*
Y382407D01*
X243377Y382296D01*
X243192Y382241D01*
X243099D01*
X243044Y382222D01*
X242988D01*
X242784Y382241D01*
X242636Y382315D01*
X242525Y382370D01*
X242507Y382389D01*
X242488D01*
X242414Y382463D01*
X242340Y382537D01*
X242266Y382667D01*
X242210Y382778D01*
Y382796D01*
Y382815D01*
X239155Y393851D01*
X239118Y394147D01*
Y394276D01*
X239155Y394369D01*
X239248Y394536D01*
X239377Y394665D01*
X239526Y394739D01*
X239674Y394795D01*
X239803Y394813D01*
X239896Y394832D01*
X244969D01*
X245081Y394795D01*
D02*
G37*
G36*
X234471Y394813D02*
X234730Y394776D01*
X234822Y394739D01*
X234896Y394721D01*
X234952Y394702D01*
X234970D01*
X235248Y394610D01*
X235470Y394499D01*
X235581Y394443D01*
X235655Y394406D01*
X235693Y394388D01*
X235711Y394369D01*
X235989Y394184D01*
X236230Y393999D01*
X236433Y393814D01*
X236600Y393628D01*
X236748Y393462D01*
X236841Y393332D01*
X236915Y393258D01*
X236933Y393221D01*
X236989Y393054D01*
X237026Y392906D01*
X237044Y392832D01*
Y392795D01*
X237026Y392684D01*
X237007Y392573D01*
X236915Y392388D01*
X236822Y392277D01*
X236804Y392258D01*
X236785Y392240D01*
X236693Y392165D01*
X236581Y392110D01*
X236396Y392054D01*
X236304Y392036D01*
X236248Y392017D01*
X236192D01*
X235878Y392091D01*
X235730Y392202D01*
X235637Y392295D01*
X235581Y392369D01*
X235563Y392388D01*
X235341Y392665D01*
X235119Y392869D01*
X235026Y392943D01*
X234952Y392999D01*
X234896Y393036D01*
X234878Y393054D01*
X234748Y393128D01*
X234619Y393165D01*
X234359Y393240D01*
X234267D01*
X234193Y393258D01*
X234119D01*
X233822Y393240D01*
X233693Y393221D01*
X233582Y393184D01*
X233489Y393165D01*
X233415Y393128D01*
X233378Y393110D01*
X233360D01*
X233119Y392980D01*
X232915Y392851D01*
X232841Y392795D01*
X232785Y392739D01*
X232748Y392721D01*
X232730Y392702D01*
X232545Y392499D01*
X232415Y392295D01*
X232304Y392091D01*
X232248Y391906D01*
X232211Y391740D01*
X232174Y391591D01*
Y391517D01*
Y391480D01*
Y391332D01*
X232211Y391184D01*
X232248Y391036D01*
X232285Y390906D01*
X232323Y390795D01*
X232360Y390721D01*
X232378Y390666D01*
X232397Y390647D01*
X236915Y383426D01*
X237007Y383222D01*
X237063Y383055D01*
X237081Y382926D01*
Y382907D01*
Y382889D01*
X237063Y382778D01*
X237044Y382667D01*
X236952Y382500D01*
X236804Y382389D01*
X236655Y382315D01*
X236507Y382259D01*
X236359Y382241D01*
X236267Y382222D01*
X231341D01*
X231193Y382241D01*
X231082Y382259D01*
X230971Y382296D01*
X230878Y382352D01*
X230823Y382407D01*
X230767Y382444D01*
X230730Y382463D01*
Y382481D01*
X230656Y382574D01*
X230619Y382667D01*
X230545Y382852D01*
Y382926D01*
X230526Y382963D01*
Y383000D01*
Y383018D01*
X230545Y383129D01*
X230564Y383222D01*
X230637Y383389D01*
X230730Y383500D01*
X230749Y383518D01*
X230767Y383537D01*
X230860Y383629D01*
X230952Y383685D01*
X231138Y383759D01*
X231212Y383778D01*
X231286Y383796D01*
X234952D01*
X231026Y389814D01*
X230878Y390129D01*
X230767Y390425D01*
X230693Y390703D01*
X230637Y390943D01*
X230600Y391147D01*
X230582Y391314D01*
Y391406D01*
Y391443D01*
X230600Y391703D01*
X230619Y391943D01*
X230675Y392165D01*
X230749Y392388D01*
X230915Y392795D01*
X231101Y393147D01*
X231304Y393425D01*
X231397Y393536D01*
X231471Y393628D01*
X231545Y393721D01*
X231600Y393777D01*
X231619Y393795D01*
X231637Y393814D01*
X231841Y393999D01*
X232045Y394147D01*
X232267Y394295D01*
X232489Y394406D01*
X232915Y394591D01*
X233304Y394702D01*
X233656Y394776D01*
X233804Y394795D01*
X233934Y394813D01*
X234045Y394832D01*
X234193D01*
X234471Y394813D01*
D02*
G37*
G36*
X217287D02*
X217546Y394776D01*
X217639Y394739D01*
X217713Y394721D01*
X217768Y394702D01*
X217787D01*
X218065Y394610D01*
X218287Y394499D01*
X218398Y394443D01*
X218472Y394406D01*
X218509Y394388D01*
X218528Y394369D01*
X218805Y394184D01*
X219046Y393999D01*
X219250Y393814D01*
X219417Y393628D01*
X219565Y393462D01*
X219657Y393332D01*
X219731Y393258D01*
X219750Y393221D01*
X219805Y393054D01*
X219842Y392906D01*
X219861Y392832D01*
Y392795D01*
X219842Y392684D01*
X219824Y392573D01*
X219731Y392388D01*
X219639Y392277D01*
X219620Y392258D01*
X219602Y392240D01*
X219509Y392165D01*
X219398Y392110D01*
X219213Y392054D01*
X219120Y392036D01*
X219065Y392017D01*
X219009D01*
X218694Y392091D01*
X218546Y392202D01*
X218454Y392295D01*
X218398Y392369D01*
X218379Y392388D01*
X218157Y392665D01*
X217935Y392869D01*
X217843Y392943D01*
X217768Y392999D01*
X217713Y393036D01*
X217694Y393054D01*
X217565Y393128D01*
X217435Y393165D01*
X217176Y393240D01*
X217083D01*
X217009Y393258D01*
X216935D01*
X216639Y393240D01*
X216509Y393221D01*
X216398Y393184D01*
X216306Y393165D01*
X216232Y393128D01*
X216195Y393110D01*
X216176D01*
X215935Y392980D01*
X215732Y392851D01*
X215658Y392795D01*
X215602Y392739D01*
X215565Y392721D01*
X215546Y392702D01*
X215361Y392499D01*
X215232Y392295D01*
X215121Y392091D01*
X215065Y391906D01*
X215028Y391740D01*
X214991Y391591D01*
Y391517D01*
Y391480D01*
Y391332D01*
X215028Y391184D01*
X215065Y391036D01*
X215102Y390906D01*
X215139Y390795D01*
X215176Y390721D01*
X215195Y390666D01*
X215213Y390647D01*
X219731Y383426D01*
X219824Y383222D01*
X219879Y383055D01*
X219898Y382926D01*
Y382907D01*
Y382889D01*
X219879Y382778D01*
X219861Y382667D01*
X219768Y382500D01*
X219620Y382389D01*
X219472Y382315D01*
X219324Y382259D01*
X219176Y382241D01*
X219083Y382222D01*
X214158D01*
X214010Y382241D01*
X213899Y382259D01*
X213787Y382296D01*
X213695Y382352D01*
X213639Y382407D01*
X213584Y382444D01*
X213547Y382463D01*
Y382481D01*
X213473Y382574D01*
X213436Y382667D01*
X213361Y382852D01*
Y382926D01*
X213343Y382963D01*
Y383000D01*
Y383018D01*
X213361Y383129D01*
X213380Y383222D01*
X213454Y383389D01*
X213547Y383500D01*
X213565Y383518D01*
X213584Y383537D01*
X213676Y383629D01*
X213769Y383685D01*
X213954Y383759D01*
X214028Y383778D01*
X214102Y383796D01*
X217768D01*
X213843Y389814D01*
X213695Y390129D01*
X213584Y390425D01*
X213510Y390703D01*
X213454Y390943D01*
X213417Y391147D01*
X213399Y391314D01*
Y391406D01*
Y391443D01*
X213417Y391703D01*
X213436Y391943D01*
X213491Y392165D01*
X213565Y392388D01*
X213732Y392795D01*
X213917Y393147D01*
X214121Y393425D01*
X214213Y393536D01*
X214287Y393628D01*
X214361Y393721D01*
X214417Y393777D01*
X214436Y393795D01*
X214454Y393814D01*
X214658Y393999D01*
X214861Y394147D01*
X215084Y394295D01*
X215306Y394406D01*
X215732Y394591D01*
X216120Y394702D01*
X216472Y394776D01*
X216621Y394795D01*
X216750Y394813D01*
X216861Y394832D01*
X217009D01*
X217287Y394813D01*
D02*
G37*
G36*
X187142Y394906D02*
X187272Y394869D01*
X187346Y394832D01*
X187383Y394813D01*
X187494Y394739D01*
X187586Y394665D01*
X187661Y394610D01*
X187679Y394591D01*
X190142Y392128D01*
X190216Y392036D01*
X190271Y391943D01*
X190327Y391758D01*
X190345Y391703D01*
X190364Y391647D01*
Y391610D01*
Y391591D01*
X190345Y391480D01*
X190327Y391369D01*
X190234Y391184D01*
X190197Y391110D01*
X190160Y391054D01*
X190142Y391036D01*
X190123Y391017D01*
X190031Y390943D01*
X189919Y390888D01*
X189753Y390832D01*
X189679Y390814D01*
X189623Y390795D01*
X189568D01*
X189457Y390814D01*
X189345Y390832D01*
X189179Y390906D01*
X189105Y390943D01*
X189049Y390980D01*
X189031Y391017D01*
X189012D01*
X187901Y392388D01*
Y383018D01*
X187883Y382870D01*
X187864Y382759D01*
X187827Y382648D01*
X187790Y382555D01*
X187753Y382500D01*
X187716Y382444D01*
X187679Y382426D01*
Y382407D01*
X187494Y382296D01*
X187309Y382241D01*
X187216D01*
X187161Y382222D01*
X187105D01*
X186975Y382241D01*
X186883Y382259D01*
X186698Y382333D01*
X186624Y382370D01*
X186568Y382389D01*
X186549Y382426D01*
X186531D01*
X186457Y382518D01*
X186401Y382611D01*
X186327Y382815D01*
Y382889D01*
X186309Y382963D01*
Y383000D01*
Y383018D01*
Y394054D01*
Y394184D01*
X186346Y394313D01*
X186401Y394517D01*
X186438Y394591D01*
X186475Y394647D01*
X186494Y394665D01*
X186513Y394684D01*
X186605Y394758D01*
X186698Y394832D01*
X186846Y394888D01*
X186957Y394925D01*
X186994D01*
X187142Y394906D01*
D02*
G37*
G36*
X306463Y394795D02*
X306667Y394702D01*
X306796Y394573D01*
X306907Y394443D01*
X306963Y394295D01*
X306982Y394165D01*
X307000Y394073D01*
Y394054D01*
Y394036D01*
Y383018D01*
X306982Y382870D01*
X306963Y382759D01*
X306870Y382555D01*
X306741Y382426D01*
X306593Y382315D01*
X306463Y382259D01*
X306333Y382241D01*
X306241Y382222D01*
X301926D01*
X301538Y382259D01*
X301167Y382333D01*
X300853Y382463D01*
X300575Y382611D01*
X300352Y382741D01*
X300186Y382870D01*
X300093Y382944D01*
X300056Y382981D01*
X299797Y383278D01*
X299612Y383611D01*
X299464Y383907D01*
X299371Y384203D01*
X299316Y384463D01*
X299297Y384666D01*
X299279Y384740D01*
Y384796D01*
Y384833D01*
Y384851D01*
Y387296D01*
X299297Y387555D01*
X299334Y387777D01*
X299390Y387999D01*
X299445Y388184D01*
X299519Y388351D01*
X299575Y388462D01*
X299612Y388555D01*
X299630Y388573D01*
X299760Y388777D01*
X299908Y388962D01*
X300056Y389110D01*
X300186Y389221D01*
X300297Y389314D01*
X300390Y389370D01*
X300445Y389407D01*
X300464Y389425D01*
X300278Y389647D01*
X300149Y389869D01*
X300093Y389962D01*
X300056Y390036D01*
X300038Y390092D01*
Y390110D01*
X299945Y390425D01*
X299927Y390573D01*
X299908Y390703D01*
X299890Y390814D01*
Y390906D01*
Y390962D01*
Y390980D01*
Y392202D01*
X299927Y392591D01*
X300019Y392943D01*
X300130Y393258D01*
X300278Y393536D01*
X300427Y393758D01*
X300538Y393925D01*
X300630Y394017D01*
X300667Y394054D01*
X300964Y394313D01*
X301278Y394499D01*
X301593Y394647D01*
X301889Y394739D01*
X302149Y394795D01*
X302352Y394813D01*
X302426Y394832D01*
X306352D01*
X306463Y394795D01*
D02*
G37*
G36*
X296649D02*
X296853Y394702D01*
X296982Y394573D01*
X297094Y394443D01*
X297149Y394295D01*
X297168Y394165D01*
X297186Y394073D01*
Y394054D01*
Y394036D01*
Y383018D01*
X297168Y382870D01*
X297149Y382759D01*
X297112Y382648D01*
X297075Y382555D01*
X297038Y382500D01*
X297001Y382444D01*
X296964Y382426D01*
Y382407D01*
X296779Y382296D01*
X296594Y382241D01*
X296501D01*
X296446Y382222D01*
X296390D01*
X296260Y382241D01*
X296168Y382259D01*
X295983Y382333D01*
X295909Y382370D01*
X295853Y382389D01*
X295835Y382426D01*
X295816D01*
X295742Y382518D01*
X295686Y382611D01*
X295612Y382815D01*
Y382889D01*
X295594Y382963D01*
Y383000D01*
Y383018D01*
Y387129D01*
X292113D01*
X291724Y387166D01*
X291353Y387240D01*
X291039Y387370D01*
X290761Y387518D01*
X290539Y387648D01*
X290372Y387777D01*
X290280Y387851D01*
X290243Y387888D01*
X289983Y388184D01*
X289798Y388518D01*
X289650Y388814D01*
X289557Y389110D01*
X289502Y389370D01*
X289483Y389573D01*
X289465Y389647D01*
Y389703D01*
Y389740D01*
Y389758D01*
Y392202D01*
X289502Y392591D01*
X289594Y392943D01*
X289706Y393258D01*
X289854Y393536D01*
X290002Y393758D01*
X290113Y393925D01*
X290205Y394017D01*
X290243Y394054D01*
X290539Y394313D01*
X290854Y394499D01*
X291168Y394647D01*
X291465Y394739D01*
X291724Y394795D01*
X291928Y394813D01*
X292001Y394832D01*
X296538D01*
X296649Y394795D01*
D02*
G37*
G36*
X286835D02*
X287039Y394702D01*
X287169Y394573D01*
X287280Y394443D01*
X287335Y394295D01*
X287354Y394165D01*
X287372Y394073D01*
Y394054D01*
Y394036D01*
Y383018D01*
X287354Y382870D01*
X287335Y382759D01*
X287298Y382648D01*
X287261Y382555D01*
X287224Y382500D01*
X287187Y382444D01*
X287150Y382426D01*
Y382407D01*
X286965Y382296D01*
X286780Y382241D01*
X286687D01*
X286632Y382222D01*
X286576D01*
X286447Y382241D01*
X286354Y382259D01*
X286169Y382333D01*
X286095Y382370D01*
X286039Y382389D01*
X286021Y382426D01*
X286002D01*
X285928Y382518D01*
X285873Y382611D01*
X285798Y382815D01*
Y382889D01*
X285780Y382963D01*
Y383000D01*
Y383018D01*
Y393258D01*
X281688D01*
X281540Y393276D01*
X281429Y393295D01*
X281318Y393332D01*
X281225Y393388D01*
X281169Y393443D01*
X281114Y393480D01*
X281077Y393499D01*
Y393517D01*
X281003Y393610D01*
X280966Y393702D01*
X280892Y393888D01*
Y393962D01*
X280873Y393999D01*
Y394036D01*
Y394054D01*
X280892Y394165D01*
X280910Y394258D01*
X280984Y394425D01*
X281077Y394536D01*
X281095Y394554D01*
X281114Y394573D01*
X281206Y394665D01*
X281299Y394721D01*
X281484Y394795D01*
X281558Y394813D01*
X281632Y394832D01*
X286724D01*
X286835Y394795D01*
D02*
G37*
G36*
X267060Y383778D02*
X267171Y383759D01*
X267356Y383685D01*
X267411Y383629D01*
X267467Y383592D01*
X267486Y383574D01*
X267504Y383555D01*
X267578Y383463D01*
X267634Y383370D01*
X267689Y383204D01*
X267708Y383129D01*
X267726Y383074D01*
Y383037D01*
Y383018D01*
X267708Y382907D01*
X267689Y382796D01*
X267615Y382611D01*
X267578Y382537D01*
X267541Y382481D01*
X267504Y382463D01*
Y382444D01*
X267411Y382370D01*
X267319Y382315D01*
X267134Y382259D01*
X267060Y382241D01*
X266986Y382222D01*
X266930D01*
X266819Y382241D01*
X266708Y382259D01*
X266523Y382352D01*
X266412Y382426D01*
X266393Y382444D01*
X266375Y382463D01*
X266301Y382555D01*
X266226Y382667D01*
X266171Y382833D01*
X266152Y382907D01*
X266134Y382963D01*
Y383000D01*
Y383018D01*
X266152Y383129D01*
X266171Y383241D01*
X266264Y383407D01*
X266375Y383518D01*
X266393Y383537D01*
X266412Y383555D01*
X266504Y383629D01*
X266597Y383703D01*
X266763Y383759D01*
X266893Y383796D01*
X266930D01*
X267060Y383778D01*
D02*
G37*
G36*
X259857Y394758D02*
X260301Y394536D01*
X260709Y394295D01*
X261060Y394054D01*
X261375Y393832D01*
X261634Y393610D01*
X261819Y393443D01*
X261894Y393388D01*
X261949Y393332D01*
X261968Y393313D01*
X261986Y393295D01*
X262301Y392943D01*
X262579Y392554D01*
X262819Y392184D01*
X263023Y391832D01*
X263171Y391517D01*
X263227Y391369D01*
X263282Y391258D01*
X263319Y391166D01*
X263356Y391091D01*
X263375Y391054D01*
Y391036D01*
X263597Y390518D01*
X263745Y389981D01*
X263856Y389444D01*
X263949Y388962D01*
X263967Y388740D01*
X263986Y388536D01*
X264004Y388370D01*
Y388203D01*
X264023Y388073D01*
Y387981D01*
Y387925D01*
Y387907D01*
Y384851D01*
X263986Y384444D01*
X263893Y384092D01*
X263782Y383778D01*
X263634Y383500D01*
X263486Y383278D01*
X263375Y383111D01*
X263282Y383018D01*
X263245Y382981D01*
X262949Y382722D01*
X262634Y382537D01*
X262319Y382407D01*
X262023Y382315D01*
X261782Y382259D01*
X261579Y382241D01*
X261505Y382222D01*
X260172D01*
X259783Y382259D01*
X259412Y382333D01*
X259098Y382463D01*
X258820Y382611D01*
X258598Y382741D01*
X258431Y382870D01*
X258338Y382944D01*
X258301Y382981D01*
X258042Y383278D01*
X257857Y383611D01*
X257709Y383907D01*
X257616Y384203D01*
X257561Y384463D01*
X257542Y384666D01*
X257524Y384740D01*
Y384796D01*
Y384833D01*
Y384851D01*
Y387296D01*
Y387499D01*
X257561Y387685D01*
X257653Y388055D01*
X257783Y388370D01*
X257913Y388629D01*
X258061Y388851D01*
X258190Y389018D01*
X258283Y389110D01*
X258301Y389147D01*
X258320D01*
X258616Y389407D01*
X258931Y389592D01*
X259246Y389740D01*
X259542Y389832D01*
X259783Y389888D01*
X259986Y389907D01*
X260060Y389925D01*
X262208D01*
X262060Y390203D01*
X261912Y390610D01*
X261745Y390943D01*
X261579Y391258D01*
X261394Y391554D01*
X261227Y391795D01*
X261060Y391980D01*
X260931Y392128D01*
X260857Y392221D01*
X260820Y392258D01*
X260560Y392499D01*
X260338Y392684D01*
X260246Y392739D01*
X260190Y392795D01*
X260153Y392814D01*
X260135Y392832D01*
X259949Y392962D01*
X259801Y393036D01*
X259727Y393091D01*
X259690Y393110D01*
X259542Y393184D01*
X259394Y393240D01*
X259283Y393276D01*
X259264Y393295D01*
X259246D01*
X259079Y393425D01*
X258949Y393517D01*
X258894Y393591D01*
X258875Y393628D01*
X258801Y393758D01*
X258783Y393888D01*
X258764Y393980D01*
Y393999D01*
Y394017D01*
Y394128D01*
X258801Y394221D01*
X258857Y394406D01*
X258894Y394480D01*
X258931Y394536D01*
X258949Y394554D01*
X258968Y394573D01*
X259060Y394665D01*
X259153Y394721D01*
X259357Y394795D01*
X259431Y394813D01*
X259505Y394832D01*
X259561D01*
X259857Y394758D01*
D02*
G37*
G36*
X251858Y394813D02*
X252117Y394795D01*
X252598Y394665D01*
X253024Y394499D01*
X253376Y394313D01*
X253524Y394221D01*
X253654Y394128D01*
X253765Y394036D01*
X253857Y393962D01*
X253931Y393888D01*
X253987Y393832D01*
X254006Y393814D01*
X254024Y393795D01*
X254283Y393443D01*
X254468Y393054D01*
X254617Y392684D01*
X254709Y392351D01*
X254765Y392054D01*
X254783Y391925D01*
Y391814D01*
X254802Y391721D01*
Y391647D01*
Y391610D01*
Y391591D01*
X254783Y391332D01*
X254765Y391073D01*
X254709Y390832D01*
X254654Y390610D01*
X254617Y390443D01*
X254561Y390295D01*
X254543Y390221D01*
X254524Y390184D01*
X254413Y389962D01*
X254283Y389758D01*
X254154Y389592D01*
X254042Y389462D01*
X253931Y389370D01*
X253857Y389295D01*
X253802Y389258D01*
X253783Y389240D01*
X254061Y389073D01*
X254302Y388870D01*
X254524Y388666D01*
X254691Y388444D01*
X254820Y388259D01*
X254931Y388110D01*
X254987Y387999D01*
X255005Y387981D01*
Y387962D01*
X255154Y387629D01*
X255246Y387296D01*
X255320Y386981D01*
X255376Y386685D01*
X255413Y386444D01*
X255431Y386240D01*
Y386166D01*
Y386111D01*
Y386092D01*
Y386073D01*
X255413Y385777D01*
X255376Y385499D01*
X255320Y385240D01*
X255246Y384981D01*
X255061Y384518D01*
X254950Y384314D01*
X254839Y384111D01*
X254728Y383944D01*
X254617Y383796D01*
X254524Y383666D01*
X254431Y383555D01*
X254357Y383463D01*
X254302Y383407D01*
X254265Y383370D01*
X254246Y383352D01*
X254080Y383148D01*
X253894Y382981D01*
X253691Y382833D01*
X253468Y382704D01*
X253246Y382592D01*
X253024Y382500D01*
X252598Y382370D01*
X252191Y382278D01*
X252024Y382259D01*
X251876Y382241D01*
X251747Y382222D01*
X251580D01*
X251246Y382241D01*
X250932Y382278D01*
X250636Y382333D01*
X250358Y382407D01*
X250098Y382481D01*
X249876Y382592D01*
X249673Y382685D01*
X249469Y382796D01*
X249302Y382907D01*
X249173Y383000D01*
X249043Y383111D01*
X248951Y383185D01*
X248858Y383259D01*
X248802Y383315D01*
X248784Y383352D01*
X248765Y383370D01*
X248580Y383592D01*
X248414Y383833D01*
X248265Y384055D01*
X248136Y384296D01*
X248043Y384518D01*
X247951Y384740D01*
X247821Y385166D01*
X247784Y385351D01*
X247747Y385537D01*
X247728Y385685D01*
X247710Y385814D01*
X247691Y385925D01*
Y385999D01*
Y386055D01*
Y386073D01*
X247710Y386444D01*
X247765Y386796D01*
X247840Y387110D01*
X247913Y387388D01*
X248006Y387629D01*
X248080Y387814D01*
X248117Y387870D01*
X248136Y387925D01*
X248154Y387944D01*
Y387962D01*
X248339Y388277D01*
X248525Y388536D01*
X248728Y388759D01*
X248913Y388925D01*
X249099Y389055D01*
X249228Y389147D01*
X249321Y389203D01*
X249358Y389221D01*
X249191Y389351D01*
X249043Y389499D01*
X248913Y389666D01*
X248802Y389814D01*
X248710Y389962D01*
X248654Y390073D01*
X248617Y390147D01*
X248599Y390184D01*
X248506Y390443D01*
X248432Y390703D01*
X248395Y390925D01*
X248358Y391147D01*
X248339Y391332D01*
X248321Y391462D01*
Y391554D01*
Y391591D01*
Y391832D01*
X248358Y392054D01*
X248451Y392480D01*
X248580Y392851D01*
X248728Y393184D01*
X248876Y393443D01*
X249006Y393628D01*
X249062Y393702D01*
X249099Y393758D01*
X249117Y393777D01*
X249136Y393795D01*
X249321Y393980D01*
X249506Y394147D01*
X249710Y394276D01*
X249913Y394388D01*
X250321Y394573D01*
X250709Y394702D01*
X251061Y394776D01*
X251210Y394795D01*
X251339Y394813D01*
X251432Y394832D01*
X251580D01*
X251858Y394813D01*
D02*
G37*
G36*
X227897Y394795D02*
X228101Y394702D01*
X228230Y394573D01*
X228342Y394443D01*
X228397Y394295D01*
X228416Y394165D01*
X228434Y394073D01*
Y394054D01*
Y394036D01*
Y389147D01*
X228416Y388999D01*
X228397Y388888D01*
X228304Y388684D01*
X228175Y388555D01*
X228027Y388444D01*
X227897Y388388D01*
X227768Y388370D01*
X227675Y388351D01*
X225194D01*
X224934Y388333D01*
X224712Y388277D01*
X224508Y388184D01*
X224342Y388110D01*
X224194Y388018D01*
X224101Y387925D01*
X224027Y387870D01*
X224009Y387851D01*
X223842Y387666D01*
X223731Y387462D01*
X223638Y387277D01*
X223583Y387092D01*
X223546Y386925D01*
X223527Y386796D01*
Y386722D01*
Y386685D01*
Y385462D01*
X223546Y385203D01*
X223601Y384963D01*
X223694Y384759D01*
X223768Y384592D01*
X223860Y384444D01*
X223953Y384352D01*
X224009Y384277D01*
X224027Y384259D01*
X224212Y384111D01*
X224416Y384000D01*
X224601Y383907D01*
X224786Y383852D01*
X224953Y383815D01*
X225083Y383796D01*
X227638D01*
X227768Y383778D01*
X227897Y383759D01*
X228082Y383666D01*
X228138Y383611D01*
X228193Y383574D01*
X228212Y383555D01*
X228230Y383537D01*
X228304Y383444D01*
X228342Y383352D01*
X228416Y383185D01*
X228434Y383055D01*
Y383037D01*
Y383018D01*
X228416Y382889D01*
X228397Y382778D01*
X228323Y382592D01*
X228286Y382518D01*
X228267Y382481D01*
X228230Y382444D01*
Y382426D01*
X228138Y382352D01*
X228045Y382315D01*
X227841Y382241D01*
X227768D01*
X227693Y382222D01*
X225194D01*
X224953Y382241D01*
X224712Y382259D01*
X224268Y382370D01*
X223879Y382518D01*
X223546Y382704D01*
X223268Y382870D01*
X223157Y382944D01*
X223064Y383018D01*
X222990Y383074D01*
X222935Y383129D01*
X222916Y383148D01*
X222898Y383166D01*
X222731Y383352D01*
X222583Y383537D01*
X222453Y383741D01*
X222342Y383926D01*
X222176Y384314D01*
X222046Y384685D01*
X221990Y385000D01*
X221972Y385129D01*
X221953Y385240D01*
X221935Y385333D01*
Y385407D01*
Y385444D01*
Y385462D01*
Y386685D01*
X221953Y386925D01*
X221972Y387166D01*
X222083Y387610D01*
X222231Y387999D01*
X222416Y388333D01*
X222601Y388592D01*
X222675Y388703D01*
X222750Y388796D01*
X222805Y388870D01*
X222861Y388925D01*
X222879Y388944D01*
X222898Y388962D01*
X223083Y389129D01*
X223268Y389277D01*
X223472Y389407D01*
X223657Y389518D01*
X224046Y389684D01*
X224397Y389814D01*
X224712Y389869D01*
X224860Y389888D01*
X224972Y389907D01*
X225064Y389925D01*
X226842D01*
Y393258D01*
X222750D01*
X222601Y393276D01*
X222490Y393295D01*
X222379Y393332D01*
X222287Y393388D01*
X222231Y393443D01*
X222176Y393480D01*
X222138Y393499D01*
Y393517D01*
X222064Y393610D01*
X222027Y393702D01*
X221953Y393888D01*
Y393962D01*
X221935Y393999D01*
Y394036D01*
Y394054D01*
X221953Y394165D01*
X221972Y394258D01*
X222046Y394425D01*
X222138Y394536D01*
X222157Y394554D01*
X222176Y394573D01*
X222268Y394665D01*
X222361Y394721D01*
X222546Y394795D01*
X222620Y394813D01*
X222694Y394832D01*
X227786D01*
X227897Y394795D01*
D02*
G37*
G36*
X210584Y383778D02*
X210695Y383759D01*
X210880Y383685D01*
X210936Y383629D01*
X210991Y383592D01*
X211010Y383574D01*
X211028Y383555D01*
X211103Y383463D01*
X211158Y383370D01*
X211214Y383204D01*
X211232Y383129D01*
X211251Y383074D01*
Y383037D01*
Y383018D01*
X211232Y382907D01*
X211214Y382796D01*
X211140Y382611D01*
X211103Y382537D01*
X211066Y382481D01*
X211028Y382463D01*
Y382444D01*
X210936Y382370D01*
X210843Y382315D01*
X210658Y382259D01*
X210584Y382241D01*
X210510Y382222D01*
X210454D01*
X210343Y382241D01*
X210232Y382259D01*
X210047Y382352D01*
X209936Y382426D01*
X209918Y382444D01*
X209899Y382463D01*
X209825Y382555D01*
X209751Y382667D01*
X209695Y382833D01*
X209677Y382907D01*
X209658Y382963D01*
Y383000D01*
Y383018D01*
X209677Y383129D01*
X209695Y383241D01*
X209788Y383407D01*
X209899Y383518D01*
X209918Y383537D01*
X209936Y383555D01*
X210029Y383629D01*
X210121Y383703D01*
X210288Y383759D01*
X210417Y383796D01*
X210454D01*
X210584Y383778D01*
D02*
G37*
G36*
X205103Y394795D02*
X205511Y394702D01*
X205844Y394554D01*
X206140Y394406D01*
X206381Y394239D01*
X206566Y394091D01*
X206677Y393999D01*
X206696Y393980D01*
X206714Y393962D01*
X206862Y393795D01*
X206992Y393628D01*
X207195Y393276D01*
X207344Y392943D01*
X207436Y392628D01*
X207510Y392369D01*
X207529Y392147D01*
X207547Y392073D01*
Y392017D01*
Y391980D01*
Y391962D01*
Y385092D01*
X207529Y384870D01*
X207510Y384648D01*
X207418Y384259D01*
X207270Y383907D01*
X207122Y383611D01*
X206973Y383370D01*
X206825Y383185D01*
X206733Y383074D01*
X206696Y383055D01*
Y383037D01*
X206529Y382889D01*
X206362Y382778D01*
X206029Y382574D01*
X205677Y382426D01*
X205362Y382333D01*
X205085Y382259D01*
X204974Y382241D01*
X204881D01*
X204788Y382222D01*
X203937D01*
X203714Y382241D01*
X203511Y382259D01*
X203103Y382352D01*
X202770Y382500D01*
X202474Y382648D01*
X202233Y382796D01*
X202048Y382944D01*
X201937Y383037D01*
X201900Y383074D01*
X201752Y383241D01*
X201622Y383407D01*
X201400Y383741D01*
X201252Y384092D01*
X201159Y384407D01*
X201085Y384685D01*
X201066Y384796D01*
Y384888D01*
X201048Y384981D01*
Y385037D01*
Y385074D01*
Y385092D01*
Y391962D01*
Y392184D01*
X201085Y392388D01*
X201178Y392777D01*
X201326Y393128D01*
X201474Y393425D01*
X201640Y393647D01*
X201789Y393832D01*
X201881Y393943D01*
X201900Y393980D01*
X201918D01*
X202085Y394128D01*
X202252Y394258D01*
X202585Y394480D01*
X202937Y394628D01*
X203251Y394721D01*
X203529Y394795D01*
X203640Y394813D01*
X203733D01*
X203825Y394832D01*
X204900D01*
X205103Y394795D01*
D02*
G37*
G36*
X196511D02*
X196919Y394702D01*
X197252Y394554D01*
X197548Y394406D01*
X197789Y394239D01*
X197974Y394091D01*
X198085Y393999D01*
X198104Y393980D01*
X198122Y393962D01*
X198270Y393795D01*
X198400Y393628D01*
X198604Y393276D01*
X198752Y392943D01*
X198845Y392628D01*
X198919Y392369D01*
X198937Y392147D01*
X198956Y392073D01*
Y392017D01*
Y391980D01*
Y391962D01*
Y385092D01*
X198937Y384870D01*
X198919Y384648D01*
X198826Y384259D01*
X198678Y383907D01*
X198530Y383611D01*
X198382Y383370D01*
X198234Y383185D01*
X198141Y383074D01*
X198104Y383055D01*
Y383037D01*
X197937Y382889D01*
X197771Y382778D01*
X197437Y382574D01*
X197085Y382426D01*
X196771Y382333D01*
X196493Y382259D01*
X196382Y382241D01*
X196289D01*
X196197Y382222D01*
X195345D01*
X195123Y382241D01*
X194919Y382259D01*
X194512Y382352D01*
X194178Y382500D01*
X193882Y382648D01*
X193641Y382796D01*
X193456Y382944D01*
X193345Y383037D01*
X193308Y383074D01*
X193160Y383241D01*
X193030Y383407D01*
X192808Y383741D01*
X192660Y384092D01*
X192567Y384407D01*
X192493Y384685D01*
X192475Y384796D01*
Y384888D01*
X192456Y384981D01*
Y385037D01*
Y385074D01*
Y385092D01*
Y391962D01*
Y392184D01*
X192493Y392388D01*
X192586Y392777D01*
X192734Y393128D01*
X192882Y393425D01*
X193049Y393647D01*
X193197Y393832D01*
X193290Y393943D01*
X193308Y393980D01*
X193327D01*
X193493Y394128D01*
X193660Y394258D01*
X193993Y394480D01*
X194345Y394628D01*
X194660Y394721D01*
X194937Y394795D01*
X195049Y394813D01*
X195141D01*
X195234Y394832D01*
X196308D01*
X196511Y394795D01*
D02*
G37*
G36*
X275800D02*
X276003Y394721D01*
X276133Y394610D01*
X276244Y394480D01*
X276299Y394351D01*
X276318Y394239D01*
X276336Y394165D01*
Y394128D01*
X277484Y383796D01*
X278133D01*
X278244Y383759D01*
X278447Y383666D01*
X278577Y383555D01*
X278688Y383407D01*
X278744Y383259D01*
X278762Y383148D01*
X278781Y383055D01*
Y383018D01*
Y381796D01*
X278762Y381667D01*
X278744Y381537D01*
X278651Y381352D01*
X278596Y381296D01*
X278559Y381241D01*
X278540Y381222D01*
X278521Y381204D01*
X278429Y381130D01*
X278336Y381093D01*
X278151Y381018D01*
X278077D01*
X278040Y381000D01*
X277985D01*
X277873Y381018D01*
X277781Y381037D01*
X277596Y381130D01*
X277484Y381204D01*
X277466Y381222D01*
X277447Y381241D01*
X277355Y381333D01*
X277299Y381426D01*
X277225Y381611D01*
X277207Y381685D01*
X277188Y381741D01*
Y381778D01*
Y381796D01*
Y382222D01*
X271430D01*
Y381796D01*
X271411Y381667D01*
X271393Y381537D01*
X271300Y381352D01*
X271244Y381296D01*
X271207Y381241D01*
X271189Y381222D01*
X271170Y381204D01*
X271078Y381130D01*
X270985Y381093D01*
X270800Y381018D01*
X270726D01*
X270689Y381000D01*
X270633D01*
X270522Y381018D01*
X270430Y381037D01*
X270245Y381130D01*
X270133Y381204D01*
X270115Y381222D01*
X270096Y381241D01*
X270004Y381333D01*
X269948Y381426D01*
X269874Y381611D01*
X269856Y381685D01*
X269837Y381741D01*
Y381778D01*
Y381796D01*
Y383018D01*
Y383148D01*
X269874Y383278D01*
X269967Y383463D01*
X270096Y383611D01*
X270226Y383703D01*
X270374Y383759D01*
X270504Y383778D01*
X270596Y383796D01*
X271059D01*
Y394036D01*
Y394184D01*
X271096Y394295D01*
X271189Y394499D01*
X271318Y394647D01*
X271467Y394739D01*
X271615Y394795D01*
X271744Y394813D01*
X271837Y394832D01*
X275688D01*
X275800Y394795D01*
D02*
G37*
%LPC*%
G36*
X305408Y393258D02*
X302537D01*
X302371Y393240D01*
X302223Y393202D01*
X302093Y393165D01*
X301982Y393110D01*
X301889Y393036D01*
X301834Y392999D01*
X301797Y392962D01*
X301778Y392943D01*
X301686Y392832D01*
X301612Y392702D01*
X301556Y392573D01*
X301519Y392462D01*
X301501Y392351D01*
X301482Y392277D01*
Y392221D01*
Y392202D01*
Y390980D01*
X301501Y390814D01*
X301538Y390666D01*
X301575Y390518D01*
X301630Y390406D01*
X301704Y390314D01*
X301741Y390258D01*
X301778Y390221D01*
X301797Y390203D01*
X301926Y390110D01*
X302038Y390036D01*
X302167Y389999D01*
X302278Y389962D01*
X302389Y389944D01*
X302463Y389925D01*
X305408D01*
Y393258D01*
D02*
G37*
G36*
Y388351D02*
X301926D01*
X301760Y388333D01*
X301612Y388296D01*
X301482Y388259D01*
X301371Y388203D01*
X301278Y388129D01*
X301223Y388092D01*
X301186Y388055D01*
X301167Y388036D01*
X301075Y387925D01*
X301001Y387796D01*
X300945Y387666D01*
X300908Y387555D01*
X300889Y387444D01*
X300871Y387370D01*
Y387314D01*
Y387296D01*
Y384851D01*
X300889Y384685D01*
X300927Y384537D01*
X300964Y384389D01*
X301019Y384277D01*
X301093Y384185D01*
X301130Y384129D01*
X301167Y384092D01*
X301186Y384074D01*
X301315Y383981D01*
X301427Y383907D01*
X301556Y383870D01*
X301667Y383833D01*
X301778Y383815D01*
X301852Y383796D01*
X305408D01*
Y388351D01*
D02*
G37*
G36*
X295594Y393258D02*
X292113D01*
X291946Y393240D01*
X291798Y393202D01*
X291668Y393165D01*
X291557Y393110D01*
X291465Y393036D01*
X291409Y392999D01*
X291372Y392962D01*
X291353Y392943D01*
X291261Y392832D01*
X291187Y392702D01*
X291131Y392573D01*
X291094Y392462D01*
X291076Y392351D01*
X291057Y392277D01*
Y392221D01*
Y392202D01*
Y389758D01*
X291076Y389592D01*
X291113Y389444D01*
X291150Y389295D01*
X291205Y389184D01*
X291279Y389092D01*
X291316Y389036D01*
X291353Y388999D01*
X291372Y388981D01*
X291502Y388888D01*
X291613Y388814D01*
X291742Y388777D01*
X291853Y388740D01*
X291964Y388721D01*
X292039Y388703D01*
X295594D01*
Y393258D01*
D02*
G37*
G36*
X262430Y388351D02*
X260172D01*
X260005Y388333D01*
X259857Y388296D01*
X259727Y388259D01*
X259616Y388203D01*
X259523Y388129D01*
X259468Y388092D01*
X259431Y388055D01*
X259412Y388036D01*
X259320Y387925D01*
X259246Y387796D01*
X259190Y387666D01*
X259153Y387555D01*
X259135Y387444D01*
X259116Y387370D01*
Y387314D01*
Y387296D01*
Y384851D01*
X259135Y384685D01*
X259172Y384537D01*
X259209Y384389D01*
X259264Y384277D01*
X259338Y384185D01*
X259375Y384129D01*
X259412Y384092D01*
X259431Y384074D01*
X259561Y383981D01*
X259672Y383907D01*
X259801Y383870D01*
X259912Y383833D01*
X260023Y383815D01*
X260097Y383796D01*
X261394D01*
X261542Y383815D01*
X261671Y383833D01*
X261764Y383852D01*
X261801D01*
X261931Y383926D01*
X262042Y384000D01*
X262116Y384074D01*
X262153Y384092D01*
X262245Y384203D01*
X262319Y384333D01*
X262356Y384463D01*
X262393Y384592D01*
X262412Y384685D01*
X262430Y384777D01*
Y384833D01*
Y384851D01*
Y387981D01*
Y388351D01*
D02*
G37*
G36*
X251691Y393258D02*
X251561D01*
X251283Y393240D01*
X251024Y393165D01*
X250784Y393073D01*
X250598Y392962D01*
X250432Y392851D01*
X250302Y392758D01*
X250228Y392684D01*
X250210Y392665D01*
X250117Y392499D01*
X250043Y392332D01*
X249987Y392147D01*
X249950Y391980D01*
X249932Y391832D01*
X249913Y391703D01*
Y391628D01*
Y391591D01*
X249932Y391351D01*
X249987Y391129D01*
X250043Y390925D01*
X250117Y390758D01*
X250210Y390610D01*
X250265Y390518D01*
X250321Y390443D01*
X250339Y390425D01*
X250524Y390258D01*
X250728Y390129D01*
X250932Y390055D01*
X251135Y389981D01*
X251302Y389944D01*
X251432Y389925D01*
X251561D01*
X251839Y389944D01*
X252117Y390018D01*
X252339Y390110D01*
X252543Y390221D01*
X252709Y390332D01*
X252820Y390425D01*
X252913Y390499D01*
X252931Y390518D01*
X253024Y390684D01*
X253098Y390851D01*
X253135Y391036D01*
X253172Y391203D01*
X253191Y391351D01*
X253209Y391480D01*
Y391554D01*
Y391591D01*
X253191Y391832D01*
X253154Y392054D01*
X253080Y392240D01*
X253006Y392425D01*
X252931Y392554D01*
X252857Y392647D01*
X252820Y392721D01*
X252802Y392739D01*
X252598Y392906D01*
X252395Y393036D01*
X252191Y393128D01*
X251987Y393202D01*
X251821Y393240D01*
X251691Y393258D01*
D02*
G37*
G36*
X251672Y388351D02*
X251561D01*
X251172Y388314D01*
X250839Y388240D01*
X250543Y388129D01*
X250302Y387999D01*
X250117Y387851D01*
X249969Y387740D01*
X249895Y387666D01*
X249858Y387629D01*
X249673Y387370D01*
X249524Y387110D01*
X249432Y386851D01*
X249358Y386610D01*
X249321Y386388D01*
X249284Y386222D01*
Y386111D01*
Y386092D01*
Y386073D01*
X249302Y385740D01*
X249376Y385425D01*
X249469Y385166D01*
X249562Y384925D01*
X249673Y384740D01*
X249765Y384611D01*
X249839Y384537D01*
X249858Y384500D01*
X250117Y384259D01*
X250395Y384092D01*
X250672Y383963D01*
X250950Y383889D01*
X251191Y383833D01*
X251395Y383815D01*
X251450Y383796D01*
X251561D01*
X251950Y383833D01*
X252283Y383907D01*
X252580Y384018D01*
X252820Y384148D01*
X253024Y384277D01*
X253172Y384389D01*
X253246Y384463D01*
X253283Y384500D01*
X253468Y384740D01*
X253598Y385018D01*
X253709Y385277D01*
X253765Y385518D01*
X253802Y385740D01*
X253820Y385925D01*
X253839Y386036D01*
Y386055D01*
Y386073D01*
X253820Y386407D01*
X253746Y386703D01*
X253654Y386981D01*
X253561Y387203D01*
X253450Y387388D01*
X253376Y387536D01*
X253302Y387610D01*
X253283Y387648D01*
X253024Y387888D01*
X252746Y388055D01*
X252469Y388184D01*
X252191Y388259D01*
X251932Y388314D01*
X251747Y388333D01*
X251672Y388351D01*
D02*
G37*
G36*
X204770Y393258D02*
X203937D01*
X203751Y393240D01*
X203566Y393202D01*
X203418Y393128D01*
X203288Y393073D01*
X203177Y392999D01*
X203103Y392925D01*
X203048Y392888D01*
X203029Y392869D01*
X202900Y392721D01*
X202807Y392573D01*
X202733Y392406D01*
X202696Y392277D01*
X202659Y392147D01*
X202640Y392054D01*
Y391980D01*
Y391962D01*
Y385092D01*
X202659Y384888D01*
X202696Y384722D01*
X202770Y384555D01*
X202826Y384426D01*
X202900Y384314D01*
X202974Y384240D01*
X203011Y384185D01*
X203029Y384166D01*
X203177Y384037D01*
X203326Y383944D01*
X203492Y383889D01*
X203622Y383852D01*
X203751Y383815D01*
X203844Y383796D01*
X204677D01*
X204862Y383815D01*
X205048Y383852D01*
X205196Y383907D01*
X205325Y383981D01*
X205436Y384055D01*
X205511Y384111D01*
X205566Y384148D01*
X205585Y384166D01*
X205714Y384314D01*
X205807Y384481D01*
X205862Y384629D01*
X205899Y384777D01*
X205936Y384907D01*
X205955Y385000D01*
Y385074D01*
Y385092D01*
Y391962D01*
X205936Y392147D01*
X205899Y392332D01*
X205844Y392480D01*
X205770Y392610D01*
X205696Y392721D01*
X205640Y392795D01*
X205603Y392851D01*
X205585Y392869D01*
X205436Y392999D01*
X205288Y393091D01*
X205140Y393165D01*
X204992Y393202D01*
X204862Y393240D01*
X204770Y393258D01*
D02*
G37*
G36*
X196178D02*
X195345D01*
X195160Y393240D01*
X194975Y393202D01*
X194826Y393128D01*
X194697Y393073D01*
X194586Y392999D01*
X194512Y392925D01*
X194456Y392888D01*
X194438Y392869D01*
X194308Y392721D01*
X194215Y392573D01*
X194141Y392406D01*
X194104Y392277D01*
X194067Y392147D01*
X194049Y392054D01*
Y391980D01*
Y391962D01*
Y385092D01*
X194067Y384888D01*
X194104Y384722D01*
X194178Y384555D01*
X194234Y384426D01*
X194308Y384314D01*
X194382Y384240D01*
X194419Y384185D01*
X194438Y384166D01*
X194586Y384037D01*
X194734Y383944D01*
X194900Y383889D01*
X195030Y383852D01*
X195160Y383815D01*
X195252Y383796D01*
X196086D01*
X196271Y383815D01*
X196456Y383852D01*
X196604Y383907D01*
X196734Y383981D01*
X196845Y384055D01*
X196919Y384111D01*
X196974Y384148D01*
X196993Y384166D01*
X197122Y384314D01*
X197215Y384481D01*
X197271Y384629D01*
X197308Y384777D01*
X197345Y384907D01*
X197363Y385000D01*
Y385074D01*
Y385092D01*
Y391962D01*
X197345Y392147D01*
X197308Y392332D01*
X197252Y392480D01*
X197178Y392610D01*
X197104Y392721D01*
X197048Y392795D01*
X197011Y392851D01*
X196993Y392869D01*
X196845Y392999D01*
X196697Y393091D01*
X196549Y393165D01*
X196400Y393202D01*
X196271Y393240D01*
X196178Y393258D01*
D02*
G37*
G36*
X274818D02*
X272652D01*
Y383796D01*
X275911D01*
X274818Y393258D01*
D02*
G37*
%LPD*%
G36*
X211790Y306133D02*
X211419Y306188D01*
X211063Y306214D01*
X210722Y306210D01*
X210397Y306176D01*
X210087Y306112D01*
X209792Y306019D01*
X209512Y305896D01*
X209247Y305743D01*
X208998Y305561D01*
X208764Y305349D01*
X207607Y307021D01*
X207804Y307236D01*
X207988Y307472D01*
X208158Y307730D01*
X208314Y308010D01*
X208458Y308311D01*
X208587Y308634D01*
X208703Y308978D01*
X208895Y309732D01*
X208971Y310141D01*
X211790Y306133D01*
D02*
G37*
G36*
X332015Y272149D02*
X332058Y271845D01*
X332131Y271544D01*
X332232Y271245D01*
X332363Y270949D01*
X332522Y270654D01*
X332710Y270362D01*
X332928Y270072D01*
X333175Y269785D01*
X333450Y269499D01*
X328550D01*
X328825Y269785D01*
X329072Y270072D01*
X329290Y270362D01*
X329478Y270654D01*
X329637Y270949D01*
X329768Y271245D01*
X329869Y271544D01*
X329942Y271845D01*
X329986Y272149D01*
X330000Y272454D01*
X332000D01*
X332015Y272149D01*
D02*
G37*
G36*
X344516Y272250D02*
X344563Y271945D01*
X344641Y271649D01*
X344751Y271361D01*
X344892Y271083D01*
X345064Y270813D01*
X345268Y270553D01*
X345503Y270301D01*
X345770Y270058D01*
X346068Y269824D01*
X341218Y269124D01*
X341462Y269457D01*
X341872Y270112D01*
X342038Y270432D01*
X342179Y270748D01*
X342295Y271060D01*
X342385Y271367D01*
X342449Y271670D01*
X342487Y271968D01*
X342500Y272262D01*
X344500Y272564D01*
X344516Y272250D01*
D02*
G37*
G36*
X305507Y270568D02*
X305536Y270191D01*
X305587Y269832D01*
X305660Y269492D01*
X305756Y269171D01*
X305873Y268869D01*
X306013Y268586D01*
X306174Y268322D01*
X306358Y268077D01*
X306564Y267850D01*
X305149Y266436D01*
X304923Y266642D01*
X304678Y266826D01*
X304414Y266987D01*
X304131Y267127D01*
X303829Y267244D01*
X303508Y267340D01*
X303168Y267413D01*
X302809Y267464D01*
X302432Y267493D01*
X302035Y267500D01*
X305500Y270965D01*
X305507Y270568D01*
D02*
G37*
G36*
X293500Y256550D02*
X293215Y256826D01*
X292927Y257072D01*
X292638Y257290D01*
X292346Y257478D01*
X292051Y257638D01*
X291755Y257768D01*
X291456Y257869D01*
X291155Y257942D01*
X290851Y257985D01*
X290546Y258000D01*
Y260000D01*
X290851Y260014D01*
X291155Y260058D01*
X291456Y260131D01*
X291755Y260232D01*
X292051Y260362D01*
X292346Y260522D01*
X292638Y260711D01*
X292927Y260928D01*
X293215Y261175D01*
X293500Y261450D01*
Y256550D01*
D02*
G37*
G36*
Y243550D02*
X293215Y243825D01*
X292927Y244072D01*
X292638Y244289D01*
X292346Y244478D01*
X292051Y244638D01*
X291755Y244768D01*
X291456Y244869D01*
X291155Y244942D01*
X290851Y244986D01*
X290546Y245000D01*
Y247000D01*
X290851Y247015D01*
X291155Y247058D01*
X291456Y247131D01*
X291755Y247232D01*
X292051Y247362D01*
X292346Y247522D01*
X292638Y247710D01*
X292927Y247928D01*
X293215Y248174D01*
X293500Y248450D01*
Y243550D01*
D02*
G37*
G36*
X293065Y227093D02*
X292852Y227397D01*
X292626Y227669D01*
X292390Y227909D01*
X292142Y228117D01*
X291883Y228293D01*
X291612Y228437D01*
X291329Y228548D01*
X291035Y228628D01*
X290730Y228676D01*
X290413Y228692D01*
X290836Y230692D01*
X291125Y230704D01*
X291420Y230741D01*
X291723Y230801D01*
X292032Y230885D01*
X292348Y230993D01*
X292672Y231126D01*
X293002Y231282D01*
X293683Y231667D01*
X294035Y231896D01*
X293065Y227093D01*
D02*
G37*
G36*
X288507Y224568D02*
X288536Y224191D01*
X288587Y223832D01*
X288660Y223492D01*
X288756Y223171D01*
X288873Y222869D01*
X289013Y222586D01*
X289174Y222322D01*
X289358Y222077D01*
X289564Y221850D01*
X288150Y220436D01*
X287923Y220642D01*
X287678Y220826D01*
X287414Y220987D01*
X287131Y221127D01*
X286829Y221244D01*
X286508Y221340D01*
X286168Y221413D01*
X285809Y221464D01*
X285432Y221493D01*
X285035Y221500D01*
X288500Y224965D01*
X288507Y224568D01*
D02*
G37*
G36*
X551175Y356215D02*
X550928Y355928D01*
X550710Y355638D01*
X550522Y355345D01*
X550363Y355051D01*
X550232Y354755D01*
X550131Y354456D01*
X550058Y354155D01*
X550014Y353851D01*
X550000Y353546D01*
X548000D01*
X547985Y353851D01*
X547942Y354155D01*
X547869Y354456D01*
X547768Y354755D01*
X547637Y355051D01*
X547478Y355345D01*
X547290Y355638D01*
X547072Y355928D01*
X546825Y356215D01*
X546550Y356501D01*
X551450D01*
X551175Y356215D01*
D02*
G37*
G36*
X584965Y341500D02*
X584568Y341493D01*
X584191Y341464D01*
X583832Y341413D01*
X583492Y341340D01*
X583171Y341244D01*
X582869Y341127D01*
X582586Y340987D01*
X582322Y340826D01*
X582077Y340642D01*
X581851Y340436D01*
X580436Y341851D01*
X580642Y342077D01*
X580826Y342322D01*
X580987Y342586D01*
X581127Y342869D01*
X581244Y343171D01*
X581340Y343492D01*
X581413Y343832D01*
X581464Y344191D01*
X581493Y344568D01*
X581500Y344965D01*
X584965Y341500D01*
D02*
G37*
G36*
X427625Y217210D02*
X427420Y216986D01*
X427237Y216742D01*
X427073Y216479D01*
X426929Y216196D01*
X426806Y215894D01*
X426703Y215572D01*
X426621Y215230D01*
X426558Y214868D01*
X426516Y214487D01*
X426494Y214087D01*
X423166Y217684D01*
X423558Y217676D01*
X423932Y217692D01*
X424288Y217732D01*
X424625Y217796D01*
X424944Y217884D01*
X425245Y217996D01*
X425528Y218132D01*
X425793Y218291D01*
X426039Y218475D01*
X426268Y218682D01*
X427625Y217210D01*
D02*
G37*
G36*
X425015Y178694D02*
X425060Y178390D01*
X425135Y178091D01*
X425240Y177796D01*
X425375Y177505D01*
X425540Y177220D01*
X425734Y176939D01*
X425959Y176663D01*
X426214Y176391D01*
X426499Y176124D01*
X421606Y175868D01*
X421871Y176171D01*
X422108Y176474D01*
X422317Y176778D01*
X422498Y177080D01*
X422651Y177383D01*
X422777Y177686D01*
X422874Y177988D01*
X422944Y178290D01*
X422986Y178592D01*
X423000Y178894D01*
X425000Y179003D01*
X425015Y178694D01*
D02*
G37*
G36*
X278077Y184358D02*
X278322Y184174D01*
X278586Y184013D01*
X278869Y183873D01*
X279171Y183756D01*
X279492Y183660D01*
X279832Y183587D01*
X280191Y183536D01*
X280568Y183507D01*
X280965Y183500D01*
X277500Y180035D01*
X277493Y180432D01*
X277464Y180809D01*
X277413Y181168D01*
X277340Y181508D01*
X277244Y181829D01*
X277127Y182131D01*
X276987Y182414D01*
X276826Y182678D01*
X276642Y182923D01*
X276436Y183150D01*
X277850Y184564D01*
X278077Y184358D01*
D02*
G37*
G36*
X268965Y176500D02*
X268568Y176493D01*
X268191Y176464D01*
X267832Y176413D01*
X267492Y176340D01*
X267171Y176244D01*
X266869Y176127D01*
X266586Y175987D01*
X266322Y175826D01*
X266077Y175642D01*
X265851Y175436D01*
X264436Y176850D01*
X264642Y177077D01*
X264826Y177322D01*
X264987Y177586D01*
X265127Y177869D01*
X265244Y178171D01*
X265340Y178492D01*
X265413Y178832D01*
X265464Y179191D01*
X265493Y179568D01*
X265500Y179965D01*
X268965Y176500D01*
D02*
G37*
G36*
X256965D02*
X256568Y176493D01*
X256191Y176464D01*
X255832Y176413D01*
X255492Y176340D01*
X255171Y176244D01*
X254869Y176127D01*
X254586Y175987D01*
X254322Y175826D01*
X254077Y175642D01*
X253850Y175436D01*
X252436Y176850D01*
X252642Y177077D01*
X252826Y177322D01*
X252987Y177586D01*
X253127Y177869D01*
X253244Y178171D01*
X253340Y178492D01*
X253413Y178832D01*
X253464Y179191D01*
X253493Y179568D01*
X253500Y179965D01*
X256965Y176500D01*
D02*
G37*
G36*
X244965D02*
X244568Y176493D01*
X244191Y176464D01*
X243832Y176413D01*
X243492Y176340D01*
X243171Y176244D01*
X242869Y176127D01*
X242586Y175987D01*
X242322Y175826D01*
X242077Y175642D01*
X241850Y175436D01*
X240436Y176850D01*
X240642Y177077D01*
X240826Y177322D01*
X240987Y177586D01*
X241127Y177869D01*
X241244Y178171D01*
X241340Y178492D01*
X241413Y178832D01*
X241464Y179191D01*
X241493Y179568D01*
X241500Y179965D01*
X244965Y176500D01*
D02*
G37*
G36*
X232965D02*
X232568Y176493D01*
X232191Y176464D01*
X231832Y176413D01*
X231492Y176340D01*
X231171Y176244D01*
X230869Y176127D01*
X230586Y175987D01*
X230322Y175826D01*
X230077Y175642D01*
X229851Y175436D01*
X228436Y176850D01*
X228642Y177077D01*
X228826Y177322D01*
X228987Y177586D01*
X229127Y177869D01*
X229244Y178171D01*
X229340Y178492D01*
X229413Y178832D01*
X229464Y179191D01*
X229493Y179568D01*
X229500Y179965D01*
X232965Y176500D01*
D02*
G37*
G36*
X220760Y137842D02*
X221329Y136500D01*
X220977Y135973D01*
X220744Y134803D01*
X220744Y134802D01*
Y86027D01*
X211000D01*
X177297Y86243D01*
X176861Y86866D01*
X176525Y87420D01*
X176285Y87898D01*
X176137Y88287D01*
X176066Y88575D01*
X176061Y88631D01*
Y94735D01*
X219308Y137982D01*
X220760Y137842D01*
D02*
G37*
G36*
X224813Y85616D02*
X224843Y85275D01*
X224893Y84974D01*
X224963Y84711D01*
X225053Y84489D01*
X225163Y84305D01*
X225292Y84161D01*
X225443Y84057D01*
X225613Y83992D01*
X225802Y83966D01*
X221803D01*
X221992Y83992D01*
X222162Y84057D01*
X222313Y84161D01*
X222443Y84305D01*
X222553Y84489D01*
X222643Y84711D01*
X222713Y84974D01*
X222763Y85275D01*
X222792Y85616D01*
X222803Y85996D01*
X224802D01*
X224813Y85616D01*
D02*
G37*
G36*
X174049Y88241D02*
X174186Y87678D01*
X174417Y87076D01*
X174739Y86433D01*
X175153Y85750D01*
X175659Y85028D01*
X176257Y84266D01*
X177729Y82622D01*
X178603Y81740D01*
X167403D01*
X168277Y82622D01*
X170347Y85028D01*
X170853Y85750D01*
X171267Y86433D01*
X171589Y87076D01*
X171819Y87678D01*
X171957Y88241D01*
X172003Y88764D01*
X174002D01*
X174049Y88241D01*
D02*
G37*
G36*
X130756Y85535D02*
X130383Y85091D01*
X130076Y84574D01*
X129835Y83983D01*
X129661Y83318D01*
X129553Y82579D01*
X129511Y81767D01*
X129536Y80881D01*
X129627Y79921D01*
X129784Y78887D01*
X130008Y77779D01*
X120606Y83866D01*
X121968Y84154D01*
X127049Y85560D01*
X127719Y85834D01*
X128273Y86106D01*
X128713Y86376D01*
X129037Y86643D01*
X130756Y85535D01*
D02*
G37*
G36*
X194894Y68837D02*
X193544Y69504D01*
X189155Y72032D01*
X189042Y72208D01*
X189107Y72313D01*
X189348Y72348D01*
Y74348D01*
X189269Y74398D01*
X189247Y74550D01*
X189283Y74802D01*
X189376Y75155D01*
X189527Y75609D01*
X190001Y76819D01*
X191144Y79391D01*
X194894Y68837D01*
D02*
G37*
G36*
X182868Y58724D02*
X182502Y58297D01*
X182177Y57787D01*
X181891Y57194D01*
X181645Y56517D01*
X181438Y55757D01*
X181271Y54913D01*
X181145Y53987D01*
X181010Y51883D01*
X181002Y50707D01*
X173083Y58626D01*
X174259Y58634D01*
X176362Y58769D01*
X177289Y58896D01*
X178132Y59062D01*
X178892Y59269D01*
X179569Y59515D01*
X180163Y59801D01*
X180673Y60127D01*
X181100Y60492D01*
X182868Y58724D01*
D02*
G37*
G36*
X157316Y58926D02*
X156979Y58524D01*
X156679Y58028D01*
X156415Y57440D01*
X156188Y56757D01*
X155998Y55982D01*
X155845Y55114D01*
X155729Y54152D01*
X155608Y51948D01*
X155602Y50707D01*
X147683Y58626D01*
X148924Y58632D01*
X152089Y58870D01*
X152958Y59023D01*
X153733Y59213D01*
X154415Y59439D01*
X155004Y59703D01*
X155500Y60003D01*
X155902Y60340D01*
X157316Y58926D01*
D02*
G37*
G36*
X548175Y266215D02*
X547928Y265928D01*
X547710Y265638D01*
X547522Y265345D01*
X547363Y265051D01*
X547232Y264755D01*
X547131Y264456D01*
X547058Y264155D01*
X547015Y263851D01*
X547000Y263546D01*
X545000D01*
X544986Y263851D01*
X544942Y264155D01*
X544869Y264456D01*
X544768Y264755D01*
X544637Y265051D01*
X544478Y265345D01*
X544290Y265638D01*
X544072Y265928D01*
X543825Y266215D01*
X543550Y266500D01*
X548450D01*
X548175Y266215D01*
D02*
G37*
G36*
X560176Y187932D02*
X559942Y188230D01*
X559699Y188497D01*
X559447Y188732D01*
X559187Y188936D01*
X558917Y189108D01*
X558639Y189249D01*
X558351Y189359D01*
X558055Y189437D01*
X557750Y189484D01*
X557436Y189500D01*
X557738Y191500D01*
X558032Y191513D01*
X558330Y191551D01*
X558633Y191615D01*
X558940Y191705D01*
X559252Y191821D01*
X559568Y191961D01*
X559888Y192128D01*
X560213Y192320D01*
X560876Y192782D01*
X560176Y187932D01*
D02*
G37*
G36*
X604365Y214396D02*
X604288Y214260D01*
X604221Y214093D01*
X604162Y213893D01*
X604113Y213662D01*
X604072Y213399D01*
X604018Y212777D01*
X604000Y212028D01*
X600000D01*
X599995Y212418D01*
X599928Y213399D01*
X599888Y213662D01*
X599838Y213893D01*
X599780Y214093D01*
X599712Y214260D01*
X599636Y214396D01*
X599550Y214501D01*
X604450D01*
X604365Y214396D01*
D02*
G37*
G36*
X580604Y126364D02*
X580740Y126288D01*
X580907Y126221D01*
X581107Y126162D01*
X581338Y126112D01*
X581601Y126072D01*
X582223Y126018D01*
X582972Y126000D01*
Y122000D01*
X582582Y121995D01*
X581601Y121928D01*
X581338Y121888D01*
X581107Y121838D01*
X580907Y121779D01*
X580740Y121712D01*
X580604Y121636D01*
X580499Y121550D01*
Y126450D01*
X580604Y126364D01*
D02*
G37*
G36*
X354993Y158579D02*
X354795Y158363D01*
X354612Y158127D01*
X354442Y157868D01*
X354286Y157589D01*
X354144Y157287D01*
X354015Y156964D01*
X353901Y156620D01*
X353800Y156254D01*
X353641Y155457D01*
X350795Y159446D01*
X351167Y159393D01*
X351524Y159370D01*
X351866Y159376D01*
X352192Y159411D01*
X352503Y159476D01*
X352798Y159570D01*
X353078Y159694D01*
X353343Y159846D01*
X353592Y160029D01*
X353826Y160240D01*
X354993Y158579D01*
D02*
G37*
G36*
X368968Y158174D02*
X369256Y157928D01*
X369546Y157711D01*
X369838Y157522D01*
X370132Y157362D01*
X370429Y157232D01*
X370727Y157130D01*
X371029Y157058D01*
X371332Y157015D01*
X371637Y157000D01*
Y155000D01*
X371332Y154986D01*
X371029Y154942D01*
X370727Y154869D01*
X370429Y154768D01*
X370132Y154637D01*
X369838Y154478D01*
X369546Y154290D01*
X369256Y154072D01*
X368968Y153826D01*
X368683Y153550D01*
Y158450D01*
X368968Y158174D01*
D02*
G37*
G36*
X431858Y134224D02*
X432106Y134041D01*
X432371Y133883D01*
X432653Y133751D01*
X432953Y133644D01*
X433271Y133562D01*
X433606Y133505D01*
X433958Y133475D01*
X434328Y133469D01*
X434715Y133488D01*
X431507Y129785D01*
X431472Y130189D01*
X431418Y130572D01*
X431346Y130935D01*
X431256Y131278D01*
X431146Y131601D01*
X431018Y131904D01*
X430872Y132186D01*
X430706Y132449D01*
X430522Y132691D01*
X430320Y132913D01*
X431628Y134433D01*
X431858Y134224D01*
D02*
G37*
G36*
X559077Y128358D02*
X559322Y128174D01*
X559586Y128013D01*
X559869Y127873D01*
X560171Y127756D01*
X560492Y127660D01*
X560832Y127587D01*
X561191Y127536D01*
X561568Y127507D01*
X561965Y127500D01*
X558500Y124035D01*
X558493Y124432D01*
X558464Y124809D01*
X558413Y125168D01*
X558340Y125508D01*
X558244Y125829D01*
X558127Y126131D01*
X557987Y126414D01*
X557826Y126678D01*
X557642Y126923D01*
X557436Y127149D01*
X558851Y128564D01*
X559077Y128358D01*
D02*
G37*
D11*
X217657Y324000D02*
X297000D01*
X331000Y290000D01*
Y267000D02*
Y290000D01*
X197000Y303343D02*
X217657Y324000D01*
X197000Y274000D02*
Y303343D01*
X171000Y248000D02*
X197000Y274000D01*
X300882Y220000D02*
X307000Y226117D01*
X290000Y220000D02*
X300882D01*
X307000Y226117D02*
Y266000D01*
X292000Y339000D02*
X343500Y287500D01*
Y267500D02*
Y287500D01*
X201000Y280000D02*
X226000Y255000D01*
X264192D01*
X201000Y280000D02*
Y299000D01*
X205000Y282000D02*
X228000Y259000D01*
X265849D01*
X205000Y282000D02*
Y291000D01*
X212000Y284000D02*
X232000Y264000D01*
X212000Y284000D02*
Y285000D01*
X211575Y309575D02*
X212425D01*
X201000Y299000D02*
X211575Y309575D01*
X165000Y277000D02*
X227000Y339000D01*
X292000D01*
X273000Y259000D02*
X296000D01*
X232000Y264000D02*
X268000D01*
X273000Y259000D01*
X205000Y291000D02*
X212000Y298000D01*
X234808Y191000D02*
X270000D01*
X281000Y180000D01*
X424000Y206000D02*
X549000Y331000D01*
X424000Y173683D02*
Y206000D01*
X423188Y214188D02*
X549000Y340000D01*
X422995Y214188D02*
X423188D01*
X549000Y331000D02*
X571000D01*
X549000Y340000D02*
Y359000D01*
X424000Y173683D02*
X424183Y173500D01*
X571000Y331000D02*
X585000Y345000D01*
X562500Y190500D02*
X563000Y190000D01*
X556500Y190500D02*
X562500D01*
X546000Y201000D02*
X556500Y190500D01*
X546000Y201000D02*
Y269000D01*
X168000Y63000D02*
X179000D01*
X189348Y73348D02*
X195724D01*
X179000Y63000D02*
X189348Y73348D01*
X195724D02*
X198403Y76027D01*
X160000Y55000D02*
X168000Y63000D01*
X160000Y42000D02*
Y55000D01*
X156065Y38065D02*
X160000Y42000D01*
X141349Y38651D02*
X141935Y38065D01*
X135000Y45000D02*
X141349Y38651D01*
X141935Y38065D02*
X156065D01*
X135000Y45000D02*
Y82000D01*
X420438Y144209D02*
Y144395D01*
Y144209D02*
X434647Y130000D01*
X435000D01*
X408833Y156000D02*
X420438Y144395D01*
X358000Y163000D02*
X409000D01*
X366183Y156000D02*
X408833D01*
X409000Y163000D02*
X426000Y146000D01*
X540000D01*
X135000Y82000D02*
X233000Y180000D01*
X122203Y78395D02*
X234808Y191000D01*
X302000Y271000D02*
X307000Y266000D01*
X264192Y255000D02*
X289500Y229692D01*
X295308D01*
X296000Y229000D01*
X285000Y225000D02*
X290000Y220000D01*
X540000Y146000D02*
X562000Y124000D01*
X349175Y154175D02*
X358000Y163000D01*
X223803Y76027D02*
Y134803D01*
X269000Y180000D01*
X173002Y76027D02*
Y96003D01*
X257000Y180000D01*
X147603Y50627D02*
X160000Y63024D01*
Y95000D01*
X245000Y180000D01*
X122203Y76027D02*
Y78395D01*
X265849Y259000D02*
X278849Y246000D01*
X296000D01*
X343500Y267500D02*
X344000Y267000D01*
D12*
X592000Y124000D02*
X602000Y134000D01*
X578000Y124000D02*
X592000D01*
X602000Y134000D02*
Y217000D01*
D13*
X329000Y230000D02*
X340000Y241000D01*
X329000Y192000D02*
Y230000D01*
X238000Y101000D02*
X329000Y192000D01*
X340000Y241000D02*
X419183D01*
X238000Y66000D02*
Y101000D01*
X173002Y50627D02*
X185376Y63000D01*
X235000D01*
X238000Y66000D01*
D15*
X458000Y59000D02*
X475000Y42000D01*
X458000Y59000D02*
Y76000D01*
X475000Y42000D02*
X554000D01*
X554000Y42000D01*
D76*
X142000Y404000D02*
X161000Y423000D01*
X94000Y97000D02*
X142000Y145000D01*
Y404000D01*
X161000Y423000D02*
X162000D01*
X94000Y39000D02*
X107000Y26000D01*
X312000D01*
X94000Y39000D02*
Y97000D01*
X399000Y113000D02*
X420000D01*
X312000Y26000D02*
X399000Y113000D01*
D86*
X198403Y76027D02*
D03*
X173002Y50627D02*
D03*
X147603Y76027D02*
D03*
Y50627D02*
D03*
X223803D02*
D03*
X173002Y76027D02*
D03*
X198403Y50627D02*
D03*
X122203Y76027D02*
D03*
Y50627D02*
D03*
X591386Y392790D02*
D03*
X566386D02*
D03*
D87*
X223803Y76027D02*
D03*
X541386Y392790D02*
D03*
D88*
X212000Y285000D02*
D03*
X212425Y309575D02*
D03*
X289000Y331000D02*
D03*
X212000Y298000D02*
D03*
X249000Y290500D02*
D03*
X312500Y370000D02*
D03*
X593000Y143000D02*
D03*
X282500Y130000D02*
D03*
X264000Y163000D02*
D03*
X231000Y100000D02*
D03*
X249000Y147000D02*
D03*
X507500Y280000D02*
D03*
X672500Y370000D02*
D03*
Y310000D02*
D03*
Y130000D02*
D03*
Y70000D02*
D03*
X657500Y280000D02*
D03*
X642500Y250000D02*
D03*
Y190000D02*
D03*
X657500Y160000D02*
D03*
X642500Y70000D02*
D03*
X627500Y400000D02*
D03*
X612500Y370000D02*
D03*
X627500Y340000D02*
D03*
Y220000D02*
D03*
X612500Y190000D02*
D03*
Y130000D02*
D03*
X627500Y100000D02*
D03*
X612500Y70000D02*
D03*
X627500Y40000D02*
D03*
X612500Y10000D02*
D03*
X582500Y370000D02*
D03*
X597500Y340000D02*
D03*
Y100000D02*
D03*
X582500Y70000D02*
D03*
X552500Y370000D02*
D03*
Y310000D02*
D03*
X567500Y280000D02*
D03*
X537500D02*
D03*
Y100000D02*
D03*
X507500Y400000D02*
D03*
X492500Y310000D02*
D03*
Y250000D02*
D03*
Y190000D02*
D03*
X477500Y400000D02*
D03*
Y280000D02*
D03*
Y220000D02*
D03*
X447500Y400000D02*
D03*
X432500Y250000D02*
D03*
X447500Y40000D02*
D03*
X417500Y400000D02*
D03*
Y40000D02*
D03*
X387500Y400000D02*
D03*
X372500Y370000D02*
D03*
Y310000D02*
D03*
Y70000D02*
D03*
X387500Y40000D02*
D03*
X357500Y400000D02*
D03*
Y340000D02*
D03*
X342500Y70000D02*
D03*
X357500Y40000D02*
D03*
X327500Y400000D02*
D03*
Y340000D02*
D03*
X312500Y70000D02*
D03*
X282500Y370000D02*
D03*
X297500Y100000D02*
D03*
X282500Y70000D02*
D03*
X297500Y40000D02*
D03*
X252500Y310000D02*
D03*
X267500Y100000D02*
D03*
Y40000D02*
D03*
X222500Y370000D02*
D03*
X237500Y40000D02*
D03*
X192500Y370000D02*
D03*
X207500Y100000D02*
D03*
Y40000D02*
D03*
X162500Y370000D02*
D03*
X132500D02*
D03*
X102500D02*
D03*
X117500Y220000D02*
D03*
X102500Y190000D02*
D03*
X117500Y100000D02*
D03*
X87500Y400000D02*
D03*
X72500Y370000D02*
D03*
Y250000D02*
D03*
X87500Y220000D02*
D03*
Y160000D02*
D03*
X72500Y70000D02*
D03*
X57500Y340000D02*
D03*
Y280000D02*
D03*
Y160000D02*
D03*
Y100000D02*
D03*
X42500Y70000D02*
D03*
X27500Y100000D02*
D03*
X12500Y70000D02*
D03*
X281000Y180000D02*
D03*
X240000Y201000D02*
D03*
X171000Y248000D02*
D03*
X165000Y277000D02*
D03*
X422995Y214188D02*
D03*
X444183Y188000D02*
D03*
X585000Y345000D02*
D03*
X549000Y359000D02*
D03*
X10000Y330000D02*
D03*
X178000Y169000D02*
D03*
X170000Y320000D02*
D03*
X195000Y205000D02*
D03*
X180000Y215000D02*
D03*
X160000Y230000D02*
D03*
X205000Y185000D02*
D03*
X445000Y302000D02*
D03*
X460000Y317000D02*
D03*
X445000D02*
D03*
X420000Y296000D02*
D03*
Y317000D02*
D03*
X435000Y130000D02*
D03*
X505000Y30000D02*
D03*
X485000D02*
D03*
X585000Y233000D02*
D03*
X563000Y190000D02*
D03*
Y203000D02*
D03*
X530000Y293000D02*
D03*
X550000D02*
D03*
X570000D02*
D03*
X554000Y42000D02*
D03*
X455000Y130000D02*
D03*
X133000Y328000D02*
D03*
X121000D02*
D03*
X109000D02*
D03*
X162000Y423000D02*
D03*
X233000Y180000D02*
D03*
X342183Y226000D02*
D03*
X372183D02*
D03*
X357183D02*
D03*
X296000Y229000D02*
D03*
X342183Y211000D02*
D03*
X372183D02*
D03*
X357183Y196000D02*
D03*
X342183D02*
D03*
X372183D02*
D03*
X562000Y124000D02*
D03*
X578000D02*
D03*
X555000Y10000D02*
D03*
X435000D02*
D03*
X491000Y130000D02*
D03*
X311154Y296654D02*
D03*
X330000Y385000D02*
D03*
X296000Y246000D02*
D03*
X345000Y301000D02*
D03*
X365000D02*
D03*
X354750D02*
D03*
X420000Y113000D02*
D03*
X690000Y330000D02*
D03*
X344000Y267000D02*
D03*
X331000D02*
D03*
X296000Y259000D02*
D03*
X302000Y271000D02*
D03*
X264000Y226000D02*
D03*
X285000Y225000D02*
D03*
X245000Y180000D02*
D03*
X330000Y373000D02*
D03*
Y361000D02*
D03*
X257000Y180000D02*
D03*
X269000D02*
D03*
X126000Y200000D02*
D03*
Y180000D02*
D03*
Y190000D02*
D03*
X690000Y360000D02*
D03*
Y300000D02*
D03*
Y270000D02*
D03*
Y240000D02*
D03*
Y210000D02*
D03*
Y180000D02*
D03*
Y150000D02*
D03*
Y120000D02*
D03*
Y90000D02*
D03*
X528000Y269000D02*
D03*
Y178000D02*
D03*
Y190000D02*
D03*
X602000Y217000D02*
D03*
X424183Y173500D02*
D03*
X366183Y156000D02*
D03*
X350183D02*
D03*
X10000Y360000D02*
D03*
Y300000D02*
D03*
Y270000D02*
D03*
Y240000D02*
D03*
Y210000D02*
D03*
Y90000D02*
D03*
Y120000D02*
D03*
Y150000D02*
D03*
Y180000D02*
D03*
X585000Y10000D02*
D03*
X465000D02*
D03*
X495000D02*
D03*
X525000D02*
D03*
X345000D02*
D03*
X375000D02*
D03*
X405000D02*
D03*
X225000D02*
D03*
X255000D02*
D03*
X285000D02*
D03*
X315000D02*
D03*
X195000D02*
D03*
X165000D02*
D03*
X135000D02*
D03*
X105000D02*
D03*
X75000D02*
D03*
X585000Y440000D02*
D03*
X465000D02*
D03*
X495000D02*
D03*
X525000D02*
D03*
X555000D02*
D03*
X345000D02*
D03*
X375000D02*
D03*
X405000D02*
D03*
X435000D02*
D03*
X225000D02*
D03*
X255000D02*
D03*
X285000D02*
D03*
X315000D02*
D03*
X195000D02*
D03*
X165000D02*
D03*
X135000D02*
D03*
X105000D02*
D03*
X75000D02*
D03*
X265000Y55000D02*
D03*
X250000D02*
D03*
Y73000D02*
D03*
Y89000D02*
D03*
X265000Y73000D02*
D03*
Y89000D02*
D03*
X495000Y182000D02*
D03*
Y199000D02*
D03*
Y216000D02*
D03*
Y233000D02*
D03*
X20000Y315000D02*
D03*
Y335000D02*
D03*
X30000Y315000D02*
D03*
Y335000D02*
D03*
X324000Y123000D02*
D03*
X96000Y232000D02*
D03*
X185000Y423000D02*
D03*
X324000Y112000D02*
D03*
X421000Y410000D02*
D03*
X489000D02*
D03*
X403000Y377000D02*
D03*
X40000Y335000D02*
D03*
Y315000D02*
D03*
X35000Y220000D02*
D03*
Y190000D02*
D03*
X250000Y412000D02*
D03*
X300000D02*
D03*
X350000Y376000D02*
D03*
X473000Y130000D02*
D03*
X458000Y76000D02*
D03*
X444183Y164000D02*
D03*
X570000Y269000D02*
D03*
X419183Y241000D02*
D03*
X357183Y211000D02*
D03*
X546000Y269000D02*
D03*
M02*
